<svg id="_1917227125520" xmlns="http://www.w3.org/2000/svg" xmlns:xlink="http://www.w3.org/1999/xlink" width="244.334" height="197.921" viewBox="0 0 244.334 197.921">
  <defs>
    <radialGradient id="radial-gradient" cx="0.5" cy="0.5" r="0.5" gradientUnits="objectBoundingBox">
      <stop offset="0" stop-color="#fff"/>
      <stop offset="1" stop-color="#fff" stop-opacity="0"/>
    </radialGradient>
  </defs>
  <g id="Group_271" data-name="Group 271" transform="translate(0 0)">
    <path id="Path_998" data-name="Path 998" d="M886.652,4228.355c4.261-35.33-75.1-76.694-103.857-43.318C721.9,4255.339,877.776,4300.788,886.652,4228.355Z" transform="translate(-687.056 -4136.372)" fill="#e1ffff" fill-rule="evenodd"/>
    <path id="Path_999" data-name="Path 999" d="M426.652,4215.355c4.261-35.33-75.1-76.694-103.857-43.318C261.9,4242.34,417.776,4287.789,426.652,4215.355Z" transform="translate(-308.721 -4125.681)" fill="#c5dfdc" fill-rule="evenodd"/>
    <path id="Path_1000" data-name="Path 1000" d="M483.93,4120.786c-11.185-10.83-30.181-19.706-38.17-7.634-7.811,12.073-3.551,26.808-9.587,33.909-6.036,7.279-15.445,4.083-22.9,16.866-7.634,12.959,13.848,31.6,6.214,52.194-33.021,87.7,239.314,98.531,140.073-66.93C535.059,4108.181,505.234,4141.025,483.93,4120.786Z" transform="translate(-393.339 -4082.596)" fill="#c6ecf9" fill-rule="evenodd"/>
    <path id="Path_1001" data-name="Path 1001" d="M382.492,4728.983c59.828-6.213,118.592-6.213,176.467-2.131C586.833,4817.572,363.141,4797.156,382.492,4728.983Z" transform="translate(-368.418 -4589.777)" fill="#00f3bb" fill-rule="evenodd"/>
    <path id="Path_1002" data-name="Path 1002" d="M990.311,4095.843H958c.888-9.765,11.717-7.99,12.782-3.906,1.953-6.924,9.942-8.877,12.25-.71C983.032,4091.227,991.2,4089.451,990.311,4095.843Z" transform="translate(-842.732 -4085.879)" fill="#c6ecf9" fill-rule="evenodd"/>
    <path id="Path_1003" data-name="Path 1003" d="M1242.891,4371.994s13.67,1.953,17.576-8.344c3.906-10.119-5.326-26.1-4.438-31.6.71-5.326,10.119-17.931,4.971-25.032-5.148-6.924-24.144-15.623-31.778-6.924-7.634,8.522,4.438,23.789,3.2,27.873s-12.782,13.67-14.2,19.883C1216.972,4354.24,1222.3,4372.171,1242.891,4371.994Z" transform="translate(-1056.61 -4238.113)" fill="#e1ffff" fill-rule="evenodd"/>
    <path id="Path_1004" data-name="Path 1004" d="M1301.25,4381.8a11.99,11.99,0,0,0,2.13.178v-20.949c11.185.178,12.96-8.7,12.96-8.7l-2.663-.71s-1.42,6.747-10.3,6.569V4329.6c11.185.354,12.96-8.7,12.96-8.7l-2.663-.532s-1.42,6.746-10.3,6.391v-28.05a25.1,25.1,0,0,0-3.551-.71v13.493c-6.924-.888-7.989-6.392-7.989-6.392l-2.841.533s1.6,7.812,10.829,8.7v37.1c-6.924-.888-7.989-6.392-7.989-6.392l-2.841.533s1.6,7.812,10.829,8.7v10.83c-6.924-.888-7.989-6.392-7.989-6.392l-2.841.533s1.6,7.812,10.829,8.7V4381.8Z" transform="translate(-1114.968 -4239.394)" fill="#c6ecf9" fill-rule="evenodd"/>
    <path id="Path_1005" data-name="Path 1005" d="M346,4679.333c-2.13-.71-2.485-3.018-4.438-4.616-1.775-1.6-5.148,1.065-3.906,2.663,1.243,1.775,2.663,4.438.355,5.326-2.308.71-.355,2.841.888,3.729s-2.486.71-2.841,2.13c-.355,1.243,4.261,3.551,3.728,5.5s-5.5.355-4.971,2.664c.71,2.485,4.083,5.148,7.279,5.148s10.3-.532,9.764-3.373c-.71-3.018-1.42-2.663-2.841-4.083-1.6-1.6,2.13-2.664,2.13-4.793s-.71-3.551-3.373-3.551c-2.485.177-2.13-2.308-.533-4.261C348.663,4679.866,347.065,4677.914,346,4679.333Z" transform="translate(-330.15 -4548.826)" fill="#55c0a9" fill-rule="evenodd"/>
    <path id="Path_1006" data-name="Path 1006" d="M513.514,4798.55c-1.243-4.438-5.681-8.344-10.119-6.924a8.013,8.013,0,0,0-4.793,6.036c-.71,2.485-.355,5.327-.178,7.989.355,3.551.71,6.924,1.065,10.475a13.959,13.959,0,0,0-2.663-4.793,5.273,5.273,0,0,0-5.148-1.775,5.122,5.122,0,0,0-3.018,5.149,11.031,11.031,0,0,0,2.663,5.858,29.28,29.28,0,0,0,8.522,7.634,7.666,7.666,0,0,0-11.007,2.308,3.837,3.837,0,0,0-.178,1.953,2.934,2.934,0,0,0,2.308,1.42,60.484,60.484,0,0,0,23.967.71,8.691,8.691,0,0,0,4.261-1.42,3.847,3.847,0,0,0,1.6-3.906c-.71-2.308-3.551-2.663-5.5-3.729,2.663-2.308,5.326-4.792,6.746-8.167,1.243-3.373.71-7.456-1.953-9.764-1.953-1.6-6.569-1.953-7.279.888C514.4,4805.651,514.4,4801.568,513.514,4798.55Z" transform="translate(-456.654 -4645.141)" fill="#55c0a9" fill-rule="evenodd"/>
  </g>
  <path id="Path_1007" data-name="Path 1007" d="M555.172,4118.521,553.93,4061h5.326l-.888,57.7,13.67-55.923,5.148,1.42-15.8,55.213,27.7-50.242,4.616,2.485-29.47,49.532,39.767-41.543,3.728,3.729-41.365,39.945,49.177-29.648,2.663,4.438-50.242,28.05,55.213-15.978,1.42,5.148-55.923,13.848,57.521-1.065v5.326l-57.521-1.065,55.923,13.848-1.42,5.148-55.39-15.8,50.419,27.7-2.663,4.616-49.354-29.648,41.543,39.768-3.728,3.728-40.122-41.187,29.825,49.176-4.616,2.663-27.873-50.419,15.978,55.39-5.148,1.243-14.025-55.745,1.243,57.521H553.93l.888-57.521-13.67,55.745L536,4197.345l15.8-55.39-27.7,50.419-4.616-2.663,29.47-49.354-39.767,41.365-3.728-3.728,41.365-39.945-49.177,29.826-2.663-4.616,50.242-28.05-55.213,16.155-1.42-5.148,55.923-14.025L487,4133.433v-5.326l57.521.888-55.923-13.67,1.42-5.148,55.39,15.8L494.989,4098.1l2.663-4.438,49.354,29.471-41.543-39.767,3.728-3.729,40.122,41.365-29.826-49.354,4.616-2.485,27.873,50.242L536,4064.2l5.148-1.42Z" transform="translate(-455.35 -4044.469)" fill="url(#radial-gradient)"/>
  <path id="Path_1008" data-name="Path 1008" d="M552.865,4119.053l-12.25-56.1,5.148-1.065,10.3,56.633L558.723,4061l5.326.355-4.971,57.343,17.576-54.68,4.971,1.6L562.1,4119.763l31.068-48.288,4.438,3.018-32.844,47.223,42.608-38.7,3.373,3.906-43.851,37.1,51.129-26.275,2.308,4.794-52.195,24.5,56.278-12.25,1.065,5.148-56.633,10.12,57.343,2.84-.355,5.149-57.343-4.793,54.858,17.575-1.775,4.972-54.148-19.529,48.466,31.068-3.018,4.438-47.224-32.843,38.7,42.43-4.083,3.55-37.1-44.028,26.452,51.129-4.793,2.309-24.5-52.018,12.25,56.278-5.148.888-10.3-56.633-2.663,57.521-5.326-.355,4.971-57.343-17.576,54.68-4.971-1.6,19.529-54.147-31.246,48.289-4.261-2.841,32.844-47.224-42.608,38.7-3.373-4.083,43.851-37.1-51.129,26.275L492.859,4159l52.195-24.5-56.278,12.25-1.065-5.326,56.633-10.119L487,4128.64l.355-5.326,57.343,4.793-54.858-17.4,1.775-5.148,54.147,19.529L497.3,4094.021l3.018-4.438,47.224,32.844-38.7-42.43,4.083-3.551,37.1,44.028-26.452-51.13,4.793-2.308Z" transform="translate(-455.35 -4044.469)" fill="url(#radial-gradient)"/>
  <g id="Group_274" data-name="Group 274" transform="translate(131.779 26.336)">
    <path id="Path_1009" data-name="Path 1009" d="M1126.941,4346.281c-.177-2.13-4.438-.709-6.391-1.6-1.6-.887-2.13-3.551-3.906-3.728-1.243-.177-1.243,2.13-2.13,3.018-1.065.888-3.373.888-3.906,2.485-.888,3.373.178,6.746,3.373,7.811,2.485.71,4.616-.888,6.746-2.308C1123.212,4350.542,1127.3,4349.122,1126.941,4346.281Z" transform="translate(-1099.778 -4301.05)" fill="#ffc5cb" fill-rule="evenodd"/>
    <path id="Clothes-Back_41" d="M1210.593,4248.6l-3.551-1.6c-11.54,18.463-33.554,12.073-37.459,19.174-3.373,5.681,2.841,11.54,8.7,11.184C1182.188,4277.358,1203.669,4272.387,1210.593,4248.6Z" transform="translate(-1147.746 -4223.784)" fill="#00698a" fill-rule="evenodd"/>
    <path id="Path_1010" data-name="Path 1010" d="M1252.322,4135.1a11.53,11.53,0,0,0-1.42-8.7c-4.971-7.633-15.09.356-14.913,5.5s6.036,15.09,9.232,14.38c1.243-.355,3.2-2.485,4.793-5.148l4.616,11.363,8.7-4.971Z" transform="translate(-1203.146 -4122.003)" fill="#ffc5cb" fill-rule="evenodd"/>
    <path id="Hair_42" d="M1216.383,4126.183a11.168,11.168,0,0,1,5.148,1.775,2.451,2.451,0,0,1,.71-.532,2.383,2.383,0,0,1,3.373.887,1.97,1.97,0,0,1,.177,1.953,21.7,21.7,0,0,0,3.018,1.243,8.788,8.788,0,0,0-3.2-11.52c-3.728-3.906-8.167-1.618-11.717.69-3.018,1.953-7.1.355-6.924,4.261C1208.217,4128.136,1211.235,4129.734,1216.383,4126.183Z" transform="translate(-1179.279 -4117.879)" fill="#2f7ea7" fill-rule="evenodd"/>
    <g id="Group_272" data-name="Group 272" transform="translate(66.397 55.882)">
      <path id="Leg_43" d="M1440.268,4431l13.67,54.857,14.38,44.384-4.438,3.2-38.88-91.43Z" transform="translate(-1425 -4431)" fill="#ffc5cb" fill-rule="evenodd"/>
      <path id="shoe_44" d="M1570.789,4979.59a8,8,0,0,1,.71,2.84,25.154,25.154,0,0,1-.177,3.374c-.888,0-8.877.355-23.967.71-.71-1.953-.355-3.2,1.065-3.374,1.243-.177,2.485-.355,3.2-.532l11.007-5.149c.177-.177.533-.177.533.178h0l.888,1.6a8,8,0,0,0,3.018.888,7,7,0,0,0,2.486-.888h0a1.1,1.1,0,0,1,1.243.355Z" transform="translate(-1525.341 -4880.35)" fill="#004747" fill-rule="evenodd"/>
    </g>
    <path id="Pant_45" d="M1455.531,4532.1l-13.315,6.036L1406,4453.811l25.387-7.811Z" transform="translate(-1342.976 -4387.455)" fill="#5e5e5e" fill-rule="evenodd"/>
    <g id="Group_273" data-name="Group 273" transform="translate(36.572 57.48)">
      <path id="Leg_46" d="M1352.592,4482.8c-13.848,12.25-30.536,30.891-31.068,31.956-.355.71,0,16.155,1.065,45.981l-5.681-.177q-8.522-47.135-7.456-50.6c1.243-3.55,19.529-27.518,29.648-42.963Z" transform="translate(-1300.042 -4462.206)" fill="#ffc5cb" fill-rule="evenodd"/>
      <path id="shoe_47" d="M1280.789,4981.145a7.247,7.247,0,0,1,.71,2.84,12.23,12.23,0,0,1-.355,3.2c-.71,0-8.7.177-23.789.355-.71-1.953-.355-3.2,1.065-3.374a27.311,27.311,0,0,1,3.373-.355l11.007-5.149c.178-.177.355,0,.533.178h0l.71,1.775a8.987,8.987,0,0,0,3.018.888,6.636,6.636,0,0,0,2.663-.888h0a.854.854,0,0,1,1.065.355Z" transform="translate(-1257 -4882.969)" fill="#004747" fill-rule="evenodd"/>
      <path id="Pant_48" d="M1308.931,4530.187l-13.137.177-4.793-49c2.485-6.213,13.137-18.818,31.778-37.991l12.6-3.374c30.536,26.275-12.96,41.365-21.482,49.354C1313.369,4490.241,1311.594,4503.911,1308.931,4530.187Z" transform="translate(-1284.964 -4440)" fill="#8d8d8d" fill-rule="evenodd"/>
    </g>
    <path id="Clothes-Front_49" d="M1305.1,4216.594c14.2,23.967,3.551,38.17,12.25,45.981,7.1,6.568,36.749,1.242,36.572-9.054a27.051,27.051,0,0,0-3.728-12.782c-8.877-13.315-19.351-25.388-33.376-34.441l-1.42-1.953a1.728,1.728,0,0,0-2.308-.533h0l-9.942,6.746a1.552,1.552,0,0,0-.533,2.308h0Z" transform="translate(-1257.696 -4188.052)" fill="#004747" fill-rule="evenodd"/>
    <path id="Path_1011" data-name="Path 1011" d="M1077.275,4212l1.776,15.445,14.735,6.924-14.2,6.391-1.953,16.156-10.474-11.54-15.978,3.018,7.634-13.493L1051,4220.7l15.268,3.2Z" transform="translate(-1051 -4194.998)" fill="#ffbc00" fill-rule="evenodd"/>
    <path id="Path_1012" data-name="Path 1012" d="M1155.416,4381.281c-.177-2.13-4.438-.71-6.391-1.775-1.6-.709-2.13-3.373-3.906-3.55-1.243-.177-1.243,2.13-2.13,2.841-1.065,1.065-3.373,1.065-3.728,2.485-1.065,3.374.178,6.924,3.2,7.812,2.485.887,4.616-.71,6.924-2.131S1155.771,4383.944,1155.416,4381.281Z" transform="translate(-1123.282 -4329.837)" fill="#ffc5cb" fill-rule="evenodd"/>
    <path id="Path_1013" data-name="Path 1013" d="M1223.358,4256.656c5.326-.71,9.587,3.728,10.474,10.652.533,4.438-4.261,14.38-8.521,21.3-4.083,6.569-7.989,9.054-12.6,7.634L1193,4290.032l.355-10.829,17.931.709S1214.126,4257.543,1223.358,4256.656Z" transform="translate(-1167.79 -4231.664)" fill="#004747" fill-rule="evenodd"/>
  </g>
  <g id="Group_279" data-name="Group 279" transform="translate(81.664 70.856)">
    <path id="Path_1014" data-name="Path 1014" d="M819.054,4368.71l-.533.533v1.243l.355-.355h.71v.177h0l.888,1.421v-.888a.174.174,0,0,1,.178-.178h0l.532-.355-.532-.71v-.355h0v-.177h.177c.177-.178.177-.178.355-.178,0-.178.178-.178.178-.355h-1.243C819.764,4368.533,819.409,4368.71,819.054,4368.71Zm8.344,12.25-.71,1.065a.174.174,0,0,1-.177.178h-.178l-.355.177-.533.355h-.888v-.355l-1.775-.177v.177l-.177.178h0c0,.178,0,.178-.178.178h-.533l-.888-.888h-.888a.174.174,0,0,1-.177-.178.174.174,0,0,0-.177-.178c0-.177.177-.177.177-.355l.355-.532-.355-.178-3.906.533h0l-.355.177c0,.178,0,.178-.177.178h-.355l-.177-.178h-.71v.355c0,.178-.178.178-.178.355h0c-.177,0-.177.177-.355.177h-.355l-.177,1.243h0c-.177.178-.177.178-.355.178a.174.174,0,0,1-.177.177h-.533l-1.243,1.243v.71l.177.178h0c0,.177.178.177.178.355v.178h0l-.533,1.775,2.13,3.018.71-.533h.533l1.065.888,1.065-.888a.174.174,0,0,1,.177-.177h.355l2.308,1.065c.177,0,.177.177.355.177h0v.356l-.178,1.419,1.775,3.374v.177h0v.355h.71a10.913,10.913,0,0,0,3.373-.355,9.044,9.044,0,0,0,3.018-1.242v-.71c0-.177,0-.177.177-.177v-.178h0l1.42-1.775h0a.174.174,0,0,0,.178-.178l1.065-.178,1.6-2.84v-.71h-.533l-.533.355h0l-.178.178h-1.42c-.178,0-.178,0-.178-.178h0c-.177,0-.177,0-.177-.177h0l-.533-.71-1.42-.887a.174.174,0,0,0-.177-.178v-1.776l-1.065-1.064h0a.174.174,0,0,1-.177-.178v-1.065c0-.177,0-.177.177-.354a.174.174,0,0,1,.178-.178h.355l.177.178h0l3.018,4.26h1.6l1.953-.887v-.533a.174.174,0,0,1,.177-.178h0l.355-.532-1.065-.888-.533.355h-.178c-.177,0-.177,0-.355-.178h0l-1.065-.71h0v-.177h0a.174.174,0,0,1-.178-.178v-.71c0-.178,0-.178.178-.354h0l.177-.178h0l4.083-1.775a12.73,12.73,0,0,0-4.261-7.279,13.844,13.844,0,0,0-7.634-3.55l-.355.355.177.532h0c.177,0,.177,0,.177.355h0l-.355,1.775v.532l-.177.178a.174.174,0,0,1-.177.177l-6.036,3.551h0c-.178.177-.178.354-.355.354h-1.243l-.533.533-.177.888.533.177h1.42l.533-1.243v-.178c.177-.178.177-.178.355-.178h1.6c.178,0,.178,0,.355.178l2.13,1.6.178-.177-1.42-.888h0v-.177c-.177-.178-.177-.178-.177-.355h0l.177-.178h0a.174.174,0,0,1,.177-.177h0c.178-.177.178-.177.355-.177s.178,0,.355.177l1.775,1.42v.178l.177.177v.355h0c.177,0,.177.178.355.178v.532h.177v-.71h0c0-.178,0-.178.178-.355l.177-.177h.355l.533.177c.178,0,.178.177.355.177v1.065l1.065.533.355-.533h.71l.177.177c.178.178.178.178.178.356.177.177,0,.177,0,.354Zm-1.065.71.533-.888-.178-.177-.355.354-.177.177c-.177,0-.355,0-.355-.177l-1.065-.533c-.178,0-.178,0-.355-.178v-.887l-.533-.178v.71c0,.178,0,.355-.178.355h0a.619.619,0,0,1-.355.178h-.177a.619.619,0,0,1-.355-.178c-.177-.177-.177-.177-.177-.355v-.177h0c-.178-.178-.178-.178-.355-.178h0v-.533l-.355-.354h0v.177h0v.177l-.177.178-.178.178-.177.177c-.178,0-.355,0-.355-.177l-2.308-1.6h-1.6l-.355,1.42a.174.174,0,0,0-.177.178c-.178,0-.178.177-.355.177h-1.42c-.177,0-.177,0-.177-.177h-.178l-.355-.178v-.178c-.177,0-.177,0-.177-.177h0c-.177,0-.177,0-.177-.177v-.888a.174.174,0,0,0,.177-.178v-.178l.71-.71h1.42a.174.174,0,0,1,.177-.178l6.036-3.729h0v-.177c0-.177.178-.177.178-.355l.355-1.6H822.6v-.178l-.178-.71h0v-.178h0a.174.174,0,0,1,.178-.177h0l.355-.355v-.178h.177a13.438,13.438,0,0,1,8.167,3.728,14.185,14.185,0,0,1,4.616,7.634v.178l-.177.178-4.438,1.952v.71l1.065.71.533-.355h.355l.177.178h0l1.065.887h0a.174.174,0,0,1,.178.178h0v.178h0v.355l-.533.532v.355c0,.177,0,.177-.177.354h-.178l-1.953,1.065h-2.13a.174.174,0,0,1-.177-.177l-2.841-4.083v.71l1.065.888h0a.174.174,0,0,0,.178.177h0v.178h0v1.6l1.42,1.065h0c.178,0,.178,0,.178.177h0l.355.71h1.243l.533-.533H832.9c.177.178.177.178.177.355v.888h0v.178l-1.775,3.018h-.177c0,.177,0,.177-.177.177l-.888.178-1.42,1.775v1.243a25.93,25.93,0,0,1-3.373,1.243,12.32,12.32,0,0,1-3.551.532c-.178,0-.355-.178-.533-.178h-.71v-.71l-1.6-3.373h0l-.178-.178h0v-.178l.178-1.419-2.308-1.066-1.065.889c0,.177-.177.177-.355.177h-.177l-1.243-.888-.71.532h-.355a.174.174,0,0,1-.177-.177l-2.308-3.018a.174.174,0,0,0-.178-.177c0-.177,0-.177.178-.355h0l.533-1.775-.355-.178v-.177h0v-1.243l1.42-1.243c0-.177,0-.177.178-.177h.71l.177-1.243h0a.621.621,0,0,1,.178-.355h.532v-.532a.62.62,0,0,0,.178-.354h1.6a.173.173,0,0,0,.177.177h0l.177-.177a.174.174,0,0,1,.178-.178h0l4.083-.533h.177l.355.178h0a146.022,146.022,0,0,1,.355.355h0v.355l-.355.533h.533a.174.174,0,0,1,.177.177h.178l.888.711v-.533h.533l1.775.178c.178,0,.178,0,.355.177h0l.177.178h0l.355-.355h.177a.174.174,0,0,0,.178-.178Zm-6.391-1.243Zm8.7,14.558Zm1.42-1.775Zm1.953-4.261Zm-3.018-.533Zm5.148-2.485Zm-17.576-9.054Zm0,0Zm2.13.888Zm0,0Zm1.775-.355.71.71-.71-.71Zm-2.485-8.344.71-.71v-.178c.532,0,.888-.178,1.243-.178h2.13v.355l-.177.354v.178h0a.174.174,0,0,1-.177.178h0a.62.62,0,0,1-.355.177l-.178.178.533.71v.533c-.178,0-.178,0-.178.178h0l-.533.177v.71h0a.174.174,0,0,1-.177.177.174.174,0,0,1-.177.177h0a.55.55,0,0,1-.355.178c-.178-.178-.355-.178-.355-.355h0l-.71-1.243-.532.355a.174.174,0,0,0-.178.177.174.174,0,0,1-.177-.177h0c-.178,0-.178,0-.355-.177v-1.775Z" transform="translate(-802.671 -4367.823)" fill="#004747" fill-rule="evenodd"/>
    <path id="Path_1033" data-name="Path 1033" d="M767.852,4495.793l-4.793,3.2c-.355.178-1.065.178-1.243-.355l-2.308-3.551a1.113,1.113,0,0,1,.355-1.42l4.793-2.663A22.561,22.561,0,0,0,767.852,4495.793Z" transform="translate(-759.402 -4470.158)" fill="#004747" fill-rule="evenodd"/>
    <path id="Path_1034" data-name="Path 1034" d="M792.616,4371.616a15.432,15.432,0,0,1,22.014,0,14.968,14.968,0,0,1,4.616,11.007,15.579,15.579,0,0,1-4.616,11.007,15.869,15.869,0,0,1-22.014,0A15.579,15.579,0,0,1,788,4382.623,14.968,14.968,0,0,1,792.616,4371.616Zm11.007-3.018a14.411,14.411,0,0,0-9.942,4.083,14.381,14.381,0,0,0,0,19.707,14.411,14.411,0,0,0,9.942,4.083,13.668,13.668,0,0,0,9.764-4.083,13.929,13.929,0,0,0,0-19.707A13.668,13.668,0,0,0,803.623,4368.6Z" transform="translate(-784.577 -4367)" fill="#004747" fill-rule="evenodd"/>
    <path id="Path_1035" data-name="Path 1035" d="M848.686,4389l7.1,1.6c.533,6.569-1.243,13.138-7.1,14.558-5.859-1.42-7.634-7.988-7.1-14.558Z" transform="translate(-828.575 -4385.095)" fill="#004747" fill-rule="evenodd"/>
    <path id="Path_1036" data-name="Path 1036" d="M862.914,4404.943a4.494,4.494,0,0,0-4.971,4.261,4.591,4.591,0,0,0,4.261,4.971,4.828,4.828,0,0,0,4.971-4.083,3.985,3.985,0,0,1-3.728,2.13,3.859,3.859,0,0,1-3.373-3.906,3.963,3.963,0,0,1,3.551-3.373Z" transform="translate(-842.093 -4398.197)" fill="#fafafa" fill-rule="evenodd"/>
  </g>
  <g id="Group_280" data-name="Group 280" transform="translate(39.284 118.79)">
    <path id="Path_1037" data-name="Path 1037" d="M539.764,4637l2.663,6.213,6.924.888-4.971,4.438,1.243,6.924-5.681-3.374-6.214,3.374,1.42-6.569L530,4644.1l6.746-.71Z" transform="translate(-530 -4637)" fill="rgba(77,77,77,0.13)" fill-rule="evenodd"/>
    <path id="Path_1038" data-name="Path 1038" d="M904.764,4637l2.663,6.213,7.1.888-5.148,4.438,1.42,6.924-5.859-3.374-6.214,3.374,1.42-6.569L895,4644.1l6.746-.71Z" transform="translate(-830.201 -4637)" fill="rgba(77,77,77,0.13)" fill-rule="evenodd"/>
    <path id="Path_1039" data-name="Path 1039" d="M782.587,4637l2.841,6.213,6.924.888-4.971,4.438,1.243,6.924-5.859-3.374-6.036,3.374,1.243-6.569L773,4644.1l6.569-.71Z" transform="translate(-729.859 -4637)" fill="rgba(77,77,77,0.13)" fill-rule="evenodd"/>
    <path id="Path_1040" data-name="Path 1040" d="M659.764,4637l2.663,6.213,7.1.888-5.148,4.438,1.42,6.924-5.859-3.374-6.214,3.374,1.42-6.569L650,4644.1l6.746-.71Z" transform="translate(-628.696 -4637)" fill="rgba(77,77,77,0.13)" fill-rule="evenodd"/>
  </g>
  <g id="Group_281" data-name="Group 281" transform="translate(39.639 115.772)">
    <path id="Path_1041" data-name="Path 1041" d="M541.764,4620l2.84,6.213,6.924.888-4.971,4.616,1.243,6.924-5.859-3.374-6.214,3.374,1.42-6.569L532,4627.1l6.746-.709Z" transform="translate(-532 -4620)" fill="#ffbc00" fill-rule="evenodd"/>
    <path id="Path_1042" data-name="Path 1042" d="M904.764,4620l2.841,6.213,7.1.888-5.149,4.616,1.243,6.924-5.859-3.374-6.214,3.374,1.42-6.569L895,4627.1l6.746-.709Z" transform="translate(-830.556 -4620)" fill="#ffbc00" fill-rule="evenodd"/>
    <path id="Path_1043" data-name="Path 1043" d="M781.764,4620l2.663,6.213,7.1.888-4.971,4.616,1.243,6.924-5.859-3.374-6.214,3.374,1.42-6.569L772,4627.1l6.746-.709Z" transform="translate(-729.392 -4620)" fill="#ffbc00" fill-rule="evenodd"/>
    <path id="Path_1044" data-name="Path 1044" d="M657.764,4620l2.841,6.213,7.1.888-5.148,4.616,1.243,6.924-5.859-3.374-6.214,3.374,1.42-6.569L648,4627.1l6.746-.709Z" transform="translate(-627.406 -4620)" fill="#ffbc00" fill-rule="evenodd"/>
  </g>
</svg>
