<svg xmlns="http://www.w3.org/2000/svg" width="220.517" height="217.609" viewBox="0 0 220.517 217.609">
  <g id="Group_10409" data-name="Group 10409" transform="translate(-1241 -1879.496)">
    <path id="Path_8961" data-name="Path 8961" d="M137.856,49.586C142.911,97.293,50.111,153,16.423,108.026-54.684,13.118,127.507-48.153,137.856,49.586Z" transform="matrix(-1, 0, 0, -1, 1388.055, 2009.482)" fill="#c5dfdc" fill-rule="evenodd"/>
    <path id="Path_8962" data-name="Path 8962" d="M78.9,8.52c57.032-20.65,118.11-2.2,135.644,38.438,17.787,41.229-8.361,63.864-23.991,77.811-15.93,14.219-26.26,29.152-42.631,36.852C79.408,193.846,12.38,183.852,3.243,140.069-10.792,72.82,21.888,29.167,78.913,8.52Z" transform="matrix(-1, 0, 0, -1, 1461.517, 2097.105)" fill="#00f3bb" fill-rule="evenodd"/>
    <g id="Group_8659" data-name="Group 8659" transform="translate(1284 1879.496)">
      <g id="Group_8630" data-name="Group 8630" transform="translate(50.484 136.463)">
        <path id="Path_8916" data-name="Path 8916" d="M186.963,1938.25l-.341,6.491-3.187.341-.224-6.491Z" transform="translate(-173.532 -1880.62)" fill="#ffc5cb" fill-rule="evenodd"/>
        <path id="Path_8917" data-name="Path 8917" d="M183.293,1875.083s-3.762,20.5-4.669,27.446,2.963,32,2.963,32l6.267-.682c1.239-16.08,1.93-29.655,5.351-45.438l-4.552-14.347s-5.468,1.023-5.351,1.023Z" transform="translate(-173.049 -1874.06)" fill="#5e5e5e" fill-rule="evenodd"/>
        <path id="Path_8918" data-name="Path 8918" d="M187.343,1944.71h-6.033l-8.879,4.211v1.481l14.922-.566s-.117-4.893,0-5.126Z" transform="translate(-172.43 -1881.28)" fill="#004747" fill-rule="evenodd"/>
      </g>
      <g id="Group_8631" data-name="Group 8631" transform="translate(62.182 136.607)">
        <path id="Path_8919" data-name="Path 8919" d="M213.14,1937.817l2.5,6.06,3.69-1.311-1.787-5.827a39.786,39.786,0,0,0-4.4,1.068Z" transform="translate(-188.289 -1880.609)" fill="#ffc5cb" fill-rule="evenodd"/>
        <path id="Path_8920" data-name="Path 8920" d="M185.46,1874.229s4.283,21.17,6.3,25.8,17.364,33.776,17.364,33.776l7.488-.269-.081-3.789-12.515-31.98-.952-21.17-17.6-2.379Z" transform="translate(-185.46 -1874.22)" fill="#8d8d8d" fill-rule="evenodd"/>
        <path id="Path_8921" data-name="Path 8921" d="M213.244,1944.276l-1.194,4.283-6.06,1.544v2.146l9.149.117,6.545-5.943-2.262-4.642Z" transform="translate(-187.558 -1881.124)" fill="#004747" fill-rule="evenodd"/>
      </g>
      <path id="Path_8925" data-name="Path 8925" d="M192.642,1830.647c-8.475,5.54-23.146-32.1-29.592-39.656l9.714-3.681c7.488,15.29,31.082,36.011,19.878,43.328Z" transform="translate(-120.988 -1728.732)" fill="#004747" fill-rule="evenodd"/>
      <path id="Path_8927" data-name="Path 8927" d="M197.453,1809.493s4.534.467,5.207-1.7-4.193-3.178-4.193-3.178l5.979-6.446s-4.633-4.821-4.947-6.222-2.541-4.04-2.541-4.04-4.606,1.688-9.616,7.811-2.756,9.957-.072,12.776l-6.823,11.294s-.548,5.055,5.171,5.5a15.136,15.136,0,0,0,9.948-3.062s1.661-13.036,1.876-12.731Z" transform="translate(-122.764 -1728.793)" fill="#ffc5cb" fill-rule="evenodd"/>
      <path id="Path_8928" data-name="Path 8928" d="M196.912,1788.23s-1.077-1.113,1.284-3.977,9.571-2.236,11.259,2.37-.18,6.8,1.5,9.777,2.541,5.665-.736,9.2-8.071,5.71-11.3,3.232c0,0,4.085.844,5.064-1.535s-4.7-3.1-4.7-3.1l5.782-6.59c-2.6-2.1-6.859-9.274-8.161-9.382Z" transform="translate(-124.423 -1728.243)" fill-rule="evenodd"/>
      <path id="Path_8929" data-name="Path 8929" d="M176.49,1872.732l27.527-2.074c-.377-8.17-.9-34.754-2.182-41.317s-4.821-12.5-12.812-13.4c-14.706-1.652-12.076,45.456-12.533,56.787Z" transform="translate(-122.361 -1731.654)" fill="#004747" fill-rule="evenodd"/>
      <path id="Path_8930" data-name="Path 8930" d="M158.632,1805.065s-11.663,2.936-13.934-4.48,16.205-1.491,16.205-1.491-.889,5.216-2.262,5.962Z" transform="translate(-119.092 -1729.707)" fill="#ffc5cb" fill-rule="evenodd"/>
      <path id="Path_8931" data-name="Path 8931" d="M196.5,1831.465c-5.827,8.278-33.372-21.251-42.161-25.893l7.667-7.012c12.614,11.438,42.2,21.961,34.494,32.9Z" transform="translate(-120.097 -1729.881)" fill="#00698a" fill-rule="evenodd"/>
      <g id="Group_8633" data-name="Group 8633" transform="translate(0 0)">
        <path id="Path_8933" data-name="Path 8933" d="M198.4,1756.36l-1.374,8.691,8.233-2.442-2.747-5.791s-3.968-.305-4.121-.458Z" transform="translate(-119.073 -1733.649)" fill="#edd8ad" fill-rule="evenodd"/>
        <path id="Path_8934" data-name="Path 8934" d="M179.139,1753.048l-3.053,9-6.1-4.265,1.526-4.265s7.47-.61,7.622-.458Z" transform="translate(-118.017 -1728.94)" fill="#c5dfdc" fill-rule="evenodd"/>
        <path id="Path_8935" data-name="Path 8935" d="M184.289,1735.337l1.221-9.3,5.638-.916-.611,5.638s-6.554,4.274-6.249,4.57Z" transform="translate(-113.19 -1725.12)" fill="#ebc986" fill-rule="evenodd"/>
        <path id="Path_8936" data-name="Path 8936" d="M155.888,1747.728l-3.358-5.943,5.333-4.264,1.679,6.4s-3.663,3.663-3.663,3.816Z" transform="translate(-119.912 -1723.644)" fill="#fefefe" fill-rule="evenodd"/>
        <path id="Path_8937" data-name="Path 8937" d="M158.673,1819.98l-5.333,3.51,2.595,5.791,6.4-3.968S158.52,1820.285,158.673,1819.98Z" transform="translate(-119.995 -1732.07)" fill="#ebc986" fill-rule="evenodd"/>
        <path id="Path_8938" data-name="Path 8938" d="M129.8,1748.227l1.832-7.164-5.791-.153-.305,6.859s4.57.458,4.274.458Z" transform="translate(-124.396 -1734.352)" fill="#e66a48" fill-rule="evenodd"/>
        <path id="Path_8939" data-name="Path 8939" d="M131.485,1709.7l5.791-3.663-3.358-7.012-5.028,3.816s2.9,7.012,2.595,6.859Z" transform="translate(-128.89 -1650.579)" fill="#c5dfdc" fill-rule="evenodd"/>
      </g>
      <path id="Path_8940" data-name="Path 8940" d="M225.8,1747.883s-6.769-.4-9.023,4.776c-1.849,4.256,4.848,6.1,7.964,6.5l-.135,3.448c-4.444-1.634-9.382,8.179-1.194,11.007l.2,1.858c-.566.485-4.552,4.139-4.714,3.977l3.241-4.5c-5.36-3.9-5.863-10.845-1.338-14.3-2.55-1.652-5.387-4.345-5.091-7.99.53-6.5,9.822-8.089,9.822-8.089s.269,3.188.269,3.313Z" transform="translate(-126.366 -1724.364)" fill="#fefefe" fill-rule="evenodd"/>
      <path id="Path_8941" data-name="Path 8941" d="M127.026,1805.764s-6.626,1.427-7.416,7.021c-.646,4.6,6.3,4.579,9.409,4.13l.8,3.358c-4.722-.377-6.85,10.4,1.8,10.927l.691,1.733c-.413.62-3.277,5.208-3.475,5.1l1.921-5.208c-6.213-2.325-8.556-8.879-5.118-13.422-2.9-.916-6.357-2.739-7.048-6.339-1.23-6.4,7.29-10.424,7.29-10.424s1.1,3,1.14,3.124Z" transform="translate(-116.431 -1730.298)" fill="#ebc986" fill-rule="evenodd"/>
      <g id="Group_8635" data-name="Group 8635" transform="translate(85.499 71.569)">
        <path id="Path_8948" data-name="Path 8948" d="M263.869,1856.8l-3.053,9-6.1-4.273,1.526-4.265S263.716,1856.645,263.869,1856.8Z" transform="translate(-215.854 -1807.4)" fill="#eaeefd" fill-rule="evenodd"/>
        <path id="Path_8949" data-name="Path 8949" d="M237.9,1812l1.221-9.3,5.638-.916-.611,5.638s-6.554,4.274-6.249,4.57Z" transform="translate(-214.134 -1801.78)" fill="#ebc986" fill-rule="evenodd"/>
        <path id="Path_8950" data-name="Path 8950" d="M241.778,1843.418l-3.358-5.944,5.333-4.265,1.679,6.4s-3.663,3.663-3.663,3.816Z" transform="translate(-214.188 -1804.992)" fill="#fefefe" fill-rule="evenodd"/>
        <path id="Path_8951" data-name="Path 8951" d="M215.695,1843.917l1.832-7.165-5.791-.153-.305,6.859S216,1843.917,215.695,1843.917Z" transform="translate(-211.43 -1805.338)" fill="#e66a48" fill-rule="evenodd"/>
        <path id="Path_8952" data-name="Path 8952" d="M216.225,1823.835l5.791-3.663-3.358-7.012-5.028,3.816S216.53,1823.988,216.225,1823.835Z" transform="translate(-211.655 -1802.943)" fill="#eaeefd" fill-rule="evenodd"/>
      </g>
      <g id="Group_10057" data-name="Group 10057" transform="translate(12.482 9.887)">
        <path id="Path_8926" data-name="Path 8926" d="M168.372,1773.081c5.63-6.086,10.215-8.607,17.333-6.53a14.83,14.83,0,0,1,10.095,18.365c-4.141,14.236-22.507,24.319-40.884,34.415-10.1-18.366-20.178-36.743-16.037-50.967a14.83,14.83,0,0,1,18.366-10.1C164.363,1760.333,166.884,1764.931,168.372,1773.081Z" transform="translate(-137.925 -1757.678)" fill="#f7cf7e"/>
        <path id="Path_8932" data-name="Path 8932" d="M173.962,1785.97a6.937,6.937,0,0,1,3.265,9.075l-.876-.312a6.843,6.843,0,0,0,.36-4.021c-3.385,2.317-17.741,10.935-28.04-1.656l.72-.588c10.047,12.28,24.247,3.277,27.02,1.332a6.327,6.327,0,0,0-2.857-2.977l.4-.84Z" transform="translate(-135.773 -1752.01)" fill="#946d00"/>
        <text id="I_did_it" data-name="I did it" transform="translate(7.507 31.407)" fill="#946d00" font-size="13" font-family="SegoeUI-Bold, Segoe UI" font-weight="700"><tspan x="0" y="0">I did it</tspan></text>
      </g>
    </g>
  </g>
</svg>
