<svg xmlns="http://www.w3.org/2000/svg" width="494.887" height="295.384" viewBox="0 0 494.887 295.384">
  <g id="Group_8798" data-name="Group 8798" transform="translate(-171 -4015)">
    <g id="_2048745522128" transform="translate(171 4015)">
      <rect id="Rectangle_1100" data-name="Rectangle 1100" width="476.374" height="10.868" transform="translate(0 182.927)" fill="gray"/>
      <g id="Group_558" data-name="Group 558" transform="translate(277.688 53.289)">
        <path id="Path_2782" data-name="Path 2782" d="M881.02,4826.223h2.666v-3.742H881.02Z" transform="translate(-755.197 -4712.624)" fill="#2b2e31"/>
        <path id="Path_2783" data-name="Path 2783" d="M872.49,4826.223h2.67v-3.742h-2.67Z" transform="translate(-750.574 -4712.624)" fill="#2b2e31"/>
        <path id="Path_2784" data-name="Path 2784" d="M864,4826.223h2.652v-3.742H864Z" transform="translate(-745.973 -4712.624)" fill="#2b2e31"/>
        <path id="Path_2785" data-name="Path 2785" d="M822.55,4826.223h2.67v-3.742h-2.67Z" transform="translate(-723.507 -4712.624)" fill="#2b2e31"/>
        <path id="Path_2786" data-name="Path 2786" d="M814.06,4826.223h2.652v-3.742H814.06Z" transform="translate(-718.905 -4712.624)" fill="#2b2e31"/>
        <path id="Path_2787" data-name="Path 2787" d="M805.53,4826.223h2.67v-3.742h-2.67Z" transform="translate(-714.282 -4712.624)" fill="#2b2e31"/>
        <path id="Path_2788" data-name="Path 2788" d="M873.778,4817.681v7.869H859.09v-7.869Zm-1.974,5.939v-3.737h-2.67v3.737Zm-3.907,0v-3.737h-2.67v3.737Zm-3.907,0v-3.737h-2.652v3.737Z" transform="translate(-743.311 -4710.022)" fill="#a3c9be"/>
        <path id="Path_2789" data-name="Path 2789" d="M810.827,4823.621h2.67v-3.737h-2.67Zm-6.783-5.94h11.565v7.869H800.92v-7.869Zm5.547,5.94v-3.737h-2.652v3.737Zm-3.889,0v-3.737h-2.67v3.737Z" transform="translate(-711.783 -4710.021)" fill="#a3c9be"/>
        <path id="Path_2790" data-name="Path 2790" d="M807.74,4798.8h8.185v-5.491H807.74Z" transform="translate(-715.48 -4696.814)" fill="#ff9500"/>
        <path id="Path_2791" data-name="Path 2791" d="M815.925,4774.658H807.74v-5.308h8.185Z" transform="translate(-715.48 -4683.827)" fill="#ff9500"/>
        <path id="Path_2792" data-name="Path 2792" d="M807.74,4750.688h8.185v-5.308H807.74Z" transform="translate(-715.48 -4670.836)" fill="#ff9500"/>
        <path id="Path_2793" data-name="Path 2793" d="M807.74,4726.742h8.185v-5.292H807.74Z" transform="translate(-715.48 -4657.865)" fill="#ff9500"/>
        <path id="Path_2794" data-name="Path 2794" d="M815.925,4699.278v2.85H807.74v-5.868h8.185Z" transform="translate(-715.48 -4644.212)" fill="#ff9500"/>
        <path id="Path_2795" data-name="Path 2795" d="M874.655,4696.26v5.868H866.47v-5.868Z" transform="translate(-747.311 -4644.212)" fill="#ff9500"/>
        <path id="Path_2796" data-name="Path 2796" d="M866.47,4726.742h8.185v-5.292H866.47Z" transform="translate(-747.311 -4657.865)" fill="#ff9500"/>
        <path id="Path_2797" data-name="Path 2797" d="M866.47,4750.688h8.185v-5.308H866.47Z" transform="translate(-747.311 -4670.836)" fill="#ff9500"/>
        <path id="Path_2798" data-name="Path 2798" d="M874.655,4769.351v5.308H866.47v-5.308Z" transform="translate(-747.311 -4683.827)" fill="#ff9500"/>
        <path id="Path_2799" data-name="Path 2799" d="M866.47,4798.8h8.185v-5.491H866.47Z" transform="translate(-747.311 -4696.814)" fill="#ff9500"/>
        <path id="Path_2800" data-name="Path 2800" d="M874.655,4709.07v5.671H866.47v-5.671Z" transform="translate(-747.311 -4651.156)" fill="#e57900"/>
        <path id="Path_2801" data-name="Path 2801" d="M866.47,4738.671h8.185V4733H866.47Z" transform="translate(-747.311 -4664.125)" fill="#e57900"/>
        <path id="Path_2802" data-name="Path 2802" d="M866.47,4762.641h8.185v-5.67H866.47Z" transform="translate(-747.311 -4677.118)" fill="#e57900"/>
        <path id="Path_2803" data-name="Path 2803" d="M815.925,4709.162v5.579H807.74v-5.671h8.185Z" transform="translate(-715.48 -4651.156)" fill="#e57900"/>
        <path id="Path_2804" data-name="Path 2804" d="M807.74,4738.671h8.185V4733H807.74Z" transform="translate(-715.48 -4664.125)" fill="#e57900"/>
        <path id="Path_2805" data-name="Path 2805" d="M807.74,4762.641h8.185v-5.67H807.74Z" transform="translate(-715.48 -4677.118)" fill="#e57900"/>
        <path id="Path_2806" data-name="Path 2806" d="M807.74,4786.606h8.185v-5.666H807.74Z" transform="translate(-715.48 -4690.11)" fill="#e57900"/>
        <path id="Path_2807" data-name="Path 2807" d="M866.47,4786.606h8.185v-5.666H866.47Z" transform="translate(-747.311 -4690.11)" fill="#e57900"/>
        <path id="Path_2808" data-name="Path 2808" d="M866.47,4810.97h8.185V4805.3H866.47Z" transform="translate(-747.311 -4703.311)" fill="#e57900"/>
        <path id="Path_2809" data-name="Path 2809" d="M807.74,4810.97h8.185V4805.3H807.74Z" transform="translate(-715.48 -4703.311)" fill="#e57900"/>
        <path id="Path_2810" data-name="Path 2810" d="M825.61,4772.88h18.714v-2.94H825.61Z" transform="translate(-725.165 -4684.146)" fill="#aa9c99"/>
        <path id="Path_2811" data-name="Path 2811" d="M844.324,4705.7v.092H825.61v-2.94h18.714Z" transform="translate(-725.165 -4647.785)" fill="#aa9c99"/>
        <path id="Path_2812" data-name="Path 2812" d="M901.1,4692.933h10.387v-14.642H901.1Z" transform="translate(-766.081 -4634.474)" fill="#2b2e31"/>
        <path id="Path_2813" data-name="Path 2813" d="M901.1,4749.639h10.387V4735.01H901.1Z" transform="translate(-766.081 -4665.216)" fill="#2b2e31"/>
        <path id="Path_2814" data-name="Path 2814" d="M901.1,4805.553h10.387V4790.91H901.1Z" transform="translate(-766.081 -4695.512)" fill="#2b2e31"/>
        <path id="Path_2815" data-name="Path 2815" d="M906.095,4686.223v-14.643H895.707v14.643Zm4.552-20.313v25.254h-19.5V4665.91Z" transform="translate(-760.688 -4627.763)" fill="#fc7b42"/>
        <path id="Path_2816" data-name="Path 2816" d="M906.095,4742.079v-14.625H895.707v14.625Zm4.552-21.019v26.7h-19.5v-26.7Z" transform="translate(-760.688 -4657.655)" fill="#ef5e24"/>
        <path id="Path_2817" data-name="Path 2817" d="M906.095,4799.292v-14.642H895.707v14.642Zm4.552-19.932v25.24h-19.5v-25.24Z" transform="translate(-760.688 -4689.254)" fill="#c84513"/>
        <path id="Path_2818" data-name="Path 2818" d="M986.638,4852.17v7.933H960.39v-7.933Z" transform="translate(-798.216 -4728.715)" fill="#a3c9be"/>
        <path id="Path_2819" data-name="Path 2819" d="M768.475,4842.788v7.934H606.3V4834.86H768.475Z" transform="translate(-606.3 -4719.333)" fill="#80a096"/>
        <path id="Path_2820" data-name="Path 2820" d="M971.168,4791.34h4.69v2.638H940.5v-2.638Z" transform="translate(-787.435 -4695.747)" fill="#aa9c99"/>
        <path id="Path_2821" data-name="Path 2821" d="M968.319,4729.021h7.538v2.653H940.5v-2.653Z" transform="translate(-787.435 -4661.969)" fill="#aa9c99"/>
        <path id="Path_2822" data-name="Path 2822" d="M807.74,4644.491h35.083v-2.94H807.74Z" transform="translate(-715.48 -4614.561)" fill="#aa9c99"/>
        <path id="Path_2823" data-name="Path 2823" d="M748.341,4815.09v.361H703.91V4812.9h44.431Z" transform="translate(-659.204 -4707.431)" fill="#aa9c99"/>
        <path id="Path_2824" data-name="Path 2824" d="M703.91,4762.725h44.431v-2.564H703.91Z" transform="translate(-659.204 -4678.846)" fill="#aa9c99"/>
        <path id="Path_2825" data-name="Path 2825" d="M703.91,4712.425h44.431v-2.564H703.91Z" transform="translate(-659.204 -4651.584)" fill="#aa9c99"/>
        <path id="Path_2826" data-name="Path 2826" d="M703.91,4662.091h44.431v-2.562H703.91Z" transform="translate(-659.204 -4624.305)" fill="#aa9c99"/>
        <path id="Path_2827" data-name="Path 2827" d="M664.73,4825.971h2.354v-7.511H664.73Z" transform="translate(-637.969 -4710.444)" fill="#5a5a5a"/>
        <path id="Path_2828" data-name="Path 2828" d="M664.73,4787.35h2.354v-21.59H664.73Z" transform="translate(-637.969 -4681.881)" fill="#5a5a5a"/>
        <path id="Path_2829" data-name="Path 2829" d="M664.73,4735.933h2.354V4715.46H664.73Z" transform="translate(-637.969 -4654.618)" fill="#5a5a5a"/>
        <path id="Path_2830" data-name="Path 2830" d="M664.73,4685.611h2.354V4665.12H664.73Z" transform="translate(-637.969 -4627.335)" fill="#5a5a5a"/>
        <path id="Path_2831" data-name="Path 2831" d="M664.73,4626.555h2.354V4598.69H664.73Z" transform="translate(-637.969 -4591.331)" fill="#5a5a5a"/>
        <path id="Path_2832" data-name="Path 2832" d="M639.82,4815.451H618.77V4812.9h35.871v2.551Z" transform="translate(-613.059 -4707.431)" fill="#aa9c99"/>
        <path id="Path_2833" data-name="Path 2833" d="M639.82,4762.725H618.77v-2.564h35.871v2.564Z" transform="translate(-613.059 -4678.846)" fill="#aa9c99"/>
        <path id="Path_2834" data-name="Path 2834" d="M639.82,4712.425H618.77v-2.564h35.871v2.564Z" transform="translate(-613.059 -4651.584)" fill="#aa9c99"/>
        <path id="Path_2835" data-name="Path 2835" d="M639.82,4662.091H618.77v-2.562h35.871v2.562Z" transform="translate(-613.059 -4624.305)" fill="#aa9c99"/>
        <path id="Path_2836" data-name="Path 2836" d="M1001.24,4822.323h2.849V4797.1h-2.849Z" transform="translate(-820.356 -4698.868)" fill="#898989"/>
        <path id="Path_2837" data-name="Path 2837" d="M1001.24,4714.923h2.849v-11.914h-2.849Z" transform="translate(-820.356 -4647.87)" fill="#898989"/>
        <path id="Path_2838" data-name="Path 2838" d="M1001.24,4760.7h2.849v-25.892h-2.849Z" transform="translate(-820.356 -4665.106)" fill="#898989"/>
        <path id="Path_2839" data-name="Path 2839" d="M936.825,4678.216v19.932H933.72V4582.62h3.105Z" transform="translate(-783.761 -4582.62)" fill="#898989"/>
        <path id="Path_2840" data-name="Path 2840" d="M887.464,4672.729v17.551H884.34V4582.62h3.124Z" transform="translate(-756.997 -4582.62)" fill="#898989"/>
        <path id="Path_2841" data-name="Path 2841" d="M804.044,4684.609v5.67H800.92V4582.62h3.123Z" transform="translate(-711.783 -4582.62)" fill="#898989"/>
        <path id="Path_2842" data-name="Path 2842" d="M700.214,4690.642v7.506H697.09V4582.62h3.124Z" transform="translate(-655.508 -4582.62)" fill="#898989"/>
        <path id="Path_2843" data-name="Path 2843" d="M611.96,4698.147V4582.62h3.119v115.527Z" transform="translate(-609.368 -4582.62)" fill="#898989"/>
      </g>
      <g id="Group_559" data-name="Group 559" transform="translate(118.348)">
        <path id="Path_2844" data-name="Path 2844" d="M376.25,4474.547l1.049.192,8.336-7.361.16-.142,14.711,7.988,10.823,5.866,2.56.485-28.2-15.307Z" transform="translate(-322.274 -4466.27)" fill="#fbb020"/>
        <path id="Path_2845" data-name="Path 2845" d="M453.28,4573.47v1.2h.8v-1.2Z" transform="translate(-364.024 -4524.373)" fill="#fbb020"/>
        <path id="Path_2846" data-name="Path 2846" d="M452.54,4563.22v4.7h1.42v-4.7Z" transform="translate(-363.623 -4518.817)" fill="#e57900"/>
        <path id="Path_2847" data-name="Path 2847" d="M290.143,4842.551l-.243.563,1.69,1.764h2.771l-2.235-2.326Z" transform="translate(-275.473 -4670.213)" fill="#fbb020"/>
        <path id="Path_2848" data-name="Path 2848" d="M300.94,4842.551l2.221,2.326h2.771l-2.226-2.326Z" transform="translate(-281.457 -4670.213)" fill="#fbb020"/>
        <path id="Path_2849" data-name="Path 2849" d="M325.91,4842.551v.279l1.974,2.047h2.757l-2.226-2.326Z" transform="translate(-294.99 -4670.213)" fill="#fbb020"/>
        <path id="Path_2850" data-name="Path 2850" d="M337.54,4842.551l2.235,2.326h2.757l-2.226-2.326Z" transform="translate(-301.294 -4670.213)" fill="#fbb020"/>
        <path id="Path_2851" data-name="Path 2851" d="M289.006,4843.781l-.756,1.763H290.7Z" transform="translate(-274.579 -4670.881)" fill="#e57900"/>
        <path id="Path_2852" data-name="Path 2852" d="M294.76,4842.551l2.235,2.326h2.817l-2.221-2.326Z" transform="translate(-278.107 -4670.213)" fill="#e57900"/>
        <path id="Path_2853" data-name="Path 2853" d="M306.98,4842.551l2.226,2.326v-2.326Z" transform="translate(-284.73 -4670.213)" fill="#e57900"/>
        <path id="Path_2854" data-name="Path 2854" d="M325.91,4843.161v2.047h1.974Z" transform="translate(-294.99 -4670.543)" fill="#e57900"/>
        <path id="Path_2855" data-name="Path 2855" d="M331.38,4842.551l2.226,2.326h2.831l-2.235-2.326Z" transform="translate(-297.955 -4670.213)" fill="#e57900"/>
        <path id="Path_2856" data-name="Path 2856" d="M343.58,4842.551l2.226,2.326h.916l-.985-2.326Z" transform="translate(-304.567 -4670.213)" fill="#e57900"/>
        <path id="Path_2857" data-name="Path 2857" d="M305.9,4864.18v1.4h11.881v-1.4Z" transform="translate(-284.145 -4681.936)" fill="#161617"/>
        <path id="Path_2858" data-name="Path 2858" d="M258.4,4864.18v1.4h11.881v-1.4Z" transform="translate(-258.4 -4681.936)" fill="#161617"/>
        <path id="Path_2859" data-name="Path 2859" d="M353.59,4864.18v1.4h11.881v-1.4Z" transform="translate(-309.993 -4681.936)" fill="#161617"/>
        <path id="Path_2860" data-name="Path 2860" d="M313.375,4815.128a1.713,1.713,0,1,1,1.713,1.722A1.71,1.71,0,0,1,313.375,4815.128Zm1.713,9.251a1.923,1.923,0,1,1,1.924-1.924A1.923,1.923,0,0,1,315.088,4824.379Zm-2.253,5.992a2.253,2.253,0,1,1,2.253,2.252A2.258,2.258,0,0,1,312.835,4830.371Zm-.985-3.061v7.579h6.444v-24.75H311.85v17.167Z" transform="translate(-287.37 -4652.646)" fill="#e57900"/>
        <path id="Path_2861" data-name="Path 2861" d="M277.155,4810.141,266.57,4834.89h6.687l3.243-7.58.756-1.763.243-.563,4.246-9.947h5.56v-4.9Z" transform="translate(-262.828 -4652.647)" fill="#ff9500"/>
        <path id="Path_2862" data-name="Path 2862" d="M325.91,4810.141v4.9H331.9l4.25,9.947h.009l.985,2.326,3.243,7.58h6.687l-10.584-24.749Z" transform="translate(-294.99 -4652.647)" fill="#ff9500"/>
        <path id="Path_2863" data-name="Path 2863" d="M296.28,4803.37v.815l2.285,2.285h2.817l-3.091-3.1Z" transform="translate(-278.931 -4648.978)" fill="#fbb020"/>
        <path id="Path_2864" data-name="Path 2864" d="M306.72,4803.37l3.092,3.1h2.817l-3.091-3.1Z" transform="translate(-284.589 -4648.978)" fill="#fbb020"/>
        <path id="Path_2865" data-name="Path 2865" d="M318.92,4803.37l3.092,3.1h2.817l-3.091-3.1Z" transform="translate(-291.202 -4648.978)" fill="#fbb020"/>
        <path id="Path_2866" data-name="Path 2866" d="M331.12,4803.37l3.092,3.1h2.317v-.513l-2.592-2.588Z" transform="translate(-297.814 -4648.978)" fill="#fbb020"/>
        <path id="Path_2867" data-name="Path 2867" d="M296.28,4805.149v2.287h2.285Z" transform="translate(-278.931 -4649.941)" fill="#e57900"/>
        <path id="Path_2868" data-name="Path 2868" d="M300.67,4803.37l3.091,3.1h2.771l-3.091-3.1Z" transform="translate(-281.31 -4648.978)" fill="#e57900"/>
        <path id="Path_2869" data-name="Path 2869" d="M312.87,4803.37l3.091,3.1h2.771l-3.092-3.1Z" transform="translate(-287.923 -4648.978)" fill="#e57900"/>
        <path id="Path_2870" data-name="Path 2870" d="M325.07,4803.37l3.092,3.1h2.771l-3.091-3.1Z" transform="translate(-294.535 -4648.978)" fill="#e57900"/>
        <path id="Path_2871" data-name="Path 2871" d="M337.27,4803.37l2.592,2.588v-2.588Z" transform="translate(-301.147 -4648.978)" fill="#e57900"/>
        <path id="Path_2872" data-name="Path 2872" d="M318.053,4782.6H309.2v-.792h8.853Z" transform="translate(-285.933 -4637.292)" fill="#ff9500"/>
        <path id="Path_2873" data-name="Path 2873" d="M318.053,4756.463H309.2v-.793h8.853Z" transform="translate(-285.933 -4623.124)" fill="#ff9500"/>
        <path id="Path_2874" data-name="Path 2874" d="M318.053,4730.3H309.2v-.793h8.853Z" transform="translate(-285.933 -4608.945)" fill="#ff9500"/>
        <path id="Path_2875" data-name="Path 2875" d="M318.053,4704.156H309.2v-.806h8.853Z" transform="translate(-285.933 -4594.767)" fill="#ff9500"/>
        <path id="Path_2876" data-name="Path 2876" d="M318.053,4678H309.2v-.793h8.853Z" transform="translate(-285.933 -4580.599)" fill="#ff9500"/>
        <path id="Path_2877" data-name="Path 2877" d="M318.053,4651.843H309.2v-.793h8.853Z" transform="translate(-285.933 -4566.42)" fill="#ff9500"/>
        <path id="Path_2878" data-name="Path 2878" d="M306.59,4631.22v78.846h1.2V4631.22Z" transform="translate(-284.519 -4555.672)" fill="#e57900"/>
        <path id="Path_2879" data-name="Path 2879" d="M328.53,4700.983v9.083h1.2V4631.22h-1.2Z" transform="translate(-296.41 -4555.672)" fill="#e57900"/>
        <path id="Path_2880" data-name="Path 2880" d="M302.96,4626.78v2.034H317.8v-2.034Z" transform="translate(-282.551 -4553.266)" fill="#41383d"/>
        <path id="Path_2881" data-name="Path 2881" d="M277.54,4621.26v1.925l1.351-1.925Z" transform="translate(-268.774 -4550.274)" fill="#fbb020"/>
        <path id="Path_2882" data-name="Path 2882" d="M285.273,4621.26l-1.773,2.529h2.437l1.772-2.529Z" transform="translate(-272.004 -4550.274)" fill="#fbb020"/>
        <path id="Path_2883" data-name="Path 2883" d="M297.473,4621.26l-1.773,2.529h2.437l1.772-2.529Z" transform="translate(-278.616 -4550.274)" fill="#fbb020"/>
        <path id="Path_2884" data-name="Path 2884" d="M309.672,4621.26l-1.772,2.529h2.437l1.773-2.529Z" transform="translate(-285.229 -4550.274)" fill="#fbb020"/>
        <path id="Path_2885" data-name="Path 2885" d="M277.54,4623.185v.6h2.73l1.772-2.529h-3.151Z" transform="translate(-268.774 -4550.274)" fill="#ff9500"/>
        <path id="Path_2886" data-name="Path 2886" d="M290.592,4621.26l-1.772,2.529h3.151l1.773-2.529Z" transform="translate(-274.888 -4550.274)" fill="#ff9500"/>
        <path id="Path_2887" data-name="Path 2887" d="M302.792,4621.26l-1.772,2.529h3.151l1.773-2.529Z" transform="translate(-281.5 -4550.274)" fill="#ff9500"/>
        <path id="Path_2888" data-name="Path 2888" d="M314.992,4621.26l-1.772,2.529h1.956v-2.529Z" transform="translate(-288.112 -4550.274)" fill="#ff9500"/>
        <path id="Path_2889" data-name="Path 2889" d="M285.235,4592.7a.577.577,0,0,0,.041.234h1.177a.565.565,0,0,0,.05-.234.637.637,0,1,0-1.273,0Z" transform="translate(-272.942 -4534.448)" fill="#41383d"/>
        <path id="Path_2890" data-name="Path 2890" d="M311.76,4559.53l-1.31.242a.673.673,0,0,0,1.347-.019.664.664,0,0,0-.041-.219Z" transform="translate(-286.611 -4516.817)" fill="#41383d"/>
        <path id="Path_2891" data-name="Path 2891" d="M320.105,4549.571a.6.6,0,0,0,0,1.2.6.6,0,0,0,.6-.6A.6.6,0,0,0,320.105,4549.571Z" transform="translate(-291.521 -4511.419)" fill="#41383d"/>
        <path id="Path_2892" data-name="Path 2892" d="M376.983,4486.04a.407.407,0,0,0-.4.4.4.4,0,0,0,.806,0A.407.407,0,0,0,376.983,4486.04Z" transform="translate(-322.453 -4476.986)" fill="#41383d"/>
        <path id="Path_2893" data-name="Path 2893" d="M389.321,4493.271a.421.421,0,1,0,0,.842.421.421,0,1,0,0-.842Z" transform="translate(-329.131 -4480.904)" fill="#41383d"/>
        <path id="Path_2894" data-name="Path 2894" d="M448.125,4501.34a.6.6,0,1,0,0,1.2.6.6,0,0,0,.6-.6A.6.6,0,0,0,448.125,4501.34Z" transform="translate(-360.902 -4485.278)" fill="#41383d"/>
        <path id="Path_2895" data-name="Path 2895" d="M367.464,4493.876l-2.354,2.538,4.058-.865.009.008,2.034-2.486Z" transform="translate(-316.237 -4480.795)" fill="#e57900"/>
        <path id="Path_2896" data-name="Path 2896" d="M351.34,4511.037l4.924-1.049,2.038-2.478-4.594.979H353.7Z" transform="translate(-308.773 -4488.623)" fill="#e57900"/>
        <path id="Path_2897" data-name="Path 2897" d="M340.644,4522.38l-2.354,2.547,5.716-1.22,2.047-2.477Z" transform="translate(-301.7 -4496.059)" fill="#e57900"/>
        <path id="Path_2898" data-name="Path 2898" d="M325.32,4538.706l6.522-1.388h.009l2.034-2.479-6.2,1.319h-.009Z" transform="translate(-294.67 -4503.435)" fill="#e57900"/>
        <path id="Path_2899" data-name="Path 2899" d="M310.411,4550.99l-3.211.664,5.578,2.68v.009l.655-.118-2.015-2.631a1.864,1.864,0,0,1-.435-.724Z" transform="translate(-284.849 -4512.124)" fill="#e57900"/>
        <path id="Path_2900" data-name="Path 2900" d="M290.63,4555.354l.1.352h.009l4.681,2.259,1.74-.312,1.621-.293-5.386-2.579Z" transform="translate(-275.869 -4514.242)" fill="#e57900"/>
        <path id="Path_2901" data-name="Path 2901" d="M282.05,4603.2v1.831h.774v-.01l2.982-8.3v-.015h-1.36Z" transform="translate(-271.218 -4536.963)" fill="#c6e8f8"/>
        <path id="Path_2902" data-name="Path 2902" d="M287.7,4605.018v.01h3.151l1.974-6.027v-2.3H290.6Z" transform="translate(-274.281 -4536.963)" fill="#c6e8f8"/>
        <path id="Path_2903" data-name="Path 2903" d="M325.32,4599.475v3.948l3.389-9.463h-1.356Z" transform="translate(-294.67 -4535.477)" fill="#c6e8f8"/>
        <path id="Path_2904" data-name="Path 2904" d="M327.95,4605.136h3.206l1.919-5.88v-5.3h-1.227Z" transform="translate(-296.096 -4535.477)" fill="#c6e8f8"/>
        <path id="Path_2905" data-name="Path 2905" d="M282.05,4596.7v6.5l2.4-6.5Z" transform="translate(-271.218 -4536.963)" fill="#9ad8f3"/>
        <path id="Path_2906" data-name="Path 2906" d="M283.74,4605.018v.01h1.814v-.01l2.9-8.317h-1.731v.015Z" transform="translate(-272.134 -4536.963)" fill="#9ad8f3"/>
        <path id="Path_2907" data-name="Path 2907" d="M296.554,4601.721l-1.974,6.027h1.974Z" transform="translate(-278.009 -4539.683)" fill="#9ad8f3"/>
        <path id="Path_2908" data-name="Path 2908" d="M277.21,4552.2c0,.294,1.3,6.274,1.3,6.274l8.326-2.134a4.3,4.3,0,0,0,3.05-3.274v-.031l-1.74.312-3.8.687-.884-2.942h-.009l-.1-.351,2.766-.572,3.325-.7-.623-3.2-7.846,1.663a4.3,4.3,0,0,0-3.765,4.269Z" transform="translate(-268.595 -4509.629)" fill="#ff9500"/>
        <path id="Path_2909" data-name="Path 2909" d="M280.4,4603.536v-8.327h7.713v8.327Zm2.679-9.587H279v12.5h10.8v-12.5h-6.714Z" transform="translate(-269.565 -4535.472)" fill="#ff9500"/>
        <path id="Path_2910" data-name="Path 2910" d="M285.886,4590.7a1.353,1.353,0,0,0-.746-.354,1.7,1.7,0,0,0-.211-.018,1.421,1.421,0,0,0-1.429,1.429,1,1,0,0,0,.018.233h.815a.558.558,0,0,1-.041-.233.637.637,0,1,1,1.273,0,.576.576,0,0,1-.05.233h.824a2.007,2.007,0,0,0,.018-.233,1.405,1.405,0,0,0-.472-1.058Z" transform="translate(-272.004 -4533.51)" fill="#e57900"/>
        <path id="Path_2911" data-name="Path 2911" d="M287.09,4574.833v.01a1.359,1.359,0,0,1,.747.353l9.989-12.9.018-.04a1.37,1.37,0,0,1-.614-.537l-10.14,13.107Z" transform="translate(-273.95 -4518.004)" fill="#e57900"/>
        <path id="Path_2912" data-name="Path 2912" d="M290.87,4556.8l.884,2.94,3.8-.682Z" transform="translate(-275.999 -4515.337)" fill="#fbb020"/>
        <path id="Path_2913" data-name="Path 2913" d="M302.981,4556.006l1.31-.243.788-.142,1.992-.353v-.009l-5.579-2.68-1.5.313-3.325.7,5.386,2.579.142-.023Z" transform="translate(-279.142 -4513.049)" fill="#fbb020"/>
        <path id="Path_2914" data-name="Path 2914" d="M302.56,4595.69V4607.4H309.4V4595.69Z" transform="translate(-282.335 -4536.416)" fill="#983421"/>
        <path id="Path_2915" data-name="Path 2915" d="M309.4,4594.753H302.56v-.793H309.4Z" transform="translate(-282.335 -4535.477)" fill="#fbb020"/>
        <path id="Path_2916" data-name="Path 2916" d="M309.523,4559.611l-.783.142a1.306,1.306,0,0,0,.22.623,1.392,1.392,0,0,0,.614.536,1.333,1.333,0,0,0,.623.151,1.389,1.389,0,0,0,.371-.051,1.465,1.465,0,0,0,1.1-1.419,1.424,1.424,0,0,0-.05-.363l-.783.142a.862.862,0,0,1,.041.222.673.673,0,0,1-1.347.018Z" transform="translate(-285.684 -4516.654)" fill="#e57900"/>
        <path id="Path_2917" data-name="Path 2917" d="M317.187,4547.745a.6.6,0,0,1,1.2,0,.6.6,0,1,1-1.2,0Zm-1.337-2.092a1.957,1.957,0,0,0-.513,2.092,1.88,1.88,0,0,0,.435.725l2.015,2.629,1.429,1.842v.008l6.041,7.833.522-3.614,2.015-3.109-6.06-5.537-3.059-2.789a.43.43,0,0,0-.1-.084,1.974,1.974,0,0,0-2.716,0Z" transform="translate(-289.198 -4508.999)" fill="#e57900"/>
        <path id="Path_2918" data-name="Path 2918" d="M322.281,4603.715h-1.2v-11.174h6.33v-1.2H317.49v16.231h9.916v-3.856Z" transform="translate(-290.427 -4534.058)" fill="#fbb020"/>
        <path id="Path_2919" data-name="Path 2919" d="M322.515,4543.017a.362.362,0,0,1,.1.082l3.059,2.79,4.64-5.638-6.527,1.388-1.269,1.369-.009.009Z" transform="translate(-293.147 -4506.368)" fill="#fbb020"/>
        <path id="Path_2920" data-name="Path 2920" d="M325.32,4603.423v1.713h1.2l3.9-11.176h-1.713Z" transform="translate(-294.67 -4535.477)" fill="#9ad8f3"/>
        <path id="Path_2921" data-name="Path 2921" d="M325.32,4593.96v5.515l2.034-5.515Z" transform="translate(-294.67 -4535.477)" fill="#9ad8f3"/>
        <path id="Path_2922" data-name="Path 2922" d="M334.043,4527.859l-3.563,3.855,6.2-1.319,3.091-3.755-5.716,1.219Z" transform="translate(-297.467 -4498.992)" fill="#fbb020"/>
        <path id="Path_2923" data-name="Path 2923" d="M336.869,4605.521l-1.919,5.88h1.919Z" transform="translate(-299.89 -4541.744)" fill="#9ad8f3"/>
        <path id="Path_2924" data-name="Path 2924" d="M358.8,4500.614l-1.076-.243-19.021,29.44-2.015,3.11-.522,3.617v.01l-.806,5.487h1.731v11.308l24.75-52.034-1.026-.233Z" transform="translate(-300.112 -4484.752)" fill="#ff9500"/>
        <path id="Path_2925" data-name="Path 2925" d="M343.43,4517.877l5.409-1.151,3.137-3.807-4.924,1.049Z" transform="translate(-304.486 -4491.555)" fill="#fbb020"/>
        <path id="Path_2926" data-name="Path 2926" d="M360.449,4499.348l-3.939,4.25,4.594-.981,3.412-4.126-.009-.01Z" transform="translate(-311.575 -4483.729)" fill="#fbb020"/>
        <path id="Path_2927" data-name="Path 2927" d="M372.636,4489.2l-2.386,2.578,3.746-.806,1.085-1.309C373.571,4489.369,372.636,4489.2,372.636,4489.2Z" transform="translate(-319.022 -4478.698)" fill="#fbb020"/>
        <path id="Path_2928" data-name="Path 2928" d="M408.133,4492.728a.6.6,0,1,1,.6.6A.6.6,0,0,1,408.133,4492.728Zm-32.491-7.2a.4.4,0,1,1,.806,0,.4.4,0,0,1-.806,0Zm-.151-1.176a1.678,1.678,0,0,0-.362,2.225s.934.169,2.446.462c.637.11,1.369.252,2.185.4v.01c1.278.232,2.739.5,4.3.8,5.789,1.077,12.8,2.378,15.888,2.922,2.656.462,5.217,1.462,6.453,2.688a3.247,3.247,0,0,0,2.235,1.269,2.582,2.582,0,0,0,2.226-1.269s.142-.27.311-.605c.2-.411.463-.916.554-1.085l2.991.563.3-1-1.892-.353-2.556-.484-11.537-2.153-15.568-2.9-6.925-1.3-1.049-.193Z" transform="translate(-321.515 -4476.069)" fill="#ff9500"/>
        <path id="Path_2929" data-name="Path 2929" d="M386.771,4492.521a.423.423,0,0,1,.421-.42.421.421,0,1,1,0,.841A.423.423,0,0,1,386.771,4492.521Zm-.976,1.43a2.262,2.262,0,0,0,1.479.545,2.36,2.36,0,0,0,.985-.22,2.3,2.3,0,0,0,1.31-2.075c0-.1-.009-.2-.018-.293-1.562-.293-3.018-.562-4.3-.8a2.347,2.347,0,0,0-.27,1.087,2.26,2.26,0,0,0,.815,1.749Z" transform="translate(-327.006 -4479.733)" fill="#e57900"/>
        <path id="Path_2930" data-name="Path 2930" d="M386.08,4498.208a1.374,1.374,0,0,0,.211.746l2.015.462a1.424,1.424,0,0,0,.664-1.208,1.513,1.513,0,0,0-.11-.564v-.008a2.316,2.316,0,0,1-.985.218,2.261,2.261,0,0,1-1.479-.544,1.39,1.39,0,0,0-.311.9Z" transform="translate(-327.602 -4483.094)" fill="#983421"/>
        <path id="Path_2931" data-name="Path 2931" d="M302.514,4606.448h-.5V4593.94h.5Z" transform="translate(-282.036 -4535.467)" fill="#fbc220"/>
        <path id="Path_2932" data-name="Path 2932" d="M314.638,4576.012l.737-.156-2.693-12.926-.742.155Z" transform="translate(-287.418 -4518.66)" fill="#983421"/>
        <path id="Path_2933" data-name="Path 2933" d="M325.91,4575.523l.737-.156-2.78-13.337-.737.156Z" transform="translate(-293.483 -4518.171)" fill="#983421"/>
        <path id="Path_2934" data-name="Path 2934" d="M313.592,4566.02l5.011-.944-.092-.5-5.011.943Z" transform="translate(-288.264 -4519.554)" fill="#983421"/>
        <path id="Path_2935" data-name="Path 2935" d="M316.656,4581.4l5.011-.943-.092-.494-5.015.943Z" transform="translate(-289.923 -4527.89)" fill="#983421"/>
        <path id="Path_2936" data-name="Path 2936" d="M309.913,4561.219a1.718,1.718,0,0,0,1.717-1.717,1.652,1.652,0,0,0-.055-.432l-.485.127a1.305,1.305,0,0,1,.037.3,1.217,1.217,0,0,1-2.427.131l-.5.051a1.711,1.711,0,0,0,1.713,1.538Z" transform="translate(-285.391 -4516.567)" fill="#ff9500"/>
        <path id="Path_2937" data-name="Path 2937" d="M280.053,4566.541l6.453-1.612,1.608-.421a4.537,4.537,0,0,0,1.534-.668,4.363,4.363,0,0,0,1.809-2.736l-.073-.013a4.9,4.9,0,0,1-2.07,2.258,4.475,4.475,0,0,1-1.379.472l-1.621.376a30.737,30.737,0,0,0-6.284,2.271l.018.073Z" transform="translate(-270.123 -4517.662)" fill="#e57900"/>
        <path id="Path_2938" data-name="Path 2938" d="M289.455,4549.409l-.623-3.206,0-.032-.032,0-7.846,1.648h0a4.332,4.332,0,0,0-3.779,4.42c.389,2.07.852,4.123,1.292,6.179l.05-.009-.444-3.129c-.17-1.031-.362-2.092-.495-3.091a3.928,3.928,0,0,1,3.435-3.876l.023,0h.014l3.911-.884c.655-.137,1.3-.32,1.946-.48l1.947-.5-.293-.2c.27,1.058.563,2.11.847,3.163l.05-.009Z" transform="translate(-268.574 -4509.576)" fill="#fbc220"/>
        <path id="Path_2939" data-name="Path 2939" d="M292.793,4560.405l12.838-2.309-.137-.747-12.833,2.313Z" transform="translate(-276.969 -4515.634)" fill="#e57900"/>
        <path id="Path_2940" data-name="Path 2940" d="M290.621,4553.174,302,4550.815l-.105-.5-11.377,2.363Z" transform="translate(-275.809 -4511.824)" fill="#fbc220"/>
        <path id="Path_2941" data-name="Path 2941" d="M329.359,4518.839l23.853-28.872-1.2-.208L328.58,4518.2Z" transform="translate(-296.437 -4479.001)" fill="#e57900"/>
        <path id="Path_2942" data-name="Path 2942" d="M322.521,4515.293l24.238-26.14-.371-.343-24.238,26.139Z" transform="translate(-292.952 -4478.487)" fill="#fbc220"/>
        <path id="Path_2943" data-name="Path 2943" d="M324.265,4560.484l.8-.613-9.481-12.325a1.525,1.525,0,0,1-.44-1.107,1.5,1.5,0,0,1,.467-1.044,1.445,1.445,0,0,1,1.067-.408,1.473,1.473,0,0,1,1.044.467l9.146,8.35.678-.742-9.119-8.327a2.5,2.5,0,0,0-4.287,1.672,2.485,2.485,0,0,0,.682,1.787l9.449,12.284Z" transform="translate(-288.61 -4508.387)" fill="#ff9500"/>
        <path id="Path_2944" data-name="Path 2944" d="M335.284,4542l1.319-9,21.077-32.6-.994-.21-21.045,32.445-.018.108-1.333,9.114Z" transform="translate(-299.532 -4484.65)" fill="#fbc220"/>
        <path id="Path_2945" data-name="Path 2945" d="M339.15,4555.509l25.209-53.128-.957-.211-24.251,50.972Z" transform="translate(-302.166 -4485.727)" fill="#e57900"/>
        <path id="Path_2946" data-name="Path 2946" d="M453.62,4530.377h.5v-27.746l-.5.947Z" transform="translate(-364.208 -4485.978)"/>
        <path id="Path_2947" data-name="Path 2947" d="M393.625,4477.161l1.571-8.793-.495-.088-1.571,8.789Z" transform="translate(-331.423 -4467.359)" fill="#983421"/>
        <path id="Path_2948" data-name="Path 2948" d="M427.619,4489.218l.71-3.97-.5-.088-.71,3.972Z" transform="translate(-349.846 -4476.509)" fill="#983421"/>
        <path id="Path_2949" data-name="Path 2949" d="M385.212,4491.055a2.324,2.324,0,1,0,4.342.812l-.05,0a2.471,2.471,0,0,1-.921,1.7,2.109,2.109,0,0,1-3.082-.577,1.929,1.929,0,0,1-.307-.889,2.492,2.492,0,0,1,.06-1.031l-.046-.022Z" transform="translate(-326.977 -4479.701)" fill="#d64c00"/>
        <path id="Path_2950" data-name="Path 2950" d="M378.562,4475.344l8.5-7.489-.046,0,25.543,13.846.023-.046c-2.084-1.231-4.15-2.51-6.261-3.7-2.1-1.205-4.2-2.413-6.325-3.572s-4.227-2.363-6.366-3.49l-6.412-3.411-.243-.129-.192.179-4.159,3.847c-1.374,1.3-2.73,2.611-4.095,3.921l.032.037Z" transform="translate(-323.51 -4466.86)" fill="#e57900"/>
        <path id="Path_2951" data-name="Path 2951" d="M455.594,4567.9h-.5v-4.69h.5Z" transform="translate(-365.005 -4518.811)" fill="#fbb020"/>
        <path id="Path_2952" data-name="Path 2952" d="M452.5,4567.9H452v-4.69h.5Z" transform="translate(-363.33 -4518.811)" fill="#c60"/>
        <path id="Path_2953" data-name="Path 2953" d="M327.372,4591.255l-9.916-.016h-.037v16.315h.037l9.916-.014v-.051l-4.956-.225-4.96-.128.38.375.073-8.114-.073-8.121-.38.379,4.96-.132,4.956-.219Z" transform="translate(-290.389 -4534.003)" fill="#e57900"/>
        <path id="Path_2954" data-name="Path 2954" d="M289.5,4604.738h-7.465v-8.064H289.5Zm-7.717.251h7.969v-8.569H281.78Z" transform="translate(-271.072 -4536.81)" fill="#fbc220"/>
        <path id="Path_2955" data-name="Path 2955" d="M324.77,4605.074h6.586v-.5h-6.082v-10.676h6.082v-.5H324.77Z" transform="translate(-294.372 -4535.168)" fill="#e57900"/>
        <path id="Path_2956" data-name="Path 2956" d="M452.67,4576.041c-.014-.094.018,0,.014.036a.864.864,0,0,1-.009.184,2.559,2.559,0,0,1-.124.435c-.055.16-.133.261-.229.532a.979.979,0,0,0,.064.722.9.9,0,0,0,1.127.477,1.094,1.094,0,0,0,.536-.952c-.105.33-.325.669-.614.715a.529.529,0,0,1-.577-.426c-.051-.266.082-.33.357-.7a3.155,3.155,0,0,0,.3-.536,1.691,1.691,0,0,0,.105-.334.966.966,0,0,0,0-.49Z" transform="translate(-363.483 -4525.582)"/>
        <path id="Path_2957" data-name="Path 2957" d="M454.06,4576.025h-1.15v-.5h1.15Z" transform="translate(-363.824 -4525.483)"/>
        <path id="Path_2958" data-name="Path 2958" d="M309.184,4663.931l8.853-11.18-.394-.312-8.853,11.181Z" transform="translate(-285.711 -4567.172)" fill="#983421"/>
        <path id="Path_2959" data-name="Path 2959" d="M317.643,4663.931l.394-.311-8.853-11.181-.394.312Z" transform="translate(-285.711 -4567.172)" fill="#983421"/>
        <path id="Path_2960" data-name="Path 2960" d="M309.184,4690.082l8.853-11.18-.394-.312-8.853,11.18Z" transform="translate(-285.711 -4581.347)" fill="#983421"/>
        <path id="Path_2961" data-name="Path 2961" d="M317.643,4690.082l.394-.312-8.853-11.18-.394.313Z" transform="translate(-285.711 -4581.347)" fill="#983421"/>
        <path id="Path_2962" data-name="Path 2962" d="M309.184,4716.233l8.853-11.181-.394-.312-8.853,11.181Z" transform="translate(-285.711 -4595.52)" fill="#983421"/>
        <path id="Path_2963" data-name="Path 2963" d="M317.643,4716.233l.394-.312-8.853-11.181-.394.312Z" transform="translate(-285.711 -4595.52)" fill="#983421"/>
        <path id="Path_2964" data-name="Path 2964" d="M309.184,4742.382l8.853-11.176-.394-.316-8.853,11.18Z" transform="translate(-285.711 -4609.693)" fill="#983421"/>
        <path id="Path_2965" data-name="Path 2965" d="M317.643,4742.382l.394-.312-8.853-11.18-.394.316Z" transform="translate(-285.711 -4609.693)" fill="#983421"/>
        <path id="Path_2966" data-name="Path 2966" d="M309.184,4768.536l8.853-11.179-.394-.316-8.853,11.179Z" transform="translate(-285.711 -4623.867)" fill="#983421"/>
        <path id="Path_2967" data-name="Path 2967" d="M317.643,4768.536l.394-.316-8.853-11.179-.394.316Z" transform="translate(-285.711 -4623.867)" fill="#983421"/>
        <path id="Path_2968" data-name="Path 2968" d="M313.2,4792.589l7.012-9.081-.4-.308-7.012,9.081Z" transform="translate(-287.885 -4638.045)" fill="#983421"/>
        <path id="Path_2969" data-name="Path 2969" d="M316.164,4792.593l.394-.32-7.374-9.083-.394.317Z" transform="translate(-285.711 -4638.039)" fill="#983421"/>
        <path id="Path_2970" data-name="Path 2970" d="M320.306,4640.261l.408-.3-6.586-9.082-.408.3Z" transform="translate(-288.383 -4555.488)" fill="#983421"/>
        <path id="Path_2971" data-name="Path 2971" d="M309.188,4640.261l6.554-9.084-.408-.3-6.554,9.087Z" transform="translate(-285.706 -4555.488)" fill="#983421"/>
        <path id="Path_2972" data-name="Path 2972" d="M295.75,4806.168h.5v-2.844h20.858v2.844h.5v-3.348H295.75Z" transform="translate(-278.644 -4648.679)" fill="#fbc220"/>
        <path id="Path_2973" data-name="Path 2973" d="M415.535,4492.525l.38-1.265-.275-.051-39.333-7.351-.417.381,39.379,7.41-.215.733Z" transform="translate(-322.079 -4475.802)" fill="#fbb020"/>
        <path id="Path_2974" data-name="Path 2974" d="M375.464,4484.28a1.817,1.817,0,0,0-.632,1.059,1.728,1.728,0,0,0,.261,1.205l0,.009.014,0,18.5,3.473,4.63.843a29.38,29.38,0,0,1,4.58,1.026,9.318,9.318,0,0,1,3.989,2.373,2.551,2.551,0,0,0,2.143.818,2.655,2.655,0,0,0,1.924-1.268h0l.857-1.69-.028.013,3,.564.009-.051-2.972-.677-.1-.023-.05.092-.925,1.662,0-.015a2.44,2.44,0,0,1-1.754,1.091,2.216,2.216,0,0,1-1.869-.782c-.266-.253-.531-.563-.866-.829a7.535,7.535,0,0,0-1.012-.7,12.4,12.4,0,0,0-2.208-.993,28.9,28.9,0,0,0-4.635-1.081c-1.544-.28-3.082-.6-4.626-.857l-9.27-1.639c-3.1-.509-6.188-1.044-9.3-1.49l.078.057a1.635,1.635,0,0,1-.289-1.113,1.732,1.732,0,0,1,.568-1.035Z" transform="translate(-321.493 -4476.031)" fill="#e57900"/>
        <path id="Path_2975" data-name="Path 2975" d="M302.42,4629.051h15.348v-2.28h-.5v1.777h-14.34v-1.777h-.5Z" transform="translate(-282.259 -4553.262)" fill="#666264"/>
        <path id="Path_2976" data-name="Path 2976" d="M317.523,4651.287h-8.349v-.292h8.349Zm-8.853.5h9.352v-1.3H308.67Z" transform="translate(-285.646 -4566.117)" fill="#ff9500"/>
        <path id="Path_2977" data-name="Path 2977" d="M317.523,4677.438h-8.349v-.293h8.349Zm-8.853.5h9.352v-1.3H308.67Z" transform="translate(-285.646 -4580.291)" fill="#ff9500"/>
        <path id="Path_2978" data-name="Path 2978" d="M317.523,4703.587h-8.349v-.294h8.349Zm-8.853.5h9.352v-1.3H308.67Z" transform="translate(-285.646 -4594.463)" fill="#ff9500"/>
        <path id="Path_2979" data-name="Path 2979" d="M317.523,4729.746h-8.349v-.292h8.349Zm-8.853.506h9.352v-1.3H308.67Z" transform="translate(-285.646 -4608.643)" fill="#ff9500"/>
        <path id="Path_2980" data-name="Path 2980" d="M317.523,4755.9h-8.349v-.293h8.349Zm-8.853.5h9.352v-1.3H308.67Z" transform="translate(-285.646 -4622.816)" fill="#ff9500"/>
        <path id="Path_2981" data-name="Path 2981" d="M317.523,4782.047h-8.349v-.293h8.349Zm-8.853.5h9.352v-1.3H308.67Z" transform="translate(-285.646 -4636.99)" fill="#ff9500"/>
      </g>
      <g id="Group_561" data-name="Group 561" transform="translate(179.636 14.516)">
        <path id="Path_2982" data-name="Path 2982" d="M418.536,4691.554c-.476-.916-.93-1.846-1.388-2.779Zm-22.671-164.46v-.056l74.371-24.878,42.32,2.568-80.842,26.039-.55,9.558.55-9.549-35.853-3.683Z" transform="translate(-395.684 -4502.161)" fill="#c3ebd8" fill-rule="evenodd"/>
        <path id="Path_2983" data-name="Path 2983" d="M550.575,4501.7l78.7,21.824.513,9.278.353,9.262.188,9.229.027,9.183-.147,9.127-.311,9.061-.49,8.977-.669,8.88-.847,8.776-1.031,8.651-1.218,8.514-1.411,8.373-1.6,8.207-1.8,8.039-2,7.854-2.208,7.654-2.409,7.441-2.624,7.219-2.84,6.985-3.06,6.729-3.279,6.471-3.508,6.187-3.737,5.9-3.971,5.6-4.209,5.286-4.452,4.95-4.7,4.607-4.951,4.256-5.208,3.878-5.473,3.5-5.734,3.1-6,2.679-6.018-1.923-5.766-2.383h0l-5.519-2.824-5.271-3.258-5.034-3.673h0l-4.791-4.081-4.548-4.47-4.319-4.845-4.081-5.208-3.852-5.56-3.618-5.895-3.394-6.216h0l-3.169-6.521-2.95-6.815-2.73-7.091-2.515-7.358h0l-2.3-7.6L478.5,4653.8l-1.882-8.057h0l-1.676-8.267h0l-1.475-8.455-1.273-8.633-1.081-8.789-.884-8.939-.692-9.065-.508-9.182-.325-9.284h0l-.142-9.366.032-9.439.211-9.494h0l.375-9.537.55-9.558Z" transform="translate(-433.593 -4499.989)" fill="#004747"/>
        <path id="Path_2984" data-name="Path 2984" d="M637.366,4612.411l-2.061-1.887-2.1-1.709-2.143-1.534-2.18-1.36-2.212-1.186-2.24-1.021-2.258-.848-2.281-.678-2.3-.514-2.3-.348-2.313-.179-2.318-.019-2.313.147-2.308.312-2.3.466-2.281.628-2.263.793-2.244.942-2.212,1.1-2.18,1.254-2.148,1.411-2.1,1.568-2.061,1.712-2.011,1.868-1.96,2.016-1.9,2.162-1.836,2.308-1.773,2.456-1.7,2.6-1.621,2.743-1.548,2.881-1.461,3.023-1.356,3.123-1.232,3.18-1.113,3.232-.994,3.279-.875,3.321-.756,3.352-.641,3.381-.518,3.4-.408,3.417-.288,3.422-.174,3.425-.06,3.417.05,3.407.165,3.39.279,3.366.385,3.334.5,3.3.6,3.253.714,3.2.82,3.156.925,3.088,1.031,3.023,1.131,2.944,1.241,2.866,1.337,2.781,1.443,2.688,1.539,2.587,1.64,2.483,1.736,2.372,1.837,2.252,1.933,2.135,2.024,2,2.056,1.813,2.093,1.639,2.13,1.467,2.162,1.295,2.189,1.127,2.212.962,2.23.8,2.244.633,2.253.472,2.267.312,2.267.15,2.267-.009,2.263-.16,2.253-.321,2.24-.466,2.226-.623,2.2-.775,2.18-.92,2.153-1.067,2.125-1.213,2.084-1.355,2.047-1.5,2-1.643,1.96-1.783,1.905-1.92,1.85-2.056,1.8-2.192,1.731-2.327,1.662-2.459,1.594-2.594,1.521-2.724,1.447-2.85-1.173,1.332-1.2,1.266-1.228,1.194-1.255,1.117-1.278,1.045-1.305.971-1.319.9-1.346.825-1.356.745-1.378.67-1.388.591-1.4.513-1.415.436-1.424.357-1.429.278-1.438.2-1.438.118-1.443.036-1.447-.05-1.443-.128-1.443-.21-1.438-.3-1.429-.381-1.424-.467-1.415-.548-1.406-.643-1.392-.724-1.379-.814-1.36-.9-1.342-.991-1.328-1.079L605.2,4715l-1.575-1.567-1.5-1.672-1.425-1.763-1.351-1.854-1.273-1.938-1.2-2.023-1.118-2.1-1.035-2.171-.962-2.24-.879-2.3-.8-2.358-.719-2.414-.632-2.46-.554-2.5-.467-2.538-.38-2.573-.3-2.6-.215-2.624-.124-2.642-.041-2.657.05-2.665.138-2.67.224-2.666.316-2.661.4-2.651.5-2.635.586-2.615.682-2.588.77-2.555.87-2.519.957-2.482,1.053-2.437,1.04-2.161,1.09-2.07,1.141-1.979,1.2-1.882,1.241-1.795,1.287-1.7,1.324-1.6,1.37-1.507,1.4-1.416,1.443-1.31,1.466-1.219,1.5-1.117,1.521-1.017,1.553-.912,1.571-.819,1.589-.71,1.608-.613,1.617-.5,1.63-.408,1.64-.3,1.649-.191,1.649-.088,1.649.019,1.649.129,1.644.233,1.64.344,1.626.452,1.621.564,1.6.673,1.589.787,1.566.9,1.548,1.008-.321-.417-.321-.417-.33-.413-.33-.407-.33-.4-.334-.4-.344-.394-.339-.395-.348-.39-.348-.385-.353-.38-.353-.375-.357-.371-.362-.366-.366-.366Z" transform="translate(-484.249 -4553.88)" fill="#00f3bb" fill-rule="evenodd"/>
        <g id="Group_560" data-name="Group 560" transform="translate(0 24.075)">
          <path id="Path_2985" data-name="Path 2985" d="M509.086,4773.834l-12.361-3.412c-101.952-4.95-106.069-134.053-104.223-219.893l35.853,3.684-.549,9.549-.38,9.535-.211,9.5-.032,9.439.142,9.365.325,9.285.508,9.182.7,9.069.884,8.936,1.081,8.789,1.273,8.634,1.475,8.454,1.676,8.267,1.882,8.061,2.089,7.842,2.3,7.6,2.514,7.356,2.73,7.095,2.95,6.814,3.169,6.522,3.394,6.214,3.623,5.9,3.852,5.561,4.081,5.207,4.314,4.846,4.552,4.47,4.791,4.082,5.029,3.673,5.276,3.256,5.519,2.826,5.766,2.381,6.014,1.924Z" transform="translate(-392.214 -4550.53)" fill="#00f3bb" fill-rule="evenodd"/>
        </g>
      </g>
      <g id="Group_562" data-name="Group 562" transform="translate(358.698 83.787)">
        <path id="Path_2986" data-name="Path 2986" d="M968.284,4704.669c-8.1,0-16.2-1.785-22.378-5.354q-.722-.42-1.388-.853c.44.289.907.572,1.388.853,6.178,3.568,14.281,5.354,22.378,5.354s16.2-1.785,22.378-5.354a24.684,24.684,0,0,0,4.7-3.458h0a24.721,24.721,0,0,1-4.708,3.458C984.483,4702.884,976.386,4704.669,968.284,4704.669Zm-23.775-6.211a.2.2,0,0,1-.027-.018A.083.083,0,0,0,944.509,4698.458Zm-.032-.022a.125.125,0,0,0-.023-.014A.058.058,0,0,1,944.476,4698.436Zm-.032-.022c-.009,0-.014,0-.018-.01S944.44,4698.408,944.444,4698.413Zm-.032-.023-.014,0Zm55.524-1.41v-5.446h0v5.227l.014-.2C999.95,4696.7,999.945,4696.837,999.936,4696.979Zm-63.282-.98,0-.022a.017.017,0,0,1,0,.014Zm0-1.105c0-.072-.014-.15-.014-.228l.014.17Zm0-2.046-.014-.009.014.009Zm0-.811h0Zm65.875-12.6v-.3l0-.056Zm-63.292-1.479v0l-.009-1.034h.009Zm7.392-5.527c-.65-.444-1.255-.9-1.823-1.378C945.37,4671.522,945.979,4671.986,946.629,4672.431Zm55.9-1.095v-.408l.009-.083Zm-63.292-2.1c0-.064-.014-.134-.018-.2v-.064l0,0,.014.136v.134Zm0-2.089-.009-.014.009-.8Zm62.106-1.5a11.332,11.332,0,0,0,1.177-4.672v.17A11.313,11.313,0,0,1,1001.347,4665.643Zm-62.1-4.3c0-.014,0-.028,0-.038v0C939.242,4661.31,939.246,4661.324,939.246,4661.338Z" transform="translate(-866.353 -4655.583)" fill="#b8b8b8"/>
        <path id="Path_2987" data-name="Path 2987" d="M802.789,4795.278a39.176,39.176,0,0,0-2.409,3.427c-1.264-1.971-6.155-3.55-10.653-6.788-.76-.439-5.327,3.238-5.327,3.238s9.568,14.02,16.172,14.652c3.417.319,10.529-7.361,10.529-7.361l-8.308-7.168Z" transform="translate(-783.84 -4726.536)" fill="#f0c8b6"/>
        <path id="Path_2988" data-name="Path 2988" d="M891.92,4741.7a18.341,18.341,0,0,0,1.461,8.053l-2.029,4.836-5.675,2.313-4.983,2.176-3.224-5.057,3.078-9.448,5.569-4.273s5.807.174,5.807,1.406Z" transform="translate(-834.283 -4698.58)" fill="#c9a899"/>
        <path id="Path_2989" data-name="Path 2989" d="M846.42,4753.4c2.908,7.8-12.517,26.8-13.232,28.537-2.556,2.621-12.778-4.73-11.13-8.51,0,0,5.78-6.694,10.9-13.034,4.227-5,6.989-9.962,13.47-7Z" transform="translate(-804.153 -4705.195)" fill="#f58834"/>
        <path id="Path_2990" data-name="Path 2990" d="M863.821,4759.352s-1.837,4.039,1.131,5.7c3.925,2.528,12.435-6.6,12.435-6.6.572,1.337,3.778,3.814,3.778,3.814l.6,3.1,3.49.736,2.533,1.947s-1.177,17.235-1.049,19.265-9.568,11.6-8.272,20.487c.925,1.661-4.553,8.7-12.861,7.685.673-3.5-2.78-4.846-4.846-5.973a39.615,39.615,0,0,0-10.777-3.961s-2.024-25.658-2.024-31.177c0-10.827,13.383-18.018,13.383-18.018l2.483,2.984Z" transform="translate(-818.289 -4707.286)" fill="#f89f3a"/>
        <path id="Path_2991" data-name="Path 2991" d="M869.664,4750.851c-14.752,5.853-17.294,18.6-17.294,18.6l2.922,2.62s3.9-15.331,17.683-18.659c-.009-.968-2.208-2.281-3.316-2.562Z" transform="translate(-820.679 -4704.299)" fill="#334557"/>
        <path id="Path_2992" data-name="Path 2992" d="M971.869,4686.651l2.455-1.411,0,1.992a26.2,26.2,0,0,1-1.979,3.5l-1.479-1.741,1-2.34Z" transform="translate(-884.906 -4668.737)" fill="#868685"/>
        <path id="Path_2993" data-name="Path 2993" d="M820.608,4779.115l6.014-7.48-7.172-4.135-6.009,7.475Z" transform="translate(-799.579 -4713.323)" fill="#27a9a1"/>
        <path id="Path_2994" data-name="Path 2994" d="M815.574,4693.233l.023.014Zm60.328-38.9a14.217,14.217,0,0,0-2.13,1.223s-5.666,4.025-8.088,10.2c0,0-1.2,4.012-7.443,7.611,0,0-33.956,19.612-40,23.1a5.925,5.925,0,0,0-2.505-3.12l-8.895,1.462c-5.473,3.829-9.742,11.643-9.742,18.137l.023.622,3.206,6.464-7.264-4.191,0-.013c-1.947-1.154-3.146-3.573-3.142-7.017,0-6.958,4.882-15.408,10.9-18.88,2.982-1.722,5.675-1.892,7.644-.788l4.053,2.346c8.716-5.029,38.532-22.255,38.532-22.255,6.238-3.6,7.443-7.616,7.443-7.616,2.423-6.169,8.093-10.191,8.093-10.191s4.782-3.576,8.446-1.624l0-.021,7.264,4.2-6.421.36Z" transform="translate(-786.837 -4649.21)" fill="#27857a"/>
        <path id="Path_2995" data-name="Path 2995" d="M970.5,4693.365l6.906-3.984-7.177-4.141-6.9,3.984Z" transform="translate(-880.819 -4668.737)" fill="#27857a"/>
        <path id="Path_2996" data-name="Path 2996" d="M826.56,4759.331v2.939l7.172,4.136,0-8.02-6.023-.536Z" transform="translate(-806.69 -4708.092)" fill="#27857a"/>
        <path id="Path_2997" data-name="Path 2997" d="M815.955,4785.28l0,2.937,6.018.537Z" transform="translate(-800.94 -4722.959)" fill="#27857a"/>
        <path id="Path_2998" data-name="Path 2998" d="M822.36,4704.378l-6.023-.536-6.014,7.484v8.02l6.014.536,6.018-7.479,0-8.02Zm51.8-33.755c2.423-6.164,8.088-10.2,8.088-10.2s5.945-4.464,9.65-.742v2l-6.9,3.98-3.728,8.664,3.724,4.375,6.907-3.983,0,2c-3.71,8-9.646,10.4-9.646,10.4v-.014s-5.675,2.514-8.1-.853c0,0-1.2-2.625-7.433.979,0,0-34.488,19.883-40.126,23.125-1.608,5.565-5.519,11.107-10.117,13.755-6.023,3.471-10.9.654-10.9-6.3s4.882-15.408,10.9-18.881c4.717-2.729,8.729-1.565,10.241,2.4,6.041-3.481,40-23.1,40-23.1,6.238-3.6,7.443-7.611,7.443-7.611Z" transform="translate(-795.314 -4654.085)" fill="#55c2b9"/>
        <path id="Path_2999" data-name="Path 2999" d="M895.784,4707.59a2.126,2.126,0,0,1,.064.572l.009.046a4.818,4.818,0,0,1-2.157,3.737l-32.3,18.632-.531.233c.229.943,1.076,1.26,2.1.674l32.285-18.642a4.8,4.8,0,0,0,2.157-3.737l-.009-.055c.014-1.155-.687-1.732-1.617-1.466Z" transform="translate(-825.286 -4680.813)" fill="#27857a"/>
        <path id="Path_3000" data-name="Path 3000" d="M895.7,4707.67l-.527.229-32.3,18.636a4.814,4.814,0,0,0-2.157,3.734l0,.051a2.128,2.128,0,0,0,.064.57l.531-.232,32.3-18.631a4.806,4.806,0,0,0,2.157-3.739l-.009-.045A1.925,1.925,0,0,0,895.7,4707.67Z" transform="translate(-825.205 -4680.895)" fill="#27a9a1"/>
        <path id="Path_3001" data-name="Path 3001" d="M869.951,4832.908c-4.708-12.457.627-32.174.627-32.174s-14.514-5.937-21.316-13.2a118.633,118.633,0,0,0-.366,33.117l2.84,4.791,8.482,7.266s11,4.327,9.728.2Z" transform="translate(-818.278 -4724.179)" fill="#334557"/>
        <path id="Path_3002" data-name="Path 3002" d="M900.217,4769.27c-15.971,6.843-17.106,19.882-17.106,19.882l4.708,1.851a20.288,20.288,0,0,1,16.484-17.894c-.014-.976-2.982-3.564-4.09-3.839Z" transform="translate(-837.34 -4714.281)" fill="#334557"/>
        <path id="Path_3003" data-name="Path 3003" d="M841.779,5035.279c-2.876,4.035-10.891,4.319-13.951,8.14-.976,1.1-1.012,4.351.65,5.116,5,1.213,13.328-3.051,13.328-3.051s9.6-.587,10.635-2.177c1.305-2.015.948-7.226.948-7.226S842.544,5034.19,841.779,5035.279Z" transform="translate(-807.01 -4858.275)" fill="#664730"/>
        <path id="Path_3004" data-name="Path 3004" d="M847.646,4879.632c-1.255,17.923,3.838,33.82,4.608,37.8,1.667,14.078-.568,29.188-.673,32.9-.082,3.077,13.163,6.518,14.459,1.042.93-6.127.884-22.752-1.424-31.588-.9-3.453,4.663-32.326,4.663-32.326s-21.279-11.412-21.632-7.823Z" transform="translate(-818.011 -4773.719)" fill="#2d3542"/>
        <path id="Path_3005" data-name="Path 3005" d="M911,5072.407c-.032,2.437-3.916,10.537-2.45,12.911,1.333,2.143,6.128,1.276,8.752-.761,2.624-2.057,3.568-7.424,3.568-10.9,0-2.45-.238-5.011-.238-5.011l-9.5.766a8.249,8.249,0,0,0-.137,3Z" transform="translate(-850.949 -4876.544)" fill="#664730"/>
        <path id="Path_3006" data-name="Path 3006" d="M848.675,4859.841s13.841,10.405,19.355,10.116a13.232,13.232,0,0,0,10.2-6.06s3.481,6.367,4.5,10.021,1.255,37.259,3.06,42.032,2.684,5.756,3.554,9.406,1.108,24.818.531,30.646-12.155,5.528-13.488,1.227c.38-15.168-.087-30.3-2.794-35.376-3.8-7.118-9.586-33.769-9.957-34.817-7.731-3.989-16.108-12.522-16.108-14a110.488,110.488,0,0,1,1.15-13.2Z" transform="translate(-818.056 -4763.372)" fill="#334557"/>
        <path id="Path_3007" data-name="Path 3007" d="M868.755,4711.868a12.013,12.013,0,0,0-3.719,12.319s1.489,11.521,2.5,12.628a6.842,6.842,0,0,0,3.65,1.777c2.015.193,8.908-4.517,9.916-5.767s.811-3.613.811-3.613,3.284-.257,3.778-4.753a15.8,15.8,0,0,0-.151-5.066l-2.588-5.67-5.5-3.4h-4.484a24.182,24.182,0,0,0-4.2,1.548Z" transform="translate(-827.309 -4682.331)" fill="#f0c8b6"/>
        <path id="Path_3008" data-name="Path 3008" d="M889.3,4721.922s.279-5.405-2.51-3.047c-.9.949-.54,1.5-1.214,2.606s-2.331,1.759-2.753,1.31-.875-5.312-.385-6.91,3.252-2.863,1.346-5-9.2,4.072-11.652,1.668c-1.676-1.823,2.592-14.592,14.784-7.108,8.652,5.739,2.377,16.474,2.377,16.474Z" transform="translate(-831.203 -4678.425)" fill="#664730"/>
        <path id="Path_3009" data-name="Path 3009" d="M889.329,4889.726c-.724,1.36,1.424,2.775,3.046,3.98,1.186.888,3.728-.106,6.664-.766,4.617-1.713,4.745-3.69,8.56-7.017,1.979-.943-1.7-4.878-4.823-5.474-2.478.628-6.916-.063-7.424,4.485-.889.65-5.3,3.43-6.023,4.786Z" transform="translate(-840.633 -4774.541)" fill="#2c2c2d"/>
        <path id="Path_3010" data-name="Path 3010" d="M932.05,4840.593c-5.23,2.378-6.371,6-13.19,11.034,4.882,1.269,4.823,5.472,4.823,5.472,4.424-2.422,20.166-9.091,19.09-15.3-.82-3.37-1.14-7.549-4.5-14.528-2.972.3-8.349,3.788-8.18,6.6.042.7,2.089,6.622,1.965,6.723Z" transform="translate(-856.716 -4745.717)" fill="#f0c8b6"/>
        <path id="Path_3011" data-name="Path 3011" d="M922.014,4781.984c9.948-5.611,19.868,24.388,20.7,26.261.971,3.531-9.558,8.322-11.991,4.993-3.833-6.509-5.263-10.965-9.366-16.476-4.864-6.525-1.466-14.2.66-14.784Z" transform="translate(-856.719 -4720.794)" fill="#f58834"/>
        <path id="Path_3012" data-name="Path 3012" d="M788.995,4761.491c-.93-.02-5.391,3.559-5.643,6.851-.252,3.239-.316,8.945.38,10.338s5.615,2.089,5.9-2.218c.7-2.778,2.844-2.875,3.3-6.471S792.608,4762.635,788.995,4761.491Z" transform="translate(-783.177 -4710.066)" fill="#2c2c2d"/>
      </g>
      <g id="Group_563" data-name="Group 563" transform="translate(87.565 88.399)">
        <path id="Path_3013" data-name="Path 3013" d="M226.011,4696.967a16.383,16.383,0,0,1-2.121,8.349l4.186,4.406,4.182,2.45h4.8l3.412-2.885-3.073-9.448-5.569-4.269s-5.812.17-5.812,1.4Z" transform="translate(-208.913 -4678.948)" fill="#c9a899"/>
        <path id="Path_3014" data-name="Path 3014" d="M293.568,4760.975c5.372,4.7,6.087,11.074,11.175,15.214-2.089-.192-4.177,2.405-4.424,3.926-7.323-5.593-9.888-6.206-14.226-13.122-1.246-2.051-3.472-3.806-4.273-5.166-5.9-10,.545-3.11,4.044-7.141a14.055,14.055,0,0,0,4.182-1.476,39.736,39.736,0,0,1,3.522,7.769Z" transform="translate(-239.015 -4710.188)" fill="#f0c8b6"/>
        <path id="Path_3015" data-name="Path 3015" d="M262.629,4706.77c-11.986,5.958,6.957,28.809,7.122,30.687,1.663,3.26,11.249-3.18,10.8-7.278-1.47-3-2.9-5.661-6.76-12.856C270.058,4708.871,266.6,4704.943,262.629,4706.77Z" transform="translate(-227.756 -4684.781)" fill="#f58834"/>
        <path id="Path_3016" data-name="Path 3016" d="M225.881,4712.81s1.69,2.484-1.282,4.141c-3.925,2.532-12.49-5.5-12.49-5.5l-2.982,2.758-.742,1.57-2.931,1.938-3,2.41s5.734,23.953,5.611,25.986,6.027,6.91,3.179,15.15c-.93,1.668,4.557,8.7,12.861,7.686-.669-3.5,2.78-4.84,4.85-5.972a59.366,59.366,0,0,0,9.7-6.72s2.638-25.246,2.638-30.764c0-10.591-11.849-17.7-11.849-17.7l-3.554,5.016Z" transform="translate(-197.292 -4685.572)" fill="#f89f3a"/>
        <path id="Path_3017" data-name="Path 3017" d="M241.805,4700.071c14.72,4.818,15.632,17.5,15.632,17.5l-2.908,2.011a23.077,23.077,0,0,0-17.409-17.418c.009-.975,3.572-1.81,4.685-2.087Z" transform="translate(-216.083 -4681.388)" fill="#334557"/>
        <path id="Path_3018" data-name="Path 3018" d="M237.107,4781.623c4.708-12.458-.627-35.3-.627-35.3s14.51-5.937,21.316-13.2c3.137,13.46.366,36.241.366,36.241l-2.844,4.79-8.478,7.265S235.843,4785.745,237.107,4781.623Z" transform="translate(-215.737 -4699.301)" fill="#334557"/>
        <path id="Path_3019" data-name="Path 3019" d="M212.678,4721.8c11.991,4.507,15.439,17.259,15.439,17.259l-4.713,1.851s-1.589-13.272-14.4-15.595c.018-.972,2.565-3.234,3.673-3.509Z" transform="translate(-200.842 -4693.165)" fill="#334557"/>
        <path id="Path_3020" data-name="Path 3020" d="M243.962,4667.4c6.027,5.165,4,12.848,4,12.848s-1.608,10.7-2.611,11.807a7.694,7.694,0,0,1-4,1.763c-2.02.192-7.933-4.566-8.945-5.816a8.271,8.271,0,0,1-1.305-3.44,7.1,7.1,0,0,1-3.751-5.056,9.63,9.63,0,0,1,0-4.878l2.592-5.665,5.5-3.408h4.484a31.454,31.454,0,0,1,4.04,1.841Z" transform="translate(-210.628 -4662.678)" fill="#f0c8b6"/>
        <path id="Path_3021" data-name="Path 3021" d="M226.111,4676.107s.389-3.175,2.249-1.214a9.834,9.834,0,0,1,1.589,2.335c.678,1.1,2.226,2.25,2.647,1.806s1.4-5.107.9-6.705-2.762-2.963-.857-5.088,8.652,4.162,11.1,1.763c1.685-1.824-3.916-14.7-14.523-7.612-7.662,5.115-3.11,14.721-3.11,14.721Z" transform="translate(-209.389 -4659.278)" fill="#664730"/>
        <path id="Path_3022" data-name="Path 3022" d="M266.033,4999.676c2.881,4.031,10.9,4.319,13.955,8.141.98,1.1,1.012,4.341-.65,5.115-5,1.213-13.328-3.1-13.328-3.1s-9.6-.546-10.635-2.13c-1.305-2.012-.948-7.227-.948-7.227S265.268,4998.583,266.033,4999.676Z" transform="translate(-225.44 -4843.588)" fill="#664730"/>
        <path id="Path_3023" data-name="Path 3023" d="M264.867,4836.362c2.89,17.921.705,37.6.673,42.855-1.667,14.078-.229,28.527-.124,32.239.082,3.081-14.436,6.142-15.737.672-.93-6.127.156-21.892,2.459-30.722.9-3.454-5.409-31.689-5.409-31.689S264.51,4832.781,264.867,4836.362Z" transform="translate(-221.292 -4754.988)" fill="#2d3542"/>
        <path id="Path_3024" data-name="Path 3024" d="M206.383,5021.54c-.192,1.968,3.957,9.97,2.487,12.344-1.333,2.143-6.128,1.286-8.748-.761s-3.572-7.421-3.572-10.9c0-2.45.238-5.017.238-5.017l9.5.766A14.636,14.636,0,0,1,206.383,5021.54Z" transform="translate(-194.095 -4853.275)" fill="#664730"/>
        <path id="Path_3025" data-name="Path 3025" d="M234.3,4812.25s-13.841,10.4-19.355,10.118a15.147,15.147,0,0,1-10.722-5.575,53.105,53.105,0,0,0-4.127,9.087c-1.021,3.646-1.113,37.707-2.913,42.479s-2.885,6.972-3.746,10.618-1.3,24.489-.719,30.311,12.54,4.653,13.868.356c-.38-15.169-.856-29.229,2.23-34.085,4.278-6.736,10.25-35.691,10.626-36.736,7.736-3.984,16.007-13.784,16.007-15.257a89.118,89.118,0,0,0-1.15-11.307Z" transform="translate(-191.876 -4742.188)" fill="#334557"/>
        <path id="Path_3026" data-name="Path 3026" d="M323.878,5098.018l-.4.238.724-4.049-3.069-1.773.412-.233,3.064,1.773Z" transform="translate(-261.616 -4893.92)" fill="#bb6839"/>
        <path id="Path_3027" data-name="Path 3027" d="M323.475,5098.531l-1.621-.93-.724-4.892,3.069,1.773Z" transform="translate(-261.616 -4894.196)" fill="#bb6839"/>
        <path id="Path_3028" data-name="Path 3028" d="M320.4,5102.162c0,1.534-1.072,2.147-2.4,1.384a5.309,5.309,0,0,1-2.4-4.159c0-1.529,1.076-2.147,2.4-1.384A5.307,5.307,0,0,1,320.4,5102.162Z" transform="translate(-258.619 -4896.888)" fill="#525252"/>
        <path id="Path_3029" data-name="Path 3029" d="M323.445,5099.4a5.313,5.313,0,0,0-2.4-4.159,1.708,1.708,0,0,0-1.667-.184l-2.208,1.273a1.691,1.691,0,0,1,1.685.174,5.307,5.307,0,0,1,2.4,4.159,1.711,1.711,0,0,1-.646,1.516l2.185-1.259a1.736,1.736,0,0,0,.655-1.526Z" transform="translate(-259.47 -4895.393)" fill="#414242"/>
        <path id="Path_3030" data-name="Path 3030" d="M320.538,5102.825c0,1.085-.765,1.526-1.7.984a3.792,3.792,0,0,1-1.7-2.949c0-1.085.769-1.529,1.7-.984A3.779,3.779,0,0,1,320.538,5102.825Z" transform="translate(-259.449 -4897.955)" fill="#55c2b9"/>
        <path id="Path_3031" data-name="Path 3031" d="M317.6,5101.444a3.3,3.3,0,0,0,1.489,2.572.972.972,0,0,0,1.172.019,1.032,1.032,0,0,1-1.072-.095,3.283,3.283,0,0,1-1.488-2.579,1.14,1.14,0,0,1,.316-.87A1.059,1.059,0,0,0,317.6,5101.444Z" transform="translate(-259.703 -4898.415)" fill="#27857a"/>
        <path id="Path_3032" data-name="Path 3032" d="M317.82,5101.23a3.293,3.293,0,0,0,1.489,2.579,1.03,1.03,0,0,0,1.072.1h0a1.15,1.15,0,0,0,.311-.871,3.278,3.278,0,0,0-1.489-2.579,1.032,1.032,0,0,0-1.072-.095A1.13,1.13,0,0,0,317.82,5101.23Z" transform="translate(-259.823 -4898.284)" fill="#27a9a1"/>
        <path id="Path_3033" data-name="Path 3033" d="M318.76,5102.466a2.14,2.14,0,0,0,.957,1.663c.375.216.705.151.856-.124a.687.687,0,0,1-.646-.087,2.111,2.111,0,0,1-.957-1.656l.1-.432A.672.672,0,0,0,318.76,5102.466Z" transform="translate(-260.332 -4899.14)" fill="#494848"/>
        <path id="Path_3034" data-name="Path 3034" d="M319.22,5102.2a2.113,2.113,0,0,0,.957,1.658.671.671,0,0,0,.646.087l.105-.436a2.119,2.119,0,0,0-.957-1.658.672.672,0,0,0-.651-.082l-.1.431Z" transform="translate(-260.581 -4899.077)" fill="#7d7d7e"/>
        <path id="Path_3035" data-name="Path 3035" d="M319.467,5100.572l-.412.233.724-4.044-3.069-1.772.412-.238,3.064,1.769Z" transform="translate(-259.221 -4895.303)" fill="#bb6839"/>
        <path id="Path_3036" data-name="Path 3036" d="M319.055,5101.085l-1.617-.932-.728-4.884,3.069,1.772Z" transform="translate(-259.221 -4895.584)" fill="#f58834"/>
        <path id="Path_3037" data-name="Path 3037" d="M319.927,5104.317c-.082.2-.284.252-.513.121a1.226,1.226,0,0,1-.554-.953c0-.221.092-.357.238-.395l-.037.206a1.238,1.238,0,0,0,.559.958l.311.063Z" transform="translate(-260.386 -4899.823)" fill="#bb6839"/>
        <path id="Path_3038" data-name="Path 3038" d="M320.2,5104.121l-.028.2-.311-.062a1.238,1.238,0,0,1-.559-.958l.037-.206h0l.312.069a1.223,1.223,0,0,1,.545.956Z" transform="translate(-260.625 -4899.823)" fill="#f89f3a"/>
        <path id="Path_3039" data-name="Path 3039" d="M325.842,5095.6l-2.432,1.407v-.4l2.432-1.4Z" transform="translate(-262.852 -4895.551)" fill="#bb6839"/>
        <path id="Path_3040" data-name="Path 3040" d="M319.779,5096.57l-3.069-1.772v-.4l3.069,1.772Z" transform="translate(-259.221 -4895.113)" fill="#f58834"/>
        <path id="Path_3041" data-name="Path 3041" d="M322.211,5093.113l-2.432,1.4-3.069-1.773,2.437-1.4Z" transform="translate(-259.221 -4893.454)" fill="#f58834"/>
        <path id="Path_3042" data-name="Path 3042" d="M400.623,5053.71l-.408.234.719-4.049-3.064-1.768.408-.238,3.064,1.772Z" transform="translate(-303.209 -4869.904)" fill="#bb6839"/>
        <path id="Path_3043" data-name="Path 3043" d="M400.215,5054.226l-1.626-.929-.719-4.888,3.064,1.77Z" transform="translate(-303.209 -4870.187)" fill="#bb6839"/>
        <path id="Path_3044" data-name="Path 3044" d="M397.15,5057.851c0,1.531-1.076,2.149-2.4,1.388a5.306,5.306,0,0,1-2.4-4.157c0-1.531,1.076-2.153,2.4-1.389A5.313,5.313,0,0,1,397.15,5057.851Z" transform="translate(-300.217 -4872.872)" fill="#525252"/>
        <path id="Path_3045" data-name="Path 3045" d="M400.189,5055.092a5.306,5.306,0,0,0-2.4-4.159,1.709,1.709,0,0,0-1.667-.183l-2.208,1.272a1.705,1.705,0,0,1,1.685.175,5.313,5.313,0,0,1,2.4,4.158,1.71,1.71,0,0,1-.646,1.516v0l2.185-1.264a1.715,1.715,0,0,0,.659-1.526Z" transform="translate(-301.063 -4871.377)" fill="#414242"/>
        <path id="Path_3046" data-name="Path 3046" d="M397.278,5058.514c0,1.085-.76,1.525-1.7.985a3.777,3.777,0,0,1-1.7-2.951c0-1.084.765-1.528,1.7-.983A3.76,3.76,0,0,1,397.278,5058.514Z" transform="translate(-301.041 -4873.938)" fill="#55c2b9"/>
        <path id="Path_3047" data-name="Path 3047" d="M394.335,5057.134a3.283,3.283,0,0,0,1.484,2.574.968.968,0,0,0,1.173.018,1.024,1.024,0,0,1-1.072-.1,3.275,3.275,0,0,1-1.489-2.578,1.136,1.136,0,0,1,.316-.871,1.051,1.051,0,0,0-.417.953Z" transform="translate(-301.291 -4874.397)" fill="#27857a"/>
        <path id="Path_3048" data-name="Path 3048" d="M394.56,5056.93a3.283,3.283,0,0,0,1.489,2.579,1.025,1.025,0,0,0,1.072.095h0a1.116,1.116,0,0,0,.316-.873,3.284,3.284,0,0,0-1.489-2.574,1.024,1.024,0,0,0-1.067-.1h0a1.137,1.137,0,0,0-.316.87Z" transform="translate(-301.415 -4874.272)" fill="#27a9a1"/>
        <path id="Path_3049" data-name="Path 3049" d="M395.5,5058.167a2.128,2.128,0,0,0,.957,1.662c.376.217.705.155.857-.12a.668.668,0,0,1-.641-.086,2.11,2.11,0,0,1-.962-1.662l.1-.43a.673.673,0,0,0-.307.641Z" transform="translate(-301.925 -4875.13)" fill="#494848"/>
        <path id="Path_3050" data-name="Path 3050" d="M395.95,5057.89a2.1,2.1,0,0,0,.962,1.661.678.678,0,0,0,.641.087l.105-.44a2.119,2.119,0,0,0-.957-1.657.68.68,0,0,0-.65-.087l-.1.43Z" transform="translate(-302.169 -4875.061)" fill="#7d7d7e"/>
        <path id="Path_3051" data-name="Path 3051" d="M396.207,5056.267l-.417.234.728-4.05-3.069-1.767.412-.233,3.064,1.772Z" transform="translate(-300.814 -4871.293)" fill="#bb6839"/>
        <path id="Path_3052" data-name="Path 3052" d="M395.79,5056.777l-1.612-.935-.728-4.882,3.069,1.769Z" transform="translate(-300.814 -4871.568)" fill="#f58834"/>
        <path id="Path_3053" data-name="Path 3053" d="M396.667,5060.011c-.083.2-.284.249-.513.116a1.215,1.215,0,0,1-.554-.952c0-.222.092-.357.238-.395l-.032.205a1.238,1.238,0,0,0,.554.958l.311.067Z" transform="translate(-301.979 -4875.808)" fill="#bb6839"/>
        <path id="Path_3054" data-name="Path 3054" d="M396.938,5059.811l-.032.2-.311-.068a1.229,1.229,0,0,1-.554-.958l.032-.206h0l.311.069a1.234,1.234,0,0,1,.545.956Z" transform="translate(-302.217 -4875.807)" fill="#f89f3a"/>
        <path id="Path_3055" data-name="Path 3055" d="M402.577,5051.293l-2.427,1.4v-.393l2.427-1.4Z" transform="translate(-304.445 -4871.536)" fill="#bb6839"/>
        <path id="Path_3056" data-name="Path 3056" d="M396.519,5052.262l-3.069-1.768v-.394l3.069,1.77Z" transform="translate(-300.814 -4871.103)" fill="#f58834"/>
        <path id="Path_3057" data-name="Path 3057" d="M398.946,5048.81l-2.427,1.4-3.069-1.768,2.432-1.4Z" transform="translate(-300.814 -4869.444)" fill="#f58834"/>
        <path id="Path_3058" data-name="Path 3058" d="M270.073,5066.947l-.4.233.724-4.049-3.073-1.772.412-.229,3.064,1.768Z" transform="translate(-232.452 -4877.082)" fill="#bb6839"/>
        <path id="Path_3059" data-name="Path 3059" d="M269.67,5067.451l-1.621-.935-.728-4.886,3.073,1.771Z" transform="translate(-232.452 -4877.353)" fill="#bb6839"/>
        <path id="Path_3060" data-name="Path 3060" d="M266.594,5071.077c0,1.528-1.076,2.147-2.4,1.383a5.313,5.313,0,0,1-2.4-4.157c0-1.53,1.076-2.154,2.4-1.389a5.306,5.306,0,0,1,2.4,4.158Z" transform="translate(-229.454 -4880.039)" fill="#525252"/>
        <path id="Path_3061" data-name="Path 3061" d="M269.645,5068.31a5.31,5.31,0,0,0-2.4-4.158,1.708,1.708,0,0,0-1.663-.189l-2.208,1.279a1.678,1.678,0,0,1,1.676.173,5.309,5.309,0,0,1,2.4,4.159,1.715,1.715,0,0,1-.65,1.521l2.185-1.269a1.71,1.71,0,0,0,.659-1.521Z" transform="translate(-230.311 -4878.54)" fill="#414242"/>
        <path id="Path_3062" data-name="Path 3062" d="M266.738,5071.732c0,1.091-.76,1.526-1.708.985a3.786,3.786,0,0,1-1.7-2.952c0-1.083.765-1.526,1.7-.981A3.769,3.769,0,0,1,266.738,5071.732Z" transform="translate(-230.289 -4881.103)" fill="#55c2b9"/>
        <path id="Path_3063" data-name="Path 3063" d="M263.8,5070.362a3.292,3.292,0,0,0,1.484,2.575.981.981,0,0,0,1.173.022,1.05,1.05,0,0,1-1.072-.1,3.29,3.29,0,0,1-1.484-2.578,1.146,1.146,0,0,1,.316-.875A1.064,1.064,0,0,0,263.8,5070.362Z" transform="translate(-230.544 -4881.568)" fill="#27857a"/>
        <path id="Path_3064" data-name="Path 3064" d="M264.015,5070.161a3.307,3.307,0,0,0,1.484,2.578,1.052,1.052,0,0,0,1.072.1v0a1.135,1.135,0,0,0,.316-.872,3.294,3.294,0,0,0-1.493-2.577,1.038,1.038,0,0,0-1.063-.1h0a1.15,1.15,0,0,0-.316.876Z" transform="translate(-230.658 -4881.443)" fill="#27a9a1"/>
        <path id="Path_3065" data-name="Path 3065" d="M264.96,5071.4a2.144,2.144,0,0,0,.953,1.659c.38.215.71.155.861-.124a.689.689,0,0,1-.641-.083,2.112,2.112,0,0,1-.962-1.658l.1-.43a.675.675,0,0,0-.3.642Z" transform="translate(-231.173 -4882.3)" fill="#494848"/>
        <path id="Path_3066" data-name="Path 3066" d="M265.4,5071.133a2.13,2.13,0,0,0,.962,1.659.677.677,0,0,0,.641.081l.105-.43a2.118,2.118,0,0,0-.966-1.662.7.7,0,0,0-.65-.079l-.1.431Z" transform="translate(-231.411 -4882.243)" fill="#7d7d7e"/>
        <path id="Path_3067" data-name="Path 3067" d="M265.667,5069.487l-.417.239.728-4.05-3.069-1.771.408-.234,3.069,1.772Z" transform="translate(-230.062 -4878.458)" fill="#bb6839"/>
        <path id="Path_3068" data-name="Path 3068" d="M265.25,5070l-1.617-.934-.724-4.888,3.069,1.772Z" transform="translate(-230.062 -4878.734)" fill="#f58834"/>
        <path id="Path_3069" data-name="Path 3069" d="M266.127,5073.242c-.078.2-.279.252-.518.118a1.234,1.234,0,0,1-.55-.951c0-.22.092-.356.234-.389l-.037.2a1.225,1.225,0,0,0,.554.956l.311.069Z" transform="translate(-231.227 -4882.984)" fill="#bb6839"/>
        <path id="Path_3070" data-name="Path 3070" d="M266.393,5073.036l-.027.2-.311-.069a1.224,1.224,0,0,1-.554-.957l.037-.2h0l.311.068A1.228,1.228,0,0,1,266.393,5073.036Z" transform="translate(-231.465 -4882.978)" fill="#f89f3a"/>
        <path id="Path_3071" data-name="Path 3071" d="M272.037,5064.519l-2.427,1.4v-.391l2.427-1.411Z" transform="translate(-233.693 -4878.701)" fill="#bb6839"/>
        <path id="Path_3072" data-name="Path 3072" d="M265.979,5065.491l-3.069-1.772v-.388l3.069,1.771Z" transform="translate(-230.062 -4878.274)" fill="#f58834"/>
        <path id="Path_3073" data-name="Path 3073" d="M268.406,5062.03l-2.427,1.41-3.069-1.773,2.432-1.406Z" transform="translate(-230.062 -4876.61)" fill="#f58834"/>
        <path id="Path_3074" data-name="Path 3074" d="M290.619,4856.381,262.91,4840.37l37.57-21.7,27.714,16.008Z" transform="translate(-230.062 -4745.669)" fill="#f89f3a"/>
        <path id="Path_3075" data-name="Path 3075" d="M323.41,4965.671v-90.346l37.575-21.7v90.354Z" transform="translate(-262.852 -4764.612)" fill="#bb6839"/>
        <path id="Path_3076" data-name="Path 3076" d="M361.9,4951.96v29.592l-27.686,15.989v-1.095l26.633-15.367v-28.516Z" transform="translate(-268.706 -4817.911)" fill="#4f4f50"/>
        <path id="Path_3077" data-name="Path 3077" d="M360.843,4953.281V4981.8l-26.633,15.366v-28.493Z" transform="translate(-268.706 -4818.627)" fill="#373737"/>
        <path id="Path_3078" data-name="Path 3078" d="M346.368,4986.548l2.4,1.389-.485.907.014.21a6.481,6.481,0,0,1-2.762,5.157l-.183.1-.49.912-2.432-1.407a2.057,2.057,0,0,1-.916-1.864,6.45,6.45,0,0,1,2.766-5.152,2.021,2.021,0,0,1,2.079-.253Z" transform="translate(-272.665 -4836.556)" fill="#27a9a1"/>
        <path id="Path_3079" data-name="Path 3079" d="M349.485,4989.8a6.483,6.483,0,0,0-2.757,5.153c.06,1.864,1.392,2.578,2.977,1.6a6.474,6.474,0,0,0,2.762-5.158c-.06-1.863-1.392-2.573-2.977-1.592Z" transform="translate(-275.489 -4838.18)" fill="#27857a"/>
        <path id="Path_3080" data-name="Path 3080" d="M346.368,5013.354l2.4,1.389-.485.907.014.215a6.473,6.473,0,0,1-2.762,5.152l-.183.1-.49.911-2.432-1.405a2.055,2.055,0,0,1-.916-1.86,6.436,6.436,0,0,1,2.766-5.152,2.016,2.016,0,0,1,2.079-.251Z" transform="translate(-272.665 -4851.087)" fill="#27a9a1"/>
        <path id="Path_3081" data-name="Path 3081" d="M349.485,5016.6a6.464,6.464,0,0,0-2.757,5.146c.06,1.865,1.392,2.579,2.977,1.6a6.463,6.463,0,0,0,2.762-5.152c-.06-1.854-1.392-2.574-2.977-1.589Z" transform="translate(-275.489 -4852.711)" fill="#27857a"/>
        <path id="Path_3082" data-name="Path 3082" d="M290.619,4972.409l-27.709-16V4866.05l27.709,16.012Z" transform="translate(-230.062 -4771.348)" fill="#f58834"/>
        <path id="Path_3083" data-name="Path 3083" d="M337.687,4911.745l-3.247-1.879,4.406-2.546,3.243,1.878Z" transform="translate(-268.83 -4793.716)" fill="#55c2b9"/>
        <path id="Path_3084" data-name="Path 3084" d="M341.49,4933.408l.018-19.44,4.4-2.547-.014,19.443Z" transform="translate(-272.652 -4795.94)" fill="#27857a"/>
        <path id="Path_3085" data-name="Path 3085" d="M337.647,4934.2l-3.247-1.875.018-19.445,3.247,1.878Z" transform="translate(-268.809 -4796.729)" fill="#27a9a1"/>
        <path id="Path_3086" data-name="Path 3086" d="M362.937,4897.181l-3.247-1.879,4.4-2.542,3.252,1.874Z" transform="translate(-282.516 -4785.826)" fill="#55c2b9"/>
        <path id="Path_3087" data-name="Path 3087" d="M366.74,4918.839l.018-19.441,4.406-2.547-.018,19.447Z" transform="translate(-286.337 -4788.042)" fill="#27857a"/>
        <path id="Path_3088" data-name="Path 3088" d="M362.9,4919.631l-3.247-1.878.018-19.442,3.247,1.878Z" transform="translate(-282.494 -4788.833)" fill="#27a9a1"/>
        <path id="Path_3089" data-name="Path 3089" d="M260.93,4912.745v8.871l-10.42-6.014,0-8.871Z" transform="translate(-223.341 -4793.398)" fill="#e33439"/>
        <path id="Path_3090" data-name="Path 3090" d="M275.225,4894.785l-14.29,8.226L250.52,4897l14.29-8.226Z" transform="translate(-223.346 -4783.664)" fill="#f89f3a"/>
        <path id="Path_3091" data-name="Path 3091" d="M287.55,4901.9v8.873L273.26,4919v-8.871Z" transform="translate(-235.671 -4790.778)" fill="#bb6839"/>
        <path id="Path_3092" data-name="Path 3092" d="M213.431,4938.345l0,10.631-12.476-7.205V4931.14Z" transform="translate(-196.479 -4806.626)" fill="#373737"/>
        <path id="Path_3093" data-name="Path 3093" d="M236.725,4909.109,213.431,4922.5l-12.481-7.2,23.289-13.393Z" transform="translate(-196.479 -4790.778)" fill="#4f4f50"/>
        <path id="Path_3094" data-name="Path 3094" d="M251.489,4917.641l0,10.626-23.294,13.392,0-10.63Z" transform="translate(-211.243 -4799.311)" fill="#2c2c2d"/>
        <path id="Path_3095" data-name="Path 3095" d="M255.374,4913.589v-1.631l-.6-.023-.105-.068a3.8,3.8,0,0,0-3.435-.109l-.105.064-.6-.018v1.652a1.211,1.211,0,0,0,.678,1.013,3.8,3.8,0,0,0,3.435.109A1.2,1.2,0,0,0,255.374,4913.589Z" transform="translate(-223.345 -4795.927)" fill="#e33439"/>
        <path id="Path_3096" data-name="Path 3096" d="M254.627,4911.921a3.811,3.811,0,0,1-3.435-.108,1.046,1.046,0,0,1,.064-1.983,3.812,3.812,0,0,1,3.435.109A1.046,1.046,0,0,1,254.627,4911.921Z" transform="translate(-223.34 -4794.883)" fill="#ef4d57"/>
        <path id="Path_3097" data-name="Path 3097" d="M240.254,4922.285v-1.631l-.6-.018-.105-.07a3.808,3.808,0,0,0-3.435-.109l-.105.063-.6-.018v1.649a1.2,1.2,0,0,0,.682,1.016,3.806,3.806,0,0,0,3.43.106A1.2,1.2,0,0,0,240.254,4922.285Z" transform="translate(-215.15 -4800.644)" fill="#bb6839"/>
        <path id="Path_3098" data-name="Path 3098" d="M239.516,4920.6a3.793,3.793,0,0,1-3.43-.108,1.049,1.049,0,0,1,.06-1.984,3.815,3.815,0,0,1,3.435.109A1.049,1.049,0,0,1,239.516,4920.6Z" transform="translate(-215.154 -4799.587)" fill="#f58834"/>
        <path id="Path_3099" data-name="Path 3099" d="M224.58,4931.375v-1.631l-.6-.018-.1-.069a3.8,3.8,0,0,0-3.43-.111l-.11.065-.6-.023v1.653a1.207,1.207,0,0,0,.678,1.014,3.815,3.815,0,0,0,3.435.108A1.187,1.187,0,0,0,224.58,4931.375Z" transform="translate(-206.657 -4805.57)" fill="#27a9a1"/>
        <path id="Path_3100" data-name="Path 3100" d="M223.839,4929.7a3.8,3.8,0,0,1-3.435-.109,1.046,1.046,0,0,1,.064-1.982,3.8,3.8,0,0,1,3.435.1,1.048,1.048,0,0,1-.06,1.983Z" transform="translate(-206.654 -4804.515)" fill="#55c2b9"/>
        <path id="Path_3101" data-name="Path 3101" d="M234.915,4949.531l-1.635-.949,2.221-1.281,1.64.947Z" transform="translate(-214.002 -4815.386)" fill="#55c2b9"/>
        <path id="Path_3102" data-name="Path 3102" d="M236.83,4955.43l.009-4.776,2.226-1.284-.009,4.777Z" transform="translate(-215.926 -4816.506)" fill="#27857a"/>
        <path id="Path_3103" data-name="Path 3103" d="M234.9,4955.825l-1.635-.943.009-4.781,1.635.947Z" transform="translate(-213.991 -4816.903)" fill="#27a9a1"/>
        <path id="Path_3104" data-name="Path 3104" d="M253.025,4939.078l-1.635-.943,2.221-1.284,1.635.944Z" transform="translate(-223.818 -4809.722)" fill="#f89f3a"/>
        <path id="Path_3105" data-name="Path 3105" d="M254.94,4944.979l.009-4.786,2.221-1.282-.009,4.782Z" transform="translate(-225.742 -4810.838)" fill="#bb6839"/>
        <path id="Path_3106" data-name="Path 3106" d="M253.005,4945.379l-1.635-.952.009-4.777,1.635.943Z" transform="translate(-223.807 -4811.238)" fill="#f58834"/>
        <path id="Path_3107" data-name="Path 3107" d="M271.13,4928.627l-1.64-.943,2.221-1.283,1.64.943Z" transform="translate(-233.628 -4804.058)" fill="#ef4d57"/>
        <path id="Path_3108" data-name="Path 3108" d="M273.04,4934.52l.014-4.777,2.221-1.281-.014,4.782Z" transform="translate(-235.552 -4805.175)" fill="#a03935"/>
        <path id="Path_3109" data-name="Path 3109" d="M271.105,4934.921l-1.635-.944.009-4.776,1.64.944Z" transform="translate(-233.617 -4805.576)" fill="#e33439"/>
        <path id="Path_3110" data-name="Path 3110" d="M282.89,4845.821c.371,1.4-1.154,4.393-4.868,4.482-2.505.069-3.252-1.612-6.027-2.216s-5.189.1-8.849-2.506c-1.869-.884.3-5.01,3.238-5.587,2.336.581,7.8-1.7,11.1-.151.943.443,4.708,3.348,5.4,5.98Z" transform="translate(-229.812 -4756.849)" fill="#96989b"/>
        <path id="Path_3111" data-name="Path 3111" d="M213.907,4802.249c7.291,2.6,13.955,8.372,20.363,11.253-3.046.929-3.238,5.587-3.238,5.587-3.549-2.44-23.528-3.2-26.853-14.688-.366-5.279-1.076-10.258-.971-12.009.311-5.056,2.359,1.347,6.659,0,1.676.771,3.078-1.071,3.742.89.417,1.222-.124,4.566.3,8.963Z" transform="translate(-197.697 -4730.354)" fill="#f0c8b6"/>
        <path id="Path_3112" data-name="Path 3112" d="M197.963,4733.486c-12.92,3.082-3.49,31.29-2.931,34.388.481,3.631,12.751,2.179,13.7-1.834a97.713,97.713,0,0,0-3.522-18.429c1.951-7.906-5.061-14.405-7.25-14.121Z" transform="translate(-191.189 -4699.496)" fill="#f58834"/>
        <path id="Path_3113" data-name="Path 3113" d="M337.92,4817.2c-4.163,1.118-3.742-5.33-6.4-4.919-1.841.284.664,5.075-.568,5.107-2.505.06-2.853-3.175-3.394-3.839-1.786-2.2-1.4-4.282-2.51-6.256a4.18,4.18,0,0,1,4.424-3.925c2.047,1.455,4.818,2.408,7.759,5.262,1.905,1.394,2.565,8.062.692,8.566Z" transform="translate(-263.741 -4737.373)" fill="#96989b"/>
        <path id="Path_3114" data-name="Path 3114" d="M320.619,4862.807l25.52-14.734.183-.283,0,0,.06-2.253-.884.074.037.191-8-4.626a1.013,1.013,0,0,0-.921,0L311.7,4855.557l-.788-.261-.064,2.235v.009h0l.192.258,8.656,5.006a1.031,1.031,0,0,0,.921,0Z" transform="translate(-256.045 -4757.804)" fill="#2c2c2d"/>
        <path id="Path_3115" data-name="Path 3115" d="M311.182,4853.974l25.511-14.733a1.029,1.029,0,0,1,.925,0l8.661,5a.284.284,0,0,1,0,.535l-25.515,14.733a1.029,1.029,0,0,1-.925,0l-8.656-5.007C310.926,4854.354,310.926,4854.12,311.182,4853.974Z" transform="translate(-256.121 -4756.758)" fill="#4f4f50"/>
        <path id="Path_3116" data-name="Path 3116" d="M287.792,4767.464l43.675-25.22a.541.541,0,0,1,.586-.036l3.4,1.842-.87,1.25-.252-.22v29.7a1.749,1.749,0,0,1-.788,1.37L290.9,4800.769l-.289,1.393-3.366-1.818-.014,0,0,0a.558.558,0,0,1-.224-.51v-31a1.738,1.738,0,0,1,.8-1.37Z" transform="translate(-243.118 -4704.188)" fill="#4f4f50"/>
        <path id="Path_3117" data-name="Path 3117" d="M295.188,4804.282l43.675-25.219a1.741,1.741,0,0,0,.792-1.369v-31c0-.5-.357-.709-.792-.458l-43.675,25.218a1.732,1.732,0,0,0-.788,1.376v31c0,.5.353.705.788.458Z" transform="translate(-247.129 -4706.35)" fill="#2c2c2d"/>
        <path id="Path_3118" data-name="Path 3118" d="M347.151,4807.772l-14.674,8.47-2-.953,14.67-8.469Z" transform="translate(-266.684 -4739.245)" fill="#4f4f50"/>
        <path id="Path_3119" data-name="Path 3119" d="M348.956,4808.9v20.053l-14.67,8.468-.476-8.216.472-11.835Z" transform="translate(-268.489 -4740.372)" fill="#2c2c2d"/>
        <path id="Path_3120" data-name="Path 3120" d="M332.477,4826.263l0,20.051-2-1.12,0-19.884Z" transform="translate(-266.684 -4749.267)" fill="#373737"/>
      </g>
    </g>
  </g>
</svg>
