<svg id="g578" xmlns="http://www.w3.org/2000/svg" width="20.699" height="12.883" viewBox="0 0 20.699 12.883">
  <rect id="rect124" width="20.699" height="12.883" fill="#006"/>
  <g id="g584">
    <path id="path146" d="M0,0V1.44L18.385,12.883H20.7v-1.44L2.314,0H0ZM20.7,0V1.44L2.314,12.883H0v-1.44L18.385,0Z" fill="#fff"/>
    <path id="path136" d="M8.625,0V12.883h3.45V0ZM0,4.294V8.589H20.7V4.294Z" fill="#fff"/>
    <path id="path141" d="M0,5.153V7.73H20.7V5.153ZM9.315,0V12.883h2.07V0Z" fill="#c00"/>
    <path id="path150" d="M0,12.883,6.9,8.589H8.442l-6.9,4.294ZM0,0,6.9,4.294H5.357L0,.96V0ZM12.257,4.294,19.156,0H20.7L13.8,4.294ZM20.7,12.883,13.8,8.589h1.543L20.7,11.923Z" fill="#c00"/>
  </g>
</svg>
