<svg xmlns="http://www.w3.org/2000/svg" width="25.188" height="25.188" viewBox="0 0 25.188 25.188">
  <path id="Icon_awesome-facebook-square" data-name="Icon awesome-facebook-square" d="M22.49,2.25H2.7A2.7,2.7,0,0,0,0,4.949V24.74a2.7,2.7,0,0,0,2.7,2.7h7.717V18.875H6.873V14.844h3.542V11.772c0-3.494,2.08-5.425,5.267-5.425A21.459,21.459,0,0,1,18.8,6.62v3.43H17.046a2.015,2.015,0,0,0-2.273,2.178v2.617H18.64l-.618,4.031H14.773v8.564H22.49a2.7,2.7,0,0,0,2.7-2.7V4.949A2.7,2.7,0,0,0,22.49,2.25Z" transform="translate(0 -2.25)" fill="#fafafa"/>
</svg>
