<svg xmlns="http://www.w3.org/2000/svg" width="299.299" height="228.64" viewBox="0 0 299.299 228.64">
  <g id="Group_10404" data-name="Group 10404" transform="translate(-844 -720.68)">
    <g id="Group_10398" data-name="Group 10398" transform="translate(9036.028 -9543.63)">
      <path id="Path_8961" data-name="Path 8961" d="M242.753,83.549c8.9-53.138-156.88-124.869-216.2-74.778C-98.661,114.482,224.528,192.412,242.753,83.549Z" transform="translate(-8157.464 10272.496)" fill="#c5dfdc" fill-rule="evenodd"/>
      <path id="Path_8962" data-name="Path 8962" d="M50.677,134.6C88.03,231.525,257.766,194.985,280,149.727c46.117-93.9-21.744-107.943-76.755-130.493C110.5-23.32,10.724-17.245-.86,31.521c-17.793,74.9,44.918,54.848,51.547,103.076Z" transform="translate(-8188.002 10297.173)" fill="#00f3bb" fill-rule="evenodd"/>
    </g>
    <g id="Group_10399" data-name="Group 10399" transform="translate(9403.604 -9543.63)">
      <g id="Group_8656" data-name="Group 8656" transform="translate(-1758.478 -5586.786)">
        <g id="Group_8616" data-name="Group 8616" transform="translate(-6658.455 15864.786)">
          <path id="Path_8763" data-name="Path 8763" d="M277.237,368.25H175.244a2.86,2.86,0,0,0-2.854,2.854v14.178H280.08V371.1a2.86,2.86,0,0,0-2.854-2.854Z" transform="translate(-172.39 -368.25)" fill="#004747" fill-rule="evenodd"/>
          <path id="Path_8764" data-name="Path 8764" d="M278.287,561.071H174.122a1.733,1.733,0,0,1-1.722-1.722V382.99H280.009V559.349a1.726,1.726,0,0,1-1.722,1.722Z" transform="translate(-172.388 -365.958)" fill="#fefefe" fill-rule="evenodd"/>
          <path id="Path_8765" data-name="Path 8765" d="M205.565,372.15a3.767,3.767,0,1,0,3.767,3.767,3.767,3.767,0,0,0-3.767-3.767Zm-20.348,0a3.767,3.767,0,1,0,3.767,3.767,3.767,3.767,0,0,0-3.767-3.767Zm10.18,0a3.767,3.767,0,1,0,3.767,3.767,3.767,3.767,0,0,0-3.767-3.767Z" transform="translate(-170.981 -367.644)" fill="#8d8d8d" fill-rule="evenodd"/>
          <g id="Group_8615" data-name="Group 8615" transform="translate(10.457 23.918)">
            <rect id="Rectangle_3422" data-name="Rectangle 3422" width="12.814" height="2.634" transform="translate(20.729)"/>
            <rect id="Rectangle_3423" data-name="Rectangle 3423" width="12.814" height="2.634"/>
          </g>
        </g>
        <g id="Group_8618" data-name="Group 8618" transform="translate(-6771.125 15864.786)">
          <path id="Path_8766" data-name="Path 8766" d="M179.727,368.25H77.734a2.86,2.86,0,0,0-2.854,2.85v14.178H182.57V371.1a2.86,2.86,0,0,0-2.854-2.854Z" transform="translate(-74.88 -368.25)" fill="#004747" fill-rule="evenodd"/>
          <path id="Path_8767" data-name="Path 8767" d="M180.777,561.071H76.612a1.733,1.733,0,0,1-1.722-1.722V382.99H182.5V559.349a1.726,1.726,0,0,1-1.722,1.722Z" transform="translate(-74.878 -365.958)" fill="#fefefe" fill-rule="evenodd"/>
          <path id="Path_8768" data-name="Path 8768" d="M108.055,372.15a3.767,3.767,0,1,0,3.767,3.767,3.767,3.767,0,0,0-3.767-3.767Zm-20.348,0a3.767,3.767,0,1,0,3.767,3.767,3.767,3.767,0,0,0-3.767-3.767Zm10.18,0a3.767,3.767,0,1,0,3.767,3.767,3.767,3.767,0,0,0-3.767-3.767Z" transform="translate(-73.471 -367.644)" fill="#8d8d8d" fill-rule="evenodd"/>
          <g id="Group_8617" data-name="Group 8617" transform="translate(10.457 23.918)">
            <rect id="Rectangle_3424" data-name="Rectangle 3424" width="12.814" height="2.634" transform="translate(20.729)"/>
            <rect id="Rectangle_3425" data-name="Rectangle 3425" width="12.814" height="2.634"/>
          </g>
        </g>
        <path id="Path_8769" data-name="Path 8769" d="M169.993,498.439l3.674,5.061s-26.09,17.736-28.24,18.742-11.023-7.349-11.023-7.349,2.658,18.615,1.4,30.4l-29.892.508-12.028-1.017s-.381-18.869,2.276-28.621,12.156-25.709,16.847-28.494c0,0,3.674,6.459,8.608,8.862a4.582,4.582,0,0,0,6.713-2.4l-1.144-5.188,18.742,20.775S169.866,498.566,169.993,498.439Z" transform="translate(-6843.053 15515.103)" fill="#80c6be" fill-rule="evenodd"/>
        <path id="Path_8770" data-name="Path 8770" d="M134.757,535.447c-.023,2.322-.116,4.576-.335,6.609l-29.892.508-1.86-.162c2.288-26.946,6.933-33.913,6.933-33.913-2.912,11.52,3.039,25.963,14.443,28.748,5.153,1.259,8.55-.023,10.723-1.8Z" transform="translate(-6841.684 15518.339)" fill="#6eb1aa" fill-rule="evenodd"/>
        <path id="Path_8771" data-name="Path 8771" d="M99.24,539.068a14.252,14.252,0,0,1,6.967-5.315,5.144,5.144,0,0,1,6.967,4.818s-9.752,1.641-13.935.508Z" transform="translate(-6842.217 15522.218)" fill="#ffc5cb" fill-rule="evenodd"/>
        <path id="Path_8772" data-name="Path 8772" d="M222.052,497.643s-5.662.7-8.909,4.668-4.945,12.017-10.469,12.306-11.6-8.77-13.715-12.155-3.247-5.662-3.247-5.662l-6.933,4.945s8.909,16.119,15.98,21.63,17.679,2.542,21.353-.277a153.86,153.86,0,0,1,.277,16.119c-.1,1.329-.266,2.657-.451,3.905H246.2c-.37-7.938-1.283-25.79-2.38-31.336-1.41-7.21-4.668-12.306-12.444-13.011s-9.475-.994-9.336-1.132Z" transform="translate(-6829.851 15516.521)" fill="#00698a" fill-rule="evenodd"/>
        <path id="Path_8773" data-name="Path 8773" d="M217.211,497.53a16.98,16.98,0,0,0-4.957,1.6c-4.8,7.233-.7,25.062-.7,25.062s-.058.185-.173.532a135.211,135.211,0,0,1,.173,14.386c-.1,1.329-.266,2.658-.451,3.906H241.36c-.37-7.938-1.283-25.79-2.38-31.336-1.41-7.21-4.668-12.306-12.444-13.011s-9.475-.994-9.336-1.132Z" transform="translate(-6825.009 15516.635)" fill="#004747" fill-rule="evenodd"/>
        <path id="Path_8774" data-name="Path 8774" d="M184.437,499.428a27.848,27.848,0,0,0-2.4-6.147c-1.271-1.907-7.915-5.581-9.117-4.6s-.277,7.349,3.4,10.041,5.512,4.1,5.512,4.1,2.611-3.247,2.611-3.4Z" transform="translate(-6830.84 15515.234)" fill="#ffc5cb" fill-rule="evenodd"/>
        <path id="Path_8775" data-name="Path 8775" d="M221.6,491.191s3.836-2.207,3.131-4.3-5.107-.116-5.107-.116l1.051-8.481s-6.39-1.167-7.43-2.091-4.3-1.745-4.3-1.745-2.669,3.952-3.131,11.612,3.49,9.406,7.2,10.11l1.04,12.779s2.438,4.3,7.2,1.4a14.7,14.7,0,0,0,6.1-8.065s-6.1-11.22-5.754-11.1Z" transform="translate(-6825.654 15513.049)" fill="#ffc5cb" fill-rule="evenodd"/>
        <path id="Path_8776" data-name="Path 8776" d="M207.951,477.155s-1.479-.266-1.248-3.871,6.274-7.2,10.226-4.529,3.721,5.454,6.736,6.852,5.223,3.016,4.645,7.661-3.12,9.082-7.06,8.966c0,0,3.7-1.652,3.12-4.09s-5.465.231-5.465.231l.809-8.481c-3.235-.173-10.677-3.409-11.763-2.75Z" transform="translate(-6825.514 15512.018)" fill-rule="evenodd"/>
        <path id="Path_8777" data-name="Path 8777" d="M234.519,501.179c4.241,2.831,4.529,17.54,2.126,25.732-1.444,4.911-5.673,11.347-8.828,15.714H217.73c1.826-3.628,5.639-11.693,7.326-18.973.924-3.975-1.225-29.615,9.475-22.485Z" transform="translate(-6823.795 15517.007)" fill="#00698a" fill-rule="evenodd"/>
        <path id="Path_8778" data-name="Path 8778" d="M192.782,489.526l-5.188-4.056L167.2,495.731l5.824,7.857s11.023-12.664,19.759-14.062Z" transform="translate(-6831.651 15514.76)" fill="#99c4ee" fill-rule="evenodd"/>
        <path id="Path_8779" data-name="Path 8779" d="M117.7,483.8s-3.432-1.976-2.808-3.848,4.576-.1,4.576-.1l-.936-7.591s5.72-1.04,6.656-1.872,3.848-1.56,3.848-1.56,2.392,3.536,2.808,10.4-4.518,8.169-7.846,8.793l1.976,9.925s-3.709,5.627-7.973,3.027-7.591-10.261-7.591-10.261,7.591-7,7.279-6.9Z" transform="translate(-6840.48 15512.173)" fill="#ffc5cb" fill-rule="evenodd"/>
        <path id="Path_8780" data-name="Path 8780" d="M132.67,467.539c-.266-4.148-7.522-6.193-11.058-3.8s-3.328,4.888-6.032,6.136-4.68,2.7-4.16,6.863,2.877,8.077,6.413,7.973c0,0-3.4-1.421-2.877-3.605s4.888.208,4.888.208l.913-5.315c.636-3.7,12.167-4.321,11.9-8.458Z" transform="translate(-6840.336 15511.223)" fill="#ffd668" fill-rule="evenodd"/>
        <path id="Path_8781" data-name="Path 8781" d="M191.573,485.8l-17.609,19-9.752-5.061L159.52,496.7l16.211-17.355s15.957,6.332,15.83,6.459Z" transform="translate(-6832.846 15513.808)" fill="#b8e0f9" fill-rule="evenodd"/>
        <path id="Path_8782" data-name="Path 8782" d="M160.072,500.364s3.039-7.984,6.078-7.984.763,2.912-.381,3.039-1.525,2.276-1.525,2.276l5.061,2.53s-6.459,4.691-9.244.127Z" transform="translate(-6832.762 15515.835)" fill="#ffc5cb" fill-rule="evenodd"/>
        <path id="Path_8783" data-name="Path 8783" d="M149.166,472.791l-9.44,9.036a.566.566,0,0,1-.913-.624h0l3.316-8.423h-2.762a3.032,3.032,0,0,1-2.138-.89h0a3.032,3.032,0,0,1-.89-2.138V456.487a3.038,3.038,0,0,1,3.027-3.027H209.3a3.032,3.032,0,0,1,2.138.89l.035.035a3.01,3.01,0,0,1,.855,2.1V469.75a2.984,2.984,0,0,1-.89,2.138h0l-.012.012a3.036,3.036,0,0,1-2.126.878H149.177Z" transform="translate(-6836.449 15509.783)" fill-rule="evenodd"/>
        <path id="Path_8784" data-name="Path 8784" d="M162.63,463.677a6.863,6.863,0,0,1,2.646,1.375h0a6.73,6.73,0,0,0,3.594,1.618,6.73,6.73,0,0,0,3.594-1.618,6.007,6.007,0,0,1,2.877-1.4,5.929,5.929,0,0,1,2.877,1.387h0a4.8,4.8,0,0,0,7.187,0h0a6.007,6.007,0,0,1,2.877-1.4,5.928,5.928,0,0,1,2.877,1.387h0a6.73,6.73,0,0,0,3.594,1.618v-1.259a5.9,5.9,0,0,1-2.877-1.4h0a4.8,4.8,0,0,0-7.187,0h0a5.976,5.976,0,0,1-2.877,1.387,5.857,5.857,0,0,1-2.877-1.4h0a4.8,4.8,0,0,0-7.187,0,6.007,6.007,0,0,1-2.877,1.4,5.857,5.857,0,0,1-2.877-1.4h0a7.177,7.177,0,0,0-3.362-1.606v1.259Z" transform="translate(-6832.362 15511.167)" fill="#fefefe" fill-rule="evenodd"/>
        <path id="Path_8785" data-name="Path 8785" d="M148.83,462.009a6.061,6.061,0,0,0,3.258-1.467,5.471,5.471,0,0,1,2.611-1.259,5.32,5.32,0,0,1,2.611,1.259h0a6.148,6.148,0,0,0,3.258,1.467,6.061,6.061,0,0,0,3.258-1.467,5.471,5.471,0,0,1,2.611-1.259,5.32,5.32,0,0,1,2.611,1.259h0a6.148,6.148,0,0,0,3.258,1.467,6.061,6.061,0,0,0,3.258-1.467,5.472,5.472,0,0,1,2.611-1.259,5.32,5.32,0,0,1,2.611,1.259h0a6.148,6.148,0,0,0,3.258,1.467,6.061,6.061,0,0,0,3.258-1.467h0a5.471,5.471,0,0,1,2.611-1.259,5.32,5.32,0,0,1,2.611,1.259h0a6.148,6.148,0,0,0,3.258,1.467v-1.132a5.471,5.471,0,0,1-2.611-1.259h0a6.148,6.148,0,0,0-3.258-1.467,6.061,6.061,0,0,0-3.258,1.467h0a5.423,5.423,0,0,1-2.611,1.259,5.471,5.471,0,0,1-2.611-1.259h0a6.147,6.147,0,0,0-3.258-1.467,6.061,6.061,0,0,0-3.258,1.467,5.471,5.471,0,0,1-2.611,1.259,5.471,5.471,0,0,1-2.611-1.259h0a6.148,6.148,0,0,0-3.258-1.467,6.061,6.061,0,0,0-3.258,1.467,5.424,5.424,0,0,1-2.611,1.259,5.471,5.471,0,0,1-2.611-1.259h0a6.148,6.148,0,0,0-3.258-1.467,6.061,6.061,0,0,0-3.258,1.467,5.424,5.424,0,0,1-2.611,1.259Z" transform="translate(-6834.507 15510.513)" fill="#fefefe" fill-rule="evenodd"/>
        <path id="Path_8786" data-name="Path 8786" d="M277.185,442.893a6.731,6.731,0,0,1-3.593-1.618,6.007,6.007,0,0,0-2.877-1.4,5.928,5.928,0,0,0-2.877,1.387h0a4.8,4.8,0,0,1-7.187,0,6.007,6.007,0,0,0-2.877-1.4,5.928,5.928,0,0,0-2.877,1.387h0a4.8,4.8,0,0,1-7.187,0,6.007,6.007,0,0,0-2.877-1.4,5.928,5.928,0,0,0-2.877,1.387h0a4.8,4.8,0,0,1-7.187,0h0a6.007,6.007,0,0,0-2.877-1.4,5.929,5.929,0,0,0-2.877,1.387h0a6.73,6.73,0,0,1-3.594,1.618v-1.259a5.9,5.9,0,0,0,2.877-1.4h0a4.8,4.8,0,0,1,7.187,0h0a5.976,5.976,0,0,0,2.877,1.387,5.857,5.857,0,0,0,2.877-1.4h0a4.8,4.8,0,0,1,7.187,0,6.007,6.007,0,0,0,2.877,1.4,5.857,5.857,0,0,0,2.877-1.4h0a4.8,4.8,0,0,1,7.187,0,6.007,6.007,0,0,0,2.877,1.4,5.857,5.857,0,0,0,2.877-1.4h0a4.8,4.8,0,0,1,7.187,0,6.006,6.006,0,0,0,2.877,1.4v1.259Z" transform="translate(-6822.6 15507.467)" fill="#004747" fill-rule="evenodd"/>
        <path id="Path_8787" data-name="Path 8787" d="M289.025,437.963a6.73,6.73,0,0,1-3.593-1.618,6.007,6.007,0,0,0-2.877-1.4,5.929,5.929,0,0,0-2.877,1.387h0a4.8,4.8,0,0,1-7.187,0,6.008,6.008,0,0,0-2.877-1.4,5.928,5.928,0,0,0-2.877,1.387h0a4.8,4.8,0,0,1-7.187,0,6.007,6.007,0,0,0-2.877-1.4,5.929,5.929,0,0,0-2.877,1.387h0a4.8,4.8,0,0,1-7.187,0h0a6.008,6.008,0,0,0-2.877-1.4,5.928,5.928,0,0,0-2.877,1.387h0a6.73,6.73,0,0,1-3.594,1.618v-1.259a5.9,5.9,0,0,0,2.877-1.4h0a4.8,4.8,0,0,1,7.187,0h0a5.975,5.975,0,0,0,2.877,1.387,5.857,5.857,0,0,0,2.877-1.4h0a4.8,4.8,0,0,1,7.187,0,6.007,6.007,0,0,0,2.877,1.4,5.857,5.857,0,0,0,2.877-1.4h0a4.8,4.8,0,0,1,7.187,0,6.007,6.007,0,0,0,2.877,1.4,5.857,5.857,0,0,0,2.877-1.4h0a4.8,4.8,0,0,1,7.187,0,6.007,6.007,0,0,0,2.877,1.4V437.9Z" transform="translate(-6820.759 15506.701)" fill="#004747" fill-rule="evenodd"/>
        <path id="Path_8788" data-name="Path 8788" d="M244.3,373.038h-5.685v5.685H244.3ZM258.111,373l2.646,2.819-2.646,2.819.636.6,2.611-2.785,2.611,2.785.635-.6-2.646-2.819L264.6,373l-.635-.6-2.611,2.785-2.611-2.785-.635.6Zm-3.594,3.594h-6.436v-.867h6.436Zm-16.338-4.437h6.991v7.43h-7.43v-7.43Z" transform="translate(-6820.685 15497.144)" fill="#fefefe"/>
        <rect id="Rectangle_3426" data-name="Rectangle 3426" width="88.913" height="3.801" transform="translate(-6760.76 15898.93)" fill="#e1e6ea"/>
        <rect id="Rectangle_3427" data-name="Rectangle 3427" width="77.266" height="3.801" transform="translate(-6760.76 15904.754)" fill="#e1e6ea"/>
        <g id="Group_8619" data-name="Group 8619" transform="translate(-6672.736 16030.019)">
          <path id="Path_8789" data-name="Path 8789" d="M170.672,511.25l18.407,7.129,5.7,9.186-10.168,25.987-24.577-9.371S170.8,511.25,170.672,511.25Z" transform="translate(-160.03 -511.25)" fill="#1f79cf" fill-rule="evenodd"/>
          <path id="Path_8790" data-name="Path 8790" d="M183.31,523.05l7.846,2.681-2.242,5.743Z" transform="translate(-156.411 -509.416)" fill="#004747" fill-rule="evenodd"/>
          <path id="Path_8791" data-name="Path 8791" d="M185.485,517.41l5.72,9.07-.081.231-7.9-2.519Z" transform="translate(-156.425 -510.292)" fill="#e6e7e8" fill-rule="evenodd"/>
        </g>
        <rect id="Rectangle_3428" data-name="Rectangle 3428" width="17.482" height="2.149" rx="0.93" transform="translate(-6686.463 16037.945)" fill="#8d8d8d"/>
        <rect id="Rectangle_3429" data-name="Rectangle 3429" width="11.774" height="2.149" rx="0.63" transform="translate(-6696.065 16041.516)" fill="#8d8d8d"/>
        <rect id="Rectangle_3430" data-name="Rectangle 3430" width="17.482" height="2.149" rx="0.93" transform="translate(-6689.883 16045.791)" fill="#8d8d8d"/>
        <rect id="Rectangle_3431" data-name="Rectangle 3431" width="10.168" height="2.149" rx="0.54" transform="translate(-6681.622 16050.354)" fill="#8d8d8d"/>
        <rect id="Rectangle_3432" data-name="Rectangle 3432" width="10.168" height="2.149" rx="0.54" transform="translate(-6696.065 16050.354)" fill="#8d8d8d"/>
        <g id="Group_8621" data-name="Group 8621" transform="translate(-6666.566 16047.662)">
          <g id="Group_8620" data-name="Group 8620">
            <path id="Path_8792" data-name="Path 8792" d="M182.51,537.913l-2.97-11.092-9.59,6.332Z" transform="translate(-164.658 -526.473)" fill="#ff8c71" fill-rule="evenodd"/>
            <path id="Path_8793" data-name="Path 8793" d="M174.648,534.712l-2.2-8.192-7.083,4.68Z" transform="translate(-165.37 -526.52)" fill="#ffdf7c" fill-rule="evenodd"/>
          </g>
          <circle id="Ellipse_436" data-name="Ellipse 436" cx="1.928" cy="1.928" r="1.928" transform="matrix(0.935, 0.354, -0.354, 0.935, 18.491, 1.175)" fill="#ffdf7c"/>
        </g>
        <g id="Group_8622" data-name="Group 8622" transform="translate(-6633.473 15898.168)">
          <path id="Path_8794" data-name="Path 8794" d="M280.555,398.1h-76.4a9.232,9.232,0,0,0-9.2,9.2v41.94a9.232,9.232,0,0,0,9.2,9.2c8.689,0,17.448.012,26.1.012h0l-.428.936-2.276,4.945,9.475-5.893q21.752,0,43.527-.012a9.232,9.232,0,0,0,9.2-9.2V407.285a9.232,9.232,0,0,0-9.2-9.2Zm-56.479,21.573a5.667,5.667,0,0,0-4.021,1.664h0a5.691,5.691,0,1,0,4.021-1.664Zm-4.657,1.028h0a6.585,6.585,0,0,1,9.313,9.313h0a6.585,6.585,0,0,1-9.313-9.313Zm40.326-1.028a5.667,5.667,0,0,0-4.021,1.664h0a5.691,5.691,0,1,0,4.021-1.664Zm-4.657,1.028h0a6.585,6.585,0,1,1,9.313,9.313h0a6.585,6.585,0,0,1-9.313-9.313Zm-13.172-1.028a5.667,5.667,0,0,0-4.021,1.664h0a5.691,5.691,0,1,0,4.021-1.664Zm-4.657,1.028h0a6.585,6.585,0,0,1,9.313,9.313h0a6.585,6.585,0,0,1-9.313-9.313Zm-8.412,38.7h-24.68A10.178,10.178,0,0,1,194.01,449.24V407.3a10.178,10.178,0,0,1,10.157-10.157h76.4A10.178,10.178,0,0,1,290.723,407.3v41.94a10.178,10.178,0,0,1-10.157,10.16H237.248l-10.469,6.517-.647-.566,2.727-5.939Zm1.433-.959-.012.012ZM230.268,458.454Z" transform="translate(-194.01 -397.14)" fill="#004747" fill-rule="evenodd"/>
        </g>
        <rect id="Rectangle_3433" data-name="Rectangle 3433" width="17.806" height="3.801" transform="translate(-6760.76 15950.349)"/>
        <rect id="Rectangle_3434" data-name="Rectangle 3434" width="17.806" height="3.801" transform="translate(-6734.415 15950.349)"/>
        <rect id="Rectangle_3435" data-name="Rectangle 3435" width="17.806" height="3.801" transform="translate(-6708.07 15950.349)"/>
        <path id="Path_8799" data-name="Path 8799" d="M207.286,442.172a4.992,4.992,0,0,0,4.449-2.45,12.817,12.817,0,0,0,1.595-6.944,12.627,12.627,0,0,0-1.8-6.944,5.291,5.291,0,0,0-4.53-2.519,4.95,4.95,0,0,0-4.414,2.45,12.97,12.97,0,0,0-1.6,7.014,12.248,12.248,0,0,0,1.826,6.852A5.211,5.211,0,0,0,207.286,442.172Zm0,1.317c-3.328,0-5.812-.982-7.43-2.97a11.783,11.783,0,0,1-2.426-7.765,12.377,12.377,0,0,1,2.4-8c1.618-1.976,4-2.97,7.164-2.97,3.374,0,5.87.982,7.487,2.97a12.4,12.4,0,0,1,2.4,8,11.825,11.825,0,0,1-2.426,7.765,7.143,7.143,0,0,1-2.727,2.091,8,8,0,0,1,4.194,2.334c2.242,2.45,4.3,3.975,6.17,4.553h-3.478a8.876,8.876,0,0,1-6.355-3.108q-2.842-2.721-4.737-2.9h-.243Z" transform="translate(-6826.952 15504.86)" fill-rule="evenodd"/>
        <path id="Path_8800" data-name="Path 8800" d="M90.785,434.137h6.2l-3.085-9.29-3.12,9.29Zm-.624,1.6-1.051,2.842a4.273,4.273,0,0,0-.173,1.109A3.11,3.11,0,0,0,91,442.411H84.8a11.978,11.978,0,0,0,1.918-3.385l6.771-17.875h1.953l6.829,17.875a11.978,11.978,0,0,0,1.918,3.385H96.516c1.479-.659,2.218-1.571,2.218-2.727a4.5,4.5,0,0,0-.173-1.109l-.936-2.842Z" transform="translate(-6844.462 15504.761)" fill-rule="evenodd"/>
      </g>
    </g>
  </g>
</svg>
