<svg xmlns="http://www.w3.org/2000/svg" width="269.443" height="205.071" viewBox="0 0 269.443 205.071">
  <g id="Group_10410" data-name="Group 10410" transform="translate(-944 -1602.465)">
    <g id="Group_8664" data-name="Group 8664" transform="translate(945.271 1594.183)">
      <path id="Path_8961" data-name="Path 8961" d="M153.547,83.549c5.63-53.137-97.733-115.182-135.255-65.092C-60.908,124.168,142.02,192.412,153.547,83.549Z" transform="translate(95.425 8.282)" fill="#c5dfdc" fill-rule="evenodd"/>
      <path id="Path_8962" data-name="Path 8962" d="M96.523,185.291c57.3,7.673,142.928-8.623,159.9-47.952,40.515-93.9-33.915-99.584-69.6-116.369C110.508-14.922,12.542-3.413,2.365,45.353c-8.644,41.421-2.462,41.161,24.87,61.3S39.227,177.618,96.523,185.291Z" transform="translate(0 26.216)" fill="#00f3bb" fill-rule="evenodd"/>
    </g>
    <g id="Group_8658" data-name="Group 8658" transform="translate(7785.403 -14995.734)">
      <path id="Path_8860" data-name="Path 8860" d="M184.194,1426.3c3.185-.9,8.961,4.576,8.452,7.231,0,0-6.1-2.771-9.333,1.784-4.693,6.6-1.688-8.271.892-9.015Z" transform="translate(-6861.913 15220.072)" fill="#ffc5cb" fill-rule="evenodd"/>
      <path id="Path_8861" data-name="Path 8861" d="M173.885,1477.62s24.58-27.723,31.068-28.742-23.094,35.559-23.094,35.559l-8.409-.69S173.577,1477.39,173.885,1477.62Z" transform="translate(-6862.371 15221.473)" fill="#004747" fill-rule="evenodd"/>
      <path id="Path_8888" data-name="Path 8888" d="M210.4,1440.26h15.8a10.307,10.307,0,0,1,10.278,10.278v51.369a10.307,10.307,0,0,1-10.278,10.278H210.4a10.307,10.307,0,0,1-10.278-10.278v-51.369A10.307,10.307,0,0,1,210.4,1440.26Zm21.342,78v6.01a3.924,3.924,0,0,1-3.907,3.907H209.222v21.735h19.367v4.343H184.727v-4.343h19.356v-21.735H185.077a3.924,3.924,0,0,1-3.907-3.907v-6.01a3.924,3.924,0,0,1,3.907-3.907h42.758a3.924,3.924,0,0,1,3.907,3.907ZM187,1556.83a3.854,3.854,0,1,1-3.854,3.854A3.854,3.854,0,0,1,187,1556.83Zm37.736,0a3.854,3.854,0,1,1-3.854,3.854,3.854,3.854,0,0,1,3.854-3.854Z" transform="translate(-6861.894 15220.941)" fill="#545f75" fill-rule="evenodd"/>
      <path id="Path_8889" data-name="Path 8889" d="M226.859,1492.62s14.2,21.108-8.547,20.652l-5.479,48.9h-6.912l-6.254-49.883-5.8-.892-1.582,26.874-.2,22.722-5.925-.2-7.9-41.686s-2.771-15.014,6.912-19.951,16.2-8.1,16.2-8.1,25.292,1.773,25.483,1.582Z" transform="translate(-6862.096 15224.079)" fill="#8d8d8d" fill-rule="evenodd"/>
      <path id="Path_8890" data-name="Path 8890" d="M201.748,1446.76l-6.339,46.57c-.2,1.476-.3,2.973-.51,4.375h33.892c-.414-8.9-1.444-28.891-2.665-35.1-1.582-8.08-5.224-13.782-13.941-14.568s-10.618-1.1-10.459-1.263Z" transform="translate(-6861.045 15221.343)" fill="#fa987d" fill-rule="evenodd"/>
      <path id="Path_8891" data-name="Path 8891" d="M202.13,1449.52c-9.057.149-3.058,33.722-7.22,48.131H228.8c-.414-8.9-1.444-28.891-2.665-35.1-1.582-8.08-5.224-13.782-13.941-14.568s-10.236,1.709-10.076,1.55Z" transform="translate(-6861.044 15221.408)" fill="#004747" fill-rule="evenodd"/>
      <rect id="Rectangle_3436" data-name="Rectangle 3436" width="2.453" height="7.895" rx="1.155" transform="matrix(0.779, 0.628, -0.628, 0.779, -6663.426, 16680.939)" fill="#47a0cc"/>
      <path id="Path_8892" data-name="Path 8892" d="M195.682,1459.11h0a.826.826,0,0,0-1.157.127l-2.3,2.856a.826.826,0,0,0,.127,1.157h0c.35.287,1.571.786,1.858.435l2.3-2.856C196.8,1460.48,196.032,1459.4,195.682,1459.11Z" transform="translate(-6861.222 15222.095)" fill="#545f75" fill-rule="evenodd"/>
      <path id="Path_8893" data-name="Path 8893" d="M211.549,1440.65s4.417-2.251,3.759-4.629-5.712-.425-5.712-.425l1.667-9.429s-7.082-1.667-8.2-2.771-4.7-2.2-4.7-2.2-3.217,4.258-4.183,12.816,3.355,10.724,7.464,11.722l.425,14.355s2.474,4.948,7.974,1.975a16.458,16.458,0,0,0,7.294-8.664s-6.169-12.9-5.787-12.752Z" transform="translate(-6861.098 15219.764)" fill="#ffc5cb" fill-rule="evenodd"/>
      <path id="Path_8894" data-name="Path 8894" d="M194.162,1433.44a10.861,10.861,0,0,0,.488,6.095c1.54-.276,3.939-.8,4.905-2.453s-2.792-3.929-5.394-3.652Z" transform="translate(-6861.104 15220.518)" fill="#c9999e" fill-rule="evenodd"/>
      <path id="Path_8895" data-name="Path 8895" d="M197.2,1423.5s-1.635-.382-1.168-4.4,7.432-7.687,11.7-4.47,3.844,6.328,7.135,8.059,5.67,3.684,4.746,8.845-4.014,9.981-8.431,9.62c0,0,4.237-1.635,3.727-4.4s-6.126-.053-6.126-.053l1.4-9.439c-3.61-.382-11.743-4.438-13-3.769Z" transform="translate(-6860.98 15219.281)" fill-rule="evenodd"/>
      <path id="Path_8896" data-name="Path 8896" d="M223.255,1453.66c3.536,4.789.573,23.911-6.944,27.829s-26.629-1.179-32.6-.234l-7.974-8.016c4.321-1.412,26.884.871,34-3.536,3.886-2.4,4.969-27.638,13.516-16.054Z" transform="translate(-6862.229 15221.581)" fill="#00698a" fill-rule="evenodd"/>
      <path id="Path_8897" data-name="Path 8897" d="M175.051,1475.49s-7.709-5.033-11.786.807,13.761,5.85,13.761,5.85S176.038,1476.54,175.051,1475.49Z" transform="translate(-6863.037 15222.993)" fill="#ffc5cb" fill-rule="evenodd"/>
      <path id="Path_8898" data-name="Path 8898" d="M173.631,1562.58l19.951-.595-.743-5.627c-.775-5.84-24.962,6.392-19.208,6.222Z" transform="translate(-6862.414 15228.017)" fill="#004747" fill-rule="evenodd"/>
      <path id="Path_8899" data-name="Path 8899" d="M194.1,1562.58l19.951-.595-.743-5.627c-.775-5.84-24.962,6.392-19.208,6.222Z" transform="translate(-6861.149 15228.017)" fill="#004747" fill-rule="evenodd"/>
      <path id="Path_8900" data-name="Path 8900" d="M144.5,1477.35h-7.51v90.878h7.51v-83.371h39.477v83.371h7.517V1477.35Z" transform="translate(-6864.623 15223.232)" fill="#545f75" fill-rule="evenodd"/>
      <rect id="Rectangle_3437" data-name="Rectangle 3437" width="1.763" height="8.356" transform="translate(-6706.917 16693.967)" fill="#545f75"/>
      <rect id="Rectangle_3438" data-name="Rectangle 3438" width="4.12" height="5.744" transform="translate(-6708.096 16696.578)" fill="#545f75"/>
      <rect id="Rectangle_3439" data-name="Rectangle 3439" width="15.162" height="1.688" transform="translate(-6700.664 16699.287)" fill="#545f75"/>
      <path id="Path_8901" data-name="Path 8901" d="M178.334,1470.88s-8.356-3.875-11.542,2.485,14.451,3.812,14.451,3.812-1.773-5.415-2.909-6.3Z" transform="translate(-6862.806 15222.761)" fill="#ffc5cb" fill-rule="evenodd"/>
      <path id="Path_8903" data-name="Path 8903" d="M199.41,1438.52l-16.6-12.232-.934.934,16.139,12.062a3.31,3.31,0,0,0,1.391-.765Z" transform="translate(-6861.85 15220.078)" fill="#fff1c2" fill-rule="evenodd"/>
      <path id="Path_8904" data-name="Path 8904" d="M155.711,1443.24s12.571.563,18.018-5.818,7.7-9.2,7.7-9.2l7.316,8.069s-11.913,16.139-32,14.079C156.741,1450.38,155.52,1443.24,155.711,1443.24Z" transform="translate(-6863.468 15220.197)" fill="#fefefe" fill-rule="evenodd"/>
      <path id="Path_8905" data-name="Path 8905" d="M150.871,1431.38l-4.481,2.506,5.532,36.494,5.118,1.741Z" transform="translate(-6864.042 15220.393)" fill="#545f75" fill-rule="evenodd"/>
      <path id="Path_8906" data-name="Path 8906" d="M195.553,1460.95a10.536,10.536,0,0,0-10.172,1.072c-.733.542-1.55,1.179-2.389,1.848-4.8,3.769-10.586,8.314-16.128,6.3-6.392-2.325-9.853-9.439-9.864-9.46l.956-.467c.011.021,3.281,6.753,9.28,8.93,4.98,1.816,10.522-2.538,15.109-6.137.828-.648,1.625-1.274,2.41-1.858,5.32-3.939,11.212-1.189,11.234-1.189l-.435.966Z" transform="translate(-6863.387 15222.102)" fill="#545f75" fill-rule="evenodd"/>
      <path id="Path_8907" data-name="Path 8907" d="M189.52,1431.46s-4.789-.754-5.627.308,1.125,1.816,1.125,1.816,6.848,1.38,4.5-2.134Z" transform="translate(-6861.738 15220.382)" fill="#ffc5cb" fill-rule="evenodd"/>
      <path id="Path_8908" data-name="Path 8908" d="M189.489,1455.98c-1.051.934.775,2.474.775,2.474,4.959,2.962,5.712,1.709,4.789,0-.966-1.794-3.791-4.067-5.564-2.485Z" transform="translate(-6861.4 15221.879)" fill="#ffc5cb" fill-rule="evenodd"/>
      <path id="Path_8909" data-name="Path 8909" d="M191.657,1453.95c3.037,1.327,4.024,8.027,1.943,9.747a1.414,1.414,0,0,1-1.285-.435c-1.242-1.327-3.376-3.918-7.071-2.931-7.825,2.113,3.96-7.464,6.424-6.381Z" transform="translate(-6861.805 15221.782)" fill="#ffc5cb" fill-rule="evenodd"/>
      <path id="Path_8910" data-name="Path 8910" d="M157.349,1452.23s9.97,7.687,18.093,5.585,11.584-3.111,11.584-3.111l1.359,10.809s-19.027,6.371-34.285-6.848C154.1,1458.67,157.2,1452.12,157.349,1452.23Z" transform="translate(-6863.566 15221.681)" fill="#fefefe" fill-rule="evenodd"/>
      <rect id="Rectangle_3440" data-name="Rectangle 3440" width="4.802" height="54.687" transform="translate(-6716.008 16641.039) rotate(-8.624)" fill="#545f75"/>
      <g id="Group_10061" data-name="Group 10061" transform="translate(-16.663 -6.771)">
        <path id="Path_9231" data-name="Path 9231" d="M29.885,0A29.866,29.866,0,0,1,49.811,52.131c-.363.341,8.65,3.437,9.96,11.257-8.979-8.133-22.9-3.618-29.885-3.618a29.885,29.885,0,0,1,0-59.77Z" transform="translate(-6770.739 16626.848)" fill="#fff"/>
        <g id="Group_10043" data-name="Group 10043" transform="translate(-6759.102 16633.467)">
          <path id="Path_9230" data-name="Path 9230" d="M-6740.935,16645.881h-2l-1.182-1.852.453-1.955,1.908-.58.817-1.324s-.592-1.615-1.045-1.615-4.177.637-4.177.637l-2.224,2.3.227,3.807,1.044,2.477,1.362,1.732h3.223l1.816-1.441.546-2.187Z" transform="translate(6763.906 -16632.615)" fill="#00f3bb"/>
          <g id="Group_10042" data-name="Group 10042" transform="translate(0 0)">
            <g id="Layer_2" data-name="Layer 2" transform="translate(0 0)">
              <g id="Layer_1" data-name="Layer 1" transform="translate(0)">
                <path id="Path_1" data-name="Path 1" d="M92.322,1.481A14.694,14.694,0,0,0,86.8.069,4.572,4.572,0,0,1,86.336,0H85.6c-.632.069-1.269.114-1.9.217A14.376,14.376,0,0,0,73.5,6.8a14.637,14.637,0,0,0-.7,15.521A14.1,14.1,0,0,0,83.866,30.1a14.417,14.417,0,0,0,13.959-5.773,14.344,14.344,0,0,0,3.008-7.738A15.125,15.125,0,0,0,92.322,1.481ZM87.228,1.9c.024-.086.273-.172.4-.155a13.436,13.436,0,0,1,11.246,9.893c.083.308.068.47-.263.617-1.168.514-2.314,1.076-3.476,1.6a.7.7,0,0,0-.436.677,1.038,1.038,0,0,0,.619,1.173,2.058,2.058,0,0,1,.416.283.684.684,0,0,0,.837.089.446.446,0,0,1,.6.09c.222.219.475.406.747.635-.137.166-.248.292-.349.426-.068.088-.176.2-.166.283.057.488-.3.594-.624.74a1.583,1.583,0,0,0-.3.153,3.439,3.439,0,0,1-2.4.491.485.485,0,0,1-.317-.19q-.889-1.271-1.752-2.563a.441.441,0,0,1-.025-.384,14.981,14.981,0,0,0,1.9-7.146c.043-.966-.036-1.939-.044-2.909,0-.269-.112-.361-.362-.414-1.966-.428-3.928-.875-5.894-1.3-.248-.054-.353-.126-.266-.4a6.236,6.236,0,0,0,.13-.663.455.455,0,0,0-.137-.507.6.6,0,0,1-.083-.52ZM86.262,13.34a3.417,3.417,0,0,0,4.491.453,4.344,4.344,0,0,1-4.463,1.668,4.519,4.519,0,0,1-.724-8.554,4.289,4.289,0,0,1,4.528.747c-1.959-.539-3.531-.075-4.476,1.8a3.343,3.343,0,0,0,.645,3.882Zm.323-11.688a10.79,10.79,0,0,1,.327,1.227,3.509,3.509,0,0,1-.093.759c-.029.358-.314.326-.54.379-.464.112-.931.213-1.443.286.41-.194.353-.542.372-.878a.68.68,0,0,1,.221-.357,1.535,1.535,0,0,1,.291-.161.452.452,0,0,0,.158-.69c-.058-.1-.133-.181-.2-.276s-.1-.164-.183-.293Zm-3.3.241c.429-.078.862-.129,1.292-.2a.415.415,0,0,1,.5.231,6.369,6.369,0,0,0,.418.587c-.606.186-.916.529-.736,1.18H84.65c-.09-.141-.183-.281-.267-.425-.137-.233-.26-.474-.4-.7-.214-.345-.429-.379-.752-.138-.094.069-.191.138-.3.212C82.762,2.07,82.807,1.981,83.286,1.894Zm1.169,26.711a13.561,13.561,0,0,1-2.8-26.27c.219-.069.44-.134.659-.2.161.361-.092.81.3,1.031s.61-.215.911-.33c.454.456.5,1.205,1.177,1.535-1.185.266-2.313.517-3.444.775-.334.077-.773.076-.965.291s-.111.642-.121.978q-.028.966-.016,1.932c0,.219-.062.325-.283.3-.74-.1-1.117.451-1.43.938a1.146,1.146,0,0,0,.994,1.75h.234c.855,0,.855,0,.953.89-.213.116-.422.232-.634.345a.149.149,0,0,1-.124.012c-.353-.266-.759-.13-1.14-.143-.36-.012-.521.152-.517.509,0,.255-.064.371-.338.361a.43.43,0,0,0-.453.414c-.051.276-.113.552-.152.828-.03.214-.113.336-.342.3a.828.828,0,0,0-.76.336c-.309.345-.641.662-.961.993a1.382,1.382,0,0,0-.023,1.552.486.486,0,0,1,.08.379c-.124.468-.3.922-.41,1.393a.821.821,0,0,0,.09.591c.659.94,1.344,1.863,2.029,2.781.237.319.437.339.777.116.607-.4.607-.4,1.194.061.772.6.772.6,1.471-.087.52-.513.52-.513,1.2-.22.473.207.952.394,1.416.621.1.046.141.207.205.321a.161.161,0,0,1-.007.1,3.115,3.115,0,0,0,.462,2.473c.378.637.678,1.323,1,1.991a1.393,1.393,0,0,1,.068.319,1.765,1.765,0,0,1-.317.037Zm-4.233-19.2c.046.457.094.914.146,1.43a8.53,8.53,0,0,1-1.043-.008.738.738,0,0,1-.431-1.067,1.22,1.22,0,0,1,1.089-.624c.083.01.158.106.229.17C80.231,9.326,80.219,9.374,80.222,9.408ZM91.951,27.241a12.958,12.958,0,0,1-6.342,1.449c-.218,0-.362-.037-.359-.31A.933.933,0,0,0,85.113,28c-.44-.888-.877-1.777-1.329-2.658a1.228,1.228,0,0,1-.155-.806c.058-.332.064-.673.1-1.01a.5.5,0,0,0-.333-.56c-.741-.316-1.483-.632-2.221-.956a.5.5,0,0,0-.631.147c-.259.3-.511.6-.778.909-.432-.335-.747-.568-1.05-.817a.519.519,0,0,0-.727-.016c-.174.138-.364.256-.579.4l-.751-1.015c-.4-.542-.8-1.089-1.206-1.625a.522.522,0,0,1-.1-.555c.161-.444.284-.9.438-1.35a.553.553,0,0,0-.159-.639.757.757,0,0,1-.023-1c.205-.221.433-.426.631-.655a1.068,1.068,0,0,1,1.026-.495c.228.037.367-.126.41-.357.058-.3.128-.6.178-.9.033-.195.107-.289.324-.3.378-.012.5-.138.5-.522,0-.248.077-.35.33-.327a1.039,1.039,0,0,1,.689.175c.178.155.4.051.576-.1.39-.33.507-.293.66.193a9.793,9.793,0,0,0,2.956,4.706,7.49,7.49,0,0,0,2.927,1.523,1.08,1.08,0,0,0,.55-.034,7.638,7.638,0,0,0,3.555-2.208,1.554,1.554,0,0,0,.142-.207.483.483,0,0,1,.362.523,9.738,9.738,0,0,0,.044,1.216.907.907,0,0,0,.273.5,3.344,3.344,0,0,0,.66.462,2,2,0,0,1,.933,1.018.559.559,0,0,0,.615.367,2.96,2.96,0,0,1,.536,0,1.309,1.309,0,0,0,1.185-.408.561.561,0,0,1,.161-.119c.317-.155.531-.037.5.309a1.91,1.91,0,0,1-.186.73q-.589,1.121-1.242,2.208a.742.742,0,0,1-.446.335,1.726,1.726,0,0,0-1.3.847,3.932,3.932,0,0,1-.461.581,1.64,1.64,0,0,0-.542,1.391A.432.432,0,0,1,91.951,27.241Zm6.01-6.093a12.757,12.757,0,0,1-5.378,5.67,3.514,3.514,0,0,1,.233-.629c.148-.237.366-.43.514-.666a1.973,1.973,0,0,1,1.492-1.014.658.658,0,0,0,.4-.311c.521-.9,1.065-1.781,1.5-2.717a2.743,2.743,0,0,0,.04-1.214c0-.089-.176-.228-.284-.242-.373-.05-.768-.123-1.069.207-.432.478-1,.276-1.513.3a.2.2,0,0,1-.148-.114c-.25-.727-.9-1.039-1.47-1.414a.672.672,0,0,1-.369-.683c.019-.224-.01-.451,0-.677.009-.379.019-.752-.36-.989-.039-.024-.038-.116-.055-.176l.091-.05c.068.088.143.174.205.266.535.778,1.075,1.554,1.6,2.34a.831.831,0,0,0,.7.373,4.34,4.34,0,0,0,2.839-.677,2.847,2.847,0,0,1,.479-.241.717.717,0,0,0,.479-.7,1.139,1.139,0,0,1,.3-.533c.331-.41.324-.595-.075-.93-.258-.217-.526-.422-.772-.651a.594.594,0,0,0-.766-.113.568.568,0,0,1-.73-.088,1.55,1.55,0,0,0-.386-.267c-.293-.131-.26-.377-.273-.627s.176-.289.331-.361L98.776,12.7c.088-.041.181-.069.323-.121A13.774,13.774,0,0,1,97.961,21.148Z" transform="translate(-66.545)" fill="#004747"/>
                <path id="Path_2" data-name="Path 2" d="M5.525.162Q3.087,1.567.651,2.978A1.029,1.029,0,0,0,.242,4.609L2.451,8.2c.49.8,1,.928,1.775.417q2.4-1.579,4.789-3.172c.09-.06.168-.137.266-.218A20.953,20.953,0,0,1,5.846,0C5.7.071,5.613.111,5.525.162Z" transform="matrix(0.996, 0.087, -0.087, 0.996, 0.777, 18.963)" fill="#004747"/>
              </g>
            </g>
          </g>
        </g>
        <text id="safemedigo" transform="translate(-6740.102 16672.727)" fill="#004747" font-size="7" font-family="SegoeUI, Segoe UI"><tspan x="-18.431" y="0">Safemedigo</tspan></text>
      </g>
    </g>
  </g>
</svg>
