<svg xmlns="http://www.w3.org/2000/svg" width="25.203" height="25.197" viewBox="0 0 25.203 25.197">
  <path id="Icon_awesome-instagram" data-name="Icon awesome-instagram" d="M12.6,8.376a6.46,6.46,0,1,0,6.46,6.46A6.45,6.45,0,0,0,12.6,8.376Zm0,10.66a4.2,4.2,0,1,1,4.2-4.2,4.208,4.208,0,0,1-4.2,4.2ZM20.83,8.112A1.507,1.507,0,1,1,19.323,6.6,1.5,1.5,0,0,1,20.83,8.112Zm4.279,1.529a7.457,7.457,0,0,0-2.035-5.279,7.506,7.506,0,0,0-5.279-2.035c-2.08-.118-8.316-.118-10.4,0a7.5,7.5,0,0,0-5.279,2.03A7.481,7.481,0,0,0,.083,9.635c-.118,2.08-.118,8.316,0,10.4a7.457,7.457,0,0,0,2.035,5.279A7.515,7.515,0,0,0,7.4,27.346c2.08.118,8.316.118,10.4,0a7.457,7.457,0,0,0,5.279-2.035,7.506,7.506,0,0,0,2.035-5.279c.118-2.08.118-8.31,0-10.39ZM22.421,22.263a4.252,4.252,0,0,1-2.4,2.4c-1.659.658-5.594.506-7.427.506s-5.774.146-7.427-.506a4.252,4.252,0,0,1-2.4-2.4c-.658-1.659-.506-5.594-.506-7.427s-.146-5.774.506-7.427a4.252,4.252,0,0,1,2.4-2.4c1.659-.658,5.594-.506,7.427-.506s5.774-.146,7.427.506a4.252,4.252,0,0,1,2.4,2.4c.658,1.659.506,5.594.506,7.427S23.079,20.61,22.421,22.263Z" transform="translate(0.005 -2.238)" fill="#fafafa"/>
</svg>
