<svg xmlns="http://www.w3.org/2000/svg" width="79.737" height="12.54" viewBox="0 0 79.737 12.54">
  <g id="_2_left" data-name="2 left" transform="translate(0 0)">
    <g id="Group_10039" data-name="Group 10039">
      <path id="Path_9223" data-name="Path 9223" d="M3532.97,1320.46h57.286v1.743H3532.97Z" transform="translate(-3521.699 -1314.863)" fill="#96989a"/>
      <path id="Path_9224" data-name="Path 9224" d="M4282.332,1257.269a4.107,4.107,0,0,0-2.391-2.052h-.006a4.126,4.126,0,0,0-5.194,2.636v0a4.119,4.119,0,1,0,7.831,2.558h0a4.1,4.1,0,0,0-.245-3.142Zm-1.8-3.874,0,0h0a6.028,6.028,0,0,1,3.861,7.611h0a6.039,6.039,0,1,1-11.48-3.75h0a6.027,6.027,0,0,1,7.608-3.865Z" transform="translate(-4204.958 -1252.634)" fill="#96989a"/>
      <path id="Path_9225" data-name="Path 9225" d="M3394.843,1251.219a4.1,4.1,0,0,0-2.391-2.052h-.005a4.127,4.127,0,0,0-5.194,2.636v0a4.119,4.119,0,1,0,7.83,2.558l0,0a4.1,4.1,0,0,0-.245-3.142Zm-1.8-3.874,0,0h0a6.028,6.028,0,0,1,3.861,7.611h0a6.039,6.039,0,1,1-11.48-3.75h0a6.027,6.027,0,0,1,7.608-3.865Z" transform="translate(-3385.13 -1247.045)" fill="#96989a"/>
    </g>
  </g>
</svg>
