<svg xmlns="http://www.w3.org/2000/svg" width="112.016" height="26.12" viewBox="0 0 112.016 26.12">
  <g id="_1_left" data-name="1 left" transform="translate(0 0)">
    <path id="Path_9226" data-name="Path 9226" d="M3188.847,436.059h-25.4V421.12H3098.31v1.711h63.427v14.939h27.111Z" transform="translate(-3087.899 -416.304)" fill="#96989a"/>
    <path id="Path_9227" data-name="Path 9227" d="M2964.067,362.05a4.026,4.026,0,0,1,2.348-2.015l.005,0a4.051,4.051,0,0,1,5.1,2.589v0a4.044,4.044,0,1,1-7.689,2.51l0,0a4.029,4.029,0,0,1,.241-3.085Zm1.77-3.8,0,0h0a5.918,5.918,0,0,0-3.791,7.473h0a5.929,5.929,0,1,0,11.271-3.682h0a5.919,5.919,0,0,0-7.471-3.794Z" transform="translate(-2961.747 -357.952)" fill="#96989a"/>
    <path id="Path_9228" data-name="Path 9228" d="M4277.818,549.1a4.025,4.025,0,0,1,2.348-2.015l.005,0a4.051,4.051,0,0,1,5.1,2.589v0a4.044,4.044,0,1,1-7.688,2.51l0,0a4.028,4.028,0,0,1,.241-3.085Zm1.77-3.8,0,0h0a5.918,5.918,0,0,0-3.792,7.473h0a5.929,5.929,0,1,0,11.271-3.682h0a5.92,5.92,0,0,0-7.472-3.794Z" transform="translate(-4175.34 -530.742)" fill="#96989a"/>
  </g>
</svg>
