<svg xmlns="http://www.w3.org/2000/svg" width="51.336" height="45.218" viewBox="0 0 51.336 45.218">
  <g id="Layer_2" data-name="Layer 2" transform="translate(0)">
    <g id="Layer_1" data-name="Layer 1">
      <path id="Path_1" data-name="Path 1" d="M102.909,2.213A21.958,21.958,0,0,0,94.652.1a6.833,6.833,0,0,1-.688-.1h-1.1c-.945.1-1.9.17-2.833.324a21.483,21.483,0,0,0-15.245,9.839C70,17.628,69.627,25.508,73.732,33.355A21.065,21.065,0,0,0,90.273,44.981c8.51,1.142,15.514-1.863,20.86-8.626a21.434,21.434,0,0,0,4.5-11.563A22.6,22.6,0,0,0,102.909,2.213ZM95.3,2.832c.036-.129.409-.258.6-.232a20.077,20.077,0,0,1,16.806,14.783c.124.461.1.7-.393.923-1.745.768-3.458,1.608-5.194,2.4a1.047,1.047,0,0,0-.651,1.011,1.55,1.55,0,0,0,.925,1.753,3.074,3.074,0,0,1,.622.423,1.023,1.023,0,0,0,1.251.133.667.667,0,0,1,.9.134c.331.328.709.607,1.117.949-.2.248-.371.436-.521.636-.1.132-.264.293-.248.423.086.729-.448.888-.933,1.105a2.364,2.364,0,0,0-.445.229,5.139,5.139,0,0,1-3.593.734.725.725,0,0,1-.474-.283q-1.328-1.9-2.619-3.83a.659.659,0,0,1-.038-.574,22.386,22.386,0,0,0,2.835-10.679c.064-1.443-.054-2.9-.065-4.346,0-.4-.168-.539-.54-.619-2.938-.64-5.87-1.307-8.808-1.948-.371-.08-.528-.189-.4-.6a9.311,9.311,0,0,0,.194-.991.679.679,0,0,0-.2-.758.9.9,0,0,1-.124-.777Zm-1.445,17.1c1.977,1.953,4.227,2.081,6.71.676-1.174,1.973-4.245,3.077-6.67,2.493a6.753,6.753,0,0,1-1.082-12.782,6.409,6.409,0,0,1,6.766,1.116c-2.927-.805-5.276-.111-6.689,2.695a5,5,0,0,0,.964,5.8Zm.483-17.465A16.123,16.123,0,0,1,94.826,4.3a5.243,5.243,0,0,1-.139,1.134c-.043.535-.47.487-.807.567-.694.167-1.391.319-2.156.428.613-.29.527-.809.556-1.311a1.016,1.016,0,0,1,.33-.533,2.3,2.3,0,0,1,.435-.24.676.676,0,0,0,.236-1.031c-.087-.142-.2-.271-.292-.412-.082-.121-.154-.245-.274-.437Zm-4.93.361c.641-.116,1.288-.193,1.931-.3a.621.621,0,0,1,.74.345,9.515,9.515,0,0,0,.624.877c-.905.277-1.369.791-1.1,1.763h-.157c-.134-.211-.273-.42-.4-.635-.2-.348-.389-.708-.6-1.05-.32-.515-.641-.566-1.124-.206-.141.1-.285.206-.444.316C88.624,3.093,88.691,2.96,89.407,2.83Zm1.747,39.915A20.264,20.264,0,0,1,86.975,3.49c.327-.1.657-.2.985-.3.241.54-.138,1.21.456,1.54s.911-.322,1.361-.494c.678.681.741,1.8,1.758,2.294-1.771.4-3.456.772-5.146,1.159-.5.114-1.156.113-1.442.435-.268.3-.167.96-.181,1.462q-.042,1.443-.023,2.886c0,.328-.093.486-.423.441-1.105-.148-1.669.674-2.136,1.4a1.713,1.713,0,0,0,1.486,2.614h.35c1.278,0,1.278,0,1.424,1.33-.318.173-.63.346-.948.515a.223.223,0,0,1-.185.019c-.528-.4-1.134-.194-1.7-.214-.538-.019-.779.227-.772.761,0,.381-.1.555-.506.54a.642.642,0,0,0-.677.619c-.076.412-.169.825-.228,1.237-.045.32-.17.5-.511.454a1.237,1.237,0,0,0-1.135.5c-.462.515-.958.989-1.436,1.484a2.065,2.065,0,0,0-.034,2.319.727.727,0,0,1,.12.567c-.185.7-.453,1.378-.613,2.081a1.226,1.226,0,0,0,.134.882c.985,1.4,2.009,2.783,3.032,4.156.355.476.653.506,1.161.173.907-.594.907-.594,1.784.092,1.153.9,1.153.9,2.2-.13.777-.767.777-.767,1.8-.329.707.309,1.423.589,2.116.928.145.069.211.309.306.479a.24.24,0,0,1-.01.149,4.654,4.654,0,0,0,.691,3.695c.565.953,1.012,1.976,1.5,2.975a2.082,2.082,0,0,1,.1.476,2.638,2.638,0,0,1-.474.056ZM84.828,14.058c.069.682.14,1.366.219,2.137a12.747,12.747,0,0,1-1.559-.012,1.1,1.1,0,0,1-.645-1.594,1.822,1.822,0,0,1,1.628-.933c.124.015.236.158.342.255C84.841,13.936,84.823,14.008,84.828,14.058Zm17.526,26.648a19.364,19.364,0,0,1-9.477,2.165c-.326-.007-.541-.055-.536-.464a1.4,1.4,0,0,0-.2-.562c-.657-1.327-1.311-2.656-1.986-3.972a1.836,1.836,0,0,1-.231-1.2c.087-.5.1-1.006.142-1.509a.75.75,0,0,0-.5-.837c-1.108-.472-2.216-.944-3.318-1.429a.744.744,0,0,0-.943.22c-.387.441-.764.891-1.163,1.358-.646-.5-1.116-.849-1.569-1.221a.775.775,0,0,0-1.087-.024c-.261.206-.544.382-.865.605L79.5,32.316c-.6-.81-1.191-1.627-1.8-2.429a.78.78,0,0,1-.148-.83c.241-.664.425-1.349.655-2.017a.827.827,0,0,0-.237-.955,1.131,1.131,0,0,1-.035-1.489c.307-.331.647-.637.943-.979a1.6,1.6,0,0,1,1.533-.739c.341.056.549-.188.613-.533.087-.446.191-.89.266-1.34.049-.291.159-.432.484-.443.565-.018.746-.206.75-.779,0-.371.115-.523.493-.489a1.553,1.553,0,0,1,1.03.261c.267.231.592.076.86-.151.582-.494.757-.438.987.289a14.634,14.634,0,0,0,4.418,7.033A11.193,11.193,0,0,0,94.68,29a1.614,1.614,0,0,0,.822-.052,11.414,11.414,0,0,0,5.313-3.3,2.323,2.323,0,0,0,.213-.309.722.722,0,0,1,.54.781,14.551,14.551,0,0,0,.066,1.817,1.356,1.356,0,0,0,.409.743,5,5,0,0,0,.987.69,2.985,2.985,0,0,1,1.395,1.522.836.836,0,0,0,.92.548,4.423,4.423,0,0,1,.8,0,1.956,1.956,0,0,0,1.771-.609.838.838,0,0,1,.241-.177c.473-.232.794-.055.754.462a2.854,2.854,0,0,1-.278,1.091q-.88,1.675-1.855,3.3a1.109,1.109,0,0,1-.667.5,2.579,2.579,0,0,0-1.936,1.266,5.874,5.874,0,0,1-.689.868,2.451,2.451,0,0,0-.809,2.079A.645.645,0,0,1,102.355,40.707Zm8.981-9.1c-1.95,4.092-5.758,7.525-8.037,8.473a5.251,5.251,0,0,1,.348-.94c.222-.355.547-.642.768-1a2.948,2.948,0,0,1,2.229-1.515.983.983,0,0,0,.6-.465c.779-1.34,1.591-2.662,2.248-4.061a4.1,4.1,0,0,0,.059-1.814c-.007-.133-.264-.34-.425-.362-.557-.075-1.147-.185-1.6.309-.646.714-1.488.412-2.261.444a.3.3,0,0,1-.221-.17c-.373-1.087-1.339-1.553-2.2-2.113a1,1,0,0,1-.552-1.021c.029-.334-.015-.674-.007-1.011.013-.566.029-1.124-.538-1.477-.058-.036-.056-.173-.082-.263l.136-.074c.1.132.214.26.306.4.8,1.163,1.606,2.322,2.39,3.5a1.242,1.242,0,0,0,1.044.558,6.485,6.485,0,0,0,4.242-1.012,4.253,4.253,0,0,1,.715-.361,1.071,1.071,0,0,0,.715-1.041,1.7,1.7,0,0,1,.455-.8c.494-.613.484-.889-.111-1.39-.385-.324-.786-.63-1.153-.972a.888.888,0,0,0-1.145-.169.849.849,0,0,1-1.09-.131,2.317,2.317,0,0,0-.577-.4c-.438-.2-.388-.563-.409-.937s.263-.432.494-.54l4.87-2.268c.131-.061.27-.1.482-.181A20.583,20.583,0,0,1,111.335,31.6Z" transform="translate(-64.391)" fill="#004747"/>
      <path id="Path_2" data-name="Path 2" d="M8.257.242Q4.613,2.341.973,4.45A1.538,1.538,0,0,0,.362,6.887q1.651,2.683,3.3,5.361c.731,1.195,1.494,1.387,2.653.623Q9.9,10.51,13.472,8.13c.134-.09.251-.2.4-.325A31.31,31.31,0,0,1,8.736,0C8.525.106,8.387.166,8.257.242Z" transform="matrix(0.996, 0.087, -0.087, 0.996, 1.161, 28.337)" fill="#004747"/>
    </g>
  </g>
</svg>
