<svg id="Layer_1" data-name="Layer 1" xmlns="http://www.w3.org/2000/svg" width="58.296" height="50.176" viewBox="0 0 58.296 50.176">
  <path id="Path_1" data-name="Path 1" d="M106.738,2.456A24.762,24.762,0,0,0,97.493.114,7.714,7.714,0,0,1,96.723,0H95.488c-1.058.114-2.123.189-3.172.359A24.071,24.071,0,0,0,75.247,11.277C69.9,19.561,69.474,28.305,74.07,37.013a23.579,23.579,0,0,0,18.52,12.9c9.528,1.267,17.37-2.067,23.355-9.572a23.663,23.663,0,0,0,5.033-12.831A25.039,25.039,0,0,0,106.738,2.456Zm-8.522.686c.04-.143.458-.286.677-.257a22.414,22.414,0,0,1,18.816,16.4c.138.511.114.78-.44,1.024-1.954.852-3.872,1.785-5.816,2.66a1.161,1.161,0,0,0-.729,1.122,1.717,1.717,0,0,0,1.035,1.945,3.444,3.444,0,0,1,.7.469,1.153,1.153,0,0,0,1.4.148.751.751,0,0,1,1,.149c.371.364.794.674,1.25,1.054-.229.276-.415.484-.583.706-.114.146-.3.325-.278.469.1.809-.5.985-1.044,1.226a2.656,2.656,0,0,0-.5.254,5.8,5.8,0,0,1-4.023.814.813.813,0,0,1-.531-.315q-1.487-2.107-2.932-4.25a.726.726,0,0,1-.042-.637,24.669,24.669,0,0,0,3.174-11.85c.072-1.6-.061-3.214-.073-4.823,0-.446-.188-.6-.605-.686-3.29-.71-6.572-1.45-9.862-2.162-.415-.089-.591-.209-.445-.661a10.258,10.258,0,0,0,.217-1.1A.75.75,0,0,0,98.354,4a.988.988,0,0,1-.138-.863ZM96.6,22.12c2.214,2.167,4.732,2.31,7.513.75-1.314,2.189-4.753,3.415-7.468,2.766a7.473,7.473,0,0,1-1.211-14.183,7.225,7.225,0,0,1,7.575,1.239c-3.277-.893-5.907-.124-7.489,2.99a5.507,5.507,0,0,0,1.08,6.437ZM97.14,2.74a17.765,17.765,0,0,1,.548,2.034,5.769,5.769,0,0,1-.156,1.258c-.048.594-.526.54-.9.629-.777.185-1.557.353-2.414.475.686-.321.59-.9.622-1.455a1.125,1.125,0,0,1,.369-.591,2.577,2.577,0,0,1,.487-.267.746.746,0,0,0,.264-1.144c-.1-.158-.222-.3-.327-.458-.092-.134-.173-.272-.307-.485Zm-5.519.4c.717-.129,1.442-.214,2.162-.334a.7.7,0,0,1,.828.383,10.559,10.559,0,0,0,.7.973c-1.013.308-1.533.877-1.231,1.956H93.9c-.15-.235-.305-.466-.447-.7-.229-.387-.436-.786-.675-1.166-.358-.572-.717-.628-1.258-.229-.158.114-.319.229-.5.351C90.744,3.432,90.819,3.284,91.62,3.14Zm1.956,44.291A22.446,22.446,0,0,1,88.9,3.872c.366-.114.736-.222,1.1-.333.27.6-.154,1.343.51,1.709s1.02-.357,1.524-.548c.76.756.829,2,1.969,2.545-1.982.442-3.87.857-5.762,1.286-.559.127-1.294.126-1.614.483-.3.334-.186,1.065-.2,1.622q-.047,1.6-.026,3.2c0,.364-.1.539-.474.49-1.238-.165-1.869.748-2.392,1.555a1.9,1.9,0,0,0,1.663,2.9h.392c1.431,0,1.431,0,1.595,1.476-.356.192-.706.384-1.062.572a.252.252,0,0,1-.207.021c-.591-.44-1.27-.215-1.908-.238-.6-.021-.872.252-.865.844,0,.423-.106.615-.566.6a.716.716,0,0,0-.758.686c-.085.458-.189.915-.255,1.373-.05.355-.19.557-.572.5a1.39,1.39,0,0,0-1.271.557c-.517.572-1.073,1.1-1.608,1.647a2.275,2.275,0,0,0-.038,2.574.8.8,0,0,1,.134.629c-.207.777-.507,1.529-.686,2.31a1.35,1.35,0,0,0,.15.979c1.1,1.558,2.249,3.089,3.4,4.611.4.528.731.562,1.3.192,1.016-.659,1.016-.659,2,.1,1.291,1,1.291,1,2.462-.144.871-.851.871-.851,2.013-.365.792.343,1.593.653,2.369,1.03.162.077.237.343.343.532a.264.264,0,0,1-.011.166,5.127,5.127,0,0,0,.773,4.1c.633,1.057,1.134,2.193,1.678,3.3a2.294,2.294,0,0,1,.114.528,2.98,2.98,0,0,1-.531.062ZM86.494,15.6c.078.757.157,1.516.245,2.371a14.4,14.4,0,0,1-1.746-.014,1.221,1.221,0,0,1-.722-1.768,2.044,2.044,0,0,1,1.822-1.035c.138.017.264.175.383.283C86.508,15.463,86.489,15.544,86.494,15.6Zm19.623,29.57a21.841,21.841,0,0,1-10.611,2.4c-.365-.008-.606-.061-.6-.515a1.539,1.539,0,0,0-.229-.623c-.736-1.472-1.468-2.947-2.224-4.408a2.022,2.022,0,0,1-.259-1.336c.1-.55.106-1.116.159-1.675a.831.831,0,0,0-.557-.929c-1.24-.524-2.481-1.048-3.715-1.585a.838.838,0,0,0-1.056.244c-.434.49-.856.988-1.3,1.507C85,37.7,84.474,37.309,83.966,36.9a.873.873,0,0,0-1.217-.026c-.292.229-.609.424-.969.671L80.524,35.86c-.671-.9-1.334-1.805-2.018-2.7a.86.86,0,0,1-.166-.921c.27-.737.476-1.5.733-2.239a.912.912,0,0,0-.265-1.059,1.246,1.246,0,0,1-.039-1.652c.343-.367.724-.707,1.056-1.087a1.792,1.792,0,0,1,1.716-.82c.382.062.614-.208.686-.591.1-.5.214-.987.3-1.487.055-.323.178-.479.542-.492.633-.019.835-.229.84-.865,0-.412.129-.58.553-.542a1.751,1.751,0,0,1,1.153.289c.3.256.662.085.963-.167.652-.548.848-.486,1.105.32a16.22,16.22,0,0,0,4.946,7.8,12.572,12.572,0,0,0,4.9,2.526,1.822,1.822,0,0,0,.921-.057,12.8,12.8,0,0,0,5.948-3.661,2.578,2.578,0,0,0,.238-.343.8.8,0,0,1,.605.867A16,16,0,0,0,105.311,31a1.5,1.5,0,0,0,.458.825,5.6,5.6,0,0,0,1.105.765,3.324,3.324,0,0,1,1.561,1.688.937.937,0,0,0,1.03.609,5,5,0,0,1,.9,0,2.2,2.2,0,0,0,1.982-.676.938.938,0,0,1,.27-.2c.53-.257.889-.061.844.512a3.145,3.145,0,0,1-.311,1.21q-.985,1.859-2.077,3.661a1.241,1.241,0,0,1-.747.556,2.889,2.889,0,0,0-2.168,1.4,6.529,6.529,0,0,1-.771.963,2.707,2.707,0,0,0-.906,2.307A.716.716,0,0,1,106.117,45.17Zm10.055-10.1c-2.184,4.54-6.447,8.351-9,9.4a5.794,5.794,0,0,1,.39-1.043c.248-.394.612-.713.86-1.105a3.3,3.3,0,0,1,2.5-1.682,1.1,1.1,0,0,0,.671-.516c.872-1.487,1.781-2.954,2.517-4.506a4.51,4.51,0,0,0,.066-2.013c-.008-.148-.3-.377-.476-.4-.623-.084-1.285-.2-1.789.343-.723.793-1.666.458-2.531.493a.333.333,0,0,1-.247-.189c-.418-1.206-1.5-1.723-2.459-2.345a1.112,1.112,0,0,1-.618-1.132c.032-.371-.017-.748-.008-1.122.015-.628.032-1.247-.6-1.639-.065-.04-.063-.192-.092-.292l.152-.082c.114.146.239.288.343.442.9,1.29,1.8,2.576,2.676,3.88a1.394,1.394,0,0,0,1.169.619,7.313,7.313,0,0,0,4.75-1.123,4.779,4.779,0,0,1,.8-.4,1.189,1.189,0,0,0,.8-1.155,1.885,1.885,0,0,1,.509-.884c.554-.681.542-.986-.125-1.542-.431-.359-.88-.7-1.291-1.079a1,1,0,0,0-1.282-.188.957.957,0,0,1-1.221-.145,2.6,2.6,0,0,0-.646-.443c-.491-.217-.435-.625-.458-1.04s.294-.479.554-.6l5.453-2.517c.146-.067.3-.114.54-.2A22.657,22.657,0,0,1,116.172,35.067Z" transform="translate(-62.793)" fill="#fafafa"/>
  <path id="Path_2" data-name="Path 2" d="M9.9,309.209c-2.382,1.373-6.564,3.915-8.944,5.293a1.508,1.508,0,0,0-.6,2.39q1.619,2.631,3.236,5.256c.717,1.171,1.465,1.36,2.6.611,2.343-1.543,6.484-4.259,8.819-5.815.132-.088.246-.2.39-.319a30.7,30.7,0,0,1-5.033-7.653C10.159,309.077,10.024,309.135,9.9,309.209Z" transform="translate(0.002 -274.663)" fill="#fafafa"/>
</svg>
