<svg xmlns="http://www.w3.org/2000/svg" width="218.758" height="27.133" viewBox="0 0 218.758 27.133">
  <g id="_3_right_left" data-name="3 right left" transform="translate(0)">
    <path id="Path_9215" data-name="Path 9215" d="M5067.9,2026.547h26.384v15.518h67.664v-1.777h-65.885V2024.77H5067.9Z" transform="translate(-4954.008 -2019.936)" fill="#96989a"/>
    <path id="Path_9216" data-name="Path 9216" d="M6291.724,2163.731a4.186,4.186,0,0,1-2.438,2.094h-.006a4.208,4.208,0,0,1-5.3-2.689v0a4.2,4.2,0,1,1,7.987-2.608h0a4.181,4.181,0,0,1-.25,3.2Zm-1.838,3.952h0a6.148,6.148,0,0,0,3.938-7.763h0a6.159,6.159,0,1,0-11.709,3.825h0a6.147,6.147,0,0,0,7.76,3.942Z" transform="translate(-6075.378 -2140.856)" fill="#96989a"/>
    <path id="Path_9217" data-name="Path 9217" d="M4927.014,1969.422a4.189,4.189,0,0,1-2.439,2.093h-.005a4.208,4.208,0,0,1-5.3-2.689v0a4.2,4.2,0,1,1,7.987-2.607h0a4.187,4.187,0,0,1-.25,3.2Zm-1.838,3.951,0,0h0a6.149,6.149,0,0,0,3.938-7.762h0a6.159,6.159,0,1,0-11.709,3.825h0a6.15,6.15,0,0,0,7.761,3.941Z" transform="translate(-4814.71 -1961.36)" fill="#96989a"/>
    <path id="Path_9218" data-name="Path 9218" d="M3804.939,2026.547h-26.386v15.518H3710.89v-1.777h65.886V2024.77h28.163Z" transform="translate(-3700.452 -2019.936)" fill="#96989a"/>
    <path id="Path_9219" data-name="Path 9219" d="M3583.884,2163.731a4.187,4.187,0,0,1-2.438,2.094h-.005a4.208,4.208,0,0,1-5.3-2.689l0,0a4.2,4.2,0,1,1,7.987-2.608h0a4.184,4.184,0,0,1-.25,3.2Zm-1.838,3.952h.006a6.148,6.148,0,0,0,3.938-7.763h0a6.159,6.159,0,1,0-11.709,3.825h0a6.148,6.148,0,0,0,7.761,3.942Z" transform="translate(-3573.977 -2140.856)" fill="#96989a"/>
  </g>
</svg>
