<svg id="_1_On_1_Guide" data-name="1 On 1 Guide" xmlns="http://www.w3.org/2000/svg" width="70" height="70" viewBox="0 0 70 70">
  <path id="Path_8630" data-name="Path 8630" d="M35,0A35,35,0,1,1,0,35,35,35,0,0,1,35,0Z" fill="#00f3bb"/>
  <g id="Group_9873" data-name="Group 9873" transform="translate(15 15.361)">
    <g id="Path_9061" data-name="Path 9061" opacity="0">
      <path d="M 38.77734375 38.77734375 L 23.73008155822754 38.77734375 L 0.500001847743988 38.77734375 L 0.500001847743988 0.500001847743988 L 38.77734375 0.500001847743988 L 38.77734375 38.77734375 Z" stroke="none"/>
      <path d="M 1 1 L 1 38.27734375 L 38.27734375 38.27734375 L 38.27734375 1 L 1 1 M 0 0 L 39.27734375 0 L 39.27734375 39.27734375 L 0 39.27734375 L 0 0 Z" stroke="none" fill="#707070"/>
    </g>
    <g id="Group_9872" data-name="Group 9872" transform="translate(5 1.448)">
      <path id="Subtraction_7" data-name="Subtraction 7" d="M29.374,37.041H0V26.789a6.765,6.765,0,0,1,3.182-5.745l6.241-3.953-1.163-.864A8.844,8.844,0,0,1,4.712,9.743L4.59,8.2A6.212,6.212,0,0,1,8.261,2.146L11.811.6a7.467,7.467,0,0,1,5.875,0l3.488,1.606a6.159,6.159,0,0,1,2.8,2.447,6.08,6.08,0,0,1,.872,3.605L24.723,9.8a8.522,8.522,0,0,1-3.549,6.485l-1.163.865,5.568,3.521.428-.927h1.408l2.938,7.1a4.229,4.229,0,0,1-.979,4.632V37.04Zm-6.61-16.675-3.794,2.9a1.246,1.246,0,0,1-.918.371L15.727,28.4H18.42v7.411h9.791V32.286a4.046,4.046,0,0,1-1.714.371h-2.57V31.421h.428a1.246,1.246,0,0,0,1.224-.864,1.313,1.313,0,0,0-.8-1.668l-1.346-.433-2.692,6.3-1.1-.494,5.385-12.476-2.264-1.42h0ZM6.181,28.4H7.405v7.411h3.671v-7.35h2.57L11.321,23.7a2.393,2.393,0,0,1-.918-.37l-3.793-2.9-2.754,1.73a5.545,5.545,0,0,0-2.57,4.694v8.956h4.9V28.4Zm7.277,4.769v1.293h2.586V33.164H13.459Zm0-2.586v1.292h2.586V30.578H13.459Zm1.29-9.348h0l-1.9,1.915a.868.868,0,0,1-.121.091.859.859,0,0,0-.124.094l2.142,4.323,2.142-4.323a20.54,20.54,0,0,1-2.11-2.068ZM10.22,18.142h0L7.772,19.748,11.2,22.343a.539.539,0,0,0,.331.111.79.79,0,0,0,.465-.174l1.714-1.73-.979-.494a8.489,8.489,0,0,1-2.509-1.914Zm9.058-.062h0A9.294,9.294,0,0,1,16.768,20l-.979.494L17.5,22.218a.491.491,0,0,0,.406.194.649.649,0,0,0,.389-.132l3.426-2.594L19.277,18.08ZM15.36,6.531h0L9.607,8.94A.545.545,0,0,0,9.24,9.5v2.84a7.408,7.408,0,0,0,4.1,6.609l1.163.617a.837.837,0,0,0,.551,0l1.163-.617a7.447,7.447,0,0,0,4.039-6.609V9.866a.582.582,0,0,0-.612-.617H17.808a2.462,2.462,0,0,1-2.448-2.47V6.531Z" transform="translate(0 0)"/>
    </g>
  </g>
</svg>
