<svg xmlns="http://www.w3.org/2000/svg" width="766.99" height="267.153" viewBox="0 0 766.99 267.153">
  <g id="Our_Safety_Standards3" data-name="Our Safety Standards3" transform="translate(0 -154.317)">
    <g id="Group_10025" data-name="Group 10025" transform="translate(0 207.305)">
      <path id="Path_9070" data-name="Path 9070" d="M294.625,2781.21l4.529-6.123.085-2.239-7.212-6.331,2.184-4.517,2.392-3.38.041-5.33-1.2-2.52-1.282-2.714,1.608-3.624-2.389-1.485.108-1.3-6.6-2.823-2.174-.441-2.672-4.126.024-2.712-.343-.823-1.631-.819-2.036-.9.139-1.673-2.766-.578,0-2.432-5.616-.132-.539,1.644-6.946.144-.216,1.387-5.779.6-.07,2.053-5.041.191-1.208,2.437-6.47.46-1.406-1.226-.813-2.305-8.811-5.232-7.607-.372-2.775,1.948-2.013.039-5.2,3.359-1.054,1.794-2.889.91-.654,1.823-4.2,2.124-3.619.015-8.351-2.3-8.576,2.832-11.132-2.689-6.1-5.22-11.34-1.4L144.24,2720.1l-8.467-.9-1.907,2.385-3.62,1.231-.171,3.262,12.508,3.071,1.405,2.443-10.7,6.6-9.33,3.431-8.477,4.055-4.941.2-2.765-1.794L101,2747.049l-7.907.822-3.059,1.74-2.61-3.653-4.634.127-7.95-4.7-12.546-1.39-7.554,2.626-22.44,8.829-7.346,1.331-4.136,3.813-2.682.832-2.056,9.018-2.261,4.231-.048,2.99-9.8,1.806L2,2781.031l-1.884,3.323-.148,2.983,4.171,3.02,9.751-.032,9.721-3.308,17.765-.94,7.73.1,2.819,1.143,8.158,3.406,7.1,1.645,8.065,5.738,6.145,2.229,4.155,3.206,5.117.1,1.059,2.978,11.382,9.35,13.818,9.062,9.536.14.117-3.827-1.843-2.006.492-2-2.925-3.793,3.428-2.555,3.717,3.641,10.3.664,6.138,2.322,10.909,4.17,6.314,3.833,1.551.676,4.506,8.657,4.331,4.715,4.785,4.094,8.536,2.5.916-3.768-2.593-8.7.133-4.013,3.812-1.123,4.328-3.705,11.61-.644,7.735,4.872,4.992,5.232,5.751,6.972,1.8,3.781,6.4,5.241,2.48,2.8,10.162,5.892,1.17-4.405-2.219-3.531.217-2.6-1.681-2.743,8.63-2.266.471-4.456-1.257-5.425,4.258-1.652L270.2,2826l5.528-7.266-.122-2.16L267.173,2808l-4.91-.174-1.965-2.951,2.213-.025,13.289,6.965.778-4.527-7.733-9.737,3.1-2.205,1.364-6.729,2.023-5-3.178-7.718-4.456-.8-6.268-3.174-4.033-2.261,1.692-2.215,10.3,1.88,5.818-2.286,3.232,5.851s16.308,8.122,16.193,8.3Z" transform="translate(0.031 -2719.199)" fill="#b4dbd6" fill-rule="evenodd"/>
      <path id="Path_9071" data-name="Path 9071" d="M1046.09,3411.981l1.063-8.386-11.163-10.378-33.838-5.764-9.416-4.925-.392-1.019-5.664-3.417-5.429-1.631-.107-2.28-7.871-2.247-4.522-1.052-2.852-1.694-6.3.124-6.468,1.552-4.49.516-.324,2.544-9.409-.6-.224,2.6-9-.885-.036,2.045-6.023.642-1.224,2.368-.069,4.364L927.9,3388l4.776,2.536,4.719,3.214,7.9,5.5,3.981-.254,5.84,2.068,7.869,4.128,10.9-.564,4.049-2.843,2.4-2.418,8.533,1.446,2.924,3.628,5.179,2.975,4.642.614,3.98,1.521,15.18,6.168,9.071.257,2.288-1.06,1.749.129,7.817-2.292s4.211-.374,4.391-.769Z" transform="translate(-852.012 -3319.637)" fill="#b4dbd6" fill-rule="evenodd"/>
      <g id="Group_10024" data-name="Group 10024" transform="translate(0.002 4.776)">
        <path id="Path_9072" data-name="Path 9072" d="M3277.582,2959.924l-.572-.884-10.269,5.105-20.765-.45-6.136,1.28.548,1.864,4.491-.839,19.789.705,5.025-1.829Z" transform="translate(-2992.844 -2945.531)" fill="#234e59" fill-rule="evenodd"/>
        <path id="Path_9073" data-name="Path 9073" d="M3819.044,3053.91l1.411-3.181-4.9,1.048Z" transform="translate(-3524.673 -3030.23)" fill="#234e59" fill-rule="evenodd"/>
        <path id="Path_9074" data-name="Path 9074" d="M3152.92,4027.869l8.586-2.254.446-4.223-10.682,3.549Zm7.821-12.043-.021-.093,4.258-1.652,16.277-6.008,5.528-7.266-.112-1.987-4.086,5.757L3165.7,4010l-5.644,4.427Z" transform="translate(-2911.026 -3906.041)" fill="#234e59" fill-rule="evenodd"/>
        <path id="Path_9075" data-name="Path 9075" d="M17.1,3468l-.133.374-.8,1.409,6.593,3.492,4.916-.2,6.075-1.448,5.43-2.758,6.714-.98,13.191-1.837,3.624.828,10.266,5.245,8.516,1.819,10.791,4.371,1.169,1.349,3.872,1.477,3.916,4.568,4.494,1.242,2.938.918,2.121-.125,5.583,2.656,3.9,2.041,3.867.635,9.024.242,6.733-3.926L141,3488l9.594,1.548,1.837,2.38,7.519,3.851,4.068.93,11.736,4.792,11.818,3.816,2.934-.837,3.694-.009,1.631-1.494,2.714-.011,2.542-.655,7.683-2.663s.162-1.952-.074-1.83l-10.732,3.983-3.532-.119-2.375,1.369-2.783-.064-4.1-.582-13.056-4.328-7.674-3.792-5.889-.784-3.986-2.819-2.674-1.389-1.18-2.122-9.877-1.779-2.1,2.653-2.652,1.068-5.141,2.008-5.993-.44-2.427.173-2.851-1.964-3.566-1.525-2.9-.494-2.616-1.175-2.363-.595-3.221-.237-4.436-2.852-3.179-3.461-3.867-.635-.749-1.879-3.065-1.208-7.841-3.594L73.683,3470l-5.427-2.714-8.936-4.025-11.97,1.646-9.446,2.113-3.781,1.055-2.773,1.621-4.985,1.037-2.789.006L17.1,3468Z" transform="translate(-14.937 -3411.311)" fill="#234e59" fill-rule="evenodd"/>
        <path id="Path_9076" data-name="Path 9076" d="M2419.18,4058.39l3.811-1.124,4.327-3.7,11.611-.643,7.735,4.872,4.992,5.232,5.751,6.972,1.8,3.781,6.4,5.241,2.481,2.8,10.162,5.893,1.166-4.389-2.15-.586-8.21-4.6-8.921-8.726-1.94-4.773-7.113-7.821-4.257-3.189-7.547-4.415-10.661.41-6.5,4.784-3.867,1.189Z" transform="translate(-2233.88 -3952.589)" fill="#234e59" fill-rule="evenodd"/>
        <path id="Path_9077" data-name="Path 9077" d="M1649.92,3877.14l3.693,3.618,10.3.663,6.139,2.322,10.908,4.17,6.314,3.832,1.552.675,4.506,8.658,4.331,4.716,4.786,4.094,8.535,2.5.917-3.768-.061-.205-5.572-.669-3.739-1.257-4.954-4.784-3.323-3.542-3.944-6.956-.315-2.55-8.527-4.416-4.73-2.032-4.206-1.081-4.944-1.275-2.737-.622-.95-1.263-9.514-.7-4.193-3.956Z" transform="translate(-1524.135 -3790.1)" fill="#234e59" fill-rule="evenodd"/>
        <path id="Path_9078" data-name="Path 9078" d="M.139,3542.66l-.139,2.8,4.171,3.02,9.751-.032,9.721-3.308,17.765-.939,7.73.1,2.819,1.143,8.158,3.406,7.1,1.645,8.065,5.739,6.145,2.229,4.155,3.206,5.118.1,1.058,2.978.227.186,3.207.776,12.155,8.822,5.962,4.438,11.663-1.285-.2-.221.493-2-.026-.033-1.558.3-10.136.448-18.573-12.312-2.771-1.116-.148-3.66-5.975-1.562-5.478-3.911-7.669-2.949-3.889-2.18-1.883-2.735-12.031-2.147-4.793-3.09L33.2,3539.89l-10.541,1.681-1.47,1.367-4.3,1.858-12.137,1.845Z" transform="translate(0 -3482.098)" fill="#234e59" fill-rule="evenodd"/>
        <path id="Path_9079" data-name="Path 9079" d="M1277.35,3926.53l5.756,4.729,13.819,9.062,9.535.139.117-3.827-.187-.2-6.558.606-6.748-.426Z" transform="translate(-1179.968 -3839.262)" fill="#234e59" fill-rule="evenodd"/>
        <path id="Path_9080" data-name="Path 9080" d="M2577.675,2790.965l-.152.011-1.406-1.226-.814-2.306-8.811-5.232-7.607-.372-2.775,1.948-2.013.039-5.2,3.359-1.053,1.794-2.889.911-.646,1.8,0,.018-4.677,4.287-7.8,3.169-.208,1.294-4.542.836-.516,3.19,8.473,3.851,11.075,1.563,8.75,4.151,19.094-1.216,7.513-4.547.485-2.818c.018.095-.416-.428-.416-.428l.118-1.418-.76-2.348.32-.818-.564-1.071.27-1.43-.976-.352.546-2.953-3.022-2.328.212-1.34,0-.02Z" transform="translate(-2333.942 -2781.84)" fill="#b4dbd6" fill-rule="evenodd"/>
        <path id="Path_9081" data-name="Path 9081" d="M2924.5,2805.961l-.75.208-6.628.542-6.093-.448-4.044-1.514-1.129-3.319-.728.474-.662,2.331.548,2.473,4.063,2.5,9.2,1.1,6.416-1.025Z" transform="translate(-2683.041 -2799.937)" fill="#234e59" fill-rule="evenodd"/>
        <path id="Path_9082" data-name="Path 9082" d="M2879,2817.644l-.048,0c-.327.56-.869,1.421-.869,1.421l-7.787.6-9.428-.833-5.7-2.758-.541-3.174.206-2.013.258-.166-.72,1.038-1.618,1.939.109,4.733,6.28,3.034,10.472,1.565,8.449-1.3.869-1.386-.165-1.042.056-.277-.031-.023.212-1.341,0-.019Z" transform="translate(-2635.264 -2808.519)" fill="#234e59" fill-rule="evenodd"/>
        <path id="Path_9083" data-name="Path 9083" d="M2805.218,2873.53l-.089.152-.049.015.12,5.857,4.29,2.187,5.881,2.4,9.527,1.448,8.7-1.325,3.645-2.043.506-2.728-2.939,1.679-8.511,1.433-10.083-1.4L2806,2877.181s-.514-2.384-.781-3.65Z" transform="translate(-2591.229 -2866.54)" fill="#234e59" fill-rule="evenodd"/>
        <path id="Path_9084" data-name="Path 9084" d="M2720.874,2984.661l-.3-.922.039-.1-1.409.865-3.374,1.3-5.487,1.327-5.047-.324-7.825-1.371-8.124-2.609-3.28-1.645-6.181-1.2-1.81-.616-.307,2.519c.049,0,6.146,1.013,6.146,1.013l5.085,2.292,6.733,2.413,11.629,1.556,7.458-.855,5.361-2.833.693-.8Z" transform="translate(-2473.624 -2964.301)" fill="#234e59" fill-rule="evenodd"/>
        <path id="Path_9085" data-name="Path 9085" d="M2773.69,2878.24l-.563.178-.739,1.172-.628,6.692,11.169,4.656,5.594,1.019,7.74.569,7.312-1.521,3.691-2.354-.112-.212.27-1.431-.976-.352,0-.016-1.5,1.661-2.322,1.326-7.335,1.192-9.5-1.167-9.3-3.583-3.606-1.949Z" transform="translate(-2560.449 -2870.89)" fill="#234e59" fill-rule="evenodd"/>
        <path id="Path_9086" data-name="Path 9086" d="M2579.674,3007.98l-.218.088-.208,1.294-1.116.205-.011.063,1.743,1.392,5.054,2.055,7.844,1.138,8.581,3.765,5.866.759,15.729-.622,6.092-3.762.342-.169c-.1-.117-.207-.242-.207-.242l.118-1.418-.035-.106-6.257,3.269-7.657.841-11.732-1.517-3.323-1.133-7.967-2.69-9.807-1.7-2.831-1.5Z" transform="translate(-2381.572 -2990.74)" fill="#234e59" fill-rule="evenodd"/>
        <path id="Path_9087" data-name="Path 9087" d="M2535.089,3026.37l-4.437.816-.222,1.371.569.5,7.163,3.287,13.791,2.745,5.42,2.5,4.079.487,7.553-.194,12.318-2.51,3.982-2.74.22-1.279c.018.094-.416-.428-.416-.428l.011-.131-3.935,2.6-2.268,1.284-4.852.345-11.848-.122-3.035-.364-6.215-2.609-5.078-1.776-8.528-1.376-4.274-2.415Z" transform="translate(-2337.517 -3007.728)" fill="#234e59" fill-rule="evenodd"/>
        <path id="Path_9088" data-name="Path 9088" d="M2527.119,3037l-.033.006-.516,3.189,8.473,3.851,11.075,1.562,8.75,4.152,19.094-1.217,7.513-4.547.454-2.633-6.491,3.944-20.074,1.519-9.006-4.686-11.572-1.038Z" transform="translate(-2333.951 -3017.547)" fill="#234e59" fill-rule="evenodd"/>
        <path id="Path_9089" data-name="Path 9089" d="M3196.121,3590.759l.232-1.139.01-.027-.293-1.4-4.013,4.149-6.23-1.206-2.872-4.14-5.67-.7-13.034,5.076.057,2.344,15.365-4.719,3.23,1.033,1.948,1.968,6.991,2.338s3.131-2.639,4.28-3.582Z" transform="translate(-2923.016 -3524.97)" fill="#234e59" fill-rule="evenodd"/>
        <path id="Path_9090" data-name="Path 9090" d="M3538.489,2787.127v-2.355l-5.616-.133-.539,1.645h-.015l.243.905,4.58.524Z" transform="translate(-3263.025 -2784.426)" fill="#234e59" fill-rule="evenodd"/>
        <path id="Path_9091" data-name="Path 9091" d="M3454.566,2811.047l.132-1.593-.245-.051-3.73,1.349-10.752-1.819-1.116-.833h-.022l-.213,1.365.569,1.607,10.695,2.517Z" transform="translate(-3176.469 -2806.098)" fill="#234e59" fill-rule="evenodd"/>
        <path id="Path_9092" data-name="Path 9092" d="M3387.273,2837.173l-1.567-.788-.127-.056-6.142,2.963-9.82-1.564-7.668-3.258-.069,2,1.118,1.1,5.961,2.636,10.806,1.168Z" transform="translate(-3105.579 -2830.458)" fill="#234e59" fill-rule="evenodd"/>
        <path id="Path_9093" data-name="Path 9093" d="M3310.041,2868.884l.023-2.544-8.2,4.254-19.546-1.811-3.14-3.824-1.159,2.339-.156.011,4.139,4.678,17.936,1.833,8.492-3.025Z" transform="translate(-3027.965 -2858.623)" fill="#234e59" fill-rule="evenodd"/>
        <path id="Path_9094" data-name="Path 9094" d="M3344.758,3018.4l-.2-.127.086-1.026-.594.52-4.115.54.672.985-.807,1.25-5.85,4.482-1.66.018-8.008,3.247-8.917.28-4.046.919-7.4-.4-.961,1.894,5.636.508,3.124-.706,9.036-.505,3.127-.145,7.036-3.038,3.373-.687,3.689-2.676,2.764-3.633,1.939.235Z" transform="translate(-3051.142 -2999.303)" fill="#234e59" fill-rule="evenodd"/>
        <path id="Path_9095" data-name="Path 9095" d="M3422.68,3322.675l4.529-6.122.075-1.963-4.195,5.59-14.863-9.185-3.6-5.645-9.356,1.324-9.089-.668,1.043,2.939,10.215,1.865,5.818-2.286,3.231,5.851s16.308,8.122,16.193,8.3Z" transform="translate(-3128.027 -3265.439)" fill="#234e59" fill-rule="evenodd"/>
        <path id="Path_9096" data-name="Path 9096" d="M3406.919,3242l-.639,2.854-14.271-9.048-3.228-7.113-9.336,1.7-10.964.129-.64-3.181,5.26-1.625s8.341.613,12.724-.141a38.648,38.648,0,0,1,4.933-.714l1.808,4.249,7.5-.2-.051,1.821-8.191.615,1.278,2.76s13.862,7.942,13.815,7.892Z" transform="translate(-3111.085 -3191.081)" fill="#234e59" fill-rule="evenodd"/>
        <path id="Path_9097" data-name="Path 9097" d="M3324.125,3025.93l-.143,2.328s-6.617,2.835-10.053,4.875-4.173,2.453-4.173,2.453l-18.418-.278-2.241,1.566-.138-1.367,2.806-2.32,18.69.625S3324.171,3025.98,3324.125,3025.93Z" transform="translate(-3038.219 -3007.321)" fill="#234e59" fill-rule="evenodd"/>
        <path id="Path_9098" data-name="Path 9098" d="M3288.425,2989.91l-.235,2.229-9.38,4.643-3.521,2.455-18.886-.686-4.2,3.386-.721-1.6,5.488-4.368,18.859,1.011s12.643-7.023,12.6-7.073Z" transform="translate(-3003.596 -2974.047)" fill="#234e59" fill-rule="evenodd"/>
        <path id="Path_9099" data-name="Path 9099" d="M2569.723,3170.8l-2.814,3.021-2.778.778-18.938,2.959-2.191,2.786-11.557-6.042-9.393.573-9.742,4.757.99,2.6,8.4-5,9.659-.132,10.877,5.15,2.688-3.311,20.573-.874,4.221-5.443s-.022-1.545,0-1.824Z" transform="translate(-2320.778 -3141.147)" fill="#234e59" fill-rule="evenodd"/>
        <path id="Path_9100" data-name="Path 9100" d="M2982.532,3252.6l-4.807,1.612-19.145,1.821-.3,1.8,23.882-2.6a15.041,15.041,0,0,0,.37-2.639Z" transform="translate(-2732.749 -3216.71)" fill="#234e59" fill-rule="evenodd"/>
        <path id="Path_9101" data-name="Path 9101" d="M2692.866,3318.59l-.209,2.51-2.65-.756-2.832-5.822-7.559-3.362-5.845,1.4-1.071-1.622,7.377-1.7,8.781,3.171,2.348,6.207s1.786.272,1.659-.018Z" transform="translate(-2468.941 -3269.023)" fill="#234e59" fill-rule="evenodd"/>
        <path id="Path_9102" data-name="Path 9102" d="M3141.835,3527.181l-.22,2.65-2.893.349-4.576,2.47-7.182,2.98-.713-2.3,8.783-2.3s6.48-3.594,6.8-3.851Z" transform="translate(-2887.913 -3470.358)" fill="#234e59" fill-rule="evenodd"/>
        <path id="Path_9103" data-name="Path 9103" d="M1869.156,3409.74l-9.37.294-19.671-4.533-10.383-2.026-4.357-.18-7.089,1.865-4.2-.308-17.91-2.158-10.359-4.13-10.222-2.154-5.093-2.2-.105,3.08,5.531,2.371,8.782,1.347,9.875,4.515,21.516,2.284,10.155-2.482,15.3,2.668,15.926,4.258,5.774,1.266,6.132-1.233a9.633,9.633,0,0,0-.241-2.544Z" transform="translate(-1635.43 -3347.525)" fill="#234e59" fill-rule="evenodd"/>
        <path id="Path_9104" data-name="Path 9104" d="M1887.99,3187.987l-.068-2.811-11.477-3.37-10.316.785-10.488-.77-8.333.51-9.335-.125-14.672-1.219-8.906-5.285-5.279.033-6.091-11.955-1.023-5.83-.923,2.038.424,5.785,6.69,12,6.719.774,8.193,4.813,14.763,1.926,11.064-.73,7.123-.459,11.041,1.373,9.3-1.281Z" transform="translate(-1663.771 -3129.276)" fill="#234e59" fill-rule="evenodd"/>
        <path id="Path_9105" data-name="Path 9105" d="M1913.776,3159.773l.379,2.694-6.27,1.083-14.142-.338-16.919.44-14.211-1.324-7.639-4.21-7.119-6.839-3.533-10.083,1.211-1.875,3.21,10.34,5.864,5.623,9.852,4.794,11.939,1.439,18.291-.62,13.346.841s6.167-1.652,5.741-1.964Z" transform="translate(-1703.715 -3112.068)" fill="#234e59" fill-rule="evenodd"/>
        <path id="Path_9106" data-name="Path 9106" d="M1951.684,3138.963l-.047,2.382-3.781.144-16.907-1.523-14.015,1.776-10.58-1.479-5.693-2.243-7.569-6.871-2.948-4.427-.6-7.342,2.106,7.313,8.478,8.623,8,3.535,11.709.58,9.889-1.1,15.767.738S1951.973,3139.125,1951.684,3138.963Z" transform="translate(-1745.495 -3093.647)" fill="#234e59" fill-rule="evenodd"/>
        <path id="Path_9107" data-name="Path 9107" d="M1926.94,3516.86l-3.032,2.022-11.341.429-6.452-3.983-19.21-6.464-8.989-.661-10.5,3.018-11.074-2.779-10.1-.041-9.414-4.621-9.969.249-.232,2.79,10.88-.323,9.472,3.924,10.4.062,11.166,3.487,10.721-3.843,8.655,1.057,18.011,6.376,5.783,4.776,11.561-1.256s3.656-4.082,3.667-4.221Z" transform="translate(-1687.373 -3448.742)" fill="#234e59" fill-rule="evenodd"/>
        <path id="Path_9108" data-name="Path 9108" d="M3230.611,3704.625l-16.892-7.135-8.29,5.425-.358,2.5,7.967-5.168,17.48,7.319a19.3,19.3,0,0,0,.094-2.941Z" transform="translate(-2960.725 -3627.683)" fill="#234e59" fill-rule="evenodd"/>
        <path id="Path_9109" data-name="Path 9109" d="M3251.51,3956.09l-4.613,6.537-13.936,2.625-.382,2.779,14.628-3.7S3251.649,3956.241,3251.51,3956.09Z" transform="translate(-2986.137 -3866.569)" fill="#234e59" fill-rule="evenodd"/>
        <path id="Path_9110" data-name="Path 9110" d="M3137.6,4256.439l-.162,1.953-9.983,3.126-.95-2.176s11.25-2.961,11.094-2.9Z" transform="translate(-2888.154 -4144.02)" fill="#234e59" fill-rule="evenodd"/>
        <path id="Path_9111" data-name="Path 9111" d="M2450.1,4025.511l-7.508-2.166-7.654-8.562-.027-4.212-20.875-18.164-14.114,1.138-7.148,5.3-4.542,1.14-.2-2.12,5.291-1.084,7.345-5.846,14.315-.843,20.944,18.239-.187,4.969,7.038,7.815,9.023,2.066s-1.545,2.272-1.7,2.331Z" transform="translate(-2205.973 -3897.977)" fill="#234e59" fill-rule="evenodd"/>
        <path id="Path_9112" data-name="Path 9112" d="M1641.976,3853.167l-.175,3-2.656-.686-3.8-2.384-4.141-4.585-5.424-10.011-3.67-2.094-16.137-8.063-7.451-1.038-4.35-1.162-6.419-.753-4.337-4.038-5.57,7.169-.31-1.707,6.124-7.479,4.377,3.55,4,.785,4.045.3,5.335,2.006,5.895.714,18.96,9.462,5.648,9.116,3.484,4.326,2.235,2.129s4.471,1.522,4.327,1.441Z" transform="translate(-1457.272 -3740.244)" fill="#234e59" fill-rule="evenodd"/>
        <path id="Path_9113" data-name="Path 9113" d="M1036.567,3447.314l-2.85,5.263-8.168,3.96-6.149.531-13.679,6.783-7.035-2.411L995.7,3457.5l-.226-8.156-.766-1.67-1.4-.384-9.987.459-2.363-.595-8.872-6.616-.2,2.441,8.623,6.879,2.789.906,2.369-.387,9.3-.3.457,8.1-.053,2.452,5.08,4.163,5.7,1.191,14.969-6.9,5.78-.627,6.467-3.454,1.614-1.284s1.651-6.264,1.588-6.409Z" transform="translate(-897.787 -3390.323)" fill="#234e59" fill-rule="evenodd"/>
        <path id="Path_9114" data-name="Path 9114" d="M1143.659,3422.274l-2.378,7.754-13.261.85-9.575,5.471-3.065-1.208-1.192-1.07-.422-9.434-5.818-3.446-10.879-1.5-2.673-2.3-.307,2.784,2.794,1.749,10.844,1.92,5.664,2.591.594,10.99,4.684,1.677,10.22-5.985,12.828-1.092s2-9.537,1.941-9.751Z" transform="translate(-1010.68 -3368.937)" fill="#234e59" fill-rule="evenodd"/>
        <path id="Path_9115" data-name="Path 9115" d="M1259.7,3396.473l-9.245,4.232-11.295-1.041-10.473-5.471-2.916-.284.232-2.789,3.694.9,10.071,4.88,11.456.912,8.462-3.869a12.635,12.635,0,0,0,.016,2.527Z" transform="translate(-1132.321 -3344.67)" fill="#234e59" fill-rule="evenodd"/>
        <path id="Path_9116" data-name="Path 9116" d="M1379.52,3368.368l-.041,2.312-6.074.536-2-.428-2.005-1.27.514-2.559,3.756,1.96s5.861-.692,5.849-.552Z" transform="translate(-1265.001 -3322.352)" fill="#234e59" fill-rule="evenodd"/>
        <path id="Path_9117" data-name="Path 9117" d="M1762.64,3201.17l2.087,10.258-.71,2.193S1762.7,3201.385,1762.64,3201.17Z" transform="translate(-1628.261 -3169.201)" fill="#234e59" fill-rule="evenodd"/>
        <path id="Path_9118" data-name="Path 9118" d="M1718.217,3234.4l-.366-5.57-.651.583Z" transform="translate(-1586.285 -3194.752)" fill="#234e59" fill-rule="evenodd"/>
        <path id="Path_9119" data-name="Path 9119" d="M1998.7,2977.633l3.226,1.991-.116,1.4-3.511,4.163-6.07,3.2-6.727,3.857-3.009,1.743-7.407,2.052-12.562-1.2-11.318-11.638-.537-8.039,3.429-.45.26-1.314,3.164-.89.2-1.459,3.573-1.281.4-1.234,3.643-.293.185-1.32,2.957-.2.323-1.169,7.342.54,4.188,3.114.467.736,2.609,2.157,7.583.347,3.688.06,1.55,1.307-.1,1.186,2.616,1.175s.1,1.481-.047,1.469Z" transform="translate(-1801.956 -2951.536)" fill="#b4dbd6" fill-rule="evenodd"/>
        <path id="Path_9120" data-name="Path 9120" d="M2165.783,2966.741l.171-.012.323-1.169,7.342.539,4.188,3.115.15.236v2.853l-5.459,2.651-7.741-2.077-.316-1.637Z" transform="translate(-1999.429 -2951.554)" fill="#234e59" fill-rule="evenodd"/>
        <path id="Path_9121" data-name="Path 9121" d="M2179.522,2966.733l.059,0,.323-1.169,7.341.539,4.188,3.115.283.445-5.8,2.789-5.347-1.41-1.38-1.084Z" transform="translate(-2013.055 -2951.554)" fill="#b4dbd6" fill-rule="evenodd"/>
        <path id="Path_9122" data-name="Path 9122" d="M2031.614,3042.1l-.379,6.01,6.152,5.785,11.478,2.458,19.579-6.139-.376,1.8-13.181,5.346-5.781,1.539-12.222-2.582-6.175-6.417Z" transform="translate(-1875.894 -3022.258)" fill="#234e59" fill-rule="evenodd"/>
        <path id="Path_9123" data-name="Path 9123" d="M2032.687,3072.5l.075.047-3.42,5.742-11.148,6.267-9.423,2.746-12.1-1.311-9.209-9.8.6-6.616.028,0,.26-1.314.075-.021.025,6.063,8.881,9.213,11.461,1.754,10.133-3.114,11.142-6.2,2.691-4.564C2032.774,3071.833,2032.788,3072.51,2032.687,3072.5Z" transform="translate(-1835.941 -3046.406)" fill="#234e59" fill-rule="evenodd"/>
        <path id="Path_9124" data-name="Path 9124" d="M2002.248,3102.844l.151.093-.116,1.4-3.511,4.163-6.07,3.2-6.727,3.856-3.009,1.744-7.406,2.052-12.562-1.2-11.318-11.637-.5-7.477,1.105,6.539,10.834,11.111,12.983.673,5.245-1.439,4.57-1.488,6.219-4.1,6.595-3.165Z" transform="translate(-1802.428 -3074.849)" fill="#234e59" fill-rule="evenodd"/>
        <path id="Path_9125" data-name="Path 9125" d="M2070.856,3012.955l-.262,5.419,1.44,1.72,2.356,2.032,10.771,2.792,12.064-5.955-.071,3.573-12.26,5.133-6.1-.554-5.618-1.781-3.911-3.726S2070.787,3012.879,2070.856,3012.955Z" transform="translate(-1911.515 -2995.335)" fill="#234e59" fill-rule="evenodd"/>
        <path id="Path_9126" data-name="Path 9126" d="M2110.011,2995.93l.112.465-1.18,3.316.014,1.194,1.507,1.374,4.123,1.18,5.955,1.35,8.246-4.9-.307,3.7-8.257,4.13-9.354-2.617-3.408-1.619.561-4.941S2110.06,2995.794,2110.011,2995.93Z" transform="translate(-1946.793 -2979.604)" fill="#234e59" fill-rule="evenodd"/>
      </g>
    </g>
    <g id="Group_10027" data-name="Group 10027" transform="translate(289.526 198.275)">
      <path id="Path_9127" data-name="Path 9127" d="M4267.764,2699.7l7.225-9.769.137-3.573-11.506-10.1,3.485-7.208,3.815-5.391.066-8.5-1.911-4.022-2.045-4.329,2.564-5.782-3.811-2.369.173-2.077-10.528-4.506-3.469-.7-4.263-6.583.039-4.326-.547-1.312-2.6-1.307-3.248-1.433.222-2.67-4.413-.922v-3.881l-8.961-.21-.859,2.623-11.082.23-.345,2.214-9.219.964-.113,3.276-8.042.3-1.926,3.888-10.322.734L4184.04,2621l-1.3-3.677-14.057-8.347-12.135-.593-4.428,3.108-3.211.063-8.3,5.36-1.681,2.862-4.61,1.452-1.044,2.908-6.694,3.389-5.774.024-13.323-3.666L4093.8,2628.4l-17.761-4.291-9.728-8.327-18.093-2.225-20.38-11.349-13.509-1.441-3.041,3.807-5.775,1.964-.272,5.2,19.954,4.9,2.241,3.9-17.069,10.538-14.885,5.474-13.525,6.469-7.882.316-4.412-2.862-10.814,4.728-12.615,1.312-4.88,2.776-4.165-5.829-7.392.2-12.684-7.5-20.017-2.218-12.053,4.189-35.8,14.086-11.721,2.124-6.6,6.083-4.279,1.327-3.281,14.387-3.607,6.75-.076,4.771-15.631,2.882-3.143,8.874-3.006,5.3-.235,4.76,6.654,4.817,15.556-.051,15.51-5.279,28.343-1.5,12.332.16,4.5,1.823,13.015,5.434,11.326,2.624,12.867,9.155,9.805,3.556,6.63,5.115,8.164.153,1.689,4.751,18.16,14.918,22.047,14.457,15.213.222.186-6.106-2.94-3.2.786-3.189-4.667-6.052,5.469-4.076,5.93,5.809,16.426,1.059,9.792,3.7,17.4,6.653,10.073,6.114,2.476,1.078,7.189,13.812,6.91,7.523,7.634,6.532,13.618,3.986,1.461-6.013-4.136-13.887.211-6.4,6.082-1.792,6.9-5.911,18.523-1.027,12.34,7.773,7.964,8.347,9.176,11.123,2.866,6.032,10.207,8.363,3.957,4.47,16.213,9.4,1.867-7.028-3.539-5.634.345-4.154-2.683-4.377,13.769-3.615.752-7.109-2.006-8.655,6.793-2.635,25.968-9.585,8.82-11.592-.194-3.448-13.454-13.676-7.833-.278-3.136-4.708,3.531-.039,21.2,11.112,1.242-7.223-12.337-15.535,4.94-3.518,2.176-10.736,3.228-7.972-5.069-12.314-7.109-1.269-10-5.064-6.434-3.608,2.7-3.532,16.426,3,9.281-3.646,5.156,9.334s26.018,12.958,25.834,13.243Z" transform="translate(-3797.662 -2600.769)" fill="#b4dbd6" fill-rule="evenodd"/>
      <path id="Path_9128" data-name="Path 9128" d="M5466.632,3705.992l1.7-13.381-17.809-16.557-53.986-9.2L5381.51,3659l-.625-1.625-9.037-5.452-8.662-2.6-.17-3.638-12.558-3.585-7.214-1.677-4.549-2.7-10.059.2-10.319,2.475-7.164.824-.517,4.059-15.012-.962-.357,4.145-14.361-1.412-.057,3.264-9.609,1.024-1.952,3.777-.111,6.963,8.889,5.664,7.619,4.045,7.528,5.128,12.609,8.769,6.352-.4,9.319,3.3,12.554,6.586,17.39-.9,6.46-4.535,3.83-3.857,13.613,2.308,4.667,5.789,8.262,4.746,7.406.98,6.35,2.427,24.217,9.84,14.472.41,3.649-1.692,2.792.2,12.471-3.657s6.718-.6,7-1.228Z" transform="translate(-5156.995 -3558.666)" fill="#b4dbd6" fill-rule="evenodd"/>
      <g id="Group_10026" data-name="Group 10026" transform="translate(0.001 7.617)">
        <path id="Path_9129" data-name="Path 9129" d="M9026.865,2984.772l-.913-1.412-16.383,8.145-33.129-.718-9.79,2.042.876,2.976,7.164-1.34,31.572,1.127,8.019-2.918Z" transform="translate(-8572.582 -2961.81)" fill="#234e59" fill-rule="evenodd"/>
        <path id="Path_9130" data-name="Path 9130" d="M9890.738,3134.724l2.252-5.074-7.81,1.672Z" transform="translate(-9421.085 -3096.947)" fill="#234e59" fill-rule="evenodd"/>
        <path id="Path_9131" data-name="Path 9131" d="M8827.981,4688.625l13.7-3.6.711-6.738-17.043,5.664,2.632,4.671Zm12.478-19.214-.034-.148,6.792-2.636,25.969-9.584,8.82-11.592-.179-3.171-6.52,9.186-26.934,8.655-9,7.063,1.089,2.227Z" transform="translate(-8442.052 -4494.258)" fill="#234e59" fill-rule="evenodd"/>
        <path id="Path_9132" data-name="Path 9132" d="M3824.957,3795.34l-.212.6-1.274,2.247,10.519,5.573,7.843-.319,9.692-2.31,8.663-4.4,10.712-1.564,21.047-2.931,5.782,1.32,16.38,8.368,13.587,2.9,17.217,6.975,1.865,2.152,6.177,2.357,6.249,7.288,7.17,1.983,4.688,1.464,3.383-.2,8.907,4.237,6.223,3.256,6.168,1.014,14.4.386,10.742-6.263,1.748-2.222,15.307,2.469,2.931,3.8,12,6.143,6.49,1.484,18.725,7.645,18.854,6.088,4.681-1.335,5.894-.015,2.6-2.383,4.33-.017,4.055-1.046,12.257-4.249s.26-3.115-.118-2.919l-17.123,6.354-5.636-.19-3.789,2.184-4.442-.1-6.536-.927-20.831-6.905-12.243-6.049-9.4-1.25-6.36-4.5-4.265-2.217-1.883-3.385-15.757-2.838-3.358,4.231-4.23,1.7-8.2,3.2-9.562-.7-3.871.275-4.549-3.134-5.689-2.433-4.625-.788-4.173-1.874-3.769-.95-5.139-.377-7.077-4.551-5.073-5.522-6.168-1.013-1.193-3-4.891-1.927-12.51-5.733-13.064-1.968-8.658-4.33-14.257-6.421-19.1,2.626-15.071,3.37-6.032,1.684-4.424,2.585-7.954,1.654-4.449.009-10.332-4.372Z" transform="translate(-3821.503 -3704.904)" fill="#234e59" fill-rule="evenodd"/>
        <path id="Path_9133" data-name="Path 9133" d="M7657.339,4737.316l6.08-1.792,6.905-5.911,18.524-1.027,12.341,7.773,7.963,8.347,9.177,11.123,2.865,6.032,10.207,8.363,3.958,4.471,16.213,9.4,1.86-7-3.43-.936-13.1-7.344-14.234-13.92-3.094-7.616-11.349-12.477-6.792-5.089-12.041-7.042-17.01.652-10.374,7.634-6.17,1.9Z" transform="translate(-7361.704 -4568.519)" fill="#234e59" fill-rule="evenodd"/>
        <path id="Path_9134" data-name="Path 9134" d="M6430.021,4448.141l5.892,5.771,16.426,1.058,9.793,3.706,17.4,6.652,10.073,6.115,2.477,1.079,7.189,13.812,6.91,7.523,7.633,6.532,13.618,3.987,1.461-6.013-.1-.328-8.89-1.067-5.966-2-7.9-7.633-5.3-5.652-6.292-11.1-.5-4.068-13.6-7.045-7.547-3.241-6.71-1.725-7.888-2.035-4.366-.993-1.516-2.015-15.18-1.115-6.689-6.313Z" transform="translate(-6229.337 -4309.273)" fill="#234e59" fill-rule="evenodd"/>
        <path id="Path_9135" data-name="Path 9135" d="M3797.892,3914.5l-.222,4.475,6.655,4.817,15.556-.05,15.51-5.279,28.343-1.5,12.332.16,4.5,1.823,13.016,5.434,11.326,2.624,12.867,9.155,9.8,3.557,6.63,5.115,8.164.152,1.69,4.751.362.3,5.116,1.238,19.393,14.076,9.512,7.08,18.606-2.048-.324-.353.786-3.188-.041-.054-2.485.479-16.172.714-29.632-19.642-4.422-1.781-.236-5.839-9.533-2.492-8.74-6.24-12.235-4.706-6.2-3.479-3-4.362-19.2-3.426-7.647-4.928-27.333-1-16.817,2.682-2.346,2.179-6.86,2.966-19.364,2.943Z" transform="translate(-3797.67 -3817.879)" fill="#234e59" fill-rule="evenodd"/>
        <path id="Path_9136" data-name="Path 9136" d="M5835.61,4526.95l9.184,7.544,22.046,14.457,15.213.223.188-6.106-.3-.325-10.462.966-10.766-.68Z" transform="translate(-5680.244 -4387.72)" fill="#234e59" fill-rule="evenodd"/>
        <path id="Path_9137" data-name="Path 9137" d="M7910.212,2715.237l-.242.017-2.242-1.956-1.3-3.678-14.057-8.347-12.136-.593-4.428,3.108-3.212.063-8.3,5.36-1.682,2.862-4.609,1.452-1.031,2.876,0,.028-7.462,6.84-12.445,5.056-.332,2.066-7.246,1.333-.824,5.09,13.519,6.143,17.67,2.493,13.959,6.624,30.462-1.94,11.987-7.254.775-4.5c.027.152-.664-.683-.664-.683l.187-2.263-1.212-3.746.51-1.306-.9-1.708.43-2.282-1.556-.562.872-4.712-4.822-3.713.34-2.139-.007-.03Z" transform="translate(-7521.35 -2700.68)" fill="#b4dbd6" fill-rule="evenodd"/>
        <path id="Path_9138" data-name="Path 9138" d="M8463.544,2739.139l-1.2.33-10.573.865-9.721-.715-6.454-2.415-1.8-5.294-1.161.756-1.058,3.72.874,3.945,6.483,3.984,14.685,1.751,10.237-1.636Z" transform="translate(-8078.304 -2729.529)" fill="#234e59" fill-rule="evenodd"/>
        <path id="Path_9139" data-name="Path 9139" d="M8390.974,2757.785l-.075.006c-.522.893-1.387,2.266-1.387,2.266l-12.425.953-15.04-1.329-9.095-4.4-.861-5.064.33-3.211.411-.265-1.149,1.656-2.583,3.094.174,7.551,10.019,4.841,16.708,2.5,13.479-2.069,1.385-2.211-.262-1.661.088-.443-.048-.038.338-2.139,0-.031Z" transform="translate(-8002.111 -2743.229)" fill="#234e59" fill-rule="evenodd"/>
        <path id="Path_9140" data-name="Path 9140" d="M8273.222,2846.92l-.143.243-.079.024.19,9.344,6.845,3.489,9.383,3.823,15.2,2.311,13.883-2.114,5.816-3.26.806-4.352-4.688,2.679-13.577,2.286-16.089-2.227-16.3-6.422s-.821-3.8-1.248-5.825Z" transform="translate(-7931.813 -2835.771)" fill="#234e59" fill-rule="evenodd"/>
        <path id="Path_9141" data-name="Path 9141" d="M8138.642,3024.249l-.477-1.472.063-.159-2.248,1.379-5.384,2.067-8.753,2.118-8.054-.517-12.484-2.187-12.962-4.162-5.232-2.624-9.861-1.919-2.889-.983-.49,4.019c.08.006,9.806,1.616,9.806,1.616l8.114,3.656,10.742,3.849,18.553,2.483,11.9-1.365,8.554-4.521,1.1-1.28Z" transform="translate(-7744.17 -2991.767)" fill="#234e59" fill-rule="evenodd"/>
        <path id="Path_9142" data-name="Path 9142" d="M8222.93,2854.45l-.9.283-1.178,1.871-1,10.677,17.82,7.429,8.924,1.626,12.351.908,11.665-2.427,5.889-3.756-.177-.339.429-2.282-1.556-.562,0-.025-2.387,2.648-3.7,2.116-11.7,1.9-15.158-1.861-14.835-5.717-5.755-3.11Z" transform="translate(-7882.715 -2842.727)" fill="#234e59" fill-rule="evenodd"/>
        <path id="Path_9143" data-name="Path 9143" d="M7913.4,3061.44l-.347.141-.333,2.065-1.781.328-.019.1,2.783,2.219,8.065,3.28,12.515,1.815,13.689,6.007,9.359,1.21,25.094-.992,9.718-6,.546-.27c-.166-.186-.332-.386-.332-.386l.188-2.262-.055-.17-9.983,5.216-12.216,1.341-18.718-2.42-5.3-1.807-12.71-4.293-15.647-2.717-4.516-2.4Z" transform="translate(-7597.338 -3033.937)" fill="#234e59" fill-rule="evenodd"/>
        <path id="Path_9144" data-name="Path 9144" d="M7842.272,3090.79l-7.079,1.3-.354,2.187.908.8,11.429,5.244,22,4.378,8.647,3.994,6.509.777,12.051-.308,19.653-4,6.353-4.37.352-2.041c.028.152-.665-.683-.665-.683l.018-.208-6.277,4.151-3.617,2.047-7.742.551-18.9-.2-4.842-.58-9.916-4.162-8.1-2.834-13.606-2.194Z" transform="translate(-7527.057 -3061.049)" fill="#234e59" fill-rule="evenodd"/>
        <path id="Path_9145" data-name="Path 9145" d="M7829.546,3107.74l-.053.01-.823,5.09,13.518,6.143,17.67,2.493,13.959,6.623,30.465-1.94,11.985-7.254.725-4.2-10.357,6.291-32.027,2.423-14.37-7.475-18.46-1.656Z" transform="translate(-7521.357 -3076.707)" fill="#234e59" fill-rule="evenodd"/>
        <path id="Path_9146" data-name="Path 9146" d="M8896.906,3991.254l.369-1.817.017-.043-.466-2.23-6.4,6.619-9.94-1.925-4.581-6.606-9.046-1.112-20.795,8.1.089,3.739,24.516-7.528,5.153,1.648,3.105,3.138,11.155,3.73s4.994-4.209,6.827-5.714Z" transform="translate(-8461.186 -3886.293)" fill="#234e59" fill-rule="evenodd"/>
        <path id="Path_9147" data-name="Path 9147" d="M9443.133,2709.1v-3.758l-8.96-.21-.859,2.624h-.023l.386,1.444,7.306.835Z" transform="translate(-9003.647 -2704.79)" fill="#234e59" fill-rule="evenodd"/>
        <path id="Path_9148" data-name="Path 9148" d="M9309.23,2747.251l.211-2.541-.393-.081-5.95,2.153-17.155-2.9-1.779-1.328h-.035l-.34,2.179.908,2.565,17.062,4.015Z" transform="translate(-8865.543 -2739.358)" fill="#234e59" fill-rule="evenodd"/>
        <path id="Path_9149" data-name="Path 9149" d="M9201.863,2788.932l-2.5-1.256-.2-.09-9.8,4.728-15.667-2.495-12.234-5.2-.108,3.194,1.784,1.752,9.51,4.207,17.242,1.864Z" transform="translate(-8752.437 -2778.221)" fill="#234e59" fill-rule="evenodd"/>
        <path id="Path_9150" data-name="Path 9150" d="M9078.65,2839.531l.036-4.058-13.084,6.787-31.185-2.889-5.011-6.1-1.851,3.732-.248.018,6.6,7.464,28.618,2.924,13.549-4.825Z" transform="translate(-8628.615 -2823.162)" fill="#234e59" fill-rule="evenodd"/>
        <path id="Path_9151" data-name="Path 9151" d="M9134.042,3078.07l-.325-.2.136-1.638-.948.831-6.565.861,1.072,1.572-1.288,2-9.332,7.15-2.647.029-12.777,5.181-14.226.448-6.455,1.465-11.812-.643-1.533,3.021,8.991.81,4.983-1.127,14.417-.806,4.989-.23,11.225-4.847,5.383-1.1,5.886-4.269,4.411-5.8,3.094.377Z" transform="translate(-8665.597 -3047.599)" fill="#234e59" fill-rule="evenodd"/>
        <path id="Path_9152" data-name="Path 9152" d="M9258.363,3563.521l7.228-9.768.118-3.133-6.69,8.919-23.715-14.654-5.744-9.006-14.927,2.113-14.5-1.066,1.665,4.689,16.3,2.975,9.281-3.647,5.156,9.335S9258.547,3563.236,9258.363,3563.521Z" transform="translate(-8788.263 -3472.206)" fill="#234e59" fill-rule="evenodd"/>
        <path id="Path_9153" data-name="Path 9153" d="M9233.18,3434.808l-1.019,4.551-22.77-14.435-5.149-11.349-14.9,2.712-17.494.206-1.021-5.075,8.393-2.593s13.307.979,20.3-.224,7.871-1.138,7.871-1.138l2.882,6.78,11.971-.313-.08,2.9-13.068.979,2.041,4.4S9233.255,3434.888,9233.18,3434.808Z" transform="translate(-8761.196 -3353.579)" fill="#234e59" fill-rule="evenodd"/>
        <path id="Path_9154" data-name="Path 9154" d="M9101.135,3090.08l-.229,3.715s-10.557,4.523-16.037,7.777-6.659,3.914-6.659,3.914l-29.384-.443-3.575,2.5-.22-2.18,4.477-3.7,29.819,1S9101.209,3090.16,9101.135,3090.08Z" transform="translate(-8644.986 -3060.393)" fill="#234e59" fill-rule="evenodd"/>
        <path id="Path_9155" data-name="Path 9155" d="M9044.172,3032.61l-.377,3.555-14.965,7.408-5.615,3.916-30.133-1.095-6.7,5.4-1.15-2.548,8.756-6.969,30.089,1.614s20.171-11.205,20.1-11.285Z" transform="translate(-8589.745 -3007.304)" fill="#234e59" fill-rule="evenodd"/>
        <path id="Path_9156" data-name="Path 9156" d="M7897.529,3321.2l-4.488,4.82-4.433,1.241-30.215,4.719-3.5,4.445-18.439-9.639-14.987.913-15.542,7.59,1.58,4.146,13.409-7.971,15.409-.211,17.354,8.216,4.286-5.282,32.824-1.394,6.734-8.685s-.035-2.466,0-2.911Z" transform="translate(-7500.351 -3273.894)" fill="#234e59" fill-rule="evenodd"/>
        <path id="Path_9157" data-name="Path 9157" d="M8556.124,3451.73l-7.67,2.571-30.544,2.9-.479,2.876,38.1-4.14S8556.345,3451.97,8556.124,3451.73Z" transform="translate(-8157.609 -3394.472)" fill="#234e59" fill-rule="evenodd"/>
        <path id="Path_9158" data-name="Path 9158" d="M8093.975,3557.012l-.333,4.006-4.229-1.206-4.519-9.288-12.061-5.364-9.324,2.225-1.709-2.588,11.77-2.717,14.009,5.06,3.747,9.9s2.849.433,2.647-.029Z" transform="translate(-7736.715 -3477.934)" fill="#234e59" fill-rule="evenodd"/>
        <path id="Path_9159" data-name="Path 9159" d="M8810.275,3889.82l-.351,4.228-4.616.556-7.3,3.941-11.458,4.755-1.138-3.666,14.013-3.672S8809.759,3890.23,8810.275,3889.82Z" transform="translate(-8405.158 -3799.163)" fill="#234e59" fill-rule="evenodd"/>
        <path id="Path_9160" data-name="Path 9160" d="M6779.819,3702.438l-14.95.469-31.385-7.233-16.566-3.232-6.95-.287-11.31,2.975-6.693-.492-28.573-3.443-16.528-6.589-16.308-3.437-8.126-3.508-.167,4.914,8.824,3.783,14.011,2.149,15.755,7.2,34.329,3.643,16.2-3.959,24.417,4.258,25.409,6.793,9.211,2.02,9.784-1.967s.038-3.356-.384-4.059Z" transform="translate(-6406.923 -3603.178)" fill="#234e59" fill-rule="evenodd"/>
        <path id="Path_9161" data-name="Path 9161" d="M6809.851,3348.632l-.107-4.486-18.312-5.376-16.458,1.254-16.733-1.23-13.293.814-14.9-.2-23.407-1.945-14.209-8.433-8.422.053-9.718-19.074-1.631-9.3-1.473,3.25.675,9.23,10.674,19.144,10.719,1.235,13.071,7.678,23.553,3.074,17.653-1.166,11.364-.732,17.616,2.19,14.839-2.044Z" transform="translate(-6452.121 -3254.965)" fill="#234e59" fill-rule="evenodd"/>
        <path id="Path_9162" data-name="Path 9162" d="M6851,3303.61l.6,4.3-10,1.728-22.562-.539-26.994.7-22.671-2.114-12.188-6.717-11.359-10.91-5.637-16.088,1.934-2.992,5.122,16.5,9.354,8.971,15.719,7.648,19.048,2.3,29.183-.99,21.292,1.341s9.839-2.635,9.159-3.133Z" transform="translate(-6515.859 -3227.502)" fill="#234e59" fill-rule="evenodd"/>
        <path id="Path_9163" data-name="Path 9163" d="M6911.474,3270.424l-.076,3.8-6.032.229-26.974-2.43-22.361,2.834-16.879-2.36-9.082-3.579-12.076-10.963-4.7-7.063-.95-11.712,3.36,11.666,13.527,13.756,12.758,5.639,18.681.926,15.779-1.751,25.155,1.177s10.333.088,9.874-.17Z" transform="translate(-6582.51 -3198.126)" fill="#234e59" fill-rule="evenodd"/>
        <path id="Path_9164" data-name="Path 9164" d="M6871.942,3873.346l-4.837,3.227-18.094.685-10.294-6.354-30.648-10.313-14.342-1.054-16.753,4.814-17.669-4.433-16.109-.065-15.019-7.373-15.907.4-.369,4.451,17.358-.515,15.112,6.26,16.586.1,17.815,5.564,17.1-6.132,13.809,1.687,28.736,10.172,9.227,7.619,18.445-2s5.832-6.512,5.85-6.735Z" transform="translate(-6489.728 -3764.67)" fill="#234e59" fill-rule="evenodd"/>
        <path id="Path_9165" data-name="Path 9165" d="M8951.919,4172.9l-26.951-11.384-13.225,8.656-.572,3.988,12.71-8.246,27.89,11.677s.388-4.673.149-4.691Z" transform="translate(-8521.332 -4050.15)" fill="#234e59" fill-rule="evenodd"/>
        <path id="Path_9166" data-name="Path 9166" d="M8985.251,4574.1l-7.359,10.43-22.233,4.188-.609,4.434,23.338-5.9s7.084-12.913,6.864-13.152Z" transform="translate(-8561.864 -4431.276)" fill="#234e59" fill-rule="evenodd"/>
        <path id="Path_9167" data-name="Path 9167" d="M8803.521,5053.283l-.259,3.116-15.928,4.987-1.515-3.469s17.948-4.727,17.7-4.633Z" transform="translate(-8405.536 -4873.926)" fill="#234e59" fill-rule="evenodd"/>
        <path id="Path_9168" data-name="Path 9168" d="M7706.637,4684.882l-11.979-3.456-12.212-13.66-.042-6.72-33.306-28.98-22.517,1.815-11.405,8.454-7.245,1.819-.32-3.382,8.44-1.731,11.718-9.326,22.838-1.344,33.416,29.1-.3,7.926,11.229,12.468,14.4,3.3s-2.466,3.625-2.714,3.72Z" transform="translate(-7317.151 -4481.409)" fill="#234e59" fill-rule="evenodd"/>
        <path id="Path_9169" data-name="Path 9169" d="M6417.336,4409.9l-.278,4.793-4.238-1.095-6.057-3.8-6.607-7.314-8.652-15.973-5.855-3.341L6359.9,4370.3l-11.887-1.657-6.941-1.853-10.241-1.2-6.92-6.442-8.887,11.437-.5-2.723,9.771-11.932,6.984,5.662,6.389,1.254,6.455.475,8.512,3.2,9.4,1.139,30.25,15.1,9.013,14.544,5.558,6.9,3.565,3.4s7.134,2.427,6.9,2.3Z" transform="translate(-6122.651 -4229.739)" fill="#234e59" fill-rule="evenodd"/>
        <path id="Path_9170" data-name="Path 9170" d="M5451.5,3762.368l-4.546,8.4-13.031,6.319-9.811.846-21.823,10.823-11.225-3.848-4.769-6.284-.361-13.013-1.221-2.665-2.234-.612-15.934.732-3.769-.949-14.153-10.556-.324,3.894,13.758,10.974,4.448,1.446,3.78-.617,14.83-.477.729,12.927-.085,3.912,8.107,6.641,9.1,1.9,23.882-11.007,9.223-1,10.317-5.511,2.576-2.05s2.635-9.994,2.533-10.225Z" transform="translate(-5230.085 -3671.444)" fill="#234e59" fill-rule="evenodd"/>
        <path id="Path_9171" data-name="Path 9171" d="M5622.3,3722.452l-3.794,12.371-21.155,1.355-15.277,8.729-4.891-1.926-1.9-1.707-.673-15.051-9.283-5.5-17.357-2.4-4.264-3.672-.49,4.442,4.457,2.79,17.3,3.063,9.035,4.134.948,17.534,7.473,2.676,16.305-9.548,20.468-1.742s3.188-15.215,3.1-15.557Z" transform="translate(-5410.144 -3637.357)" fill="#234e59" fill-rule="evenodd"/>
        <path id="Path_9172" data-name="Path 9172" d="M5807.443,3681.261l-14.751,6.752-18.019-1.66-16.711-8.729-4.651-.453.369-4.451,5.893,1.441,16.066,7.786,18.278,1.456,13.5-6.173s-.241,4.348.026,4.032Z" transform="translate(-5604.218 -3598.615)" fill="#234e59" fill-rule="evenodd"/>
        <path id="Path_9173" data-name="Path 9173" d="M5998.625,3636.436l-.067,3.689-9.69.855-3.19-.683-3.2-2.026.82-4.082,5.994,3.128s9.35-1.1,9.332-.882Z" transform="translate(-5815.916 -3563.021)" fill="#234e59" fill-rule="evenodd"/>
        <path id="Path_9174" data-name="Path 9174" d="M6609.86,3369.67l3.33,16.365-1.133,3.5S6609.951,3370.012,6609.86,3369.67Z" transform="translate(-6395.466 -3318.668)" fill="#234e59" fill-rule="evenodd"/>
        <path id="Path_9175" data-name="Path 9175" d="M6538.983,3422.687l-.583-8.887-1.039.93Z" transform="translate(-6328.494 -3359.434)" fill="#234e59" fill-rule="evenodd"/>
        <path id="Path_9176" data-name="Path 9176" d="M6986.5,3013.033l5.146,3.177-.184,2.226-5.6,6.641-9.683,5.109-10.733,6.152-4.8,2.782-11.815,3.273-20.042-1.921-18.057-18.568-.858-12.825,5.471-.717.416-2.1,5.048-1.42.313-2.329,5.7-2.044.644-1.968,5.811-.469.3-2.105,4.716-.325.516-1.865,11.713.861,6.682,4.969.744,1.174,4.164,3.441,12.1.553,5.885.1,2.473,2.085-.158,1.891,4.174,1.874s.163,2.362-.075,2.345Z" transform="translate(-6672.604 -2971.398)" fill="#b4dbd6" fill-rule="evenodd"/>
        <path id="Path_9177" data-name="Path 9177" d="M7253.053,2995.645l.274-.019.515-1.865,11.713.861,6.681,4.969.239.378v4.551l-8.71,4.229-12.351-3.314-.5-2.612Z" transform="translate(-6987.644 -2971.417)" fill="#234e59" fill-rule="evenodd"/>
        <path id="Path_9178" data-name="Path 9178" d="M7274.97,2995.631l.093-.006.517-1.865,11.712.861,6.683,4.969.45.711-9.251,4.448-8.531-2.25-2.2-1.729Z" transform="translate(-7009.381 -2971.417)" fill="#b4dbd6" fill-rule="evenodd"/>
        <path id="Path_9179" data-name="Path 9179" d="M7038.992,3115.89l-.6,9.588,9.815,9.229,18.312,3.921,31.237-9.795-.6,2.867-21.032,8.53-9.222,2.456-19.5-4.12-9.851-10.24Z" transform="translate(-6790.55 -3084.236)" fill="#234e59" fill-rule="evenodd"/>
        <path id="Path_9180" data-name="Path 9180" d="M7040.706,3164.4l.12.073-5.457,9.161-17.786,10-15.034,4.381-19.307-2.091-14.692-15.634.953-10.555.044-.006.415-2.1.12-.033.04,9.673,14.171,14.7,18.285,2.8,16.166-4.969,17.777-9.888,4.293-7.281c.031.7.055,1.78-.107,1.768Z" transform="translate(-6726.81 -3122.766)" fill="#234e59" fill-rule="evenodd"/>
        <path id="Path_9181" data-name="Path 9181" d="M6992.146,3212.794l.241.149-.186,2.225-5.6,6.641-9.683,5.109-10.732,6.152-4.8,2.782-11.816,3.274-20.042-1.921-18.057-18.567-.8-11.929,1.764,10.432,17.285,17.727,20.714,1.075,8.367-2.295,7.293-2.375,9.922-6.548,10.521-5.048Z" transform="translate(-6673.343 -3168.132)" fill="#234e59" fill-rule="evenodd"/>
        <path id="Path_9182" data-name="Path 9182" d="M7101.61,3069.389l-.418,8.645,2.3,2.744,3.759,3.243,17.186,4.454,19.249-9.5-.114,5.7-19.56,8.19-9.727-.883-8.962-2.842-6.24-5.944s2.42-13.928,2.531-13.807Z" transform="translate(-6847.389 -3041.28)" fill="#234e59" fill-rule="evenodd"/>
        <path id="Path_9183" data-name="Path 9183" d="M7164.081,3042.216l.18.741-1.884,5.291.023,1.9,2.4,2.192,6.578,1.883,9.5,2.153,13.156-7.821-.49,5.9-13.175,6.589-14.924-4.175-5.437-2.583.9-7.883s3.252-4.407,3.175-4.188Z" transform="translate(-6903.675 -3016.17)" fill="#234e59" fill-rule="evenodd"/>
      </g>
    </g>
    <g id="Group_10033" data-name="Group 10033" transform="translate(330.469 154.317)">
      <g id="Group_10032" data-name="Group 10032" transform="translate(18.636 40.923)">
        <g id="Group_10029" data-name="Group 10029">
          <path id="Path_9184" data-name="Path 9184" d="M4609.5,2730.8l-2.983,44.926-18.438-3.524.873-45.047S4609.311,2730.936,4609.5,2730.8Z" transform="translate(-4587.4 -2714.489)" fill="#96989a" fill-rule="evenodd"/>
          <path id="Path_9185" data-name="Path 9185" d="M4839.762,2645.089l-3.879,45.262-5.833,9.6,2.837-45.219S4839.967,2645.06,4839.762,2645.089Z" transform="translate(-4810.922 -2638.675)" fill="#d2d3d5" fill-rule="evenodd"/>
          <path id="Path_9186" data-name="Path 9186" d="M4596.852,2560.956l-8.261,11.218,21.374,4.158,7.391-11.207s-20.562-4.214-20.5-4.169Z" transform="translate(-4587.872 -2560.956)" fill="#e6e7e8" fill-rule="evenodd"/>
          <path id="Path_9187" data-name="Path 9187" d="M4633.975,2576.218l-18.191-3.7-7.174,9.651.924.236,6.6-8.89,17.3,3.387Z" transform="translate(-4606.364 -2571.638)" fill="#606062" fill-rule="evenodd"/>
          <path id="Path_9188" data-name="Path 9188" d="M4614.952,2615.006l-.143,1.958-7.374,11.565-21.476-4.511.018-1.731,21.293,3.961s7.777-11.307,7.683-11.241Z" transform="translate(-4585.441 -2610.885)" fill="#606062" fill-rule="evenodd"/>
          <path id="Path_9189" data-name="Path 9189" d="M4608.557,2762.986l-.156,4.658,15.025,3.326.259-4.9Zm1.052-31.326-.173,5.127,15.667,2.462.264-4.995s-15.437-2.534-15.759-2.594Zm23.414,1.094-4.063,5.584.326-4.9,4.272-5.43-.535,4.744Zm-1.116,12.079-3.682,4.524.427-4.667,3.869-4.754-.615,4.9Zm-7.395,5.619-15.443-2.715.165-4.878,15.536,2.732Zm-.543,10.265-15.243-2.723.153-4.577,15.332,2.738-.242,4.562Zm6.9-4.629-3.389,4.5.292-3.975,3.57-4.743Zm-3.628,10.276-.437,4.392,3.75-6.08.323-3.53-3.635,5.216Z" transform="translate(-4606.17 -2715.275)" fill="#fefefe" fill-rule="evenodd"/>
          <path id="Path_9190" data-name="Path 9190" d="M4604.638,3231.25l-6.416,9.81-18.981-3.51-.081,2.742,18.9,3.724,6.175-9.945Z" transform="translate(-4579.16 -3180.148)" fill="#474747" fill-rule="evenodd"/>
          <path id="Path_9229" data-name="Path 9229" d="M5101.25,2715.04l5.009-7.47,3.582.762-1.373,2,7.089,1.333,1.2-1.864,3.6.765-4.544,7.464-3.637-.746,1.982-2.972-7.137-1.38-1.915,2.9Z" transform="translate(-5095.372 -2704.393)" fill="#474747" fill-rule="evenodd"/>
        </g>
        <g id="Group_10030" data-name="Group 10030" transform="translate(33.442 7.511)">
          <path id="Path_9191" data-name="Path 9191" d="M5048.99,2833.965l-3.066,46.158-18.944-3.62.9-46.282s20.916,3.879,21.114,3.744Z" transform="translate(-5026.281 -2817.203)" fill="#96989a" fill-rule="evenodd"/>
          <path id="Path_9192" data-name="Path 9192" d="M5285.569,2745.909l-3.985,46.5-5.993,9.859,2.916-46.459S5285.78,2745.879,5285.569,2745.909Z" transform="translate(-5255.94 -2739.32)" fill="#d2d3d5" fill-rule="evenodd"/>
          <path id="Path_9193" data-name="Path 9193" d="M5036,2659.476,5027.51,2671l21.959,4.272,7.6-11.515S5035.938,2659.431,5036,2659.476Z" transform="translate(-5026.771 -2659.476)" fill="#e6e7e8" fill-rule="evenodd"/>
          <path id="Path_9194" data-name="Path 9194" d="M5074.14,2675.14l-18.69-3.8-7.37,9.916.949.242,6.78-9.133,17.772,3.479Z" transform="translate(-5045.773 -2670.435)" fill="#606062" fill-rule="evenodd"/>
          <path id="Path_9195" data-name="Path 9195" d="M5054.6,2715l-.147,2.011-7.576,11.881-22.064-4.635.018-1.778,21.876,4.069s7.99-11.617,7.893-11.549Z" transform="translate(-5024.278 -2710.763)" fill="#606062" fill-rule="evenodd"/>
          <path id="Path_9196" data-name="Path 9196" d="M5048.021,2867.015l-.161,4.785,15.437,3.417.266-5.032-15.542-3.171Zm1.08-32.185-.176,5.268,16.1,2.53.271-5.132S5049.433,2834.892,5049.1,2834.831Zm24.056,1.124-4.175,5.737.335-5.032,4.389-5.579-.549,4.874Zm-1.147,12.41-3.782,4.648.439-4.794,3.974-4.885Zm-7.6,5.774-15.865-2.789.168-5.012,15.962,2.807-.264,4.994Zm-.558,10.546-15.661-2.8.158-4.7L5064.1,2860l-.248,4.686Zm7.087-4.755-3.482,4.626.3-4.084,3.669-4.873Zm-3.729,10.557-.45,4.512,3.853-6.246.331-3.626Z" transform="translate(-5045.57 -2817.997)" fill="#fefefe" fill-rule="evenodd"/>
          <path id="Path_9197" data-name="Path 9197" d="M5044,3348.14l-6.591,10.077-19.5-3.605-.083,2.817,19.417,3.825,6.344-10.217Z" transform="translate(-5017.82 -3295.638)" fill="#474747" fill-rule="evenodd"/>
        </g>
        <g id="Group_10031" data-name="Group 10031" transform="translate(11.07 15.821)">
          <path id="Path_9198" data-name="Path 9198" d="M4755.539,2942.965l-3.066,46.158-18.943-3.621.9-46.282s20.917,3.88,21.114,3.744Z" transform="translate(-4732.832 -2926.203)" fill="#96989a" fill-rule="evenodd"/>
          <path id="Path_9199" data-name="Path 9199" d="M4992.107,2854.909l-3.985,46.5-5.993,9.859,2.916-46.459S4992.318,2854.879,4992.107,2854.909Z" transform="translate(-4962.479 -2848.32)" fill="#d2d3d5" fill-rule="evenodd"/>
          <path id="Path_9200" data-name="Path 9200" d="M4742.547,2768.476,4734.059,2780l21.96,4.273,7.6-11.515S4742.487,2768.431,4742.547,2768.476Z" transform="translate(-4733.32 -2768.476)" fill="#e6e7e8" fill-rule="evenodd"/>
          <path id="Path_9201" data-name="Path 9201" d="M4780.689,2784.15l-18.689-3.8-7.37,9.916.948.242,6.782-9.133,17.771,3.479Z" transform="translate(-4752.322 -2779.445)" fill="#606062" fill-rule="evenodd"/>
          <path id="Path_9202" data-name="Path 9202" d="M4761.137,2824l-.146,2.011-7.577,11.881-22.063-4.635.018-1.778,21.876,4.07s7.991-11.617,7.893-11.549Z" transform="translate(-4730.819 -2819.763)" fill="#606062" fill-rule="evenodd"/>
          <path id="Path_9203" data-name="Path 9203" d="M4754.572,2976.016l-.162,4.785,15.437,3.417.266-5.032-15.542-3.171Zm1.08-32.185-.177,5.268,16.1,2.529.272-5.131S4755.981,2943.892,4755.651,2943.831Zm24.056,1.124-4.175,5.737.336-5.032,4.388-5.579-.549,4.874Zm-1.147,12.41-3.782,4.648.439-4.795,3.974-4.884Zm-7.6,5.774-15.865-2.79.168-5.011,15.961,2.807-.264,4.994Zm-.558,10.547-15.661-2.8.157-4.7,15.751,2.814Zm7.087-4.756-3.482,4.626.3-4.084,3.668-4.873Zm-3.728,10.557-.45,4.513,3.853-6.246.331-3.626Z" transform="translate(-4752.12 -2926.998)" fill="#fefefe" fill-rule="evenodd"/>
          <path id="Path_9204" data-name="Path 9204" d="M4750.546,3457.14l-6.591,10.078-19.5-3.606-.083,2.817,19.417,3.825,6.344-10.217Z" transform="translate(-4724.37 -3404.638)" fill="#474747" fill-rule="evenodd"/>
        </g>
      </g>
      <path id="Path_9205" data-name="Path 9205" d="M4805.17,2817.91l5.01-7.47,3.582.761-1.372,2,7.089,1.333,1.2-1.863,3.6.765-4.544,7.463-3.637-.746,1.982-2.972-7.137-1.38-1.914,2.9Z" transform="translate(-4769.304 -2750.497)" fill="#474747" fill-rule="evenodd"/>
      <path id="Path_9206" data-name="Path 9206" d="M5101.25,2715.04l5.009-7.47,3.582.762-1.373,2,7.089,1.333,1.2-1.864,3.6.765-4.544,7.464-3.637-.746,1.982-2.972-7.137-1.38-1.915,2.9Z" transform="translate(-5041.811 -2656.469)" fill="#474747" fill-rule="evenodd"/>
      <path id="Path_9207" data-name="Path 9207" d="M4380.811,2070.543l21.213-44.684s-67.313-2.755-67.313-1.225,21.808,50.692,21.808,50.692l18.555,3.635Z" transform="translate(-4334.71 -2024.171)" fill="#ddecef" opacity="0.8"/>
      <path id="Path_9208" data-name="Path 9208" d="M4837.47,2175.919l21.213-44.685s-67.313-2.755-67.313-1.224,21.808,50.691,21.808,50.691l18.555,3.635,5.738-8.416Z" transform="translate(-4756.556 -2121.513)" fill="#ddecef" opacity="0.8"/>
      <path id="Path_9209" data-name="Path 9209" d="M4526.339,2296.363l21.213-44.684s-67.312-2.755-67.312-1.225,21.807,50.691,21.807,50.691l18.554,3.635Z" transform="translate(-4469.145 -2232.775)" fill="#fefefe" stroke="#ddecef" stroke-miterlimit="2.613" stroke-width="1.33" opacity="0.8"/>
    </g>
  </g>
</svg>
