<svg id="Our_Safety_Standards_2" data-name="Our Safety Standards 2" xmlns="http://www.w3.org/2000/svg" width="163.438" height="183.566" viewBox="0 0 163.438 183.566">
  <g id="Path_9210" data-name="Path 9210" transform="translate(-3932.607)" fill="#f4f9f8" stroke-linecap="round">
    <path d="M 4014.326171875 180.9867553710938 C 4006.634033203125 179.0047760009766 3999.362548828125 176.1585540771484 3992.70263671875 172.5222473144531 C 3986.12646484375 168.9314422607422 3979.9892578125 164.4846038818359 3974.462158203125 159.3051910400391 C 3963.942138671875 149.4471740722656 3955.34619140625 136.7144165039062 3948.912353515625 121.4605941772461 C 3942.878662109375 107.1550445556641 3938.763671875 90.70457458496094 3936.681396484375 72.56612396240234 C 3934.77392578125 55.94847106933594 3934.5966796875 38.20745468139648 3936.152587890625 19.80920791625977 L 4014.326171875 2.560131549835205 L 4092.500244140625 19.8092041015625 C 4094.055908203125 38.20760726928711 4093.87841796875 55.94861602783203 4091.970947265625 72.56610107421875 C 4089.888671875 90.70465087890625 4085.7734375 107.1551513671875 4079.739990234375 121.4606246948242 C 4073.306396484375 136.7144775390625 4064.710205078125 149.4472198486328 4054.1904296875 159.3051910400391 C 4048.663330078125 164.4846038818359 4042.526123046875 168.9314727783203 4035.94970703125 172.522216796875 C 4029.2900390625 176.1585235595703 4022.0185546875 179.0047760009766 4014.326171875 180.9867553710938 Z" stroke="none"/>
    <path d="M 4014.326171875 5.120269775390625 L 3938.494384765625 21.8526611328125 C 3937.115234375 39.43165588378906 3937.33984375 56.37907409667969 3939.165283203125 72.281005859375 C 3941.22021484375 90.18317413330078 3945.27490234375 106.402702331543 3951.216064453125 120.4890594482422 C 3957.5126953125 135.4181213378906 3965.908935546875 147.8639831542969 3976.171630859375 157.4809722900391 C 3981.544677734375 162.5160369873047 3987.509765625 166.8383941650391 3993.90087890625 170.3280029296875 C 4000.198974609375 173.7668609619141 4007.06494140625 176.4807739257812 4014.326171875 178.4028930664062 C 4021.58740234375 176.4807739257812 4028.45361328125 173.7668609619141 4034.751708984375 170.3280029296875 C 4041.142822265625 166.8383941650391 4047.10791015625 162.5160369873047 4052.48095703125 157.4809722900391 C 4062.74365234375 147.864013671875 4071.139892578125 135.4181518554688 4077.4365234375 120.4890594482422 C 4083.377685546875 106.4027557373047 4087.43212890625 90.1832275390625 4089.487060546875 72.28097534179688 C 4091.312744140625 56.37918090820312 4091.537353515625 39.43177795410156 4090.158447265625 21.85264587402344 L 4014.326171875 5.120269775390625 M 4014.326171875 0 L 4094.83056640625 17.76329040527344 C 4101.59814453125 92.49559020996094 4080.798828125 166.8802795410156 4014.326171875 183.5663452148438 C 3947.854248046875 166.8802795410156 3927.0537109375 92.49562072753906 3933.822265625 17.76329040527344 L 4014.326171875 0 Z" stroke="none" fill="#004747"/>
  </g>
  <path id="Path_9211" data-name="Path 9211" d="M4434.475,431.987a52.519,52.519,0,1,0,12.976,74.306,41.139,41.139,0,1,1-6.894-69.487,52.958,52.958,0,0,0-6.081-4.82Z" transform="translate(-4320.428 -390.663)" fill="#00f3bb" fill-rule="evenodd"/>
</svg>
