<svg id="Quality_Guarantee" data-name="Quality Guarantee" xmlns="http://www.w3.org/2000/svg" width="70" height="70" viewBox="0 0 70 70">
  <g id="Group_8091" data-name="Group 8091">
    <path id="Path_8630" data-name="Path 8630" d="M35,0A35,35,0,1,1,0,35,35,35,0,0,1,35,0Z" fill="#00f3bb"/>
    <path id="Icon_map-lawyer" data-name="Icon map-lawyer" d="M.212,19.858a4.649,4.649,0,0,0,9.22,0Zm25.119,9.359a.72.72,0,0,1-.719.722H11.18a.719.719,0,1,1,0-1.437H24.612A.717.717,0,0,1,25.331,29.218Zm-14.792,1.09H25.253v2.079H10.539ZM26.568,19.858a4.647,4.647,0,0,0,9.217,0Zm8.963-1.446-3.775-5.2h2.018a.9.9,0,0,0,0-1.791H23.084a5.294,5.294,0,0,0-4.056-3.407V5.208a.894.894,0,0,0-.9-.9l-.084.009-.084-.009a.893.893,0,0,0-.895.9v2.8a5.291,5.291,0,0,0-4.055,3.407H2.321a.9.9,0,0,0,0,1.791H4.247L.472,18.41H0v.96H9.647v-.96H9.173L5.4,13.212H14.16a3.8,3.8,0,0,1,.053-.593.846.846,0,0,0,.052-.276,3.828,3.828,0,0,1,2.8-2.832v9.862h-.037a10.89,10.89,0,0,1-4.46,8.762H23.526a10.9,10.9,0,0,1-4.463-8.762h-.035V9.511a3.827,3.827,0,0,1,2.8,2.832.91.91,0,0,0,.054.276,3.991,3.991,0,0,1,.047.593H30.6l-3.776,5.2h-.471v.96H36v-.96Zm-31.092,0H1.426l3.013-4.151v4.151Zm.771,0V14.261l3.013,4.151H5.21Zm25.583,0H27.778l3.015-4.151Zm.768,0V14.261l3.017,4.151ZM5.718,10.169a.895.895,0,1,1-.893-.9.895.895,0,0,1,.893.9Zm26.355-.048a.895.895,0,1,1-.436-.8A.89.89,0,0,1,32.072,10.122Z" transform="translate(17 16.651)"/>
  </g>
</svg>
