<svg xmlns="http://www.w3.org/2000/svg" width="307.086" height="225.552" viewBox="0 0 307.086 225.552">
  <g id="Group_10403" data-name="Group 10403" transform="translate(8712 -10450.202)">
    <g id="Group_10401" data-name="Group 10401" transform="translate(-773.7)">
      <path id="Path_8961" data-name="Path 8961" d="M242.753,83.549c8.9-53.138-90.765-93.75-150.085-43.659C-32.546,145.6,224.528,192.412,242.753,83.549Z" transform="translate(-7894.965 10433.098)" fill="#c5dfdc" fill-rule="evenodd"/>
      <path id="Path_8962" data-name="Path 8962" d="M50.677,134.6C88.03,231.525,257.766,194.985,280,149.727c46.117-93.9-16.07-119.62-71.082-142.17C116.168-35,3.474-21.824-8.11,26.942c-17.793,74.9,52.168,59.427,58.8,107.655Z" transform="translate(-7927.302 10479.977)" fill="#00f3bb" fill-rule="evenodd"/>
    </g>
    <g id="Group_10402" data-name="Group 10402" transform="translate(-8.445)">
      <path id="Path_8807" data-name="Path 8807" d="M63.979,799.653h0s-28.3-22.938-41.34-40.693l-15.579.474,14.416,49.377c7.919-2.122,23.778-6.077,42.493-9.158Z" transform="translate(-8707.614 9771.933)" fill="#004747" fill-rule="evenodd"/>
      <path id="Path_8808" data-name="Path 8808" d="M265.245,720.465H190.01c2.273-22.378,27.291-18.4,29.833-9.083,4.45-16.032,23.25-20.5,28.54-1.3,0,0,19.135-4.213,16.861,10.375Z" transform="translate(-8714.615 9767.17)" fill="#fefefe" fill-rule="evenodd"/>
      <path id="Path_8810" data-name="Path 8810" d="M193.224,737.8c14.373,8.124,25.114,12.875,33.723,15.644l10.785-4.191,2.974,1.293-6.842,6.109.14.065c2.887,1.336,1.918,2.489.9,2.467-15.547-.474-33.13-10.785-47.373-17.551-4.4-2.09,3.318-5.172,5.7-3.825Z" transform="translate(-8693.748 9770.27)" fill="#fafafa" fill-rule="evenodd"/>
      <path id="Path_8811" data-name="Path 8811" d="M239.039,762.8l-33.087-13.942a.993.993,0,0,1-.485-1.336h0a1,1,0,0,1,1.336-.485l32.441,15.051c1.207.56,1.024,1.228-.2.711Z" transform="translate(-8692.265 9771.002)" fill="#c5dfdc" fill-rule="evenodd"/>
      <path id="Path_8812" data-name="Path 8812" d="M96.035,740.535H20.8c2.273-22.378,27.291-18.4,29.833-9.082,4.45-16.032,23.25-20.5,28.54-1.3,0,0,19.135-4.213,16.861,10.375Z" transform="translate(-8617.577 9768.723)" fill="#fefefe" fill-rule="evenodd"/>
      <path id="Path_8815" data-name="Path 8815" d="M307.3,814.451a3.836,3.836,0,0,0-.194-5.29c-6.54-6.044-25.955-20.74-59.063-19.727-41.609,1.26-126.541,1.228-162.946,4.945a434.373,434.373,0,0,0-68.566,13.274,1.589,1.589,0,0,0-1.077,1.605l.011.28a3.5,3.5,0,0,0,1.584,2.92c6.572,4.051,34.811,18.844,94.111,17.034,68.62-2.079,159.8-2.047,174.561-4.46,11.237-1.842,18.014-6.766,21.591-10.591Z" transform="translate(-8706.965 9774.287)" fill="#fafafa" fill-rule="evenodd"/>
      <path id="Path_8816" data-name="Path 8816" d="M84.888,798.157c41.092-4.2,178.5-12.843,214.511,5.322-31.913-27.388-173.979-11.97-214.6-8.964A432.284,432.284,0,0,0,19.21,806.97c14.232-2.467,41.081-6.292,65.678-8.8Z" transform="translate(-8706.674 9774.14)" fill="#fefefe" fill-rule="evenodd"/>
      <path id="Path_8817" data-name="Path 8817" d="M38.017,819.755h0c15.353,4.708,39.1,9.1,73.016,8.081,11.69-.356,24.037-.646,36.556-.905h0c-12.519.259-24.856.549-36.556.905C77.116,828.87,53.359,824.475,38.017,819.755ZM16.911,810.78ZM16.9,810.769ZM307.2,812.769ZM307.211,812.758ZM307.222,812.747ZM307.233,812.736Z" transform="translate(-8706.853 9775.942)" fill="#52c6e0" fill-rule="evenodd"/>
      <path id="Path_8818" data-name="Path 8818" d="M37.751,819.718a111.882,111.882,0,0,1-17.411-6.852l1.745-1.6A225.794,225.794,0,0,0,46.1,816.227l-6.314,4.008c-.571-.172-1.487-.334-2.036-.506Z" transform="translate(-8706.586 9775.98)" fill="#004747" fill-rule="evenodd"/>
      <path id="Path_8819" data-name="Path 8819" d="M120.448,813.473c32.182,5.344,95.469,4.116,95.469,4.116a1.643,1.643,0,0,1-.032.323,1.663,1.663,0,0,1-.172.409c34.725-.571,62.716-1.164,70.333-2.4,8.673-1.422,17.465-3.3,22.679-5.829a3.775,3.775,0,0,1-.862,3.2h0l-.011.011h0a.011.011,0,0,1-.011.011h0a.011.011,0,0,1-.011.011h0l-.011.011h0c-3.566,3.814-10.354,8.748-21.591,10.591-5.807.948-23.433,1.519-46.856,1.993-9.546.194-20.061.366-31.126.539L120.438,813.5Zm87.8,12.983c-18.779.3-40.112.6-60.022,1.013-12.519.259-24.856.549-36.556.905-33.917,1.034-57.673-3.362-73.026-8.081-11.485-3.523-18.273-7.229-21.1-8.964h0a.011.011,0,0,1-.011-.011h0a.011.011,0,0,1-.011-.011,3.343,3.343,0,0,1-1.25-1.5c.937.323,1.961.657,3.06.991,1.217.377,2.532.754,3.943,1.142l-1.745,1.6a106.712,106.712,0,0,0,17.109,6.745c.549.172,1.12.334,1.692.506l6.314-4.008a356.111,356.111,0,0,0,64.827,3.577c7.165-.216,14.577-.409,22.119-.593a233.712,233.712,0,0,1-27.075-5.883l-3.685-7.66,7-.215,10.6,7.456,87.8,12.983ZM9.627,807.074a1.41,1.41,0,0,1-.927-1.336v-.011l58.18-1.767a5.826,5.826,0,0,1-.69.442c-1.821,1.045-7.413,3.6-18.865,3.954-5.775.172-13.112,0-19.846-.269-4.234-.172-8.221-.377-11.42-.571-2.769-.162-4.945-.3-6.184-.388a1.083,1.083,0,0,1-.259-.043Z" transform="translate(-8707.487 9775.415)" fill="#004747" fill-rule="evenodd"/>
      <path id="Path_8820" data-name="Path 8820" d="M113.685,813.326l-10.6-7.456-7,.215,3.685,7.66Z" transform="translate(-8700.724 9775.563)" fill="#004747" fill-rule="evenodd"/>
      <path id="Path_8821" data-name="Path 8821" d="M63.1,805.227l3.782-1.2s-6.087-1.444-19.016-1.056S8.7,805.8,8.7,805.8Z" transform="translate(-8707.487 9775.334)" fill="#fefefe" fill-rule="evenodd"/>
      <path id="Path_8822" data-name="Path 8822" d="M66.88,803.95s-5.128,3.943-19.555,4.385c-12.552.377-32.484-.894-37.45-1.228a1.356,1.356,0,0,1-1.185-1.379v-.011l58.18-1.767Z" transform="translate(-8707.488 9775.414)" fill="#004747" fill-rule="evenodd"/>
      <path id="Path_8823" data-name="Path 8823" d="M182.235,814.3l-2.984.086a1.981,1.981,0,0,1-1.918-2.047L177.107,803a2,2,0,0,1,1.81-2.155l2.984-.086a1.981,1.981,0,0,1,1.918,2.047l.226,9.341a2,2,0,0,1-1.81,2.153ZM92.8,810.6h-.032a1.912,1.912,0,0,1-1.853-1.982l-.054-2.327a1.95,1.95,0,0,1,1.756-2.09h.032a1.926,1.926,0,0,1,1.853,1.982l.054,2.327A1.957,1.957,0,0,1,92.8,810.6Zm-5.8.172h-.032a1.9,1.9,0,0,1-1.853-1.982l-.054-2.327a1.942,1.942,0,0,1,1.756-2.09h.032a1.919,1.919,0,0,1,1.853,1.982l.054,2.327A1.95,1.95,0,0,1,87,810.776Zm-5.807.172h-.032a1.905,1.905,0,0,1-1.853-1.982l-.054-2.327a1.957,1.957,0,0,1,1.756-2.09h.032a1.912,1.912,0,0,1,1.853,1.982l.054,2.327a1.957,1.957,0,0,1-1.749,2.1Zm-5.8.172H75.35a1.919,1.919,0,0,1-1.853-1.982l-.054-2.327a1.957,1.957,0,0,1,1.756-2.09h.032a1.912,1.912,0,0,1,1.853,1.982l.054,2.327a1.95,1.95,0,0,1-1.756,2.09Zm49.808-1.508h-.032a1.912,1.912,0,0,1-1.853-1.982l-.054-2.327a1.942,1.942,0,0,1,1.756-2.09h.032a1.912,1.912,0,0,1,1.853,1.982l.054,2.327a1.957,1.957,0,0,1-1.749,2.1Zm5.807-.172h-.032a1.905,1.905,0,0,1-1.853-1.982l-.054-2.327a1.957,1.957,0,0,1,1.756-2.09h.032a1.912,1.912,0,0,1,1.853,1.982l.054,2.327a1.942,1.942,0,0,1-1.756,2.09Zm5.8-.172h-.032a1.912,1.912,0,0,1-1.853-1.982l-.054-2.327a1.942,1.942,0,0,1,1.756-2.09h.032a1.9,1.9,0,0,1,1.853,1.982l.054,2.327a1.95,1.95,0,0,1-1.752,2.094Zm5.8-.172h-.032a1.919,1.919,0,0,1-1.853-1.982l-.054-2.327a1.957,1.957,0,0,1,1.756-2.09h.032a1.912,1.912,0,0,1,1.853,1.982l.054,2.327a1.95,1.95,0,0,1-1.756,2.1Zm5.8-.172h-.032a1.912,1.912,0,0,1-1.853-1.982l-.054-2.327a1.95,1.95,0,0,1,1.756-2.09h.032a1.912,1.912,0,0,1,1.853,1.982l.054,2.327a1.942,1.942,0,0,1-1.764,2.093Zm5.8-.172h-.032a1.905,1.905,0,0,1-1.853-1.982l-.054-2.327a1.942,1.942,0,0,1,1.756-2.09h.032a1.912,1.912,0,0,1,1.853,1.982l.054,2.338a1.958,1.958,0,0,1-1.756,2.09Zm5.807-.172h-.032a1.926,1.926,0,0,1-1.853-1.982l-.054-2.327a1.958,1.958,0,0,1,1.756-2.09h.032a1.912,1.912,0,0,1,1.853,1.982l.054,2.327a1.95,1.95,0,0,1-1.762,2.093Zm5.8-.172h-.032a1.905,1.905,0,0,1-1.853-1.982l-.054-2.327a1.958,1.958,0,0,1,1.756-2.09h.032a1.912,1.912,0,0,1,1.853,1.982l.054,2.327a1.942,1.942,0,0,1-1.771,2.092Zm5.8-.172h-.032a1.9,1.9,0,0,1-1.853-1.982l-.054-2.327a1.943,1.943,0,0,1,1.756-2.09h.032a1.905,1.905,0,0,1,1.853,1.982l.054,2.327a1.95,1.95,0,0,1-1.771,2.092Zm111.974-5.2,11.41-.345a77,77,0,0,0-11.776-6.475l-5.182.162a.5.5,0,0,0-.291.84l5.182,5.538a.836.836,0,0,0,.657.28Zm-9.449-6.54-5.01.151a1.393,1.393,0,0,0-1.067,2.015l.948,2.155a4.062,4.062,0,0,0,3.771,2.553l7.057-.215a.6.6,0,0,0,.345-1.013l-4.762-5.085a1.717,1.717,0,0,0-1.3-.563ZM245.285,812.4l-2.984.086a1.981,1.981,0,0,1-1.918-2.047l-.226-9.352a2,2,0,0,1,1.81-2.155l2.984-.086a1.981,1.981,0,0,1,1.918,2.047l.226,9.341a2.014,2.014,0,0,1-1.81,2.166Zm-9.869-6.109h-.032a1.912,1.912,0,0,1-1.853-1.982l-.054-2.327a1.942,1.942,0,0,1,1.756-2.09h.032a1.9,1.9,0,0,1,1.853,1.982l.054,2.327a1.942,1.942,0,0,1-1.756,2.094Zm-5.807.172h-.032a1.912,1.912,0,0,1-1.853-1.982l-.054-2.327a1.957,1.957,0,0,1,1.756-2.09h.032a1.905,1.905,0,0,1,1.853,1.982l.054,2.327a1.958,1.958,0,0,1-1.756,2.094Zm-5.8.172h-.032a1.9,1.9,0,0,1-1.853-1.982l-.054-2.327a1.95,1.95,0,0,1,1.756-2.09h.032a1.905,1.905,0,0,1,1.853,1.982l.054,2.327a1.95,1.95,0,0,1-1.753,2.094Zm-5.8.172h-.032a1.912,1.912,0,0,1-1.853-1.982l-.054-2.327a1.95,1.95,0,0,1,1.756-2.09h.032a1.912,1.912,0,0,1,1.853,1.982l.054,2.327a1.957,1.957,0,0,1-1.749,2.1Zm-5.807.172h-.032A1.912,1.912,0,0,1,210.323,805l-.054-2.327a1.958,1.958,0,0,1,1.756-2.09h.032a1.912,1.912,0,0,1,1.853,1.982l.054,2.327a1.95,1.95,0,0,1-1.755,2.092Zm-5.8.172h-.032a1.905,1.905,0,0,1-1.853-1.982l-.054-2.327a1.942,1.942,0,0,1,1.756-2.09h.032a1.912,1.912,0,0,1,1.853,1.982l.054,2.327a1.95,1.95,0,0,1-1.746,2.095Zm-5.8.172h-.032a1.912,1.912,0,0,1-1.853-1.982l-.054-2.327a1.95,1.95,0,0,1,1.756-2.09h.032a1.926,1.926,0,0,1,1.853,1.982l.054,2.327a1.957,1.957,0,0,1-1.742,2.1Zm-5.807.172h-.032a1.912,1.912,0,0,1-1.853-1.982l-.054-2.327a1.942,1.942,0,0,1,1.756-2.09h.032a1.905,1.905,0,0,1,1.853,1.982l.054,2.327a1.95,1.95,0,0,1-1.742,2.095Zm-5.8.172h-.043a1.919,1.919,0,0,1-1.853-1.982l-.054-2.327a1.957,1.957,0,0,1,1.756-2.09h.032a1.912,1.912,0,0,1,1.853,1.982l.054,2.327a1.942,1.942,0,0,1-1.756,2.09Z" transform="translate(-8702.476 9774.815)" fill="#004747" fill-rule="evenodd"/>
      <path id="Path_8824" data-name="Path 8824" d="M202.864,818.226l3.954-1.454s-9.524-2.575-25.448-2.09-40.209,1.7-55.12-.162c0,0,33.712,6.044,36.772,6.044s39.832-2.349,39.832-2.349Z" transform="translate(-8698.389 9776.232)" fill="#fefefe" fill-rule="evenodd"/>
      <path id="Path_8825" data-name="Path 8825" d="M208.889,816.906s-63.287,1.228-95.469-4.116l-13.92.42s32.99,9.858,67.65,8.813c0,0,41.879.8,41.739-5.118Z" transform="translate(-8700.459 9776.099)" fill="#004747" fill-rule="evenodd"/>
      <path id="Path_8826" data-name="Path 8826" d="M81.327,835.925l-7.9-13.564,3.685-.291,6.421,12.315Z" transform="translate(-8701.477 9776.252)" fill="#c7d8de" fill-rule="evenodd"/>
      <path id="Path_8827" data-name="Path 8827" d="M267.637,835.925l-7.9-13.564,3.685-.291,6.421,12.315Z" transform="translate(-8687.056 9776.252)" fill="#c7d8de" fill-rule="evenodd"/>
      <ellipse id="Ellipse_437" data-name="Ellipse 437" cx="6.012" cy="6.788" rx="6.012" ry="6.788" transform="translate(-8424.687 10601.661)" fill="#004747"/>
      <ellipse id="Ellipse_438" data-name="Ellipse 438" cx="3.114" cy="3.512" rx="3.114" ry="3.512" transform="translate(-8421.789 10605.584)" fill="#e0eaeb"/>
      <ellipse id="Ellipse_439" data-name="Ellipse 439" cx="6.012" cy="6.788" rx="6.012" ry="6.788" transform="translate(-8624.869 10601.661)" fill="#004747"/>
      <ellipse id="Ellipse_440" data-name="Ellipse 440" cx="3.114" cy="3.512" rx="3.114" ry="3.512" transform="translate(-8621.97 10605.584)" fill="#e0eaeb"/>
      <path id="Path_8829" data-name="Path 8829" d="M237.271,774.554c-.183-.636-.366-1.282-.549-1.918a9.6,9.6,0,0,1-.42-1.972,3.315,3.315,0,0,1,.4-1.95,1.521,1.521,0,0,1,.636.927,24.627,24.627,0,0,1,1.487-3.028,1.514,1.514,0,0,1,.4-.506.518.518,0,0,1,.6-.011.769.769,0,0,1,.162.657c-.011.172-.032.356-.043.528a.554.554,0,0,1,.883.108,1.05,1.05,0,0,1,.065.549,18.966,18.966,0,0,1-1.95,7.262,1.6,1.6,0,0,1-.226.366.858.858,0,0,1-.862.248c-.3-.086-.506-.959-.593-1.26Z" transform="translate(-8689.871 9772.478)" fill="#fabfb1" fill-rule="evenodd"/>
      <path id="Path_8830" data-name="Path 8830" d="M202.261,780.674c-.3-.549-.312-.765-.614-1.314a.77.77,0,0,0-.668.356,1.678,1.678,0,0,0-.237.754,4.677,4.677,0,0,0,.765,3.157.794.794,0,0,0,.517.4c.4.032.6-.463.646-.851a5.133,5.133,0,0,0-.312-2.316l-.086-.172Z" transform="translate(-8692.625 9773.511)" fill="#fabfb1" fill-rule="evenodd"/>
      <path id="Path_8831" data-name="Path 8831" d="M212.122,837.332s-2.984.894-3.7,1.013c-5.064,5.947-3.372,49.323-3.372,49.323h-2.209l-4.633-13.446c-8.371-24.683.808-49.14.808-49.14l7.617-2.629,7.811-.733s5.182.722,5.6,1.325c0,0,7.994,15.191,8.652,21.354s-6.314,17.853-6.314,17.853l-1.616-.442s2.112-12.659.442-17.185c-1.767-4.773-9.093-7.294-9.093-7.294Z" transform="translate(-8693.091 9776.79)" fill="#8d8d8d" fill-rule="evenodd"/>
      <path id="Path_8832" data-name="Path 8832" d="M204.9,883.026a6.471,6.471,0,0,1,.366,2.133c-.151.517-7.122-1.25-7.348-1.325s-1.982-1.982-.733-2.133,5.506,1.325,5.506,1.325Z" transform="translate(-8692.933 9781.432)" fill="#41455c" fill-rule="evenodd"/>
      <path id="Path_8833" data-name="Path 8833" d="M218.946,858.93a1.956,1.956,0,0,0-.582,1.832,40.708,40.708,0,0,0,3.308,6.464c.517.517,1.465.442,1.541-.291s-2.64-7.563-2.64-7.563l-1.616-.442Z" transform="translate(-8691.264 9779.67)" fill="#41455c" fill-rule="evenodd"/>
      <path id="Path_8834" data-name="Path 8834" d="M203.878,796.044a8.665,8.665,0,0,0,2.413,1.067c.883.119,1.788.075,2.683.151a4.51,4.51,0,0,0,1.045-3.469,12.2,12.2,0,0,1,.549-4.169,5.184,5.184,0,0,0,3.038-2.467,9.116,9.116,0,0,0,.776-1.939c.614-1.961,1.2-4.051.679-6.044a6.751,6.751,0,0,0-4.536-4.525,9.835,9.835,0,0,0-6.54.431c-2.069.84-1.821,3.383-2.1,5.592a10.15,10.15,0,0,0,.646,4.87,15.124,15.124,0,0,0,2.661,3.652l-.582,4.6-.722,2.263Z" transform="translate(-8692.539 9773.117)" fill="#fabfb1" fill-rule="evenodd"/>
      <path id="Path_8835" data-name="Path 8835" d="M213.62,782.288c.442-.442.517-.646.97-1.088a.761.761,0,0,1,.539.528,1.621,1.621,0,0,1,.022.786,4.647,4.647,0,0,1-1.627,2.812.8.8,0,0,1-.614.237c-.388-.075-.452-.614-.377-1a5.161,5.161,0,0,1,.948-2.133l.129-.14Z" transform="translate(-8691.712 9773.653)" fill="#fabfb1" fill-rule="evenodd"/>
      <path id="Path_8836" data-name="Path 8836" d="M224.78,788.487s13.08-14,13.478-14.793,2.09-.345,2.09-.345-7.122,17.906-9.535,19.113-2.8.862-2.974.754S224.78,788.487,224.78,788.487Z" transform="translate(-8690.762 9773.036)" fill="#fabfb1" fill-rule="evenodd"/>
      <path id="Path_8837" data-name="Path 8837" d="M220.476,803.041a47.893,47.893,0,0,0,13.015-10.225c3.642-4.126,6.529-11.754,8.415-13.6-1.788-3.027-2.284-4.417-3.879-4.59-1.724,1.293-14.965,16.226-16.829,17.292-3.211,1.832-7.4.312-11.065-.2-1.9-.259-3.8.862-5.462,1.821-1.961,1.12-1.9,4.3-2.166,6.54-.679,5.667-.916,11.377-1.153,17.088a91.348,91.348,0,0,0,.894,13.672s16.2-1.228,17.831-2.7c.539-3.254-.075-16.075.119-19.393.1-1.767.183-3.922.28-5.7Z" transform="translate(-8692.578 9773.146)" fill="#004747" fill-rule="evenodd"/>
      <path id="Path_8838" data-name="Path 8838" d="M219.223,803.041a47.9,47.9,0,0,0,13.015-10.225c3.642-4.126,6.529-11.754,8.415-13.6-1.788-3.027-2.284-4.417-3.879-4.59-1.724,1.293-14.965,16.226-16.829,17.292a4.469,4.469,0,0,1-.506.259c-1.056,2.263-2.381,5.678-1.993,7.509a10.13,10.13,0,0,0,1.745,3.846l.022-.485Z" transform="translate(-8691.335 9773.146)" fill="#00698a" fill-rule="evenodd"/>
      <path id="Path_8839" data-name="Path 8839" d="M202.812,829.614l-4.493-.345s-1.444-24.339-2.51-27.355c-1.39-.409-1.929-2.823-1.929-2.823s.883-7.79,5.743-7.66c2.026-.323,9.47-1.745,11.291-.808,1.713.873-5.355,6.238-4.536,7.994,1.153,2.489-1.756,3.943-2.327,6.637-.625,2.93-.259,5.98-.388,8.975-.259,6.1-.873,15.4-.873,15.4Z" transform="translate(-8693.154 9774.358)" fill="#004747" fill-rule="evenodd"/>
      <path id="Path_8840" data-name="Path 8840" d="M197.1,798.327s1.293-6.928,5.172-7.477a14.054,14.054,0,0,0-2.683,7.854l-2.489-.366Z" transform="translate(-8692.905 9774.4)" fill="#41455c" fill-rule="evenodd"/>
      <path id="Path_8841" data-name="Path 8841" d="M210.227,802.99a7.244,7.244,0,0,1,.646,1.907c.269,1.11.528,2.23.786,3.34a6.3,6.3,0,0,0,.819,2.2,8.2,8.2,0,0,0,1.648,1.519,13.051,13.051,0,0,1,3.211,3.825,7.586,7.586,0,0,1,1.067,5.053,6.412,6.412,0,0,1-5.215,4.773,9.993,9.993,0,0,1-7.122-1.745,3.922,3.922,0,0,1-1.067-.948,4.32,4.32,0,0,1-.582-1.638,61.946,61.946,0,0,1-1.11-8.684c.894.269,1.293,1.271,1.616,2.155,1.077,2.984,2.65,6.055,5.462,7.509a4.429,4.429,0,0,0,2.295.571,4.514,4.514,0,0,0,2.974-1.627,3.852,3.852,0,0,0,.851-1.368,3.991,3.991,0,0,0-1-3.771,19.137,19.137,0,0,0-3.146-2.586,6.449,6.449,0,0,1-1.6-1.6,7.533,7.533,0,0,1-.808-2.306c-.248-1.056-.5-2.112-.733-3.168a6.354,6.354,0,0,0-1.185-2.855c-.571-.657-2.456-1.659-.927-2.381,1.174-.549,2.6.927,3.1,1.832Z" transform="translate(-8692.424 9775.189)" fill="#41455c" fill-rule="evenodd"/>
      <path id="Path_8842" data-name="Path 8842" d="M206.95,811.653l1.3-.323.345.463-.5.549-.528.054Z" transform="translate(-8692.143 9775.985)" fill="#d14243" fill-rule="evenodd"/>
      <path id="Path_8843" data-name="Path 8843" d="M201.933,799.026s.927-1.7.4-2.435-3.168-1.487-4.094-.948a3.142,3.142,0,0,0-1.088,2.112l-1.659-.237s1.659-2.413,2.295-3.1,4.773-.356,5.365.991.1,4.18.1,4.18l-1.325-.56Z" transform="translate(-8693.029 9774.649)" fill="#b37044" fill-rule="evenodd"/>
      <path id="Path_8844" data-name="Path 8844" d="M205.376,802.17l.571-3.663-12.692-1.067s-3.318,4.45-3.4,12.778a68.931,68.931,0,0,0,1.228,14.286l13.435,3.254Z" transform="translate(-8693.466 9774.91)" fill="#b37044" fill-rule="evenodd"/>
      <path id="Path_8845" data-name="Path 8845" d="M196.386,811.638a12.951,12.951,0,0,0,.215-2.263s4.17.733,4.967.5,2.7-4.687,2.7-4.687l-1.3-2-12.6,1.26a29.48,29.48,0,0,0-.474,3.728,45.586,45.586,0,0,0,4.719.873l.291,3.383a1.518,1.518,0,0,0,1.2-.183,1.256,1.256,0,0,0,.28-.6Z" transform="translate(-8693.462 9775.354)" fill="#a2603f" fill-rule="evenodd"/>
      <path id="Path_8846" data-name="Path 8846" d="M202.88,798.874a4.554,4.554,0,0,1,2.176-.453,3.669,3.669,0,0,1,1.885.776,2.257,2.257,0,0,1,.733,1.551c.269,3.6,1.8,21.85.593,23.584a6.866,6.866,0,0,1-3.685,2.758c-.3.1-.528.582-.862.6-1.8.1-2.37-13.823-2.37-17.228s1.519-11.593,1.519-11.593Z" transform="translate(-8692.575 9774.985)" fill="#a2603f" fill-rule="evenodd"/>
      <path id="Path_8847" data-name="Path 8847" d="M206.07,812.806c2.456-.118,2.7-1.142,2.553-1.131s-.162-.291-.162-.291a.61.61,0,0,1,.83.334c.259.593,1.562,7.24.851,9.513a7.389,7.389,0,0,1-3.8,4.31,9.072,9.072,0,0,1-2.629,1.153,29.017,29.017,0,0,1-1.9-7.714c-.269-3.771-.194-6.669-.194-6.669a15.581,15.581,0,0,0,4.45.5Z" transform="translate(-8692.556 9775.985)" fill="#b37044" fill-rule="evenodd"/>
      <path id="Path_8848" data-name="Path 8848" d="M195.711,807.426l-1.778-.356s-.215,1.379-.291,2.467a9.11,9.11,0,0,0-.011,1.347c.054.636.2,1.131.722,1.239.711.14,1.1-.657,1.142-1.034s.215-3.663.215-3.663Z" transform="translate(-8693.175 9775.656)" fill="#b37044" fill-rule="evenodd"/>
      <path id="Path_8849" data-name="Path 8849" d="M194.475,810.47a.483.483,0,1,0,.344.141A.485.485,0,0,0,194.475,810.47Z" transform="translate(-8693.146 9775.919)" fill="#fefefe" fill-rule="evenodd"/>
      <path id="Path_8850" data-name="Path 8850" d="M205.831,798.561a22.974,22.974,0,0,0-2.9,5.85c-.679,2.64-1.077,4.654-1.713,5.031s-9.794-1.131-10.6-1.465-1.5-.237-1.5-1.013a17.631,17.631,0,0,1,1.465-6.389,12.425,12.425,0,0,1,3.4-4.116c.237,0,11.83,2.112,11.83,2.112Z" transform="translate(-8693.522 9774.835)" fill="#41455c" fill-rule="evenodd"/>
      <path id="Path_8851" data-name="Path 8851" d="M201.267,818.552c-.28-2.456.1-3.318-.28-3.739s-4.159-.431-7-.948a21.44,21.44,0,0,1-3.739-1.045c-.3.011-.9.28-.9,1.228s.119,6.852.851,7.574a6.34,6.34,0,0,1,.743.776l12.1,2.823a18.335,18.335,0,0,1-1.778-6.669Z" transform="translate(-8693.505 9776.102)" fill="#41455c" fill-rule="evenodd"/>
      <path id="Path_8852" data-name="Path 8852" d="M201.073,814.932l-.086-.129c-.377-.431-4.159-.431-7-.948a21.44,21.44,0,0,1-3.739-1.045c-.3.011-.9.28-.9,1.228,0,.291.011,1.023.043,1.929L199.8,815.7l1.271-.776Z" transform="translate(-8693.505 9776.101)" fill="#41455c" fill-rule="evenodd"/>
      <path id="Path_8853" data-name="Path 8853" d="M189.426,813.451a1.634,1.634,0,0,0-.086.549c0,.948.119,6.852.851,7.574a6.356,6.356,0,0,1,.743.776l10.817,2.521a26.123,26.123,0,0,1-1.131-3.458c-.4-1.724-.83-5.753-.83-5.753a24.99,24.99,0,0,1-3.34-.431,54.213,54.213,0,0,1-7.035-1.788Z" transform="translate(-8693.505 9776.149)" fill="#4a4f64" fill-rule="evenodd"/>
      <path id="Path_8854" data-name="Path 8854" d="M189.38,815.52a3.278,3.278,0,0,1,.011.334,40.919,40.919,0,0,0,5.538,1.53c2.079.366,4.04.711,5.215.916l-.043-.323c-1.185-.216-3.124-.549-5.118-.894a41.419,41.419,0,0,1-5.6-1.551Z" transform="translate(-8693.502 9776.31)" fill="#fefefe" fill-rule="evenodd"/>
      <path id="Path_8855" data-name="Path 8855" d="M201.235,781.49c.636.786,1.487,1.53,1.53,2.543a3.914,3.914,0,0,0,.043,1.282c.377.927,1.982.808,2.338,1.745.226.6-.226,1.379.162,1.9a1.3,1.3,0,0,0,.571.377,4.228,4.228,0,0,0,4.891-1.562,5.992,5.992,0,0,1,.97-1.379c.8-.668,2.058-.506,2.877-1.142.873-.679.97-2.015,1.8-2.737.517-.453,1.271-.614,1.7-1.142.657-.808.291-2.026-.291-2.887a6.739,6.739,0,0,1-1.487-2.693c-.151-1.12.42-2.553-.5-3.221-.463-.345-1.131-.269-1.638-.549-.765-.409-.937-1.433-1.53-2.058a3.153,3.153,0,0,0-3-.6,24.606,24.606,0,0,1-3.092.8,4.6,4.6,0,0,0-2.112.345c-1.508.959-.646,3.933-2.306,4.6-.452.183-.97.108-1.4.334a1.592,1.592,0,0,0-.679,1.756c.269,1.217.345,3.329,1.153,4.32Z" transform="translate(-8692.676 9772.728)" fill-rule="evenodd"/>
    </g>
  </g>
</svg>
