<svg xmlns="http://www.w3.org/2000/svg" width="315.912" height="230.619" viewBox="0 0 315.912 230.619">
  <g id="Group_10406" data-name="Group 10406" transform="translate(-921 -432.699)">
    <g id="Group_10395" data-name="Group 10395" transform="translate(-7)">
      <path id="Path_8961" data-name="Path 8961" d="M241.563,50.4c9.289-55.454-151.28-62.277-213.186-10C-31.47,90.921,4.407,143.446,62.763,150.426,131.283,158.622,231.255,111.974,241.563,50.4Z" transform="translate(943.296 427.947)" fill="#c5dfdc" fill-rule="evenodd"/>
      <path id="Path_8962" data-name="Path 8962" d="M104.22,189.34c78.772,55.641,178.107-31.541,201.307-78.772C349.178,21.681,273.643-28.848,149.232,6.162S16.282,42.17,4.191,93.063c-17.506,91.9,78.772,51.89,100.038,96.277Z" transform="translate(925.924 456.027)" fill="#00f3bb" fill-rule="evenodd"/>
    </g>
    <g id="Group_10405" data-name="Group 10405" transform="translate(-1.897)">
      <g id="Group_8612" data-name="Group 8612" transform="translate(980.127 453.128)">
        <path id="Path_8723" data-name="Path 8723" d="M256.749,33.36H57.933a2.831,2.831,0,0,0-2.823,2.823V50.221H259.572V36.183a2.831,2.831,0,0,0-2.823-2.823Z" transform="translate(-55.11 -33.36)" fill="#004747" fill-rule="evenodd"/>
        <path id="Path_8724" data-name="Path 8724" d="M256.749,227.068H57.933a2.831,2.831,0,0,1-2.823-2.823V50.69H259.572V224.245A2.825,2.825,0,0,1,256.749,227.068Z" transform="translate(-55.11 -33.819)" fill="#fefefe" fill-rule="evenodd"/>
        <path id="Path_8725" data-name="Path 8725" d="M89.629,37.94a3.728,3.728,0,1,0,3.728,3.728,3.728,3.728,0,0,0-3.728-3.728Zm-20.161,0A3.728,3.728,0,1,0,73.2,41.668a3.728,3.728,0,0,0-3.732-3.728Zm10.076,0a3.728,3.728,0,1,0,3.728,3.728,3.728,3.728,0,0,0-3.728-3.728Z" transform="translate(-55.392 -33.481)" fill="#9599a4" fill-rule="evenodd"/>
        <g id="Group_8610" data-name="Group 8610" transform="translate(10.348 23.685)">
          <rect id="Rectangle_3409" data-name="Rectangle 3409" width="12.694" height="2.609" transform="translate(20.531)" fill="#545f75"/>
          <rect id="Rectangle_3410" data-name="Rectangle 3410" width="12.694" height="2.609" fill="#545f75"/>
        </g>
        <g id="Group_8611" data-name="Group 8611" transform="translate(141.37 23.685)">
          <rect id="Rectangle_3411" data-name="Rectangle 3411" width="12.694" height="2.609" transform="translate(20.531)" fill="#545f75"/>
          <rect id="Rectangle_3412" data-name="Rectangle 3412" width="12.694" height="2.609" fill="#545f75"/>
          <rect id="Rectangle_3413" data-name="Rectangle 3413" width="12.694" height="2.609" transform="translate(40.867)" fill="#545f75"/>
        </g>
        <path id="Path_8726" data-name="Path 8726" d="M186.987,111.336,168.373,85.48l-18.6,25.856Z" transform="translate(-57.619 -34.742)" fill="#ff8c71" fill-rule="evenodd"/>
        <path id="Path_8727" data-name="Path 8727" d="M161.132,111.52,147.4,92.44l-13.74,19.08Z" transform="translate(-57.192 -34.926)" fill="#ffdf7c" fill-rule="evenodd"/>
        <rect id="Rectangle_3414" data-name="Rectangle 3414" width="16.423" height="9.336" transform="translate(148.36 84.528)"/>
        <rect id="Rectangle_3415" data-name="Rectangle 3415" width="105.643" height="9.336" transform="translate(41.237 84.528)" fill="#e1e6ea"/>
        <rect id="Rectangle_3416" data-name="Rectangle 3416" width="48.821" height="4.293" transform="translate(54.934 101.886)"/>
        <rect id="Rectangle_3417" data-name="Rectangle 3417" width="44.605" height="2.609" transform="translate(41.237 110.277)" fill="#e1e6ea"/>
        <rect id="Rectangle_3418" data-name="Rectangle 3418" width="122.066" height="2.609" transform="translate(41.237 116.44)" fill="#e1e6ea"/>
        <rect id="Rectangle_3419" data-name="Rectangle 3419" width="106.013" height="2.609" transform="translate(41.237 122.972)" fill="#e1e6ea"/>
        <rect id="Rectangle_3420" data-name="Rectangle 3420" width="122.066" height="2.609" transform="translate(41.237 148.73)" fill="#e1e6ea"/>
        <rect id="Rectangle_3421" data-name="Rectangle 3421" width="113.1" height="2.609" transform="translate(41.237 155.078)" fill="#e1e6ea"/>
        <path id="Path_8728" data-name="Path 8728" d="M113.328,213.17H97.46v4.293h15.868Zm106.2,0h-15.87v4.293h15.868Z" transform="translate(-56.233 -38.126)" fill="#545f75" fill-rule="evenodd"/>
        <path id="Path_8729" data-name="Path 8729" d="M124.558,213.17H119.71v4.293h4.848Zm73.907,0h-4.848v4.293h4.848Zm-8.216,0H185.4v4.293h4.848Zm-8.216,0h-4.848v4.293h4.848Zm-8.216,0h-4.848v4.293h4.848Zm-8.216,0h-4.848v4.293H165.6Zm-8.216,0h-4.848v4.293h4.848Zm-8.216,0H144.32v4.293h4.848Zm-8.216,0H136.1v4.293h4.848Zm-8.216,0h-4.848v4.293h4.848Z" transform="translate(-56.822 -38.126)" fill="#e1e6ea" fill-rule="evenodd"/>
      </g>
      <g id="Group_8613" data-name="Group 8613" transform="translate(1115.905 551.256)">
        <path id="Path_8730" data-name="Path 8730" d="M248.16,222.716l1.858,4.5,2.742-.973-1.327-4.323a28.311,28.311,0,0,0-3.262.8Z" transform="translate(-167.433 -124.884)" fill="#ffc8c9" fill-rule="evenodd"/>
        <path id="Path_8731" data-name="Path 8731" d="M231.738,223.92l-.265,5.031-2.466.265-.177-5.031Z" transform="translate(-169.476 -124.672)" fill="#ffc8c9" fill-rule="evenodd"/>
        <path id="Path_8732" data-name="Path 8732" d="M229.586,184.3s-2.919,15.9-3.616,21.285,2.3,24.812,2.3,24.812l4.854-.531s-1.327-21.019-1.061-24.1,5.208-11.123,5.208-11.123l-3.527-11.123s-4.235.8-4.146.8Z" transform="translate(-169.79 -128.943)" fill="#5e5e5e" fill-rule="evenodd"/>
        <path id="Path_8733" data-name="Path 8733" d="M231.46,184.231s3.184,15.723,4.677,19.162S249.03,228.47,249.03,228.47l5.562-.2-.066-2.808-9.288-23.75-.708-15.723-13.07-1.769Z" transform="translate(-169.198 -128.869)" fill="#8d8d8d" fill-rule="evenodd"/>
        <path id="Path_8734" data-name="Path 8734" d="M234.574,157.8s-3.273-.973-5.473,3.184a29.267,29.267,0,0,0-2.831,8.658l3.7,1.062s4.412-13.069,4.589-12.892Z" transform="translate(-169.747 -131.672)" fill="#00698a" fill-rule="evenodd"/>
        <path id="Path_8735" data-name="Path 8735" d="M233.25,143.1a36.9,36.9,0,0,0-1.15,7.95,3.956,3.956,0,0,0,3.1,4.146l-.885,3.45,2.742,3.173,3.616-3.7.354-5.915.708-5.208s-8.3-3.7-8.481-3.881Z" transform="translate(-169.131 -133.215)" fill="#ffc5cb" fill-rule="evenodd"/>
        <path id="Path_8736" data-name="Path 8736" d="M245.884,157.6s-8.215-2.831-12.273-.442-6.269,14.839-6.535,23.4.354,9.011.354,9.011l18.277.442V173.5S246.061,157.869,245.884,157.6Z" transform="translate(-169.669 -131.83)" fill="#004747" fill-rule="evenodd"/>
        <path id="Path_8737" data-name="Path 8737" d="M228.544,167.54s-.442,6.181-4.323,6.269-6.623-6.269-8.038-5.65,0,4.412,3.184,7.331,7.95,3.008,10.681.973.354-8.038-1.5-8.923Z" transform="translate(-170.871 -130.632)" fill="#fdc4ca" fill-rule="evenodd"/>
        <path id="Path_8738" data-name="Path 8738" d="M249.225,226.807l-.873,3.184-4.511,1.15v1.592l6.8.088L255.5,228.4l-1.67-3.439Z" transform="translate(-167.89 -124.562)" fill="#004747" fill-rule="evenodd"/>
        <path id="Path_8739" data-name="Path 8739" d="M233.606,227.99h-4.677l-6.888,3.273v1.15l11.566-.442s-.088-3.793,0-3.969Z" transform="translate(-170.194 -124.242)" fill="#004747" fill-rule="evenodd"/>
        <path id="Path_8740" data-name="Path 8740" d="M230.512,168.779l-1.7,2.963-2.665-1.537a26.521,26.521,0,1,0-2.355,4.589l2.444,1.4-1.891,3.3,26.492,15.225L256.994,184,230.5,168.779Zm-28.958-29.323a21.108,21.108,0,1,0,21.108,21.108,21.108,21.108,0,0,0-21.108-21.108Z" transform="translate(-175.15 -134.16)" fill="#80c6be" fill-rule="evenodd"/>
        <path id="Path_8742" data-name="Path 8742" d="M240.934,154.33l-.885-5.429c-9.741-.475-12.229-9.763-3.1-8.835,15.6,1.592,6.214,13.678,3.969,14.264Z" transform="translate(-169.218 -133.543)" fill-rule="evenodd"/>
        <path id="Path_8743" data-name="Path 8743" d="M247.242,170.4a17.211,17.211,0,0,1,1.15,4.677c0,6.734-14.374-1.338-15.369-.354-4.489,4.456,26.083,21.053,19.692-4.146C251.212,164.666,246.977,170.582,247.242,170.4Z" transform="translate(-169.602 -131.695)" fill="#fec6c9" fill-rule="evenodd"/>
        <path id="Path_8744" data-name="Path 8744" d="M242.47,158.782c-2.609,4.069,1.813,6.877,3.682,11.687,4.268,10.913-9.321,5.949-9.321,6.314-.022,1.957-.055,6.391,1.869,7.021,7.242,2.344,14.286,2.532,15.159-4.445.475-3.826-7.132-27.211-11.389-20.566Z" transform="translate(-168.486 -132.408)" fill="#00698a" fill-rule="evenodd"/>
      </g>
      <path id="Path_8745" data-name="Path 8745" d="M121.38,108.014l3.427-.526a2.461,2.461,0,0,0,.886,1.5,3.025,3.025,0,0,0,1.869.516,3.407,3.407,0,0,0,2-.487,1.083,1.083,0,0,0,.448-.915.923.923,0,0,0-.243-.643,2.657,2.657,0,0,0-1.139-.448,18.842,18.842,0,0,1-5.237-1.665,3.339,3.339,0,0,1-1.528-2.911,3.6,3.6,0,0,1,1.324-2.823,6.186,6.186,0,0,1,4.1-1.139,7.158,7.158,0,0,1,3.933.866,4.442,4.442,0,0,1,1.772,2.56l-3.2.594a2.007,2.007,0,0,0-.789-1.168,2.849,2.849,0,0,0-1.655-.4,3.757,3.757,0,0,0-1.947.38.8.8,0,0,0-.4.7.75.75,0,0,0,.341.623,13.2,13.2,0,0,0,3.2.964,9.538,9.538,0,0,1,3.816,1.519,3.126,3.126,0,0,1,1.071,2.541,3.907,3.907,0,0,1-1.48,3.047,6.582,6.582,0,0,1-4.39,1.275,7.327,7.327,0,0,1-4.176-1.061,4.894,4.894,0,0,1-2.005-2.891Zm22.507-.448,3.407.574a5.639,5.639,0,0,1-2.064,2.852,6.082,6.082,0,0,1-3.543.973,5.748,5.748,0,0,1-4.975-2.2,7.434,7.434,0,0,1-1.275-4.459,7.1,7.1,0,0,1,1.674-5.023,5.5,5.5,0,0,1,4.235-1.82,5.719,5.719,0,0,1,4.536,1.9q1.665,1.9,1.587,5.831h-8.528a3.493,3.493,0,0,0,.827,2.366,2.565,2.565,0,0,0,1.957.847,2.064,2.064,0,0,0,1.343-.438,2.722,2.722,0,0,0,.827-1.4Zm.2-3.456a3.313,3.313,0,0,0-.759-2.259,2.442,2.442,0,0,0-3.612.039,3.157,3.157,0,0,0-.711,2.22Zm8.7-1.392-3.086-.545a4.858,4.858,0,0,1,1.8-2.794,6.528,6.528,0,0,1,3.787-.905,8.16,8.16,0,0,1,3.4.535,3.39,3.39,0,0,1,1.567,1.373,7.048,7.048,0,0,1,.458,3.057l-.049,3.982a14.14,14.14,0,0,0,.165,2.512,6.954,6.954,0,0,0,.613,1.723h-3.378c-.088-.224-.2-.555-.331-.993-.058-.2-.1-.331-.117-.4a5.956,5.956,0,0,1-1.869,1.285,5.32,5.32,0,0,1-2.112.428A4.356,4.356,0,0,1,150.5,110.9a3.6,3.6,0,0,1-1.139-2.736,3.671,3.671,0,0,1,.526-1.947,3.455,3.455,0,0,1,1.46-1.3,11.758,11.758,0,0,1,2.706-.8,19.428,19.428,0,0,0,3.31-.837v-.341a1.816,1.816,0,0,0-.487-1.421,2.932,2.932,0,0,0-1.84-.419,2.4,2.4,0,0,0-1.421.36,2.573,2.573,0,0,0-.827,1.275Zm4.575,2.755q-.657.219-2.074.526a6.367,6.367,0,0,0-1.859.594,1.431,1.431,0,0,0-.672,1.2,1.645,1.645,0,0,0,.535,1.236,1.865,1.865,0,0,0,1.363.526,3.01,3.01,0,0,0,1.762-.6,2.137,2.137,0,0,0,.808-1.129,6.784,6.784,0,0,0,.136-1.665Zm9.978,6.162h-3.407v-12.9h3.154v1.83a5.4,5.4,0,0,1,1.47-1.7,2.721,2.721,0,0,1,1.48-.4,4.34,4.34,0,0,1,2.249.643l-1.061,2.979a3.009,3.009,0,0,0-1.606-.555,1.957,1.957,0,0,0-1.217.389,2.673,2.673,0,0,0-.779,1.421,20.067,20.067,0,0,0-.282,4.322v3.982ZM185,102.563l-3.359.594a2.177,2.177,0,0,0-2.327-2.015,2.538,2.538,0,0,0-2.035.886,4.509,4.509,0,0,0-.759,2.95,5.244,5.244,0,0,0,.769,3.251,2.515,2.515,0,0,0,2.064.944,2.286,2.286,0,0,0,1.587-.555,3.329,3.329,0,0,0,.876-1.908l3.359.574a5.971,5.971,0,0,1-2.005,3.495,6.168,6.168,0,0,1-3.972,1.178,5.909,5.909,0,0,1-4.507-1.782,8.174,8.174,0,0,1,0-9.939,5.983,5.983,0,0,1,4.566-1.781,6.235,6.235,0,0,1,3.738,1.012,5.628,5.628,0,0,1,2,3.086Zm5.948-8.722v6.6a5.118,5.118,0,0,1,6.114-1.538,3.463,3.463,0,0,1,1.431,1.12,3.974,3.974,0,0,1,.662,1.509,13.527,13.527,0,0,1,.175,2.56v7.554h-3.41v-6.8a10.152,10.152,0,0,0-.2-2.57,1.729,1.729,0,0,0-.691-.866,2.258,2.258,0,0,0-1.246-.321,2.794,2.794,0,0,0-1.528.419,2.361,2.361,0,0,0-.983,1.246,7.2,7.2,0,0,0-.312,2.453v6.454h-3.407V93.85h3.407Z" transform="translate(923.261 418.164)" fill-rule="evenodd"/>
      <g id="Group_8614" data-name="Group 8614" transform="translate(958.897 540.883)">
        <path id="Path_8746" data-name="Path 8746" d="M67.474,210.81l-22.78,2,5.286,7.681L38.6,228.333l2.22,3.222,11.39-7.846,5.3,7.681Z" transform="translate(-38.6 -210.81)" fill="#e1e6ea" fill-rule="evenodd"/>
        <path id="Path_8747" data-name="Path 8747" d="M67.474,210.81l-22.78,2,5.286,7.681L38.6,228.333l1.1,1.606,27.764-19.11Z" transform="translate(-38.6 -210.81)" fill="#afbdc9" fill-rule="evenodd"/>
      </g>
      <path id="Path_8752" data-name="Path 8752" d="M198.36,138.57a19.11,19.11,0,1,0,19.11,19.11,19.11,19.11,0,0,0-19.11-19.11Z" transform="translate(921.727 416.979)" fill="rgba(225,255,255,0.28)" fill-rule="evenodd"/>
      <path id="Path_8754" data-name="Path 8754" d="M109.2,167.064l-5.374-.964-5.374.964c0,11.419-1.665,10.222,5.374,13.24C110.867,177.285,109.2,178.483,109.2,167.064Z" transform="translate(923.873 416.249)" fill="#004747"/>
      <path id="Path_8756" data-name="Path 8756" d="M107.015,169.5a4.312,4.312,0,1,0,.331,6.182,3.378,3.378,0,1,1,.127-5.734,3.89,3.89,0,0,0-.448-.448Z" transform="translate(923.83 416.187)" fill="#00f3bb" fill-rule="evenodd"/>
      <path id="Path_8759" data-name="Path 8759" d="M239.5,40.011h-4.6v4.6h4.6Zm11.2-.029,2.142,2.288L250.7,44.558l.516.487,2.122-2.249,2.122,2.249.516-.487-2.142-2.288,2.142-2.288-.516-.487-2.122,2.249L251.216,39.5Zm-2.92,2.911h-5.218v-.7h5.218ZM234.53,39.3h5.67v6.016h-6.02V39.3Z" transform="translate(920.271 419.61)" fill="#fefefe"/>
      <text id="safemedigo" transform="translate(1073.388 593.566)" fill="#004747" font-size="12" font-family="SegoeUI, Segoe UI"><tspan x="-31.597" y="0">Safemedigo</tspan></text>
    </g>
  </g>
</svg>
