<svg xmlns="http://www.w3.org/2000/svg" width="502.573" height="308.078" viewBox="0 0 502.573 308.078">
  <g id="Group_8791" data-name="Group 8791" transform="translate(-926 -1121)">
    <g id="_2048896170464" transform="translate(926 1121)">
      <rect id="Rectangle_1095" data-name="Rectangle 1095" width="502.573" height="11.466" transform="translate(0 190.436)" fill="gray"/>
      <g id="Group_511" data-name="Group 511" transform="translate(217.156 53.673)">
        <path id="Path_1088" data-name="Path 1088" d="M724.14,354.883h2.817V350.94H724.14Z" transform="translate(-591.398 -235.042)" fill="#2b2e31"/>
        <path id="Path_1089" data-name="Path 1089" d="M715.62,354.883h2.812V350.94H715.62Z" transform="translate(-586.994 -235.042)" fill="#2b2e31"/>
        <path id="Path_1090" data-name="Path 1090" d="M707.13,354.883h2.8V350.94h-2.8Z" transform="translate(-582.607 -235.042)" fill="#2b2e31"/>
        <path id="Path_1091" data-name="Path 1091" d="M665.68,354.883H668.5V350.94H665.68Z" transform="translate(-561.185 -235.042)" fill="#2b2e31"/>
        <path id="Path_1092" data-name="Path 1092" d="M657.18,354.883h2.8V350.94h-2.8Z" transform="translate(-556.792 -235.042)" fill="#2b2e31"/>
        <path id="Path_1093" data-name="Path 1093" d="M648.66,354.883h2.812V350.94H648.66Z" transform="translate(-552.389 -235.042)" fill="#2b2e31"/>
        <path id="Path_1094" data-name="Path 1094" d="M717.711,346.13v8.3H702.22v-8.3Zm-2.083,6.267v-3.943h-2.817V352.4Zm-4.122,0v-3.943H708.69V352.4Zm-4.122,0v-3.943h-2.8V352.4Z" transform="translate(-580.069 -232.556)" fill="#a3c9be"/>
        <path id="Path_1095" data-name="Path 1095" d="M654.507,352.4h2.817v-3.943h-2.817Zm-7.156-6.267h12.2v8.3H644.06v-8.3ZM653.2,352.4v-3.943h-2.8V352.4Zm-4.1,0v-3.943h-2.817V352.4Z" transform="translate(-550.012 -232.556)" fill="#a3c9be"/>
        <path id="Path_1096" data-name="Path 1096" d="M650.86,327.559h8.64V321.77h-8.64Z" transform="translate(-553.526 -219.966)" fill="#ff9500"/>
        <path id="Path_1097" data-name="Path 1097" d="M659.5,303.4h-8.64v-5.6h8.64Z" transform="translate(-553.526 -207.578)" fill="#ff9500"/>
        <path id="Path_1098" data-name="Path 1098" d="M650.86,279.435h8.64v-5.6h-8.64Z" transform="translate(-553.526 -195.196)" fill="#ff9500"/>
        <path id="Path_1099" data-name="Path 1099" d="M650.86,255.486h8.64V249.9h-8.64Z" transform="translate(-553.526 -182.823)" fill="#ff9500"/>
        <path id="Path_1100" data-name="Path 1100" d="M659.5,227.9v3.01h-8.64v-6.19h8.64Z" transform="translate(-553.526 -169.81)" fill="#ff9500"/>
        <path id="Path_1101" data-name="Path 1101" d="M718.23,224.72v6.19h-8.64v-6.19Z" transform="translate(-583.878 -169.81)" fill="#ff9500"/>
        <path id="Path_1102" data-name="Path 1102" d="M709.59,255.486h8.64V249.9h-8.64Z" transform="translate(-583.878 -182.823)" fill="#ff9500"/>
        <path id="Path_1103" data-name="Path 1103" d="M709.59,279.435h8.64v-5.6h-8.64Z" transform="translate(-583.878 -195.196)" fill="#ff9500"/>
        <path id="Path_1104" data-name="Path 1104" d="M718.23,297.8v5.6h-8.64v-5.6Z" transform="translate(-583.878 -207.578)" fill="#ff9500"/>
        <path id="Path_1105" data-name="Path 1105" d="M709.59,327.559h8.64V321.77h-8.64Z" transform="translate(-583.878 -219.966)" fill="#ff9500"/>
        <path id="Path_1106" data-name="Path 1106" d="M718.23,237.53v5.977h-8.64V237.53Z" transform="translate(-583.878 -176.43)" fill="#e57900"/>
        <path id="Path_1107" data-name="Path 1107" d="M709.59,267.442h8.64V261.46h-8.64Z" transform="translate(-583.878 -188.798)" fill="#e57900"/>
        <path id="Path_1108" data-name="Path 1108" d="M709.59,291.407h8.64V285.43h-8.64Z" transform="translate(-583.878 -201.185)" fill="#e57900"/>
        <path id="Path_1109" data-name="Path 1109" d="M659.5,237.622v5.885h-8.64V237.53h8.64Z" transform="translate(-553.526 -176.43)" fill="#e57900"/>
        <path id="Path_1110" data-name="Path 1110" d="M650.86,267.442h8.64V261.46h-8.64Z" transform="translate(-553.526 -188.798)" fill="#e57900"/>
        <path id="Path_1111" data-name="Path 1111" d="M650.86,291.407h8.64V285.43h-8.64Z" transform="translate(-553.526 -201.185)" fill="#e57900"/>
        <path id="Path_1112" data-name="Path 1112" d="M650.86,315.372h8.64V309.39h-8.64Z" transform="translate(-553.526 -213.568)" fill="#e57900"/>
        <path id="Path_1113" data-name="Path 1113" d="M709.59,315.372h8.64V309.39h-8.64Z" transform="translate(-583.878 -213.568)" fill="#e57900"/>
        <path id="Path_1114" data-name="Path 1114" d="M709.59,339.732h8.64V333.75h-8.64Z" transform="translate(-583.878 -226.158)" fill="#e57900"/>
        <path id="Path_1115" data-name="Path 1115" d="M650.86,339.732h8.64V333.75h-8.64Z" transform="translate(-553.526 -226.158)" fill="#e57900"/>
        <path id="Path_1116" data-name="Path 1116" d="M668.74,301.492h19.739v-3.1H668.74Z" transform="translate(-562.766 -207.883)" fill="#aa9c99"/>
        <path id="Path_1117" data-name="Path 1117" d="M688.479,234.31v.092H668.74v-3.1h19.739Z" transform="translate(-562.766 -173.211)" fill="#aa9c99"/>
        <path id="Path_1118" data-name="Path 1118" d="M744.23,222.193h10.959V206.75H744.23Z" transform="translate(-601.78 -160.523)" fill="#2b2e31"/>
        <path id="Path_1119" data-name="Path 1119" d="M744.23,278.9h10.959V263.47H744.23Z" transform="translate(-601.78 -189.836)" fill="#2b2e31"/>
        <path id="Path_1120" data-name="Path 1120" d="M744.23,334.813h10.959V319.37H744.23Z" transform="translate(-601.78 -218.726)" fill="#2b2e31"/>
        <path id="Path_1121" data-name="Path 1121" d="M750.046,215.795V200.347H739.088v15.448Zm4.8-21.425v26.643H734.28V194.37Z" transform="translate(-596.638 -154.125)" fill="#fc7b42"/>
        <path id="Path_1122" data-name="Path 1122" d="M750.046,271.684V256.255H739.088v15.428Zm4.8-22.174v28.17H734.28V249.51Z" transform="translate(-596.638 -182.622)" fill="#ef5e24"/>
        <path id="Path_1123" data-name="Path 1123" d="M750.046,328.838V313.391H739.088v15.448Zm4.8-21.028v26.629H734.28V307.81Z" transform="translate(-596.638 -212.752)" fill="#c84513"/>
        <path id="Path_1124" data-name="Path 1124" d="M831.212,380.63V389H803.52V380.63Z" transform="translate(-632.422 -250.386)" fill="#a3c9be"/>
        <path id="Path_1125" data-name="Path 1125" d="M620.518,371.679v8.369H449.42V363.31h171.1Z" transform="translate(-449.42 -241.434)" fill="#80a096"/>
        <path id="Path_1126" data-name="Path 1126" d="M815.985,319.79h4.948v2.783h-37.3V319.79Z" transform="translate(-622.143 -218.943)" fill="#aa9c99"/>
        <path id="Path_1127" data-name="Path 1127" d="M812.979,257.47h7.953v2.8h-37.3v-2.8Z" transform="translate(-622.143 -186.736)" fill="#aa9c99"/>
        <path id="Path_1128" data-name="Path 1128" d="M650.86,173.112h37.017v-3.1H650.86Z" transform="translate(-553.526 -141.536)" fill="#aa9c99"/>
        <path id="Path_1129" data-name="Path 1129" d="M593.909,343.665v.382H547.03V341.36h46.879Z" transform="translate(-499.866 -230.091)" fill="#aa9c99"/>
        <path id="Path_1130" data-name="Path 1130" d="M547.03,291.321h46.879v-2.7H547.03Z" transform="translate(-499.866 -202.834)" fill="#aa9c99"/>
        <path id="Path_1131" data-name="Path 1131" d="M547.03,241.016h46.879V238.31H547.03Z" transform="translate(-499.866 -176.833)" fill="#aa9c99"/>
        <path id="Path_1132" data-name="Path 1132" d="M547.03,190.686h46.879V187.98H547.03Z" transform="translate(-499.866 -150.823)" fill="#aa9c99"/>
        <path id="Path_1133" data-name="Path 1133" d="M507.86,354.84h2.479V346.92H507.86Z" transform="translate(-479.622 -232.964)" fill="#5a5a5a"/>
        <path id="Path_1134" data-name="Path 1134" d="M507.86,316.993h2.479V294.21H507.86Z" transform="translate(-479.622 -205.723)" fill="#5a5a5a"/>
        <path id="Path_1135" data-name="Path 1135" d="M507.86,265.513h2.479v-21.6H507.86Z" transform="translate(-479.622 -179.728)" fill="#5a5a5a"/>
        <path id="Path_1136" data-name="Path 1136" d="M507.86,215.193h2.479V193.58H507.86Z" transform="translate(-479.622 -153.717)" fill="#5a5a5a"/>
        <path id="Path_1137" data-name="Path 1137" d="M507.86,156.537h2.479v-29.4H507.86Z" transform="translate(-479.622 -119.38)" fill="#5a5a5a"/>
        <path id="Path_1138" data-name="Path 1138" d="M484.108,344.047H461.9V341.36h37.844v2.687Z" transform="translate(-455.87 -230.091)" fill="#aa9c99"/>
        <path id="Path_1139" data-name="Path 1139" d="M484.108,291.321H461.9v-2.7h37.844v2.7Z" transform="translate(-455.87 -202.834)" fill="#aa9c99"/>
        <path id="Path_1140" data-name="Path 1140" d="M484.108,241.016H461.9V238.31h37.844v2.706Z" transform="translate(-455.87 -176.833)" fill="#aa9c99"/>
        <path id="Path_1141" data-name="Path 1141" d="M484.108,190.686H461.9V187.98h37.844v2.706Z" transform="translate(-455.87 -150.823)" fill="#aa9c99"/>
        <path id="Path_1142" data-name="Path 1142" d="M844.37,352.164h3.005V325.55H844.37Z" transform="translate(-653.534 -221.92)" fill="#898989"/>
        <path id="Path_1143" data-name="Path 1143" d="M844.37,244.033h3.005V231.47H844.37Z" transform="translate(-653.534 -173.299)" fill="#898989"/>
        <path id="Path_1144" data-name="Path 1144" d="M844.37,290.58h3.005V263.27H844.37Z" transform="translate(-653.534 -189.733)" fill="#898989"/>
        <path id="Path_1145" data-name="Path 1145" d="M780.126,211.927v21.028H776.85V111.08h3.276Z" transform="translate(-618.638 -111.08)" fill="#898989"/>
        <path id="Path_1146" data-name="Path 1146" d="M730.761,206.138v18.516H727.47V111.08h3.291Z" transform="translate(-593.119 -111.08)" fill="#898989"/>
        <path id="Path_1147" data-name="Path 1147" d="M647.341,218.672v5.982H644.05V111.08h3.291Z" transform="translate(-550.006 -111.08)" fill="#898989"/>
        <path id="Path_1148" data-name="Path 1148" d="M543.51,225.036v7.919h-3.29V111.08h3.29Z" transform="translate(-496.346 -111.08)" fill="#898989"/>
        <path id="Path_1149" data-name="Path 1149" d="M455.09,232.955V111.08h3.29V232.955Z" transform="translate(-452.35 -111.08)" fill="#898989"/>
      </g>
      <g id="Group_512" data-name="Group 512" transform="translate(153.52 0)">
        <path id="Path_1150" data-name="Path 1150" d="M435.58,8.731l1.1.2,8.794-7.765.174-.15,15.515,8.422,11.423,6.195,2.7.512L445.529,0Z" transform="translate(-378.631)" fill="#fbb020"/>
        <path id="Path_1151" data-name="Path 1151" d="M512.61,107.19v1.266h.836V107.19Z" transform="translate(-418.441 -55.397)" fill="#fbb020"/>
        <path id="Path_1152" data-name="Path 1152" d="M511.86,96.95V101.9h1.5V96.95Z" transform="translate(-418.053 -50.105)" fill="#e57900"/>
        <path id="Path_1153" data-name="Path 1153" d="M349.476,376.27l-.256.6,1.788,1.855h2.919l-2.358-2.455Z" transform="translate(-333.999 -194.459)" fill="#fbb020"/>
        <path id="Path_1154" data-name="Path 1154" d="M360.26,376.27l2.348,2.455h2.918l-2.348-2.455Z" transform="translate(-339.705 -194.459)" fill="#fbb020"/>
        <path id="Path_1155" data-name="Path 1155" d="M385.23,376.27v.3l2.083,2.155h2.909l-2.343-2.455Z" transform="translate(-352.61 -194.459)" fill="#fbb020"/>
        <path id="Path_1156" data-name="Path 1156" d="M396.86,376.27l2.358,2.455h2.914l-2.348-2.455Z" transform="translate(-358.62 -194.459)" fill="#fbb020"/>
        <path id="Path_1157" data-name="Path 1157" d="M348.367,377.51l-.8,1.856h2.585Z" transform="translate(-333.147 -195.1)" fill="#e57900"/>
        <path id="Path_1158" data-name="Path 1158" d="M354.08,376.27l2.358,2.455h2.976l-2.348-2.455Z" transform="translate(-336.511 -194.459)" fill="#e57900"/>
        <path id="Path_1159" data-name="Path 1159" d="M366.3,376.27l2.348,2.455V376.27Z" transform="translate(-342.827 -194.459)" fill="#e57900"/>
        <path id="Path_1160" data-name="Path 1160" d="M385.23,376.89v2.155h2.083Z" transform="translate(-352.61 -194.78)" fill="#e57900"/>
        <path id="Path_1161" data-name="Path 1161" d="M390.71,376.27l2.344,2.455h2.986l-2.358-2.455Z" transform="translate(-355.442 -194.459)" fill="#e57900"/>
        <path id="Path_1162" data-name="Path 1162" d="M402.91,376.27l2.348,2.455h.966l-1.044-2.455Z" transform="translate(-361.747 -194.459)" fill="#e57900"/>
        <path id="Path_1163" data-name="Path 1163" d="M365.23,397.91v1.474h12.534V397.91Z" transform="translate(-342.274 -205.643)" fill="#161617"/>
        <path id="Path_1164" data-name="Path 1164" d="M317.72,397.91v1.474h12.534V397.91Z" transform="translate(-317.72 -205.643)" fill="#161617"/>
        <path id="Path_1165" data-name="Path 1165" d="M412.91,397.91v1.474h12.534V397.91Z" transform="translate(-366.915 -205.643)" fill="#161617"/>
        <path id="Path_1166" data-name="Path 1166" d="M372.779,349.122a1.807,1.807,0,1,1,1.807,1.817A1.8,1.8,0,0,1,372.779,349.122Zm1.807,9.76a2.029,2.029,0,1,1,2.029-2.029A2.029,2.029,0,0,1,374.586,358.882Zm-2.377,6.32a2.377,2.377,0,1,1,2.377,2.377A2.382,2.382,0,0,1,372.209,365.2Zm-1.039-3.228v8h6.8V343.86h-6.8v18.11Z" transform="translate(-345.343 -177.71)" fill="#e57900"/>
        <path id="Path_1167" data-name="Path 1167" d="M337.062,343.87,325.9,369.982h7.05l3.421-8,.8-1.855.256-.6,4.484-10.495h5.861v-5.16Z" transform="translate(-321.947 -177.715)" fill="#ff9500"/>
        <path id="Path_1168" data-name="Path 1168" d="M385.23,343.87v5.16h6.32l4.484,10.495h.01l1.044,2.455,3.416,8h7.055L396.4,343.87Z" transform="translate(-352.61 -177.715)" fill="#ff9500"/>
        <path id="Path_1169" data-name="Path 1169" d="M355.6,337.1v.86l2.411,2.411h2.972l-3.262-3.271Z" transform="translate(-337.297 -174.216)" fill="#fbb020"/>
        <path id="Path_1170" data-name="Path 1170" d="M366.04,337.1l3.261,3.271h2.972l-3.257-3.271Z" transform="translate(-342.692 -174.216)" fill="#fbb020"/>
        <path id="Path_1171" data-name="Path 1171" d="M378.24,337.1l3.262,3.271h2.977l-3.262-3.271Z" transform="translate(-348.997 -174.216)" fill="#fbb020"/>
        <path id="Path_1172" data-name="Path 1172" d="M390.44,337.1l3.262,3.271h2.445v-.541l-2.73-2.73Z" transform="translate(-355.302 -174.216)" fill="#fbb020"/>
        <path id="Path_1173" data-name="Path 1173" d="M355.6,338.88v2.411h2.411Z" transform="translate(-337.297 -175.136)" fill="#e57900"/>
        <path id="Path_1174" data-name="Path 1174" d="M359.99,337.1l3.262,3.271h2.923l-3.262-3.271Z" transform="translate(-339.565 -174.216)" fill="#e57900"/>
        <path id="Path_1175" data-name="Path 1175" d="M372.2,337.1l3.257,3.271h2.923l-3.262-3.271Z" transform="translate(-345.876 -174.216)" fill="#e57900"/>
        <path id="Path_1176" data-name="Path 1176" d="M384.4,337.1l3.262,3.271h2.918l-3.261-3.271Z" transform="translate(-352.181 -174.216)" fill="#e57900"/>
        <path id="Path_1177" data-name="Path 1177" d="M396.6,337.1l2.73,2.73V337.1Z" transform="translate(-358.486 -174.216)" fill="#e57900"/>
        <path id="Path_1178" data-name="Path 1178" d="M377.86,316.371h-9.34v-.841h9.34Z" transform="translate(-343.974 -163.068)" fill="#ff9500"/>
        <path id="Path_1179" data-name="Path 1179" d="M377.86,290.231h-9.34v-.841h9.34Z" transform="translate(-343.974 -149.559)" fill="#ff9500"/>
        <path id="Path_1180" data-name="Path 1180" d="M377.86,264.071h-9.34v-.841h9.34Z" transform="translate(-343.974 -136.039)" fill="#ff9500"/>
        <path id="Path_1181" data-name="Path 1181" d="M377.86,237.92h-9.34v-.85h9.34Z" transform="translate(-343.974 -122.52)" fill="#ff9500"/>
        <path id="Path_1182" data-name="Path 1182" d="M377.86,211.771h-9.34v-.841h9.34Z" transform="translate(-343.974 -109.01)" fill="#ff9500"/>
        <path id="Path_1183" data-name="Path 1183" d="M377.86,185.611h-9.34v-.841h9.34Z" transform="translate(-343.974 -95.491)" fill="#ff9500"/>
        <path id="Path_1184" data-name="Path 1184" d="M365.91,164.94v83.186h1.261V164.94Z" transform="translate(-342.625 -85.242)" fill="#e57900"/>
        <path id="Path_1185" data-name="Path 1185" d="M387.85,238.545v9.582h1.261V164.94H387.85Z" transform="translate(-353.964 -85.242)" fill="#e57900"/>
        <path id="Path_1186" data-name="Path 1186" d="M362.28,160.5v2.145h15.655V160.5Z" transform="translate(-340.749 -82.948)" fill="#41383d"/>
        <path id="Path_1187" data-name="Path 1187" d="M336.87,154.99v2.025l1.421-2.025Z" transform="translate(-327.617 -80.1)" fill="#fbb020"/>
        <path id="Path_1188" data-name="Path 1188" d="M344.7,154.99l-1.865,2.662H345.4l1.865-2.662Z" transform="translate(-330.697 -80.1)" fill="#fbb020"/>
        <path id="Path_1189" data-name="Path 1189" d="M356.9,154.99l-1.87,2.662H357.6l1.87-2.662Z" transform="translate(-337.002 -80.1)" fill="#fbb020"/>
        <path id="Path_1190" data-name="Path 1190" d="M369.1,154.99l-1.87,2.662H369.8l1.87-2.662Z" transform="translate(-343.307 -80.1)" fill="#fbb020"/>
        <path id="Path_1191" data-name="Path 1191" d="M336.87,157.015v.638h2.88l1.865-2.662h-3.324Z" transform="translate(-327.617 -80.1)" fill="#ff9500"/>
        <path id="Path_1192" data-name="Path 1192" d="M350.015,154.99l-1.865,2.662h3.324l1.87-2.662Z" transform="translate(-333.447 -80.1)" fill="#ff9500"/>
        <path id="Path_1193" data-name="Path 1193" d="M362.22,154.99l-1.87,2.662h3.324l1.87-2.662Z" transform="translate(-339.752 -80.1)" fill="#ff9500"/>
        <path id="Path_1194" data-name="Path 1194" d="M374.42,154.99l-1.87,2.662h2.058V154.99Z" transform="translate(-346.057 -80.1)" fill="#ff9500"/>
        <path id="Path_1195" data-name="Path 1195" d="M344.555,126.462a.6.6,0,0,0,.044.246h1.242a.592.592,0,0,0,.053-.246.672.672,0,0,0-1.343,0Z" transform="translate(-331.586 -65.009)" fill="#41383d"/>
        <path id="Path_1196" data-name="Path 1196" d="M371.152,93.25l-1.382.256a.71.71,0,1,0,1.377-.251Z" transform="translate(-344.62 -48.192)" fill="#41383d"/>
        <path id="Path_1197" data-name="Path 1197" d="M379.458,83.3a.633.633,0,0,0,0,1.266.633.633,0,1,0,0-1.266Z" transform="translate(-349.302 -43.05)" fill="#41383d"/>
        <path id="Path_1198" data-name="Path 1198" d="M436.325,19.76a.429.429,0,0,0-.425.425.425.425,0,0,0,.85,0A.429.429,0,0,0,436.325,19.76Z" transform="translate(-378.797 -10.212)" fill="#41383d"/>
        <path id="Path_1199" data-name="Path 1199" d="M448.665,27a.445.445,0,0,0,0,.889.445.445,0,1,0,0-.889Z" transform="translate(-385.164 -13.954)" fill="#41383d"/>
        <path id="Path_1200" data-name="Path 1200" d="M507.488,35.06a.629.629,0,0,0-.638.628.633.633,0,1,0,1.266,0A.627.627,0,0,0,507.488,35.06Z" transform="translate(-415.464 -18.119)" fill="#41383d"/>
        <path id="Path_1201" data-name="Path 1201" d="M426.914,27.65l-2.484,2.677,4.281-.913.01.01,2.145-2.624Z" transform="translate(-372.869 -13.85)" fill="#e57900"/>
        <path id="Path_1202" data-name="Path 1202" d="M410.67,44.961l5.194-1.106,2.145-2.614-4.846,1.029h-.01Z" transform="translate(-365.757 -21.313)" fill="#e57900"/>
        <path id="Path_1203" data-name="Path 1203" d="M400.094,56.173l-2.484,2.687,6.035-1.285L405.8,54.96Z" transform="translate(-359.008 -28.404)" fill="#e57900"/>
        <path id="Path_1204" data-name="Path 1204" d="M384.64,72.648l6.881-1.464h.014l2.146-2.614-6.547,1.392h-.01Z" transform="translate(-352.305 -35.438)" fill="#e57900"/>
        <path id="Path_1205" data-name="Path 1205" d="M369.917,84.726l-3.387.7,5.885,2.827v.01l.691-.126-2.126-2.774a1.985,1.985,0,0,1-.459-.763Z" transform="translate(-342.945 -43.722)" fill="#e57900"/>
        <path id="Path_1206" data-name="Path 1206" d="M349.95,89.114l.106.372h.01L355,91.863l1.841-.329,1.706-.309-5.682-2.716Z" transform="translate(-334.377 -45.743)" fill="#e57900"/>
        <path id="Path_1207" data-name="Path 1207" d="M341.37,137.282v1.933h.821v-.01l3.141-8.765v-.01H343.9Z" transform="translate(-329.943 -67.407)" fill="#c6e8f8"/>
        <path id="Path_1208" data-name="Path 1208" d="M347.02,139.2v.01h3.329l2.078-6.364V130.43h-2.344Z" transform="translate(-332.863 -67.407)" fill="#c6e8f8"/>
        <path id="Path_1209" data-name="Path 1209" d="M384.64,133.5v4.165l3.58-9.988h-1.435Z" transform="translate(-352.305 -65.986)" fill="#c6e8f8"/>
        <path id="Path_1210" data-name="Path 1210" d="M387.28,139.47h3.378l2.029-6.2V127.68h-1.3Z" transform="translate(-353.669 -65.986)" fill="#c6e8f8"/>
        <path id="Path_1211" data-name="Path 1211" d="M341.37,130.43v6.852l2.532-6.852Z" transform="translate(-329.943 -67.407)" fill="#9ad8f3"/>
        <path id="Path_1212" data-name="Path 1212" d="M343.07,139.2v.01h1.909v-.01l3.063-8.775h-1.831v.01Z" transform="translate(-330.821 -67.407)" fill="#9ad8f3"/>
        <path id="Path_1213" data-name="Path 1213" d="M355.988,135.44,353.91,141.8h2.078Z" transform="translate(-336.423 -69.996)" fill="#9ad8f3"/>
        <path id="Path_1214" data-name="Path 1214" d="M336.54,86.257c0,.309,1.372,6.62,1.372,6.62l8.784-2.252a4.536,4.536,0,0,0,3.218-3.455v-.034l-1.836.329-4.006.725-.933-3.1h-.01l-.106-.372,2.919-.6,3.508-.734L348.794,80l-8.277,1.754a4.541,4.541,0,0,0-3.972,4.5Z" transform="translate(-327.446 -41.345)" fill="#ff9500"/>
        <path id="Path_1215" data-name="Path 1215" d="M339.794,137.793v-8.784h8.137v8.784Zm2.827-10.113h-4.3v13.191h11.389V127.68h-7.084Z" transform="translate(-328.366 -65.986)" fill="#ff9500"/>
        <path id="Path_1216" data-name="Path 1216" d="M345.347,124.451a1.429,1.429,0,0,0-.788-.372,1.724,1.724,0,0,0-.222-.019,1.5,1.5,0,0,0-1.508,1.508,1.059,1.059,0,0,0,.019.246h.86a.589.589,0,0,1-.043-.246.672.672,0,1,1,1.343,0,.612.612,0,0,1-.053.246h.87a2.12,2.12,0,0,0,.019-.246A1.484,1.484,0,0,0,345.347,124.451Z" transform="translate(-330.697 -64.115)" fill="#e57900"/>
        <path id="Path_1217" data-name="Path 1217" d="M346.41,109.284v.01a1.429,1.429,0,0,1,.788.372l10.538-13.607.019-.043a1.436,1.436,0,0,1-.647-.565l-10.7,13.829Z" transform="translate(-332.547 -49.329)" fill="#e57900"/>
        <path id="Path_1218" data-name="Path 1218" d="M350.19,90.53l.933,3.1,4.006-.725Z" transform="translate(-334.501 -46.787)" fill="#fbb020"/>
        <path id="Path_1219" data-name="Path 1219" d="M362.653,89.919l1.377-.256.831-.145,2.1-.372v-.01l-5.885-2.827-1.58.329-3.508.734,5.682,2.716.15-.019Z" transform="translate(-337.498 -44.606)" fill="#fbb020"/>
        <path id="Path_1220" data-name="Path 1220" d="M361.89,129.42v12.355H369.1V129.42Z" transform="translate(-340.547 -66.885)" fill="#983421"/>
        <path id="Path_1221" data-name="Path 1221" d="M369.1,128.521H361.89v-.841H369.1Z" transform="translate(-340.547 -65.986)" fill="#fbb020"/>
        <path id="Path_1222" data-name="Path 1222" d="M368.9,93.351l-.826.15a1.375,1.375,0,0,0,.232.657,1.465,1.465,0,0,0,.647.565,1.4,1.4,0,0,0,.657.159A1.473,1.473,0,0,0,370,94.83a1.54,1.54,0,0,0,1.16-1.5,1.485,1.485,0,0,0-.053-.382l-.826.15a.9.9,0,0,1,.043.232.71.71,0,0,1-1.421.019Z" transform="translate(-343.741 -48.037)" fill="#e57900"/>
        <path id="Path_1223" data-name="Path 1223" d="M376.625,81.611a.633.633,0,0,1,1.266,0,.633.633,0,1,1-1.266,0ZM375.214,79.4a2.067,2.067,0,0,0-.541,2.208,1.984,1.984,0,0,0,.459.763l2.126,2.774,1.508,1.942v.01l6.373,8.263.551-3.812,2.126-3.281-6.393-5.842L378.2,79.485a.463.463,0,0,0-.106-.087,2.079,2.079,0,0,0-2.865,0Z" transform="translate(-347.092 -40.737)" fill="#e57900"/>
        <path id="Path_1224" data-name="Path 1224" d="M381.869,138.121h-1.276v-11.79h6.683V125.07H376.81v17.12h10.466v-4.068Z" transform="translate(-348.258 -64.637)" fill="#fbb020"/>
        <path id="Path_1225" data-name="Path 1225" d="M381.845,76.9a.367.367,0,0,1,.106.087l3.228,2.943,4.895-5.948-6.885,1.464-1.338,1.445-.01.01Z" transform="translate(-350.858 -38.233)" fill="#fbb020"/>
        <path id="Path_1226" data-name="Path 1226" d="M384.64,137.668v1.8h1.276l4.107-11.79h-1.8Z" transform="translate(-352.305 -65.986)" fill="#9ad8f3"/>
        <path id="Path_1227" data-name="Path 1227" d="M384.64,127.68V133.5l2.145-5.822Z" transform="translate(-352.305 -65.986)" fill="#9ad8f3"/>
        <path id="Path_1228" data-name="Path 1228" d="M393.564,61.655,389.8,65.724l6.547-1.392,3.261-3.962-6.035,1.285Z" transform="translate(-354.972 -31.2)" fill="#fbb020"/>
        <path id="Path_1229" data-name="Path 1229" d="M396.3,139.24l-2.029,6.2H396.3Z" transform="translate(-357.282 -71.96)" fill="#9ad8f3"/>
        <path id="Path_1230" data-name="Path 1230" d="M419.41,34.351l-1.135-.251L398.207,65.16l-2.121,3.281-.556,3.812v.01l-.85,5.793h1.831V89.981l26.107-54.9-1.082-.242Z" transform="translate(-357.494 -17.623)" fill="#ff9500"/>
        <path id="Path_1231" data-name="Path 1231" d="M402.75,51.878l5.706-1.213,3.315-4.015-5.194,1.107Z" transform="translate(-361.664 -24.109)" fill="#fbb020"/>
        <path id="Path_1232" data-name="Path 1232" d="M419.985,33.123,415.83,37.6l4.846-1.029,3.6-4.354-.01-.01Z" transform="translate(-368.424 -16.646)" fill="#fbb020"/>
        <path id="Path_1233" data-name="Path 1233" d="M432.088,22.93l-2.518,2.72,3.953-.85,1.145-1.382C433.073,23.109,432.088,22.93,432.088,22.93Z" transform="translate(-375.525 -11.85)" fill="#fbb020"/>
        <path id="Path_1234" data-name="Path 1234" d="M469.293,26.9a.633.633,0,1,1,.638.638A.637.637,0,0,1,469.293,26.9Zm-34.278-7.6a.425.425,0,1,1,.85,0,.425.425,0,0,1-.85,0Zm-.16-1.242a1.773,1.773,0,0,0-.382,2.348s.986.179,2.58.488c.672.116,1.445.266,2.3.425v.01c1.348.246,2.889.532,4.537.841,6.108,1.136,13.5,2.508,16.762,3.083,2.8.488,5.5,1.541,6.808,2.836a3.426,3.426,0,0,0,2.358,1.338,2.726,2.726,0,0,0,2.348-1.338s.15-.285.328-.638c.213-.435.488-.966.585-1.145l3.155.594.319-1.053-2-.372-2.7-.512L459.7,22.694l-16.424-3.059-7.306-1.372-1.106-.2Z" transform="translate(-377.907 -9.334)" fill="#ff9500"/>
        <path id="Path_1235" data-name="Path 1235" d="M446.2,26.328a.446.446,0,0,1,.445-.445.445.445,0,1,1,0,.889A.446.446,0,0,1,446.2,26.328Zm-1.029,1.508a2.388,2.388,0,0,0,1.561.575,2.478,2.478,0,0,0,1.039-.232,2.426,2.426,0,0,0,1.382-2.189,3.092,3.092,0,0,0-.019-.309c-1.648-.309-3.184-.594-4.537-.841a2.465,2.465,0,0,0-.285,1.145,2.386,2.386,0,0,0,.86,1.846Z" transform="translate(-383.143 -12.838)" fill="#e57900"/>
        <path id="Path_1236" data-name="Path 1236" d="M445.4,31.987a1.449,1.449,0,0,0,.222.788l2.126.488a1.5,1.5,0,0,0,.7-1.276,1.587,1.587,0,0,0-.116-.594v-.01a2.439,2.439,0,0,1-1.039.232,2.389,2.389,0,0,1-1.561-.575,1.465,1.465,0,0,0-.329.947Z" transform="translate(-383.706 -16.042)" fill="#983421"/>
        <path id="Path_1237" data-name="Path 1237" d="M361.872,140.866h-.532v-13.2h.532Z" transform="translate(-340.263 -65.981)" fill="#fbc220"/>
        <path id="Path_1238" data-name="Path 1238" d="M374.111,110.46l.778-.164L372.048,96.66l-.778.164Z" transform="translate(-345.395 -49.955)" fill="#983421"/>
        <path id="Path_1239" data-name="Path 1239" d="M385.383,109.995l.778-.164L383.228,95.76l-.778.164Z" transform="translate(-351.173 -49.49)" fill="#983421"/>
        <path id="Path_1240" data-name="Path 1240" d="M372.917,99.827l5.291-1-.1-.522-5.286,1Z" transform="translate(-346.196 -50.807)" fill="#983421"/>
        <path id="Path_1241" data-name="Path 1241" d="M375.987,115.207l5.286-1-.1-.522-5.286,1Z" transform="translate(-347.783 -58.756)" fill="#983421"/>
        <path id="Path_1242" data-name="Path 1242" d="M369.327,95.056a1.813,1.813,0,0,0,1.812-1.812,1.745,1.745,0,0,0-.058-.454l-.512.135a1.341,1.341,0,0,1,.039.319,1.284,1.284,0,0,1-2.561.14l-.527.053a1.806,1.806,0,0,0,1.807,1.624Z" transform="translate(-343.457 -47.955)" fill="#ff9500"/>
        <path id="Path_1243" data-name="Path 1243" d="M339.374,100.56l6.808-1.7,1.7-.445a4.749,4.749,0,0,0,1.619-.705,4.6,4.6,0,0,0,1.909-2.885l-.077-.014a5.163,5.163,0,0,1-2.184,2.382,4.711,4.711,0,0,1-1.454.5l-1.71.4a32.424,32.424,0,0,0-6.629,2.4l.019.077Z" transform="translate(-328.899 -48.999)" fill="#e57900"/>
        <path id="Path_1244" data-name="Path 1244" d="M349.45,83.316l-.657-3.382,0-.034-.034,0-8.277,1.74h0a4.569,4.569,0,0,0-3.986,4.663c.411,2.184.9,4.349,1.363,6.518l.053-.01-.469-3.3c-.179-1.087-.382-2.208-.522-3.262a4.145,4.145,0,0,1,3.624-4.088l.024,0h.014l4.126-.933c.691-.145,1.367-.338,2.054-.507l2.054-.522-.309-.208c.285,1.116.594,2.227.894,3.339l.053-.01Z" transform="translate(-327.422 -41.293)" fill="#fbc220"/>
        <path id="Path_1245" data-name="Path 1245" d="M352.12,94.3l13.544-2.435-.14-.788L351.98,93.515Z" transform="translate(-335.426 -47.071)" fill="#e57900"/>
        <path id="Path_1246" data-name="Path 1246" d="M349.946,87.06l12.007-2.493-.106-.517L349.84,86.543Z" transform="translate(-334.32 -43.438)" fill="#fbc220"/>
        <path id="Path_1247" data-name="Path 1247" d="M388.727,54.163l25.165-30.456-1.261-.217-24.72,30Z" transform="translate(-353.995 -12.14)" fill="#e57900"/>
        <path id="Path_1248" data-name="Path 1248" d="M381.871,50.473,407.437,22.9l-.387-.362L381.48,50.116Z" transform="translate(-350.672 -11.649)" fill="#fbc220"/>
        <path id="Path_1249" data-name="Path 1249" d="M384.152,95.122l.841-.647-10-13a1.609,1.609,0,0,1-.464-1.169,1.587,1.587,0,0,1,.493-1.1,1.535,1.535,0,0,1,1.126-.43,1.567,1.567,0,0,1,1.1.493l9.649,8.809.715-.783-9.62-8.784a2.636,2.636,0,0,0-4.523,1.764,2.62,2.62,0,0,0,.72,1.884l9.968,12.959Z" transform="translate(-346.531 -40.159)" fill="#ff9500"/>
        <path id="Path_1250" data-name="Path 1250" d="M394.663,78.025l1.387-9.5,22.237-34.394-1.044-.217L395.035,68.139l-.019.116-1.406,9.616Z" transform="translate(-356.941 -17.525)" fill="#fbc220"/>
        <path id="Path_1251" data-name="Path 1251" d="M398.48,92.163l26.59-56.05-1.01-.222L398.48,89.669Z" transform="translate(-359.457 -18.548)" fill="#e57900"/>
        <path id="Path_1252" data-name="Path 1252" d="M512.94,65.622h.532V36.35l-.532,1.005Z" transform="translate(-418.611 -18.786)"/>
        <path id="Path_1253" data-name="Path 1253" d="M452.977,11.374,454.629,2.1l-.522-.092-1.657,9.272Z" transform="translate(-387.35 -1.039)" fill="#983421"/>
        <path id="Path_1254" data-name="Path 1254" d="M486.967,23.171l.749-4.189-.522-.092-.754,4.184Z" transform="translate(-404.916 -9.763)" fill="#983421"/>
        <path id="Path_1255" data-name="Path 1255" d="M444.548,24.775a2.452,2.452,0,1,0,4.581.855l-.053,0a2.6,2.6,0,0,1-.971,1.793,2.223,2.223,0,0,1-3.252-.609,2.031,2.031,0,0,1-.324-.937,2.625,2.625,0,0,1,.063-1.087l-.048-.024Z" transform="translate(-383.11 -12.801)" fill="#d64c00"/>
        <path id="Path_1256" data-name="Path 1256" d="M437.884,9.5l8.968-7.9-.048,0,26.948,14.607.024-.048c-2.2-1.3-4.378-2.648-6.605-3.9C464.952,11,462.739,9.719,460.5,8.5S456.037,6,453.781,4.815l-6.765-3.6-.256-.135-.2.188L442.17,5.327c-1.45,1.367-2.88,2.759-4.32,4.136Z" transform="translate(-379.804 -0.558)" fill="#e57900"/>
        <path id="Path_1257" data-name="Path 1257" d="M514.942,101.888h-.532V96.94h.532Z" transform="translate(-419.371 -50.099)" fill="#fbb020"/>
        <path id="Path_1258" data-name="Path 1258" d="M511.852,101.888h-.532V96.94h.532Z" transform="translate(-417.774 -50.099)" fill="#c60"/>
        <path id="Path_1259" data-name="Path 1259" d="M387.245,124.979l-10.461-.019h-.043v17.211h.043l10.461-.014V142.1l-5.233-.232-5.228-.135.4.4.077-8.562L377.18,125l-.4.4,5.228-.135,5.233-.232Z" transform="translate(-348.222 -64.58)" fill="#e57900"/>
        <path id="Path_1260" data-name="Path 1260" d="M349.252,138.925h-7.876v-8.509h7.876Zm-8.142.266h8.408v-9.04H341.11Z" transform="translate(-329.808 -67.263)" fill="#fbc220"/>
        <path id="Path_1261" data-name="Path 1261" d="M384.09,139.436h6.953V138.9h-6.422V127.642h6.422v-.532H384.09Z" transform="translate(-352.021 -65.691)" fill="#e57900"/>
        <path id="Path_1262" data-name="Path 1262" d="M512.011,109.788c-.015-.1.019,0,.015.039a.91.91,0,0,1-.01.193,2.663,2.663,0,0,1-.13.459c-.058.169-.14.275-.242.561a1.037,1.037,0,0,0,.068.763.954.954,0,0,0,1.189.5,1.157,1.157,0,0,0,.565-1.005c-.111.348-.343.705-.648.754a.558.558,0,0,1-.609-.449c-.053-.28.087-.348.377-.739a3.315,3.315,0,0,0,.319-.565,1.772,1.772,0,0,0,.111-.353,1.017,1.017,0,0,0,0-.517Z" transform="translate(-417.919 -56.554)"/>
        <path id="Path_1263" data-name="Path 1263" d="M513.448,109.777H512.24v-.527h1.208Z" transform="translate(-418.25 -56.461)"/>
        <path id="Path_1264" data-name="Path 1264" d="M368.53,198.293l9.335-11.795-.415-.329-9.34,11.79Z" transform="translate(-343.762 -96.214)" fill="#983421"/>
        <path id="Path_1265" data-name="Path 1265" d="M377.45,198.293l.415-.333-9.335-11.79-.42.329Z" transform="translate(-343.762 -96.214)" fill="#983421"/>
        <path id="Path_1266" data-name="Path 1266" d="M368.53,224.443l9.335-11.795-.415-.329-9.34,11.795Z" transform="translate(-343.762 -109.729)" fill="#983421"/>
        <path id="Path_1267" data-name="Path 1267" d="M377.45,224.443l.415-.329L368.53,212.32l-.42.329Z" transform="translate(-343.762 -109.729)" fill="#983421"/>
        <path id="Path_1268" data-name="Path 1268" d="M368.53,250.593l9.335-11.795-.415-.329-9.34,11.795Z" transform="translate(-343.762 -123.243)" fill="#983421"/>
        <path id="Path_1269" data-name="Path 1269" d="M377.45,250.593l.415-.329L368.53,238.47l-.42.329Z" transform="translate(-343.762 -123.243)" fill="#983421"/>
        <path id="Path_1270" data-name="Path 1270" d="M368.53,276.743l9.335-11.795-.415-.329-9.34,11.795Z" transform="translate(-343.762 -136.758)" fill="#983421"/>
        <path id="Path_1271" data-name="Path 1271" d="M377.45,276.743l.415-.329L368.53,264.62l-.42.329Z" transform="translate(-343.762 -136.758)" fill="#983421"/>
        <path id="Path_1272" data-name="Path 1272" d="M368.53,302.893l9.335-11.795-.415-.329-9.34,11.795Z" transform="translate(-343.762 -150.272)" fill="#983421"/>
        <path id="Path_1273" data-name="Path 1273" d="M377.45,302.893l.415-.329L368.53,290.77l-.42.329Z" transform="translate(-343.762 -150.272)" fill="#983421"/>
        <path id="Path_1274" data-name="Path 1274" d="M372.55,326.835l7.4-9.582-.425-.324-7.393,9.582Z" transform="translate(-345.84 -163.792)" fill="#983421"/>
        <path id="Path_1275" data-name="Path 1275" d="M375.895,326.835l.416-.333-7.779-9.582-.411.333Z" transform="translate(-343.767 -163.787)" fill="#983421"/>
        <path id="Path_1276" data-name="Path 1276" d="M379.993,174.506l.43-.314-6.953-9.582-.43.309Z" transform="translate(-346.31 -85.072)" fill="#983421"/>
        <path id="Path_1277" data-name="Path 1277" d="M368.53,174.506l6.914-9.587-.43-.309-6.915,9.582Z" transform="translate(-343.757 -85.072)" fill="#983421"/>
        <path id="Path_1278" data-name="Path 1278" d="M355.07,340.077h.531v-3h22v3h.532V336.55H355.07Z" transform="translate(-337.023 -173.932)" fill="#fbc220"/>
        <path id="Path_1279" data-name="Path 1279" d="M477.035,26.732l.4-1.338-.29-.053-41.492-7.75-.445.4,41.55,7.818-.232.768Z" transform="translate(-378.44 -9.091)" fill="#fbb020"/>
        <path id="Path_1280" data-name="Path 1280" d="M434.82,18a1.915,1.915,0,0,0-.667,1.116,1.819,1.819,0,0,0,.275,1.271l0,.01.015,0,19.521,3.663,4.885.889a30.928,30.928,0,0,1,4.832,1.082,9.848,9.848,0,0,1,4.208,2.5,2.69,2.69,0,0,0,2.261.865,2.784,2.784,0,0,0,2.025-1.338h0l.9-1.778-.029.014,3.16.594.01-.048-3.136-.715-.1-.024-.053.1-.976,1.754,0-.014a2.577,2.577,0,0,1-1.851,1.15,2.342,2.342,0,0,1-1.971-.826c-.28-.266-.561-.594-.913-.875a7.942,7.942,0,0,0-1.068-.739,13.226,13.226,0,0,0-2.329-1.049,30.719,30.719,0,0,0-4.89-1.14c-1.628-.295-3.252-.628-4.88-.908l-9.78-1.73c-3.266-.536-6.528-1.1-9.809-1.57l.082.058a1.722,1.722,0,0,1-.3-1.174,1.828,1.828,0,0,1,.6-1.092l-.034-.039Z" transform="translate(-377.88 -9.303)" fill="#e57900"/>
        <path id="Path_1281" data-name="Path 1281" d="M361.74,162.906h16.192V160.5H377.4v1.875H362.271V160.5h-.531Z" transform="translate(-340.47 -82.948)" fill="#666264"/>
        <path id="Path_1282" data-name="Path 1282" d="M377.33,185.061h-8.809v-.309h8.809Zm-9.34.532h9.867V184.22H367.99Z" transform="translate(-343.7 -95.206)" fill="#ff9500"/>
        <path id="Path_1283" data-name="Path 1283" d="M377.33,211.211h-8.809V210.9h8.809Zm-9.34.532h9.867V210.37H367.99Z" transform="translate(-343.7 -108.721)" fill="#ff9500"/>
        <path id="Path_1284" data-name="Path 1284" d="M377.33,237.361h-8.809v-.309h8.809Zm-9.34.531h9.867V236.52H367.99Z" transform="translate(-343.7 -122.235)" fill="#ff9500"/>
        <path id="Path_1285" data-name="Path 1285" d="M377.33,263.511h-8.809V263.2h8.809Zm-9.34.531h9.867V262.67H367.99Z" transform="translate(-343.7 -135.75)" fill="#ff9500"/>
        <path id="Path_1286" data-name="Path 1286" d="M377.33,289.661h-8.809v-.309h8.809Zm-9.34.532h9.867V288.82H367.99Z" transform="translate(-343.7 -149.265)" fill="#ff9500"/>
        <path id="Path_1287" data-name="Path 1287" d="M377.33,315.821h-8.809v-.309h8.809Zm-9.34.531h9.867V314.98H367.99Z" transform="translate(-343.7 -162.784)" fill="#ff9500"/>
      </g>
      <g id="Group_513" data-name="Group 513" transform="translate(208.745 76.682)">
        <path id="Path_1288" data-name="Path 1288" d="M503.281,206.223s9.654-2.633,12.094,8.045c1.778,7.794,4.658,21.328,5.871,22.241a24.318,24.318,0,0,1,6.687.913l-1.01,10.229s-9.427.507-11.954-.812-12.66-36.259-12.66-36.259l.981-4.358Z" transform="translate(-468.343 -183.111)" fill="#f58834"/>
        <path id="Path_1289" data-name="Path 1289" d="M550.521,277.8s-1.411,4.924-8.509,1.918c-3.919-1.657-3.339-10.263-.024-12.147,5.919-3.363,8.33,1.885,8.33,1.885l.2,8.34Z" transform="translate(-487.451 -214.381)" fill="#f89f3a"/>
        <path id="Path_1290" data-name="Path 1290" d="M579.3,269.425s1.57-3.576,3.194-3.88a8.944,8.944,0,0,1,4.706.657,2.038,2.038,0,0,1,.807,1.435s3.3.705,4.441,2.266c1.822,2.484-.638,7.291-2.459,8.05-5.47,1.643-10.539-1.5-10.539-1.5l-1.923-1.488-.507-4.354,2.281-1.184Z" transform="translate(-506.954 -213.872)" fill="#96989b"/>
        <path id="Path_1291" data-name="Path 1291" d="M589.05,297.891l.266,2.831,1.5-5.107s-.7-.121-.879.831a2.44,2.44,0,0,1-.889,1.45Z" transform="translate(-513.171 -229.456)" fill="#a9acaf"/>
        <path id="Path_1292" data-name="Path 1292" d="M589.689,290.126a.759.759,0,0,0,1.45.406l1.826-6.455a.821.821,0,0,0-.483-1.034h-.019a.808.808,0,0,0-.952.628l-1.822,6.46Z" transform="translate(-513.501 -222.948)" fill="#f58834"/>
        <path id="Path_1293" data-name="Path 1293" d="M591.067,295.4a.9.9,0,0,0,.846-.2l-.043.155a.839.839,0,0,1-1.45-.406l.043-.16A.873.873,0,0,0,591.067,295.4Z" transform="translate(-513.879 -229.032)" fill="#bb6839"/>
        <path id="Path_1294" data-name="Path 1294" d="M592.652,276.54a1,1,0,0,1,1.179-.773l.015,0a1,1,0,0,1,.594,1.271l-2.252,7.978-.28.333a.884.884,0,0,1-1.45-.411l-.058-.43,2.252-7.978Z" transform="translate(-513.869 -219.185)" fill="#27a9a1"/>
        <path id="Path_1295" data-name="Path 1295" d="M594.742,281.783a1.059,1.059,0,0,0,1.039-.266l-.039.15a1.01,1.01,0,0,1-1.793-.507l.044-.15a1.055,1.055,0,0,0,.749.778Z" transform="translate(-515.703 -221.911)" fill="#27857a"/>
        <path id="Path_1296" data-name="Path 1296" d="M596.62,259.163a1.2,1.2,0,0,1,1.416-.923l.014,0a1.2,1.2,0,0,1,.715,1.527l-2.715,9.582-.295.372a1.069,1.069,0,0,1-1.788-.512,1.54,1.54,0,0,1-.058-.474l2.706-9.582Z" transform="translate(-515.682 -210.123)" fill="#27a9a1"/>
        <path id="Path_1297" data-name="Path 1297" d="M600.122,265.98s.662.193.493.788l-1.643,5.813a15.56,15.56,0,0,1-1.092,2.4l2.31-8.176-.309-.087-.232.068.213-.749.232-.068.034,0Z" transform="translate(-517.734 -214.138)" fill="#f58834"/>
        <path id="Path_1298" data-name="Path 1298" d="M594.737,270.946c-.643,1.938-2.034,3.223-3.121,2.865s-1.44-2.223-.8-4.16,2.039-3.223,3.121-2.865,1.445,2.223.8,4.165Z" transform="translate(-513.92 -214.529)" fill="#96989b"/>
        <path id="Path_1299" data-name="Path 1299" d="M552.47,271.091c3.527.343,6.277,1.382,12.761,1.247a7.35,7.35,0,0,0,.15,7.026c-5.88.266-8.523,1.237-12.573,1.764S548.943,270.743,552.47,271.091Z" transform="translate(-492.884 -216.78)" fill="#f0c8b6"/>
        <path id="Path_1300" data-name="Path 1300" d="M463.417,194.709c.3,4.542-2.527,9.152-2.527,9.152l4.711,4.305,4.407,2.585h5.064l3.6-3.044-3.247-9.968-5.876-4.508s-6.132.179-6.132,1.483Z" transform="translate(-446.937 -176.545)" fill="#c9a899"/>
        <path id="Path_1301" data-name="Path 1301" d="M467.437,215.919s1.5,1.715-1.633,3.474c-4.141,2.667-13.157-5.943-13.157-5.943l-2.121,2.469-1.826,2.232-2.45,1.894-1.6,1.846,11.389,45.773,11.394,1.493,16.482-11.988s2.754-26.377,1.778-32.113-9.451-11.606-9.451-11.606l-8.813,2.469Z" transform="translate(-438.544 -186.995)" fill="#f89f3a"/>
        <path id="Path_1302" data-name="Path 1302" d="M505.892,500.947c3.039,4.257,12.732,5.938,12.853,9.065.044.676.522,3.155-1.232,3.967-5.271,1.285-14.993-4.117-14.993-4.117s-9.113-.2-9.925-2.029,0-7.693,0-7.693,12.49-.338,13.3.812Z" transform="translate(-463.135 -335.135)" fill="#664730"/>
        <path id="Path_1303" data-name="Path 1303" d="M507.949,341.937c1.319,18.907-4.03,35.558-4.841,39.747-1.754,14.853.541,32.64.406,36.558s-13.641,7.074-15.535.188c-.976-6.465-.942-25.841,1.488-35.162.947-3.643-3.107-33.089-3.107-33.089s21.217-12.022,21.589-8.238Z" transform="translate(-460.1 -253.02)" fill="#2d3542"/>
        <path id="Path_1304" data-name="Path 1304" d="M453.006,522.711c-.2,2.083,5.808,11.466,4.257,13.969-1.406,2.256-8.19,1.372-10.959-.783s-4.909-9.132-5.547-11.64a17.85,17.85,0,0,1,0-6.117l12.157.807a15.3,15.3,0,0,1,.1,3.759Z" transform="translate(-436.385 -344.461)" fill="#664730"/>
        <path id="Path_1305" data-name="Path 1305" d="M482.337,313.435s-15.655,11.742-21.473,11.447c-7.258-.372-11.548-6.18-11.548-6.18s-3.609,6.209-4.7,10.06-.594,39.6-2.5,44.637-2.836,6.074-3.745,9.925-1.169,23.531-.561,29.678,10.654,8.277,14.23,3.948c-.4-16,.092-31.963,2.948-37.322C459,372.118,465.1,344,465.493,342.9c8.161-4.209,17.187-13.761,17.187-15.317,0-2-.155-.662-.348-14.148Z" transform="translate(-434.841 -238.665)" fill="#334557"/>
        <path id="Path_1306" data-name="Path 1306" d="M484.161,199.09c14.08,5.272,19.323,20.246,19.323,20.246l-4.054,3.034s-5.972-16.81-20.13-19.328C479.31,201.975,482.943,199.394,484.161,199.09Z" transform="translate(-456.451 -179.574)" fill="#334557"/>
        <path id="Path_1307" data-name="Path 1307" d="M482.919,284.742c5.16-13.655-.889-33.62-.889-33.62s15.907-6.5,23.362-14.472a126.439,126.439,0,0,1-.034,37.1l-2.682,7.866-11.5,4.455s-9.659,3.179-8.263-1.339Z" transform="translate(-457.862 -198.985)" fill="#334557"/>
        <path id="Path_1308" data-name="Path 1308" d="M452.236,218.56c14.08,5.262,19.347,21.98,19.347,21.98l-5.165,2.025a26.472,26.472,0,0,0-18.458-19.874c.014-1.063,3.059-3.827,4.276-4.126Z" transform="translate(-440.255 -189.636)" fill="#334557"/>
        <path id="Path_1309" data-name="Path 1309" d="M545.849,275.937l-17.4,31.417-1.454-.952,2.938-23.063,14.467-8.35Z" transform="translate(-481.098 -218.799)" fill="#e33439"/>
        <path id="Path_1310" data-name="Path 1310" d="M544.472,300.013,530,308.367l2.933-23.063L547.4,276.95Z" transform="translate(-482.654 -219.812)" fill="#a03935"/>
        <path id="Path_1311" data-name="Path 1311" d="M516.89,310.7s.9-3.74,2.063-5.107A5.021,5.021,0,0,1,524,303.661l-.357,2.687,4.02-.416s3.194-2.116,4.015-1.773c.623.256.817,1.131.744,1.889-.507,5.315-2.426,6.885-4.808,8.18a61.022,61.022,0,0,1-7.142,2.812l-3.585-6.335Z" transform="translate(-475.878 -233.56)" fill="#96989b"/>
        <path id="Path_1312" data-name="Path 1312" d="M491.776,316.17s7.006,1.768,10.944,1.01c3.962.759,4.271,5.673,3.305,6.378-5.47,2.228-17.086,1.725-17.086,1.725Z" transform="translate(-461.433 -240.082)" fill="#f0c8b6"/>
        <path id="Path_1313" data-name="Path 1313" d="M473.139,310.856s3.063-3.58,8.678.324c3.493,2.435,2.01,10.606-1.522,12.051-6.3,2.585-9.2-2.706-9.2-2.706Z" transform="translate(-452.213 -236.56)" fill="#f89f3a"/>
        <path id="Path_1314" data-name="Path 1314" d="M438.119,230.92s-11.215,3.648-3.247,21.207c1.372,4.445,5.576,22.874,7.7,24.846,3.914,3.653,10.263,4.455,12.964,4.866s4.189-10.669.677-11.481a22.4,22.4,0,0,0-5.272-.266s-1.889-16.211-4.184-24.986c-1.749-11.481-8.639-14.182-8.639-14.182Z" transform="translate(-432.013 -196.024)" fill="#f58834"/>
        <path id="Path_1315" data-name="Path 1315" d="M483.279,165.623a12.675,12.675,0,0,1,3.924,13s-1.57,12.157-2.633,13.322a7.212,7.212,0,0,1-3.846,1.875c-2.131.2-9.62-5.223-10.683-6.542s-.614-3.846-.614-3.846-3.493-1.45-3.846-4.726a19.173,19.173,0,0,1,0-5.146l2.73-5.977,5.8-3.6h4.731a26.038,26.038,0,0,1,4.431,1.638Z" transform="translate(-449.279 -161.429)" fill="#f0c8b6"/>
        <path id="Path_1316" data-name="Path 1316" d="M464.305,176.389s.8-3.638,2.769-1.57c.942,1,.57,1.59,1.281,2.749s2.464,1.855,2.9,1.382.923-5.605.4-7.291-3.431-3.02-1.42-5.267,9.7,4.291,12.288,1.754c1.773-1.923-2.6-13.882-15.462-5.982-7.185,4.445-2.764,14.22-2.764,14.22Z" transform="translate(-448.004 -159.11)" fill="#664730"/>
        <path id="Path_1317" data-name="Path 1317" d="M486.538,171.446s-2.276,3.194-12.9,3.194a18.411,18.411,0,0,1-10.877-4.5c.106-4.639,1.372-9.616,8.891-11.113,3.769-.725,10.379-.5,12.461,3.281a21.362,21.362,0,0,1,2.426,9.137Z" transform="translate(-447.903 -158.7)" fill="#325597"/>
        <path id="Path_1318" data-name="Path 1318" d="M487.624,160.954c0,.415-.681.749-1.527.749s-1.517-.333-1.517-.749.681-.754,1.517-.754S487.624,160.538,487.624,160.954Z" transform="translate(-459.18 -159.475)" fill="#323f63"/>
        <path id="Path_1319" data-name="Path 1319" d="M515.2,189.274l-5.711-2.247s1.111-1.454,2.189-1.232a5.487,5.487,0,0,1,2.822,1.116,4.291,4.291,0,0,1,.7,2.358Z" transform="translate(-472.054 -172.691)" fill="#323f63"/>
        <path id="Path_1320" data-name="Path 1320" d="M483.135,186.306s4.851,4.083,7.775,4.083c1.831-.053,2.488-4.305,6.687-5.359,4.764-1.053,3.32,2.595,4.209,1.986.072-3.493-3.4-4.078-4.735-4.832-.986-.846-3.8-.662-3.8-.662-5.335.72-10.142,4.784-10.142,4.784Z" transform="translate(-458.431 -170.486)" fill="#3b62ac"/>
      </g>
      <g id="Group_514" data-name="Group 514" transform="translate(384.128 89.199)">
        <path id="Path_1321" data-name="Path 1321" d="M824.267,284.89a18.893,18.893,0,0,1-1.556,3.571c-4.59.309-16.448,7.63-19.279,7.808s-2.566,7.456,1.208,7.451c9.659-2.29,18.11-2.165,23.4-6.32a43.8,43.8,0,0,0,4.813-6.528Z" transform="translate(-798.363 -236.432)" fill="#f0c8b6"/>
        <path id="Path_1322" data-name="Path 1322" d="M905,226.667a19.207,19.207,0,0,0,2.256,7.151l-5.489,6.088-4.6,2.227-5.045-.4-3.349-3.315,4.02-9.683,6.209-4.03s6.1.662,6,1.957Z" transform="translate(-843.457 -205.33)" fill="#c9a899"/>
        <path id="Path_1323" data-name="Path 1323" d="M864.767,230.9c13.3,3.266-8.19,31.238-7.842,33.2-.8,3.779-10.268-3.131-10.935-7.427,3.088-4.672,5.035-8.533,5.769-11.423,2.058-7.953,5.972-15.713,13.008-14.351Z" transform="translate(-821.343 -208.445)" fill="#f58834"/>
        <path id="Path_1324" data-name="Path 1324" d="M878.487,234.082s-2.527,4.556.454,6.547c3.919,2.981,13.467-4.242,13.467-4.242l2.213,2.464.71,2.875,3.614,1.831,1.918,2.044s-5.339,24-5.373,26.146-6.915,6.774-4.6,15.675c.836,1.831-5.508,8.775-14.162,7.016,1-3.624-2.527-5.325-4.6-6.678a47.015,47.015,0,0,0-11.771-5.344s-.71-27.648.034-34.655c1.145-10.785,15.8-18.081,15.8-18.081l2.3,4.4Z" transform="translate(-828.608 -207.899)" fill="#f89f3a"/>
        <path id="Path_1325" data-name="Path 1325" d="M886.833,224.43c-15.994,4.929-20.6,18.062-20.6,18.062l3.759,3.063s4.3-14.723,20.453-17.356C890.511,227.17,887.978,224.812,886.833,224.43Z" transform="translate(-831.803 -205.186)" fill="#334557"/>
        <path id="Path_1326" data-name="Path 1326" d="M879.391,308.822c-3.919-13.5,3.411-34.727,3.411-34.727s-14.834-6.6-21.391-14.815c-4.441,19.468-2.426,28.373-3.141,34.9s2.59,5.272,2.59,5.272l8.32,8.34S880.386,313.257,879.391,308.822Z" transform="translate(-827.637 -223.197)" fill="#334557"/>
        <path id="Path_1327" data-name="Path 1327" d="M912.034,248.655c-15.824,4.856-18.293,17.757-18.293,17.757l4.8,2.339s3.745-13.95,17.82-15.395c.068-1.029-3.184-4.32-4.325-4.706Z" transform="translate(-846.021 -217.703)" fill="#334557"/>
        <path id="Path_1328" data-name="Path 1328" d="M815.748,531.654c-3.363,4-12.457,3.5-15.385,6.789-1.116,1.077-1.59,4.146.1,5.088,5.151,1.7,13.6-1.343,13.6-1.343s9.891,1.169,11.113-.411c1.537-2.005,1.609-8.852,1.609-8.852s-10.133-2.358-11.031-1.271Z" transform="translate(-797.243 -363.814)" fill="#664730"/>
        <path id="Path_1329" data-name="Path 1329" d="M840.842,360.537c-4.484,16-4.788,41.511-5.2,45.908-.72,10.543-6.05,32.074-6.465,35.974-.348,3.232,12.326,6.765,14.143,1.116,1.778-3.861,5.605-18.323,6.059-34.253,1.276-7.064,9.857-33.016,9.857-33.016s-17.883-19.714-18.39-15.733Z" transform="translate(-812.648 -275.25)" fill="#2d3542"/>
        <path id="Path_1330" data-name="Path 1330" d="M919.126,528.891c-.918,1.88-6.914,10.5-5.436,13.418,1.2,2.372,6.407,2.319,9.335.387s5.581-7.75,5.866-11.4c.2-2.575.7-5.731.7-5.731l-10.5-.831a19.51,19.51,0,0,1,.034,4.16Z" transform="translate(-856.211 -360.383)" fill="#664730"/>
        <path id="Path_1331" data-name="Path 1331" d="M855.774,331.51s15.472,13.549,21.3,13.713a11.644,11.644,0,0,0,10.345-5.175s3.015,6.745,3.793,10.669,5.03,35.819,6.528,40.994c6.625,9.186,3.754,28.368,2.662,34.447s-13.756,4.049-13.742.024a100.968,100.968,0,0,0-.918-27.9c-5.05-8.722-14.4-34.331-14.708-35.466-7.8-4.832-17.82-15.448-17.694-17a129.933,129.933,0,0,1,2.44-14.3Z" transform="translate(-825.14 -260.526)" fill="#334557"/>
        <path id="Path_1332" data-name="Path 1332" d="M884.128,192.585a12.685,12.685,0,0,0-4.938,12.645s.609,12.244,1.58,13.491a7.248,7.248,0,0,0,3.687,2.17c2.1.367,9.741-4.006,10.906-5.238s1.15-3.745,1.15-3.745,3.474.01,4.368-4.677a16.706,16.706,0,0,0,.261-5.344l-2.251-6.175-5.5-4.039-4.716-.372a25.964,25.964,0,0,0-4.547,1.285Z" transform="translate(-838.385 -188.064)" fill="#f0c8b6"/>
        <path id="Path_1333" data-name="Path 1333" d="M904.732,205.19s.744-5.663-2.387-3.416c-1.02.923-.691,1.537-1.493,2.643s-2.6,1.657-3.005,1.155-.483-5.663.169-7.306,3.653-2.74,1.831-5.136-10.016,3.513-12.389.778c-1.614-2.054,3.938-15.129,16.139-6.243,8.62,6.76,1.131,17.525,1.131,17.525Z" transform="translate(-842.633 -184.603)" fill="#664730"/>
        <path id="Path_1334" data-name="Path 1334" d="M903,333.094c-5.364-.647-12.345,4.407-18.671,6.33a7.679,7.679,0,0,1,1.512,5.827c6.557-.73,22.729-.387,26.242-4.663,1.353-2.575,2.218-7.808,2.624-14.2-1.962-2.469-9.388-1.648-11.785.1-.6.435.242,6.644.082,6.6Z" transform="translate(-841.158 -257.08)" fill="#f0c8b6"/>
        <path id="Path_1335" data-name="Path 1335" d="M932.016,262.381c13.3,3.266,2.87,33.785,3.218,35.742-.8,3.783-13.452,2.9-14.119-1.4-.444-7.958,2.861-14.172,2.02-18.8C922.536,271.189,929.736,261.9,932.016,262.381Z" transform="translate(-860.147 -224.79)" fill="#f58834"/>
        <path id="Path_1336" data-name="Path 1336" d="M802.518,315.275c.812-.329,1.169-2.841.85-4.1s-3.01-4.436-4.963-4.165a3.618,3.618,0,0,0-3.421,3.5c-.092,1.8,1.319,3.136,3.228,4.59C799.75,316.266,801.711,315.609,802.518,315.275Z" transform="translate(-794.981 -247.857)" fill="#96989b"/>
        <path id="Path_1337" data-name="Path 1337" d="M872.79,356.362c.821-.652.952-3.469.159-4.808s-4.962-4.093-7.122-3.121c-2.4,1.082-2.648,2.624-2.141,4.726s7.736,5.948,10.664,4.267l-1.561-1.068Z" transform="translate(-830.376 -269.166)" fill="#96989b"/>
      </g>
      <g id="Group_515" data-name="Group 515" transform="translate(305.638 37.182)">
        <path id="Path_1338" data-name="Path 1338" d="M691.146,76.95l83.032,23.024.541,9.789.367,9.765.2,9.736.024,9.693-.15,9.63-.333,9.557-.517,9.471-.7,9.369-.894,9.258-1.092,9.127-1.285,8.983-1.135,6.76L689.32,199.062l.271-121.61Z" transform="translate(-661.884 -76.95)" fill="#004747"/>
        <path id="Path_1339" data-name="Path 1339" d="M660.338,78.03l-27.8,7.1V206.375l27.474-7.538Z" transform="translate(-632.54 -77.508)" fill="#00f3bb" fill-rule="evenodd"/>
        <path id="Path_1340" data-name="Path 1340" d="M739.475,340.761l-22.454,6.446L632.54,335.485l27.4-7.625Z" transform="translate(-632.54 -206.622)" fill="#799f8d" fill-rule="evenodd"/>
      </g>
      <g id="Group_516" data-name="Group 516" transform="translate(229.178 199.878)">
        <path id="Path_1341" data-name="Path 1341" d="M508.413,413.83c42.482-1.44,90.183,5.977,119.208,38.051l-.5,1.619-152.616,1.672-.208-.792,34.118-40.549Z" transform="translate(-474.3 -413.663)" fill="#004747"/>
        <path id="Path_1342" data-name="Path 1342" d="M482.745,527.541l145.528-1.594s3.532-18.733-1.952-32.026l-151.9,2.174,8.33,31.446Z" transform="translate(-474.362 -455.14)" fill="#00f3bb" fill-rule="evenodd"/>
      </g>
      <g id="Group_517" data-name="Group 517" transform="translate(137.584 250.313)">
        <path id="Path_1343" data-name="Path 1343" d="M426.922,574.71v9.857H420.93Z" transform="translate(-355.124 -547.328)" fill="#ff9500"/>
        <path id="Path_1344" data-name="Path 1344" d="M417.542,544.99v14.36l-5.992,9.857h-8.77Z" transform="translate(-345.744 -531.968)" fill="#eaeaea"/>
        <path id="Path_1345" data-name="Path 1345" d="M404.539,540.17V542.5l-14.761,24.218H377.62l16.143-26.547Z" transform="translate(-332.741 -529.477)" fill="#ff9500"/>
        <path id="Path_1346" data-name="Path 1346" d="M418.145,635.54v.991H409.65v-.991Z" transform="translate(-349.294 -578.765)" fill="#5a5a5a"/>
        <path id="Path_1347" data-name="Path 1347" d="M418.439,595.11v19.535H413.96V595.11Z" transform="translate(-351.522 -557.87)" fill="#5a5a5a"/>
        <path id="Path_1348" data-name="Path 1348" d="M418.439,520.292v8.446H413.96v-8.446a2.24,2.24,0,1,1,4.479,0Z" transform="translate(-351.522 -518.04)" fill="#5a5a5a"/>
        <path id="Path_1349" data-name="Path 1349" d="M384.389,540.17l-16.143,26.547H359.48l16.173-26.547Z" transform="translate(-323.366 -529.477)" fill="#eaeaea"/>
        <path id="Path_1350" data-name="Path 1350" d="M362.65,540.17l-16.172,26.547H334.32l16.148-26.547Z" transform="translate(-310.363 -529.477)" fill="#ff9500"/>
        <path id="Path_1351" data-name="Path 1351" d="M341.093,540.17l-16.148,26.547H316.18l16.168-26.547Z" transform="translate(-300.988 -529.477)" fill="#eaeaea"/>
        <path id="Path_1352" data-name="Path 1352" d="M319.345,540.17l-16.168,26.547H291.02l16.143-26.547Z" transform="translate(-287.986 -529.477)" fill="#ff9500"/>
        <path id="Path_1353" data-name="Path 1353" d="M304.569,540.17l-16.143,26.547H286V556.289l9.828-16.119Z" transform="translate(-285.391 -529.477)" fill="#eaeaea"/>
        <path id="Path_1354" data-name="Path 1354" d="M300.509,635.54v.991H291.99v-.991Z" transform="translate(-288.487 -578.765)" fill="#5a5a5a"/>
        <path id="Path_1355" data-name="Path 1355" d="M295.828,540.17,286,556.289V540.17Z" transform="translate(-285.391 -529.477)" fill="#ff9500"/>
        <path id="Path_1356" data-name="Path 1356" d="M296.35,614.645h4.479V595.11H296.35Z" transform="translate(-290.74 -557.87)" fill="#5a5a5a"/>
        <path id="Path_1357" data-name="Path 1357" d="M300.824,520.292v8.446H296.34v-8.446a2.24,2.24,0,1,1,4.479,0Z" transform="translate(-290.735 -518.04)" fill="#5a5a5a"/>
        <path id="Path_1358" data-name="Path 1358" d="M357.783,567.256H286v-1.242h70.546v-25.9h1.237Z" transform="translate(-285.391 -529.446)" fill="#e07a00"/>
        <path id="Path_1359" data-name="Path 1359" d="M285.977,566.056H284.74V538.91h71.783v1.237H285.977Z" transform="translate(-284.74 -528.826)" fill="#f0f3f4"/>
        <path id="Path_1360" data-name="Path 1360" d="M302.65,617.975h54.886V615.66H302.65Z" transform="translate(-293.996 -568.491)" fill="#5a5a5a"/>
      </g>
      <g id="Group_518" data-name="Group 518" transform="translate(124.214 168.281)">
        <path id="Path_1361" data-name="Path 1361" d="M260.255,417.58h20.284v2.179H257.09V417.58Z" transform="translate(-257.08 -384.09)" fill="#ff9500"/>
        <path id="Path_1362" data-name="Path 1362" d="M279.941,400.76l.846,4.755H264.87l.846-4.755Z" transform="translate(-261.101 -375.397)" fill="#ff9500"/>
        <path id="Path_1363" data-name="Path 1363" d="M280.1,376.18l.846,4.755h-11.7l.846-4.755Z" transform="translate(-263.365 -362.694)" fill="#ff9500"/>
        <path id="Path_1364" data-name="Path 1364" d="M280.234,351.61l.846,4.75H273.6l.846-4.75Z" transform="translate(-265.613 -349.996)" fill="#ff9500"/>
        <path id="Path_1365" data-name="Path 1365" d="M280.151,410.6l.609,3.373H263.64l.594-3.373Z" transform="translate(-260.465 -380.483)" fill="#eaeaea"/>
        <path id="Path_1366" data-name="Path 1366" d="M280.858,348.33l.28,1.585H275.35l.28-1.585Z" transform="translate(-266.517 -348.301)" fill="#eaeaea"/>
        <path id="Path_1367" data-name="Path 1367" d="M279.736,361.44l1.271,7.122H271l1.256-7.122Z" transform="translate(-264.269 -355.076)" fill="#eaeaea"/>
        <path id="Path_1368" data-name="Path 1368" d="M279.589,386.02l1.256,7.122H266.62l1.271-7.122Z" transform="translate(-262.006 -367.779)" fill="#eaeaea"/>
        <path id="Path_1369" data-name="Path 1369" d="M273.513,356.365l.841-4.745H272.89l-.86,4.745Z" transform="translate(-264.801 -350.001)" fill="#ffb600"/>
        <path id="Path_1370" data-name="Path 1370" d="M262.414,410.56l-.614,3.363h1.638l.594-3.363Z" transform="translate(-259.514 -380.462)" fill="#f0f3f4"/>
        <path id="Path_1371" data-name="Path 1371" d="M264.689,405.49l.836-4.74h-1.59l-.865,4.74Z" transform="translate(-260.171 -375.392)" fill="#ffb600"/>
        <path id="Path_1372" data-name="Path 1372" d="M266.45,393.127l1.256-7.117-1.551-.01-1.295,7.127Z" transform="translate(-261.096 -367.769)" fill="#f0f3f4"/>
        <path id="Path_1373" data-name="Path 1373" d="M269.091,380.935l.841-4.755H268.4l-.865,4.745Z" transform="translate(-262.481 -362.694)" fill="#ffb600"/>
        <path id="Path_1374" data-name="Path 1374" d="M270.857,368.526l1.261-7.156h-1.483l-1.3,7.156Z" transform="translate(-263.406 -355.04)" fill="#f0f3f4"/>
        <path id="Path_1375" data-name="Path 1375" d="M275.274,349.884l.285-1.614H274.1l-.295,1.614Z" transform="translate(-265.721 -348.27)" fill="#f0f3f4"/>
        <path id="Path_1376" data-name="Path 1376" d="M257.07,417.489h23.449v-.739H257.07Z" transform="translate(-257.07 -383.661)" fill="#ffb600"/>
      </g>
      <g id="Group_519" data-name="Group 519" transform="translate(10.191 133.781)">
        <path id="Path_1377" data-name="Path 1377" d="M41.539,293.715l-.058.126v.015l-2.266,5.634L37.2,304.52h24.72v-10.8H41.539Zm-6.929,11.423,5.929-14.718H64.288v20.647H22.12V307.9l12.5-2.759Z" transform="translate(-21.622 -283.873)" fill="#e57900"/>
        <path id="Path_1378" data-name="Path 1378" d="M62.248,297.24h8.828v10.8H65.911L62.19,297.38v-.014Z" transform="translate(-42.331 -287.397)" fill="#9ad8f3"/>
        <path id="Path_1379" data-name="Path 1379" d="M134.143,283.91l6.8,13.732-2.1,1.029-6.2-11.959H75.212l-1.8-6.509h-30.3L39.78,276.87H82.567l5.562,7.04Z" transform="translate(-30.749 -276.87)" fill="#ff9500"/>
        <path id="Path_1380" data-name="Path 1380" d="M219.959,297.24l6.2,11.959-4.547,2.223v.015l-7.818,3.832L208.72,297.24Z" transform="translate(-118.059 -287.397)" fill="#e57900"/>
        <path id="Path_1381" data-name="Path 1381" d="M152.232,332.4l2.029-.986V331.4l10.79-5.281,2.044-1,7.818-3.832-9.282,14.182a14.99,14.99,0,0,0-17.748,13.467,12.7,12.7,0,0,0-.058,1.295c0,.478.029.957.068,1.421h-4.929V340.779H120.7V351.65H118.36V316.3l4.943,17.917h.493a3.425,3.425,0,0,0,3.155,3.619h12.732a3.425,3.425,0,0,0,3.155-3.619h5.692l3.706-1.817Z" transform="translate(-71.36 -297.248)" fill="#515151"/>
        <path id="Path_1382" data-name="Path 1382" d="M208.014,372.044A12.056,12.056,0,1,0,195.959,384.1,12.068,12.068,0,0,0,208.014,372.044ZM195.959,358.51a13.541,13.541,0,1,1-13.549,13.534,9.562,9.562,0,0,1,.073-1.295,13.542,13.542,0,0,1,12.689-12.225C195.437,358.525,195.693,358.51,195.959,358.51Z" transform="translate(-104.462 -319.062)" fill="#161617"/>
        <path id="Path_1383" data-name="Path 1383" d="M203.673,373.626a6.127,6.127,0,1,0-6.127,6.127A6.126,6.126,0,0,0,203.673,373.626Zm-6.127-12.056a12.056,12.056,0,1,1-12.056,12.056A12.068,12.068,0,0,1,197.546,361.57Z" transform="translate(-106.053 -320.644)" fill="#41383d"/>
        <path id="Path_1384" data-name="Path 1384" d="M203.887,373.87a6.12,6.12,0,1,1-6.127,6.112A6.126,6.126,0,0,1,203.887,373.87Z" transform="translate(-112.395 -327)" fill="#e57900"/>
        <path id="Path_1385" data-name="Path 1385" d="M206.224,297.24l5.074,18.028-2.044,1L203.89,297.24Z" transform="translate(-115.563 -287.397)" fill="#ff9500"/>
        <path id="Path_1386" data-name="Path 1386" d="M190.768,297.24l5.363,19.028-10.79,5.281L178.5,297.24Z" transform="translate(-102.441 -287.397)" fill="#e57900"/>
        <path id="Path_1387" data-name="Path 1387" d="M194.429,355.42l-.788,1.508a13.543,13.543,0,0,0-12.689,12.225H179.46a15.058,15.058,0,0,1,14.974-13.732Z" transform="translate(-102.937 -317.465)" fill="#161617"/>
        <path id="Path_1388" data-name="Path 1388" d="M176.014,297.24l6.842,24.309v.015l-2.029.986-7.137-25.31Z" transform="translate(-99.955 -287.397)" fill="#ff9500"/>
        <path id="Path_1389" data-name="Path 1389" d="M156.079,324.366h-1.546L146.84,297.24h12.974l7.137,25.31-3.7,1.817Z" transform="translate(-86.079 -287.397)" fill="#e57900"/>
        <path id="Path_1390" data-name="Path 1390" d="M164.133,377.842v3.1H159.32V366.97h4.813Z" transform="translate(-92.528 -323.434)" fill="#e57900"/>
        <path id="Path_1391" data-name="Path 1391" d="M147.174,353.38h1.479A3.425,3.425,0,0,1,145.5,357H132.765a3.425,3.425,0,0,1-3.155-3.619h1.479a1.978,1.978,0,0,0,1.677,2.141H145.5A1.97,1.97,0,0,0,147.174,353.38Z" transform="translate(-77.174 -316.411)" fill="#e57900"/>
        <path id="Path_1392" data-name="Path 1392" d="M147.214,353.38h1.551a1.967,1.967,0,0,1-1.677,2.141H134.357a1.977,1.977,0,0,1-1.677-2.141Z" transform="translate(-78.761 -316.411)" fill="#515151"/>
        <path id="Path_1393" data-name="Path 1393" d="M144.339,297.24l7.692,27.126h-2.368L142,297.24Z" transform="translate(-83.577 -287.397)" fill="#ff9500"/>
        <path id="Path_1394" data-name="Path 1394" d="M156.23,380.939h1.488V366.97H156.23Z" transform="translate(-90.931 -323.434)" fill="#fbb020"/>
        <path id="Path_1395" data-name="Path 1395" d="M121.083,324.366h-.493l-4.943-17.917v-.01l-2.537-9.2h13.959l7.663,27.126Z" transform="translate(-68.647 -287.397)" fill="#e57900"/>
        <path id="Path_1396" data-name="Path 1396" d="M136.52,380.939h9.524V366.97H136.52Z" transform="translate(-80.745 -323.434)" fill="#e57900"/>
        <path id="Path_1397" data-name="Path 1397" d="M133.46,380.939h1.479V366.97H133.46Z" transform="translate(-79.164 -323.434)" fill="#fbb020"/>
        <path id="Path_1398" data-name="Path 1398" d="M128.158,366.97v13.969H123.2V366.97Z" transform="translate(-73.861 -323.434)" fill="#e57900"/>
        <path id="Path_1399" data-name="Path 1399" d="M74.566,358.612v8.775H71.652c.043-.464.072-.942.072-1.421a12.712,12.712,0,0,0-.058-1.3,15.03,15.03,0,0,0-29.948,0,12.71,12.71,0,0,0-.058,1.3c0,.478.029.957.072,1.421H33.62L44.632,346.74H71.1v7.171l3.464,4.7Z" transform="translate(-27.566 -312.979)" fill="#983421"/>
        <path id="Path_1400" data-name="Path 1400" d="M74.566,333.15v18.439L71.1,346.882v-7.166H44.637L33.62,360.363v-8.408l2.9-5.2,7.62-13.607Z" transform="translate(-27.566 -305.956)" fill="#ff9500"/>
        <path id="Path_1401" data-name="Path 1401" d="M113.719,316.29v8.142H109.38V316.28h4.339Z" transform="translate(-66.719 -297.237)" fill="#515151"/>
        <path id="Path_1402" data-name="Path 1402" d="M80.328,369.152H78.835a13.544,13.544,0,0,0-26.962,0H50.38a15.03,15.03,0,0,1,29.948,0Z" transform="translate(-36.227 -317.465)" fill="#161617"/>
        <path id="Path_1403" data-name="Path 1403" d="M78.934,372.044A12.056,12.056,0,1,0,66.879,384.1,12.068,12.068,0,0,0,78.934,372.044Zm1.421-1.295a12.71,12.71,0,0,1,.058,1.295,13.541,13.541,0,1,1-27.083,0,9.562,9.562,0,0,1,.072-1.295,13.544,13.544,0,0,1,26.962,0Z" transform="translate(-37.752 -319.062)" fill="#161617"/>
        <path id="Path_1404" data-name="Path 1404" d="M98.433,297.24v10.8H96.756l-3.986-10.8Z" transform="translate(-58.135 -287.397)" fill="#9ad8f3"/>
        <path id="Path_1405" data-name="Path 1405" d="M90.692,297.24l3.986,10.8H92.62l-3.87-10.79v-.015Z" transform="translate(-56.057 -287.397)" fill="#c6e8f8"/>
        <path id="Path_1406" data-name="Path 1406" d="M74.588,373.626a6.12,6.12,0,1,0-6.112,6.127A6.123,6.123,0,0,0,74.588,373.626ZM68.476,361.57A12.056,12.056,0,1,1,56.42,373.626,12.068,12.068,0,0,1,68.476,361.57Z" transform="translate(-39.349 -320.644)" fill="#41383d"/>
        <path id="Path_1407" data-name="Path 1407" d="M86.125,297.255l3.87,10.79H87.434l-3.764-10.8h2.455Z" transform="translate(-53.432 -287.397)" fill="#9ad8f3"/>
        <path id="Path_1408" data-name="Path 1408" d="M82.073,297.24l3.764,10.8H80.58v-10.8Z" transform="translate(-51.835 -287.397)" fill="#c6e8f8"/>
        <path id="Path_1409" data-name="Path 1409" d="M74.817,373.87a6.12,6.12,0,1,1-6.127,6.112A6.123,6.123,0,0,1,74.817,373.87Z" transform="translate(-45.69 -327)" fill="#e57900"/>
        <path id="Path_1410" data-name="Path 1410" d="M59.766,297.53l3.721,10.664H59.148l-1.648-5.03Z" transform="translate(-39.907 -287.547)" fill="#c6e8f8"/>
        <path id="Path_1411" data-name="Path 1411" d="M55.345,309.19l1.648,5.03H53.33Z" transform="translate(-37.752 -293.573)" fill="#9ad8f3"/>
        <path id="Path_1412" data-name="Path 1412" d="M40.185,333.15l-7.62,13.607H25.96V333.15Z" transform="translate(-23.607 -305.956)" fill="#fbb020"/>
        <path id="Path_1413" data-name="Path 1413" d="M30.048,361.31l-2.9,5.2V372.2H21.09V361.31Z" transform="translate(-21.09 -320.509)" fill="#e57900"/>
        <path id="Path_1414" data-name="Path 1414" d="M25.96,386.56h3.7v-2.72h-3.7Z" transform="translate(-23.607 -332.153)" fill="#515151"/>
        <path id="Path_1415" data-name="Path 1415" d="M79.74,308.059h.705v-10.8H79.74Z" transform="translate(-51.401 -287.408)" fill="#7dbdd3"/>
        <path id="Path_1416" data-name="Path 1416" d="M66,358.461A12.838,12.838,0,1,0,78.843,371.3,12.853,12.853,0,0,0,66,358.461Zm0,27.083a14.247,14.247,0,1,1,14.244-14.249A14.262,14.262,0,0,1,66,385.544Z" transform="translate(-36.941 -318.308)"/>
        <path id="Path_1417" data-name="Path 1417" d="M67.591,361.531a11.353,11.353,0,1,0,11.355,11.35A11.366,11.366,0,0,0,67.591,361.531Zm0,24.116a12.763,12.763,0,1,1,12.761-12.766A12.778,12.778,0,0,1,67.591,385.647Z" transform="translate(-38.527 -319.894)" fill="#595457"/>
        <path id="Path_1418" data-name="Path 1418" d="M73.943,373.826a5.417,5.417,0,1,0,5.417,5.417A5.423,5.423,0,0,0,73.943,373.826Zm0,12.244a6.825,6.825,0,1,1,6.828-6.828A6.832,6.832,0,0,1,73.943,386.07Z" transform="translate(-44.879 -326.251)" fill="#ff9500"/>
        <path id="Path_1419" data-name="Path 1419" d="M195.074,358.461A12.838,12.838,0,1,0,207.913,371.3,12.853,12.853,0,0,0,195.074,358.461Zm0,27.083a14.247,14.247,0,1,1,14.249-14.249A14.262,14.262,0,0,1,195.074,385.544Z" transform="translate(-103.645 -318.308)"/>
        <path id="Path_1420" data-name="Path 1420" d="M196.661,361.531a11.353,11.353,0,1,0,11.355,11.35A11.366,11.366,0,0,0,196.661,361.531Zm0,24.116a12.763,12.763,0,1,1,12.761-12.766A12.778,12.778,0,0,1,196.661,385.647Z" transform="translate(-105.232 -319.894)" fill="#595457"/>
        <path id="Path_1421" data-name="Path 1421" d="M203.013,373.826a5.417,5.417,0,1,0,5.417,5.417A5.423,5.423,0,0,0,203.013,373.826Zm0,12.244a6.825,6.825,0,1,1,6.823-6.828A6.832,6.832,0,0,1,203.013,386.07Z" transform="translate(-111.583 -326.251)" fill="#ff9500"/>
        <path id="Path_1422" data-name="Path 1422" d="M176.317,308.991l-6.1-11.756H112.99v-.705h57.654l6.3,12.138Z" transform="translate(-68.585 -287.031)" fill="#983421"/>
        <path id="Path_1423" data-name="Path 1423" d="M53.179,307.329H77.02V297.235H57.228Zm24.546.705H52.14l4.614-11.5H77.73v11.5Z" transform="translate(-37.137 -287.031)" fill="#983421"/>
      </g>
    </g>
  </g>
</svg>
