<svg xmlns="http://www.w3.org/2000/svg" width="79.737" height="12.54" viewBox="0 0 79.737 12.54">
  <g id="_2_right" data-name="2 right" transform="translate(0 0)">
    <g id="Group_10037" data-name="Group 10037">
      <path id="Path_9220" data-name="Path 9220" d="M5809.48,1320.46h57.287v1.743H5809.48Z" transform="translate(-5798.21 -1314.863)" fill="#96989a"/>
      <path id="Path_9221" data-name="Path 9221" d="M6558.843,1257.269a4.1,4.1,0,0,0-2.391-2.052h-.005a4.127,4.127,0,0,0-5.194,2.636l0,0a4.118,4.118,0,1,0,7.829,2.558h0a4.1,4.1,0,0,0-.246-3.142Zm-1.8-3.874,0,0h0a6.029,6.029,0,0,1,3.86,7.611h0a6.039,6.039,0,1,1-11.48-3.75h0a6.027,6.027,0,0,1,7.609-3.865Z" transform="translate(-6481.47 -1252.634)" fill="#96989a"/>
      <path id="Path_9222" data-name="Path 9222" d="M5671.362,1251.219a4.1,4.1,0,0,0-2.391-2.052h-.006a4.127,4.127,0,0,0-5.194,2.636v0a4.119,4.119,0,1,0,7.831,2.558l0,0a4.1,4.1,0,0,0-.246-3.142Zm-1.8-3.874,0,0h0a6.028,6.028,0,0,1,3.861,7.611h0a6.039,6.039,0,1,1-11.481-3.75h0a6.028,6.028,0,0,1,7.609-3.865Z" transform="translate(-5661.648 -1247.045)" fill="#96989a"/>
    </g>
  </g>
</svg>
