<svg xmlns="http://www.w3.org/2000/svg" width="112.016" height="26.12" viewBox="0 0 112.016 26.12">
  <g id="_1_right" data-name="1 right" transform="translate(0 0)">
    <path id="Path_9212" data-name="Path 9212" d="M5806.8,436.059h25.4V421.12h65.138v1.711h-63.426v14.939H5806.8Z" transform="translate(-5795.734 -416.304)" fill="#96989a"/>
    <path id="Path_9213" data-name="Path 9213" d="M6984.933,362.05a4.025,4.025,0,0,0-2.348-2.015l0,0a4.051,4.051,0,0,0-5.1,2.589v0a4.044,4.044,0,1,0,7.689,2.51l0,0a4.031,4.031,0,0,0-.241-3.085Zm-1.769-3.8,0,0h0a5.917,5.917,0,0,1,3.79,7.473h0a5.929,5.929,0,0,1-11.272-3.682h0a5.918,5.918,0,0,1,7.471-3.794Z" transform="translate(-6875.238 -357.952)" fill="#96989a"/>
    <path id="Path_9214" data-name="Path 9214" d="M5671.183,549.1a4.022,4.022,0,0,0-2.348-2.015l0,0a4.051,4.051,0,0,0-5.1,2.589l0,0a4.044,4.044,0,1,0,7.688,2.51l0,0a4.029,4.029,0,0,0-.242-3.085Zm-1.77-3.8,0,0h0a5.917,5.917,0,0,1,3.791,7.473h0a5.929,5.929,0,0,1-11.272-3.682h0a5.918,5.918,0,0,1,7.47-3.794Z" transform="translate(-5661.646 -530.742)" fill="#96989a"/>
  </g>
</svg>
