<svg id="_1917328949264" xmlns="http://www.w3.org/2000/svg" width="207" height="207.171" viewBox="0 0 207 207.171">
  <g id="Group_236" data-name="Group 236" transform="translate(6.991 1.224)">
    <path id="Path_407" data-name="Path 407" d="M836.453,147.729c4.28-34.071-72.422-73.792-100.159-41.776C677.569,173.753,827.893,217.583,836.453,147.729Z" transform="translate(-644.32 -79.251)" fill="#e7edec" fill-rule="evenodd"/>
    <path id="Path_408" data-name="Path 408" d="M380.429,136.6c4.43-35.262-74.954-76.371-103.66-43.236C215.991,163.535,371.569,208.9,380.429,136.6Z" transform="translate(-262.721 -71.587)" fill="#c5dfdc" fill-rule="evenodd"/>
    <path id="Path_409" data-name="Path 409" d="M435.527,42.1c-10.763-10.273-29.043-18.833-36.56-7.191-7.688,11.642-3.588,25.682-9.4,32.7-5.809,6.848-14.692,3.767-22.038,16.265-7.175,12.327,13.5,30.476,5.979,50.165-31.776,84.75,230.463,95.193,134.963-64.547C484.729,29.948,456.027,61.622,435.527,42.1Z" transform="translate(-348.313 -25.503)" fill="#e7edec" fill-rule="evenodd"/>
    <path id="Path_411" data-name="Path 411" d="M984.2,137.034H939c1.37-13.354,16.265-10.957,17.806-5.479,2.74-9.588,14.039-12.327,17.292-.685C974.1,130.871,985.569,128.3,984.2,137.034Z" transform="translate(-823.479 -103.312)" fill="#fefefe" fill-rule="evenodd"/>
    <path id="Path_412" data-name="Path 412" d="M831.332,16.62H800c1.027-9.245,11.471-7.533,12.5-3.767,1.712-6.677,9.588-8.561,11.814-.514C824.312,12.339,832.188,10.627,831.332,16.62Z" transform="translate(-708.206 -7.038)" fill="#c6ecf9" fill-rule="evenodd"/>
    <path id="Path_413" data-name="Path 413" d="M344.2,213.034H299c1.37-13.354,16.265-10.958,17.806-5.479,2.739-9.588,14.039-12.327,17.292-.685C334.1,206.871,345.569,204.3,344.2,213.034Z" transform="translate(-292.789 -166.3)" fill="#fefefe" fill-rule="evenodd"/>
    <path id="Path_414" data-name="Path 414" d="M334.039,683.59c-1.883-.514-2.055-2.568-3.6-3.767-1.541-1.37-4.28.685-3.253,2.226,1.027,1.37,2.226,3.6.342,4.28-2.055.514-.514,2.4.514,3.082s-1.883.514-2.226,1.712c-.171,1.027,3.6,3.082,3.082,4.623-.342,1.541-4.623.343-4.109,2.226.685,1.883,3.424,4.281,5.992,4.281s8.561-.514,8.047-2.911-1.2-2.226-2.4-3.424,1.883-2.054,1.883-3.938c0-1.712-.685-2.911-2.739-2.911-2.226.171-1.712-1.883-.514-3.424S334.895,682.392,334.039,683.59Z" transform="translate(-314.13 -564.263)" fill="#00f3bb" fill-rule="evenodd"/>
    <path id="Path_415" data-name="Path 415" d="M1308.291,679.947c-.856-3.082-4.109-5.992-7.191-4.965a6.259,6.259,0,0,0-3.424,4.28,20.83,20.83,0,0,0,0,5.65c.171,2.568.514,4.965.685,7.533a11.958,11.958,0,0,0-1.884-3.6,4.078,4.078,0,0,0-3.6-1.2,3.67,3.67,0,0,0-2.054,3.767,7.355,7.355,0,0,0,1.712,3.938,22.638,22.638,0,0,0,5.992,5.479c-2.226-1.883-6.335-1.027-7.7,1.712a1.818,1.818,0,0,0-.171,1.37,2.271,2.271,0,0,0,1.712,1.027,46.945,46.945,0,0,0,16.95.514,8.429,8.429,0,0,0,2.91-1.027,2.641,2.641,0,0,0,1.2-2.74c-.514-1.712-2.4-2.054-3.938-2.739a16.912,16.912,0,0,0,4.794-5.65,6.575,6.575,0,0,0-1.37-7.02c-1.37-1.027-4.623-1.37-5.137.685A9.086,9.086,0,0,0,1308.291,679.947Z" transform="translate(-1114.959 -560.449)" fill="#00f3bb" fill-rule="evenodd"/>
  </g>
  <g id="Group_237" data-name="Group 237" transform="translate(3.272 52.453)">
    <path id="Path_416" data-name="Path 416" d="M264.114,376.753H241V329.327h2.4c0-1.883,3.938-3.424,8.9-3.424h0v-8.561a.342.342,0,0,1,.685,0v.514l5.479,2.226-5.479,2.055V325.9h0c4.965,0,8.9,1.541,8.9,3.424h2.226Zm-10.444-8.389v6.164h3.424v-6.164Zm-5.65,0v6.164h3.424v-6.164Zm-5.479,0v6.164h3.424v-6.164Zm12.327-5.65v4.452h1.712v-4.452Zm-3.082,0v4.452H253.5v-4.452Zm-3.082,0v4.452h1.712v-4.452Zm-3.253,0v4.452h1.712v-4.452Zm-3.082,0v4.452h1.712v-4.452Zm12.5-6.335v4.451h1.712v-4.451Zm-3.082,0v4.451H253.5v-4.451Zm-3.082,0v4.451h1.712v-4.451Zm-3.253,0v4.451h1.712v-4.451Zm-3.082,0v4.451h1.712v-4.451Zm3.082-6.164v4.451h1.712v-4.451Zm-3.082,0v4.451h1.712v-4.451Zm12.5,0v4.451h1.712v-4.451Zm-3.082,0v4.451H253.5v-4.451Zm-3.082,0v4.451h1.712v-4.451Zm12.327-6.335v4.451h1.712V343.88Zm-3.082,0v4.451h1.712V343.88Zm-12.5,0v4.451h1.712V343.88Zm-3.082,0v4.451h1.712V343.88Zm12.5,0v4.451h1.712V343.88Zm-3.082,0v4.451H253.5V343.88Zm-3.082,0v4.451h1.712V343.88Zm12.327-6.164v4.452h1.712v-4.452Zm-3.082,0v4.452h1.712v-4.452Zm-12.5,0v4.452h1.712v-4.452Zm-3.082,0v4.452h1.712v-4.452Zm12.5,0v4.452h1.712v-4.452Zm-3.082,0v4.452H253.5v-4.452Zm-3.082,0v4.452h1.712v-4.452Zm12.327-6.335v4.452h1.712v-4.452Zm-3.082,0v4.452h1.712v-4.452Zm-3.082,0v4.452h1.712v-4.452Zm-3.082,0v4.452H253.5v-4.452Zm-3.082,0v4.452h1.712v-4.452Zm-3.253,0v4.452h1.712v-4.452Zm-3.082,0v4.452h1.712v-4.452Z" transform="translate(-241 -315.288)" fill="#2b7a96" fill-rule="evenodd"/>
    <path id="Path_417" data-name="Path 417" d="M492.312,392.644H468V337h24.312Z" transform="translate(-429.135 -331.864)" fill="#e5e6e5" fill-rule="evenodd"/>
    <path id="Path_418" data-name="Path 418" d="M338.156,502.739H326V500h12.156Z" transform="translate(-311.447 -466.956)" fill="#c9cac9" fill-rule="evenodd"/>
    <path id="Path_419" data-name="Path 419" d="M478.883,348.794H477V344h1.883Z" transform="translate(-436.594 -337.665)" fill="#2eaad4" fill-rule="evenodd"/>
    <path id="Path_420" data-name="Path 420" d="M497.883,348.794H496V344h1.883Z" transform="translate(-452.341 -337.665)" fill="#2eaad4" fill-rule="evenodd"/>
    <path id="Path_421" data-name="Path 421" d="M516.883,348.794H515V344h1.883Z" transform="translate(-468.088 -337.665)" fill="#2eaad4" fill-rule="evenodd"/>
    <path id="Path_422" data-name="Path 422" d="M535.883,348.794H534V344h1.883Z" transform="translate(-483.835 -337.665)" fill="#2eaad4" fill-rule="evenodd"/>
    <path id="Path_423" data-name="Path 423" d="M554.883,348.794H553V344h1.883Z" transform="translate(-499.582 -337.665)" fill="#2eaad4" fill-rule="evenodd"/>
    <path id="Path_424" data-name="Path 424" d="M573.883,348.794H572V344h1.883Z" transform="translate(-515.329 -337.665)" fill="#2eaad4" fill-rule="evenodd"/>
    <path id="Path_425" data-name="Path 425" d="M593.712,348.794H592V344h1.712Z" transform="translate(-531.905 -337.665)" fill="#2eaad4" fill-rule="evenodd"/>
    <path id="Path_426" data-name="Path 426" d="M478.883,385.623H477V381h1.883Z" transform="translate(-436.594 -368.33)" fill="#2eaad4" fill-rule="evenodd"/>
    <path id="Path_427" data-name="Path 427" d="M497.883,385.623H496V381h1.883Z" transform="translate(-452.341 -368.33)" fill="#2eaad4" fill-rule="evenodd"/>
    <path id="Path_428" data-name="Path 428" d="M516.883,385.623H515V381h1.883Z" transform="translate(-468.088 -368.33)" fill="#2eaad4" fill-rule="evenodd"/>
    <path id="Path_429" data-name="Path 429" d="M535.883,385.623H534V381h1.883Z" transform="translate(-483.835 -368.33)" fill="#2eaad4" fill-rule="evenodd"/>
    <path id="Path_430" data-name="Path 430" d="M554.883,385.623H553V381h1.883Z" transform="translate(-499.582 -368.33)" fill="#2eaad4" fill-rule="evenodd"/>
    <path id="Path_431" data-name="Path 431" d="M573.883,385.623H572V381h1.883Z" transform="translate(-515.329 -368.33)" fill="#2eaad4" fill-rule="evenodd"/>
    <path id="Path_432" data-name="Path 432" d="M593.712,385.623H592V381h1.712Z" transform="translate(-531.905 -368.33)" fill="#2eaad4" fill-rule="evenodd"/>
    <path id="Path_433" data-name="Path 433" d="M478.883,421.794H477V417h1.883Z" transform="translate(-436.594 -398.167)" fill="#2eaad4" fill-rule="evenodd"/>
    <path id="Path_434" data-name="Path 434" d="M497.883,421.794H496V417h1.883Z" transform="translate(-452.341 -398.167)" fill="#2eaad4" fill-rule="evenodd"/>
    <path id="Path_435" data-name="Path 435" d="M516.883,421.794H515V417h1.883Z" transform="translate(-468.088 -398.167)" fill="#2eaad4" fill-rule="evenodd"/>
    <path id="Path_436" data-name="Path 436" d="M535.883,421.794H534V417h1.883Z" transform="translate(-483.835 -398.167)" fill="#2eaad4" fill-rule="evenodd"/>
    <path id="Path_437" data-name="Path 437" d="M554.883,421.794H553V417h1.883Z" transform="translate(-499.582 -398.167)" fill="#2eaad4" fill-rule="evenodd"/>
    <path id="Path_438" data-name="Path 438" d="M573.883,421.794H572V417h1.883Z" transform="translate(-515.329 -398.167)" fill="#2eaad4" fill-rule="evenodd"/>
    <path id="Path_439" data-name="Path 439" d="M593.712,421.794H592V417h1.712Z" transform="translate(-531.905 -398.167)" fill="#2eaad4" fill-rule="evenodd"/>
    <path id="Path_440" data-name="Path 440" d="M478.883,457.794H477V453h1.883Z" transform="translate(-436.594 -428.003)" fill="#2eaad4" fill-rule="evenodd"/>
    <path id="Path_441" data-name="Path 441" d="M497.883,457.794H496V453h1.883Z" transform="translate(-452.341 -428.003)" fill="#2eaad4" fill-rule="evenodd"/>
    <path id="Path_442" data-name="Path 442" d="M516.883,457.794H515V453h1.883Z" transform="translate(-468.088 -428.003)" fill="#2eaad4" fill-rule="evenodd"/>
    <path id="Path_443" data-name="Path 443" d="M535.883,457.794H534V453h1.883Z" transform="translate(-483.835 -428.003)" fill="#2eaad4" fill-rule="evenodd"/>
    <path id="Path_444" data-name="Path 444" d="M554.883,457.794H553V453h1.883Z" transform="translate(-499.582 -428.003)" fill="#2eaad4" fill-rule="evenodd"/>
    <path id="Path_445" data-name="Path 445" d="M573.883,457.794H572V453h1.883Z" transform="translate(-515.329 -428.003)" fill="#2eaad4" fill-rule="evenodd"/>
    <path id="Path_446" data-name="Path 446" d="M593.712,457.794H592V453h1.712Z" transform="translate(-531.905 -428.003)" fill="#2eaad4" fill-rule="evenodd"/>
    <path id="Path_447" data-name="Path 447" d="M478.883,494.623H477V490h1.883Z" transform="translate(-436.594 -458.668)" fill="#2eaad4" fill-rule="evenodd"/>
    <path id="Path_448" data-name="Path 448" d="M497.883,494.623H496V490h1.883Z" transform="translate(-452.341 -458.668)" fill="#2eaad4" fill-rule="evenodd"/>
    <path id="Path_449" data-name="Path 449" d="M516.883,494.623H515V490h1.883Z" transform="translate(-468.088 -458.668)" fill="#2eaad4" fill-rule="evenodd"/>
    <path id="Path_450" data-name="Path 450" d="M535.883,494.623H534V490h1.883Z" transform="translate(-483.835 -458.668)" fill="#2eaad4" fill-rule="evenodd"/>
    <path id="Path_451" data-name="Path 451" d="M554.883,494.623H553V490h1.883Z" transform="translate(-499.582 -458.668)" fill="#2eaad4" fill-rule="evenodd"/>
    <path id="Path_452" data-name="Path 452" d="M573.883,494.623H572V490h1.883Z" transform="translate(-515.329 -458.668)" fill="#2eaad4" fill-rule="evenodd"/>
    <path id="Path_453" data-name="Path 453" d="M593.712,494.623H592V490h1.712Z" transform="translate(-531.905 -458.668)" fill="#2eaad4" fill-rule="evenodd"/>
    <path id="Path_454" data-name="Path 454" d="M535.883,530.794H534V526h1.883Z" transform="translate(-483.835 -488.505)" fill="#2eaad4" fill-rule="evenodd"/>
    <path id="Path_455" data-name="Path 455" d="M554.883,530.794H553V526h1.883Z" transform="translate(-499.582 -488.505)" fill="#2eaad4" fill-rule="evenodd"/>
    <path id="Path_456" data-name="Path 456" d="M573.883,530.794H572V526h1.883Z" transform="translate(-515.329 -488.505)" fill="#2eaad4" fill-rule="evenodd"/>
    <path id="Path_457" data-name="Path 457" d="M593.712,530.794H592V526h1.712Z" transform="translate(-531.905 -488.505)" fill="#2eaad4" fill-rule="evenodd"/>
    <path id="Path_458" data-name="Path 458" d="M417.164,502.739H411V500h6.164Z" transform="translate(-381.894 -466.956)" fill="#c9cac9" fill-rule="evenodd"/>
    <path id="Path_459" data-name="Path 459" d="M332.8,541H290V516h42.8Z" transform="translate(-281.611 -480.217)" fill="#2eaad4" fill-rule="evenodd"/>
    <path id="Path_460" data-name="Path 460" d="M328.18,572.491H290V554h38.18Z" transform="translate(-281.611 -511.711)" fill="#6fcff6" fill-rule="evenodd"/>
    <path id="Path_461" data-name="Path 461" d="M610,541.339V516h3.938l2.568,3.253v22.086Z" transform="translate(-546.823 -480.217)" fill="#2eaad4" fill-rule="evenodd"/>
    <path id="Path_462" data-name="Path 462" d="M497.744,324.568H476V322h21.744Z" transform="translate(-435.765 -319.432)" fill="#2eaad4" fill-rule="evenodd"/>
    <path id="Path_463" data-name="Path 463" d="M507.607,309.568H491V307h16.607Z" transform="translate(-448.197 -307)" fill="#6fcff6" fill-rule="evenodd"/>
    <path id="Path_464" data-name="Path 464" d="M549.786,604.055H539V602h10.786Z" transform="translate(-487.979 -551.493)" fill="#2eaad4" fill-rule="evenodd"/>
    <path id="Path_465" data-name="Path 465" d="M549.786,584.226H539V582h10.786Z" transform="translate(-487.979 -534.917)" fill="#2eaad4" fill-rule="evenodd"/>
    <path id="Path_466" data-name="Path 466" d="M549.786,565.226H539V563h10.786Z" transform="translate(-487.979 -519.17)" fill="#2eaad4" fill-rule="evenodd"/>
    <path id="Path_467" data-name="Path 467" d="M563.02,630.506H556V624h7.02Z" transform="translate(-502.068 -569.726)" fill="#2eaad4" fill-rule="evenodd"/>
    <path id="Path_468" data-name="Path 468" d="M621.883,535.623H620V531h1.883Z" transform="translate(-555.111 -492.649)" fill="#fefefe" fill-rule="evenodd"/>
    <path id="Path_469" data-name="Path 469" d="M621.883,579.623H620V575h1.883Z" transform="translate(-555.111 -529.115)" fill="#fefefe" fill-rule="evenodd"/>
    <path id="Path_470" data-name="Path 470" d="M621.883,623.623H620V619h1.883Z" transform="translate(-555.111 -565.582)" fill="#fefefe" fill-rule="evenodd"/>
    <path id="Path_471" data-name="Path 471" d="M387.541,526h1.37v.685h-.171v1.541h.171v.685h-1.37v-.685h.171v-.514H387.2v.514h.171v.685H386v-.685h.171v-1.541H386V526h1.37v.685H387.2v.514h.514v-.514h-.171Z" transform="translate(-361.174 -488.505)" fill="#fefefe" fill-rule="evenodd"/>
    <path id="Path_472" data-name="Path 472" d="M405.37,528.226h.171a.168.168,0,0,0,.171-.171v-1.2a.168.168,0,0,0-.171-.171H405.2v1.541Zm1.37-.685v.685l-.342.342c0,.171-.171.171-.342.342h-1.2c-.171-.171-.342-.171-.514-.342,0-.171-.171-.171-.171-.342a1.294,1.294,0,0,1-.171-.685c0-.342,0-.514.171-.685,0-.171.171-.342.171-.514A30367.027,30367.027,0,0,0,405.37,526c.342,0,.514,0,.685.171.171,0,.342,0,.342.171.171.171.171.342.342.514Z" transform="translate(-376.093 -488.505)" fill="#fefefe" fill-rule="evenodd"/>
    <path id="Path_473" data-name="Path 473" d="M423.027,528.226h.171v-.171h0l-.171-.171c-.171,0-.342-.171-.514-.171s-.171-.171-.342-.171c0-.171-.171-.171-.171-.342v-.685c0-.171.171-.171.171-.343.171,0,.171,0,.342-.171h1.2a.629.629,0,0,0,.514.171v.685h-.856v-.171h-.342v.171h0l.171.171a.629.629,0,0,1,.514.171.53.53,0,0,1,.342.171l.171.171v.514c0,.342,0,.514-.171.685a1.854,1.854,0,0,1-1.027.171h-.514a.75.75,0,0,1-.514-.171v-.685h.685a.168.168,0,0,0,.171.171Z" transform="translate(-391.011 -488.505)" fill="#fefefe" fill-rule="evenodd"/>
    <path id="Path_474" data-name="Path 474" d="M437.37,527.2h.171a.168.168,0,0,0,.171-.171v-.171a.168.168,0,0,0-.171-.171h-.171v.514Zm.342,1.712H436v-.685h.342v-1.541H436V526h1.712c.171,0,.342,0,.342.171h.342c.171.171.171.171.171.343s.171.171.171.342-.171.343-.171.514a.168.168,0,0,1-.171.171c0,.171-.171.171-.342.171h-.685v.514h.342Z" transform="translate(-402.614 -488.505)" fill="#fefefe" fill-rule="evenodd"/>
    <path id="Path_475" data-name="Path 475" d="M453,526h1.37v.685H454.2v1.541h.171v.685H453v-.685h.171v-1.541H453Z" transform="translate(-416.703 -488.505)" fill="#fefefe" fill-rule="evenodd"/>
    <path id="Path_476" data-name="Path 476" d="M462,526h2.739v.856h-.514v-.171h-.342v1.541h.342v.685h-1.541v-.685h.171v-1.541h-.171v.171H462Z" transform="translate(-424.162 -488.505)" fill="#fefefe" fill-rule="evenodd"/>
    <path id="Path_477" data-name="Path 477" d="M479.2,527.541h.342l-.171-.685H479.2Zm.171.685h.171v-.171h-.514v.171h.171v.685H478v-.685h.171l.514-2.226h1.37l.685,2.226h0v.685h-1.37Z" transform="translate(-437.423 -488.505)" fill="#fefefe" fill-rule="evenodd"/>
    <path id="Path_478" data-name="Path 478" d="M495,526h1.712v.685h-.342v1.541h.342v-.343h.685v1.027H495v-.685h.342v-1.541H495Z" transform="translate(-451.512 -488.505)" fill="#fefefe" fill-rule="evenodd"/>
    <path id="Path_479" data-name="Path 479" d="M344.685,571.806H344V554h.685Z" transform="translate(-326.365 -511.711)" fill="#fefefe" fill-rule="evenodd"/>
    <path id="Path_480" data-name="Path 480" d="M399.685,571.806H399V554h.685Z" transform="translate(-371.949 -511.711)" fill="#fefefe" fill-rule="evenodd"/>
    <path id="Path_481" data-name="Path 481" d="M455.685,571.806H455V554h.685Z" transform="translate(-418.361 -511.711)" fill="#fefefe" fill-rule="evenodd"/>
    <path id="Path_482" data-name="Path 482" d="M328.18,552.685H290V552h38.18Z" transform="translate(-281.611 -510.053)" fill="#fefefe" fill-rule="evenodd"/>
    <path id="Path_483" data-name="Path 483" d="M328.18,577.856H290V577h38.18Z" transform="translate(-281.611 -530.773)" fill="#fefefe" fill-rule="evenodd"/>
    <path id="Path_484" data-name="Path 484" d="M328.18,603.685H290V603h38.18Z" transform="translate(-281.611 -552.321)" fill="#fefefe" fill-rule="evenodd"/>
    <path id="Path_485" data-name="Path 485" d="M328.18,628.685H290V628h38.18Z" transform="translate(-281.611 -573.041)" fill="#fefefe" fill-rule="evenodd"/>
    <path id="Path_486" data-name="Path 486" d="M328.18,653.856H290V653h38.18Z" transform="translate(-281.611 -593.761)" fill="#fefefe" fill-rule="evenodd"/>
    <path id="Path_487" data-name="Path 487" d="M510.856,570.491H510V552h.856Z" transform="translate(-463.944 -510.053)" fill="#fefefe" fill-rule="evenodd"/>
    <path id="Path_488" data-name="Path 488" d="M348.745,659.37H283V658h65.745Z" transform="translate(-275.809 -597.905)" fill="#2eaad4" fill-rule="evenodd"/>
  </g>
  <g id="Group_238" data-name="Group 238" transform="translate(131.496 45.445)">
    <path id="Path_489" data-name="Path 489" d="M1036.806,377.37H1019V376h17.806Z" transform="translate(-1014.377 -357.167)" fill="#2a988e" fill-rule="evenodd"/>
    <path id="Path_490" data-name="Path 490" d="M1047.985,368.541H1036V367h11.985Z" transform="translate(-1028.467 -349.708)" fill="#2a988e" fill-rule="evenodd"/>
    <path id="Path_491" data-name="Path 491" d="M1131.623,446.027H1127V445h4.623Z" transform="translate(-1103.886 -414.353)" fill="#2a988e" fill-rule="evenodd"/>
    <path id="Path_492" data-name="Path 492" d="M1107.833,614.561H1089V606h18.833Zm-2.568-7.533v5.479h1.37v-5.479Zm-2.054,0v5.479h1.37v-5.479Zm-2.226,0v5.479h1.37v-5.479Zm-2.226,0v5.479h1.541v-5.479Zm-2.055,0v5.479h1.37v-5.479Zm-2.226,0v5.479h1.37v-5.479Zm-2.054,0v5.479h1.37v-5.479Zm-2.226,0v5.479h1.37v-5.479Z" transform="translate(-1072.392 -547.788)" fill="#2a988e" fill-rule="evenodd"/>
    <path id="Path_493" data-name="Path 493" d="M1133.156,573.335H1121V567h9.074Zm-7.533-4.965v3.6h3.6v-3.6Zm-4.28,0v3.6h3.767v-3.6Z" transform="translate(-1098.914 -515.465)" fill="#2a988e" fill-rule="evenodd"/>
    <path id="Path_494" data-name="Path 494" d="M1128.191,470.347H1121V451h7.191Zm-6.164-2.568v1.541h4.965v-1.541Zm0-2.739v1.712h4.965v-1.712Zm0-2.568v1.712h4.965v-1.712Zm0-2.568v1.712h4.965V459.9Zm0-2.568v1.541h4.965v-1.541Zm0-2.739v1.712h4.965V454.6Zm0-2.568v1.712h4.965v-1.712Z" transform="translate(-1098.914 -419.326)" fill="#2a988e" fill-rule="evenodd"/>
    <path id="Path_495" data-name="Path 495" d="M1034.786,430.569H1024V384h16.094v37.666h-5.307v8.9Zm2.911-14.9v3.6h1.37v-3.6Zm-2.568,0v3.6h1.37v-3.6Zm-2.568,0v3.6h1.541v-3.6Zm-2.4,0v3.6h1.37v-3.6Zm-2.568,0v3.6h1.37v-3.6Zm-2.568,0v3.6h1.37v-3.6Zm12.67-5.136v3.6h1.37v-3.6Zm-2.568,0v3.6h1.37v-3.6Zm-2.568,0v3.6h1.541v-3.6Zm-2.4,0v3.6h1.37v-3.6Zm-2.568,0v3.6h1.37v-3.6Zm-2.568,0v3.6h1.37v-3.6Zm12.67-5.136V409h1.37v-3.6Zm-2.568,0V409h1.37v-3.6Zm-2.568,0V409h1.541v-3.6Zm-2.4,0V409h1.37v-3.6Zm-2.568,0V409h1.37v-3.6Zm-2.568,0V409h1.37v-3.6Zm12.67-5.136v3.6h1.37v-3.6Zm-2.568,0v3.6h1.37v-3.6Zm-2.568,0v3.6h1.541v-3.6Zm-2.4,0v3.6h1.37v-3.6Zm-2.568,0v3.6h1.37v-3.6Zm-2.568,0v3.6h1.37v-3.6Zm12.67-5.136v3.6h1.37v-3.6Zm-2.568,0v3.6h1.37v-3.6Zm-2.568,0v3.6h1.541v-3.6Zm-2.4,0v3.6h1.37v-3.6Zm-2.568,0v3.6h1.37v-3.6Zm-2.568,0v3.6h1.37v-3.6Zm12.67-5.136v3.6h1.37v-3.6Zm-2.568,0v3.6h1.37v-3.6Zm-2.568,0v3.6h1.541v-3.6Zm-2.4,0v3.6h1.37v-3.6Zm-2.568,0v3.6h1.37v-3.6Zm-2.568,0v3.6h1.37v-3.6Zm12.67-4.965v3.6h1.37v-3.6Zm-2.568,0v3.6h1.37v-3.6Zm-2.568,0v3.6h1.541v-3.6Zm-2.4,0v3.6h1.37v-3.6Zm-2.568,0v3.6h1.37v-3.6Zm-2.568,0v3.6h1.37v-3.6Z" transform="translate(-1018.521 -363.797)" fill="#2a988e" fill-rule="evenodd"/>
    <path id="Path_496" data-name="Path 496" d="M1029.153,657.027H992V656h37.153Z" transform="translate(-992 -589.228)" fill="#2a988e" fill-rule="evenodd"/>
    <path id="Path_497" data-name="Path 497" d="M1266.484,380.869H1242V323h24.483Z" transform="translate(-1199.197 -313.241)" fill="#72c9be" fill-rule="evenodd"/>
    <path id="Path_498" data-name="Path 498" d="M1114.557,551.6H1081V529h33.557Z" transform="translate(-1065.762 -483.971)" fill="#54bfa2" fill-rule="evenodd"/>
    <path id="Path_499" data-name="Path 499" d="M1261.223,331.541H1234V330h27.223Z" transform="translate(-1192.567 -319.043)" fill="#72c9be" fill-rule="evenodd"/>
    <path id="Path_500" data-name="Path 500" d="M1269.245,298c-5.136,0-9.245,1.883-9.245,4.28h18.319C1278.32,299.883,1274.211,298,1269.245,298Z" transform="translate(-1214.116 -292.521)" fill="#2eaad4" fill-rule="evenodd"/>
    <path id="Path_501" data-name="Path 501" d="M1065.253,581,1062,583.4v11.3h3.253Z" transform="translate(-1050.015 -527.069)" fill="#c9cac9" fill-rule="evenodd"/>
    <path id="Path_502" data-name="Path 502" d="M1385,543l4.623,3.6V563.2H1385Z" transform="translate(-1317.714 -495.574)" fill="#9edbef" fill-rule="evenodd"/>
    <path id="Path_503" data-name="Path 503" d="M1113.164,480.479H1107V475h6.164Z" transform="translate(-1087.311 -439.217)" fill="#54bfa2" fill-rule="evenodd"/>
    <path id="Path_504" data-name="Path 504" d="M1185.335,480.479H1179V475h6.335Z" transform="translate(-1146.984 -439.217)" fill="#54bfa2" fill-rule="evenodd"/>
    <path id="Path_505" data-name="Path 505" d="M1110.082,462c-1.712,0-3.082.856-3.082,2.226h6.164C1113.164,462.856,1111.794,462,1110.082,462Z" transform="translate(-1087.311 -428.443)" fill="#54bfa2" fill-rule="evenodd"/>
    <path id="Path_506" data-name="Path 506" d="M1182.082,462c-1.712,0-3.082.856-3.082,2.226h6.335C1185.335,462.856,1183.794,462,1182.082,462Z" transform="translate(-1146.984 -428.443)" fill="#54bfa2" fill-rule="evenodd"/>
    <path id="Path_507" data-name="Path 507" d="M1110.047,472.2H1102V471h8.047Z" transform="translate(-1083.166 -435.902)" fill="#72c9be" fill-rule="evenodd"/>
    <path id="Path_508" data-name="Path 508" d="M1182.047,472.2H1174V471h8.047Z" transform="translate(-1142.839 -435.902)" fill="#72c9be" fill-rule="evenodd"/>
    <path id="Path_509" data-name="Path 509" d="M1188.561,365.28a4.28,4.28,0,1,1-4.28-4.28A4.239,4.239,0,0,1,1188.561,365.28Z" transform="translate(-1147.812 -344.735)" fill="#52c3e6" fill-rule="evenodd"/>
    <path id="Path_510" data-name="Path 510" d="M1232.055,383.37H1230V382h2.055Z" transform="translate(-1189.252 -362.14)" fill="#b6b6b7" fill-rule="evenodd"/>
    <path id="Path_511" data-name="Path 511" d="M1097.794,624.533H1093V617h4.794Z" transform="translate(-1075.708 -556.905)" fill="#72c9be" fill-rule="evenodd"/>
    <path id="Path_512" data-name="Path 512" d="M1131.712,621.623H1130V617h1.712Z" transform="translate(-1106.373 -556.905)" fill="#9edbef" fill-rule="evenodd"/>
    <path id="Path_513" data-name="Path 513" d="M1148.883,621.623H1147V617h1.883Z" transform="translate(-1120.462 -556.905)" fill="#9edbef" fill-rule="evenodd"/>
    <path id="Path_514" data-name="Path 514" d="M1166.883,621.623H1165V617h1.883Z" transform="translate(-1135.38 -556.905)" fill="#9edbef" fill-rule="evenodd"/>
    <path id="Path_515" data-name="Path 515" d="M1184.883,621.623H1183V617h1.883Z" transform="translate(-1150.299 -556.905)" fill="#9edbef" fill-rule="evenodd"/>
    <path id="Path_516" data-name="Path 516" d="M1202.712,621.623H1201V617h1.712Z" transform="translate(-1165.217 -556.905)" fill="#9edbef" fill-rule="evenodd"/>
    <path id="Path_517" data-name="Path 517" d="M1220.712,621.623H1219V617h1.712Z" transform="translate(-1180.135 -556.905)" fill="#9edbef" fill-rule="evenodd"/>
    <path id="Path_518" data-name="Path 518" d="M1237.883,621.623H1236V617h1.883Z" transform="translate(-1194.224 -556.905)" fill="#9edbef" fill-rule="evenodd"/>
    <path id="Path_519" data-name="Path 519" d="M1255.883,621.623H1254V617h1.883Z" transform="translate(-1209.143 -556.905)" fill="#9edbef" fill-rule="evenodd"/>
    <path id="Path_520" data-name="Path 520" d="M1255.794,351.794H1251V347h4.794Z" transform="translate(-1206.656 -333.132)" fill="#54bfa2" fill-rule="evenodd"/>
    <path id="Path_521" data-name="Path 521" d="M1288.623,351.794H1284V347h4.623Z" transform="translate(-1234.006 -333.132)" fill="#54bfa2" fill-rule="evenodd"/>
    <path id="Path_522" data-name="Path 522" d="M1320.794,351.794H1316V347h4.794Z" transform="translate(-1260.527 -333.132)" fill="#54bfa2" fill-rule="evenodd"/>
    <path id="Path_523" data-name="Path 523" d="M1353.623,351.794H1349V347h4.623Z" transform="translate(-1287.878 -333.132)" fill="#54bfa2" fill-rule="evenodd"/>
    <path id="Path_524" data-name="Path 524" d="M1255.794,384.623H1251V380h4.794Z" transform="translate(-1206.656 -360.482)" fill="#54bfa2" fill-rule="evenodd"/>
    <path id="Path_525" data-name="Path 525" d="M1288.623,384.623H1284V380h4.623Z" transform="translate(-1234.006 -360.482)" fill="#54bfa2" fill-rule="evenodd"/>
    <path id="Path_526" data-name="Path 526" d="M1320.794,384.623H1316V380h4.794Z" transform="translate(-1260.527 -360.482)" fill="#54bfa2" fill-rule="evenodd"/>
    <path id="Path_527" data-name="Path 527" d="M1353.623,384.623H1349V380h4.623Z" transform="translate(-1287.878 -360.482)" fill="#54bfa2" fill-rule="evenodd"/>
    <path id="Path_528" data-name="Path 528" d="M1255.794,416.794H1251V412h4.794Z" transform="translate(-1206.656 -387.003)" fill="#54bfa2" fill-rule="evenodd"/>
    <path id="Path_529" data-name="Path 529" d="M1288.623,416.794H1284V412h4.623Z" transform="translate(-1234.006 -387.003)" fill="#54bfa2" fill-rule="evenodd"/>
    <path id="Path_530" data-name="Path 530" d="M1320.794,416.794H1316V412h4.794Z" transform="translate(-1260.527 -387.003)" fill="#54bfa2" fill-rule="evenodd"/>
    <path id="Path_531" data-name="Path 531" d="M1353.623,416.794H1349V412h4.623Z" transform="translate(-1287.878 -387.003)" fill="#54bfa2" fill-rule="evenodd"/>
    <path id="Path_532" data-name="Path 532" d="M1255.623,449.794H1251V445h4.623Z" transform="translate(-1206.656 -414.353)" fill="#54bfa2" fill-rule="evenodd"/>
    <path id="Path_533" data-name="Path 533" d="M1288.623,449.794H1284V445h4.623Z" transform="translate(-1234.006 -414.353)" fill="#54bfa2" fill-rule="evenodd"/>
    <path id="Path_534" data-name="Path 534" d="M1320.794,449.794H1316V445h4.794Z" transform="translate(-1260.527 -414.353)" fill="#54bfa2" fill-rule="evenodd"/>
    <path id="Path_535" data-name="Path 535" d="M1353.623,449.794H1349V445h4.623Z" transform="translate(-1287.878 -414.353)" fill="#54bfa2" fill-rule="evenodd"/>
    <path id="Path_536" data-name="Path 536" d="M1255.794,482.623H1251V478h4.794Z" transform="translate(-1206.656 -441.703)" fill="#54bfa2" fill-rule="evenodd"/>
    <path id="Path_537" data-name="Path 537" d="M1288.623,482.623H1284V478h4.623Z" transform="translate(-1234.006 -441.703)" fill="#54bfa2" fill-rule="evenodd"/>
    <path id="Path_538" data-name="Path 538" d="M1320.794,482.623H1316V478h4.794Z" transform="translate(-1260.527 -441.703)" fill="#54bfa2" fill-rule="evenodd"/>
    <path id="Path_539" data-name="Path 539" d="M1353.623,482.623H1349V478h4.623Z" transform="translate(-1287.878 -441.703)" fill="#54bfa2" fill-rule="evenodd"/>
    <path id="Path_540" data-name="Path 540" d="M1288.623,514.794H1284V510h4.623Z" transform="translate(-1234.006 -468.225)" fill="#54bfa2" fill-rule="evenodd"/>
    <path id="Path_541" data-name="Path 541" d="M1320.794,514.794H1316V510h4.794Z" transform="translate(-1260.527 -468.225)" fill="#54bfa2" fill-rule="evenodd"/>
    <path id="Path_542" data-name="Path 542" d="M1353.623,514.794H1349V510h4.623Z" transform="translate(-1287.878 -468.225)" fill="#54bfa2" fill-rule="evenodd"/>
    <path id="Path_543" data-name="Path 543" d="M1288.623,547.794H1284V543h4.623Z" transform="translate(-1234.006 -495.574)" fill="#54bfa2" fill-rule="evenodd"/>
    <path id="Path_544" data-name="Path 544" d="M1320.794,547.794H1316V543h4.794Z" transform="translate(-1260.527 -495.574)" fill="#54bfa2" fill-rule="evenodd"/>
    <path id="Path_545" data-name="Path 545" d="M1353.623,547.794H1349V543h4.623Z" transform="translate(-1287.878 -495.574)" fill="#54bfa2" fill-rule="evenodd"/>
    <path id="Path_546" data-name="Path 546" d="M1291.362,582.055H1284V580h7.362Z" transform="translate(-1234.006 -526.24)" fill="#54bfa2" fill-rule="evenodd"/>
    <path id="Path_547" data-name="Path 547" d="M1340.362,582.055H1333V580h7.362Z" transform="translate(-1274.617 -526.24)" fill="#54bfa2" fill-rule="evenodd"/>
    <path id="Path_548" data-name="Path 548" d="M1291.362,604.226H1284V602h7.362Z" transform="translate(-1234.006 -544.473)" fill="#54bfa2" fill-rule="evenodd"/>
    <path id="Path_549" data-name="Path 549" d="M1340.362,604.226H1333V602h7.362Z" transform="translate(-1274.617 -544.473)" fill="#54bfa2" fill-rule="evenodd"/>
    <path id="Path_550" data-name="Path 550" d="M1291.362,626.226H1284V624h7.362Z" transform="translate(-1234.006 -562.706)" fill="#54bfa2" fill-rule="evenodd"/>
    <path id="Path_551" data-name="Path 551" d="M1340.362,626.226H1333V624h7.362Z" transform="translate(-1274.617 -562.706)" fill="#54bfa2" fill-rule="evenodd"/>
    <path id="Path_552" data-name="Path 552" d="M1395.712,571.794H1394V567h1.712Z" transform="translate(-1325.173 -515.465)" fill="#52c3e6" fill-rule="evenodd"/>
    <path id="Path_553" data-name="Path 553" d="M1395.712,612.794H1394V608h1.712Z" transform="translate(-1325.173 -549.446)" fill="#52c3e6" fill-rule="evenodd"/>
    <path id="Path_554" data-name="Path 554" d="M1096.6,577.506H1093V571h3.6Z" transform="translate(-1075.708 -518.781)" fill="#9edbef" fill-rule="evenodd"/>
    <path id="Path_555" data-name="Path 555" d="M1126.6,577.506H1123V571h3.6Z" transform="translate(-1100.571 -518.781)" fill="#9edbef" fill-rule="evenodd"/>
    <path id="Path_556" data-name="Path 556" d="M1156.6,577.506H1153V571h3.6Z" transform="translate(-1125.435 -518.781)" fill="#9edbef" fill-rule="evenodd"/>
    <path id="Path_557" data-name="Path 557" d="M1186.767,577.506H1183V571h3.766Z" transform="translate(-1150.299 -518.781)" fill="#9edbef" fill-rule="evenodd"/>
    <path id="Path_558" data-name="Path 558" d="M1217.6,577.506H1214V571h3.6Z" transform="translate(-1175.991 -518.781)" fill="#9edbef" fill-rule="evenodd"/>
    <path id="Path_559" data-name="Path 559" d="M1247.6,577.506H1244V571h3.6Z" transform="translate(-1200.855 -518.781)" fill="#9edbef" fill-rule="evenodd"/>
    <path id="Path_560" data-name="Path 560" d="M1094.883,541.794H1093V537h1.883Z" transform="translate(-1075.708 -490.602)" fill="#9edbef" fill-rule="evenodd"/>
    <path id="Path_561" data-name="Path 561" d="M1112.883,541.794H1111V537h1.883Z" transform="translate(-1090.625 -490.602)" fill="#9edbef" fill-rule="evenodd"/>
    <path id="Path_562" data-name="Path 562" d="M1130.712,541.794H1129V537h1.712Z" transform="translate(-1105.544 -490.602)" fill="#9edbef" fill-rule="evenodd"/>
    <path id="Path_563" data-name="Path 563" d="M1148.712,541.794H1147V537h1.712Z" transform="translate(-1120.462 -490.602)" fill="#9edbef" fill-rule="evenodd"/>
    <path id="Path_564" data-name="Path 564" d="M1166.712,541.794H1165V537h1.712Z" transform="translate(-1135.38 -490.602)" fill="#9edbef" fill-rule="evenodd"/>
    <path id="Path_565" data-name="Path 565" d="M1184.712,541.794H1183V537h1.712Z" transform="translate(-1150.299 -490.602)" fill="#9edbef" fill-rule="evenodd"/>
    <path id="Path_566" data-name="Path 566" d="M1202.712,541.794H1201V537h1.712Z" transform="translate(-1165.217 -490.602)" fill="#9edbef" fill-rule="evenodd"/>
    <path id="Path_567" data-name="Path 567" d="M1219.883,541.794H1218V537h1.883Z" transform="translate(-1179.306 -490.602)" fill="#9edbef" fill-rule="evenodd"/>
    <path id="Path_568" data-name="Path 568" d="M1237.883,541.794H1236V537h1.883Z" transform="translate(-1194.224 -490.602)" fill="#9edbef" fill-rule="evenodd"/>
    <path id="Path_569" data-name="Path 569" d="M1255.883,541.794H1254V537h1.883Z" transform="translate(-1209.143 -490.602)" fill="#9edbef" fill-rule="evenodd"/>
    <path id="Path_570" data-name="Path 570" d="M1311.856,276.451H1311V272h.856Z" transform="translate(-1256.384 -270.973)" fill="#b6b6b7" fill-rule="evenodd"/>
    <path id="Path_571" data-name="Path 571" d="M1310.055,267.027a1.1,1.1,0,0,1-1.027,1.027.987.987,0,0,1-1.027-1.027.908.908,0,0,1,1.027-1.027A.987.987,0,0,1,1310.055,267.027Z" transform="translate(-1253.897 -266)" fill="#6fcff6" fill-rule="evenodd"/>
    <path id="Path_572" data-name="Path 572" d="M1115.574,658.37H1050V657h65.574Z" transform="translate(-1040.07 -590.056)" fill="#54bfa2" fill-rule="evenodd"/>
    <path id="Path_573" data-name="Path 573" d="M1087.833,507h16.094l2.74,3.767H1069l2.739-3.767Z" transform="translate(-1055.817 -465.738)" fill="#2eaad4" fill-rule="evenodd"/>
  </g>
  <g id="Group_239" data-name="Group 239" transform="translate(73.813 59.291)">
    <path id="Path_574" data-name="Path 574" d="M787.374,421.822H767V372h20.374Z" transform="translate(-747.653 -367.72)" fill="#c9cac9" fill-rule="evenodd"/>
    <path id="Path_575" data-name="Path 575" d="M784.744,364.883H763V363h21.744Z" transform="translate(-744.338 -360.261)" fill="#b6b6b7" fill-rule="evenodd"/>
    <path id="Path_576" data-name="Path 576" d="M777.767,383.6H774V380h3.767Z" transform="translate(-753.455 -374.35)" fill="#e5e6e5" fill-rule="evenodd"/>
    <path id="Path_577" data-name="Path 577" d="M805.6,383.6H802V380h3.6Z" transform="translate(-776.661 -374.35)" fill="#e5e6e5" fill-rule="evenodd"/>
    <path id="Path_578" data-name="Path 578" d="M832.767,383.6H829V380h3.767Z" transform="translate(-799.038 -374.35)" fill="#e5e6e5" fill-rule="evenodd"/>
    <path id="Path_579" data-name="Path 579" d="M860.767,383.6H857V380h3.767Z" transform="translate(-822.244 -374.35)" fill="#e5e6e5" fill-rule="evenodd"/>
    <path id="Path_580" data-name="Path 580" d="M777.767,416.767H774V413h3.767Z" transform="translate(-753.455 -401.7)" fill="#e5e6e5" fill-rule="evenodd"/>
    <path id="Path_581" data-name="Path 581" d="M805.6,416.767H802V413h3.6Z" transform="translate(-776.661 -401.7)" fill="#e5e6e5" fill-rule="evenodd"/>
    <path id="Path_582" data-name="Path 582" d="M832.767,416.767H829V413h3.767Z" transform="translate(-799.038 -401.7)" fill="#e5e6e5" fill-rule="evenodd"/>
    <path id="Path_583" data-name="Path 583" d="M860.767,416.767H857V413h3.767Z" transform="translate(-822.244 -401.7)" fill="#e5e6e5" fill-rule="evenodd"/>
    <path id="Path_584" data-name="Path 584" d="M832.767,450.6H829V447h3.767Z" transform="translate(-799.038 -429.879)" fill="#e5e6e5" fill-rule="evenodd"/>
    <path id="Path_585" data-name="Path 585" d="M860.767,450.6H857V447h3.767Z" transform="translate(-822.244 -429.879)" fill="#e5e6e5" fill-rule="evenodd"/>
    <path id="Path_586" data-name="Path 586" d="M832.767,483.767H829V480h3.767Z" transform="translate(-799.038 -457.229)" fill="#e5e6e5" fill-rule="evenodd"/>
    <path id="Path_587" data-name="Path 587" d="M860.767,483.767H857V480h3.767Z" transform="translate(-822.244 -457.229)" fill="#e5e6e5" fill-rule="evenodd"/>
    <path id="Path_588" data-name="Path 588" d="M832.767,517.767H829V514h3.767Z" transform="translate(-799.038 -485.408)" fill="#e5e6e5" fill-rule="evenodd"/>
    <path id="Path_589" data-name="Path 589" d="M860.767,517.767H857V514h3.767Z" transform="translate(-822.244 -485.408)" fill="#e5e6e5" fill-rule="evenodd"/>
    <path id="Path_590" data-name="Path 590" d="M713.141,469.063H689V429h24.141Z" transform="translate(-683.008 -414.961)" fill="#9edbef" fill-rule="evenodd"/>
    <path id="Path_591" data-name="Path 591" d="M801.763,563.861H773V544h28.763Z" transform="translate(-752.626 -510.271)" fill="#2eaad4" fill-rule="evenodd"/>
    <path id="Path_592" data-name="Path 592" d="M865,531h11.3v2.226H865Z" transform="translate(-828.875 -499.497)" fill="#52c3e6" fill-rule="evenodd"/>
    <path id="Path_593" data-name="Path 593" d="M723.662,419.055H705V417h18.662Z" transform="translate(-696.268 -405.015)" fill="#52c3e6" fill-rule="evenodd"/>
    <path id="Path_594" data-name="Path 594" d="M813.677,350.424A3.34,3.34,0,1,1,810.253,347,3.434,3.434,0,0,1,813.677,350.424Z" transform="translate(-780.805 -347)" fill="#2eaad4" fill-rule="evenodd"/>
    <path id="Path_595" data-name="Path 595" d="M700.821,438.712H695V437h5.821Z" transform="translate(-687.98 -421.591)" fill="#6fcff6" fill-rule="evenodd"/>
    <path id="Path_596" data-name="Path 596" d="M700.821,460.712H695V459h5.821Z" transform="translate(-687.98 -439.824)" fill="#6fcff6" fill-rule="evenodd"/>
    <path id="Path_597" data-name="Path 597" d="M700.821,483.712H695V482h5.821Z" transform="translate(-687.98 -458.886)" fill="#6fcff6" fill-rule="evenodd"/>
    <path id="Path_598" data-name="Path 598" d="M700.821,505.712H695V504h5.821Z" transform="translate(-687.98 -477.12)" fill="#6fcff6" fill-rule="evenodd"/>
    <path id="Path_599" data-name="Path 599" d="M700.821,528.712H695V527h5.821Z" transform="translate(-687.98 -496.182)" fill="#6fcff6" fill-rule="evenodd"/>
    <path id="Path_600" data-name="Path 600" d="M700.821,550.712H695V549h5.821Z" transform="translate(-687.98 -514.415)" fill="#6fcff6" fill-rule="evenodd"/>
    <path id="Path_601" data-name="Path 601" d="M700.821,573.712H695V572h5.821Z" transform="translate(-687.98 -533.478)" fill="#6fcff6" fill-rule="evenodd"/>
    <path id="Path_602" data-name="Path 602" d="M700.821,595.712H695V594h5.821Z" transform="translate(-687.98 -551.711)" fill="#6fcff6" fill-rule="evenodd"/>
    <path id="Path_603" data-name="Path 603" d="M700.821,618.712H695V617h5.821Z" transform="translate(-687.98 -570.773)" fill="#6fcff6" fill-rule="evenodd"/>
    <path id="Path_604" data-name="Path 604" d="M700.821,640.712H695V639h5.821Z" transform="translate(-687.98 -589.006)" fill="#6fcff6" fill-rule="evenodd"/>
    <path id="Path_605" data-name="Path 605" d="M674.911,451.712H672V450h2.911Z" transform="translate(-668.918 -432.365)" fill="#52c3e6" fill-rule="evenodd"/>
    <path id="Path_606" data-name="Path 606" d="M674.911,474.712H672V473h2.911Z" transform="translate(-668.918 -451.427)" fill="#52c3e6" fill-rule="evenodd"/>
    <path id="Path_607" data-name="Path 607" d="M674.911,496.712H672V495h2.911Z" transform="translate(-668.918 -469.661)" fill="#52c3e6" fill-rule="evenodd"/>
    <path id="Path_608" data-name="Path 608" d="M674.911,519.712H672V518h2.911Z" transform="translate(-668.918 -488.723)" fill="#52c3e6" fill-rule="evenodd"/>
    <path id="Path_609" data-name="Path 609" d="M674.911,541.712H672V540h2.911Z" transform="translate(-668.918 -506.956)" fill="#52c3e6" fill-rule="evenodd"/>
    <path id="Path_610" data-name="Path 610" d="M674.911,564.712H672V563h2.911Z" transform="translate(-668.918 -526.018)" fill="#52c3e6" fill-rule="evenodd"/>
    <path id="Path_611" data-name="Path 611" d="M674.911,586.712H672V585h2.911Z" transform="translate(-668.918 -544.252)" fill="#52c3e6" fill-rule="evenodd"/>
    <path id="Path_612" data-name="Path 612" d="M674.911,609.712H672V608h2.911Z" transform="translate(-668.918 -563.314)" fill="#52c3e6" fill-rule="evenodd"/>
    <path id="Path_613" data-name="Path 613" d="M674.911,631.712H672V630h2.911Z" transform="translate(-668.918 -581.547)" fill="#52c3e6" fill-rule="evenodd"/>
    <path id="Path_614" data-name="Path 614" d="M793.821,438.712H788V437h5.821Z" transform="translate(-765.058 -421.591)" fill="#6fcff6" fill-rule="evenodd"/>
    <path id="Path_615" data-name="Path 615" d="M793.821,460.712H788V459h5.821Z" transform="translate(-765.058 -439.824)" fill="#6fcff6" fill-rule="evenodd"/>
    <path id="Path_616" data-name="Path 616" d="M793.821,483.712H788V482h5.821Z" transform="translate(-765.058 -458.886)" fill="#6fcff6" fill-rule="evenodd"/>
    <path id="Path_617" data-name="Path 617" d="M793.821,505.712H788V504h5.821Z" transform="translate(-765.058 -477.12)" fill="#6fcff6" fill-rule="evenodd"/>
    <path id="Path_618" data-name="Path 618" d="M793.821,528.712H788V527h5.821Z" transform="translate(-765.058 -496.182)" fill="#6fcff6" fill-rule="evenodd"/>
    <path id="Path_619" data-name="Path 619" d="M737.37,438.767H736V435h1.37Z" transform="translate(-721.961 -419.933)" fill="#52c3e6" fill-rule="evenodd"/>
    <path id="Path_620" data-name="Path 620" d="M750.37,438.767H749V435h1.37Z" transform="translate(-732.735 -419.933)" fill="#52c3e6" fill-rule="evenodd"/>
    <path id="Path_621" data-name="Path 621" d="M762.541,438.767H761V435h1.541Z" transform="translate(-742.68 -419.933)" fill="#52c3e6" fill-rule="evenodd"/>
    <path id="Path_622" data-name="Path 622" d="M775.37,438.767H774V435h1.37Z" transform="translate(-753.455 -419.933)" fill="#52c3e6" fill-rule="evenodd"/>
    <path id="Path_623" data-name="Path 623" d="M737.37,466.767H736V463h1.37Z" transform="translate(-721.961 -443.14)" fill="#52c3e6" fill-rule="evenodd"/>
    <path id="Path_624" data-name="Path 624" d="M750.37,466.767H749V463h1.37Z" transform="translate(-732.735 -443.14)" fill="#52c3e6" fill-rule="evenodd"/>
    <path id="Path_625" data-name="Path 625" d="M762.541,466.767H761V463h1.541Z" transform="translate(-742.68 -443.14)" fill="#52c3e6" fill-rule="evenodd"/>
    <path id="Path_626" data-name="Path 626" d="M775.37,466.767H774V463h1.37Z" transform="translate(-753.455 -443.14)" fill="#52c3e6" fill-rule="evenodd"/>
    <path id="Path_627" data-name="Path 627" d="M737.37,495.767H736V492h1.37Z" transform="translate(-721.961 -467.174)" fill="#52c3e6" fill-rule="evenodd"/>
    <path id="Path_628" data-name="Path 628" d="M750.37,495.767H749V492h1.37Z" transform="translate(-732.735 -467.174)" fill="#52c3e6" fill-rule="evenodd"/>
    <path id="Path_629" data-name="Path 629" d="M762.541,495.767H761V492h1.541Z" transform="translate(-742.68 -467.174)" fill="#52c3e6" fill-rule="evenodd"/>
    <path id="Path_630" data-name="Path 630" d="M775.37,495.767H774V492h1.37Z" transform="translate(-753.455 -467.174)" fill="#52c3e6" fill-rule="evenodd"/>
    <path id="Path_631" data-name="Path 631" d="M737.37,524.6H736V521h1.37Z" transform="translate(-721.961 -491.209)" fill="#52c3e6" fill-rule="evenodd"/>
    <path id="Path_632" data-name="Path 632" d="M750.37,524.6H749V521h1.37Z" transform="translate(-732.735 -491.209)" fill="#52c3e6" fill-rule="evenodd"/>
    <path id="Path_633" data-name="Path 633" d="M762.541,524.6H761V521h1.541Z" transform="translate(-742.68 -491.209)" fill="#52c3e6" fill-rule="evenodd"/>
    <path id="Path_634" data-name="Path 634" d="M775.37,524.6H774V521h1.37Z" transform="translate(-753.455 -491.209)" fill="#52c3e6" fill-rule="evenodd"/>
    <path id="Path_635" data-name="Path 635" d="M737.37,552.767H736V549h1.37Z" transform="translate(-721.961 -514.415)" fill="#52c3e6" fill-rule="evenodd"/>
    <path id="Path_636" data-name="Path 636" d="M750.37,552.767H749V549h1.37Z" transform="translate(-732.735 -514.415)" fill="#52c3e6" fill-rule="evenodd"/>
    <path id="Path_637" data-name="Path 637" d="M762.541,552.767H761V549h1.541Z" transform="translate(-742.68 -514.415)" fill="#52c3e6" fill-rule="evenodd"/>
    <path id="Path_638" data-name="Path 638" d="M737.37,581.767H736V578h1.37Z" transform="translate(-721.961 -538.45)" fill="#52c3e6" fill-rule="evenodd"/>
    <path id="Path_639" data-name="Path 639" d="M750.37,581.767H749V578h1.37Z" transform="translate(-732.735 -538.45)" fill="#52c3e6" fill-rule="evenodd"/>
    <path id="Path_640" data-name="Path 640" d="M762.541,581.767H761V578h1.541Z" transform="translate(-742.68 -538.45)" fill="#52c3e6" fill-rule="evenodd"/>
    <path id="Path_641" data-name="Path 641" d="M737.37,610.6H736V607h1.37Z" transform="translate(-721.961 -562.485)" fill="#52c3e6" fill-rule="evenodd"/>
    <path id="Path_642" data-name="Path 642" d="M750.37,610.6H749V607h1.37Z" transform="translate(-732.735 -562.485)" fill="#52c3e6" fill-rule="evenodd"/>
    <path id="Path_643" data-name="Path 643" d="M762.541,610.6H761V607h1.541Z" transform="translate(-742.68 -562.485)" fill="#52c3e6" fill-rule="evenodd"/>
    <path id="Path_644" data-name="Path 644" d="M737.37,638.767H736V635h1.37Z" transform="translate(-721.961 -585.691)" fill="#52c3e6" fill-rule="evenodd"/>
    <path id="Path_645" data-name="Path 645" d="M750.37,638.767H749V635h1.37Z" transform="translate(-732.735 -585.691)" fill="#52c3e6" fill-rule="evenodd"/>
    <path id="Path_646" data-name="Path 646" d="M762.541,638.767H761V635h1.541Z" transform="translate(-742.68 -585.691)" fill="#52c3e6" fill-rule="evenodd"/>
    <path id="Path_647" data-name="Path 647" d="M793.37,551.514h-.342v.514h.171v.342h-.171v.514h.342v-.514h.685v.856H792v-.343h.171v-1.37H792V551h2.055v.856h-.685Z" transform="translate(-768.373 -516.073)" fill="#fefefe" fill-rule="evenodd"/>
    <path id="Path_648" data-name="Path 648" d="M804,551h1.37l.342,1.027.342-1.027h1.37v.514h-.171v1.37h.171v.343h-1.2v-.343h.171v-1.2l-.514,1.541h-.342l-.685-1.541v1.2h.171v.343H804v-.343h.171v-1.37H804Z" transform="translate(-778.318 -516.073)" fill="#fefefe" fill-rule="evenodd"/>
    <path id="Path_649" data-name="Path 649" d="M825.37,551.514h-.343v.514h.343v.342h-.343v.514h.343v-.514h.685v.856H824v-.343h.171v-1.37H824V551h2.055v.856h-.685Z" transform="translate(-794.894 -516.073)" fill="#fefefe" fill-rule="evenodd"/>
    <path id="Path_650" data-name="Path 650" d="M838.027,552.027h.171v-.514h-.342v.514Zm-.171.856h.171v.343H837v-.343h.171v-1.37H837V551h1.2c.171,0,.343,0,.343.171h.342a.168.168,0,0,0,.171.171v.342c0,.171,0,.171-.171.342,0,.171,0,.171-.171.171h0a.368.368,0,0,1,.342.342v.342h.171v.343H838.2v-.685h0v-.171h-.342Z" transform="translate(-805.668 -516.073)" fill="#fefefe" fill-rule="evenodd"/>
    <path id="Path_651" data-name="Path 651" d="M851.2,552.2h.856v.342h0v.514l-.171.171h-1.2a.6.6,0,0,1-.342-.171l-.342-.342v-1.027c.171-.171.171-.342.342-.342,0-.171.171-.171.342-.342h1.027c0,.171,0,.171.171.171h.171v.685H851.2v-.342h-.342v1.2a.168.168,0,0,1,.171.171.168.168,0,0,0,.171-.171v-.171h0Z" transform="translate(-816.443 -516.073)" fill="#fefefe" fill-rule="evenodd"/>
    <path id="Path_652" data-name="Path 652" d="M864.37,551.514h-.343v.514h.171v.342h-.171v.514h.343v-.514h.514v.856H863v-.343h.171v-1.37H863V551h1.883v.856h-.514Z" transform="translate(-827.217 -516.073)" fill="#fefefe" fill-rule="evenodd"/>
    <path id="Path_653" data-name="Path 653" d="M876.712,551h1.027v.514h-.171v1.712h-.856l-.856-1.2v.856h.171v.343H875v-.343h.171v-1.37H875V551h1.027l.856,1.2v-.685h-.171Z" transform="translate(-837.162 -516.073)" fill="#fefefe" fill-rule="evenodd"/>
    <path id="Path_654" data-name="Path 654" d="M892.2,552.37h.685v.685a.168.168,0,0,1-.171.171h-1.2a.6.6,0,0,0-.343-.171c0-.171-.171-.171-.171-.342v-1.027a.6.6,0,0,1,.171-.342c.171-.171.343-.171.343-.342h1.027l.171.171h.171v.685H892.2v-.342h-.343v1.2l.171.171.171-.171v-.342Z" transform="translate(-850.423 -516.073)" fill="#fefefe" fill-rule="evenodd"/>
    <path id="Path_655" data-name="Path 655" d="M904.027,551.514h0l.171.514h0l.171-.514H904.2V551h.856v.514h0l-.685,1.027v.342h.171v.343h-1.027v-.343h.171v-.342L903,551.514h0V551h1.027Z" transform="translate(-860.368 -516.073)" fill="#fefefe" fill-rule="evenodd"/>
    <path id="Path_656" data-name="Path 656" d="M849.767,634.821H846V629h3.767Z" transform="translate(-813.127 -580.719)" fill="#52c3e6" fill-rule="evenodd"/>
    <path id="Path_657" data-name="Path 657" d="M705.706,661.2H654V660h51.706Z" transform="translate(-654 -606.411)" fill="#2eaad4" fill-rule="evenodd"/>
    <path id="Path_658" data-name="Path 658" d="M781.911,627.136H779V622h2.911Z" transform="translate(-757.599 -574.917)" fill="#9edbef" fill-rule="evenodd"/>
    <path id="Path_659" data-name="Path 659" d="M803.911,627.136H801V622h2.911Z" transform="translate(-775.832 -574.917)" fill="#9edbef" fill-rule="evenodd"/>
    <path id="Path_660" data-name="Path 660" d="M825.911,627.136H823V622h2.911Z" transform="translate(-794.065 -574.917)" fill="#9edbef" fill-rule="evenodd"/>
    <path id="Path_661" data-name="Path 661" d="M876.911,627.136H874V622h2.911Z" transform="translate(-836.334 -574.917)" fill="#9edbef" fill-rule="evenodd"/>
    <path id="Path_662" data-name="Path 662" d="M898.911,627.136H896V622h2.911Z" transform="translate(-854.567 -574.917)" fill="#9edbef" fill-rule="evenodd"/>
    <path id="Path_663" data-name="Path 663" d="M920.911,627.136H918V622h2.911Z" transform="translate(-872.8 -574.917)" fill="#9edbef" fill-rule="evenodd"/>
    <path id="Path_664" data-name="Path 664" d="M786.533,573.712H779V572h7.533Z" transform="translate(-757.599 -533.478)" fill="#9edbef" fill-rule="evenodd"/>
    <path id="Path_665" data-name="Path 665" d="M842.533,573.712H835V572h7.533Z" transform="translate(-804.011 -533.478)" fill="#9edbef" fill-rule="evenodd"/>
    <path id="Path_666" data-name="Path 666" d="M898.533,573.712H891V572h7.533Z" transform="translate(-850.423 -533.478)" fill="#9edbef" fill-rule="evenodd"/>
    <path id="Path_667" data-name="Path 667" d="M786.533,589.712H779V588h7.533Z" transform="translate(-757.599 -546.738)" fill="#9edbef" fill-rule="evenodd"/>
    <path id="Path_668" data-name="Path 668" d="M842.533,589.712H835V588h7.533Z" transform="translate(-804.011 -546.738)" fill="#9edbef" fill-rule="evenodd"/>
    <path id="Path_669" data-name="Path 669" d="M898.533,589.712H891V588h7.533Z" transform="translate(-850.423 -546.738)" fill="#9edbef" fill-rule="evenodd"/>
    <path id="Path_670" data-name="Path 670" d="M786.533,605.712H779V604h7.533Z" transform="translate(-757.599 -559.999)" fill="#9edbef" fill-rule="evenodd"/>
    <path id="Path_671" data-name="Path 671" d="M842.533,605.712H835V604h7.533Z" transform="translate(-804.011 -559.999)" fill="#9edbef" fill-rule="evenodd"/>
    <path id="Path_672" data-name="Path 672" d="M898.533,605.712H891V604h7.533Z" transform="translate(-850.423 -559.999)" fill="#9edbef" fill-rule="evenodd"/>
  </g>
  <g id="Group_240" data-name="Group 240" transform="translate(28.44 74.68)">
    <path id="Path_673" data-name="Path 673" d="M588,607l1.883,1.712v8.561H588Z" transform="translate(-553.758 -577.894)" fill="#e5e6e5" fill-rule="evenodd"/>
    <path id="Path_674" data-name="Path 674" d="M466.615,557.082H456V554h10.615Z" transform="translate(-444.358 -533.968)" fill="#e5e6e5" fill-rule="evenodd"/>
    <path id="Path_675" data-name="Path 675" d="M412.074,523.448H403V494h9.074Z" transform="translate(-400.432 -484.241)" fill="#2eaad4" fill-rule="evenodd"/>
    <path id="Path_676" data-name="Path 676" d="M413.876,529.37H406V528h7.876Z" transform="translate(-402.918 -512.42)" fill="#6fcff6" fill-rule="evenodd"/>
    <path id="Path_677" data-name="Path 677" d="M413.876,543.37H406V542h7.876Z" transform="translate(-402.918 -524.023)" fill="#6fcff6" fill-rule="evenodd"/>
    <path id="Path_678" data-name="Path 678" d="M413.876,557.37H406V556h7.876Z" transform="translate(-402.918 -535.626)" fill="#6fcff6" fill-rule="evenodd"/>
    <path id="Path_679" data-name="Path 679" d="M413.876,571.37H406V570h7.876Z" transform="translate(-402.918 -547.229)" fill="#6fcff6" fill-rule="evenodd"/>
    <path id="Path_680" data-name="Path 680" d="M413.876,585.37H406V584h7.876Z" transform="translate(-402.918 -558.832)" fill="#6fcff6" fill-rule="evenodd"/>
    <path id="Path_681" data-name="Path 681" d="M413.876,599.37H406V598h7.876Z" transform="translate(-402.918 -570.435)" fill="#6fcff6" fill-rule="evenodd"/>
    <path id="Path_682" data-name="Path 682" d="M413.876,613.37H406V612h7.876Z" transform="translate(-402.918 -582.038)" fill="#6fcff6" fill-rule="evenodd"/>
    <path id="Path_683" data-name="Path 683" d="M413.876,627.37H406V626h7.876Z" transform="translate(-402.918 -593.641)" fill="#6fcff6" fill-rule="evenodd"/>
    <path id="Path_684" data-name="Path 684" d="M408.055,640.767H406V637h2.055Z" transform="translate(-402.918 -602.758)" fill="#6fcff6" fill-rule="evenodd"/>
    <path id="Path_685" data-name="Path 685" d="M425.054,640.767H423V637h2.055Z" transform="translate(-417.008 -602.758)" fill="#6fcff6" fill-rule="evenodd"/>
    <path id="Path_686" data-name="Path 686" d="M419.794,475.767H415V472h4.794Z" transform="translate(-410.377 -466.008)" fill="#2eaad4" fill-rule="evenodd"/>
    <path id="Path_687" data-name="Path 687" d="M416.506,470.856H410V470h6.506Z" transform="translate(-406.233 -464.35)" fill="#239cc9" fill-rule="evenodd"/>
    <path id="Path_688" data-name="Path 688" d="M428.342,441.965H428V437h.342Z" transform="translate(-421.152 -437)" fill="#239cc9" fill-rule="evenodd"/>
    <path id="Path_689" data-name="Path 689" d="M420.451,465.856H416V465h4.451Z" transform="translate(-411.206 -460.206)" fill="#239cc9" fill-rule="evenodd"/>
    <path id="Path_690" data-name="Path 690" d="M529.985,558.257H518V536h11.985Z" transform="translate(-495.743 -519.05)" fill="#2eaad4" fill-rule="evenodd"/>
    <path id="Path_691" data-name="Path 691" d="M452.635,610.471H435V599h17.635Z" transform="translate(-426.953 -571.264)" fill="#e5e6e5" fill-rule="evenodd"/>
    <path id="Path_692" data-name="Path 692" d="M524.027,544.739H523V542h1.027Z" transform="translate(-499.887 -524.023)" fill="#fefefe" fill-rule="evenodd"/>
    <path id="Path_693" data-name="Path 693" d="M533.027,544.739H532V542h1.027Z" transform="translate(-507.345 -524.023)" fill="#fefefe" fill-rule="evenodd"/>
    <path id="Path_694" data-name="Path 694" d="M542.027,544.739H541V542h1.027Z" transform="translate(-514.805 -524.023)" fill="#fefefe" fill-rule="evenodd"/>
    <path id="Path_695" data-name="Path 695" d="M551.027,544.739H550V542h1.027Z" transform="translate(-522.264 -524.023)" fill="#fefefe" fill-rule="evenodd"/>
    <path id="Path_696" data-name="Path 696" d="M560.027,544.739H559V542h1.027Z" transform="translate(-529.723 -524.023)" fill="#fefefe" fill-rule="evenodd"/>
    <path id="Path_697" data-name="Path 697" d="M569.027,544.739H568V542h1.027Z" transform="translate(-537.182 -524.023)" fill="#fefefe" fill-rule="evenodd"/>
    <path id="Path_698" data-name="Path 698" d="M578.027,544.739H577V542h1.027Z" transform="translate(-544.641 -524.023)" fill="#fefefe" fill-rule="evenodd"/>
    <path id="Path_699" data-name="Path 699" d="M524.027,564.739H523V562h1.027Z" transform="translate(-499.887 -540.599)" fill="#fefefe" fill-rule="evenodd"/>
    <path id="Path_700" data-name="Path 700" d="M533.027,564.739H532V562h1.027Z" transform="translate(-507.345 -540.599)" fill="#fefefe" fill-rule="evenodd"/>
    <path id="Path_701" data-name="Path 701" d="M542.027,564.739H541V562h1.027Z" transform="translate(-514.805 -540.599)" fill="#fefefe" fill-rule="evenodd"/>
    <path id="Path_702" data-name="Path 702" d="M551.027,564.739H550V562h1.027Z" transform="translate(-522.264 -540.599)" fill="#fefefe" fill-rule="evenodd"/>
    <path id="Path_703" data-name="Path 703" d="M560.027,564.739H559V562h1.027Z" transform="translate(-529.723 -540.599)" fill="#fefefe" fill-rule="evenodd"/>
    <path id="Path_704" data-name="Path 704" d="M569.027,564.739H568V562h1.027Z" transform="translate(-537.182 -540.599)" fill="#fefefe" fill-rule="evenodd"/>
    <path id="Path_705" data-name="Path 705" d="M578.027,564.739H577V562h1.027Z" transform="translate(-544.641 -540.599)" fill="#fefefe" fill-rule="evenodd"/>
    <path id="Path_706" data-name="Path 706" d="M524.027,584.739H523V582h1.027Z" transform="translate(-499.887 -557.174)" fill="#fefefe" fill-rule="evenodd"/>
    <path id="Path_707" data-name="Path 707" d="M533.027,584.739H532V582h1.027Z" transform="translate(-507.345 -557.174)" fill="#fefefe" fill-rule="evenodd"/>
    <path id="Path_708" data-name="Path 708" d="M542.027,584.739H541V582h1.027Z" transform="translate(-514.805 -557.174)" fill="#fefefe" fill-rule="evenodd"/>
    <path id="Path_709" data-name="Path 709" d="M551.027,584.739H550V582h1.027Z" transform="translate(-522.264 -557.174)" fill="#fefefe" fill-rule="evenodd"/>
    <path id="Path_710" data-name="Path 710" d="M560.027,584.739H559V582h1.027Z" transform="translate(-529.723 -557.174)" fill="#fefefe" fill-rule="evenodd"/>
    <path id="Path_711" data-name="Path 711" d="M569.027,584.739H568V582h1.027Z" transform="translate(-537.182 -557.174)" fill="#fefefe" fill-rule="evenodd"/>
    <path id="Path_712" data-name="Path 712" d="M578.027,584.739H577V582h1.027Z" transform="translate(-544.641 -557.174)" fill="#fefefe" fill-rule="evenodd"/>
    <path id="Path_713" data-name="Path 713" d="M542.027,604.739H541V602h1.027Z" transform="translate(-514.805 -573.75)" fill="#fefefe" fill-rule="evenodd"/>
    <path id="Path_714" data-name="Path 714" d="M551.027,604.739H550V602h1.027Z" transform="translate(-522.264 -573.75)" fill="#fefefe" fill-rule="evenodd"/>
    <path id="Path_715" data-name="Path 715" d="M560.027,604.739H559V602h1.027Z" transform="translate(-529.723 -573.75)" fill="#fefefe" fill-rule="evenodd"/>
    <path id="Path_716" data-name="Path 716" d="M569.027,604.739H568V602h1.027Z" transform="translate(-537.182 -573.75)" fill="#fefefe" fill-rule="evenodd"/>
    <path id="Path_717" data-name="Path 717" d="M578.027,604.739H577V602h1.027Z" transform="translate(-544.641 -573.75)" fill="#fefefe" fill-rule="evenodd"/>
    <path id="Path_718" data-name="Path 718" d="M542.027,624.739H541V622h1.027Z" transform="translate(-514.805 -590.326)" fill="#fefefe" fill-rule="evenodd"/>
    <path id="Path_719" data-name="Path 719" d="M551.027,624.739H550V622h1.027Z" transform="translate(-522.264 -590.326)" fill="#fefefe" fill-rule="evenodd"/>
    <path id="Path_720" data-name="Path 720" d="M560.027,624.739H559V622h1.027Z" transform="translate(-529.723 -590.326)" fill="#fefefe" fill-rule="evenodd"/>
    <path id="Path_721" data-name="Path 721" d="M569.027,624.739H568V622h1.027Z" transform="translate(-537.182 -590.326)" fill="#fefefe" fill-rule="evenodd"/>
    <path id="Path_722" data-name="Path 722" d="M578.027,624.739H577V622h1.027Z" transform="translate(-544.641 -590.326)" fill="#fefefe" fill-rule="evenodd"/>
    <path id="Path_723" data-name="Path 723" d="M542.027,644.739H541V642h1.027Z" transform="translate(-514.805 -606.902)" fill="#fefefe" fill-rule="evenodd"/>
    <path id="Path_724" data-name="Path 724" d="M551.027,644.739H550V642h1.027Z" transform="translate(-522.264 -606.902)" fill="#fefefe" fill-rule="evenodd"/>
    <path id="Path_725" data-name="Path 725" d="M560.027,644.739H559V642h1.027Z" transform="translate(-529.723 -606.902)" fill="#fefefe" fill-rule="evenodd"/>
    <path id="Path_726" data-name="Path 726" d="M569.027,644.739H568V642h1.027Z" transform="translate(-537.182 -606.902)" fill="#fefefe" fill-rule="evenodd"/>
    <path id="Path_727" data-name="Path 727" d="M578.027,644.739H577V642h1.027Z" transform="translate(-544.641 -606.902)" fill="#fefefe" fill-rule="evenodd"/>
    <path id="Path_728" data-name="Path 728" d="M524.055,529.37H522V528h2.055Z" transform="translate(-499.058 -512.42)" fill="#239cc9" fill-rule="evenodd"/>
    <path id="Path_729" data-name="Path 729" d="M549.055,529.37H547V528h2.055Z" transform="translate(-519.777 -512.42)" fill="#239cc9" fill-rule="evenodd"/>
    <path id="Path_730" data-name="Path 730" d="M574.226,529.37H572V528h2.226Z" transform="translate(-540.497 -512.42)" fill="#239cc9" fill-rule="evenodd"/>
    <path id="Path_731" data-name="Path 731" d="M450.176,595.027H431V594h19.176Z" transform="translate(-423.638 -567.12)" fill="#239cc9" fill-rule="evenodd"/>
    <path id="Path_732" data-name="Path 732" d="M476.965,588.568a2.341,2.341,0,0,1-2.4,2.4,2.488,2.488,0,0,1-2.568-2.4A2.633,2.633,0,0,1,474.568,586,2.488,2.488,0,0,1,476.965,588.568Z" transform="translate(-457.618 -560.49)" fill="#2eaad4" fill-rule="evenodd"/>
    <path id="Path_733" data-name="Path 733" d="M407.027,503.28H406V499h1.027Z" transform="translate(-402.918 -488.385)" fill="#6fcff6" fill-rule="evenodd"/>
    <path id="Path_734" data-name="Path 734" d="M415.027,503.28H414V499h1.027Z" transform="translate(-409.549 -488.385)" fill="#6fcff6" fill-rule="evenodd"/>
    <path id="Path_735" data-name="Path 735" d="M423.027,503.28H422V499h1.027Z" transform="translate(-416.179 -488.385)" fill="#6fcff6" fill-rule="evenodd"/>
    <path id="Path_736" data-name="Path 736" d="M431.027,503.28H430V499h1.027Z" transform="translate(-422.809 -488.385)" fill="#6fcff6" fill-rule="evenodd"/>
    <path id="Path_737" data-name="Path 737" d="M439.027,503.28H438V499h1.027Z" transform="translate(-429.439 -488.385)" fill="#6fcff6" fill-rule="evenodd"/>
    <path id="Path_738" data-name="Path 738" d="M447.027,503.28H446V499h1.027Z" transform="translate(-436.07 -488.385)" fill="#6fcff6" fill-rule="evenodd"/>
    <path id="Path_739" data-name="Path 739" d="M442.055,640.767H440V637h2.055Z" transform="translate(-431.097 -602.758)" fill="#c9cac9" fill-rule="evenodd"/>
    <path id="Path_740" data-name="Path 740" d="M461.055,640.767H459V637h2.055Z" transform="translate(-446.844 -602.758)" fill="#c9cac9" fill-rule="evenodd"/>
    <path id="Path_741" data-name="Path 741" d="M505.055,640.767H503V637h2.055Z" transform="translate(-483.311 -602.758)" fill="#c9cac9" fill-rule="evenodd"/>
    <path id="Path_742" data-name="Path 742" d="M524.055,640.767H522V637h2.055Z" transform="translate(-499.058 -602.758)" fill="#c9cac9" fill-rule="evenodd"/>
    <path id="Path_743" data-name="Path 743" d="M529.027,609.739H528V607h1.027Z" transform="translate(-504.03 -577.894)" fill="#c9cac9" fill-rule="evenodd"/>
    <path id="Path_744" data-name="Path 744" d="M516.027,609.739H515V607h1.027Z" transform="translate(-493.256 -577.894)" fill="#c9cac9" fill-rule="evenodd"/>
    <path id="Path_745" data-name="Path 745" d="M504.027,609.739H503V607h1.027Z" transform="translate(-483.311 -577.894)" fill="#c9cac9" fill-rule="evenodd"/>
    <path id="Path_746" data-name="Path 746" d="M466.027,609.739H465V607h1.027Z" transform="translate(-451.817 -577.894)" fill="#c9cac9" fill-rule="evenodd"/>
    <path id="Path_747" data-name="Path 747" d="M453.027,609.739H452V607h1.027Z" transform="translate(-441.043 -577.894)" fill="#c9cac9" fill-rule="evenodd"/>
    <path id="Path_748" data-name="Path 748" d="M441.027,609.739H440V607h1.027Z" transform="translate(-431.097 -577.894)" fill="#c9cac9" fill-rule="evenodd"/>
    <path id="Path_749" data-name="Path 749" d="M447.02,627.37H440V626h7.02Z" transform="translate(-431.097 -593.641)" fill="#c9cac9" fill-rule="evenodd"/>
    <path id="Path_750" data-name="Path 750" d="M500.02,627.37H493V626h7.02Z" transform="translate(-475.023 -593.641)" fill="#c9cac9" fill-rule="evenodd"/>
    <path id="Path_751" data-name="Path 751" d="M483.4,642.136H481V637h2.4Z" transform="translate(-465.077 -602.758)" fill="#239cc9" fill-rule="evenodd"/>
    <path id="Path_752" data-name="Path 752" d="M425.838,663.856H388V663h37.838Z" transform="translate(-388 -624.306)" fill="#239cc9" fill-rule="evenodd"/>
  </g>
  <path id="Path_753" data-name="Path 753" d="M477.883,590a1.883,1.883,0,1,0,0,3.767,1.944,1.944,0,0,0,1.37-.514c-.342.171-.514.343-.856.343a1.691,1.691,0,0,1-1.37-1.712,1.567,1.567,0,0,1,1.37-1.712,1.543,1.543,0,0,1,.856.171A3.225,3.225,0,0,0,477.883,590Z" transform="translate(-432.569 -489.143)" fill="#fff" fill-rule="evenodd"/>
  <g id="Group_245" data-name="Group 245" transform="translate(0 0)">
    <path id="Clothes-Back" d="M839.723,484.685l-3.6-.685c-5.308,20.374-27.223,21.059-28.935,28.764-1.37,6.163,5.992,9.759,11.471,7.7C822.26,519.27,840.408,508.654,839.723,484.685Z" transform="translate(-707.063 -401.288)" fill="#004747" fill-rule="evenodd"/>
    <path id="Path_754" data-name="Path 754" d="M826.861,403.119a12.242,12.242,0,0,0-3.767-7.7c-6.849-5.479-13.7,4.794-12.156,9.588,1.712,4.623,10.1,12.156,12.67,10.444,1.2-.685,2.4-3.253,2.911-6.164l7.533,9.074,6.677-7.191Z" transform="translate(-710.122 -326.529)" fill="#ffc5cb" fill-rule="evenodd"/>
    <path id="Hair" d="M787.621,400.777c1.541-.514,3.082-.171,5.307.171,0-.342.171-.514.514-.856a2.426,2.426,0,0,1,3.424,0,1.985,1.985,0,0,1,.685,1.712c1.027,0,2.055.171,3.253.171a8.279,8.279,0,0,0-6.677-8.9c-4.451-2.568-7.7.171-10.273,3.253-2.226,2.739-6.506,2.4-5.136,5.992C780.773,404.886,784.026,405.571,787.621,400.777Z" transform="translate(-683.359 -325.034)" fill-rule="evenodd"/>
    <g id="Group_241" data-name="Group 241" transform="translate(150.329 104.787)">
      <path id="Leg" d="M1116.9,614l13.183,52.9,13.868,42.632-4.281,3.082-37.667-88Z" transform="translate(-1102 -614)" fill="#ffc5cb" fill-rule="evenodd"/>
      <path id="shoe" d="M1247.942,1162.226a12.543,12.543,0,0,1,.685,2.739,13.672,13.672,0,0,1-.343,3.253c-.685,0-8.389.171-22.942.685-.685-2.054-.342-3.082,1.027-3.253q1.8-.257,3.082-.514l10.615-5.136c.171,0,.514,0,.514.171h0l.685,1.712a7.775,7.775,0,0,0,3.082.685,5.73,5.73,0,0,0,2.4-.685h0c.343-.343.856-.171,1.027.342Z" transform="translate(-1203.941 -1066.519)" fill="#004747" fill-rule="evenodd"/>
    </g>
    <path id="Pant" d="M1131.768,712.037l-12.841,5.65L1084,636.533,1108.483,629Z" transform="translate(-936.753 -521.645)" fill="#5e5e5e" fill-rule="evenodd"/>
    <g id="Group_243" data-name="Group 243">
      <g id="Group_242" data-name="Group 242">
        <path id="Path_755" data-name="Path 755" d="M669.879,472.57c-4.451,3.6,3.253,19.861,16.779,36.3,13.7,16.436,53.076,62.834,61.465,56.157s-32.016-52.733-45.713-69.169S674.159,468.975,669.879,472.57Z" transform="translate(-592.13 -391.055)" fill="#00f3bb" fill-rule="evenodd"/>
        <path id="Path_756" data-name="Path 756" d="M670.035,472.46c-2.4,2.055-1.2,7.876,2.739,15.58a65.755,65.755,0,0,0,12.156-9.93C678.082,472.8,672.432,470.405,670.035,472.46Z" transform="translate(-592.286 -390.944)" fill="#004747" fill-rule="evenodd"/>
        <path id="Path_757" data-name="Path 757" d="M240.057,11.551a50.277,50.277,0,1,0,70.881,6.506A50.262,50.262,0,0,0,240.057,11.551Zm7.533,8.9a38.6,38.6,0,1,0,54.274,5.136A38.775,38.775,0,0,0,247.59,20.454Z" transform="translate(-221.889 0.111)" fill="#00f3bb" fill-rule="evenodd"/>
      </g>
      <path id="Path_759" data-name="Path 759" d="M578,101c14.724,7.7,12.327,30.476,19.176,37.153,6.506,6.335,8.047-1.712,6.506-8.218C601.627,120.518,595.292,106.992,578,101Z" transform="translate(-517.03 -83.689)" fill="rgba(255,255,255,0.69)" fill-rule="evenodd"/>
    </g>
    <g id="Group_244" data-name="Group 244" transform="translate(121.737 106.156)">
      <path id="Leg_0" d="M1028.786,665.067c-13.354,11.814-29.448,29.791-29.962,30.989-.342.685,0,15.409.856,44.344l-5.308-.171q-8.475-45.456-7.191-48.8c1.2-3.424,18.833-26.709,28.592-41.433Z" transform="translate(-978.108 -645.206)" fill="#ffc5cb" fill-rule="evenodd"/>
      <path id="shoe_1" d="M957.942,1163.883a7.717,7.717,0,0,1,.685,2.739,12.3,12.3,0,0,1-.342,3.253c-.856,0-8.389.171-22.942.342-.685-2.054-.342-3.082,1.027-3.253,1.2-.171,2.4-.343,3.082-.514l10.786-4.794c.171-.171.342,0,.514.171h0l.685,1.712a7.683,7.683,0,0,0,2.911.685,7.059,7.059,0,0,0,2.568-.685h0a.823.823,0,0,1,1.027.343Z" transform="translate(-935 -1069.203)" fill="#004747" fill-rule="evenodd"/>
      <path id="Pant_2" d="M986.121,709.146l-12.67.171L969,662.063c2.4-5.992,12.67-18.32,30.647-36.81L1011.8,622c29.448,25.339-12.5,39.892-20.888,47.6C990.4,670.624,988.861,683.807,986.121,709.146Z" transform="translate(-963.179 -622)" fill="#8d8d8d" fill-rule="evenodd"/>
    </g>
    <path id="Clothes-Front" d="M903.07,462.936c19.861,17.806,14.382,33.9,24.483,38.694,8.561,3.938,34.242-9.759,30.989-19.176-1.2-3.767-3.767-7.191-7.02-10.444-12.156-9.759-25.339-17.635-40.92-21.915l-1.712-1.541a1.866,1.866,0,0,0-2.4.342h0l-7.191,8.9a1.653,1.653,0,0,0,.342,2.4h0Z" transform="translate(-783.388 -371.668)" fill="#004747" fill-rule="evenodd"/>
    <path id="Path_760" data-name="Path 760" d="M807.067,673.711c-1.027-2.055-4.28.685-6.506.342-1.712-.342-2.911-2.568-4.623-2.226-1.2.171-.514,2.226-1.027,3.253-.856,1.2-2.911,1.883-2.911,3.424.171,3.253,2.226,6.164,5.308,6.164,2.568,0,4.109-2.055,5.65-3.938C804.841,678.676,808.094,676.108,807.067,673.711Z" transform="translate(-694.583 -556.965)" fill="#ffc5cb" fill-rule="evenodd"/>
    <path id="Path_761" data-name="Path 761" d="M858.059,496.735c4.794-2.055,9.93.685,12.67,6.849,1.883,3.938.342,14.382-1.541,22.086-1.712,7.191-4.794,10.615-9.417,10.615l-19.86.171L837,526.354l16.608-4.623S849.841,500.33,858.059,496.735Z" transform="translate(-731.919 -411.291)" fill="#00698a" fill-rule="evenodd"/>
  </g>
  <path id="Path_762" data-name="Path 762" d="M817.883,356A1.9,1.9,0,0,0,816,357.883a1.943,1.943,0,0,0,1.883,2.055,2.557,2.557,0,0,0,1.2-.514,1.029,1.029,0,0,1-.685.171,1.581,1.581,0,0,1-1.541-1.712,1.534,1.534,0,0,1,1.541-1.541,1.029,1.029,0,0,1,.685.171A1.554,1.554,0,0,0,817.883,356Z" transform="translate(-714.459 -295.137)" fill="#fff" fill-rule="evenodd"/>
  <path id="Path_763" data-name="Path 763" d="M1190.082,368a3.069,3.069,0,0,0-3.082,3.082,3.111,3.111,0,0,0,3.082,3.253,3.605,3.605,0,0,0,2.226-.856,1.944,1.944,0,0,1-1.37.514,2.832,2.832,0,0,1-2.4-2.911,2.654,2.654,0,0,1,2.4-2.739,3.225,3.225,0,0,1,1.37.342A3.441,3.441,0,0,0,1190.082,368Z" transform="translate(-1022.053 -305.087)" fill="#fff" fill-rule="evenodd"/>
  <path id="Path_764" data-name="Path 764" d="M1169.109,196.545a3.177,3.177,0,0,1-.342-1.2,3.342,3.342,0,0,1-.171-1.2,5.277,5.277,0,0,1,.171-1.712c.171-.514.342-.856.514-1.37a7.248,7.248,0,0,1,.856-1.2,4.617,4.617,0,0,1,1.37-1.2l1.2-1.2a3.484,3.484,0,0,0,1.027-1.2c.172-.342.514-.685.514-1.027a3.225,3.225,0,0,0,.342-1.37,2.433,2.433,0,0,0-.342-1.027l-.514-1.027-1.027-.514a3.337,3.337,0,0,0-1.37-.171,9.694,9.694,0,0,0-3.082.514A13.03,13.03,0,0,0,1165,183.7v-5.992a20.418,20.418,0,0,1,3.424-1.37,12.82,12.82,0,0,1,3.6-.342,11.092,11.092,0,0,1,3.424.342,10.148,10.148,0,0,1,2.739,1.2,5.717,5.717,0,0,1,1.884,2.226,6.952,6.952,0,0,1,.685,3.253,8.683,8.683,0,0,1-.342,2.226,8.343,8.343,0,0,1-.685,1.883,11.076,11.076,0,0,1-1.37,1.541,8.975,8.975,0,0,1-1.883,1.712c-.342.342-.856.685-1.2,1.027a4.538,4.538,0,0,0-.856,1.027l-.513,1.027a2.909,2.909,0,0,0-.172,1.2,2.168,2.168,0,0,0,.172,1.027c0,.342.171.514.342.856Zm2.74,8.561a4.206,4.206,0,0,1-2.568-.856,3.38,3.38,0,0,1-1.027-2.4,2.761,2.761,0,0,1,1.027-2.226,3.724,3.724,0,0,1,5.136,0,2.761,2.761,0,0,1,1.027,2.226,3.712,3.712,0,0,1-.856,2.4A4.736,4.736,0,0,1,1171.849,205.106Z" transform="translate(-1003.885 -145.848)" fill="#2eaad4" fill-rule="evenodd"/>
  <path id="Path_765" data-name="Path 765" d="M1056.541,297.876a.6.6,0,0,1-.171-.342v-1.2c.171-.171.171-.342.342-.514,0-.171.171-.342.342-.514l.343-.342c.342-.171.342-.342.514-.514s.343-.171.343-.342c.171-.171.171-.342.342-.514v-.856c-.171-.171-.171-.342-.342-.342,0-.171-.171-.171-.343-.342h-.514a3.342,3.342,0,0,0-1.2.171,5.194,5.194,0,0,0-1.2.856v-2.4a11.775,11.775,0,0,1,1.37-.514c.342,0,.856-.171,1.37-.171s.856.171,1.2.171a8.34,8.34,0,0,1,1.2.514,3.736,3.736,0,0,1,.685.856,2.913,2.913,0,0,1,.171,1.2v.856c-.171.342-.171.514-.342.685a2.365,2.365,0,0,1-.514.685l-.685.685c-.171.171-.343.171-.514.342s-.171.342-.342.342c0,.171-.171.342-.171.514v.856a.168.168,0,0,0,.171.171Zm1.027,3.424a1.307,1.307,0,0,1-.856-.342,1.48,1.48,0,0,1-.514-1.027c0-.342.171-.514.514-.856a1.307,1.307,0,0,1,.856-.342,1.447,1.447,0,0,1,1.027.342.943.943,0,0,1,.342.856c0,.514,0,.685-.342,1.027A1.448,1.448,0,0,1,1057.568,301.3Z" transform="translate(-912.614 -240.42)" fill="#2eaad4" fill-rule="evenodd"/>
  <path id="Path_766" data-name="Path 766" d="M825.685,292.424a.168.168,0,0,1-.171-.171v-.514l.171-.171c0-.171,0-.171.171-.342a3809978.095,3809978.095,0,0,1,.342-.342.168.168,0,0,0,.171-.171l.171-.171V290.2a1358.648,1358.648,0,0,1-.342-.342h-.171a.629.629,0,0,0-.514.171c-.171,0-.342.171-.514.342v-1.027c.171-.171.342-.171.514-.342h1.2c.171.171.342.171.514.342a.6.6,0,0,1,.171.342.629.629,0,0,1,.171.514v.342c0,.171-.171.171-.171.342l-.171.171c-.171.171-.171.342-.342.342a3809998.55,3809998.55,0,0,1-.342.342l-.171.171v.342l.171.171Zm.342,1.37c-.171,0-.171,0-.342-.171-.171,0-.171-.171-.171-.342s0-.171.171-.342.171-.171.342-.171a.629.629,0,0,1,.514.171c.171.171.171.171.171.342s0,.342-.171.342A.629.629,0,0,1,826.027,293.794Z" transform="translate(-721.92 -239.588)" fill="#2eaad4" fill-rule="evenodd"/>
  <path id="Path_767" data-name="Path 767" d="M470.343,112l13.183,2.911c1.2,12.327-2.226,24.483-13.183,27.223-10.786-2.739-14.211-14.9-13.183-27.223Z" transform="translate(-416.814 -92.805)" fill="#004747" fill-rule="evenodd"/>
  <path id="Path_768" data-name="Path 768" d="M501.166,144.181a8.642,8.642,0,1,0-9.588,14.382,8.643,8.643,0,0,0,11.814-2.055,6.771,6.771,0,0,1-9.759-9.074,6.76,6.76,0,0,1,8.561-2.4C501.85,144.694,501.508,144.523,501.166,144.181Z" transform="translate(-442.334 -118.309)" fill="#c5dfdc" fill-rule="evenodd"/>
</svg>
