<svg xmlns="http://www.w3.org/2000/svg" width="310.576" height="218.836" viewBox="0 0 310.576 218.836">
  <g id="Group_10408" data-name="Group 10408" transform="translate(8502 -10166)">
    <g id="Group_10407" data-name="Group 10407" transform="translate(152.466 178.417)">
      <path id="Path_8961" data-name="Path 8961" d="M356.949,112.558c8.043-48.685,16.142-88.111-39.856-104.246C274.4-3.99,172.938-5.15,131.671,30.184-68.574,201.6,327.8,289.091,356.949,112.558Z" transform="translate(-8273.102 10206.923) rotate(180)" fill="#c5dfdc" fill-rule="evenodd"/>
      <path id="Path_8962" data-name="Path 8962" d="M61.447,137.4c51.224,102.985,208.2,39.922,230.43-4.11C337.994,41.933,250.5,20.75,209.884,4.42,123.017-30.5,8.493-5.66-3.092,41.785-20.885,114.658,61.121,91.36,61.456,137.4Z" transform="translate(-8349.508 10180.707) rotate(180)" fill="#00f3bb" fill-rule="evenodd"/>
    </g>
    <g id="Group_8657" data-name="Group 8657" transform="translate(-1566.115 -6292.046)">
      <path id="Path_8963" data-name="Path 8963" d="M238.89,1074.75h17.2a11.212,11.212,0,0,1,11.18,11.18v55.9a11.212,11.212,0,0,1-11.18,11.18h-17.2a11.212,11.212,0,0,1-11.18-11.18v-55.9a11.212,11.212,0,0,1,11.18-11.18Zm23.22,84.87v6.54a4.259,4.259,0,0,1-4.25,4.25H237.6v23.65h21.07v4.73H210.94v-4.73h21.07v-23.65H211.32a4.259,4.259,0,0,1-4.25-4.25v-6.54c0-2.34,2.16-3.2,4.25-4.25l16.6-8.38,29.93,8.38c2.25.63,4.25,1.91,4.25,4.25Zm-48.69,41.97a4.19,4.19,0,1,1-4.19,4.19,4.19,4.19,0,0,1,4.19-4.19Zm41.06,0a4.19,4.19,0,1,1-4.19,4.19,4.19,4.19,0,0,1,4.19-4.19Z" transform="translate(-6941.525 15440.536)" fill="#545f75" fill-rule="evenodd"/>
      <g id="Group_8637" data-name="Group 8637" transform="translate(-6941.525 15440.536)">
        <path id="Path_8964" data-name="Path 8964" d="M173.77,1159.34l13.55,10.07-17.12,14.47-16.39-12.09s19.69-12.64,19.96-12.45Z" fill="#545f75" fill-rule="evenodd"/>
        <path id="Path_8965" data-name="Path 8965" d="M179.63,1151.1s-3.3,13.55-19.23,20.88-22.89,4.58-22.89,4.58v-14.1s42.3-11.54,42.12-11.35Z" fill="#697d91" fill-rule="evenodd"/>
        <path id="Path_8966" data-name="Path 8966" d="M183.48,1148.62l-.18,3.3-43.22,15.93-4.11-4.49a5.647,5.647,0,0,1-1.51-4.5l.86-9.14,31.32-3.11s17.03,1.83,16.85,2.01Z" fill="#545f75" fill-rule="evenodd"/>
        <path id="Path_8967" data-name="Path 8967" d="M96.86,1112.73l36.07,38.46-3.48,1.28-34.52-37.91Z" fill="#545f75" fill-rule="evenodd"/>
        <path id="Path_8968" data-name="Path 8968" d="M96.67,1114.1l-4.03-5.31.18-7.42h3.02v-1.28l-3.97.09-.34,9.07,4.4,5.4s.82-.46.73-.55Z" fill="#3d4c59" fill-rule="evenodd"/>
        <path id="Path_8969" data-name="Path 8969" d="M93.38,1096.03l1.28,7.63,1.77-.55-1.05-7.32Z" fill="#3d4c59" fill-rule="evenodd"/>
        <path id="Path_8970" data-name="Path 8970" d="M94.75,1091.48l2.38,16.3,3.48-.27-2.84-16.3a15.219,15.219,0,0,0-3.02.27Z" fill="#697d91" fill-rule="evenodd"/>
        <path id="Path_8971" data-name="Path 8971" d="M99.74,1091.3l5.32,8.49a5.75,5.75,0,0,1,.06,6.13l-.62,1.04-4.21-1.1-2.47-14.65s2.01.09,1.92.09Zm106.49,55.12-37.52-5.56a5.533,5.533,0,0,0-1.52-.03l-28.66,3.24a5.686,5.686,0,0,1-5.01-1.9l-29.3-32.55-.52.37a5.654,5.654,0,0,0-2.41,4.15,5.715,5.715,0,0,0,1.49,4.56l28.53,31.37a5.7,5.7,0,0,0,5,1.88l32.83-3.78a5.784,5.784,0,0,1,1.61.04l28.39,4.63a5.861,5.861,0,0,0,6.69-4.63c.21-1.06.37-1.84.37-1.78Z" fill="#fefefe" fill-rule="evenodd"/>
        <path id="Path_8972" data-name="Path 8972" d="M202.89,1171.7v10.01a5.657,5.657,0,0,1-1.62,4.05l-.58.61a5.678,5.678,0,0,1-4.24,1.81H174.9a5.858,5.858,0,0,1-4.26-9.88l7.17-7.61,17.74-4.66a5.862,5.862,0,0,1,7.35,5.67Z" fill="#697d91" fill-rule="evenodd"/>
        <path id="Path_8973" data-name="Path 8973" d="M173.5,1177.47l-45.78,7.42v2.84h41a5.69,5.69,0,0,0,4.75-2.43c2.32-3.21-.06-7.88.04-7.83Z" fill="#545f75" fill-rule="evenodd"/>
      </g>
      <path id="Path_8974" data-name="Path 8974" d="M249.16,1077.31s-12.47-1.94-17.41.21-7.09,25.15-7.09,25.15-5.38,29.24-7.1,31.17,29.67,3.87,29.67,3.87l11.18-32.89s-9.03-28.16-9.24-27.52Z" transform="translate(-6941.525 15440.536)" fill="#95b2da" fill-rule="evenodd"/>
      <path id="Path_8975" data-name="Path 8975" d="M245.45,1074.95s17.49-1.29,25.61,12.9,5.48,28.38-2.08,30.96-21.73.22-21.73.22l-.19-12.04s-1.24-24.08-1.62-32.03Z" transform="translate(-6941.525 15440.536)" fill="#fff" fill-rule="evenodd"/>
      <path id="Path_8976" data-name="Path 8976" d="M230.38,1117.95s3.91-36.98,3.52-42.57c-9.96-3.44-21.3,8.38-24.03,13.11s1.56,29.67,1.56,29.67,18.95-1.07,18.95-.22Z" transform="translate(-6941.525 15440.536)" fill="#fff" fill-rule="evenodd"/>
      <path id="Path_8977" data-name="Path 8977" d="M246.36,1135.14s-8.38,34.61-9.46,38.7-5.8,36.98-5.8,36.98h-7.52l.86-49.02,5.16-12.9-19.13,6.66-1.72,29.24-.21,24.72-6.45-.22-8.6-45.36s-3.01-16.34,7.52-21.71,17.63-8.81,17.63-8.81,27.52,1.93,27.73,1.72Z" transform="translate(-6941.525 15440.536)" fill="#a86e56" fill-rule="evenodd"/>
      <path id="Path_8978" data-name="Path 8978" d="M269.58,1125.68s0,38.7-10.53,50.74l-26.87-.22,14.4-51.81S270.01,1126.32,269.58,1125.68Z" transform="translate(-6941.525 15440.536)" fill="#fff" fill-rule="evenodd"/>
      <path id="Path_8979" data-name="Path 8979" d="M228.52,1125.04l-25.8,1.29s-11.61,9.46-15.91,13.11-7.1,31.6-7.1,31.6l14.83.22s-2.36-19.78,7.31-25.37,24.94-11.39,26.66-20.85Z" transform="translate(-6941.525 15440.536)" fill="#fff" fill-rule="evenodd"/>
      <rect id="Rectangle_3441" data-name="Rectangle 3441" width="10.96" height="14.83" transform="translate(-6688.065 16532.467)" fill="#d2d3d5"/>
      <path id="Path_8980" data-name="Path 8980" d="M243.25,1110.84s-8.17-1.83-12.15,2.9,1.93,4.84,4.19,4.84,10.43.22,10.43.22,5.91-3.98-2.47-7.95Z" transform="translate(-6941.525 15440.536)" fill="#84716b" fill-rule="evenodd"/>
      <path id="Path_8981" data-name="Path 8981" d="M251.1,1111.49s-5.8-8.17-12.25-3.87,11.61,11.39,11.61,11.39,1.24-6.07.65-7.53Z" transform="translate(-6941.525 15440.536)" fill="#ffc5cb" fill-rule="evenodd"/>
      <path id="Path_8982" data-name="Path 8982" d="M163.15,1117.61h-8.17v98.89h8.17v-90.72H284.53v90.72h8.17v-98.89Z" transform="translate(-6941.525 15440.536)" fill="#3d4c59" fill-rule="evenodd"/>
      <path id="Path_8983" data-name="Path 8983" d="M76.54,1082.27l6.89,50.68c.22,1.61.32,3.24.55,4.76H47.1c.45-9.68,1.57-31.44,2.9-38.2,1.72-8.79,5.69-15,15.17-15.86s11.55-1.21,11.38-1.38Z" transform="translate(-6941.525 15440.536)" fill="#fa987d" fill-rule="evenodd"/>
      <path id="Path_8984" data-name="Path 8984" d="M249.97,1087.01c.52-6.24-1.63-10.51-4.11-12.74a9.592,9.592,0,0,0-5.09-2.31,15.088,15.088,0,0,0-5.96.39c-3.87,1.02-7.36,3.35-8.84,6.14,5.11,1.6,3.53,8.9.36,14.13a23.307,23.307,0,0,1-7.27,7.04l-.83-1.85a17.547,17.547,0,0,0,6.93-6.23c2.91-4.71,4.08-10.87-.54-11.77-8.74-1.71-6.14,14.74-6.14,14.78l-1.61.23c-.01-.05-2.88-18.1,7.47-16.7,1.59-3.37,5.61-6.18,10.05-7.35a16.531,16.531,0,0,1,6.62-.43,11.268,11.268,0,0,1,5.94,2.72c2.83,2.56,5.21,7.27,4.64,14.08Z" transform="translate(-6941.525 15440.536)" fill="#727376"/>
      <path id="Path_8985" data-name="Path 8985" d="M241.15,1066.13s4.49-2.59,3.68-5.04-5.99-.14-5.99-.14l1.23-9.94s-7.49-1.36-8.71-2.45-5.04-2.04-5.04-2.04-3.13,4.63-3.68,13.61,4.08,11.02,8.44,11.84l2.84,10.78s1.3,4.55,7.15,1.63c10.57-5.27-.3-17.46.09-18.27Z" transform="translate(-6941.525 15440.536)" fill="#ffc5cb" fill-rule="evenodd"/>
      <path id="Path_8986" data-name="Path 8986" d="M225.33,1048.47s-1.73-.31-1.46-4.53c.4-6.24,28.74-15.7,25.32,11.71-.68,5.44-3.65,10.65-8.28,10.51,0,0,4.33-1.94,3.65-4.79s-6.4.27-6.4.27l.95-9.94c-3.8-.2-12.51-4-13.79-3.23Z" transform="translate(-6941.525 15440.536)" fill="#84716b" fill-rule="evenodd"/>
      <circle id="Ellipse_441" data-name="Ellipse 441" cx="3.44" cy="3.44" r="3.44" transform="translate(-6693.965 16526.207)" fill="#a9abae"/>
      <rect id="Rectangle_3442" data-name="Rectangle 3442" width="67.94" height="44.5" transform="translate(-6790.642 16506.445)" fill="#545f75"/>
      <rect id="Rectangle_3443" data-name="Rectangle 3443" width="14.62" height="9.89" transform="translate(-6763.642 16545.996)" fill="#848688"/>
      <path id="Path_8987" data-name="Path 8987" d="M196.39,1113.85H172.98a1.637,1.637,0,0,0-1.63,1.63v3.1h26.66v-3.1a1.637,1.637,0,0,0-1.63-1.63Z" transform="translate(-6940.991 15440.536)" fill="#545f75" fill-rule="evenodd"/>
      <path id="Path_8988" data-name="Path 8988" d="M187.08,1215.57l21.71-.65-.81-6.13c-.84-6.36-27.16,6.96-20.9,6.77Z" transform="translate(-6941.525 15440.536)" fill="#004747" fill-rule="evenodd"/>
      <path id="Path_8989" data-name="Path 8989" d="M210.73,1215.57l21.71-.65-.81-6.13c-.84-6.36-27.16,6.96-20.9,6.77Z" transform="translate(-6941.525 15440.536)" fill="#004747" fill-rule="evenodd"/>
      <path id="Path_8993" data-name="Path 8993" d="M100.51,1043.87H139.4a4.925,4.925,0,0,1,4.91,4.91v10.9a4.925,4.925,0,0,1-4.91,4.91H95.6v-15.81a4.925,4.925,0,0,1,4.91-4.91Z" transform="translate(-6941.525 15440.536)" fill="#fafafa" fill-rule="evenodd"/>
      <rect id="Rectangle_3444" data-name="Rectangle 3444" width="19.3" height="1.23" transform="translate(-6840.416 16498.387)"/>
      <rect id="Rectangle_3445" data-name="Rectangle 3445" width="34.62" height="1.23" transform="translate(-6840.416 16495.016)"/>
      <rect id="Rectangle_3446" data-name="Rectangle 3446" width="34.62" height="1.23" transform="translate(-6840.416 16491.646)"/>
      <path id="Path_8994" data-name="Path 8994" d="M210.79,1036.51H171.9a4.925,4.925,0,0,0-4.91,4.91v10.9a4.925,4.925,0,0,0,4.91,4.91h43.8v-15.81a4.925,4.925,0,0,0-4.91-4.91Z" transform="translate(-6941.525 15440.536)" fill="#fafafa" fill-rule="evenodd"/>
      <rect id="Rectangle_3447" data-name="Rectangle 3447" width="13.17" height="1.23" transform="translate(-6744.516 16487.666)"/>
      <rect id="Rectangle_3448" data-name="Rectangle 3448" width="34.62" height="1.23" transform="translate(-6765.965 16484.297)"/>
      <path id="Path_9018" data-name="Path 9018" d="M108.62,1215.57l-21.71-.65.81-6.13c.84-6.36,27.16,6.96,20.9,6.77Z" transform="translate(-6941.525 15440.536)" fill="#004747" fill-rule="evenodd"/>
      <path id="Path_9019" data-name="Path 9019" d="M84.98,1215.57l-21.71-.65.81-6.13c.84-6.36,27.16,6.96,20.9,6.77Z" transform="translate(-6941.525 15440.536)" fill="#004747" fill-rule="evenodd"/>
      <path id="Path_9020" data-name="Path 9020" d="M91.63,1133.44s-3.01-40.2-7.95-45.36-3.44,46.01-3.44,46.01l7.74,4.94S92.06,1133.44,91.63,1133.44Z" transform="translate(-6941.525 15440.536)" fill="#00698a" fill-rule="evenodd"/>
      <path id="Path_9021" data-name="Path 9021" d="M57.02,1074.75H39.82a11.212,11.212,0,0,0-11.18,11.18v55.9a11.212,11.212,0,0,0,11.18,11.18h17.2a11.212,11.212,0,0,0,11.18-11.18v-55.9a11.212,11.212,0,0,0-11.18-11.18ZM33.8,1159.62v6.54a4.259,4.259,0,0,0,4.25,4.25H58.31v23.65H37.24v4.73H84.97v-4.73H63.9v-23.65H84.59a4.259,4.259,0,0,0,4.25-4.25v-6.54a4.259,4.259,0,0,0-4.25-4.25H38.06a4.259,4.259,0,0,0-4.25,4.25Zm48.69,41.97a4.19,4.19,0,1,0,4.19,4.19,4.19,4.19,0,0,0-4.19-4.19Zm-41.06,0a4.19,4.19,0,1,0,4.19,4.19,4.19,4.19,0,0,0-4.19-4.19Z" transform="translate(-6941.525 15440.536)" fill="#545f75" fill-rule="evenodd"/>
      <path id="Path_9022" data-name="Path 9022" d="M50.36,1135.14s-15.45,22.97,9.3,22.47l5.96,53.21h7.52l6.81-54.28,6.3-.98,1.72,29.24.21,24.72,6.45-.22,8.6-45.36s3.01-16.34-7.52-21.71-17.63-8.81-17.63-8.81-27.52,1.93-27.73,1.72Z" transform="translate(-6941.525 15440.536)" fill="#8d8d8d" fill-rule="evenodd"/>
      <path id="Path_9023" data-name="Path 9023" d="M76.54,1082.27a20.411,20.411,0,0,1,6.04,1.95c4.94,7.45-.06,36.55.85,48.73.12,1.62.32,3.24.55,4.76H47.1c.45-9.68,1.57-31.44,2.9-38.2,1.72-8.79,5.69-15,15.17-15.86s11.55-1.21,11.38-1.38Z" transform="translate(-6941.525 15440.536)" fill="#004747" fill-rule="evenodd"/>
      <path id="Path_9024" data-name="Path 9024" d="M71.98,1070.17s-4.67-2.69-3.82-5.24,6.23-.14,6.23-.14l-1.27-10.34s7.79-1.42,9.06-2.55,5.24-2.12,5.24-2.12,3.26,4.81,3.82,14.16-4.25,11.47-8.78,12.32l-1.27,15.57s-2.97,5.24-8.78,1.7a17.971,17.971,0,0,1-7.44-9.83s7.44-13.67,7.01-13.53Z" transform="translate(-6941.525 15440.536)" fill="#ffc5cb" fill-rule="evenodd"/>
      <path id="Path_9025" data-name="Path 9025" d="M88.44,1051.8s1.8-.32,1.52-4.71-7.65-8.78-12.46-5.52-4.53,6.65-8.21,8.35-6.37,3.68-5.66,9.34,3.8,11.07,8.61,10.93c0,0-4.51-2.01-3.8-4.99s6.66.28,6.66.28l-.99-10.34c3.95-.21,13.01-4.16,14.34-3.36Z" transform="translate(-6941.525 15440.536)" fill-rule="evenodd"/>
      <path id="Path_9026" data-name="Path 9026" d="M53.96,1087.18c-5.17,3.45-5.52,21.37-2.59,31.37,1.76,5.99,6.91,13.83,10.76,19.16h12.3c-2.23-4.42-6.87-14.25-8.93-23.12-1.12-4.84,1.49-36.1-11.55-27.41Z" transform="translate(-6941.525 15440.536)" fill="#00698a" fill-rule="evenodd"/>
      <path id="Path_9027" data-name="Path 9027" d="M69.24,1133.44s9.99.72,9.67,8.46-15.77-4-15.77-4S67.69,1133.69,69.24,1133.44Z" transform="translate(-6941.525 15440.536)" fill="#ffc5cb" fill-rule="evenodd"/>
      <path id="Path_9028" data-name="Path 9028" d="M91.6,1132.58s9.99.72,9.67,8.46-15.77-4-15.77-4S90.05,1132.83,91.6,1132.58Z" transform="translate(-6941.525 15440.536)" fill="#ffc5cb" fill-rule="evenodd"/>
      <g id="Group_10044" data-name="Group 10044" transform="translate(-6775.373 16509.877)">
        <g id="Layer_2" data-name="Layer 2" transform="translate(4.27 4.122)">
          <g id="Layer_1" data-name="Layer 1" transform="translate(0)">
            <path id="Path_1" data-name="Path 1" d="M89.447,1.282A12.722,12.722,0,0,0,84.663.06a3.958,3.958,0,0,1-.4-.06h-.639c-.548.06-1.1.1-1.641.188a12.446,12.446,0,0,0-8.832,5.7,12.672,12.672,0,0,0-.609,13.437,12.2,12.2,0,0,0,9.583,6.735,12.481,12.481,0,0,0,12.085-5,12.418,12.418,0,0,0,2.6-6.7A13.094,13.094,0,0,0,89.447,1.282Zm-4.41.358c.021-.075.237-.149.35-.134a11.632,11.632,0,0,1,9.737,8.565c.072.267.059.407-.228.535-1.011.445-2,.932-3.009,1.389a.606.606,0,0,0-.377.586.9.9,0,0,0,.536,1.015,1.782,1.782,0,0,1,.36.245.592.592,0,0,0,.725.077.386.386,0,0,1,.519.078c.192.19.411.352.647.55-.118.144-.215.253-.3.369-.059.076-.153.17-.144.245.05.422-.259.514-.54.64a1.37,1.37,0,0,0-.258.133,2.977,2.977,0,0,1-2.082.425.42.42,0,0,1-.275-.164q-.77-1.1-1.517-2.219a.382.382,0,0,1-.022-.333A12.97,12.97,0,0,0,90.8,7.454c.037-.836-.031-1.678-.038-2.518,0-.233-.1-.312-.313-.358-1.7-.371-3.4-.757-5.1-1.129-.215-.047-.306-.109-.23-.345a5.4,5.4,0,0,0,.112-.574.394.394,0,0,0-.118-.439.519.519,0,0,1-.072-.45ZM84.2,11.549a2.958,2.958,0,0,0,3.888.392,3.761,3.761,0,0,1-3.864,1.444A3.912,3.912,0,0,1,83.6,5.98a3.713,3.713,0,0,1,3.92.647,2.99,2.99,0,0,0-3.875,1.561,2.894,2.894,0,0,0,.559,3.361ZM84.48,1.43a9.339,9.339,0,0,1,.284,1.062,3.037,3.037,0,0,1-.08.657c-.025.31-.272.282-.468.328-.4.1-.806.185-1.249.248.355-.168.305-.469.322-.76a.588.588,0,0,1,.191-.309,1.33,1.33,0,0,1,.252-.139.391.391,0,0,0,.137-.6c-.05-.082-.115-.157-.169-.239s-.089-.142-.159-.253Zm-2.856.209c.371-.067.746-.112,1.119-.174a.36.36,0,0,1,.429.2,5.514,5.514,0,0,0,.362.508c-.524.161-.793.458-.637,1.021H82.8c-.078-.122-.158-.243-.231-.368-.118-.2-.226-.41-.349-.609-.185-.3-.371-.328-.651-.119-.082.06-.165.119-.257.183C81.171,1.792,81.21,1.715,81.624,1.639Zm1.012,23.125A11.74,11.74,0,0,1,80.215,2.022c.189-.06.381-.116.571-.174.14.313-.08.7.264.892s.528-.186.788-.286c.393.395.429,1.043,1.019,1.329-1.026.231-2,.447-2.982.671-.289.066-.669.066-.835.252s-.1.556-.1.847q-.024.836-.014,1.672c0,.19-.054.281-.245.256-.64-.086-.967.391-1.238.812A.993.993,0,0,0,78.3,9.808h.2c.741,0,.741,0,.825.77-.184.1-.365.2-.549.3a.129.129,0,0,1-.107.011c-.306-.23-.657-.112-.987-.124-.312-.011-.451.131-.447.441,0,.221-.055.321-.293.313a.372.372,0,0,0-.392.358c-.044.239-.1.478-.132.717-.026.185-.1.291-.3.263a.717.717,0,0,0-.658.291c-.268.3-.555.573-.832.86a1.2,1.2,0,0,0-.02,1.344.421.421,0,0,1,.069.328c-.107.406-.262.8-.355,1.206a.71.71,0,0,0,.078.511c.571.813,1.164,1.613,1.757,2.408.205.276.378.293.672.1.526-.344.526-.344,1.034.053.668.523.668.523,1.274-.075.45-.444.45-.444,1.042-.191.41.179.825.341,1.226.538.084.04.123.179.178.278a.139.139,0,0,1-.006.087,2.7,2.7,0,0,0,.4,2.141c.327.552.587,1.145.868,1.724a1.206,1.206,0,0,1,.059.276,1.529,1.529,0,0,1-.275.032ZM78.972,8.145c.04.4.081.791.127,1.238a7.385,7.385,0,0,1-.9-.007.639.639,0,0,1-.374-.923,1.056,1.056,0,0,1,.943-.541c.072.009.137.091.2.148C78.979,8.074,78.969,8.116,78.972,8.145ZM89.125,23.584a11.219,11.219,0,0,1-5.491,1.254c-.189,0-.314-.032-.311-.269a.808.808,0,0,0-.118-.326c-.381-.769-.759-1.539-1.151-2.3a1.064,1.064,0,0,1-.134-.7c.05-.287.055-.583.082-.874a.434.434,0,0,0-.288-.485c-.642-.274-1.284-.547-1.923-.828a.431.431,0,0,0-.546.127c-.224.256-.443.516-.674.787-.374-.29-.646-.492-.909-.707a.449.449,0,0,0-.63-.014c-.151.119-.315.222-.5.351l-.65-.879c-.347-.469-.69-.942-1.044-1.407a.452.452,0,0,1-.086-.481c.14-.385.246-.782.379-1.169a.479.479,0,0,0-.137-.553.655.655,0,0,1-.02-.862c.178-.192.375-.369.546-.567a.924.924,0,0,1,.888-.428c.2.032.318-.109.355-.309.05-.259.111-.515.154-.776.028-.168.092-.25.281-.257.327-.01.432-.119.434-.452,0-.215.067-.3.286-.283a.9.9,0,0,1,.6.151c.154.134.343.044.5-.087.337-.286.439-.254.572.167a8.478,8.478,0,0,0,2.56,4.075A6.485,6.485,0,0,0,84.679,16.8a.935.935,0,0,0,.477-.03,6.613,6.613,0,0,0,3.078-1.911,1.346,1.346,0,0,0,.123-.179.418.418,0,0,1,.313.453,8.431,8.431,0,0,0,.038,1.053.785.785,0,0,0,.237.431,2.9,2.9,0,0,0,.572.4,1.729,1.729,0,0,1,.808.882.484.484,0,0,0,.533.318,2.562,2.562,0,0,1,.464,0,1.133,1.133,0,0,0,1.026-.353.485.485,0,0,1,.14-.1c.274-.134.46-.032.437.268a1.654,1.654,0,0,1-.161.632q-.51.971-1.075,1.911a.643.643,0,0,1-.387.29,1.494,1.494,0,0,0-1.122.733,3.4,3.4,0,0,1-.4.5,1.42,1.42,0,0,0-.469,1.2A.374.374,0,0,1,89.125,23.584Zm5.2-5.275a11.045,11.045,0,0,1-4.656,4.909,3.041,3.041,0,0,1,.2-.545c.128-.205.317-.372.445-.577a1.708,1.708,0,0,1,1.292-.878.57.57,0,0,0,.347-.269c.451-.776.922-1.542,1.3-2.353a2.375,2.375,0,0,0,.034-1.051c0-.077-.153-.2-.246-.21-.323-.044-.665-.107-.926.179-.374.414-.862.239-1.31.257a.172.172,0,0,1-.128-.1c-.216-.63-.776-.9-1.273-1.224a.582.582,0,0,1-.32-.591c.017-.194-.009-.391,0-.586.008-.328.017-.651-.312-.856-.034-.021-.033-.1-.047-.152l.079-.043c.059.076.124.151.178.231.464.674.931,1.345,1.385,2.026a.72.72,0,0,0,.6.323,3.757,3.757,0,0,0,2.458-.587A2.464,2.464,0,0,1,93.847,16a.621.621,0,0,0,.414-.6.986.986,0,0,1,.263-.462c.286-.355.281-.515-.065-.805-.223-.188-.455-.365-.668-.563a.515.515,0,0,0-.664-.1A.492.492,0,0,1,92.5,13.4a1.343,1.343,0,0,0-.334-.231c-.254-.113-.225-.326-.237-.543s.152-.25.286-.313L95.034,11c.076-.035.156-.06.279-.105A11.925,11.925,0,0,1,94.329,18.309Z" transform="translate(-67.131)" fill="#fafafa"/>
            <path id="Path_2" data-name="Path 2" d="M4.784.14Q2.673,1.357.564,2.578A.891.891,0,0,0,.21,3.99L2.122,7.1c.424.692.866.8,1.537.361Q5.735,6.089,7.8,4.71c.078-.052.145-.118.23-.189A18.14,18.14,0,0,1,5.061,0C4.939.061,4.859.1,4.784.14Z" transform="matrix(0.996, 0.087, -0.087, 0.996, 0.673, 16.417)" fill="#fafafa"/>
          </g>
        </g>
      </g>
    </g>
  </g>
</svg>
