<svg xmlns="http://www.w3.org/2000/svg" width="22.656" height="22.66" viewBox="0 0 22.656 22.66">
  <defs>
    <style>
      .cls-1 {
        fill: #184d47;
      }
    </style>
  </defs>
  <path id="Icon_awesome-search" data-name="Icon awesome-search" class="cls-1" d="M22.348,19.591l-4.412-4.412a1.061,1.061,0,0,0-.752-.31h-.721a9.2,9.2,0,1,0-1.593,1.593v.721a1.061,1.061,0,0,0,.31.752l4.412,4.412a1.058,1.058,0,0,0,1.5,0L22.343,21.1a1.067,1.067,0,0,0,0-1.5ZM9.2,14.869A5.664,5.664,0,1,1,14.869,9.2,5.661,5.661,0,0,1,9.2,14.869Z"/>
</svg>
