<svg id="Group_282" data-name="Group 282" xmlns="http://www.w3.org/2000/svg" width="226.359" height="216.357" viewBox="0 0 226.359 216.357">
  <g id="_1917326715360" transform="translate(0 0)">
    <g id="Group_247" data-name="Group 247" transform="translate(0 32.435)">
      <path id="Path_769" data-name="Path 769" d="M780.234,2823.444c4.191-34.75-73.865-75.437-102.329-42.608C618.185,2849.986,771.5,2894.689,780.234,2823.444Z" transform="translate(-579.544 -2768.742)" fill="#e1ffff" fill-rule="evenodd"/>
      <g id="Group_246" data-name="Group 246" transform="translate(0 2.165)">
        <path id="Path_770" data-name="Path 770" d="M295.719,2866.81c4.191-34.4-73.865-74.389-102.154-42.084C133.67,2893,286.988,2937.183,295.719,2866.81Z" transform="translate(-179.721 -2807.289)" fill="#e1ffff" fill-rule="evenodd"/>
        <path id="Path_771" data-name="Path 771" d="M326.079,2792.293c-16.589,24.971-13.271,16.938-19.208,23.923s-15.192,4.016-22.526,16.414c-7.509,12.573,13.97,30.908,6.112,50.641-32.131,81.025,256,73.341,156.462-67.055C427.36,2788.626,342.493,2767.148,326.079,2792.293Z" transform="translate(-264.738 -2781.142)" fill="#c6ecf9" fill-rule="evenodd"/>
        <path id="Path_772" data-name="Path 772" d="M253.667,3375.175c58.848-5.937,129.046-6.112,185.973-2.1C467.23,3461.263,234.458,3441.356,253.667,3375.175Z" transform="translate(-239.823 -3267.458)" fill="#e1ffff" fill-rule="evenodd"/>
      </g>
    </g>
    <g id="Group_248" data-name="Group 248" transform="translate(7.208 47.672)">
      <path id="Path_773" data-name="Path 773" d="M450.366,3401.207a10.905,10.905,0,0,0-.175-2.1,3.983,3.983,0,0,0-1.048-2.1,23.2,23.2,0,0,0-1.572-4.016,31.164,31.164,0,0,0-1.222,4.365.78.78,0,0,0,0,.873c-.175,0-.349-.349-.349-.175l.175-.175a7.57,7.57,0,0,1-.175.873l.524,1.048.175.7a3.627,3.627,0,0,0,.873,2.1h0a3.106,3.106,0,0,0,1.4,1.223C450.191,3404,450.54,3402.08,450.366,3401.207Z" transform="translate(-406.71 -3299.228)" fill="#009ec4" fill-rule="evenodd"/>
      <path id="Path_774" data-name="Path 774" d="M390.288,3421.349a4.954,4.954,0,0,1-1.921,1.4c-.524.349-1.4.524-1.746.873-.349.7.524,1.048,1.048,1.222a6.988,6.988,0,0,0,4.366-.7c.175,0,.349-.174.7-.349s.524,0,.873,0c.873,0,1.4-1.222,1.4-2.1a3.956,3.956,0,0,1-.175-.7H391.86a2.7,2.7,0,0,0-1.921.524Z" transform="translate(-357.634 -3322.338)" fill="#009ec4" fill-rule="evenodd"/>
      <path id="Path_775" data-name="Path 775" d="M437,3199Z" transform="translate(-399.282 -3139.104)" fill="#0074a2" fill-rule="evenodd"/>
      <path id="Path_776" data-name="Path 776" d="M405.494,3201H392.222a76.483,76.483,0,0,0-1.222,8.382c0,2.794,1.921,13.271,1.921,13.271s0,4.715-.175,6.635.873,10.652.873,10.652,4.191.175,5.064.175c0-.7.524-6.985.7-7.683,0-2.619-1.048-9.255-.873-10.652.175-2.969.349-8.033.349-8.033l1.048,8.208s-.175,4.365-.349,6.461c-.175,2.445.524,11.525.524,11.525l5.413.175s.873-6.287.873-8.207c-.175-2.27-.7-9.43-.7-9.43s1.048-9.953,1.048-12.223C406.891,3207.985,405.494,3201,405.494,3201Z" transform="translate(-361.314 -3140.755)" fill="#9bc6d4" fill-rule="evenodd"/>
      <path id="Path_777" data-name="Path 777" d="M395.889,3201h-3.667a76.483,76.483,0,0,0-1.222,8.382c0,2.794,1.921,13.446,1.921,13.446s0,4.54-.175,6.636c-.175,1.921.873,10.652.873,10.652h2.27Z" transform="translate(-361.314 -3140.755)" fill="#009ec4" fill-rule="evenodd"/>
      <path id="Path_778" data-name="Path 778" d="M478.842,3134.461l.175-2.445-.175-4.016L475,3129.921v10.652h1.048l.349,4.715,2.1.524s.7-5.937.7-7.16S478.842,3134.461,478.842,3134.461Z" transform="translate(-430.646 -3080.503)" fill="#9bc6d4" fill-rule="evenodd"/>
      <path id="Path_779" data-name="Path 779" d="M481.794,3225.131c0,.349.349,1.222.349,1.746a3.138,3.138,0,0,1-.7,1.572c-.524.873-1.4,1.746-2.445.873.873-.7.524-2.445.524-3.318,0-.349,0-1.4.349-1.572.349-.349,1.4.175,1.921.175,0,.175-.175,0-.175.175Z" transform="translate(-433.947 -3159.997)" fill="#9bc6d4" fill-rule="evenodd"/>
      <path id="Path_780" data-name="Path 780" d="M363.455,3140.667l.873-2.619L361.185,3137l-1.048,3.143h0l-.175.175h0c-.175,1.921,2.619,8.382,2.619,8.382l1.921-1.222Z" transform="translate(-335.69 -3087.931)" fill="#9bc6d4" fill-rule="evenodd"/>
      <path id="Path_781" data-name="Path 781" d="M376.665,3196.633c.349.524,1.572.7,1.572,1.4.349.873-.349,1.921-.873,2.445-1.048,1.4-1.921-1.047-2.27-1.746-.349-1.048-.7-1.572,0-1.572a16.419,16.419,0,0,0,1.572-.524C376.491,3196.633,376.665,3196.458,376.665,3196.633Z" transform="translate(-347.853 -3137.087)" fill="#9bc6d4" fill-rule="evenodd"/>
      <path id="Path_782" data-name="Path 782" d="M427.715,3056.239H423V3051h4.715Z" transform="translate(-387.726 -3016.949)" fill="#9bc6d4" fill-rule="evenodd"/>
      <path id="Path_783" data-name="Path 783" d="M405,3067.572l3.492-1.572,4.366.349,2.445.7-5.937,8.032Z" transform="translate(-372.869 -3029.329)" fill="#9bc6d4" fill-rule="evenodd"/>
      <path id="Path_784" data-name="Path 784" d="M363.366,3069.444c1.572-.7,5.937-2.444,5.937-2.444l3.143,4.715,3.667-4.715s5.937,2.444,6.286,3.143c.524.873,2.1,10.3,2.1,10.3l-4.715.524-.524-4.191s1.4,10.652,1.572,14.144c.175,2.1.524,10.128.524,10.128l-17.811.175s-.175-9.08,0-11.35c.349-3.143,1.572-12.4,1.572-12.4l-1.572,4.016-4.54-1.746S361.969,3070.318,363.366,3069.444Z" transform="translate(-334.902 -3030.155)" fill="#9bc6d4" fill-rule="evenodd"/>
      <path id="Path_785" data-name="Path 785" d="M423.626,3022.493h-.175l-.175.174v-.349a3.316,3.316,0,0,0-3.318-3.318,3.211,3.211,0,0,0-3.318,3.318v.175c-1.048-.175-.175,1.4.175,1.746.175.349.175.873.349,1.048.349.873,1.048.873,1.572,1.4,0,0,.175.524.349.524a2.424,2.424,0,0,0,1.572,0c.175,0,.349-.524.349-.524a4.708,4.708,0,0,0,1.4-1.222l.524-1.048h0C423.277,3024.413,424.325,3022.493,423.626,3022.493Z" transform="translate(-382.066 -2990.537)" fill="#9bc6d4" fill-rule="evenodd"/>
      <path id="Path_786" data-name="Path 786" d="M422.54,2998.006c-.175,0-.349-.175-.524-.175a3.812,3.812,0,0,0-.524-.873,5.813,5.813,0,0,0-1.048-.524,7.565,7.565,0,0,1-.873.175l.349-.349a1.435,1.435,0,0,0-1.222.175.558.558,0,0,1,.524-.524,3.417,3.417,0,0,0-3.492,2.27c-1.222.873-.524,3.842-.175,5.239h0c.175,0,.175.175.349.175.175-.175.175-.873.349-1.222a3.275,3.275,0,0,1,1.048-1.223c.873-.523.7.35,1.222.7.873.349,1.048-.7,1.572-.873,1.4-.175,1.921,1.921,2.1,2.445.349,0,.524-.175.524-1.572C422.889,3001.148,423.413,2998.7,422.54,2998.006Z" transform="translate(-381.154 -2971.463)" fill="#9bc6d4" fill-rule="evenodd"/>
      <path id="Path_787" data-name="Path 787" d="M402.811,3258.7l-17.811.349v-.7l17.811-.349Z" transform="translate(-356.362 -3187.802)" fill="#009ec4" fill-rule="evenodd"/>
      <path id="Path_788" data-name="Path 788" d="M681.083,2998.715a5.034,5.034,0,0,1-5.064,4.89,4.891,4.891,0,0,1-5.064-4.715,4.817,4.817,0,0,1,5.064-4.889A4.891,4.891,0,0,1,681.083,2998.715Z" transform="translate(-592.375 -2969.902)" fill="#9bc6d4" fill-rule="evenodd"/>
      <path id="Path_789" data-name="Path 789" d="M718.366,3403.382a14.52,14.52,0,0,0-.349-2.27,2.892,2.892,0,0,0-.873-2.1A40.289,40.289,0,0,0,715.4,3395s-.873,2.969-1.222,4.365a1.309,1.309,0,0,0,.175.873c-.175.174-.349-.349-.349-.175l.175-.175c0,.349-.175.7-.175,1.048a1.485,1.485,0,0,0,.524.873l.175.873a3.628,3.628,0,0,0,.873,2.1h0c.349.349.873,1.048,1.4,1.048C718.191,3406.176,718.54,3404.08,718.366,3403.382Z" transform="translate(-627.911 -3300.879)" fill="#009ec4" fill-rule="evenodd"/>
      <path id="Path_790" data-name="Path 790" d="M659.288,3423.982a8.4,8.4,0,0,1-1.921,1.572c-.524.174-1.4.349-1.746.873s.524.873,1.048,1.048a9.887,9.887,0,0,0,2.27,0,3.356,3.356,0,0,0,2.1-.7c.175,0,.349-.174.524-.349.349-.175.524,0,.873,0a1.768,1.768,0,0,0,1.4-2.1,3.964,3.964,0,0,0-.175-.7c-.349-.175-.7,0-1.222,0H660.86a2.7,2.7,0,0,0-1.921.524Z" transform="translate(-579.66 -3324.448)" fill="#009ec4" fill-rule="evenodd"/>
      <path id="Path_791" data-name="Path 791" d="M702,3198Z" transform="translate(-618.007 -3138.279)" fill="#0074a2" fill-rule="evenodd"/>
      <path id="Path_792" data-name="Path 792" d="M671.889,3200l-12.922.175s-1.222,6.287-1.048,8.382c0,2.969,1.921,13.62,1.921,13.62s.175,4.715,0,6.811c0,1.921,1.048,10.652,1.048,10.652s4.016,0,4.889.175c0-.7.524-7.16.524-7.858,0-2.619-1.048-9.255-1.048-10.826.175-2.969.349-8.033.349-8.033l1.222,8.207s-.175,4.54-.349,6.461c0,2.62.7,11.875.7,11.875h5.239a65.508,65.508,0,0,0,.7-8.382c0-2.1-.7-9.6-.7-9.6s.873-9.953.873-12.223C673.461,3206.985,671.889,3200,671.889,3200Z" transform="translate(-581.609 -3139.93)" fill="#009ec4" fill-rule="evenodd"/>
      <path id="Path_793" data-name="Path 793" d="M662.459,3201h-3.492s-1.222,6.461-1.048,8.557c0,2.794,2.1,13.62,2.1,13.62s0,4.541-.175,6.636c0,1.921,1.048,10.827,1.048,10.827h2.1Z" transform="translate(-581.609 -3140.755)" fill="#009ec4" fill-rule="evenodd"/>
      <path id="Path_794" data-name="Path 794" d="M726.619,3200H724l.524,39.639h2.445s1.048-6.286.873-8.382-.873-9.6-.873-9.6,1.048-9.953,1.048-12.223A81.557,81.557,0,0,0,726.619,3200Z" transform="translate(-636.165 -3139.93)" fill="#009ec4" fill-rule="evenodd"/>
      <path id="Path_795" data-name="Path 795" d="M742.667,3132.461l.175-2.445-.349-4.016L739,3127.921v10.827l1.048-.175.524,5.064,1.921.349a64.6,64.6,0,0,0,.524-7.334C743.016,3135.43,742.667,3132.461,742.667,3132.461Z" transform="translate(-648.546 -3078.852)" fill="#9bc6d4" fill-rule="evenodd"/>
      <path id="Path_796" data-name="Path 796" d="M746.619,3224.131c0,.349.349,1.222.349,1.746a3.685,3.685,0,0,1-.7,1.746c-.524.7-1.4,1.747-2.27.7.7-.7.524-2.27.524-3.318,0-.349-.175-1.4.175-1.572.349-.349,1.4.175,1.921.175,0,.175,0,.175-.175.175Z" transform="translate(-652.672 -3159.172)" fill="#009ec4" fill-rule="evenodd"/>
      <path id="Path_797" data-name="Path 797" d="M629.492,3140.493l.7-2.445L627.222,3137l-1.048,3.143h0l-.175.175h.175c-.349,1.921,2.619,8.382,2.619,8.382l1.746-1.222Z" transform="translate(-555.278 -3087.931)" fill="#9bc6d4" fill-rule="evenodd"/>
      <path id="Path_798" data-name="Path 798" d="M643.219,3196.633c.349.524,1.572.7,1.746,1.4.175.873-.524,1.921-.873,2.619-1.048,1.4-1.921-1.222-2.27-1.921-.524-1.048-.7-1.4,0-1.572.524,0,.873-.349,1.4-.524C643.045,3196.633,643.219,3196.458,643.219,3196.633Z" transform="translate(-567.957 -3137.087)" fill="#009ec4" fill-rule="evenodd"/>
      <path id="Path_799" data-name="Path 799" d="M690.889,3054.239h-4.715L686,3049h4.715Z" transform="translate(-604.801 -3015.298)" fill="#9bc6d4" fill-rule="evenodd"/>
      <path id="Path_800" data-name="Path 800" d="M669,3065.572l3.318-1.572,4.366.174,2.27.873-5.413,8.032Z" transform="translate(-590.769 -3027.678)" fill="#9bc6d4" fill-rule="evenodd"/>
      <path id="Path_801" data-name="Path 801" d="M629.191,3066.794c1.4-.7,5.763-2.62,5.763-2.62l3.143,4.715,3.492-4.889s5.763,2.444,6.112,3.143c.524.873,2.1,10.477,2.1,10.477l-4.54.7-.524-4.366s1.572,10.652,1.746,14.319c.175,2.1.7,10.128.7,10.128l-17.462.524s-.175-9.081-.175-11.525l1.4-12.573-1.4,4.016-4.54-1.572S627.794,3067.492,629.191,3066.794Z" transform="translate(-554.453 -3027.678)" fill="#9bc6d4" fill-rule="evenodd"/>
      <path id="Path_802" data-name="Path 802" d="M687.005,3019.492h-.175l-.175.175v-.349a3.211,3.211,0,0,0-3.318-3.318,3.283,3.283,0,0,0-3.143,3.318v.349c-.873-.349,0,1.4.175,1.746l.524,1.048c.349.7.873.873,1.4,1.222a7,7,0,0,0,.524.7,1.929,1.929,0,0,0,1.4,0,2.493,2.493,0,0,0,.349-.7c.524-.349,1.048-.524,1.4-1.222a2.48,2.48,0,0,0,.349-1.048h.175C686.831,3021.413,687.7,3019.492,687.005,3019.492Z" transform="translate(-599.694 -2988.06)" fill="#9bc6d4" fill-rule="evenodd"/>
      <path id="Path_803" data-name="Path 803" d="M669.462,3258.524l-17.462.7v-.7l17.462-.524Z" transform="translate(-576.738 -3187.802)" fill="#009ec4" fill-rule="evenodd"/>
      <path id="Path_804" data-name="Path 804" d="M582.175,3157h0Z" transform="translate(-518.961 -3104.438)" fill="#151f00" fill-rule="evenodd"/>
      <path id="Path_805" data-name="Path 805" d="M433.534,3257.016H345V3253h88.534Z" transform="translate(-323.347 -3183.675)" fill="#addbdd" fill-rule="evenodd"/>
      <path id="Path_806" data-name="Path 806" d="M433.534,3242.27H345V3240h88.534Z" transform="translate(-323.347 -3172.945)" fill="#7dadd6" fill-rule="evenodd"/>
      <path id="Path_807" data-name="Path 807" d="M554.986,3296.082H537V3276h17.986Z" transform="translate(-481.819 -3202.659)" fill="#61b0b7" fill-rule="evenodd"/>
      <path id="Path_808" data-name="Path 808" d="M554.986,3296.082H537L546.08,3276h8.906Z" transform="translate(-481.819 -3202.659)" fill="#0d6b70" fill-rule="evenodd"/>
      <path id="Path_809" data-name="Path 809" d="M475,3391v9.08h12.573v-4.365h12.922v4.365h12.747V3391Z" transform="translate(-430.646 -3297.577)" fill="#0d6b70" fill-rule="evenodd"/>
      <path id="Path_810" data-name="Path 810" d="M486.715,3415a4.81,4.81,0,0,0-4.715,4.715h9.43A4.81,4.81,0,0,0,486.715,3415Z" transform="translate(-436.424 -3317.386)" fill="#61b0b7" fill-rule="evenodd"/>
      <path id="Path_811" data-name="Path 811" d="M495.985,3429.143a3.512,3.512,0,1,1-3.492-3.143A3.357,3.357,0,0,1,495.985,3429.143Z" transform="translate(-442.201 -3326.465)" fill="#3f0b00" fill-rule="evenodd"/>
      <path id="Path_812" data-name="Path 812" d="M506.4,3441.523a.7.7,0,1,1-1.4,0,.728.728,0,0,1,1.4,0Z" transform="translate(-455.407 -3338.846)" fill="#61b0b7" fill-rule="evenodd"/>
      <path id="Path_813" data-name="Path 813" d="M638.54,3414a4.661,4.661,0,0,0-4.54,4.715h9.255A4.7,4.7,0,0,0,638.54,3414Z" transform="translate(-561.881 -3316.561)" fill="#61b0b7" fill-rule="evenodd"/>
      <path id="Path_814" data-name="Path 814" d="M647.159,3428.143a3.517,3.517,0,0,1-3.667,3.318,3.471,3.471,0,0,1-3.492-3.318,3.33,3.33,0,0,1,3.492-3.143A3.385,3.385,0,0,1,647.159,3428.143Z" transform="translate(-566.833 -3325.64)" fill="#3f0b00" fill-rule="evenodd"/>
      <path id="Path_815" data-name="Path 815" d="M658.222,3440.524c0,.349-.349.524-.7.524a.524.524,0,0,1,0-1.048C657.873,3440,658.222,3440.175,658.222,3440.524Z" transform="translate(-580.865 -3338.021)" fill="#61b0b7" fill-rule="evenodd"/>
      <path id="Path_816" data-name="Path 816" d="M542.273,3381.1H518V3379h24.273Z" transform="translate(-466.137 -3287.673)" fill="#61b0b7" fill-rule="evenodd"/>
      <path id="Path_817" data-name="Path 817" d="M412.273,2914.794l-23.749,4.365L388,2916.54l23.749-4.54Z" transform="translate(-358.838 -2902.221)" fill="#0d6b70" fill-rule="evenodd"/>
      <path id="Path_818" data-name="Path 818" d="M446.191,2877.954l-2.445.349L442,2868.349l2.27-.349Z" transform="translate(-403.408 -2865.905)" fill="#0d6b70" fill-rule="evenodd"/>
      <path id="Path_819" data-name="Path 819" d="M448.794,2877.779l-1.048.349L446,2868.175l.873-.175Z" transform="translate(-406.71 -2865.905)" fill="#61b0b7" fill-rule="evenodd"/>
      <path id="Path_820" data-name="Path 820" d="M438.08,2920.689a3.456,3.456,0,0,1-2.969,4.191,3.546,3.546,0,0,1-4.366-2.794,3.784,3.784,0,0,1,2.969-4.366A3.656,3.656,0,0,1,438.08,2920.689Z" transform="translate(-394.076 -2906.894)" fill="#61b0b7" fill-rule="evenodd"/>
      <path id="Path_821" data-name="Path 821" d="M442.784,2927.557a2.636,2.636,0,0,1-1.921,2.793,2.607,2.607,0,0,1-2.969-1.92,2.42,2.42,0,0,1,1.921-2.794A2.355,2.355,0,0,1,442.784,2927.557Z" transform="translate(-400.002 -2913.412)" fill="#0d6b70" fill-rule="evenodd"/>
      <path id="Path_822" data-name="Path 822" d="M447.459,2932.663a1.36,1.36,0,0,1-1.048,1.572,1.2,1.2,0,0,1-1.572-1.048,1.119,1.119,0,0,1,1.048-1.4A1.249,1.249,0,0,1,447.459,2932.663Z" transform="translate(-405.725 -2918.518)" fill="#61b0b7" fill-rule="evenodd"/>
      <path id="Path_823" data-name="Path 823" d="M384.176,2934.621a2.384,2.384,0,0,1-1.921,2.445,2.221,2.221,0,0,1-2.619-1.746,2.034,2.034,0,0,1,1.921-2.445A2.221,2.221,0,0,1,384.176,2934.621Z" transform="translate(-351.871 -2919.428)" fill="#0d6b70" fill-rule="evenodd"/>
      <path id="Path_824" data-name="Path 824" d="M338.519,2977.987c-.349,3.143-6.81,5.064-14.494,4.191s-13.446-4.016-13.1-6.985c.349-3.143,6.985-5.064,14.668-4.191C333.106,2971.875,339.043,2975.019,338.519,2977.987Z" transform="translate(-295.213 -2950.746)" fill="#0d6b70" fill-rule="evenodd"/>
      <path id="Path_825" data-name="Path 825" d="M340.471,2985.267c-.349,2.619-6.461,4.016-13.8,3.318s-13.1-3.493-12.747-6.112,6.636-4.016,13.97-3.318S340.821,2982.647,340.471,2985.267Z" transform="translate(-297.689 -2957.501)" fill="#3f0b00" fill-rule="evenodd"/>
      <path id="Path_826" data-name="Path 826" d="M343.419,2986.908c-.175,2.445-6.286,3.667-13.271,2.969-7.16-.7-12.573-3.318-12.224-5.763.349-2.27,6.286-3.667,13.446-2.968C338.355,2981.844,343.769,2984.464,343.419,2986.908Z" transform="translate(-300.986 -2959.143)" fill="#61b0b7" fill-rule="evenodd"/>
      <path id="Path_827" data-name="Path 827" d="M390.794,2952.112l-1.572-.524L388,2946.175l1.746-.175Z" transform="translate(-358.838 -2930.284)" fill="#0d6b70" fill-rule="evenodd"/>
      <path id="Path_828" data-name="Path 828" d="M329.621,3001.449c-.175.524-1.921.873-4.016.524-2.27-.175-3.842-1.048-3.667-1.572,0-.7,1.921-.873,4.016-.7C328.049,3000.052,329.621,3000.75,329.621,3001.449Z" transform="translate(-304.301 -2974.557)" fill="#d9edf4" fill-rule="evenodd"/>
      <path id="Path_829" data-name="Path 829" d="M407.715,2932.7l-4.715.7v-.524l4.54-.873Z" transform="translate(-371.219 -2918.729)" fill="#61b0b7" fill-rule="evenodd"/>
      <path id="Path_830" data-name="Path 830" d="M387.459,2939.663c.175.7-.349,1.223-1.048,1.4a1.249,1.249,0,0,1-1.572-.873c-.175-.7.349-1.222,1.048-1.4C386.761,2938.615,387.459,2938.964,387.459,2939.663Z" transform="translate(-356.202 -2924.296)" fill="#61b0b7" fill-rule="evenodd"/>
      <path id="Path_831" data-name="Path 831" d="M390.222,2943.025a.558.558,0,0,1-.524.524c-.349,0-.7-.175-.7-.349a.463.463,0,0,1,.524-.524C389.873,2942.5,390.048,2942.676,390.222,2943.025Z" transform="translate(-359.663 -2927.484)" fill="#3f0b00" fill-rule="evenodd"/>
      <path id="Path_832" data-name="Path 832" d="M417.858,3011.924c-.175.7-1.921,1.048-4.016.7-2.27-.349-3.842-1.048-3.842-1.572.175-.7,1.921-1.048,4.191-.7C416.286,3010.7,417.858,3011.4,417.858,3011.924Z" transform="translate(-376.996 -2983.286)" fill="#d9edf4" fill-rule="evenodd"/>
      <path id="Path_833" data-name="Path 833" d="M371.621,3018.449c-.175.524-1.921.873-4.016.524-2.27-.175-3.842-.873-3.667-1.572,0-.7,1.921-.873,4.016-.7C370.049,3017.052,371.621,3017.75,371.621,3018.449Z" transform="translate(-338.966 -2988.588)" fill="#d9edf4" fill-rule="evenodd"/>
      <path id="Path_834" data-name="Path 834" d="M378.626,2984.924c0,.7-1.921,1.048-4.016.7s-3.842-1.048-3.667-1.571c0-.7,1.921-1.048,4.016-.7S378.8,2984.4,378.626,2984.924Z" transform="translate(-344.75 -2961)" fill="#d9edf4" fill-rule="evenodd"/>
      <path id="Path_835" data-name="Path 835" d="M379.042,3002.357c-.175.524-1.572.873-3.318.7-1.572-.175-2.969-.873-2.794-1.572,0-.524,1.572-.873,3.143-.7C377.819,3000.96,379.042,3001.659,379.042,3002.357Z" transform="translate(-346.387 -2975.465)" fill="#d9edf4" fill-rule="evenodd"/>
      <path id="Path_836" data-name="Path 836" d="M342.112,2987.357c-.175.524-1.572.873-3.143.7-1.746-.175-2.969-.873-2.969-1.572.175-.524,1.572-.873,3.318-.7C340.889,2985.96,342.286,2986.659,342.112,2987.357Z" transform="translate(-315.918 -2963.084)" fill="#d9edf4" fill-rule="evenodd"/>
      <path id="Path_837" data-name="Path 837" d="M422.112,2994.357c-.175.524-1.572.873-3.318.7-1.572-.175-2.794-.874-2.794-1.572.175-.524,1.572-.873,3.318-.7C420.889,2992.96,422.286,2993.659,422.112,2994.357Z" transform="translate(-381.949 -2968.862)" fill="#d9edf4" fill-rule="evenodd"/>
      <path id="Path_838" data-name="Path 838" d="M498.08,2904.337a3.737,3.737,0,0,1-7.334,1.4,3.626,3.626,0,0,1,2.969-4.017A3.7,3.7,0,0,1,498.08,2904.337Z" transform="translate(-443.598 -2893.685)" fill="#0d6b70" fill-rule="evenodd"/>
      <path id="Path_839" data-name="Path 839" d="M502.61,2909.621c.349,1.048-.7,2.27-1.921,2.445s-2.619-.524-2.794-1.572a2.441,2.441,0,0,1,2.1-2.619A2.221,2.221,0,0,1,502.61,2909.621Z" transform="translate(-449.525 -2898.794)" fill="#61b0b7" fill-rule="evenodd"/>
      <path id="Path_840" data-name="Path 840" d="M508.1,2917.3a.978.978,0,0,1-.873,1.048.993.993,0,0,1-1.222-.7.936.936,0,0,1,.873-.873A1.065,1.065,0,0,1,508.1,2917.3Z" transform="translate(-456.233 -2906.129)" fill="#3f0b00" fill-rule="evenodd"/>
      <path id="Path_841" data-name="Path 841" d="M520.54,2934.366l-1.921,1.048L516,2931.222l1.921-1.222Z" transform="translate(-464.486 -2917.078)" fill="#0d6b70" fill-rule="evenodd"/>
      <path id="Path_842" data-name="Path 842" d="M493.046,2944.4c1.048,1.746,5.763,1.4,10.477-1.048,4.715-2.27,7.858-5.588,6.81-7.509-1.048-1.746-5.763-1.4-10.477,1.048C495.141,2939.159,492,2942.652,493.046,2944.4Z" transform="translate(-445.374 -2920.998)" fill="#0d6b70" fill-rule="evenodd"/>
      <path id="Path_843" data-name="Path 843" d="M496.28,2948.2c.873,1.572,5.239.873,9.779-1.4s7.509-5.239,6.81-6.81c-.873-1.572-5.413-.873-9.953,1.4S495.407,2946.629,496.28,2948.2Z" transform="translate(-448.084 -2924.627)" fill="#3f0b00" fill-rule="evenodd"/>
      <path id="Path_844" data-name="Path 844" d="M497.5,2949.423c.873,1.4,5.064.873,9.43-1.4,4.366-2.1,7.334-5.064,6.461-6.461-.7-1.4-4.889-.7-9.43,1.4C499.591,2945.232,496.8,2948.026,497.5,2949.423Z" transform="translate(-449.125 -2926.023)" fill="#61b0b7" fill-rule="evenodd"/>
      <path id="Path_845" data-name="Path 845" d="M560.678,2950.62c.175.349,1.4.174,2.794-.524,1.222-.7,2.1-1.572,1.921-1.921s-1.4-.175-2.794.524C561.377,2949.4,560.329,2950.27,560.678,2950.62Z" transform="translate(-501.306 -2931.935)" fill="#d9edf4" fill-rule="evenodd"/>
      <path id="Path_846" data-name="Path 846" d="M505.895,2978.619c.175.35,1.4.175,2.794-.524,1.222-.7,2.1-1.572,1.921-1.921s-1.4-.175-2.794.524C506.593,2977.4,505.72,2978.27,505.895,2978.619Z" transform="translate(-456.127 -2955.045)" fill="#d9edf4" fill-rule="evenodd"/>
      <path id="Path_847" data-name="Path 847" d="M537.678,2971.619c.175.349,1.4.175,2.794-.523,1.222-.7,2.1-1.572,1.921-1.921s-1.4-.175-2.794.524C538.377,2970.4,537.329,2971.27,537.678,2971.619Z" transform="translate(-482.323 -2949.268)" fill="#d9edf4" fill-rule="evenodd"/>
      <path id="Path_848" data-name="Path 848" d="M524.895,2952.62c.175.349,1.4.175,2.794-.524,1.222-.7,2.1-1.572,1.921-1.921s-1.4-.175-2.794.524C525.593,2951.4,524.72,2952.271,524.895,2952.62Z" transform="translate(-471.81 -2933.586)" fill="#d9edf4" fill-rule="evenodd"/>
      <path id="Path_849" data-name="Path 849" d="M533.571,2963.062c.175.349,1.222.349,2.27-.349,1.048-.524,1.572-1.222,1.4-1.572s-1.222-.174-2.27.35S533.221,2962.713,533.571,2963.062Z" transform="translate(-478.914 -2942.631)" fill="#d9edf4" fill-rule="evenodd"/>
      <path id="Path_850" data-name="Path 850" d="M553.844,2945.062c.175.349,1.222.349,2.27-.349,1.048-.524,1.572-1.222,1.4-1.572s-1.222-.175-2.27.349S553.669,2944.713,553.844,2945.062Z" transform="translate(-495.694 -2927.774)" fill="#d9edf4" fill-rule="evenodd"/>
      <path id="Path_851" data-name="Path 851" d="M503.571,2968.836c.175.349,1.222.175,2.27-.349s1.572-1.222,1.4-1.572-1.222-.349-2.27.349C503.92,2967.789,503.221,2968.487,503.571,2968.836Z" transform="translate(-454.152 -2947.358)" fill="#d9edf4" fill-rule="evenodd"/>
      <path id="Path_852" data-name="Path 852" d="M436.461,2857.746l-6.112,1.048-.349-1.572,6.112-1.222Z" transform="translate(-393.504 -2856)" fill="#0d6b70" fill-rule="evenodd"/>
      <path id="Path_853" data-name="Path 853" d="M433.534,3254.222H345V3253h88.534Z" transform="translate(-323.347 -3183.675)" fill="#0d6b70" fill-rule="evenodd"/>
      <path id="Path_854" data-name="Path 854" d="M542.447,3380.048H518V3379h24.447Z" transform="translate(-466.137 -3287.673)" fill="#0d6b70" fill-rule="evenodd"/>
      <path id="Path_855" data-name="Path 855" d="M554.986,3306.7H537v-.7h17.986Z" transform="translate(-481.819 -3227.42)" fill="#0d6b70" fill-rule="evenodd"/>
      <path id="Path_856" data-name="Path 856" d="M554.986,3291.222H537V3290h17.986Z" transform="translate(-481.819 -3214.214)" fill="#0d6b70" fill-rule="evenodd"/>
      <path id="Path_857" data-name="Path 857" d="M286.842,3053.1c0-.175-.349,0-.524,0a1.575,1.575,0,0,1-.873-.175,2.818,2.818,0,0,1-1.572-.524A1.78,1.78,0,0,1,283,3051a1.662,1.662,0,0,0,.349,1.222,2.815,2.815,0,0,0,1.222.7,2.973,2.973,0,0,0,1.222.175h1.048Z" transform="translate(-272.173 -3016.949)" fill="#9c593b" fill-rule="evenodd"/>
      <path id="Path_858" data-name="Path 858" d="M294.349,3041l-.175,2.969H294l.175-2.969Z" transform="translate(-281.253 -3008.695)" fill="#009f98" fill-rule="evenodd"/>
      <path id="Path_859" data-name="Path 859" d="M268.411,3272.257a55.788,55.788,0,0,1,.873-7.334s-3.143-11.874-1.222-15.018c.524-1.048,2.445-.524,2.445-.524l4.889,14.144.349,1.572c-.175,4.715,2.27,20.78,2.27,20.78h-9.953S268.411,3275.4,268.411,3272.257Z" transform="translate(-259.33 -3180.58)" fill="#260000" fill-rule="evenodd"/>
      <path id="Path_860" data-name="Path 860" d="M292.477,3465.524c0-.349.175.175,0,.175,0,.175-.349.349-.524.349a5.168,5.168,0,0,1-1.746.349,8,8,0,0,1-3.492-.175,3.287,3.287,0,0,1-1.4-.349c-.175,0-.524-.175-.7-.175a.642.642,0,0,0-.175.524c-.349.175-.7,0-1.222,0a2.215,2.215,0,0,1-1.048-.175c-.175,0-.175-.524-.175-.873,0-.175,0-.175.175-.175a2.973,2.973,0,0,1,1.222.175,10.742,10.742,0,0,1,2.445.175c.524.175.873.349,1.4.524a3.841,3.841,0,0,0,1.4.175c1.048.175,2.1-.349,3.318-.524a.641.641,0,0,0,.524-.175h0Z" transform="translate(-271.348 -3358.655)" fill="#004c4c" fill-rule="evenodd"/>
      <path id="Path_861" data-name="Path 861" d="M285.889,3448l.524.524.524.524a6.535,6.535,0,0,0,1.222,1.048,4.431,4.431,0,0,0,2.1.349,1.155,1.155,0,0,1,1.048.174c.175,0,.349.7.175.873a3.963,3.963,0,0,1-.7.175c-.175,0-3.492.873-5.763,0a9.672,9.672,0,0,0-3.143-.349c-.175,0-.7,0-.873-.349v-.873a3.371,3.371,0,0,1,.524-1.747c.175,0,.349.175.524.349s.349.175.7.35c.349,0,.7.175,1.048.175.7.175,1.048-.524,1.4-.873.175-.175.524-.349.7-.175Z" transform="translate(-270.523 -3344.624)" fill="#004c4c" fill-rule="evenodd"/>
      <path id="Path_862" data-name="Path 862" d="M356.256,3346.622H336V3322h20.256Z" transform="translate(-315.918 -3240.626)" fill="#addbdd" fill-rule="evenodd"/>
      <path id="Path_863" data-name="Path 863" d="M349.1,3323.746H325V3322h24.1Z" transform="translate(-306.839 -3240.626)" fill="#0d6b70" fill-rule="evenodd"/>
      <path id="Path_864" data-name="Path 864" d="M386.8,3353.479H373L381.731,3332H386.8Z" transform="translate(-346.457 -3248.88)" fill="#61b0b7" fill-rule="evenodd"/>
      <path id="Path_865" data-name="Path 865" d="M351.05,3456.4H328V3455h23.05Z" transform="translate(-309.315 -3350.401)" fill="#0d6b70" fill-rule="evenodd"/>
      <path id="Path_866" data-name="Path 866" d="M342.892,3304.667H316V3301h26.892Z" transform="translate(-299.411 -3223.293)" fill="#61b0b7" fill-rule="evenodd"/>
      <path id="Path_867" data-name="Path 867" d="M341.114,3301.524H313V3301h28.114Z" transform="translate(-296.935 -3223.293)" fill="#0d6b70" fill-rule="evenodd"/>
      <path id="Path_868" data-name="Path 868" d="M352.764,3257.255H336V3248h16.764Z" transform="translate(-315.918 -3179.548)" fill="#0d6b70" fill-rule="evenodd"/>
      <path id="Path_869" data-name="Path 869" d="M353.556,3258.921H345V3257h8.556Z" transform="translate(-323.347 -3186.977)" fill="#004c4c" fill-rule="evenodd"/>
      <path id="Path_870" data-name="Path 870" d="M354.858,3260.222H347V3259h7.858Z" transform="translate(-324.998 -3188.627)" fill="#d9edf4" fill-rule="evenodd"/>
      <path id="Path_871" data-name="Path 871" d="M403.937,3257.255H398V3248h5.937Z" transform="translate(-367.092 -3179.548)" fill="#004c4c" fill-rule="evenodd"/>
      <path id="Path_872" data-name="Path 872" d="M352.764,3297.7H336v-.7h16.764Z" transform="translate(-315.918 -3219.992)" fill="#004c4c" fill-rule="evenodd"/>
      <path id="Path_873" data-name="Path 873" d="M342.921,3282.873a.825.825,0,0,1-.873.873.888.888,0,1,1,0-1.746A.825.825,0,0,1,342.921,3282.873Z" transform="translate(-320.045 -3207.611)" fill="#004c4c" fill-rule="evenodd"/>
      <path id="Path_874" data-name="Path 874" d="M344.4,3284.524a.7.7,0,0,1-1.4,0c0-.349.349-.524.7-.524S344.4,3284.175,344.4,3284.524Z" transform="translate(-321.696 -3209.261)" fill="#3f0b00" fill-rule="evenodd"/>
      <path id="Path_875" data-name="Path 875" d="M359.048,3285.524a.524.524,0,1,1-1.048,0,.524.524,0,1,1,1.048,0Z" transform="translate(-334.077 -3210.087)" fill="#d9edf4" fill-rule="evenodd"/>
      <path id="Path_876" data-name="Path 876" d="M359.048,3274.524a.524.524,0,1,1-.524-.524A.463.463,0,0,1,359.048,3274.524Z" transform="translate(-334.077 -3201.008)" fill="#d9edf4" fill-rule="evenodd"/>
      <path id="Path_877" data-name="Path 877" d="M372.048,3285.524a.524.524,0,1,1-1.048,0,.524.524,0,1,1,1.048,0Z" transform="translate(-344.807 -3210.087)" fill="#d9edf4" fill-rule="evenodd"/>
      <path id="Path_878" data-name="Path 878" d="M372.048,3274.524a.524.524,0,1,1-.524-.524A.463.463,0,0,1,372.048,3274.524Z" transform="translate(-344.807 -3201.008)" fill="#d9edf4" fill-rule="evenodd"/>
      <path id="Path_879" data-name="Path 879" d="M427.349,3257.255H427V3248h.349Z" transform="translate(-391.028 -3179.548)" fill="#3f0b00" fill-rule="evenodd"/>
      <path id="Path_880" data-name="Path 880" d="M433.572,3258.7H432v-.7h1.572Z" transform="translate(-395.155 -3187.802)" fill="#004c4c" fill-rule="evenodd"/>
      <path id="Path_881" data-name="Path 881" d="M432.524,3265.792H432c0-1.048,1.048-1.921,1.572-2.445a2.406,2.406,0,0,1,.7-.524l.873-.874a2.626,2.626,0,0,0,.7-1.921c0-.524-.349-.7-.7-1.048a2.714,2.714,0,0,0-1.746-.175v-.349a2.842,2.842,0,0,1,2.1.175,2.155,2.155,0,0,1,.7,1.4,2.93,2.93,0,0,1-.7,2.27c-.349.349-.7.524-1.048.873l-.524.524A2.872,2.872,0,0,0,432.524,3265.792Z" transform="translate(-395.155 -3188.085)" fill="#004c4c" fill-rule="evenodd"/>
      <path id="Path_882" data-name="Path 882" d="M278.16,3276.05c0-1.572.349-5.762.524-7.509l-7.683-13.1,8.207-2.445,5.588,13.97.349,1.571c.175,4.715,2.27,18.51,2.27,18.51l-7.858,1.222S278.334,3279.193,278.16,3276.05Z" transform="translate(-262.269 -3183.675)" fill="#03776e" fill-rule="evenodd"/>
      <path id="Path_883" data-name="Path 883" d="M335.477,3467.175c0-.349.175.175.175.175-.175.175-.349.349-.524.349-.524.175-1.222.349-1.746.524a12.887,12.887,0,0,1-3.667,0c-.524,0-.873-.349-1.4-.349-.175,0-.524-.175-.524,0-.349,0-.175.175-.175.349a3.406,3.406,0,0,1-1.222.175c-.349,0-.873,0-1.048-.175-.349-.175-.349-.524-.349-.873s0-.349.175-.175H326.4a13.221,13.221,0,0,1,2.619.175,12.076,12.076,0,0,0,1.4.524h1.222a10.214,10.214,0,0,0,3.318-.7.641.641,0,0,0,.524-.175h0Z" transform="translate(-306.839 -3360.305)" fill="#004c4c" fill-rule="evenodd"/>
      <path id="Path_884" data-name="Path 884" d="M328.715,3449.658c.175,0,.349.174.524.349s.524.349.7.7c.349.175.873.7,1.222.873a4.3,4.3,0,0,0,2.1.175,2.213,2.213,0,0,1,1.048.175c.175,0,.349.7.349.873-.175,0-.524.175-.7.175-.349,0-3.492,1.222-5.937.349a9.535,9.535,0,0,0-3.143-.175.7.7,0,0,1-.7-.349c-.175-.175-.175-.7-.175-.873a5.166,5.166,0,0,1,.349-1.746c.175,0,.349.175.524.175a1.323,1.323,0,0,0,.7.349,2.972,2.972,0,0,0,1.222.175c.7.175.873-.524,1.4-1.048.175-.174.349-.349.7-.174Z" transform="translate(-306.014 -3345.932)" fill="#151910" fill-rule="evenodd"/>
      <path id="Path_885" data-name="Path 885" d="M278.16,3279.352a55.307,55.307,0,0,1,.349-7.508l-7.509-13.1,5.763-1.746a30.316,30.316,0,0,0,1.572,10.652c1.746,6.111,4.715,11.176,7.683,13.795.7,4.54,1.921,10.827,1.921,10.827l-8.033.175S278.334,3282.5,278.16,3279.352Z" transform="translate(-262.269 -3186.977)" fill="#004c4c" fill-rule="evenodd"/>
      <path id="Path_886" data-name="Path 886" d="M262.334,3012.175a3.294,3.294,0,0,1,1.921,2.1,2.216,2.216,0,0,1,.175,1.048c0,.349.175.524.524.7.175.349,1.222.7.873,1.222-.175.175-.524.349-.524.524-.175.175.175.349,0,.7-.175.175-.175,0,0,.175a.642.642,0,0,1-.175.524c-.175.175.175.349.175.524a1.1,1.1,0,0,1,0,1.047,2.213,2.213,0,0,1-1.048.175,2.48,2.48,0,0,0-1.048.349c-.175.349-.175.873-.349,1.222a1.309,1.309,0,0,1-.175.873,1.05,1.05,0,0,1-.175.7h-1.222a1.05,1.05,0,0,1-.7-.175,6.84,6.84,0,0,1-1.4-1.746c-.524-.7-.7-1.746-1.4-2.271a8.4,8.4,0,0,1-1.921-1.571,8.775,8.775,0,0,1-.873-2.27,4.009,4.009,0,0,1,.7-2.445,2.525,2.525,0,0,1,1.746-1.223,6.215,6.215,0,0,1,1.746-.349h2.794c.175,0,.349.175.524.175Z" transform="translate(-249.063 -2984.759)" fill="#f5c599" fill-rule="evenodd"/>
      <path id="Path_887" data-name="Path 887" d="M255,3016.017a4.009,4.009,0,0,1,.7-2.445,2.525,2.525,0,0,1,1.746-1.223c.349-.174.7-.174,1.048-.349a7.174,7.174,0,0,0,0,3.842c1.048,3.143,4.191,5.064,6.985,4.191a1.048,1.048,0,0,1-.175.7,2.213,2.213,0,0,1-1.048.175,2.48,2.48,0,0,0-1.048.349c-.175.349-.175.873-.349,1.222a1.309,1.309,0,0,1-.175.873,1.05,1.05,0,0,1-.175.7h-1.222a1.05,1.05,0,0,1-.7-.175,6.84,6.84,0,0,1-1.4-1.746c-.524-.7-.7-1.746-1.4-2.271a8.4,8.4,0,0,1-1.921-1.571A8.775,8.775,0,0,1,255,3016.017Z" transform="translate(-249.063 -2984.759)" fill="#e8b387" fill-rule="evenodd"/>
      <path id="Path_888" data-name="Path 888" d="M272.222,3036.833a.768.768,0,0,0-.873-.174c-.524.174-.349.873-.175,1.222l.524.524c.175.175.175.349.349.524a.768.768,0,0,0,.873.174.96.96,0,0,1-.873-.523c-.175-.175-.175-.349-.349-.349-.175-.175-.349-.349-.349-.524-.175-.349-.175-.7.349-.7.175.175.349.349.524.349.349,0,.175-.174.175-.349a.171.171,0,0,1-.175-.175Z" transform="translate(-262.269 -3005.051)" fill="#9c593b" fill-rule="evenodd"/>
      <path id="Path_889" data-name="Path 889" d="M270,3056.175c.873.349.524,1.746.524,2.445,0,.175-.175.524-.175.7v.175c0,.175.175.175.349.175.349.349.873.349,1.222.524a8.48,8.48,0,0,0,2.969,0,2.226,2.226,0,0,1-1.222-.873,12.719,12.719,0,0,0-1.4-1.571,2.347,2.347,0,0,0-1.222-1.048c-.175-.175-.349-.175-.524-.349l-.349-.349Z" transform="translate(-261.443 -3021.076)" fill="#e8b387" fill-rule="evenodd"/>
      <path id="Path_890" data-name="Path 890" d="M258.534,3004.349a2.717,2.717,0,0,1,1.4,1.048c.349.349.873,1.222.349,1.746-.349.349-.7-.174-1.048.175a.641.641,0,0,1-.175.524c-.349.175-.524.175-.873.349-.349,0-.7.524-.873.873,0,.349.175.7.175,1.048a.638.638,0,0,1-.349.873c-.349,0-.524.175-.7,0-.524-.349-.873-1.048-1.4-1.222s-.873.349-.873.873a3.817,3.817,0,0,0,.7.873c.175.175.175.349.349.524.349.524,0,.873-.175,1.4-.175.175-.349.349-.349.524-.349.174-.175.174-.349-.175a7.071,7.071,0,0,0-1.572-.873,4.47,4.47,0,0,1-1.746-2.27,4.979,4.979,0,0,1-.349-2.794,4.8,4.8,0,0,1,3.318-3.492,6.279,6.279,0,0,1,1.921-.349h1.572a1.575,1.575,0,0,1,.873.175,3.66,3.66,0,0,1,1.048.7Z" transform="translate(-245.438 -2978.156)" fill="#260000" fill-rule="evenodd"/>
      <path id="Path_891" data-name="Path 891" d="M256.318,3073c.524,0,4.191.349,4.889,1.572,1.572,2.445,5.239,5.762,5.064,7.334-1.572,10.478.524,24.447.524,24.447H253s.7-16.764.524-22.177c0-1.4.349-6.286.349-6.286a13.838,13.838,0,0,1,.7-2.969A23.143,23.143,0,0,1,256.318,3073Z" transform="translate(-247.412 -3035.107)" fill="#03776e" fill-rule="evenodd"/>
      <path id="Path_892" data-name="Path 892" d="M253.524,3084c0-1.223.349-6.112.349-6.287a15.711,15.711,0,0,1,.7-2.794,6.045,6.045,0,0,1,1.746-1.921,21.778,21.778,0,0,0,1.222,15.018,21.133,21.133,0,0,0,8.557,8.906c.349,5.239.7,10.128.7,10.128H253S253.7,3089.589,253.524,3084Z" transform="translate(-247.412 -3035.107)" fill="#004c4c" fill-rule="evenodd"/>
      <path id="Path_893" data-name="Path 893" d="M221,3201.477h16.764V3191H221Z" transform="translate(-221 -3132.501)" fill="#009191" fill-rule="evenodd"/>
      <path id="Path_894" data-name="Path 894" d="M223,3202.128h16.065V3192H223Z" transform="translate(-222.651 -3133.327)" fill="#0ebfc1" fill-rule="evenodd"/>
      <path id="Path_895" data-name="Path 895" d="M227,3204.731h14.668V3196H227Z" transform="translate(-225.952 -3136.628)" fill="#d9edf4" fill-rule="evenodd"/>
      <path id="Path_896" data-name="Path 896" d="M309,3212.016h1.921V3208H309Z" transform="translate(-293.633 -3146.533)" fill="#260000" fill-rule="evenodd"/>
      <path id="Path_897" data-name="Path 897" d="M316,3211.842h.349V3208H316Z" transform="translate(-299.411 -3146.533)" fill="#797f7b" fill-rule="evenodd"/>
      <path id="Path_898" data-name="Path 898" d="M267.746,3212.175a15.488,15.488,0,0,0,1.4,2.969c.7.7,1.746,1.4,1.572,2.445a2.064,2.064,0,0,1-1.572,1.572c-.524,0-1.921-1.048-1.048-1.572.175,0,.349.175.524.175-.175-.349-.7-.524-.873-1.222-.175-.524.175-.524-.175-1.222-.524-.7-1.048-1.572-1.572-2.445a4.584,4.584,0,0,1,1.572-.873Z" transform="translate(-258.142 -3149.834)" fill="#f5c599" fill-rule="evenodd"/>
      <path id="Path_899" data-name="Path 899" d="M248.687,3088.035c-.7,2.794-3.667,9.953-3.667,9.953l2.27,9.779-4.016,1.746s-2.969-6.112-3.667-9.255c-.873-4.54,5.413-15.716,5.413-15.716s1.048-1.571,2.445-1.048C249.735,3084.368,249.036,3086.987,248.687,3088.035Z" transform="translate(-236.289 -3043.68)" fill="#004c4c" fill-rule="evenodd"/>
      <path id="Path_900" data-name="Path 900" d="M270.143,3083.658c2.27.873,1.572,3.492,1.222,4.54a63.379,63.379,0,0,1-2.794,8.033,10.75,10.75,0,0,1-1.572-5.937,11.786,11.786,0,0,1,1.746-6.461A1.856,1.856,0,0,1,270.143,3083.658Z" transform="translate(-258.967 -3043.844)" fill="#004c4c" fill-rule="evenodd"/>
      <path id="Path_901" data-name="Path 901" d="M253.175,3042.524h0l7.334-.175V3042H253C253.175,3042.524,253.175,3042,253.175,3042.524Z" transform="translate(-247.412 -3009.52)" fill="#5cccc5" fill-rule="evenodd"/>
      <path id="Path_902" data-name="Path 902" d="M252.524,3044.843a11.886,11.886,0,0,1,.349,2.62c-.175.524-.873,1.4-.873,1.921,0,.7.349.174.7.349.349,0,.524.175,1.048.175.349,0,.7-.175,1.048-.175s.7.175,1.048,0a6.551,6.551,0,0,0-.175-1.746c0-.524.349-1.4.175-1.746-.349-1.048-2.445-1.572-3.318-1.4-.175,0,0,.175,0,.175Z" transform="translate(-246.587 -3011.84)" fill="#260000" fill-rule="evenodd"/>
      <path id="Path_903" data-name="Path 903" d="M265.4,3051a28.208,28.208,0,0,1,0,3.842c-.524.175-2.619-.175-2.445-.7,0-.349.524-.873.7-1.048a1.744,1.744,0,0,1,.7-.873c.175-.524.7-.873,1.048-1.222Z" transform="translate(-255.617 -3016.949)" fill="#260000" fill-rule="evenodd"/>
      <path id="Path_904" data-name="Path 904" d="M298.667,3034a8.867,8.867,0,0,0,1.048,1.222v.7l.349.873-.524.7v1.4l-1.048.175-3.492-.873.175-2.969Z" transform="translate(-282.078 -3002.917)" fill="#5cccc5" fill-rule="evenodd"/>
      <path id="Path_905" data-name="Path 905" d="M295,3041.7l4.715-.7v.7l-4.715.7Z" transform="translate(-282.078 -3008.695)" fill="#009f98" fill-rule="evenodd"/>
      <path id="Path_906" data-name="Path 906" d="M295,3050.349l5.064-.349-.524.7-4.54.175Z" transform="translate(-282.078 -3016.123)" fill="#009f98" fill-rule="evenodd"/>
      <path id="Path_907" data-name="Path 907" d="M299.54,3058.7l-1.048.174L295,3058Z" transform="translate(-282.078 -3022.726)" fill="#009f98" fill-rule="evenodd"/>
      <path id="Path_908" data-name="Path 908" d="M273,3056.048c.7-.175,4.191-1.048,4.366-1.048l-.175.7-4.191.7Z" transform="translate(-263.92 -3020.25)" fill="#5cccc5" fill-rule="evenodd"/>
    </g>
    <g id="Group_250" data-name="Group 250" transform="translate(84.391 86.438)">
      <path id="Path_909" data-name="Path 909" d="M685.177,3089.843l-4.366-5.413a7.1,7.1,0,0,0-5.588-1.572l-12.049,1.572-.175-1.222,12.224-1.572c1.921-.349,5.239.524,6.461,1.921l4.191,5.064A2.814,2.814,0,0,1,685.177,3089.843Z" transform="translate(-663 -3080.938)" fill="rgba(255,255,255,0.9)"/>
      <g id="Group_249" data-name="Group 249" transform="translate(17.811 1.048)">
        <path id="Path_910" data-name="Path 910" d="M771.636,3084,765,3088.715l10.3,12.049,4.54-3.318Z" transform="translate(-765 -3084)" fill="rgba(102,153,255,0.46)" fill-rule="evenodd"/>
        <path id="Path_911" data-name="Path 911" d="M785,3108.414l6.81,8.033,4.54-3.318L790.239,3103a3.849,3.849,0,0,0-2.619,1.048C786.4,3105.445,786.746,3107.366,785,3108.414Z" transform="translate(-781.508 -3099.682)" fill="#bd3538" fill-rule="evenodd"/>
        <path id="Path_912" data-name="Path 912" d="M796.746,3094,795,3095.222l6.461,8.557.873-.873S796.746,3094.174,796.746,3094Z" transform="translate(-789.761 -3092.254)" fill="rgba(255,255,255,0.52)" fill-rule="evenodd"/>
      </g>
      <path id="Path_913" data-name="Path 913" d="M767,3089.889l.349.524,6.461-4.89-.349-.524Z" transform="translate(-748.839 -3083.778)" fill="rgba(102,153,255,0.46)" fill-rule="evenodd"/>
      <path id="Path_914" data-name="Path 914" d="M768.731,3078.7l-8.207,6.461-.524-2.27,6.81-4.889Z" transform="translate(-743.062 -3078)" fill="#9ac6fc" fill-rule="evenodd"/>
    </g>
    <g id="Group_252" data-name="Group 252" transform="translate(57.849 0)">
      <path id="Path_915" data-name="Path 915" d="M511,2583c.175,4.715.349,9.6.524,14.319.524,19.208,1.048,38.242.873,57.276-.175,9.255-.524,18.335-.349,27.416.175,8.557.873,17.113,3.492,25.32,4.366,14.494,14.668,26.193,27.067,34.575,13.97,9.255,30.384,13.969,46.8,16.24,15.192,2.27,31.257,3.667,46.275-.7a43.979,43.979,0,0,0,19.034-10.652c6.112-5.763,10.652-13.271,14.668-20.605a53.6,53.6,0,0,0,5.064-11.176,58.073,58.073,0,0,0,2.619-13.1c.7-9.429.7-18.859,1.048-28.289.7-19.034.349-20.955.873-39.989.349-11.176.524-22.526.524-33.7h-2.969c.175,9.43.349,16.065.349,18.859-.349,18.685-.175,20.431-.7,39.115-.349,9.255-.7,18.685-1.048,27.939-.349,8.906-.175,17.986-2.619,26.542-2.27,8.208-6.636,15.542-11.176,22.352s-9.6,12.922-16.764,16.938c-12.922,7.509-28.813,7.683-43.306,6.461-16.938-1.571-34.051-4.715-49.069-12.573-13.1-6.635-24.447-16.938-31.083-30.035-7.683-15.542-6.636-33.353-6.461-50.292.349-18.684.175-37.194-.349-55.879-.175-8.906-.524-17.637-.873-26.368Z" transform="translate(-511 -2583)" fill="#f7f7f7" fill-rule="evenodd"/>
      <g id="Group_251" data-name="Group 251" transform="translate(0.718 89.05)">
        <path id="Path_916" data-name="Path 916" d="M679.937,3111.3c-7.159,8.906-14.843,17.637-24.622,23.574-11.176,6.635-24.622,8.382-37.369,8.731a134.78,134.78,0,0,1-38.242-4.365c-12.049-3.143-24.273-7.858-34.924-14.668a62.4,62.4,0,0,1-15.541-13.97c-4.366-5.414-7.858-11.525-11.525-17.462a.773.773,0,0,0-1.222.349,78.755,78.755,0,0,0-1.222,9.255,88.322,88.322,0,0,0,1.222,21.479,61.992,61.992,0,0,0,10.3,24.447c6.81,9.255,16.589,15.367,26.892,20.256a156.734,156.734,0,0,0,63.737,14.494,64.79,64.79,0,0,0,16.414-1.746,66.484,66.484,0,0,0,22.876-11.176,50.044,50.044,0,0,0,10.477-11.351c3.667-5.588,6.112-12.224,8.207-18.685a106.129,106.129,0,0,0,5.588-27.59,3.845,3.845,0,0,0,.175-1.4c0-.7-1.222-.524-1.222,0a91.618,91.618,0,0,1-3.143,19.383,108.719,108.719,0,0,1-6.461,19.732,46.682,46.682,0,0,1-9.255,14.494,56.544,56.544,0,0,1-23.05,14.319,55.527,55.527,0,0,1-15.891,2.969,145.715,145.715,0,0,1-26.193-1.746,162.181,162.181,0,0,1-33.877-9.255c-10.827-4.366-22.177-9.779-30.21-18.51a56.5,56.5,0,0,1-12.922-23.749,79.422,79.422,0,0,1-1.222-35.1v-.524c-.349,0-.7.175-1.222.175,6.636,11,13.446,21.828,23.923,29.336s22.7,12.573,34.925,16.065a141.66,141.66,0,0,0,38.242,5.588c12.922,0,26.892-1.222,38.592-6.985,11.874-5.937,20.605-15.891,28.813-26.019C681.509,3111.127,680.286,3110.778,679.937,3111.3Z" transform="translate(-515.113 -3092.959)" fill="#f7f7f7" fill-rule="evenodd"/>
        <path id="Path_917" data-name="Path 917" d="M521,3158.762c3.842,5.588,7.334,11.35,11.525,16.589a26.123,26.123,0,0,0,6.286,6.112,72.826,72.826,0,0,0,8.033,4.54,149.57,149.57,0,0,0,34.226,12.748,151.728,151.728,0,0,0,35.448,4.54c12.049.175,24.273-.7,35.8-3.667,12.573-3.318,24.622-9.6,32.48-20.256-.175,0-1.222-.35-1.4,0-14.144,19.558-41.211,23.749-63.737,23.749a152.7,152.7,0,0,1-68.627-15.716c-6.112-2.969-12.224-5.937-16.589-11.35a94.371,94.371,0,0,1-5.763-8.033c-2.1-3.143-4.191-6.112-6.286-9.255-.349-.175-1.4.175-1.4,0Z" transform="translate(-519.972 -3147.23)" fill="#f7f7f7" fill-rule="evenodd"/>
        <path id="Path_918" data-name="Path 918" d="M520.706,3232.5a78.186,78.186,0,0,0,23.574,20.605,68.2,68.2,0,0,0,14.668,6.461c5.937,2.1,12.224,3.144,18.335,4.54a140.491,140.491,0,0,0,18.859,2.794c6.461.349,12.922.174,19.208.873,5.937.524,11.7,1.047,17.637,1.047a119.317,119.317,0,0,0,15.716-1.4c11.874-2.1,23.4-6.461,33-13.8.524-.524-.349-1.222-.873-.7-17.113,13.1-39.814,16.24-60.769,14.144-2.969-.349-5.937-.7-9.08-.873s-6.461-.174-9.6-.174a111.307,111.307,0,0,1-18.685-2.1c-11.525-2.1-23.05-4.366-33.527-9.6a76.9,76.9,0,0,1-27.241-22.352c-.349-.524-1.572,0-1.222.524Z" transform="translate(-519.679 -3207.52)" fill="#f7f7f7" fill-rule="evenodd"/>
        <path id="Path_919" data-name="Path 919" d="M539.92,3314.793c.349,1.746,1.921,2.794,3.318,3.492,2.1.873,4.366,1.572,6.461,2.445a129.011,129.011,0,0,1,12.922,6.635c8.382,4.541,16.764,9.255,26.019,11.525a56.585,56.585,0,0,0,15.367,1.222,148.871,148.871,0,0,1,17.637.7c11.351,1.048,22.7,2.969,34.226,2.27a94.311,94.311,0,0,0,35.274-8.556c.7-.349,0-1.4-.524-1.222a92.5,92.5,0,0,1-30.559,8.382c-11,1.048-22-.175-33-1.4-5.588-.7-11.176-1.222-16.589-1.4-5.588,0-11.176.524-16.764-.175-9.255-1.222-17.637-5.239-25.669-9.779-4.715-2.445-9.255-5.064-13.97-7.334-2.27-1.048-4.54-2.27-6.985-3.143-2.1-.7-5.413-1.4-5.937-3.842-.175-.7-1.4-.7-1.222.174Z" transform="translate(-535.574 -3275.496)" fill="#f7f7f7" fill-rule="evenodd"/>
        <path id="Path_920" data-name="Path 920" d="M567.668,3369.294a260.159,260.159,0,0,0,24.272,14.319c8.207,4.017,16.764,6.112,25.67,7.684,4.715.873,9.43,1.746,14.144,2.27a132.408,132.408,0,0,0,14.319.524c5.064,0,9.953,0,14.843.349a128.656,128.656,0,0,0,14.319.873,114.3,114.3,0,0,0,31.607-4.54s-.873-.7-1.222-.524a118.3,118.3,0,0,1-27.241,4.366c-9.08.349-18.161-1.048-27.416-1.048-4.54-.175-9.255,0-13.97-.175a129.745,129.745,0,0,1-14.144-1.571c-9.08-1.572-18.161-2.969-26.543-6.636a135.315,135.315,0,0,1-14.144-7.334c-4.54-2.794-9.08-5.588-13.446-8.382-.349-.175-1.4-.524-1.048-.175Z" transform="translate(-558.432 -3320.917)" fill="#f7f7f7" fill-rule="evenodd"/>
        <path id="Path_921" data-name="Path 921" d="M598.771,3427.927c6.636,4.191,14.144,7.159,21.653,9.6,8.033,2.794,16.24,5.239,24.447,7.858,3.842,1.222,7.858,2.444,11.874,3.492a73.138,73.138,0,0,0,12.4,1.746,179.921,179.921,0,0,0,25.67-.175c9.779-.7,19.558-1.746,29.337-2.62.873-.174.7-1.222-.175-1.222-16.764,1.746-33.877,3.842-50.815,3.143a93.955,93.955,0,0,1-24.971-4.54c-8.033-2.445-16.065-5.064-24.1-7.683a112.986,112.986,0,0,1-24.622-10.3c-.524-.524-1.4.349-.7.7Z" transform="translate(-583.948 -3368.722)" fill="#f7f7f7" fill-rule="evenodd"/>
        <path id="Path_922" data-name="Path 922" d="M526.758,3210.665a31.554,31.554,0,0,0,6.461-3.143l3.143-2.1,1.572-1.048a8.749,8.749,0,0,1,1.4-1.222.557.557,0,0,0,.524-.524h0c-.175-.349-.524-.349-.873-.175h0c-.524.349,0,.873.524.7h0c-.175-.175-.524-.175-.7-.349v.175c.175-.175.175-.349.349-.524-.873.175-1.572,1.222-2.27,1.746-1.048.7-2.27,1.4-3.318,2.1a30.862,30.862,0,0,1-7.16,3.667c-.7.35-.175.873.349.7Z" transform="translate(-524.158 -3183.242)" fill="#f7f7f7" fill-rule="evenodd"/>
        <path id="Path_923" data-name="Path 923" d="M540.765,3237c5.413-2.794,10.128-7.334,14.144-11.874.175-.175-.873-.524-1.048-.349-3.842,4.54-8.557,9.081-13.97,11.875-.175.175.7.524.873.349Z" transform="translate(-535.546 -3201.718)" fill="#f7f7f7" fill-rule="evenodd"/>
        <path id="Path_924" data-name="Path 924" d="M557.164,3270.266c6.461-3.842,11.525-9.429,16.589-15.018.349-.349-.524-1.048-.873-.7-4.889,5.588-9.953,11.176-16.414,14.843-.349.349.175,1.048.7.873Z" transform="translate(-549.151 -3226.254)" fill="#f7f7f7" fill-rule="evenodd"/>
        <path id="Path_925" data-name="Path 925" d="M583.491,3298.295a97.24,97.24,0,0,0,10.128-8.906c1.4-1.746,2.794-3.318,4.191-5.239a28.107,28.107,0,0,0,3.667-5.239c.175-.349-.873-.7-1.048-.175a30.022,30.022,0,0,1-4.016,5.588,36.56,36.56,0,0,1-4.191,4.89,113.952,113.952,0,0,1-9.6,8.731c-.349.175.524.7.873.349Z" transform="translate(-570.763 -3246.076)" fill="#f7f7f7" fill-rule="evenodd"/>
        <path id="Path_926" data-name="Path 926" d="M617.249,3326.717c4.191-3.143,7.509-7.159,10.827-11.35,1.746-2.1,3.318-4.016,5.064-6.112.873-.873,1.746-1.921,2.619-2.969a9.972,9.972,0,0,0,1.222-1.4,3.508,3.508,0,0,1,.7-1.4h-.7c-.175-.175-.175-.175-.175-.349.175,0,.175-.175.349-.175h0c-.7-.175-.524.7,0,.7h0c.349,0,.524,0,.524-.349h0c0-.175,0-.349-.175-.349v-.175c-.349,0-.524-.175-.7.175-.349.175-.349.524-.524.873a6.275,6.275,0,0,1-1.222,1.747c-.873,1.047-1.746,1.92-2.445,2.794-1.746,2.1-3.492,4.016-5.064,6.112a69.886,69.886,0,0,1-11,11.7c-.349.349.349.873.7.524Z" transform="translate(-598.758 -3266.116)" fill="#f7f7f7" fill-rule="evenodd"/>
        <path id="Path_927" data-name="Path 927" d="M648.7,3345.935c2.619-.873,4.715-2.969,6.636-4.889a66.191,66.191,0,0,0,5.588-6.636,63.267,63.267,0,0,0,4.715-7.16,68.23,68.23,0,0,0,4.54-7.684c0-.174-.7-.873-.7-.7a58.5,58.5,0,0,1-4.715,7.858,65.647,65.647,0,0,1-10.128,13.446c-1.921,1.921-4.016,4.016-6.636,4.889,0,0,.349.873.7.873Z" transform="translate(-624.795 -3279.397)" fill="#f7f7f7" fill-rule="evenodd"/>
        <path id="Path_928" data-name="Path 928" d="M702.491,3371.96c4.889-3.318,8.906-8.557,12.4-13.446a71.578,71.578,0,0,0,8.382-16.24c.175-.35-.873-.524-1.048-.175a74.183,74.183,0,0,1-8.382,16.065c-3.318,4.889-7.334,9.953-12.224,13.446-.349.175.524.7.873.349Z" transform="translate(-668.983 -3298.437)" fill="#f7f7f7" fill-rule="evenodd"/>
        <path id="Path_929" data-name="Path 929" d="M764.312,3390.917c3.667-5.064,7.334-10.3,10.477-15.716a126.263,126.263,0,0,0,8.557-16.764c.175-.524-.7-.349-.873,0a179.829,179.829,0,0,1-8.207,16.415c-3.318,5.413-6.985,10.652-10.652,15.891-.349.524.524.524.7.175Z" transform="translate(-720.153 -3311.806)" fill="#f7f7f7" fill-rule="evenodd"/>
        <path id="Path_930" data-name="Path 930" d="M819,3401.639v.175h.175v.174a.792.792,0,0,0,.873,0,12.228,12.228,0,0,0,2.619-3.318c.873-1.222,1.746-2.619,2.619-4.016,1.746-2.794,3.318-5.763,4.89-8.731,1.4-2.969,2.969-5.937,4.365-9.081a58.961,58.961,0,0,0,3.842-9.08c.175-.349-.873-.349-1.048,0a61.957,61.957,0,0,1-3.667,8.731c-1.4,2.794-2.619,5.762-4.191,8.557-1.4,2.794-2.794,5.588-4.54,8.382a37.143,37.143,0,0,1-2.794,4.365c-.7,1.223-1.746,3.144-2.969,3.842h.873v-.175c0-.349-1.048-.174-1.048.175Z" transform="translate(-765.935 -3319.559)" fill="#f7f7f7" fill-rule="evenodd"/>
        <path id="Path_931" data-name="Path 931" d="M902.048,3414.043c2.1-1.921,2.969-5.239,4.016-7.683,1.222-2.969,2.27-6.112,3.318-9.081,2.27-5.937,4.016-12.224,5.762-18.335,0,0-1.048-.349-1.048-.175-1.746,6.112-3.492,12.224-5.763,18.335-.873,2.969-2.1,5.937-3.143,8.731-1.222,2.619-2.1,5.937-4.191,8.033.175-.175.873.349,1.048.175Z" transform="translate(-833.615 -3328.82)" fill="#f7f7f7" fill-rule="evenodd"/>
        <path id="Path_932" data-name="Path 932" d="M966.095,3383.505c-1.048,6.286-2.1,12.573-3.667,18.685-.873,2.969-1.746,5.937-2.794,8.906-1.048,2.794-2.1,5.588-4.016,7.858-.349.349.524.7.873.524a29.414,29.414,0,0,0,3.842-7.334c1.048-2.969,1.921-5.937,2.794-8.906,1.746-6.461,2.794-13.1,4.016-19.558,0-.524-1.048-.7-1.048-.175Z" transform="translate(-878.629 -3332.508)" fill="#f7f7f7" fill-rule="evenodd"/>
        <path id="Path_933" data-name="Path 933" d="M1023.979,3383c0,3.318-.7,6.636-.7,9.954a43.7,43.7,0,0,1-.873,9.6c-.7,3.143-1.048,6.287-1.746,9.255a43.714,43.714,0,0,1-1.222,4.54c-.524,1.4-.7,3.318-1.572,4.54-.175.175.524.873.524.873.7-1.048.7-2.27,1.048-3.492a46.711,46.711,0,0,0,1.572-4.541c.7-3.318,1.048-6.461,1.746-9.779a43.743,43.743,0,0,0,1.048-9.6c0-3.492.7-6.985.524-10.477,0-.175-.349-.7-.349-.873Z" transform="translate(-930.052 -3332.352)" fill="#f7f7f7" fill-rule="evenodd"/>
        <path id="Path_934" data-name="Path 934" d="M1071.143,3385.7c.349,6.286-1.222,12.573-1.222,19.034,0,3.143.175,6.286,0,9.429a64.526,64.526,0,0,1-1.921,9.779s.873-.349.873-.524a64.487,64.487,0,0,0,1.921-9.779c.349-3.318,0-6.636,0-9.954,0-6.286,1.572-12.4,1.222-18.685,0,0-.873.349-.873.7Z" transform="translate(-971.454 -3334.003)" fill="#f7f7f7" fill-rule="evenodd"/>
        <path id="Path_935" data-name="Path 935" d="M1104.492,3383.474v-.175c.175,0,.7-.174.7-.349s0-.175-.175-.175c-.175-.175-.7.175-.7.349a1.283,1.283,0,0,0-.349,1.048c-.175,1.048-.175,1.921-.349,2.794-.175,1.746-.349,3.492-.524,5.064q-.262,5.5-.524,11c-.175,6.636.7,13.621-1.572,20.082a1.335,1.335,0,0,1,.873-.349v-.524c0-.174-.873.175-.873.349v.524c0,.175.7-.175.873-.349,2.1-6.286,1.4-13.1,1.572-19.383.175-3.492.349-6.81.524-10.128.175-1.921.349-3.667.524-5.413a11.534,11.534,0,0,1,.175-2.445c0-.524,0-2.27.349-2.445-.349,0-.524.175-.873.349a.171.171,0,0,1,.175.175l.524-.524h0c-.175,0-1.048.7-.349.524Z" transform="translate(-998.691 -3332.127)" fill="#f7f7f7" fill-rule="evenodd"/>
        <path id="Path_936" data-name="Path 936" d="M1150,3380.151c.175,6.461.175,12.922.349,19.208,0,3.143,0,6.287.175,9.43v4.889a43.233,43.233,0,0,1-.524,4.715c0,.524.7,1.048.873.349v-1.048c.175-.524-.7-1.048-.873-.349v1.048a1.333,1.333,0,0,0,.873.349,45.325,45.325,0,0,1,.524-4.54v-4.191c-.175-3.318-.175-6.636-.175-9.954-.175-6.636-.175-13.271-.349-19.732,0-.524-.873-.873-.873-.174Z" transform="translate(-1039.134 -3329.678)" fill="#f7f7f7" fill-rule="evenodd"/>
        <path id="Path_937" data-name="Path 937" d="M1177,3379.437c0,6.112,1.048,12.223,1.746,18.51a165.8,165.8,0,0,1,.524,18.685c0,.349.7.524.873.349l.175-.175c.524-.349-.349-.873-.7-.524h-.175a1.336,1.336,0,0,0,.873.349,168.1,168.1,0,0,0-.524-18.685c-.7-6.112-1.746-12.224-1.746-18.51,0-.349-1.048-.524-1.048,0Z" transform="translate(-1061.42 -3329.139)" fill="#f7f7f7" fill-rule="evenodd"/>
        <path id="Path_938" data-name="Path 938" d="M1203,3375.7c.349,0,.873-.7.873-.7-.349,0-.873.7-.873.7Z" transform="translate(-1082.88 -3325.75)" fill="#f7f7f7" fill-rule="evenodd"/>
        <path id="Path_939" data-name="Path 939" d="M1220.112,3410.56c-.349-3.143-.7-6.112-.873-9.255-.349-2.969-.175-5.763-.524-8.731s-1.4-5.763-1.921-8.731a83.193,83.193,0,0,0-1.746-9.08c0-.349-1.048-.349-1.048,0a75.855,75.855,0,0,1,1.746,9.08c.524,2.969,1.572,5.763,1.921,8.906.349,2.794.175,5.588.524,8.382.175,3.143.524,6.287.873,9.43,0,.524,1.048.349,1.048,0Z" transform="translate(-1091.959 -3325.337)" fill="#f7f7f7" fill-rule="evenodd"/>
        <path id="Path_940" data-name="Path 940" d="M1247.908,3362.762c1.4,5.762,2.619,11.525,4.016,17.287,1.222,5.763,3.318,11.874,2.794,17.812,0,.349,1.048.524,1.048.175.349-5.937-1.4-11.7-2.794-17.462-1.4-5.937-2.619-11.874-4.016-17.811-.175-.349-1.222-.349-1.048,0Z" transform="translate(-1119.929 -3315.432)" fill="#f7f7f7" fill-rule="evenodd"/>
        <path id="Path_941" data-name="Path 941" d="M1271.313,3357.174V3357c-.175.174-.524.349-.7.524.873.349,1.572,1.921,2.1,2.794.7,1.048,1.4,2.27,2.1,3.492a28.233,28.233,0,0,1,2.445,7.684,75.4,75.4,0,0,1,1.746,16.589c0-.175.873-.349.873-.524s0-.349.175-.349c-.175.175-.873.175-.873.524-.175.175-.175.175-.175.349a3.812,3.812,0,0,0,.873-.524,46.106,46.106,0,0,0-.7-9.779,56.983,56.983,0,0,0-1.572-9.255,28.847,28.847,0,0,0-3.667-8.207c-.349-.7-.873-1.222-1.222-1.921-.349-.349-.7-1.4-1.222-1.4a1.484,1.484,0,0,0-.873.524c-.349.175.524-.175.7-.35Z" transform="translate(-1138.619 -3310.893)" fill="#f7f7f7" fill-rule="evenodd"/>
        <path id="Path_942" data-name="Path 942" d="M1307.891,3338.265c1.4,4.366,3.493,8.207,5.588,12.4a21.547,21.547,0,0,1,2.1,6.461c.175,2.27,0,4.54.349,6.81,0,.524,1.048.524,1.048,0-.349-2.27-.175-4.54-.349-6.81a19.073,19.073,0,0,0-2.1-6.286c-1.921-4.365-4.191-8.382-5.762-12.922-.175-.349-1.048-.349-.873.349Z" transform="translate(-1169.436 -3294.952)" fill="#f7f7f7" fill-rule="evenodd"/>
        <path id="Path_943" data-name="Path 943" d="M1346.556,3345.8c-.524-3.667-1.222-8.033-2.969-11.525a25.512,25.512,0,0,1-2.445-5.413c-.524-1.921-1.4-3.842-2.1-5.763-.175-.349-1.048-.175-1.048.175v.175c0,.349,1.048.175,1.048,0v-.349c-.349,0-.7.175-1.048.175a56.033,56.033,0,0,1,2.1,5.762,16.243,16.243,0,0,0,2.1,4.715c1.921,3.667,2.794,8.207,3.318,12.224,0,.349,1.048.175,1.048-.175Z" transform="translate(-1194.306 -3282.755)" fill="#f7f7f7" fill-rule="evenodd"/>
        <path id="Path_944" data-name="Path 944" d="M1356,3307.109c.175,3.842,2.445,6.985,3.492,10.652.524,2.1.873,4.191,1.572,6.286a39.377,39.377,0,0,0,2.27,5.763c0,.174.7.873.7.349v-1.222c0-.349-.7-1.048-.7-.524v1.222c.175.175.524.175.7.349a34.716,34.716,0,0,1-2.27-5.937c-.524-1.921-.873-3.842-1.4-5.762-1.048-3.667-3.492-6.81-3.667-10.652,0-.349-.7-1.048-.7-.524Z" transform="translate(-1209.162 -3269.559)" fill="#f7f7f7" fill-rule="evenodd"/>
        <path id="Path_945" data-name="Path 945" d="M1372.891,3294.737c.524,3.842,2.969,6.811,4.016,10.478,1.222,3.493,1.746,6.985,2.619,10.477,0,.524,1.048.873.873.175-1.048-3.492-1.4-6.985-2.619-10.477s-3.493-6.636-4.016-10.478c-.175-.349-1.048-.7-.873-.175Z" transform="translate(-1223.085 -3259.282)" fill="#f7f7f7" fill-rule="evenodd"/>
        <path id="Path_946" data-name="Path 946" d="M1401.178,3289.01c-1.921-4.016-3.667-8.382-5.413-12.573-.174-.349-1.048-.524-.873,0,1.746,4.191,3.318,8.557,5.413,12.748.175.349,1.222.349.873-.175Z" transform="translate(-1241.244 -3244.125)" fill="#f7f7f7" fill-rule="evenodd"/>
      </g>
    </g>
    <path id="Path_947" data-name="Path 947" d="M1124.623,2867.454Zm-24.272,58.5h-5.064a12.464,12.464,0,0,1,6.461-5.064c3.667-1.223,8.033,0,11.525-1.921a.71.71,0,0,1,.7,1.222c-2.27,1.222-4.715,2.27-7.16,3.318-1.222.524-2.445.873-3.667,1.4A18.156,18.156,0,0,0,1100.35,2925.953Zm-6.286,0H1089v-10.478c.175.7.349,1.4.524,1.921.7,2.27,1.4,4.54,1.921,6.811a9.723,9.723,0,0,1,.873-1.4l-.349-.35a7.908,7.908,0,0,0,.524-2.794,21.336,21.336,0,0,0-2.969-9.779l-.524-1.048v-7.159a18.092,18.092,0,0,1,.7,1.746c1.921,4.365,4.365,9.255,4.715,14.319l1.048-3.143v-.175c-.175-.174-.349-.349-.175-.523s.175-.35.349-.524a14.554,14.554,0,0,1,.7-2.619l.175-.175s-.175-.175,0-.175v-.524a34.326,34.326,0,0,0-.524-4.191,24.785,24.785,0,0,0-1.746-5.064,47.485,47.485,0,0,0-1.921-4.366,13.989,13.989,0,0,0-2.619-3.667,3.065,3.065,0,0,1-.7-.873v-8.207a15.384,15.384,0,0,1,4.715,6.635,40.026,40.026,0,0,1,1.222,4.89c.349,1.746.7,3.492,1.048,5.413a42.969,42.969,0,0,1,1.222,5.064,1.9,1.9,0,0,0,.175.873h0a15.289,15.289,0,0,1,.349,2.794,34.89,34.89,0,0,0,1.746-3.667c-.175-.175-.349-.349-.175-.524a14.981,14.981,0,0,1,2.27-3.493c.349-.524.7-1.222,1.048-1.746a15.73,15.73,0,0,0-1.4-4.889,43.4,43.4,0,0,0-2.619-4.889,31.659,31.659,0,0,1-3.143-3.667,36.1,36.1,0,0,1-2.619-4.365,54.664,54.664,0,0,1-3.842-7.858v-13.1c0,.524.175,1.048.175,1.572a5.1,5.1,0,0,0,.873,2.445,5.244,5.244,0,0,1,1.048,1.921c.175.524.349,1.222.524,1.746a3.823,3.823,0,0,0,1.572,1.746,3.976,3.976,0,0,1,1.572,1.4c.873,1.572,1.572,3.143,2.445,4.715.7,1.571,1.572,3.143,2.27,4.715a63.745,63.745,0,0,1,4.366,16.24c.349-.7.7-1.223,1.048-1.921v-.524c.873-1.4,2.1-2.794,2.969-4.191h0c.524-.7.873-1.4,1.4-2.1a2.1,2.1,0,0,1-.349-1.4,1.9,1.9,0,0,1-.175-.873,31.332,31.332,0,0,0-3.493-6.81c-1.746-2.794-3.318-5.762-5.064-8.556a31.525,31.525,0,0,1-3.493-8.731c-.7-3.143-1.222-6.636-1.746-9.954a94.65,94.65,0,0,1-1.048-10.128c0-.524,1.222-.349,1.4.175.873,4.016,1.921,8.033,2.969,12.049.524,1.571,1.048,3.318,1.572,5.064a3.985,3.985,0,0,0,1.048,2.1c.349.524.873.873,1.222,1.4.873,1.222.524,2.969,1.222,4.191.7,1.4,1.746,2.62,2.445,4.017a18.255,18.255,0,0,1,2.27,4.016,21.324,21.324,0,0,1,1.048,4.54,47.054,47.054,0,0,1,.7,4.889c0,.524.175,1.222.175,1.746.175.175.175.524.349.7.873-1.572,1.921-3.143,2.969-4.715v-.524h.175a7.757,7.757,0,0,1,1.4-1.921,81.981,81.981,0,0,0-3.667-7.858c-1.222-2.27-2.794-4.54-3.318-7.16a30.64,30.64,0,0,1-.873-8.033,43.078,43.078,0,0,1,.349-8.207,10.392,10.392,0,0,0-.175-4.017,7.89,7.89,0,0,1,.175-3.492c.175-.524.7-.175.873.175a14.425,14.425,0,0,1,1.921,8.032,42.314,42.314,0,0,0,.524,8.208,13.877,13.877,0,0,0,1.048,3.842c.524,1.222,1.048,2.27,1.572,3.492a16.558,16.558,0,0,1,.873,4.016,17.059,17.059,0,0,0,1.048,4.016,16.353,16.353,0,0,1,1.048,5.064,43.262,43.262,0,0,1,3.318-4.54q-.524-.262-.524-.524h0c-.175,0-.175-.175-.175-.349v-.175a34.859,34.859,0,0,1-1.921-7.334,101.789,101.789,0,0,1-1.4-14.668c0-2.619-.175-5.064-.175-7.683a39.5,39.5,0,0,1,.349-7.858c.175-.524,1.222,0,1.4.524l1.048,8.382c.7,4.89,1.4,9.779,1.746,14.668a49.166,49.166,0,0,1,.349,7.16c0,2.27-.175,4.54,0,6.81a24.96,24.96,0,0,1,1.921-2.619c-.175-.35,0-.524.175-.7s.349-.175.524-.349a14.548,14.548,0,0,1,1.4-2.1,15.569,15.569,0,0,1-.524-4.889c0-2.27-.349-4.365-.524-6.636-.349-5.763-.349-11.525-.524-17.288,0-.873,1.222-.524,1.4,0,.524,2.619.873,5.064,1.222,7.509a52.8,52.8,0,0,1,.349,11.7,41.179,41.179,0,0,0-.175,8.033c.7-1.048,1.4-2.1,2.1-2.969h0c.175-.349.175-.7.349-.873v-.175h0v-.7a10.745,10.745,0,0,0-.349-3.318,26.434,26.434,0,0,1-.349-5.239,47.492,47.492,0,0,1,.7-5.239,31.168,31.168,0,0,0,.349-4.016,5.942,5.942,0,0,1,.175-1.746c0-.524,1.4-.7,1.4-.349a7.165,7.165,0,0,0-.175,1.921,23.66,23.66,0,0,0,.349,3.493c0,1.572.175,3.318.175,4.889a47.032,47.032,0,0,1-.524,6.985,17.363,17.363,0,0,1,1.746-1.921,50.874,50.874,0,0,1,5.239-5.413c3.318-3.143,7.16-6.461,11.7-7.858.524-.175,1.048.524.873,1.048a42.435,42.435,0,0,1-4.54,5.239l-5.064,5.064a69.854,69.854,0,0,1-5.413,4.715,15.617,15.617,0,0,1-5.413,3.318c0,.175-.349.349-.524.349-.873,1.222-1.921,2.445-2.794,3.667a.641.641,0,0,1,.175.524,58.5,58.5,0,0,1,20.256-9.6c.7-.174,1.4.7.7,1.222-1.921,1.572-4.016,3.143-6.112,4.715a33.088,33.088,0,0,1-5.763,3.842c-2.1,1.222-4.365,1.746-6.461,2.794a9.171,9.171,0,0,1-2.969.7H1123.4c-.175,0-.175.175-.349.175h-.524c-1.746,2.27-3.318,4.715-5.064,7.16a10.587,10.587,0,0,1,1.746-1.223c8.731-5.413,18.859-8.032,26.892-14.319a3.656,3.656,0,0,1,1.048-.7c.349-.349.873.873.7,1.048-.349.349-.7.524-1.048.873-.873.873-1.572,1.746-2.445,2.794s-1.921,1.921-2.969,2.969a38.454,38.454,0,0,1-13.446,7.858c-1.4.524-2.619.873-4.016,1.4a14.275,14.275,0,0,0-3.492,2.1,11.58,11.58,0,0,1-3.318,1.572,5.02,5.02,0,0,0-3.143,1.222.541.541,0,0,1-.349-.175c-1.048,1.746-2.1,3.318-3.143,5.064v.349c1.222-.873,2.445-1.746,3.667-2.445a79.036,79.036,0,0,1,8.731-4.016c2.969-1.4,6.112-2.619,9.255-3.842,6.286-2.445,12.573-4.54,19.034-6.636.175,0,.7,1.223.349,1.4-3.143,2.1-6.286,4.366-9.43,6.461-2.969,1.746-5.763,3.492-8.906,5.064a95.8,95.8,0,0,1-9.779,4.016,96.845,96.845,0,0,0-9.779,4.191c-1.4.7-2.794,1.4-4.366,2.1a15.291,15.291,0,0,1-3.842,1.746.171.171,0,0,1-.175-.175c-.349.7-.873,1.4-1.222,2.1a2.214,2.214,0,0,1,.175,1.048,9.764,9.764,0,0,0,1.4-.874,77.358,77.358,0,0,1,7.858-3.492c3.143-1.222,6.112-2.445,9.255-3.492,6.112-2.1,12.4-4.016,18.685-5.762.175,0,1.048,1.048.873,1.222-3.318,1.921-6.461,3.842-9.6,5.763-2.794,1.746-5.413,3.492-8.207,4.889s-5.763,1.921-8.731,2.969c-2.445,1.048-4.889,2.27-7.509,3.143a13.622,13.622,0,0,1-3.842.524c-1.4,0-2.969,0-3.842,1.222h-.175c0,.175-.175.349-.175.524H1100c-.349.873-.873,1.746-1.222,2.619.175,0,.349-.175.524-.349,5.413-2.794,11.7-2.794,17.288-4.366l5.239-1.572a23.663,23.663,0,0,1,5.064-1.048c3.667-.524,7.509-1.048,11.35-1.4.349-.175,1.572.524,1.048,1.048a28.209,28.209,0,0,1-8.906,4.366c-5.763,1.921-12.049,2.1-18.161,2.794a54.133,54.133,0,0,0-9.255,1.746c-2.27.873-4.54,1.921-5.937,4.191v.524c-.175.349-.524.349-.873.349-.7,1.572-1.222,3.143-1.746,4.715v.175a9.979,9.979,0,0,1,1.222-1.4c4.366-4.191,9.954-5.937,15.716-6.636,3.143-.349,6.461-.524,9.6-1.048a94.277,94.277,0,0,0,10.128-1.746s1.048-.175.7.175a34.522,34.522,0,0,1-9.6,4.54c-3.318,1.048-6.636,1.921-9.953,2.794-1.746.524-3.492.873-5.239,1.222s-3.493.7-5.064,1.048A12.773,12.773,0,0,0,1094.064,2925.953Z" transform="translate(-930.219 -2790.795)" fill="#5ae3b8" fill-rule="evenodd"/>
    <g id="Group_257" data-name="Group 257" transform="translate(68.521 75.676)">
      <path id="Path_948" data-name="Path 948" d="M578.105,3055.97a10.6,10.6,0,0,1-5.413-4.89c-2.794-6.985,7.16-10.3,10.652-7.858s7.683,11.176,5.588,12.922c-.873.7-3.143,1.048-5.762.873l5.937,8.382-7.509,3.841Z" transform="translate(-572.188 -3037.874)" fill="#ffc5cb" fill-rule="evenodd"/>
      <path id="Hair_3" d="M580.127,3023.988c-.7,1.048-.873,2.445-1.048,4.366a1.319,1.319,0,0,0-.7.175,2.035,2.035,0,0,0-.873,2.794,1.846,1.846,0,0,0,1.222,1.047l-.524,2.62c-2.619-.175-6.112-2.969-5.937-7.509-.873-4.191,2.1-6.286,5.239-7.684,2.619-1.222,3.493-4.889,6.112-2.794C585.191,3019.273,585.016,3022.067,580.127,3023.988Z" transform="translate(-572.114 -3016.369)" fill="#2f7ea7" fill-rule="evenodd"/>
      <g id="Group_254" data-name="Group 254" transform="translate(22.506 54.83)">
        <g id="Group_253" data-name="Group 253">
          <path id="Leg_4" d="M701,3377.668l46.45-2.794,38.417.524,1.4-4.365L705.715,3363Z" transform="translate(-701 -3357.301)" fill="#ffc5cb" fill-rule="evenodd"/>
          <path id="shoe_5" d="M1160.921,3349.856a5.841,5.841,0,0,0,2.445.7c.524,0,1.572-.174,2.794-.349,0-.7,0-7.16.349-19.558-1.746-.524-2.619-.349-2.794.7a23.929,23.929,0,0,0-.349,2.794l-4.366,9.081a.642.642,0,0,0,.175.524h0l1.4.524a5.866,5.866,0,0,1,.7,2.619,4.164,4.164,0,0,1-.7,2.1h0a.638.638,0,0,0,.349.873Z" transform="translate(-1079.023 -3330.362)" fill="#2d7ea6" fill-rule="evenodd"/>
        </g>
        <path id="Pant_6" d="M794.865,3368.558l1.4-11.874L721,3349l.175,21.828Z" transform="translate(-717.508 -3345.745)" fill="#2d7ea6" fill-rule="evenodd"/>
      </g>
      <g id="Group_255" data-name="Group 255" transform="translate(17.617 57.91)">
        <path id="Leg_7" d="M723.81,3392.542l70.373,2.27,1.4-5.763L717,3377Z" transform="translate(-709.317 -3371.936)" fill="#ffc5cb" fill-rule="evenodd"/>
        <path id="shoe_8" d="M1145.222,3391.529a11.976,11.976,0,0,0,2.27,1.048h2.794c0-.7.873-7.159,2.619-19.558-1.572-.7-2.619-.524-2.794.524a21.694,21.694,0,0,0-.7,2.794l-5.413,8.382a.643.643,0,0,0,.175.524h0l1.4.7a21.9,21.9,0,0,1,.349,2.619,5.735,5.735,0,0,1-1.048,2.1h0a.638.638,0,0,0,.349.873Z" transform="translate(-1061.753 -3368.304)" fill="#47a0cc" fill-rule="evenodd"/>
        <path id="Pant_9" d="M749.485,3372.447l2.1-12.922L694.828,3348l-14.843,3.492L673,3359.7c3.842,14.668,10.128,11.176,21.828,11.525Z" transform="translate(-673 -3348)" fill="#47a0cc" fill-rule="evenodd"/>
      </g>
      <path id="Clothes-Front_10" d="M608.8,3132.98c10.128,20.605,24.622,19.907,26.193,29.337,1.222,7.858-15.891,25.844-22.876,21.129a24.077,24.077,0,0,1-7.16-8.382c-5.064-12.224-8.556-24.971-8.382-38.591l-.873-1.921c-.175-.7,0-1.572.7-1.746h0l9.255-4.017a1.531,1.531,0,0,1,1.746.873h0Z" transform="translate(-591.531 -3109.122)" fill="#004747" fill-rule="evenodd"/>
      <g id="Group_256" data-name="Group 256" transform="translate(6.657 20.817)">
        <path id="Path_949" data-name="Path 949" d="M786.613,3146.655c-1.222-1.222,1.746-3.143,2.1-4.89.349-1.571-2.619-3.143-1.746-4.365.349-.873,1.921.7,2.794.524,1.222-.35,4.715-2.794,5.763-2.27,2.619,1.047,3.318,3.317,2.445,5.937a7.909,7.909,0,0,1-4.54,4.016C791.328,3146.48,788.184,3148.4,786.613,3146.655Z" transform="translate(-755.571 -3135.581)" fill="#ffc5cb" fill-rule="evenodd"/>
        <path id="Path_950" data-name="Path 950" d="M612.117,3171.858c-2.969,3.143-2.445,8.207,1.746,12.223,2.445,2.619,11.35,4.54,17.986,5.413,6.461.7,9.953-.7,11.525-4.54l5.937-15.716L642.152,3164l-8.731,11.874S617.531,3166.271,612.117,3171.858Z" transform="translate(-610.238 -3159.038)" fill="#00698a" fill-rule="evenodd"/>
      </g>
    </g>
    <path id="Path_951" data-name="Path 951" d="M462.715,3300.805a36.987,36.987,0,0,0-.873,7.683,28.564,28.564,0,0,0,.349,3.842c-1.4-2.445-2.794-4.715-4.366-6.985.349-4.366,2.619-8.208,4.715-12.049,10.3-19.907-.175-17.812-5.239,3.143a40.477,40.477,0,0,0-1.048,6.636c-.175-.175-.175-.35-.349-.35-.349-.524-.873-1.222-1.222-1.746-1.4-1.746-2.794-3.318-4.191-4.89.175-.174.175-.174.175-.349a42.326,42.326,0,0,1,1.746-7.858l1.572-3.667a41.991,41.991,0,0,0,1.921-4.016c1.048-2.619,1.048-5.588,1.4-8.382a67.335,67.335,0,0,1,1.572-8.557,58.478,58.478,0,0,1,3.318-9.255h-.349c-.175.175-.524.175-.7.349a35.014,35.014,0,0,0-5.763,5.588,9.155,9.155,0,0,0-1.921,3.318,18.424,18.424,0,0,0-1.048,4.191c-.524,2.968-.873,6.112-1.572,9.08a49.04,49.04,0,0,1-1.4,5.414c-.175-2.62-.349-5.239-.7-7.858-.349-3.318-.7-6.635-.873-9.953a49.873,49.873,0,0,1,1.048-10.128,39.8,39.8,0,0,1,4.191-10.652c.349-.524-.349-1.048-.873-.7-2.794,1.4-4.54,4.191-5.763,6.985a43.547,43.547,0,0,0-2.794,9.6,70.34,70.34,0,0,0-.873,21.828,73.378,73.378,0,0,0,1.4,8.207l-.873-.873a201.967,201.967,0,0,1-2.969-22.7,185.021,185.021,0,0,1-.175-26.019,138.878,138.878,0,0,1,1.4-14.668c0-.349-.873-1.047-1.048-.7a34.443,34.443,0,0,0-4.889,11.35l-1.572,6.286a27.639,27.639,0,0,0-.873,6.636,22.611,22.611,0,0,0,.7,6.81c.524,2.27.873,4.54,1.222,6.811.7,4.365,1.048,8.731,1.921,13.1a37.024,37.024,0,0,0,3.492,10.477c-.524-.524-1.048-1.222-1.572-1.746a15.774,15.774,0,0,1-1.746-1.572c-2.445-6.985-3.667-14.319-5.064-21.653-1.572-7.858-3.318-15.891-3.492-24.1a118.261,118.261,0,0,1,.349-13.621c0-.175-.524,0-.524,0a2.411,2.411,0,0,0-.7.524c-2.27,7.683-2.445,15.891-1.746,23.923.349,4.017,1.048,8.033,1.572,12.049.7,4.017,1.222,8.033,2.1,11.875a43.249,43.249,0,0,1-3.318-4.54,44.788,44.788,0,0,1-2.27-11.7,191.579,191.579,0,0,0-4.54-24.272c-1.048-4.54-2.27-8.906-3.667-13.271-.175-.7-1.4-.524-1.222.175,1.572,8.207,1.921,16.415,2.969,24.8.873,7.334,2.445,14.668,5.763,21.479a32.47,32.47,0,0,0,1.921,3.318,36.446,36.446,0,0,0,2.445,5.239l-3.143-3.667a4.631,4.631,0,0,0-.873-1.047c-.175-.175-.349-.524-.524-.7-1.048-1.4-1.921-2.619-2.969-4.016,0-.175,0-.175-.175-.349h0c-.524-1.047-1.222-1.921-1.746-2.793a48.662,48.662,0,0,1-5.413-12.4,34.862,34.862,0,0,0-.873-4.54c-.524-2.794-1.222-5.414-1.921-8.033a25.212,25.212,0,0,0-3.143-6.985c-1.572-1.921-3.667-3.318-5.413-5.064a13.909,13.909,0,0,1-2.619-2.969,14.1,14.1,0,0,0-2.794-2.794c-.349-.349-1.222,0-.873.524,1.921,3.842,4.889,7.159,7.509,10.477,1.222,1.746,2.619,3.493,3.667,5.239a48.753,48.753,0,0,1,2.445,6.461c.524,2.1.873,4.191,1.222,6.286a30.32,30.32,0,0,0-1.921-3.143l-5.239-6.811a37.937,37.937,0,0,0-6.286-5.413,42.5,42.5,0,0,0-8.033-3.842c-.175-.175-.175,0-.175.175a.907.907,0,0,0,.349.7c2.1,1.4,4.191,2.619,6.286,4.017a31.556,31.556,0,0,1,5.763,4.889c1.572,1.921,2.969,3.842,4.366,5.937,1.746,2.27,3.318,4.54,4.889,6.811h0a28.959,28.959,0,0,0-2.27-2.445,59.214,59.214,0,0,0-7.858-6.985,28.611,28.611,0,0,0-9.779-4.89,16.914,16.914,0,0,0-11.7,1.223c-.349.349-.873,1.048-.175,1.048,3.318,0,6.461,0,9.6,1.047a26.93,26.93,0,0,1,8.557,4.541,127.326,127.326,0,0,1,15.018,12.573c2.445,2.445,4.889,4.889,7.16,7.509a58.185,58.185,0,0,0-9.779-7.509c-2.794-1.572-5.413-2.969-8.556-2.794-1.746.174-3.318.524-4.889.7a22.934,22.934,0,0,1-4.889-.174c-3.318-.35-7.16-.524-9.6,1.92-.175.175.7.874.873.7a42.553,42.553,0,0,1,16.938.175c5.763,1.047,11,3.492,16.24,6.112a34.147,34.147,0,0,1,5.239,3.492,6.2,6.2,0,0,0-1.572-.7,42.987,42.987,0,0,0-9.255-2.619,39.324,39.324,0,0,0-10.128-.174c-1.746.174-3.667.349-5.413.523a38.211,38.211,0,0,0-4.715.7c-2.969.524-6.112,1.572-7.683,4.191-.175.349.873.7,1.048.524,2.969-.7,5.763-1.572,8.731-2.1a19.813,19.813,0,0,1,4.366-.524,42.772,42.772,0,0,1,4.715.35,36.826,36.826,0,0,0,4.366.349,41.022,41.022,0,0,0,4.54.175,35.419,35.419,0,0,1,8.557.7,13.975,13.975,0,0,1,6.286,2.969h0c.175.174.175.174.349.174,1.222,1.572,2.445,2.969,3.667,4.366l-1.048-.524a57.684,57.684,0,0,0-7.509-3.318,13.626,13.626,0,0,0-3.842-.7,10.477,10.477,0,0,0-4.016.349,39.252,39.252,0,0,0-4.191,1.4,42.09,42.09,0,0,0-4.366,1.4c-3.143,1.048-6.461,2.1-9.779,3.143-.524.175.175.873.524.873,2.969.349,5.588-1.4,8.382-2.1a24.336,24.336,0,0,1,7.159-.524c5.064.349,10.128,1.746,15.192,2.969,2.619.524,5.064,1.222,7.683,1.571h0a8.545,8.545,0,0,0,2.27,2.1c.349.349.873.7,1.222,1.048,0,.175.175.175.175.349.175.524.349.873.524,1.4a55.939,55.939,0,0,0-13.1-1.572,49.747,49.747,0,0,0-15.192,2.794,47.452,47.452,0,0,0-8.033,3.667s.7.873.873.873c6.112-.7,12.224-1.572,18.335-2.27,5.937-.7,11.874-1.222,17.637-.524a19.375,19.375,0,0,1,4.366.873l1.048,1.048a1.32,1.32,0,0,1,.175.7,21.69,21.69,0,0,0-5.763-.7,52.062,52.062,0,0,0-10.477.524,59.9,59.9,0,0,0-19.732,6.635,52.217,52.217,0,0,0-9.6,6.636c-.524.524.349,1.048.873.873a131.709,131.709,0,0,1,19.558-8.906,54.787,54.787,0,0,1,10.652-2.1c3.667-.349,7.159-.523,10.827-.873a13.688,13.688,0,0,1,5.937.349c0,.174,0,.174.175.349a2.593,2.593,0,0,0-1.222.174,47.559,47.559,0,0,0-8.557,2.27c-6.985,2.445-14.494,3.842-20.605,8.556a51.749,51.749,0,0,0-4.54,4.191,18.354,18.354,0,0,1-5.064,4.017c0,.174-.524.349-.349.349l.349-.175,18.859-8.382c3.143-1.4,6.112-2.619,9.255-4.016a89.848,89.848,0,0,1,9.6-3.493,11.314,11.314,0,0,1,2.27-.7c.7-.175,1.222-.349,1.921-.524h1.048c1.222,1.4,2.445,2.794,3.667,4.366.524.524,1.048,1.222,1.572,1.746a13.517,13.517,0,0,0-9.43-.7,32.714,32.714,0,0,0-4.366,2.1,35.408,35.408,0,0,1-4.54,1.921,56.384,56.384,0,0,0-8.556,4.366c-2.969,2.1-5.937,4.191-8.731,6.461a1.362,1.362,0,0,0-.7.7c0,.175-.175.175.175,0s.524-.524.873-.7l2.619-1.4h0s-.349.349-.175.349c4.191-2.794,8.906-4.191,13.621-5.413a136.86,136.86,0,0,1,14.144-3.144,43.089,43.089,0,0,1,8.207-.349c1.4,2.1,2.794,4.365,4.016,6.461a13.208,13.208,0,0,0-6.81-2.27h-4.191a41.905,41.905,0,0,0-4.889.524,19.94,19.94,0,0,0-4.54,1.572c-1.572.873-2.969,1.746-4.366,2.619-3.318,1.921-6.636,3.842-9.953,5.937-.524.349-.349.7.349.7,9.6-.175,17.637-6.81,27.416-6.81a15.886,15.886,0,0,1,6.81,1.4h0a24.959,24.959,0,0,0,2.619,1.921l.524.524,1.048,1.572a.171.171,0,0,0,.175.175,28.5,28.5,0,0,1,1.572,3.318v-2.619c-.175-.349-.349-.873-.524-1.222v-.175a.171.171,0,0,1-.175-.175v-.174a23.249,23.249,0,0,1,1.222-12.049c1.222-3.667,6.112-7.16,6.112-9.779C472.843,3290.153,465.509,3290.328,462.715,3300.805Z" transform="translate(-343.399 -3106.45)" fill="#5ae3b8" fill-rule="evenodd"/>
    <ellipse id="Ellipse_87" data-name="Ellipse 87" cx="20.082" cy="20.082" rx="20.082" ry="20.082" transform="translate(69.374 5.937)" fill="#ffe866"/>
    <g id="Group_259" data-name="Group 259" transform="translate(117.594 44.077)">
      <path id="Skin" d="M875.069,3001.176l-12.573-11.7a31.277,31.277,0,0,0-5.413-8.556c-.524-.524-1.746-1.048-1.222,1.4.7,2.445,1.222,4.889.524,5.413s-2.1-.873-2.969,0c-.7.7,1.572,2.445,6.636,5.413l8.207,12.4Z" transform="translate(-853.265 -2955.148)" fill="#ffc5cb" fill-rule="evenodd"/>
      <path id="Path_952" data-name="Path 952" d="M1027.049,2949.9c-.524,0-.873-.175-1.4-.175a9.6,9.6,0,0,0-3.842.349c-2.445.7-4.715,2.27-5.588,4.016l-1.222-.175c1.048-2.1,3.667-4.017,6.461-4.89a12.339,12.339,0,0,1,4.366-.349,2.972,2.972,0,0,1,1.222.175Z" transform="translate(-986.735 -2928.842)" fill="#727376"/>
      <path id="Path_953" data-name="Path 953" d="M971.062,2849.288a12.591,12.591,0,0,0-.524-9.08c-4.366-8.208-15.367-1.223-15.716,4.191-.524,5.239,4.54,16.065,7.858,15.541,1.222-.349,3.492-2.1,5.413-4.715l3.318,12.049,9.6-4.191Z" transform="translate(-937.035 -2836.263)" fill="#ffc5cb" fill-rule="evenodd"/>
      <path id="Hair_11" d="M954.953,2843.9c.349,1.047.524,1.921.873,2.794l1.746-.175c-.175-.349-.175-.524-.349-.7l-.524-1.572a2.623,2.623,0,0,1,3.667,1.222,2.227,2.227,0,0,1,0,2.1c.873.524,1.921,1.048,2.969,1.572,1.921-2.794,1.921-8.207-2.619-11.7a6.563,6.563,0,0,0-5.937-1.921,6.991,6.991,0,0,0-4.715,1.572,14.984,14.984,0,0,0-5.064,4.017c1.048,2.444,1.921,2.969,6.112,1.222A7.819,7.819,0,0,1,954.953,2843.9Z" transform="translate(-928.958 -2835.415)" fill="#84716b" fill-rule="evenodd"/>
      <path id="Shoe" d="M935.717,3768.08,933.971,3759h-9.255q-5.762,4.453-15.716,7.334l.349,1.746h16.414l5.588-.873v.873Z" transform="translate(-899.245 -3597.721)" fill="#d2d3d5" fill-rule="evenodd"/>
      <path id="Skin_12" d="M1210.683,3150l-7.683,1.048c8.382,17.812,12.747,27.416,13.271,28.464,1.4,2.27-.175,6.286-.873,8.382,3.143.873,2.27-3.842,6.112-2.619,3.667,1.048,6.636,3.492,10.128.524.524-.349.873-1.572-.524-2.27-3.492-1.572-8.557-4.715-9.43-5.937C1220.637,3176.019,1216.97,3166.764,1210.683,3150Z" transform="translate(-1141.906 -3095.066)" fill="#ffc5cb" fill-rule="evenodd"/>
      <path id="Coat-Back" d="M993.843,2962.571,988.953,2961c-3.318,8.382-5.937,15.018-9.954,21.129l8.731,12.4a27.484,27.484,0,0,0,6.112-8.906C995.589,2981.431,994.017,2967.635,993.843,2962.571Z" transform="translate(-957.021 -2939.07)" fill="#c5cfd6" fill-rule="evenodd"/>
      <path id="Coat-Back_13" d="M923.368,3056.224a52.167,52.167,0,0,1-10.827-5.413,83.482,83.482,0,0,1-9.6-6.811L897,3049.413c7.509,8.033,10.827,14.145,16.24,17.986Z" transform="translate(-889.34 -3007.576)" fill="#c5cfd6" fill-rule="evenodd"/>
      <path id="Path_954" data-name="Path 954" d="M994.327,2986.843a13.523,13.523,0,0,1-4.54,4.715l-.7-1.048a12.246,12.246,0,0,0,4.54-4.365c5.413-9.6-6.985-12.224-4.366,2.1l-1.048.175C985.247,2972,1000.963,2975.144,994.327,2986.843Z" transform="translate(-964.316 -2952.341)" fill="#727376"/>
      <path id="Leg_14" d="M1007.4,3218l-7.16,55.181-5.064,40.513h-8.207L984,3218Z" transform="translate(-961.148 -3151.192)" fill="#8a543d" fill-rule="evenodd"/>
      <path id="Leg_15" d="M1011.59,3218c-1.572,28.463-1.222,43.83-1.048,46.45s4.89,19.034,14.144,49.244h-8.731c-12.224-28.987-19.208-45.4-20.605-49.244S989.937,3245.241,984,3218Z" transform="translate(-961.148 -3151.192)" fill="#a86e56" fill-rule="evenodd"/>
      <path id="Shirt" d="M1000.842,3007.973c-13.621,1.572-24.273,1.572-32.131,0-1.048-.175-1.048-1.746-.7-2.794,6.985-17.288,11.874-32.13,11.874-44.179,1.222.7,3.492.873,6.636.349C995.254,2973.573,999.1,2987.717,1000.842,3007.973Z" transform="translate(-947.78 -2939.07)" fill="#95b2da" fill-rule="evenodd"/>
      <path id="Coat-Front" d="M1015.367,2956.175H1011.7c-.873,4.889-3.492,71.595-11.7,93.423h44.18c-.873-19.907-8.556-44-16.065-64.086,6.635,6.287,12.573,16.764,17.637,31.432l8.207-2.1c-6.112-26.368-18.685-45.926-37.893-58.324,0-.175,0-.175-.175-.349h-.175a.609.609,0,0,1-.349-.175Z" transform="translate(-974.354 -2934.943)" fill="#dde3e9" fill-rule="evenodd"/>
      <path id="Path_955" data-name="Path 955" d="M1089.064,2960.652c.175-4.191-1.4-6.985-2.969-8.382a13.029,13.029,0,0,0-2.1-1.222V2950a8.4,8.4,0,0,1,2.794,1.4c1.921,1.746,3.492,4.715,3.318,9.255Z" transform="translate(-1043.686 -2929.991)" fill="#727376"/>
      <path id="Path_956" data-name="Path 956" d="M1008.526,3004a2.758,2.758,0,0,1,2.794,2.794,2.725,2.725,0,0,1-2.794,2.619,2.686,2.686,0,0,1-2.619-2.619A2.725,2.725,0,0,1,1008.526,3004ZM986,3010.636l2.1-.349.175,1.047-1.921.524Zm1.572,1.746.873,1.921-1.4.524-.524-1.921Z" transform="translate(-962.799 -2974.561)" fill="#4d4d4d" fill-rule="evenodd"/>
      <path id="Shoe_16" d="M1095.368,3768.08l.174-9.081h-9.08a61.272,61.272,0,0,1-17.288,7.334l-.175,1.746h16.415l5.762-.873v.873Z" transform="translate(-1031.305 -3597.721)" fill="#d2d3d5" fill-rule="evenodd"/>
      <g id="Group_258" data-name="Group 258" transform="translate(0.5 13.373)">
        <path id="Path_957" data-name="Path 957" d="M876.222,2912l-.349.175-.873,7.16h.175Z" transform="translate(-871.682 -2912)" fill="#727376"/>
        <rect id="Rectangle_733" data-name="Rectangle 733" width="1.131" height="1.473" transform="matrix(0.99, 0.14, -0.14, 0.99, 2.988, 5.797)" fill="#95b2da"/>
        <path id="Path_958" data-name="Path 958" d="M861.143,2961h-.7l-1.921,12.922H858v.524l1.921.175v-.524H859.4Z" transform="translate(-857.651 -2952.443)" fill="#b3b3b3" fill-rule="evenodd"/>
        <path id="Path_959" data-name="Path 959" d="M862.016,2954.175l-2.1-.175L858,2967.271l2.27.349Z" transform="translate(-857.651 -2946.666)" fill="rgba(102,153,255,0.38)" fill-rule="evenodd"/>
        <path id="Path_960" data-name="Path 960" d="M858.969,3028.349,856,3028v.349l2.969.35Z" transform="translate(-856 -3007.744)" fill="#a2cdfc" fill-rule="evenodd"/>
      </g>
      <path id="Skin_17" d="M856.256,3020.607h0c-.7.524-2.1-.873-2.969,0-.7.524,1.048,1.921,4.889,4.365l.873-2.1Z" transform="translate(-853.137 -2988.025)" fill="#ffc5cb" fill-rule="evenodd"/>
      <path id="Path_961" data-name="Path 961" d="M959,2915s3.842,1.921,5.588,4.715a9.058,9.058,0,0,1,1.746,5.413s-2.27.175-4.365-2.619c-.873-.175-.873-1.048-1.222-1.746C959.873,2920.064,959.524,2917.445,959,2915Z" transform="translate(-940.514 -2901.103)" fill="#03776e" fill-rule="evenodd"/>
      <path id="Path_962" data-name="Path 962" d="M969,2943.048a3.092,3.092,0,0,0,2.619-1.048s-.873,1.921-2.27,1.572C969.175,2943.572,969.175,2943.4,969,2943.048Z" transform="translate(-948.768 -2923.388)" fill="#004c4c" fill-rule="evenodd"/>
      <path id="Path_963" data-name="Path 963" d="M976,2953.048a2.693,2.693,0,0,0,2.445-1.048s-.7,1.921-2.1,1.572C976,2953.572,976,2953.4,976,2953.048Z" transform="translate(-954.545 -2931.642)" fill="#004c4c" fill-rule="evenodd"/>
      <path id="Path_964" data-name="Path 964" d="M984,2904.937l3.842-5.937.349.175-4.016,6.112Z" transform="translate(-961.148 -2887.896)" fill="#03776e" fill-rule="evenodd"/>
      <path id="Path_965" data-name="Path 965" d="M991,2911.461l7.509-6.461.175.174-7.509,6.461Z" transform="translate(-966.926 -2892.849)" fill="#03776e" fill-rule="evenodd"/>
    </g>
  </g>
  <path id="Path_993" data-name="Path 993" d="M306.875,3507.162c-.7-2.445-3.318-4.89-5.937-4.017a4.8,4.8,0,0,0-2.794,3.492,14.244,14.244,0,0,0,0,4.715c.175,2.1.349,4.191.524,6.112a11.292,11.292,0,0,0-1.572-2.794,3.2,3.2,0,0,0-2.969-1.048,3.054,3.054,0,0,0-1.746,3.143,6.2,6.2,0,0,0,1.4,3.318,20.975,20.975,0,0,0,5.064,4.54,4.464,4.464,0,0,0-6.461,1.4,1.113,1.113,0,0,0,0,1.048c.175.524.7.7,1.222.873a35.1,35.1,0,0,0,14.144.349,4.009,4.009,0,0,0,2.445-.7,2.561,2.561,0,0,0,1.048-2.27c-.524-1.4-2.1-1.746-3.318-2.27a14.836,14.836,0,0,0,4.016-4.715c.7-1.921.349-4.54-1.222-5.763-1.048-.873-3.842-1.222-4.191.524A8.655,8.655,0,0,0,306.875,3507.162Z" transform="translate(-272.6 -3342.319)" fill="#55c0a9" fill-rule="evenodd"/>
  <path id="Path_995" data-name="Path 995" d="M744.1,2750.31H698c1.4-13.8,16.589-11.351,18.161-5.588,2.794-9.779,14.319-12.573,17.637-.7C733.8,2744.023,745.5,2741.4,744.1,2750.31Z" transform="translate(-607.497 -2709.448)" fill="#fefefe" fill-rule="evenodd"/>
  <path id="Path_996" data-name="Path 996" d="M380.272,2729.294H356c.7-7.159,8.731-5.937,9.6-2.794,1.4-5.239,7.509-6.635,9.255-.524C374.859,2725.977,380.971,2724.58,380.272,2729.294Z" transform="translate(-325.218 -2697.688)" fill="#e1ffff" fill-rule="evenodd"/>
</svg>
