<svg id="Travel_Assist_" data-name="Travel Assist " xmlns="http://www.w3.org/2000/svg" width="70" height="70" viewBox="0 0 70 70">
  <path id="Path_8630" data-name="Path 8630" d="M35,0A35,35,0,1,1,0,35,35,35,0,0,1,35,0Z" fill="#00f3bb"/>
  <path id="Icon_map-travel-agency" data-name="Icon map-travel-agency" d="M33.12,10.08H24.48V7.217c0-2.053-1.326-4.337-3.376-4.337H14.2c-2.053,0-3.4,2.285-3.4,4.337V10.08H2.88a1.444,1.444,0,0,0-1.44,1.44V32.4a1.444,1.444,0,0,0,1.44,1.44H33.12a1.444,1.444,0,0,0,1.44-1.44V11.52A1.444,1.444,0,0,0,33.12,10.08Zm-10.8,0H12.96V7.217c0-.768.778-2.177,1.546-2.177h5.8c.767,0,2.017,1.409,2.017,2.177Z" transform="translate(17 16.641)"/>
</svg>
