<svg xmlns="http://www.w3.org/2000/svg" width="498.583" height="298.34" viewBox="0 0 498.583 298.34">
  <g id="Group_8797" data-name="Group 8797" transform="translate(-945 -3137)">
    <g id="_2048746660496" transform="translate(945 3137)">
      <g id="Group_539" data-name="Group 539" transform="translate(120.111)">
        <path id="Path_2056" data-name="Path 2056" d="M376.25,3636.26l1.064.2,8.46-7.469.163-.144,14.93,8.1,10.984,5.959,2.6.493-28.624-15.535Z" transform="translate(-321.47 -3627.86)" fill="#fbb020"/>
        <path id="Path_2057" data-name="Path 2057" d="M453.28,3735.051v1.218h.809v-1.218Z" transform="translate(-362.694 -3685.226)" fill="#fbb020"/>
        <path id="Path_2058" data-name="Path 2058" d="M452.54,3724.811v4.76h1.441v-4.76Z" transform="translate(-362.298 -3679.746)" fill="#e57900"/>
        <path id="Path_2059" data-name="Path 2059" d="M290.146,4004.13l-.246.576,1.715,1.785h2.812l-2.268-2.361Z" transform="translate(-275.258 -3829.23)" fill="#fbb020"/>
        <path id="Path_2060" data-name="Path 2060" d="M300.94,4004.13l2.255,2.361h2.812l-2.259-2.361Z" transform="translate(-281.166 -3829.23)" fill="#fbb020"/>
        <path id="Path_2061" data-name="Path 2061" d="M325.91,4004.13v.288l2,2.073h2.8l-2.259-2.361Z" transform="translate(-294.53 -3829.23)" fill="#fbb020"/>
        <path id="Path_2062" data-name="Path 2062" d="M337.54,4004.13l2.268,2.361h2.8l-2.259-2.361Z" transform="translate(-300.754 -3829.23)" fill="#fbb020"/>
        <path id="Path_2063" data-name="Path 2063" d="M289.017,4005.371l-.767,1.785h2.482Z" transform="translate(-274.375 -3829.894)" fill="#e57900"/>
        <path id="Path_2064" data-name="Path 2064" d="M294.76,4004.13l2.268,2.361h2.859l-2.254-2.361Z" transform="translate(-277.859 -3829.23)" fill="#e57900"/>
        <path id="Path_2065" data-name="Path 2065" d="M306.98,4004.13l2.259,2.361v-2.361Z" transform="translate(-284.399 -3829.23)" fill="#e57900"/>
        <path id="Path_2066" data-name="Path 2066" d="M325.91,4004.751v2.072h2Z" transform="translate(-294.53 -3829.562)" fill="#e57900"/>
        <path id="Path_2067" data-name="Path 2067" d="M331.38,4004.13l2.259,2.361h2.873l-2.268-2.361Z" transform="translate(-297.457 -3829.23)" fill="#e57900"/>
        <path id="Path_2068" data-name="Path 2068" d="M343.58,4004.13l2.259,2.361h.93l-1-2.361Z" transform="translate(-303.986 -3829.23)" fill="#e57900"/>
        <path id="Path_2069" data-name="Path 2069" d="M305.9,4025.77v1.417h12.058v-1.417Z" transform="translate(-283.821 -3840.811)" fill="#161617"/>
        <path id="Path_2070" data-name="Path 2070" d="M258.4,4025.77v1.417h12.058v-1.417Z" transform="translate(-258.4 -3840.811)" fill="#161617"/>
        <path id="Path_2071" data-name="Path 2071" d="M353.59,4025.77v1.417h12.058v-1.417Z" transform="translate(-309.343 -3840.811)" fill="#161617"/>
        <path id="Path_2072" data-name="Path 2072" d="M313.4,3976.782a1.738,1.738,0,1,1,1.738,1.748A1.735,1.735,0,0,1,313.4,3976.782Zm1.738,9.39a1.952,1.952,0,1,1,1.952-1.953A1.952,1.952,0,0,1,315.136,3986.173Zm-2.287,6.079a2.287,2.287,0,1,1,2.287,2.288A2.291,2.291,0,0,1,312.849,3992.252Zm-1-3.1v7.693h6.54v-25.12h-6.54v17.422Z" transform="translate(-287.005 -3811.885)" fill="#e57900"/>
        <path id="Path_2073" data-name="Path 2073" d="M277.312,3971.73l-10.742,25.119h6.786l3.291-7.7.767-1.785.246-.577,4.309-10.1h5.643v-4.964Z" transform="translate(-262.772 -3811.889)" fill="#ff9500"/>
        <path id="Path_2074" data-name="Path 2074" d="M325.91,3971.73v4.964h6.08l4.314,10.1h.009l1,2.361,3.291,7.7h6.787l-10.742-25.119Z" transform="translate(-294.53 -3811.889)" fill="#ff9500"/>
        <path id="Path_2075" data-name="Path 2075" d="M296.28,3964.96v.829l2.319,2.32h2.859l-3.138-3.148Z" transform="translate(-278.672 -3808.267)" fill="#fbb020"/>
        <path id="Path_2076" data-name="Path 2076" d="M306.72,3964.96l3.138,3.148h2.859l-3.138-3.148Z" transform="translate(-284.259 -3808.267)" fill="#fbb020"/>
        <path id="Path_2077" data-name="Path 2077" d="M318.92,3964.96l3.138,3.148h2.859l-3.138-3.148Z" transform="translate(-290.789 -3808.267)" fill="#fbb020"/>
        <path id="Path_2078" data-name="Path 2078" d="M331.12,3964.96l3.138,3.148h2.352v-.521l-2.631-2.627Z" transform="translate(-297.318 -3808.267)" fill="#fbb020"/>
        <path id="Path_2079" data-name="Path 2079" d="M296.28,3966.74v2.319H298.6Z" transform="translate(-278.672 -3809.219)" fill="#e57900"/>
        <path id="Path_2080" data-name="Path 2080" d="M300.67,3964.96l3.138,3.148h2.812l-3.138-3.148Z" transform="translate(-281.022 -3808.267)" fill="#e57900"/>
        <path id="Path_2081" data-name="Path 2081" d="M312.87,3964.96l3.138,3.148h2.812l-3.138-3.148Z" transform="translate(-287.551 -3808.267)" fill="#e57900"/>
        <path id="Path_2082" data-name="Path 2082" d="M325.07,3964.96l3.138,3.148h2.812l-3.138-3.148Z" transform="translate(-294.08 -3808.267)" fill="#e57900"/>
        <path id="Path_2083" data-name="Path 2083" d="M337.27,3964.96l2.631,2.627v-2.627Z" transform="translate(-300.609 -3808.267)" fill="#e57900"/>
        <path id="Path_2084" data-name="Path 2084" d="M318.185,3944.2H309.2v-.808h8.985Z" transform="translate(-285.587 -3796.723)" fill="#ff9500"/>
        <path id="Path_2085" data-name="Path 2085" d="M318.185,3918.06H309.2v-.81h8.985Z" transform="translate(-285.587 -3782.734)" fill="#ff9500"/>
        <path id="Path_2086" data-name="Path 2086" d="M318.185,3891.9H309.2v-.808h8.985Z" transform="translate(-285.587 -3768.735)" fill="#ff9500"/>
        <path id="Path_2087" data-name="Path 2087" d="M318.185,3865.749H309.2v-.818h8.985Z" transform="translate(-285.587 -3754.734)" fill="#ff9500"/>
        <path id="Path_2088" data-name="Path 2088" d="M318.185,3839.6H309.2v-.809h8.985Z" transform="translate(-285.587 -3740.744)" fill="#ff9500"/>
        <path id="Path_2089" data-name="Path 2089" d="M318.185,3813.439H309.2v-.809h8.985Z" transform="translate(-285.587 -3726.744)" fill="#ff9500"/>
        <path id="Path_2090" data-name="Path 2090" d="M306.59,3792.8v80.025H307.8V3792.8Z" transform="translate(-284.19 -3716.132)" fill="#e57900"/>
        <path id="Path_2091" data-name="Path 2091" d="M328.53,3863.608v9.217h1.213V3792.8H328.53Z" transform="translate(-295.932 -3716.132)" fill="#e57900"/>
        <path id="Path_2092" data-name="Path 2092" d="M302.96,3788.36v2.064h15.06v-2.064Z" transform="translate(-282.247 -3713.755)" fill="#41383d"/>
        <path id="Path_2093" data-name="Path 2093" d="M277.54,3782.851v1.948l1.371-1.948Z" transform="translate(-268.643 -3710.807)" fill="#fbb020"/>
        <path id="Path_2094" data-name="Path 2094" d="M285.3,3782.851l-1.8,2.562h2.473l1.8-2.562Z" transform="translate(-271.833 -3710.807)" fill="#fbb020"/>
        <path id="Path_2095" data-name="Path 2095" d="M297.5,3782.851l-1.8,2.562h2.473l1.8-2.562Z" transform="translate(-278.362 -3710.807)" fill="#fbb020"/>
        <path id="Path_2096" data-name="Path 2096" d="M309.7,3782.851l-1.8,2.562h2.473l1.8-2.562Z" transform="translate(-284.891 -3710.807)" fill="#fbb020"/>
        <path id="Path_2097" data-name="Path 2097" d="M277.54,3784.8v.614h2.77l1.8-2.562h-3.2Z" transform="translate(-268.643 -3710.807)" fill="#ff9500"/>
        <path id="Path_2098" data-name="Path 2098" d="M290.619,3782.851l-1.8,2.562h3.2l1.8-2.562Z" transform="translate(-274.68 -3710.807)" fill="#ff9500"/>
        <path id="Path_2099" data-name="Path 2099" d="M302.819,3782.851l-1.8,2.562h3.2l1.8-2.562Z" transform="translate(-281.209 -3710.807)" fill="#ff9500"/>
        <path id="Path_2100" data-name="Path 2100" d="M315.019,3782.851l-1.8,2.562H315.2v-2.562Z" transform="translate(-287.738 -3710.807)" fill="#ff9500"/>
        <path id="Path_2101" data-name="Path 2101" d="M285.235,3754.3a.581.581,0,0,0,.042.237h1.195a.574.574,0,0,0,.051-.237.646.646,0,1,0-1.292,0Z" transform="translate(-272.759 -3695.18)" fill="#41383d"/>
        <path id="Path_2102" data-name="Path 2102" d="M311.779,3721.11l-1.329.247a.683.683,0,1,0,1.325-.242Z" transform="translate(-286.256 -3677.765)" fill="#41383d"/>
        <path id="Path_2103" data-name="Path 2103" d="M320.114,3711.16a.606.606,0,0,0-.6.6.609.609,0,1,0,1.218,0A.605.605,0,0,0,320.114,3711.16Z" transform="translate(-291.104 -3672.44)" fill="#41383d"/>
        <path id="Path_2104" data-name="Path 2104" d="M376.989,3647.62a.413.413,0,0,0-.409.409.409.409,0,0,0,.818,0A.413.413,0,0,0,376.989,3647.62Z" transform="translate(-321.647 -3638.435)" fill="#41383d"/>
        <path id="Path_2105" data-name="Path 2105" d="M389.328,3654.861a.427.427,0,1,0,0,.855.428.428,0,1,0,0-.855Z" transform="translate(-328.24 -3642.311)" fill="#41383d"/>
        <path id="Path_2106" data-name="Path 2106" d="M448.134,3662.921a.6.6,0,0,0-.614.6.609.609,0,1,0,1.218,0A.6.6,0,0,0,448.134,3662.921Z" transform="translate(-359.612 -3646.624)" fill="#41383d"/>
        <path id="Path_2107" data-name="Path 2107" d="M367.5,3655.478l-2.389,2.576,4.118-.879.009.009,2.064-2.524Z" transform="translate(-315.508 -3642.203)" fill="#e57900"/>
        <path id="Path_2108" data-name="Path 2108" d="M351.34,3672.679l5-1.064,2.068-2.515-4.662.99h-.009Z" transform="translate(-308.139 -3649.931)" fill="#e57900"/>
        <path id="Path_2109" data-name="Path 2109" d="M340.679,3683.987l-2.389,2.585,5.8-1.237,2.078-2.514Z" transform="translate(-301.155 -3657.274)" fill="#e57900"/>
        <path id="Path_2110" data-name="Path 2110" d="M325.32,3700.354l6.619-1.408h.009l2.064-2.515-6.294,1.338h-.009Z" transform="translate(-294.214 -3664.557)" fill="#e57900"/>
        <path id="Path_2111" data-name="Path 2111" d="M310.458,3712.581l-3.258.674,5.661,2.719v.009l.665-.12-2.045-2.668a1.907,1.907,0,0,1-.442-.735Z" transform="translate(-284.517 -3673.136)" fill="#e57900"/>
        <path id="Path_2112" data-name="Path 2112" d="M290.63,3716.952l.1.357h.009l4.751,2.287,1.766-.316,1.646-.3-5.466-2.612Z" transform="translate(-275.649 -3675.229)" fill="#e57900"/>
        <path id="Path_2113" data-name="Path 2113" d="M282.05,3764.881v1.86h.786v-.009l3.026-8.432v-.009h-1.38Z" transform="translate(-271.057 -3697.663)" fill="#c6e8f8"/>
        <path id="Path_2114" data-name="Path 2114" d="M287.7,3766.732v.009h3.2l2-6.122v-2.329h-2.259Z" transform="translate(-274.081 -3697.663)" fill="#c6e8f8"/>
        <path id="Path_2115" data-name="Path 2115" d="M325.32,3761.141v4.007l3.44-9.608h-1.376Z" transform="translate(-294.214 -3696.192)" fill="#c6e8f8"/>
        <path id="Path_2116" data-name="Path 2116" d="M327.95,3766.882H331.2l1.948-5.968v-5.374h-1.246Z" transform="translate(-295.621 -3696.192)" fill="#c6e8f8"/>
        <path id="Path_2117" data-name="Path 2117" d="M282.05,3758.291v6.591l2.431-6.591Z" transform="translate(-271.057 -3697.663)" fill="#9ad8f3"/>
        <path id="Path_2118" data-name="Path 2118" d="M283.74,3766.732v.009h1.841v-.009l2.942-8.441h-1.757v.009Z" transform="translate(-271.961 -3697.663)" fill="#9ad8f3"/>
        <path id="Path_2119" data-name="Path 2119" d="M296.583,3763.3l-2,6.121h2Z" transform="translate(-277.763 -3700.344)" fill="#9ad8f3"/>
        <path id="Path_2120" data-name="Path 2120" d="M277.21,3713.88c0,.3,1.32,6.368,1.32,6.368l8.451-2.166a4.364,4.364,0,0,0,3.1-3.319v-.032l-1.766.316-3.853.692-.9-2.984h-.009l-.1-.358,2.808-.581,3.375-.707-.632-3.248-7.962,1.687a4.369,4.369,0,0,0-3.821,4.333Z" transform="translate(-268.467 -3670.675)" fill="#ff9500"/>
        <path id="Path_2121" data-name="Path 2121" d="M280.418,3765.269v-8.45h7.828v8.45Zm2.719-9.728H279v12.69h10.956v-12.69h-6.814Z" transform="translate(-269.425 -3696.192)" fill="#ff9500"/>
        <path id="Path_2122" data-name="Path 2122" d="M285.922,3752.3a1.379,1.379,0,0,0-.758-.358,1.755,1.755,0,0,0-.214-.018,1.443,1.443,0,0,0-1.45,1.45,1.019,1.019,0,0,0,.019.237h.827a.567.567,0,0,1-.042-.237.646.646,0,0,1,1.292,0,.587.587,0,0,1-.051.237h.837a2.026,2.026,0,0,0,.019-.237,1.43,1.43,0,0,0-.479-1.074Z" transform="translate(-271.833 -3694.254)" fill="#e57900"/>
        <path id="Path_2123" data-name="Path 2123" d="M287.09,3736.624v.009a1.379,1.379,0,0,1,.758.359l10.138-13.089.019-.042a1.4,1.4,0,0,1-.623-.54l-10.291,13.3Z" transform="translate(-273.754 -3678.948)" fill="#e57900"/>
        <path id="Path_2124" data-name="Path 2124" d="M290.87,3718.39l.9,2.984,3.853-.7Z" transform="translate(-275.777 -3676.31)" fill="#fbb020"/>
        <path id="Path_2125" data-name="Path 2125" d="M303.075,3717.642l1.329-.246.8-.139,2.022-.358v-.009l-5.662-2.719-1.52.316-3.375.707,5.466,2.612.144-.018Z" transform="translate(-278.881 -3674.052)" fill="#fbb020"/>
        <path id="Path_2126" data-name="Path 2126" d="M302.56,3757.28v11.885h6.94V3757.28Z" transform="translate(-282.033 -3697.122)" fill="#983421"/>
        <path id="Path_2127" data-name="Path 2127" d="M309.5,3756.349h-6.94v-.809h6.94Z" transform="translate(-282.033 -3696.192)" fill="#fbb020"/>
        <path id="Path_2128" data-name="Path 2128" d="M309.535,3721.191l-.795.144a1.327,1.327,0,0,0,.223.632,1.366,1.366,0,0,0,.623.539,1.351,1.351,0,0,0,.632.154,1.419,1.419,0,0,0,.376-.052,1.487,1.487,0,0,0,1.116-1.441,1.433,1.433,0,0,0-.051-.367l-.795.144a.86.86,0,0,1,.042.223.683.683,0,0,1-1.367.019Z" transform="translate(-285.341 -3677.599)" fill="#e57900"/>
        <path id="Path_2129" data-name="Path 2129" d="M317.216,3709.365a.609.609,0,0,1,1.218,0,.609.609,0,1,1-1.218,0Zm-1.357-2.125a1.988,1.988,0,0,0-.521,2.125,1.911,1.911,0,0,0,.442.734l2.045,2.668,1.45,1.869v.009l6.131,7.949.53-3.667,2.045-3.156-6.15-5.62-3.105-2.831a.468.468,0,0,0-.1-.084,2,2,0,0,0-2.756,0Z" transform="translate(-288.81 -3670.046)" fill="#e57900"/>
        <path id="Path_2130" data-name="Path 2130" d="M322.352,3765.485H321.13v-11.342h6.424v-1.213H317.49V3769.4h10.064v-3.915Z" transform="translate(-290.023 -3694.795)" fill="#fbb020"/>
        <path id="Path_2131" data-name="Path 2131" d="M322.515,3704.648a.351.351,0,0,1,.1.083l3.105,2.832,4.709-5.722-6.624,1.408-1.288,1.389-.009.01Z" transform="translate(-292.71 -3667.452)" fill="#fbb020"/>
        <path id="Path_2132" data-name="Path 2132" d="M325.32,3765.148v1.733h1.222l3.956-11.341H328.76Z" transform="translate(-294.214 -3696.192)" fill="#9ad8f3"/>
        <path id="Path_2133" data-name="Path 2133" d="M325.32,3755.541v5.6l2.064-5.6Z" transform="translate(-294.214 -3696.192)" fill="#9ad8f3"/>
        <path id="Path_2134" data-name="Path 2134" d="M334.1,3689.467l-3.616,3.914,6.294-1.339,3.138-3.812-5.8,1.236Z" transform="translate(-296.975 -3660.169)" fill="#fbb020"/>
        <path id="Path_2135" data-name="Path 2135" d="M336.9,3767.1l-1.948,5.969H336.9Z" transform="translate(-299.367 -3702.378)" fill="#9ad8f3"/>
        <path id="Path_2136" data-name="Path 2136" d="M359.15,3662.2l-1.092-.242-19.3,29.88L336.708,3695l-.53,3.668v.009l-.818,5.573h1.757v11.472l25.119-52.809-1.041-.232Z" transform="translate(-299.587 -3646.11)" fill="#ff9500"/>
        <path id="Path_2137" data-name="Path 2137" d="M343.43,3679.54l5.49-1.167,3.184-3.862-5,1.064Z" transform="translate(-303.906 -3652.826)" fill="#fbb020"/>
        <path id="Path_2138" data-name="Path 2138" d="M360.508,3660.948l-4,4.309,4.662-.99,3.463-4.187-.009-.009Z" transform="translate(-310.906 -3645.098)" fill="#fbb020"/>
        <path id="Path_2139" data-name="Path 2139" d="M372.672,3650.791l-2.422,2.616,3.8-.818,1.1-1.329C373.62,3650.962,372.672,3650.791,372.672,3650.791Z" transform="translate(-318.259 -3640.132)" fill="#fbb020"/>
        <path id="Path_2140" data-name="Path 2140" d="M408.629,3654.427a.609.609,0,1,1,.614.614A.613.613,0,0,1,408.629,3654.427Zm-32.975-7.307a.409.409,0,1,1,.818,0,.409.409,0,0,1-.818,0Zm-.153-1.195a1.705,1.705,0,0,0-.367,2.259s.948.172,2.482.469c.646.112,1.39.256,2.217.409v.009c1.3.237,2.78.512,4.365.809,5.875,1.092,12.987,2.413,16.125,2.965,2.7.469,5.294,1.483,6.549,2.729a3.3,3.3,0,0,0,2.268,1.287,2.623,2.623,0,0,0,2.259-1.287s.144-.275.316-.614c.2-.419.469-.93.562-1.1l3.035.572.307-1.013-1.92-.358-2.594-.492-11.709-2.19-15.8-2.942-7.028-1.32-1.064-.2Z" transform="translate(-320.72 -3637.525)" fill="#ff9500"/>
        <path id="Path_2141" data-name="Path 2141" d="M386.8,3654.132a.429.429,0,0,1,.428-.427.428.428,0,1,1,0,.855A.429.429,0,0,1,386.8,3654.132Zm-.99,1.451a2.3,2.3,0,0,0,1.5.553,2.4,2.4,0,0,0,1-.223,2.334,2.334,0,0,0,1.329-2.106c0-.1-.009-.2-.019-.3-1.585-.3-3.063-.571-4.365-.809a2.372,2.372,0,0,0-.274,1.1,2.3,2.3,0,0,0,.827,1.776Z" transform="translate(-326.142 -3641.154)" fill="#e57900"/>
        <path id="Path_2142" data-name="Path 2142" d="M386.08,3659.812a1.392,1.392,0,0,0,.214.757l2.045.469a1.446,1.446,0,0,0,.674-1.227,1.527,1.527,0,0,0-.112-.572v-.009a2.347,2.347,0,0,1-1,.223,2.3,2.3,0,0,1-1.5-.553,1.408,1.408,0,0,0-.316.911Z" transform="translate(-326.731 -3644.472)" fill="#983421"/>
        <path id="Path_2143" data-name="Path 2143" d="M302.521,3768.225h-.511v-12.7h.511Z" transform="translate(-281.739 -3696.186)" fill="#fbc220"/>
        <path id="Path_2144" data-name="Path 2144" d="M314.678,3737.8l.748-.158-2.733-13.117-.753.158Z" transform="translate(-287.053 -3679.59)" fill="#983421"/>
        <path id="Path_2145" data-name="Path 2145" d="M325.952,3737.314l.748-.158-2.822-13.536-.748.158Z" transform="translate(-293.042 -3679.109)" fill="#983421"/>
        <path id="Path_2146" data-name="Path 2146" d="M313.593,3727.63l5.085-.958-.093-.5-5.085.958Z" transform="translate(-287.888 -3680.473)" fill="#983421"/>
        <path id="Path_2147" data-name="Path 2147" d="M316.658,3743.01l5.085-.958-.093-.5-5.09.958Z" transform="translate(-289.526 -3688.705)" fill="#983421"/>
        <path id="Path_2148" data-name="Path 2148" d="M309.939,3722.831a1.744,1.744,0,0,0,1.743-1.743,1.675,1.675,0,0,0-.056-.436l-.493.13a1.285,1.285,0,0,1,.037.307,1.235,1.235,0,0,1-2.464.135l-.507.052a1.737,1.737,0,0,0,1.738,1.562Z" transform="translate(-285.052 -3677.52)" fill="#ff9500"/>
        <path id="Path_2149" data-name="Path 2149" d="M280.053,3728.2l6.549-1.636,1.631-.427a4.582,4.582,0,0,0,1.557-.679,4.423,4.423,0,0,0,1.836-2.775l-.074-.014a4.963,4.963,0,0,1-2.1,2.291,4.526,4.526,0,0,1-1.4.479l-1.645.382a31.218,31.218,0,0,0-6.377,2.3l.019.074Z" transform="translate(-269.976 -3678.6)" fill="#e57900"/>
        <path id="Path_2150" data-name="Path 2150" d="M289.638,3711.047l-.632-3.254,0-.033-.033,0-7.962,1.673h0a4.4,4.4,0,0,0-2.784,1.506,4.342,4.342,0,0,0-1.051,2.98c.4,2.1.865,4.183,1.311,6.27l.051-.009-.451-3.175c-.172-1.046-.367-2.124-.5-3.138a3.987,3.987,0,0,1,3.486-3.932l.023,0h.014l3.97-.9c.665-.139,1.315-.325,1.976-.488l1.976-.5-.3-.2c.274,1.073.572,2.142.86,3.211l.051-.009Z" transform="translate(-268.446 -3670.621)" fill="#fbc220"/>
        <path id="Path_2151" data-name="Path 2151" d="M292.795,3722.041l13.029-2.344-.139-.757-13.024,2.343Z" transform="translate(-276.735 -3676.603)" fill="#e57900"/>
        <path id="Path_2152" data-name="Path 2152" d="M290.622,3714.807l11.551-2.4-.107-.5-11.546,2.4Z" transform="translate(-275.59 -3672.842)" fill="#fbc220"/>
        <path id="Path_2153" data-name="Path 2153" d="M329.37,3680.852l24.208-29.3-1.213-.214-23.785,28.866Z" transform="translate(-295.958 -3640.426)" fill="#e57900"/>
        <path id="Path_2154" data-name="Path 2154" d="M322.527,3677.273l24.6-26.524-.376-.349-24.6,26.523Z" transform="translate(-292.517 -3639.923)" fill="#fbc220"/>
        <path id="Path_2155" data-name="Path 2155" d="M324.416,3722.321l.809-.623-9.622-12.509a1.546,1.546,0,0,1-.446-1.125,1.526,1.526,0,0,1,.474-1.06,1.476,1.476,0,0,1,1.083-.414,1.507,1.507,0,0,1,1.06.474l9.283,8.473.688-.753-9.255-8.451a2.535,2.535,0,0,0-3.658,3.51l9.589,12.467Z" transform="translate(-288.229 -3669.447)" fill="#ff9500"/>
        <path id="Path_2156" data-name="Path 2156" d="M335.3,3704.209l1.339-9.143,21.391-33.087-1.009-.209L335.661,3694.7l-.019.111-1.353,9.25Z" transform="translate(-299.014 -3646.009)" fill="#fbc220"/>
        <path id="Path_2157" data-name="Path 2157" d="M339.15,3717.885l25.584-53.92-.971-.214-24.613,51.735Z" transform="translate(-301.615 -3647.068)" fill="#e57900"/>
        <path id="Path_2158" data-name="Path 2158" d="M453.62,3692.374h.511V3664.21l-.511.962Z" transform="translate(-362.876 -3647.313)"/>
        <path id="Path_2159" data-name="Path 2159" d="M393.632,3638.878l1.594-8.919-.5-.089-1.594,8.92Z" transform="translate(-330.504 -3628.936)" fill="#983421"/>
        <path id="Path_2160" data-name="Path 2160" d="M427.627,3650.869l.72-4.03-.507-.089-.72,4.026Z" transform="translate(-348.694 -3637.97)" fill="#983421"/>
        <path id="Path_2161" data-name="Path 2161" d="M385.216,3652.635a2.358,2.358,0,1,0,4.407.823l-.051,0a2.5,2.5,0,0,1-.934,1.724,2.138,2.138,0,0,1-3.128-.586,1.952,1.952,0,0,1-.311-.9,2.521,2.521,0,0,1,.06-1.045l-.047-.024Z" transform="translate(-326.113 -3641.116)" fill="#d64c00"/>
        <path id="Path_2162" data-name="Path 2162" d="M378.563,3637.047l8.627-7.6-.046,0,25.923,14.052.023-.047c-2.115-1.25-4.211-2.547-6.354-3.751-2.134-1.222-4.262-2.449-6.419-3.621s-4.29-2.4-6.461-3.541l-6.508-3.463-.246-.13-.2.181-4.221,3.9c-1.394,1.316-2.77,2.654-4.156,3.979l.032.037Z" transform="translate(-322.69 -3628.443)" fill="#e57900"/>
        <path id="Path_2163" data-name="Path 2163" d="M455.6,3729.56h-.511v-4.76h.511Z" transform="translate(-363.663 -3679.74)" fill="#fbb020"/>
        <path id="Path_2164" data-name="Path 2164" d="M452.511,3729.56H452v-4.76h.511Z" transform="translate(-362.009 -3679.74)" fill="#c60"/>
        <path id="Path_2165" data-name="Path 2165" d="M327.521,3752.839l-10.064-.018h-.037v16.556h.037l10.064-.013v-.051l-5.029-.223-5.034-.13.386.381.074-8.237-.074-8.241-.386.381,5.034-.13,5.029-.228Z" transform="translate(-289.986 -3694.736)" fill="#e57900"/>
        <path id="Path_2166" data-name="Path 2166" d="M289.612,3766.452h-7.577v-8.186h7.577Zm-7.832.255h8.088v-8.7H281.78Z" transform="translate(-270.912 -3697.513)" fill="#fbc220"/>
        <path id="Path_2167" data-name="Path 2167" d="M324.77,3766.828h6.684v-.511h-6.173v-10.834h6.173v-.511H324.77Z" transform="translate(-293.919 -3695.886)" fill="#e57900"/>
        <path id="Path_2168" data-name="Path 2168" d="M452.676,3737.619c-.014-.092.019,0,.014.038a.865.865,0,0,1-.009.185,2.556,2.556,0,0,1-.125.442c-.056.163-.135.265-.232.539a1,1,0,0,0,.065.734.918.918,0,0,0,1.143.484,1.116,1.116,0,0,0,.544-.972c-.107.335-.33.679-.623.725a.536.536,0,0,1-.586-.432c-.051-.27.084-.334.363-.711a3.188,3.188,0,0,0,.307-.543,1.735,1.735,0,0,0,.107-.34.978.978,0,0,0,0-.5l-.962.344Z" transform="translate(-362.16 -3686.414)"/>
        <path id="Path_2169" data-name="Path 2169" d="M454.077,3737.617H452.91v-.506h1.167Z" transform="translate(-362.496 -3686.328)"/>
        <path id="Path_2170" data-name="Path 2170" d="M309.19,3825.683l8.985-11.342-.4-.321-8.985,11.347Z" transform="translate(-285.367 -3727.488)" fill="#983421"/>
        <path id="Path_2171" data-name="Path 2171" d="M317.775,3825.683l.4-.316-8.985-11.347-.4.321Z" transform="translate(-285.367 -3727.488)" fill="#983421"/>
        <path id="Path_2172" data-name="Path 2172" d="M309.19,3851.843l8.985-11.346-.4-.317-8.985,11.347Z" transform="translate(-285.367 -3741.488)" fill="#983421"/>
        <path id="Path_2173" data-name="Path 2173" d="M317.775,3851.843l.4-.315-8.985-11.347-.4.317Z" transform="translate(-285.367 -3741.488)" fill="#983421"/>
        <path id="Path_2174" data-name="Path 2174" d="M309.19,3877.993l8.985-11.346-.4-.316-8.985,11.347Z" transform="translate(-285.367 -3755.483)" fill="#983421"/>
        <path id="Path_2175" data-name="Path 2175" d="M317.775,3877.993l.4-.315-8.985-11.347-.4.316Z" transform="translate(-285.367 -3755.483)" fill="#983421"/>
        <path id="Path_2176" data-name="Path 2176" d="M309.19,3904.143l8.985-11.347-.4-.316-8.985,11.346Z" transform="translate(-285.367 -3769.477)" fill="#983421"/>
        <path id="Path_2177" data-name="Path 2177" d="M317.775,3904.143l.4-.317-8.985-11.346-.4.316Z" transform="translate(-285.367 -3769.477)" fill="#983421"/>
        <path id="Path_2178" data-name="Path 2178" d="M309.19,3930.293l8.985-11.347-.4-.316-8.985,11.347Z" transform="translate(-285.367 -3783.472)" fill="#983421"/>
        <path id="Path_2179" data-name="Path 2179" d="M317.775,3930.293l.4-.316-8.985-11.347-.4.316Z" transform="translate(-285.367 -3783.472)" fill="#983421"/>
        <path id="Path_2180" data-name="Path 2180" d="M313.209,3954.319l7.117-9.217-.409-.312-7.116,9.217Z" transform="translate(-287.513 -3797.473)" fill="#983421"/>
        <path id="Path_2181" data-name="Path 2181" d="M316.274,3954.319l.4-.32-7.484-9.218-.4.321Z" transform="translate(-285.367 -3797.467)" fill="#983421"/>
        <path id="Path_2182" data-name="Path 2182" d="M320.4,3801.99l.414-.3-6.684-9.217-.414.3Z" transform="translate(-288.006 -3715.955)" fill="#983421"/>
        <path id="Path_2183" data-name="Path 2183" d="M309.194,3801.99l6.652-9.222-.414-.3-6.652,9.217Z" transform="translate(-285.362 -3715.955)" fill="#983421"/>
        <path id="Path_2184" data-name="Path 2184" d="M295.75,3967.8h.507v-2.881h21.168v2.881h.511v-3.393H295.75Z" transform="translate(-278.389 -3807.972)" fill="#fbc220"/>
        <path id="Path_2185" data-name="Path 2185" d="M416.126,3654.24l.386-1.288-.279-.051-39.919-7.46-.423.39,39.966,7.521-.218.739Z" transform="translate(-321.277 -3637.269)" fill="#fbb020"/>
        <path id="Path_2186" data-name="Path 2186" d="M375.474,3645.86a1.844,1.844,0,0,0-.641,1.074,1.749,1.749,0,0,0,.265,1.222l0,.01.014,0,18.779,3.523,4.7.855a29.728,29.728,0,0,1,4.648,1.041,9.474,9.474,0,0,1,4.049,2.408,2.589,2.589,0,0,0,2.175.832,2.7,2.7,0,0,0,1.952-1.288h0l.869-1.71-.028.014,3.04.572.009-.047-3.017-.688-.1-.023-.051.093-.939,1.687,0-.014a2.479,2.479,0,0,1-1.78,1.106,2.25,2.25,0,0,1-1.9-.8c-.27-.255-.539-.571-.879-.841a7.724,7.724,0,0,0-1.027-.711,12.713,12.713,0,0,0-2.24-1.009,29.635,29.635,0,0,0-4.7-1.1c-1.566-.283-3.128-.6-4.695-.874l-9.408-1.663c-3.142-.516-6.28-1.06-9.436-1.511l.079.056a1.657,1.657,0,0,1-.293-1.129,1.758,1.758,0,0,1,.576-1.051l-.033-.037Z" transform="translate(-320.698 -3637.493)" fill="#e57900"/>
        <path id="Path_2187" data-name="Path 2187" d="M302.42,3790.675H318v-2.315h-.511v1.8H302.931v-1.8h-.511Z" transform="translate(-281.958 -3713.755)" fill="#666264"/>
        <path id="Path_2188" data-name="Path 2188" d="M317.655,3812.889h-8.474v-.3h8.474Zm-8.985.511h9.492v-1.321H308.67Z" transform="translate(-285.303 -3726.449)" fill="#ff9500"/>
        <path id="Path_2189" data-name="Path 2189" d="M317.655,3839.039h-8.474v-.3h8.474Zm-8.985.511h9.492v-1.32H308.67Z" transform="translate(-285.303 -3740.444)" fill="#ff9500"/>
        <path id="Path_2190" data-name="Path 2190" d="M317.655,3865.189h-8.474v-.3h8.474Zm-8.985.512h9.492v-1.32H308.67Z" transform="translate(-285.303 -3754.439)" fill="#ff9500"/>
        <path id="Path_2191" data-name="Path 2191" d="M317.655,3891.34h-8.474v-.3h8.474Zm-8.985.511h9.492v-1.32H308.67Z" transform="translate(-285.303 -3768.434)" fill="#ff9500"/>
        <path id="Path_2192" data-name="Path 2192" d="M317.655,3917.49h-8.474v-.3h8.474Zm-8.985.511h9.492v-1.32H308.67Z" transform="translate(-285.303 -3782.428)" fill="#ff9500"/>
        <path id="Path_2193" data-name="Path 2193" d="M317.655,3943.65h-8.474v-.3h8.474Zm-8.985.511h9.492v-1.32H308.67Z" transform="translate(-285.303 -3796.429)" fill="#ff9500"/>
      </g>
      <g id="Group_540" data-name="Group 540" transform="translate(2.329 107.124)">
        <path id="Path_2194" data-name="Path 2194" d="M65.51,3949.854H70.1v-1.483H65.51Z" transform="translate(-37.388 -3906.513)" fill="#983421"/>
        <path id="Path_2195" data-name="Path 2195" d="M342.223,3937.01l-5.359,17.948H332.88l4.221-13.277,4.328-3.955h.014Z" transform="translate(-180.477 -3900.433)" fill="#515151"/>
        <path id="Path_2196" data-name="Path 2196" d="M354.962,3873.728l5.2,17.306-3.5,3.389-6.5-21.582Z" transform="translate(-189.725 -3866.091)" fill="#515151"/>
        <path id="Path_2197" data-name="Path 2197" d="M350.595,3889.285l1.39,4.648-3.932,1.176-3.244-10.784-2.036-6.791-2.724-9.079-1.218-4.035,3.928-1.18,1.339,4.463Z" transform="translate(-183.661 -3860.954)" fill="#e57900"/>
        <path id="Path_2198" data-name="Path 2198" d="M147.487,3924.893l4,13.289,1.934,6.419,2.487,8.3-3.919,1.175-2.115-7.036-4.128-13.7-2.993-9.952,3.932-1.176Z" transform="translate(-78.725 -3892.512)" fill="#e57900"/>
        <path id="Path_2199" data-name="Path 2199" d="M132.265,3928.759a4.875,4.875,0,0,0,4.8-4.049l.065.014,2.989,9.952h-5.782l-2.078-5.917Z" transform="translate(-73.111 -3893.85)" fill="#515151"/>
        <path id="Path_2200" data-name="Path 2200" d="M142.527,3946.15l4.128,13.7H136.74v-13.7Z" transform="translate(-75.508 -3905.324)" fill="#848484"/>
        <path id="Path_2201" data-name="Path 2201" d="M126.651,3912.435a4.879,4.879,0,0,1,4.871,4.885,5.849,5.849,0,0,1-.065.818,4.879,4.879,0,1,1-4.8-5.708Z" transform="translate(-67.497 -3887.278)" fill="#848484"/>
        <path id="Path_2202" data-name="Path 2202" d="M113,3916.717V3941.2l-5.755,7.632V3911.3H113Z" transform="translate(-59.726 -3886.674)" fill="#515151"/>
        <path id="Path_2203" data-name="Path 2203" d="M238.355,3980.966l17.8-5.346h26.058v8.7a11.889,11.889,0,0,0-7.6-2.738h-22.47a11.776,11.776,0,0,0-6.089,1.683h-15.3l7.6-2.288Z" transform="translate(-125.825 -3921.096)" fill="#848484"/>
        <path id="Path_2204" data-name="Path 2204" d="M132.988,3982.653l3.918-1.176,5.48.86a10.673,10.673,0,0,0-1.906.911H107.25l5.755-7.637h17.868l2.12,7.042Z" transform="translate(-59.726 -3921.091)" fill="#848484"/>
        <path id="Path_2205" data-name="Path 2205" d="M263.028,3989.912a10.456,10.456,0,0,0-10.245,8.441,9.974,9.974,0,0,0-.2,1.985H251.1a11.927,11.927,0,0,1,5.838-10.246,11.759,11.759,0,0,1,6.089-1.682H285.5a11.932,11.932,0,0,1,11.923,11.922h-1.483a9.659,9.659,0,0,0-.2-1.985,10.45,10.45,0,0,0-10.245-8.441h-22.47Z" transform="translate(-136.711 -3927.942)" fill="#848484"/>
        <path id="Path_2206" data-name="Path 2206" d="M185.5,3991.01a11.935,11.935,0,0,1,4.527,9.343h-1.483a9.646,9.646,0,0,0-.2-1.984,10.429,10.429,0,0,0-20.476,0,9.648,9.648,0,0,0-.2,1.984h-1.5a11.925,11.925,0,0,1,5.838-10.245,10.444,10.444,0,0,1,1.906-.911,11.587,11.587,0,0,1,4.183-.767,11.89,11.89,0,0,1,7.4,2.58Z" transform="translate(-91.258 -3927.952)" fill="#848484"/>
        <path id="Path_2207" data-name="Path 2207" d="M54.279,4000.353a11.923,11.923,0,1,1,23.846,0H76.642a9.648,9.648,0,0,0-.2-1.984,10.429,10.429,0,0,0-20.476,0h-.014a10.722,10.722,0,0,0-.186,1.984h-1.5Z" transform="translate(-31.373 -3927.952)" fill="#848484"/>
        <path id="Path_2208" data-name="Path 2208" d="M217.936,4019.57h14.782v1.483H215.83v-1.483Z" transform="translate(-117.835 -3944.617)" fill="#161617"/>
        <path id="Path_2209" data-name="Path 2209" d="M143.656,3994.861l-.744,7.451h-3.324l-.739-7.451Z" transform="translate(-76.637 -3931.393)" fill="#161617"/>
        <path id="Path_2210" data-name="Path 2210" d="M122.926,3995.66a3.289,3.289,0,1,1-3.3,3.282A3.293,3.293,0,0,1,122.926,3995.66Z" transform="translate(-66.351 -3931.821)" fill="#161617"/>
        <path id="Path_2211" data-name="Path 2211" d="M233.733,3992.04a11.925,11.925,0,0,0-5.838,10.246H212.267a11.919,11.919,0,0,0-4.527-9.344l5.067.795,5.61-1.7h15.311Z" transform="translate(-113.505 -3929.883)" fill="#515151"/>
        <path id="Path_2212" data-name="Path 2212" d="M138.85,3992.04h18.542a11.925,11.925,0,0,0-5.838,10.246h-8.641V4000.8l.744-7.452h-4.8v-1.311Z" transform="translate(-76.637 -3929.883)" fill="#515151"/>
        <path id="Path_2213" data-name="Path 2213" d="M111.391,3998.218H91.873A11.941,11.941,0,0,0,79.95,3986.3v-1.855H92.64v3.533h14.689v1.311l.739,7.452h3.323v1.482Zm-6.405-5.28a3.3,3.3,0,1,0-3.3,3.295A3.293,3.293,0,0,0,104.986,3992.938Z" transform="translate(-45.116 -3925.816)" fill="#515151"/>
        <path id="Path_2214" data-name="Path 2214" d="M39.84,3984.44v1.855a11.95,11.95,0,0,0-11.923,11.922H5.01v-12.295l3.161-1.482Z" transform="translate(-5.01 -3925.816)" fill="#515151"/>
        <path id="Path_2215" data-name="Path 2215" d="M180.062,3991.64a10.457,10.457,0,0,1,10.245,8.441h-1.52a8.937,8.937,0,0,0-17.426,0h-1.52a10.435,10.435,0,0,1,10.231-8.441Z" transform="translate(-93.222 -3929.669)" fill="#161617"/>
        <path id="Path_2216" data-name="Path 2216" d="M57.94,4000.092a10.429,10.429,0,0,1,20.476,0H76.9a8.937,8.937,0,0,0-17.426,0h-1.52Z" transform="translate(-33.337 -3929.675)" fill="#161617"/>
        <path id="Path_2217" data-name="Path 2217" d="M254.72,4000.092a10.449,10.449,0,0,1,10.245-8.441h22.47a10.457,10.457,0,0,1,10.245,8.441h-1.52a8.937,8.937,0,0,0-17.426,0h-5.057a8.937,8.937,0,0,0-17.426,0h-1.52Z" transform="translate(-138.648 -3929.675)" fill="#161617"/>
        <path id="Path_2218" data-name="Path 2218" d="M314.809,3995.972a7.828,7.828,0,1,0,7.832,7.823A7.831,7.831,0,0,0,314.809,3995.972Zm-8.706,5.838a1.006,1.006,0,1,1-.009,0Z" transform="translate(-166.022 -3931.393)" fill="#161617"/>
        <path id="Path_2219" data-name="Path 2219" d="M257.732,4001.81a1.006,1.006,0,1,1-.009,0Zm16.543,1.985a7.828,7.828,0,1,0-7.823,7.833A7.828,7.828,0,0,0,274.276,4003.795Z" transform="translate(-140.136 -3931.393)" fill="#161617"/>
        <path id="Path_2220" data-name="Path 2220" d="M190.492,4003.795a1.006,1.006,0,1,0-.009,0Zm-1.111,0a7.828,7.828,0,1,0-7.832,7.833A7.839,7.839,0,0,0,189.381,4003.795Z" transform="translate(-94.705 -3931.393)" fill="#161617"/>
        <path id="Path_2221" data-name="Path 2221" d="M69.649,3994.861a8.934,8.934,0,1,1-.009,0Zm0,16.767a7.828,7.828,0,1,0-7.823-7.833A7.848,7.848,0,0,0,69.649,4011.627Z" transform="translate(-34.819 -3931.393)" fill="#161617"/>
        <path id="Path_2222" data-name="Path 2222" d="M316.093,4009.174a4.1,4.1,0,1,0-4.09-4.105A4.109,4.109,0,0,0,316.093,4009.174Zm0,3.732a7.828,7.828,0,1,1,7.832-7.832A7.84,7.84,0,0,1,316.093,4012.906Z" transform="translate(-167.306 -3932.672)" fill="#41383d"/>
        <path id="Path_2223" data-name="Path 2223" d="M267.742,3997.25a7.828,7.828,0,1,1-7.832,7.824A7.832,7.832,0,0,1,267.742,3997.25Zm4.09,7.824a4.1,4.1,0,1,0-4.09,4.1A4.093,4.093,0,0,0,271.833,4005.074Z" transform="translate(-141.425 -3932.671)" fill="#41383d"/>
        <path id="Path_2224" data-name="Path 2224" d="M182.823,3997.25a7.828,7.828,0,1,1-7.823,7.824A7.84,7.84,0,0,1,182.823,3997.25Zm4.1,7.824a4.1,4.1,0,1,0-4.1,4.1A4.1,4.1,0,0,0,186.928,4005.074Z" transform="translate(-95.984 -3932.671)" fill="#41383d"/>
        <path id="Path_2225" data-name="Path 2225" d="M70.933,4000.983a4.1,4.1,0,1,0,4.1,4.091A4.093,4.093,0,0,0,70.933,4000.983Zm7.832,4.091a7.828,7.828,0,1,1-7.832-7.824A7.848,7.848,0,0,1,78.765,4005.074Z" transform="translate(-36.104 -3932.671)" fill="#41383d"/>
        <path id="Path_2226" data-name="Path 2226" d="M58.174,3901.465l5.587,15.111L60.7,3918.11l-5.982-16.646v-.014h3.454Z" transform="translate(-31.613 -3881.403)" fill="#c6e8f8"/>
        <path id="Path_2227" data-name="Path 2227" d="M39.787,3901.451l6.47,18.593-6.8,3.4v-.015l-4.527-13.814,4.142-8.167Z" transform="translate(-21.022 -3881.403)" fill="#c6e8f8"/>
        <path id="Path_2228" data-name="Path 2228" d="M70.419,3901.451v13.791l-2.682,1.334-5.587-15.111v-.014Z" transform="translate(-35.59 -3881.403)" fill="#9ad8f3"/>
        <path id="Path_2229" data-name="Path 2229" d="M49.722,3901.465,55.7,3918.11l-3.853,1.934-6.47-18.593h4.341Z" transform="translate(-26.615 -3881.403)" fill="#9ad8f3"/>
        <path id="Path_2230" data-name="Path 2230" d="M31.382,3932.835v.014l-11.542,5.769v-5.769l7.014-13.828Z" transform="translate(-12.947 -3890.806)" fill="#9ad8f3"/>
        <path id="Path_2231" data-name="Path 2231" d="M45.661,3939.139H41.069v1.482h4.592Zm2.115-8.018V3951.8H19.84V3945.1l11.542-5.769,6.8-3.4,3.849-1.934,3.059-1.534,2.687-1.338Z" transform="translate(-12.947 -3897.281)" fill="#ff9500"/>
        <path id="Path_2232" data-name="Path 2232" d="M26.7,3898.876l-4.142,8.168-7.014,13.828v12.48H43.479v-34.476H26.7Zm-2.78-2.235h32.25v40.812H11.81v-16.767l12.109-24.045Z" transform="translate(-8.649 -3878.828)" fill="#e57900"/>
        <path id="Path_2233" data-name="Path 2233" d="M262.887,3860.851h.014l2.808,9.328h-.014l-28.085-3,18.886-5.69h.028Z" transform="translate(-129.491 -3859.675)" fill="#eaeaea"/>
        <path id="Path_2234" data-name="Path 2234" d="M284.677,3859.5h-.014l-6.364.637,6.02-1.813Z" transform="translate(-151.267 -3858.32)" fill="#ff9500"/>
        <path id="Path_2235" data-name="Path 2235" d="M188.35,3975.586l1.957,6.484-5.067-.795a11.877,11.877,0,0,0-7.4-2.58,11.588,11.588,0,0,0-4.183.767l-5.48-.86-2.487-8.3.223-.065,22.126,5.294.3.052Z" transform="translate(-91.002 -3918.217)" fill="#d1d3d5"/>
        <path id="Path_2236" data-name="Path 2236" d="M238.5,3877.463l3.254,10.84-54.984-6.736,23.632-7.107,28.085,3Z" transform="translate(-102.283 -3866.958)" fill="#ff9500"/>
        <path id="Path_2237" data-name="Path 2237" d="M247.71,3966.022l-3.812,1.153-17.8,5.346-15.181-2.5-3.059-10.179Z" transform="translate(-113.57 -3912.652)" fill="#ff9500"/>
        <path id="Path_2238" data-name="Path 2238" d="M249.092,3920.875l3.389,11.277h-.014l-55.328-7.939-3.059-10.152,55,6.814Z" transform="translate(-106.195 -3888.15)" fill="#ff9500"/>
        <path id="Path_2239" data-name="Path 2239" d="M171.137,3914.06l3.059,10.152-22.182-3.682-.8-2.682,3.11-2.849h.014Z" transform="translate(-83.252 -3888.15)" fill="#e57900"/>
        <path id="Path_2240" data-name="Path 2240" d="M183.071,3958.042l3.059,10.179-.307-.056-22.126-5.293-.223.069-1.934-6.418.121-.042,20.95,1.5Z" transform="translate(-88.781 -3910.853)" fill="#e57900"/>
        <path id="Path_2241" data-name="Path 2241" d="M313.367,3861.788l1.218,4.035-22.976-6.326-.358-1.176Z" transform="translate(-158.198 -3858.32)" fill="#e57900"/>
        <path id="Path_2242" data-name="Path 2242" d="M330.484,3933.29l-4.328,3.956-3.124,2.844-7.214-.093-3.389-11.276Z" transform="translate(-169.533 -3895.997)" fill="#e57900"/>
        <path id="Path_2243" data-name="Path 2243" d="M320.953,3887l2.036,6.792-21.675-2.027-3.254-10.84Z" transform="translate(-161.842 -3870.415)" fill="#e57900"/>
        <path id="Path_2244" data-name="Path 2244" d="M229.621,3984.241l-7.6,2.287h-.014l-5.61,1.7-1.957-6.484Z" transform="translate(-117.091 -3924.371)" fill="#eaeaea"/>
        <path id="Path_2245" data-name="Path 2245" d="M256,3943.84l1.576,5.243-13.722,4.127-39.85-6.182L200.66,3935.9l55.328,7.939Z" transform="translate(-109.716 -3899.839)" fill="#eaeaea"/>
        <path id="Path_2246" data-name="Path 2246" d="M241.755,3896.486l3.426,11.379h-.009l-55-6.815-3.4-11.3Z" transform="translate(-102.283 -3875.141)" fill="#eaeaea"/>
        <path id="Path_2247" data-name="Path 2247" d="M175.122,3931.661l3.347,11.128-.46-.065-20.95-1.5-.121.042-4-13.29Z" transform="translate(-84.178 -3895.601)" fill="#d1d3d5"/>
        <path id="Path_2248" data-name="Path 2248" d="M171.336,3889.75l3.4,11.3-16.8.939Z" transform="translate(-86.849 -3875.141)" fill="#d1d3d5"/>
        <path id="Path_2249" data-name="Path 2249" d="M315,3867.177l2.724,9.078-22.893-6.076-2.808-9.328Z" transform="translate(-158.61 -3859.675)" fill="#d1d3d5"/>
        <path id="Path_2250" data-name="Path 2250" d="M326.934,3953.073l-5.638,5.15-1.576-5.243Z" transform="translate(-173.434 -3908.979)" fill="#d1d3d5"/>
        <path id="Path_2251" data-name="Path 2251" d="M326.735,3906.267l3.244,10.784-2.645,2.422-.781.716h-.014l-18.054-4.569-3.426-11.379Z" transform="translate(-165.588 -3882.896)" fill="#d1d3d5"/>
        <path id="Path_2252" data-name="Path 2252" d="M320.391,4005.28a4.1,4.1,0,1,1-4.09,4.091A4.1,4.1,0,0,1,320.391,4005.28Z" transform="translate(-171.604 -3936.969)" fill="#e57900"/>
        <path id="Path_2253" data-name="Path 2253" d="M272.034,4005.28a4.1,4.1,0,1,1-4.1,4.091A4.094,4.094,0,0,1,272.034,4005.28Z" transform="translate(-145.718 -3936.969)" fill="#e57900"/>
        <path id="Path_2254" data-name="Path 2254" d="M187.12,4005.28a4.1,4.1,0,1,1-4.09,4.091A4.1,4.1,0,0,1,187.12,4005.28Z" transform="translate(-100.281 -3936.969)" fill="#e57900"/>
        <path id="Path_2255" data-name="Path 2255" d="M75.23,4005.28a4.1,4.1,0,1,1-4.09,4.091A4.1,4.1,0,0,1,75.23,4005.28Z" transform="translate(-40.401 -3936.969)" fill="#e57900"/>
        <path id="Path_2256" data-name="Path 2256" d="M19.847,3944.968l-.3-.6L47.5,3930.4l.3.59Z" transform="translate(-12.791 -3896.896)" fill="#7dbdd3"/>
        <path id="Path_2257" data-name="Path 2257" d="M68.933,3994.67a8.279,8.279,0,1,0,8.283,8.278A8.289,8.289,0,0,0,68.933,3994.67Zm0,17.887a9.6,9.6,0,1,1,9.6-9.6,9.616,9.616,0,0,1-9.6,9.6Z" transform="translate(-34.081 -3930.585)"/>
        <path id="Path_2258" data-name="Path 2258" d="M70.223,3997.065a7.163,7.163,0,1,0,7.163,7.163A7.169,7.169,0,0,0,70.223,3997.065Zm0,15.65a8.488,8.488,0,1,1,8.488-8.488A8.5,8.5,0,0,1,70.223,4012.716Z" transform="translate(-35.37 -3931.863)" fill="#595457"/>
        <path id="Path_2259" data-name="Path 2259" d="M74.51,4005.091a3.437,3.437,0,1,0,3.44,3.436A3.442,3.442,0,0,0,74.51,4005.091Zm0,8.2a4.76,4.76,0,1,1,4.76-4.76A4.764,4.764,0,0,1,74.51,4013.291Z" transform="translate(-39.657 -3936.162)" fill="#ff9500"/>
        <path id="Path_2260" data-name="Path 2260" d="M180.823,3994.67a8.279,8.279,0,1,0,8.283,8.278A8.289,8.289,0,0,0,180.823,3994.67Zm0,17.887a9.6,9.6,0,1,1,9.6-9.6A9.616,9.616,0,0,1,180.823,4012.558Z" transform="translate(-93.961 -3930.585)"/>
        <path id="Path_2261" data-name="Path 2261" d="M182.113,3997.065a7.163,7.163,0,1,0,7.163,7.163A7.169,7.169,0,0,0,182.113,3997.065Zm0,15.65a8.488,8.488,0,1,1,8.488-8.488A8.492,8.492,0,0,1,182.113,4012.716Z" transform="translate(-95.251 -3931.863)" fill="#595457"/>
        <path id="Path_2262" data-name="Path 2262" d="M186.4,4005.091a3.437,3.437,0,1,0,3.44,3.436A3.439,3.439,0,0,0,186.4,4005.091Zm0,8.2a4.76,4.76,0,1,1,4.76-4.76A4.764,4.764,0,0,1,186.4,4013.291Z" transform="translate(-99.538 -3936.162)" fill="#ff9500"/>
        <path id="Path_2263" data-name="Path 2263" d="M266.113,3994.72a8.613,8.613,0,1,0,8.613,8.613A8.622,8.622,0,0,0,266.113,3994.72Zm0,17.887a9.273,9.273,0,1,1,9.273-9.273A9.284,9.284,0,0,1,266.113,4012.607Z" transform="translate(-139.782 -3930.965)"/>
        <path id="Path_2264" data-name="Path 2264" d="M267.023,3997.065a7.163,7.163,0,1,0,7.163,7.163A7.169,7.169,0,0,0,267.023,3997.065Zm0,15.65a8.488,8.488,0,1,1,8.483-8.488A8.492,8.492,0,0,1,267.023,4012.716Z" transform="translate(-140.692 -3931.863)" fill="#595457"/>
        <path id="Path_2265" data-name="Path 2265" d="M271.31,4005.091a3.437,3.437,0,1,0,3.435,3.436A3.443,3.443,0,0,0,271.31,4005.091Zm0,8.2a4.76,4.76,0,1,1,4.76-4.76A4.764,4.764,0,0,1,271.31,4013.291Z" transform="translate(-144.979 -3936.162)" fill="#ff9500"/>
        <path id="Path_2266" data-name="Path 2266" d="M314.093,3994.67a8.279,8.279,0,1,0,8.279,8.278A8.289,8.289,0,0,0,314.093,3994.67Zm0,17.887a9.6,9.6,0,1,1,9.6-9.6A9.615,9.615,0,0,1,314.093,4012.558Z" transform="translate(-165.283 -3930.585)"/>
        <path id="Path_2267" data-name="Path 2267" d="M315.378,3997.065a7.163,7.163,0,1,0,7.163,7.163A7.169,7.169,0,0,0,315.378,3997.065Zm0,15.65a8.488,8.488,0,1,1,8.488-8.488A8.5,8.5,0,0,1,315.378,4012.716Z" transform="translate(-166.568 -3931.863)" fill="#595457"/>
        <path id="Path_2268" data-name="Path 2268" d="M319.67,4005.091a3.437,3.437,0,1,0,3.435,3.436A3.439,3.439,0,0,0,319.67,4005.091Zm0,8.2a4.76,4.76,0,1,1,4.76-4.76A4.767,4.767,0,0,1,319.67,4013.291Z" transform="translate(-170.86 -3936.162)" fill="#ff9500"/>
        <path id="Path_2269" data-name="Path 2269" d="M19.82,3935.138H47.105V3901.33H30.855l-11.03,21.731v12.071Zm27.945.66H19.16l.037-12.964,11.253-22.163H47.77V3935.8Z" transform="translate(-12.583 -3880.985)" fill="#983421"/>
        <path id="Path_2270" data-name="Path 2270" d="M125.926,3912.265a4.216,4.216,0,1,0,4.216,4.217A4.222,4.222,0,0,0,125.926,3912.265Zm0,9.757a5.541,5.541,0,1,1,5.541-5.54A5.545,5.545,0,0,1,125.926,3922.022Z" transform="translate(-66.758 -3886.481)" fill="#9f9fa0"/>
        <path id="Path_2271" data-name="Path 2271" d="M219.69,4016.558h.665v-2.547h-.665Z" transform="translate(-119.901 -3941.641)"/>
        <path id="Path_2272" data-name="Path 2272" d="M246.52,4016.558h.66v-2.547h-.66Z" transform="translate(-134.26 -3941.641)"/>
      </g>
      <path id="Path_2273" data-name="Path 2273" d="M960.855,3819.449c-8.223,0-16.441-1.813-22.712-5.434q-.732-.425-1.408-.864c.446.292.92.581,1.408.864,6.27,3.621,14.493,5.434,22.712,5.434s16.441-1.813,22.711-5.434a24.966,24.966,0,0,0,4.774-3.509h0a25,25,0,0,1-4.778,3.509C977.3,3817.636,969.078,3819.449,960.855,3819.449Zm-24.129-6.3a.233.233,0,0,1-.028-.019A.09.09,0,0,0,936.726,3813.147Zm-.033-.024s-.019-.009-.023-.014A.159.159,0,0,1,936.693,3813.123Zm-.033-.023c-.009-.005-.014-.005-.019-.009S936.656,3813.095,936.661,3813.1Zm-.033-.023s-.009-.005-.014-.005S936.624,3813.077,936.628,3813.077Zm56.351-1.431v-5.527h0v5.3l.014-.2C992.993,3811.362,992.989,3811.5,992.979,3811.645Zm-64.225-1,0-.023a.017.017,0,0,1,0,.014Zm0-1.12c0-.074-.014-.154-.014-.232l.014.172Zm0-2.078-.014-.013.014.009h0Zm0-.823h0Zm66.856-12.788v-.307l0-.056Zm-64.235-1.5v-.005l-.009-1.051h.009Zm7.5-5.611c-.66-.451-1.274-.916-1.85-1.4C937.6,3785.81,938.213,3786.279,938.873,3786.73Zm56.737-1.11v-.415l.009-.083Zm-64.235-2.134c0-.065-.014-.135-.019-.2v-.065l0,0,.014.139Zm0-2.119-.009-.014.009-.809Zm63.031-1.525a11.492,11.492,0,0,0,1.195-4.741v.171A11.472,11.472,0,0,1,994.406,3779.842Zm-63.026-4.369c0-.009,0-.029,0-.037v0C931.376,3775.444,931.381,3775.458,931.381,3775.472Z" transform="translate(-497.036 -3706.66)" fill="#b8b8b8"/>
      <rect id="Rectangle_1098" data-name="Rectangle 1098" width="483.472" height="11.03" transform="translate(0 185.647)" fill="gray"/>
      <g id="Group_541" data-name="Group 541" transform="translate(208.903 54.083)">
        <path id="Path_2274" data-name="Path 2274" d="M724.14,3987.864h2.71v-3.793h-2.71Z" transform="translate(-596.443 -3872.577)" fill="#2b2e31"/>
        <path id="Path_2275" data-name="Path 2275" d="M715.62,3987.864h2.705v-3.793H715.62Z" transform="translate(-591.883 -3872.577)" fill="#2b2e31"/>
        <path id="Path_2276" data-name="Path 2276" d="M707.13,3987.864h2.691v-3.793H707.13Z" transform="translate(-587.339 -3872.577)" fill="#2b2e31"/>
        <path id="Path_2277" data-name="Path 2277" d="M665.68,3987.864h2.71v-3.793h-2.71Z" transform="translate(-565.156 -3872.577)" fill="#2b2e31"/>
        <path id="Path_2278" data-name="Path 2278" d="M657.18,3987.864h2.7v-3.793h-2.7Z" transform="translate(-560.607 -3872.577)" fill="#2b2e31"/>
        <path id="Path_2279" data-name="Path 2279" d="M648.66,3987.864h2.705v-3.793H648.66Z" transform="translate(-556.048 -3872.577)" fill="#2b2e31"/>
        <path id="Path_2280" data-name="Path 2280" d="M717.122,3979.26v7.986h-14.9v-7.986Zm-2,6.029V3981.5h-2.71v3.793Zm-3.965,0V3981.5h-2.71v3.793Zm-3.965,0V3981.5H704.5v3.793Z" transform="translate(-584.712 -3870.003)" fill="#a3c9be"/>
        <path id="Path_2281" data-name="Path 2281" d="M654.11,3985.29h2.71V3981.5h-2.71Zm-6.884-6.029h11.737v7.986h-14.9v-7.986Zm5.629,6.029V3981.5h-2.691v3.793Zm-3.946,0V3981.5H646.2v3.793Z" transform="translate(-553.586 -3870.003)" fill="#a3c9be"/>
        <path id="Path_2282" data-name="Path 2282" d="M650.86,3960.469h8.311V3954.9H650.86Z" transform="translate(-557.225 -3856.966)" fill="#ff9500"/>
        <path id="Path_2283" data-name="Path 2283" d="M659.171,3936.318H650.86v-5.388h8.311Z" transform="translate(-557.225 -3844.138)" fill="#ff9500"/>
        <path id="Path_2284" data-name="Path 2284" d="M650.86,3912.358h8.311v-5.388H650.86Z" transform="translate(-557.225 -3831.314)" fill="#ff9500"/>
        <path id="Path_2285" data-name="Path 2285" d="M650.86,3888.4h8.311v-5.374H650.86Z" transform="translate(-557.225 -3818.503)" fill="#ff9500"/>
        <path id="Path_2286" data-name="Path 2286" d="M659.171,3860.909v2.9H650.86v-5.954h8.311Z" transform="translate(-557.225 -3805.028)" fill="#ff9500"/>
        <path id="Path_2287" data-name="Path 2287" d="M717.9,3857.851v5.954H709.59v-5.954Z" transform="translate(-588.656 -3805.028)" fill="#ff9500"/>
        <path id="Path_2288" data-name="Path 2288" d="M709.59,3888.4H717.9v-5.374H709.59Z" transform="translate(-588.656 -3818.503)" fill="#ff9500"/>
        <path id="Path_2289" data-name="Path 2289" d="M709.59,3912.358H717.9v-5.388H709.59Z" transform="translate(-588.656 -3831.314)" fill="#ff9500"/>
        <path id="Path_2290" data-name="Path 2290" d="M717.9,3930.931v5.388H709.59v-5.388Z" transform="translate(-588.656 -3844.138)" fill="#ff9500"/>
        <path id="Path_2291" data-name="Path 2291" d="M709.59,3960.469H717.9V3954.9H709.59Z" transform="translate(-588.656 -3856.966)" fill="#ff9500"/>
        <path id="Path_2292" data-name="Path 2292" d="M717.9,3870.661v5.75H709.59v-5.75Z" transform="translate(-588.656 -3811.883)" fill="#e57900"/>
        <path id="Path_2293" data-name="Path 2293" d="M709.59,3900.345H717.9v-5.755H709.59Z" transform="translate(-588.656 -3824.689)" fill="#e57900"/>
        <path id="Path_2294" data-name="Path 2294" d="M709.59,3924.311H717.9v-5.75H709.59Z" transform="translate(-588.656 -3837.517)" fill="#e57900"/>
        <path id="Path_2295" data-name="Path 2295" d="M659.171,3870.749v5.662H650.86v-5.75h8.311Z" transform="translate(-557.225 -3811.883)" fill="#e57900"/>
        <path id="Path_2296" data-name="Path 2296" d="M650.86,3900.345h8.311v-5.755H650.86Z" transform="translate(-557.225 -3824.689)" fill="#e57900"/>
        <path id="Path_2297" data-name="Path 2297" d="M650.86,3924.311h8.311v-5.75H650.86Z" transform="translate(-557.225 -3837.517)" fill="#e57900"/>
        <path id="Path_2298" data-name="Path 2298" d="M650.86,3948.275h8.311v-5.754H650.86Z" transform="translate(-557.225 -3850.34)" fill="#e57900"/>
        <path id="Path_2299" data-name="Path 2299" d="M709.59,3948.275H717.9v-5.754H709.59Z" transform="translate(-588.656 -3850.34)" fill="#e57900"/>
        <path id="Path_2300" data-name="Path 2300" d="M709.59,3972.635H717.9v-5.755H709.59Z" transform="translate(-588.656 -3863.377)" fill="#e57900"/>
        <path id="Path_2301" data-name="Path 2301" d="M650.86,3972.635h8.311v-5.755H650.86Z" transform="translate(-557.225 -3863.377)" fill="#e57900"/>
        <path id="Path_2302" data-name="Path 2302" d="M668.74,3934.515h18.988v-2.984H668.74Z" transform="translate(-566.794 -3844.459)" fill="#aa9c99"/>
        <path id="Path_2303" data-name="Path 2303" d="M687.728,3867.326v.089H668.74v-2.984h18.988Z" transform="translate(-566.794 -3808.549)" fill="#aa9c99"/>
        <path id="Path_2304" data-name="Path 2304" d="M744.23,3854.736h10.542V3839.88H744.23Z" transform="translate(-607.194 -3795.41)" fill="#2b2e31"/>
        <path id="Path_2305" data-name="Path 2305" d="M744.23,3911.442h10.542V3896.6H744.23Z" transform="translate(-607.194 -3825.765)" fill="#2b2e31"/>
        <path id="Path_2306" data-name="Path 2306" d="M744.23,3967.356h10.542V3952.5H744.23Z" transform="translate(-607.194 -3855.681)" fill="#2b2e31"/>
        <path id="Path_2307" data-name="Path 2307" d="M749.447,3848.111v-14.86H738.905v14.86Zm4.62-20.61v25.631H734.28V3827.5Z" transform="translate(-601.869 -3788.785)" fill="#fc7b42"/>
        <path id="Path_2308" data-name="Path 2308" d="M749.447,3903.971V3889.13H738.905v14.842Zm4.62-21.331v27.1H734.28v-27.1Z" transform="translate(-601.869 -3818.294)" fill="#ef5e24"/>
        <path id="Path_2309" data-name="Path 2309" d="M749.447,3961.169v-14.86H738.905v14.86Zm4.62-20.229v25.617H734.28V3940.94Z" transform="translate(-601.869 -3849.495)" fill="#c84513"/>
        <path id="Path_2310" data-name="Path 2310" d="M830.159,4013.76v8.051H803.52v-8.051Z" transform="translate(-638.925 -3888.466)" fill="#a3c9be"/>
        <path id="Path_2311" data-name="Path 2311" d="M614.016,4004.491v8.05H449.42v-16.1h164.6Z" transform="translate(-449.42 -3879.197)" fill="#80a096"/>
        <path id="Path_2312" data-name="Path 2312" d="M814.755,3952.93h4.76v2.677H783.63v-2.677Z" transform="translate(-628.28 -3855.911)" fill="#aa9c99"/>
        <path id="Path_2313" data-name="Path 2313" d="M811.864,3890.611h7.651v2.691H783.63v-2.691Z" transform="translate(-628.28 -3822.56)" fill="#aa9c99"/>
        <path id="Path_2314" data-name="Path 2314" d="M650.86,3806.124h35.611v-2.984H650.86Z" transform="translate(-557.225 -3775.748)" fill="#aa9c99"/>
        <path id="Path_2315" data-name="Path 2315" d="M592.128,3976.708v.368h-45.1v-2.584h45.1Z" transform="translate(-501.658 -3867.45)" fill="#aa9c99"/>
        <path id="Path_2316" data-name="Path 2316" d="M547.03,3924.354h45.1v-2.6h-45.1Z" transform="translate(-501.658 -3839.225)" fill="#aa9c99"/>
        <path id="Path_2317" data-name="Path 2317" d="M547.03,3874.049h45.1v-2.6h-45.1Z" transform="translate(-501.658 -3812.305)" fill="#aa9c99"/>
        <path id="Path_2318" data-name="Path 2318" d="M547.03,3823.713h45.1v-2.6h-45.1Z" transform="translate(-501.658 -3785.365)" fill="#aa9c99"/>
        <path id="Path_2319" data-name="Path 2319" d="M507.86,3987.669h2.385v-7.618H507.86Z" transform="translate(-480.696 -3870.426)" fill="#5a5a5a"/>
        <path id="Path_2320" data-name="Path 2320" d="M507.86,3949.262h2.385v-21.912H507.86Z" transform="translate(-480.696 -3842.222)" fill="#5a5a5a"/>
        <path id="Path_2321" data-name="Path 2321" d="M507.86,3897.822h2.385v-20.782H507.86Z" transform="translate(-480.696 -3815.297)" fill="#5a5a5a"/>
        <path id="Path_2322" data-name="Path 2322" d="M507.86,3847.506h2.385v-20.8H507.86Z" transform="translate(-480.696 -3788.362)" fill="#5a5a5a"/>
        <path id="Path_2323" data-name="Path 2323" d="M507.86,3788.556h2.385V3760.28H507.86Z" transform="translate(-480.696 -3752.81)" fill="#5a5a5a"/>
        <path id="Path_2324" data-name="Path 2324" d="M483.264,3977.075H461.9v-2.584h36.405v2.584Z" transform="translate(-456.099 -3867.45)" fill="#aa9c99"/>
        <path id="Path_2325" data-name="Path 2325" d="M483.264,3924.354H461.9v-2.6h36.405v2.6Z" transform="translate(-456.099 -3839.225)" fill="#aa9c99"/>
        <path id="Path_2326" data-name="Path 2326" d="M483.264,3874.049H461.9v-2.6h36.405v2.6Z" transform="translate(-456.099 -3812.305)" fill="#aa9c99"/>
        <path id="Path_2327" data-name="Path 2327" d="M483.264,3823.713H461.9v-2.6h36.405v2.6Z" transform="translate(-456.099 -3785.365)" fill="#aa9c99"/>
        <path id="Path_2328" data-name="Path 2328" d="M844.37,3984.289h2.891v-25.6H844.37Z" transform="translate(-660.786 -3858.994)" fill="#898989"/>
        <path id="Path_2329" data-name="Path 2329" d="M844.37,3876.691h2.891V3864.6H844.37Z" transform="translate(-660.786 -3808.64)" fill="#898989"/>
        <path id="Path_2330" data-name="Path 2330" d="M844.37,3922.677h2.891V3896.4H844.37Z" transform="translate(-660.786 -3825.659)" fill="#898989"/>
        <path id="Path_2331" data-name="Path 2331" d="M780,3841.229v20.225H776.85V3744.21H780Z" transform="translate(-624.652 -3744.21)" fill="#898989"/>
        <path id="Path_2332" data-name="Path 2332" d="M730.636,3835.656v17.812H727.47V3744.21h3.165Z" transform="translate(-598.225 -3744.21)" fill="#898989"/>
        <path id="Path_2333" data-name="Path 2333" d="M647.216,3847.714v5.754H644.05V3744.21h3.165Z" transform="translate(-553.581 -3744.21)" fill="#898989"/>
        <path id="Path_2334" data-name="Path 2334" d="M543.386,3853.835v7.619H540.22V3744.21h3.166Z" transform="translate(-498.014 -3744.21)" fill="#898989"/>
        <path id="Path_2335" data-name="Path 2335" d="M455.09,3861.454V3744.21h3.166v117.244Z" transform="translate(-452.454 -3744.21)" fill="#898989"/>
      </g>
      <g id="Group_542" data-name="Group 542" transform="translate(87.629 164.335)">
        <path id="Path_2336" data-name="Path 2336" d="M191.585,4050.72H211.1v2.092H188.54v-2.092Z" transform="translate(-188.531 -4018.498)" fill="#ff9500"/>
        <path id="Path_2337" data-name="Path 2337" d="M210.818,4033.89l.813,4.574H196.32l.813-4.574Z" transform="translate(-192.694 -4009.492)" fill="#ff9500"/>
        <path id="Path_2338" data-name="Path 2338" d="M211.14,4009.321l.813,4.569H200.7l.813-4.569Z" transform="translate(-195.038 -3996.342)" fill="#ff9500"/>
        <path id="Path_2339" data-name="Path 2339" d="M211.432,3984.74l.813,4.575h-7.2l.813-4.575Z" transform="translate(-197.366 -3983.188)" fill="#ff9500"/>
        <path id="Path_2340" data-name="Path 2340" d="M210.973,4043.73l.586,3.249H195.09l.572-3.249Z" transform="translate(-192.036 -4014.758)" fill="#eaeaea"/>
        <path id="Path_2341" data-name="Path 2341" d="M212.1,3981.461l.27,1.524H206.8l.27-1.524Z" transform="translate(-198.303 -3981.433)" fill="#eaeaea"/>
        <path id="Path_2342" data-name="Path 2342" d="M210.854,3994.58l1.223,6.853H202.45l1.209-6.853Z" transform="translate(-195.975 -3988.453)" fill="#eaeaea"/>
        <path id="Path_2343" data-name="Path 2343" d="M210.546,4019.15l1.209,6.853H198.07l1.222-6.853Z" transform="translate(-193.631 -4001.603)" fill="#eaeaea"/>
        <path id="Path_2344" data-name="Path 2344" d="M204.912,3989.325l.8-4.565h-1.408l-.827,4.565Z" transform="translate(-196.526 -3983.198)" fill="#ffb600"/>
        <path id="Path_2345" data-name="Path 2345" d="M193.84,4043.69l-.59,3.236h1.576l.572-3.236Z" transform="translate(-191.051 -4014.736)" fill="#f0f3f4"/>
        <path id="Path_2346" data-name="Path 2346" d="M196.077,4038.441l.8-4.561h-1.529l-.832,4.561Z" transform="translate(-191.731 -4009.486)" fill="#ffb600"/>
        <path id="Path_2347" data-name="Path 2347" d="M197.839,4025.986l1.209-6.847-1.492-.009-1.246,6.855Z" transform="translate(-192.689 -4001.593)" fill="#f0f3f4"/>
        <path id="Path_2348" data-name="Path 2348" d="M200.482,4013.89l.809-4.569h-1.469l-.832,4.56Z" transform="translate(-194.123 -3996.342)" fill="#ffb600"/>
        <path id="Path_2349" data-name="Path 2349" d="M202.249,4001.389l1.218-6.889h-1.432l-1.255,6.889Z" transform="translate(-195.081 -3988.411)" fill="#f0f3f4"/>
        <path id="Path_2350" data-name="Path 2350" d="M206.668,3982.953l.274-1.553h-1.4l-.284,1.553Z" transform="translate(-197.479 -3981.4)" fill="#f0f3f4"/>
        <path id="Path_2351" data-name="Path 2351" d="M188.52,4050.592h22.558v-.711H188.52Z" transform="translate(-188.52 -4018.049)" fill="#ffb600"/>
      </g>
      <g id="Group_543" data-name="Group 543" transform="translate(37.07 223.024)">
        <path id="Path_2352" data-name="Path 2352" d="M230.313,4167.78v10.056H224.2Z" transform="translate(-157.056 -4139.835)" fill="#ff9500"/>
        <path id="Path_2353" data-name="Path 2353" d="M220.01,4136.251v14.655L213.9,4160.96H204.95Z" transform="translate(-146.754 -4122.961)" fill="#eaeaea"/>
        <path id="Path_2354" data-name="Path 2354" d="M205.732,4131.15v2.37l-15.06,24.711h-12.4l16.473-27.081Z" transform="translate(-132.475 -4120.231)" fill="#ff9500"/>
        <path id="Path_2355" data-name="Path 2355" d="M220.9,4232.3v1.009H212.24V4232.3Z" transform="translate(-150.655 -4174.364)" fill="#5a5a5a"/>
        <path id="Path_2356" data-name="Path 2356" d="M221.379,4189.41v19.937H216.81V4189.41Z" transform="translate(-153.101 -4151.411)" fill="#5a5a5a"/>
        <path id="Path_2357" data-name="Path 2357" d="M221.379,4109.962v8.617H216.81v-8.617a2.309,2.309,0,0,1,2.3-2.3,2.285,2.285,0,0,1,2.273,2.3Z" transform="translate(-153.101 -4107.661)" fill="#5a5a5a"/>
        <path id="Path_2358" data-name="Path 2358" d="M184.441,4131.15l-16.473,27.081H159.02l16.5-27.081Z" transform="translate(-122.173 -4120.231)" fill="#eaeaea"/>
        <path id="Path_2359" data-name="Path 2359" d="M161.243,4131.15l-16.5,27.081h-12.4l16.474-27.081Z" transform="translate(-107.895 -4120.231)" fill="#ff9500"/>
        <path id="Path_2360" data-name="Path 2360" d="M138.517,4131.15l-16.474,27.081H113.1l16.5-27.081Z" transform="translate(-97.598 -4120.231)" fill="#eaeaea"/>
        <path id="Path_2361" data-name="Path 2361" d="M115.313,4131.15l-16.5,27.081H86.41l16.474-27.081Z" transform="translate(-83.314 -4120.231)" fill="#ff9500"/>
        <path id="Path_2362" data-name="Path 2362" d="M100.031,4131.15l-16.474,27.081H81.08V4147.6l10.031-16.445Z" transform="translate(-80.462 -4120.231)" fill="#eaeaea"/>
        <path id="Path_2363" data-name="Path 2363" d="M96.132,4232.3v1.009H87.44V4232.3Z" transform="translate(-83.865 -4174.364)" fill="#5a5a5a"/>
        <path id="Path_2364" data-name="Path 2364" d="M91.111,4131.15,81.08,4147.6V4131.15Z" transform="translate(-80.462 -4120.231)" fill="#ff9500"/>
        <path id="Path_2365" data-name="Path 2365" d="M92.06,4209.347h4.574V4189.41H92.06Z" transform="translate(-86.338 -4151.411)" fill="#5a5a5a"/>
        <path id="Path_2366" data-name="Path 2366" d="M96.634,4109.962v8.617H92.06v-8.617a2.285,2.285,0,0,1,2.273-2.3A2.309,2.309,0,0,1,96.634,4109.962Z" transform="translate(-86.338 -4107.661)" fill="#5a5a5a"/>
        <path id="Path_2367" data-name="Path 2367" d="M154.328,4158.77H81.08v-1.261h71.983V4131.07h1.264Z" transform="translate(-80.462 -4120.188)" fill="#e07a00"/>
        <path id="Path_2368" data-name="Path 2368" d="M81.01,4157.5H79.75v-27.7H153v1.265H81.01Z" transform="translate(-79.75 -4119.509)" fill="#f0f3f4"/>
        <path id="Path_2369" data-name="Path 2369" d="M98.75,4213.571h56v-2.36h-56Z" transform="translate(-89.918 -4163.078)" fill="#5a5a5a"/>
      </g>
      <g id="Group_545" data-name="Group 545" transform="translate(182.307 22.595)">
        <path id="Path_2370" data-name="Path 2370" d="M418.879,3869.146c-.483-.93-.944-1.873-1.408-2.821Zm-23.009-166.91v-.056l75.483-25.249,42.95,2.608-82.047,26.426-.558,9.7.558-9.691Z" transform="translate(-394.166 -3676.717)" fill="#c3ebd8" fill-rule="evenodd"/>
        <path id="Path_2371" data-name="Path 2371" d="M551.8,3676.47l79.871,22.145.521,9.417.353,9.4.2,9.366.023,9.325-.144,9.264-.321,9.194-.5,9.111-.674,9.012-.86,8.906-1.051,8.776-1.236,8.646-1.427,8.5-1.627,8.33-1.827,8.157-2.031,7.973-2.24,7.767-2.445,7.553-2.664,7.326-2.882,7.089-3.105,6.828-3.328,6.563-3.561,6.285-3.793,5.991-4.03,5.681-4.272,5.364-4.518,5.024-4.769,4.677-5.029,4.318-5.285,3.938-5.55,3.546-5.82,3.142-6.094,2.72-6.1-1.952-5.852-2.417h0l-5.6-2.868-5.35-3.3-5.108-3.733h0l-4.862-4.137-4.62-4.537-4.379-4.917-4.142-5.29L501.754,3887l-3.677-5.982-3.444-6.308h0l-3.217-6.62-2.993-6.917-2.77-7.2-2.552-7.47h0l-2.333-7.716-2.12-7.958-1.91-8.181h0l-1.7-8.391h0l-1.5-8.575-1.292-8.762-1.1-8.92-.9-9.074-.707-9.2-.511-9.321L468.7,3751h0l-.144-9.51.033-9.575.214-9.636h0l.386-9.678.558-9.7Z" transform="translate(-433.068 -3676.47)" fill="#004747"/>
        <g id="Group_544" data-name="Group 544" transform="translate(0 22.697)">
          <path id="Path_2372" data-name="Path 2372" d="M510.817,3951.932l-12.546-3.463c-103.471-5.02-107.65-136.05-105.776-223.168l36.387,3.737-.558,9.692-.386,9.677-.214,9.636-.033,9.58.144,9.506.33,9.422.516,9.32.706,9.2.9,9.069,1.1,8.92,1.292,8.762,1.5,8.581,1.7,8.39,1.911,8.181,2.12,7.959,2.333,7.716,2.552,7.465,2.77,7.2,2.993,6.917,3.217,6.619,3.444,6.307,3.677,5.983,3.909,5.643,4.142,5.286,4.379,4.917,4.62,4.537,4.862,4.142,5.1,3.728,5.355,3.305,5.6,2.868,5.852,2.417,6.1,1.953Z" transform="translate(-392.204 -3725.3)" fill="#00f3bb" fill-rule="evenodd"/>
        </g>
      </g>
      <g id="Group_546" data-name="Group 546" transform="translate(227.984 94.894)">
        <path id="Path_2373" data-name="Path 2373" d="M934.18,4048.78s-3.17,1.911-3.863,4.151,11.365,6.052,11.365,6.052l-.934-8.464Z" transform="translate(-725.849 -3948.019)" fill="#96989b"/>
        <path id="Path_2374" data-name="Path 2374" d="M944.926,4221.229l-3.175-1.826a2.974,2.974,0,0,1-1.325-2.706,9.372,9.372,0,0,1,4-7.47,3,3,0,0,1,2.989-.39l3.17,1.836-5.662,10.562Z" transform="translate(-731.273 -4033.544)" fill="#a03935"/>
        <path id="Path_2375" data-name="Path 2375" d="M951.254,4213.162a9.382,9.382,0,0,0-4.007,7.472c.093,2.7,2.017,3.737,4.314,2.309a9.357,9.357,0,0,0,4-7.465C955.479,4212.773,953.55,4211.736,951.254,4213.162Z" transform="translate(-734.923 -4035.65)" fill="#e33439"/>
        <path id="Path_2376" data-name="Path 2376" d="M953.92,4219.242a4.341,4.341,0,0,0-1.841,3.431c.046,1.241.93,1.715,1.985,1.054a4.273,4.273,0,0,0,1.836-3.425C955.863,4219.065,954.975,4218.587,953.92,4219.242Z" transform="translate(-737.51 -4039.088)" fill="#a03935"/>
        <path id="Path_2377" data-name="Path 2377" d="M947.43,4131.4l22.609,13.052,0,47.812-22.6-13.046Z" transform="translate(-735.022 -3992.235)" fill="#27857a"/>
        <path id="Path_2378" data-name="Path 2378" d="M956.41,4201.761v7.474l12.56,7.257v-2.859l-10.078-5.815v-4.635Z" transform="translate(-739.828 -4029.89)" fill="#55c2b9"/>
        <path id="Path_2379" data-name="Path 2379" d="M961.75,4204.82v4.634l10.077,5.814v-4.625Z" transform="translate(-742.686 -4031.528)" fill="#27a9a1"/>
        <path id="Path_2380" data-name="Path 2380" d="M956.41,4159.48v16.529l12.56,7.256v-2.854l-10.078-5.825v-13.678Z" transform="translate(-739.828 -4007.263)" fill="#55c2b9"/>
        <path id="Path_2381" data-name="Path 2381" d="M961.75,4162.55v13.68l10.077,5.824v-13.685Z" transform="translate(-742.686 -4008.906)" fill="#27a9a1"/>
        <path id="Path_2382" data-name="Path 2382" d="M947.43,4124.844l22.609,13.052,9.864-5.694-22.609-13.053Z" transform="translate(-735.022 -3985.679)" fill="#55c2b9"/>
        <path id="Path_2383" data-name="Path 2383" d="M996.06,4152.924l9.869-5.694,9.719,18.709v23.488l-19.588,11.309Z" transform="translate(-761.048 -4000.707)" fill="#27a9a1"/>
        <path id="Path_2384" data-name="Path 2384" d="M996.271,4139.9l.093,3.7a1.865,1.865,0,0,1-1.05,1.571,5.845,5.845,0,0,1-5.318.167,1.874,1.874,0,0,1-1.148-1.5l-.1-3.7,7.516-.237Z" transform="translate(-757.136 -3996.785)" fill="#e33439"/>
        <path id="Path_2385" data-name="Path 2385" d="M989.91,4139.272a5.894,5.894,0,0,0,5.318-.167c1.441-.9,1.394-2.269-.1-3.072a5.877,5.877,0,0,0-5.313.167c-1.441.893-1.4,2.269.1,3.068Z" transform="translate(-757.143 -3994.418)" fill="#ef4d57"/>
        <path id="Path_2386" data-name="Path 2386" d="M1000.566,4253.368l-3.175-1.827a2.982,2.982,0,0,1-1.325-2.705,9.351,9.351,0,0,1,4.007-7.464,2.944,2.944,0,0,1,2.98-.391l3.175,1.831Z" transform="translate(-761.05 -4050.744)" fill="#a03935"/>
        <path id="Path_2387" data-name="Path 2387" d="M1006.9,4245.311a9.331,9.331,0,0,0-4,7.464c.084,2.7,2.013,3.738,4.309,2.312a9.368,9.368,0,0,0,4.006-7.47c-.083-2.7-2.017-3.733-4.313-2.311Z" transform="translate(-764.705 -4052.852)" fill="#e33439"/>
        <path id="Path_2388" data-name="Path 2388" d="M1009.575,4251.4a4.276,4.276,0,0,0-1.836,3.43c.037,1.237.925,1.711,1.98,1.056a4.3,4.3,0,0,0,1.836-3.426C1011.513,4251.218,1010.63,4250.739,1009.575,4251.4Z" transform="translate(-767.297 -4056.297)" fill="#a03935"/>
        <path id="Path_2389" data-name="Path 2389" d="M881.433,4092.588c-1.064,0-1.929-.5-1.929-1.561v-4.165c0-10.529-17.766-30.646-38-33.747-7.735-1.18-18.719,4.453-28.41,9.427-11.235,5.763-20.94,10.747-27.044,7.014-3.328-2.036-4.946-6.3-4.946-13.039a1.934,1.934,0,0,1,3.867,0c0,5.207,1.041,8.483,3.1,9.738,4.258,2.608,13.926-2.357,23.269-7.153,10.714-5.494,21.786-11.183,30.758-9.8,20.875,3.189,41.286,24.2,41.286,37.558v4.165c0,1.064-.865,1.562-1.934,1.562Z" transform="translate(-646.007 -3948.186)" fill="#f58834"/>
        <path id="Path_2390" data-name="Path 2390" d="M934.976,3999.124c-.851,6.782.474,13.484-.3,17.412,1.785,3.714,6.568,1.739,6.568,1.739,2.385-7.149,5.666-13.856,3.746-22.261-.218-2.235-2.087-4.235-3.681-7.483-3.035.125-10.1-.116-10.091,2.737,0,.707,3.881,7.758,3.756,7.851Z" transform="translate(-726.347 -3915.776)" fill="#f0c8b6"/>
        <path id="Path_2391" data-name="Path 2391" d="M912.722,3938.356c-9.018,4.025-4.058,11.012,1.529,19.561,2.58,3.951,4.4,11.564,4.523,12.327,1.934,3.17,14.089-1.325,13.327-5.439a137.945,137.945,0,0,0-6.117-15C923.023,3941.374,919.671,3936.414,912.722,3938.356Z" transform="translate(-713.79 -3888.698)" fill="#f58834"/>
        <path id="Path_2392" data-name="Path 2392" d="M622.28,3886.95a4.827,4.827,0,1,1,4.83,4.829A4.828,4.828,0,0,1,622.28,3886.95Z" transform="translate(-561.011 -3858.828)" fill="#b2c7d6"/>
        <path id="Path_2393" data-name="Path 2393" d="M620.935,3940.428s-39.989-11.207-75.525-3.491c32.636-11.784-2.7-54.074,39.153-55.026,6.768,31.307,38.753,54.361,38.753,54.361s1.413.326.079,2.72-2.459,1.441-2.459,1.441Z" transform="translate(-519.872 -3858.716)" fill="#d0dae2"/>
        <path id="Path_2394" data-name="Path 2394" d="M617.251,3954.545c-3.8-.274-7.781-.451-11.863-.473-6.758-20.147,24.761.473,17.157-35.082a94.492,94.492,0,0,0,7.6,12.067c4.4,22.051-23.409,6.363-12.9,23.487Z" transform="translate(-551.459 -3878.56)" fill="#beccd5"/>
        <path id="Path_2395" data-name="Path 2395" d="M676.5,3983.712c-3.733-.818-8.906-1.822-15.037-2.691-2.3-8.59,15.725.809,7.038-15.331a133.477,133.477,0,0,0,10.686,10.436C682.87,3979.332,668.307,3979.533,676.5,3983.712Z" transform="translate(-581.872 -3903.552)" fill="#beccd5"/>
        <path id="Path_2396" data-name="Path 2396" d="M570.868,4007.281a2.61,2.61,0,1,0,2.608,2.612A2.614,2.614,0,0,0,570.868,4007.281Z" transform="translate(-532.101 -3925.81)" fill="#fafafa"/>
        <path id="Path_2397" data-name="Path 2397" d="M532.288,3890.135l0,.125-.116-.069Zm7.1,15.051.186.344-.377-.181.191-.167Zm-16.432-.855a5.808,5.808,0,0,0,1.157,3.412,5.481,5.481,0,0,0,1.5,10.631,4.616,4.616,0,0,0,3.639,3.073l0,.065a5.353,5.353,0,0,0,10.705,0,5.429,5.429,0,0,0-.372-1.948,7.792,7.792,0,0,0,4.388-6.276,58.695,58.695,0,0,1,3.319-9.868l-.037-.4a7.234,7.234,0,0,0,1.743-12.788,6.012,6.012,0,0,0,1.143-3.542A6.288,6.288,0,0,0,549.9,3885l.237.014a7,7,0,0,0,7.005-7,6.925,6.925,0,0,0-.432-2.388,7.021,7.021,0,0,0,1.078.093,7.66,7.66,0,0,0,7.656-7.656,7.215,7.215,0,0,0-.051-.836,7.914,7.914,0,1,0,3.523-15l-.172.009a6.443,6.443,0,0,0-12.718,1.47,6.306,6.306,0,0,0,.474,2.412l-.228.237a5.187,5.187,0,0,0-8.85,3.667,5.146,5.146,0,0,1-.325,2.7,5.321,5.321,0,0,0,.112,1.093l-.558.236a6.688,6.688,0,1,0-11.361,6.694,8.058,8.058,0,0,0-5.894,11.016,4.5,4.5,0,0,0-2.817,7.274,8.439,8.439,0,0,0-3.626,15.3Z" transform="translate(-505.904 -3840.172)" fill="#fafafa"/>
        <path id="Path_2398" data-name="Path 2398" d="M525.631,3912.529a2.024,2.024,0,1,0-2.031-2.022A2.027,2.027,0,0,0,525.631,3912.529Z" transform="translate(-508.2 -3872.935)" fill="#fafafa"/>
        <path id="Path_2399" data-name="Path 2399" d="M507.918,3964.511a2.8,2.8,0,1,0-2.8-2.8A2.8,2.8,0,0,0,507.918,3964.511Z" transform="translate(-498.31 -3899.924)" fill="#fafafa"/>
        <path id="Path_2400" data-name="Path 2400" d="M495.276,3978.424a4.8,4.8,0,1,0-4.806-4.8A4.8,4.8,0,0,0,495.276,3978.424Z" transform="translate(-490.47 -3905.227)" fill="#fafafa"/>
        <path id="Path_2401" data-name="Path 2401" d="M579.585,3847.8a3.43,3.43,0,1,0-3.435-3.436A3.429,3.429,0,0,0,579.585,3847.8Z" transform="translate(-536.324 -3836.789)" fill="#b2c7d6"/>
        <path id="Path_2402" data-name="Path 2402" d="M610.634,3835.329a1.659,1.659,0,1,0-1.664-1.66A1.661,1.661,0,0,0,610.634,3835.329Z" transform="translate(-553.888 -3832.01)" fill="#b2c7d6"/>
        <path id="Path_2403" data-name="Path 2403" d="M641.288,3845.182a4.056,4.056,0,1,0-4.058-4.058A4.056,4.056,0,0,0,641.288,3845.182Z" transform="translate(-569.012 -3834.718)" fill="#b2c7d6"/>
        <path id="Path_2404" data-name="Path 2404" d="M521.136,4009.857a2.7,2.7,0,1,0-2.7-2.7A2.7,2.7,0,0,0,521.136,4009.857Z" transform="translate(-505.439 -3924.301)" fill="#fafafa"/>
        <path id="Path_2405" data-name="Path 2405" d="M723.717,4012.149l-16.385-8.947a1.682,1.682,0,0,1-.744-1.521,5.235,5.235,0,0,1,2.24-4.183,1.664,1.664,0,0,1,1.669-.219l16.39,8.957-3.175,5.913Z" transform="translate(-606.129 -3920.383)" fill="#e33439"/>
        <path id="Path_2406" data-name="Path 2406" d="M744.073,4016.763a5.248,5.248,0,0,0-2.245,4.183c.051,1.511,1.13,2.092,2.417,1.292a5.263,5.263,0,0,0,2.24-4.188c-.046-1.506-1.129-2.091-2.412-1.292Z" transform="translate(-624.989 -3930.691)" fill="#ef4d57"/>
        <path id="Path_2407" data-name="Path 2407" d="M745.049,4018.8a3.545,3.545,0,0,0-1.52,2.836c.032,1.022.767,1.413,1.641.874a3.547,3.547,0,0,0,1.515-2.835C746.652,4018.649,745.918,4018.255,745.049,4018.8Z" transform="translate(-625.9 -3931.844)" fill="#a03935"/>
        <path id="Path_2408" data-name="Path 2408" d="M874.649,3939.682c-8.325-3.565-15.9,5.359-15.9,5.359l-6.294,4.519-3.825,3.109s-4.207,36.335-2.273,38.46,4.072,9.166,15.855,7.628,15.07-9.39,15.735-13.277c.465-2.728.083-4.587.925-9.286,1.785-10.041,8.785-17.878,7.27-27.876-1.934-12.746-8.939-8.692-11.486-8.637Z" transform="translate(-680.658 -3889.183)" fill="#f89f3a"/>
        <path id="Path_2409" data-name="Path 2409" d="M892.121,3939.076c10.552,17.06-14.391,55.723-14.391,55.723l5.011-1.288s22.154-35.913,13.392-55.1c-.906-1.33-5.043-.316-4.011.664Z" transform="translate(-697.721 -3888.61)" fill="#334557"/>
        <path id="Path_2410" data-name="Path 2410" d="M863.779,3955.8c16.78,3.705,21.247,38.125,21.247,38.125l-.576,4.22-2.905.312s-2.659-37.177-22.591-39C858.489,3958.712,862.189,3955.7,863.779,3955.8Z" transform="translate(-687.651 -3898.256)" fill="#334557"/>
        <path id="Path_2411" data-name="Path 2411" d="M903.921,4230.009s-4.156-1.251-4.783,1.305,2.547,5.513,4.188,7.192c1.371,1.4,1.924,5.088,4.379,6.223a3.6,3.6,0,0,0,4.63-2.031c.762-1.972-.883-9.558-.883-9.558Z" transform="translate(-709.135 -4044.845)" fill="#664730"/>
        <path id="Path_2412" data-name="Path 2412" d="M901.768,4069.894c.442,4.458,1.278,29.754,1.534,40.538,3.96,11.1,2.176,29.605,2.194,37.209-.06,5.15-11.913,4.119-13.006-3.732.446-7.986-1.088-15.678-2.059-25.622-1.288-10.686-7.851-35.28-7.851-35.28s18.449-15.427,19.188-13.117Z" transform="translate(-700.317 -3959.19)" fill="#2d3542"/>
        <path id="Path_2413" data-name="Path 2413" d="M816.448,4238.211c-2.064,1.158-8.92-.255-11.17.836A3.984,3.984,0,0,0,805.4,4246c3.156,1.935,18.091,5.941,21.949,4.542s1.539-9.2,1.539-9.2-10.384-4.294-12.443-3.133Z" transform="translate(-657.89 -4049.291)" fill="#664730"/>
        <path id="Path_2414" data-name="Path 2414" d="M870.4,4037.821s-6.424,9.064-17.822,9.737c-6.977.419-13.852-3.458-13.852-3.458s-5.7,21.233-5.411,50.694c-.042,16.795.344,27.421-1.734,36.21.581,5.908,14.67,8.014,15.641,2.706-.386-15.4,2.413-26.556-.967-35.342,3.858-7.223,9.278-29.159,9.659-30.223,7.869-4.862,15.446-5.6,17.38-9.176C876.25,4053.5,873.1,4043.268,870.4,4037.821Z" transform="translate(-673.023 -3942.154)" fill="#334557"/>
        <path id="Path_2415" data-name="Path 2415" d="M743.378,4022.105a1.73,1.73,0,0,0,.916.776l10.417,5c2.143,1.018,4.783,2.7,5.178,4.955a56.947,56.947,0,0,1,.474,7.26,1.966,1.966,0,0,0,2.217,1.841c2.478,0,2.566-1.646,2.566-1.646.167-.157.13-3.328-.683-8.2-.572-3.4-3.18-6.225-7.758-8.4l-10.421-4.992c-1.158-.553-2.175.116-2.719,1.264a2.473,2.473,0,0,0-.181,2.143Z" transform="translate(-625.73 -3931.812)" fill="#27a9a1"/>
        <path id="Path_2416" data-name="Path 2416" d="M767.452,4034.745c-1.594.7-6.554-2.492-7.107-4.337-.423-1.386-.995-3.342,1.32-4.839,2.417-1.566,3.956-4.811,7.544-3.658.469,3.574,3.468,4.173,2.189,6.925-.623,2.241-1.78,1.706-3.356,3.863,0,0,.9,1.06-.586,2.05Z" transform="translate(-634.693 -3933.51)" fill="#96989b"/>
        <path id="Path_2417" data-name="Path 2417" d="M799.031,4022.956c-2.557-1.59-18.152-1.3-21-2.413-4.439,3.333,1.882,7.265,1.882,7.265,5.55.842,18.2,9.394,25.389,3.533,1.3-1.832,3.035-3.714,3.965-7.214-2.371-1.887-6.824-6.61-8.692-4.453-.465.535-1.39,3.3-1.548,3.282Z" transform="translate(-643.519 -3932.147)" fill="#f0c8b6"/>
        <path id="Path_2418" data-name="Path 2418" d="M845.141,3968.769c-8.818-4.444-11.844,2.705-14.586,12.541a33.267,33.267,0,0,1-4.788,10.505c-1.237,3.5,7.79,10.724,10.5,7.535a142.057,142.057,0,0,0,7.925-14.322C847.5,3977.786,847.907,3971.218,845.141,3968.769Z" transform="translate(-669.85 -3904.478)" fill="#f58834"/>
        <path id="Path_2419" data-name="Path 2419" d="M859.279,3887.09s-4.407,3.439-2.831,11.361c1.441,7.251,2.882,11.011,4.207,11.523.795.307,3.258.158,3.7.543s-.06,5.987-.121,6.823c2.7-.9,9.8-5.382,15.9-5.359a21.113,21.113,0,0,1-3.43-9.766c-.642-5.727-10.352-13.843-10.352-13.843l-7.084-1.283Z" transform="translate(-686.149 -3861.488)" fill="#f0c8b6"/>
        <path id="Path_2420" data-name="Path 2420" d="M861.4,3882.706c-.061,1.1,2.77,1.864,2.612,3.282s-3.64,2.319-3.9,4.443.609,6.819,1.627,7.047.307-2.542,2.268-1.734,2.473,6.085,6.563,6.271c3.607.172,8.079-1.78,8.66-3.472s4.913-8.307-1.748-15.353C867.639,3874.432,861.47,3881.61,861.4,3882.706Z" transform="translate(-688.271 -3857.103)" fill="#664730"/>
        <path id="Path_2421" data-name="Path 2421" d="M931.369,4060.811c-1.027.145-1.869,3.775-.325,4.57,2.715,1.395,6.066,3.118,7.953,3.022s1.9-.735,1.9-.735l-1.4-.966a6.1,6.1,0,0,0-.251-2.631c-1.041-1.65-4.658-3.719-7.874-3.264Z" transform="translate(-725.799 -3954.421)" fill="#96989b"/>
        <path id="Path_2422" data-name="Path 2422" d="M934.211,4054.451c1.673.781,2.691,2.12,2.287,3s-2.092.953-3.765.173-2.7-2.125-2.287-3,2.1-.953,3.77-.172Z" transform="translate(-725.885 -3950.766)" fill="#96989b"/>
      </g>
      <g id="Group_547" data-name="Group 547" transform="translate(117.601 111.893)">
        <path id="Path_2423" data-name="Path 2423" d="M416.08,3982.691l.544,4.923,1.859.414,3.932-5.918-1.013-3.959-4.876,2.272Z" transform="translate(-340.276 -3927.22)" fill="#2c2c2d"/>
        <path id="Path_2424" data-name="Path 2424" d="M295.166,3910.62a10.744,10.744,0,0,1-1.106,5.1v4.593l5.387,5.55,9.241-1.046,3.351-5.354-8.074-10.417-8-1.417s-1.051,1.821-.795,2.988Z" transform="translate(-274.974 -3889.48)" fill="#c9a899"/>
        <path id="Path_2425" data-name="Path 2425" d="M361.01,3980.77c6.517-2.161,17.073-.167,21.261-1.231-.53,2.766-1.153,3.862.061,6.322-4.4,1.613-19.458,7.818-26.323,4.206-3.649-2.617-7.488-9.235-7.488-9.235.056-3.031,6.982-6.662,9.84-6.731.707-.018,2.556,6.8,2.654,6.67Z" transform="translate(-304.12 -3925.052)" fill="#f0c8b6"/>
        <path id="Path_2426" data-name="Path 2426" d="M332.175,3922.6c-2.626,2.7,6.131,27.909,6.3,29.81,1.687,3.309,13.308-1.148,12.853-5.313-2.835-8.1-2.622-7.308-5.671-14.991-3.784-8.576-9.445-11.36-13.485-9.511Z" transform="translate(-295.109 -3897.195)" fill="#f58834"/>
        <path id="Path_2427" data-name="Path 2427" d="M294.232,3923.435a4.11,4.11,0,0,1-1.65,5.528c-5.662,3.565-12.039-5.75-12.457-6.8a12.311,12.311,0,0,1-3.858,4.174l-.265,1.919-3.626,1.358-4.355,3.82s6.638,22.894,6.508,24.953,5.118,4.932,4.848,14.229c-.939,1.687,4.62,8.832,13.057,7.8-.683-3.55,2.817-4.913,4.918-6.061a45.292,45.292,0,0,1,11.686-4.23s1.706-25.114,1.706-30.71c0-11.69-14.289-19.741-14.289-19.741l-2.213,3.764Z" transform="translate(-261.038 -3895.922)" fill="#f89f3a"/>
        <path id="Path_2428" data-name="Path 2428" d="M348.973,4218.4c2.924,4.1,11.058,4.378,14.163,8.26.99,1.121,1.032,4.416-.665,5.192-5.067,1.231-13.522-3.147-13.522-3.147s-9.743-.549-10.793-2.161c-1.325-2.045-.967-7.339-.967-7.339s11-1.917,11.779-.811Z" transform="translate(-298.032 -4055.606)" fill="#664730"/>
        <path id="Path_2429" data-name="Path 2429" d="M338,4052.25c2.794,16.208,2.928,36.284,2.663,42.6-1.687,14.289-.107,30.223,0,33.989.088,3.128-13.619,5.814-14.935.259-.944-6.224-1.827-22.833.511-31.8.916-3.51-8.3-37.4-8.3-37.4s19.7-11.285,20.057-7.65Z" transform="translate(-287.754 -3966.49)" fill="#2d3542"/>
        <path id="Path_2430" data-name="Path 2430" d="M314.351,3917.181c15.353,5.415,16.8,18.542,16.8,18.542l-3.412,2.357s-2.31-15.54-17.6-19.3C310.154,3917.794,313.222,3917.464,314.351,3917.181Z" transform="translate(-283.58 -3894.59)" fill="#334557"/>
        <path id="Path_2431" data-name="Path 2431" d="M311.773,3997.5c4.774-12.644-.753-33.1-.753-33.1s14.73-6.024,21.633-13.4c2.77,16.4.483,34.049.483,34.049l-2.887,4.862-8.609,7.368S310.476,4001.681,311.773,3997.5Z" transform="translate(-284.051 -3912.695)" fill="#334557"/>
        <path id="Path_2432" data-name="Path 2432" d="M281.271,3934.01c15.6,7,18.486,20.607,18.486,20.607l-4.778,1.878s-3.012-15.122-17.6-19.208C277.394,3936.3,280.146,3934.29,281.271,3934.01Z" transform="translate(-266.048 -3903.597)" fill="#334557"/>
        <path id="Path_2433" data-name="Path 2433" d="M281.335,4234.962c-.2,2,4.021,10.119,2.524,12.523-1.353,2.17-6.215,1.306-8.883-.772s-3.616-7.535-3.616-11.058c0-2.487.237-5.095.237-5.095l9.65.775a14.905,14.905,0,0,1,.088,3.623Z" transform="translate(-262.826 -4062.302)" fill="#664730"/>
        <path id="Path_2434" data-name="Path 2434" d="M309.309,4024.255s-14.5,9.84-20.1,9.548a14.935,14.935,0,0,1-10.654-5.22s-3.472,5.973-4.514,9.673-.572,38.092-2.4,42.94-2.724,5.848-3.6,9.547-1.957,25.2-1.376,31.107,13.173,5.61,14.526,1.245c-.39-15.4.088-30.752,2.835-35.908,3.858-7.224,9.729-34.271,10.105-35.332,7.846-4.048,16.348-12.7,16.348-14.209a112,112,0,0,0-1.162-13.4Z" transform="translate(-260.223 -3951.892)" fill="#334557"/>
        <path id="Path_2435" data-name="Path 2435" d="M265.64,4018.587c5.215,2.444,12.425,12.555,16.023,13.805a9.868,9.868,0,0,0-4.142,5.758c-4.346-1.732-19.6-9.138-22.3-16.413-.962-4.374.251-10.876.251-10.876,2.068-2.222,8.3-.874,10.463.986C266.476,4012.306,265.486,4018.619,265.64,4018.587Z" transform="translate(-253.991 -3944.107)" fill="#f0c8b6"/>
        <path id="Path_2436" data-name="Path 2436" d="M309.884,3877.233c5.085,4.351,3.733,12.369,3.733,12.369s-.66,11.412-1.669,12.518a6.326,6.326,0,0,1-3.156,1.947c-2.017.191-10.277-4.536-11.3-5.8s-.809-3.631-.809-3.631-3.3-.251-3.788-4.764a15.833,15.833,0,0,1,.149-5.09l2.594-5.689,5.522-3.417h4.5A24.68,24.68,0,0,1,309.884,3877.233Z" transform="translate(-274.288 -3872.38)" fill="#f0c8b6"/>
        <path id="Path_2437" data-name="Path 2437" d="M291.074,3887.448s-.284-5.425,2.519-3.059c.9.953.539,1.51,1.218,2.622s2.343,1.761,2.766,1.316.878-5.337.381-6.936-3.258-2.877-1.353-5.011,9.241,4.077,11.7,1.669c1.687-1.827-2.6-14.642-14.837-7.126-8.683,5.764-2.385,16.534-2.385,16.534Z" transform="translate(-272.198 -3868.581)" fill="#664730"/>
        <path id="Path_2438" data-name="Path 2438" d="M262.854,3947.33c-11.653.72-9.371,30.6-9.854,32.454.483,3.682,13.485,5.1,14.228-.065.679-6.66.534-10.034,2.059-18.806C271.268,3952.884,265.072,3947.051,262.854,3947.33Z" transform="translate(-253 -3910.72)" fill="#f58834"/>
        <path id="Path_2439" data-name="Path 2439" d="M455.08,3942.08l.074.163-.06-.172Z" transform="translate(-361.148 -3907.91)" fill="#868685"/>
        <path id="Path_2440" data-name="Path 2440" d="M317.784,4071.933l-.925.191-3.709-3.664,4.407-5.34,2.338,6.252Z" transform="translate(-285.191 -3972.693)" fill="#27857a"/>
        <path id="Path_2441" data-name="Path 2441" d="M307.538,4058.51a29.182,29.182,0,0,1,9.283,1.943c1.269.958,5.434,3.6,3.9,6.256l-1.055,1.269-8.116,1.678a16.493,16.493,0,0,1-2.543-.85c-.274-.275-4.732-2.316-5.6-4.537a3.943,3.943,0,0,1,.772-3.816,5.2,5.2,0,0,1,3.37-1.943Z" transform="translate(-279.871 -3970.226)" fill="#2c2c2d"/>
        <path id="Path_2442" data-name="Path 2442" d="M380.818,3978.726l-1.706,5.058s-20.071-6.74-35.694.92-14.4,28.034,6.433,32.478l-10.724,2.143-22.828-9.65,2.3-20.987,19.458-13.633s22.233-9.344,42.76,3.677Z" transform="translate(-286.876 -3923.825)" fill="#15302d" fill-rule="evenodd"/>
        <path id="Path_2443" data-name="Path 2443" d="M359.775,4013.163l.074,4.774c-22.354,12.843-57.578,9.2-65.573-15.711-4.695-14.619,12.081-30.735,27.527-33.3l-8.274,21.02v18.1l9.5,3.211s6.94,8.4,28.429,4.6C353.718,4015.465,357.2,4013.828,359.775,4013.163Z" transform="translate(-274.66 -3922.285)" fill="#00f3bb" fill-rule="evenodd"/>
        <path id="Path_2444" data-name="Path 2444" d="M365.391,3971.713l-1.385-.943-1.446-.879-1.5-.823-1.557-.757-1.613-.693-1.655-.636-1.7-.567-1.743-.511-1.78-.446-1.813-.381-1.841-.325-1.873-.26-1.892-.2-1.915-.135-1.924-.069-1.943-.009-1.948.051-1.952.117-1.957.177-1.952.241-1.948.3-1.934.367-1.924.432-1.906.488-1.887.558-1.859.614-1.831.684-1.8.743-1.766.8-1.724.865-1.683.934-1.632.989-1.566,1.042-1.478,1.079-1.385,1.116-1.292,1.138-1.209,1.171-1.111,1.195-1.023,1.223-.934,1.236-.837,1.26-.748,1.274-.655,1.288-.563,1.3-.465,1.306-.376,1.312-.284,1.311-.186,1.315-.093,1.311v1.311l.093,1.3.191,1.293.283,1.278.381,1.264.474,1.246.572,1.231.665,1.205.762,1.184.855,1.153.958,1.129,1.046,1.092,1.148,1.06,1.241,1.023,1.339.985,1.39.917,1.445.855,1.5.79,1.552.73,1.6.669,1.641.609,1.683.548,1.725.488,1.752.428,1.785.362,1.808.307,1.836.246,1.85.182,1.873.125,1.883.07,1.892,0,1.9-.056,1.9-.112,1.9-.172,1.9-.228,1.887-.292,1.883-.349,1.864-.4,1.85-.464,1.831-.525,1.8-.581,1.78-.642,1.748-.7,1.715-.757,1.678-.813,1.641-.874,1.594-.93-1.148.382-1.162.348-1.171.321-1.185.293-1.19.256-1.2.232-1.2.2-1.208.167-1.213.135-1.213.106-1.209.074-1.213.042-1.209.01-1.2-.019-1.2-.051-1.19-.079-1.181-.112-1.171-.144-1.162-.178-1.148-.209-1.134-.236-1.12-.27-1.1-.3-1.083-.334-1.06-.368-1.041-.4-1.018-.428-.99-.46-.967-.493-.939-.525-.911-.557-.874-.59-1.041-.767-.962-.8-.888-.832-.813-.851-.734-.883-.665-.9-.59-.92-.511-.944-.442-.957-.363-.972-.293-.99-.218-.994-.144-1.009-.07-1.013,0-1.023.074-1.022.149-1.023.223-1.022.293-1.023.367-1.017.442-1.014.507-1,.586-.995.655-.981.725-.967.795-.948.869-.934.939-.911,1.009-.893,1.078-.864,1.143-.841,1.218-.813,1.162-.711,1.195-.669,1.222-.632,1.251-.591,1.269-.543,1.3-.512,1.311-.465,1.334-.423,1.343-.386,1.362-.344,1.371-.3,1.381-.264,1.385-.219,1.39-.181,1.39-.14,1.394-.1,1.39-.056,1.385-.019,1.381.023,1.371.065,1.357.108,1.348.148,1.329.186,1.316.228,1.292.27,1.278.312,1.246.353,1.227.39,1.195.433,1.162.474,1.134.512,1.1.553-.2-.19-.2-.2-.2-.2-.209-.19-.209-.191-.209-.186-.214-.191-.218-.185-.223-.187-.223-.186-.228-.182-.228-.186-.232-.181-.237-.177-.242-.182Z" transform="translate(-274.889 -3919.689)" fill="#004747" fill-rule="evenodd"/>
        <path id="Path_2445" data-name="Path 2445" d="M422.842,3973.442c-.093-.767-3.026-3.862,2.259-7.864,1.864-1.492,5.945.023,5.146,4.922-1.19,7.289-9.627,10.509-9.627,10.509s-2.222-3.7,2.222-7.562Z" transform="translate(-342.409 -3920.197)" fill="#2c2c2d"/>
      </g>
    </g>
  </g>
</svg>
