<svg xmlns="http://www.w3.org/2000/svg" width="28.787" height="23.38" viewBox="0 0 28.787 23.38">
  <path id="Icon_awesome-twitter" data-name="Icon awesome-twitter" d="M25.828,9.208c.018.256.018.511.018.767,0,7.8-5.936,16.786-16.786,16.786A16.672,16.672,0,0,1,0,24.112a12.2,12.2,0,0,0,1.425.073,11.816,11.816,0,0,0,7.325-2.521,5.91,5.91,0,0,1-5.516-4.092,7.44,7.44,0,0,0,1.114.091,6.24,6.24,0,0,0,1.553-.2,5.9,5.9,0,0,1-4.731-5.79V11.6a5.942,5.942,0,0,0,2.667.749A5.909,5.909,0,0,1,2.009,4.458a16.77,16.77,0,0,0,12.165,6.174,6.66,6.66,0,0,1-.146-1.352A5.905,5.905,0,0,1,24.239,5.244a11.616,11.616,0,0,0,3.744-1.425A5.884,5.884,0,0,1,25.389,7.07a11.827,11.827,0,0,0,3.4-.913,12.682,12.682,0,0,1-2.959,3.05Z" transform="translate(0 -3.381)" fill="#fafafa"/>
</svg>
