 <svg xmlns="http://www.w3.org/2000/svg" width="18.629" height="19.995" viewBox="0 0 18.629 19.995">
  <g id="_0287-user" data-name="0287-user" transform="translate(-0.934 -1.152)">
    <path id="Path_8453" data-name="Path 8453" d="M8.451,8.9A4.451,4.451,0,1,1,12.9,4.451,4.456,4.456,0,0,1,8.451,8.9Zm0-8.092a3.642,3.642,0,1,0,3.642,3.642A3.646,3.646,0,0,0,8.451.809Z" transform="translate(1.697 1.402)" stroke="#000" stroke-width="0.5"/>
    <path id="Path_8454" data-name="Path 8454" d="M17.543,21.164H2.586A1.658,1.658,0,0,1,1,19.445a7.231,7.231,0,0,1,1.3-3.78,7.654,7.654,0,0,1,3.033-2.542A9.022,9.022,0,0,1,10.064,12,9.022,9.022,0,0,1,14.8,13.124a7.663,7.663,0,0,1,3.033,2.542,7.231,7.231,0,0,1,1.3,3.78A1.658,1.658,0,0,1,17.543,21.164Zm-7.478-8.018c-3.687,0-5.427,1.092-6.887,3.157a6.142,6.142,0,0,0-1.12,3.145.552.552,0,0,0,.529.57H17.543a.552.552,0,0,0,.529-.573,6.12,6.12,0,0,0-1.12-3.143C15.49,14.237,13.75,13.145,10.064,13.145Z" transform="translate(0.184 -0.267)" stroke="#000" stroke-width="0.5"/>
  </g>
</svg>
