<svg id="_1917227103472" xmlns="http://www.w3.org/2000/svg" width="265.96" height="237.768" viewBox="0 0 265.96 237.768">
  <g id="Group_261" data-name="Group 261" transform="translate(36.114 80.217)">
    <path id="Path_966" data-name="Path 966" d="M813.253,1569.368c4.12-32.8-69.548-71.2-96.411-40.212C660.314,1594.418,805.177,1636.608,813.253,1569.368Z" transform="translate(-623.914 -1517.742)" fill="#c5dfdc" fill-rule="evenodd"/>
    <g id="Group_260" data-name="Group 260" transform="translate(0 0.168)">
      <path id="Path_967" data-name="Path 967" d="M328.707,1602.243c3.955-32.961-69.712-71.2-96.575-40.212C175.768,1627.293,320.466,1669.483,328.707,1602.243Z" transform="translate(-219.134 -1545.346)" fill="#e1ffff" fill-rule="evenodd"/>
      <path id="Path_968" data-name="Path 968" d="M363.128,1529.347c-15.656,23.9-12.525,16.151-18.128,22.908s-14.338,3.791-21.425,15.656c-6.922,12.031,13.349,29.5,5.768,48.453-30.324,77.458,241.768,70.042,147.83-64.109C458.715,1525.886,378.62,1505.45,363.128,1529.347Z" transform="translate(-305.139 -1518.76)" fill="#c6ecf9" fill-rule="evenodd"/>
      <path id="Path_969" data-name="Path 969" d="M293.6,2119.627c55.539-5.768,121.79-5.768,175.517-1.978C494.99,2201.865,275.471,2182.913,293.6,2119.627Z" transform="translate(-280.437 -2016.75)" fill="#e7edec" fill-rule="evenodd"/>
    </g>
  </g>
  <path id="Path_970" data-name="Path 970" d="M902.464,1936.684H902.3v-3.955h.33v-.495h0l.165.165v.33a.605.605,0,0,1,.165.494l.989,3.131A4.808,4.808,0,0,1,902.464,1936.684ZM861.263,1894h.659a.991.991,0,0,1,.659.165c.33.165.824.495.824.989v.659a.606.606,0,0,1,.165.494c.165.33.494.33.659.659-.33.495-.33.165-.33.659v.494c0,.165.165.165.165.33,0,.494-.989.165-1.154.494,0,.165-.165,1.154-.165,1.318.494.165,1.318,1.813,1.483,2.472a13.727,13.727,0,0,1,.494,3.626c.33.165,1.648,1.154,1.978,1.319a9.449,9.449,0,0,0,1.154.659c.824.659.659.33.659.824a.6.6,0,0,1,.494.165h.33c1.154,0,.824.33,1.154.989a13.824,13.824,0,0,1,1.154,3.131l.33.824c.33,0,.33-.165.659-.165,0,.165.165.33.165.659h-.33a3.054,3.054,0,0,0,.33,1.154h0c.165-.165.33-.659.494-.824h-.165a16.909,16.909,0,0,0,.659-2.307c0-.165,0-.165.165-.33a36.655,36.655,0,0,0-.165-5.933,1.982,1.982,0,0,1,.33-1.318c.495-.824.165-.494.495-1.319a6.686,6.686,0,0,1,.824-1.483.856.856,0,0,0,.33-.659c-.165-.33-.494-.33-.989-.33,0-.494.165-.494.165-.659s-.165-.165-.165-.33c0-.494,0-.33-.165-.659l.33-.33a6.886,6.886,0,0,0,.33-.989v-.33a1.4,1.4,0,0,1,1.154-1.154,5.607,5.607,0,0,1,1.648.165c1.648.824,1.154,2.472,1.154,3.791a22.105,22.105,0,0,0-.165,3.3,14.413,14.413,0,0,0,.33,2.637,3.054,3.054,0,0,0,.33,1.154c.824-.165,3.131-.989,4.12-1.318l2.142-.659c.33-.165.659-.165.989-.33.659-.165,4.779-.824,5.768-.989.659-.165,1.483-.33,2.307-.494.165,0,.824-.165.989-.165.33-.165.165-.33.165-.494v-.659c-.165,0-.165,0-.33-.33l.33-.33c.494-.33.33-.494.494-.824s.165-.33.165-.494a1.609,1.609,0,0,1,1.154-1.318,3.508,3.508,0,0,1,2.637.494,2.166,2.166,0,0,1,.33,3.461.856.856,0,0,1-.659.329c-.33.165-.494.495-.659.495,0,.33.165.494.165.824h.165c0,.33,0,.165.33.33a.161.161,0,0,0,.165.165c.165-.165.33-.165.33-.494,0-.165-.33-.659.165-.659.33-.165.165-.165.494-.33l.33-.33c.33,0,.33.165.659.165s.495-.165.824-.165c.165-.659,2.307-.165,2.307,1.648,0,.824-.659,1.318-.659,1.483.33.165.824.659,1.154.824a7.008,7.008,0,0,1-.33-1.813c.165-.165.165,0,.33,0,0-.824-.494-2.307-.494-3.131.33,0,.33,0,.33.329,0,.165,0,.33.165.33l.165,1.648c.165.824,0,.659.659.659a66768.808,66768.808,0,0,0,.659,3.955c-.33,0-.824.165-1.154.165,0-.165-.165-.659-.165-.824-.659,0-4.779,1.154-5.274,1.154v.824c0,.824.165,1.483.165,2.307.494.165.659.659.989.989v-3.461h3.626c0-.33.33-.824.659-.824.494,0,.659.165.989.165h.659v-.33c.494-.165,3.626-1.483,4.285-1.813.33-.165.33,0,.659-.33l.824-1.318h0v-.165H914c.165-.494.33-.494.494-.989.33-.824,1.318-2.967,1.978-3.131-.165-.165-.33-1.154-.494-1.318-.165-.33-1.648.165-.824-.989,0-.165-.165-.165-.165-.33s.165-.33,0-.495c0-.165-.165-.165-.33-.33.33-.494.659-.494.824-.824a1.246,1.246,0,0,1,.165-.659v-.165c.165-.33-.165-.659.494-1.318.659-.494.989-.329,1.813-.329a2.574,2.574,0,0,1,2.472,1.318,2.5,2.5,0,0,1-.33,2.8,1.728,1.728,0,0,1-.659.494c-.659.33-.494.494-.824.494,0,.33,0,.33.165.494,0,.494,0,.494.33.659.33.494.659.659.659,1.154a2.342,2.342,0,0,1,.33.989l.165,3.461v.494c-.165,1.978,0,3.955,0,5.768,0,.33,0,.494.165.659v.659c0,1.319.165,2.637.165,3.791H919.6a2.805,2.805,0,0,0,.165,1.154l.33,3.3c.165.659,0,.33.494.824l1.154,1.318.494.494c.165.33.33.494.494.824.165.165.33.494.495.659.165.33.33.494.494.824.165.165.33.495.494.659.165.495,1.648,2.8,1.648,3.131,0,.165-.165.165-.33.33a2.047,2.047,0,0,1,.989,1.318c0,.33-.659.659-.824.824-.165,0-.165-.165-.33-.165a4.44,4.44,0,0,1-1.813,1.648,2.454,2.454,0,0,1-1.483.659.161.161,0,0,1-.165-.165h0c0-.494,0-.659.494-.989.824-.494.824-1.154.989-1.978-.33,0-.824.494-1.154.494a3.49,3.49,0,0,0-.494-1.154l-1.318-2.307c-.659-1.154-1.483-2.307-2.142-3.461a5.782,5.782,0,0,0-.824-1.318,19.27,19.27,0,0,1-.989-3.3c-.165,0,0,0-.165.165h0v.165l-1.318,1.813c-.33.824-.165.659-.165,1.483a18.672,18.672,0,0,1-.165,4.285c0,.659-.659,4.45-.659,4.779h-.494a2.434,2.434,0,0,1-.165,1.483c0,.165,0,.33-.33.33a2.09,2.09,0,0,1-.989-.165c.165-.494-.494,0-1.154,0a5.645,5.645,0,0,1-2.966-.494c.33-.989.659-.659,1.154-.659a2.873,2.873,0,0,0,1.978-.989c-.33,0-.824-.329-1.154-.329,0-.33.33-1.483.33-1.978a44.694,44.694,0,0,0,.989-6.262,6.843,6.843,0,0,1,.494-2.142c.165-.33.165-.494.33-.824l1.154-2.472c.165-.33.165-.659.33-.989a1.259,1.259,0,0,0,.33-.824h-.33l.33-6.1a2.09,2.09,0,0,1,.165-.989v-.989c-.165,0,0,0-.165.165a11.353,11.353,0,0,1-1.318.494c-.494.165-1.154.33-1.648.494a7.008,7.008,0,0,0-1.813.33c-.33,0-.659.165-.659-.165l-.165-.989v.494h-1.483c0,.659-.824,0-.989,0h-3.131v6.1c0,.33.165.494.165.824v2.8c0,.33-.165.494-.165.824l1.318.165c.33.165.659.165.989.33a.605.605,0,0,0,.494.165c.165.165.165.165.33.165v.165a9.6,9.6,0,0,1,2.472,1.813,8.611,8.611,0,0,1,1.483,6.592,7.328,7.328,0,0,1-2.637,4.285,2.9,2.9,0,0,0-.824.659,7.13,7.13,0,0,1-1.978.824,7.813,7.813,0,0,1-9.559-5.109c-.165-.33-.165-.989-.33-.989h-3.955v1.483a2.289,2.289,0,0,1,1.648.824,2.627,2.627,0,0,1,.659,1.978,2.547,2.547,0,0,1-2.637,2.307,2.333,2.333,0,0,1-2.307-1.483,2.282,2.282,0,0,1,.494-2.8,2.028,2.028,0,0,1,1.648-.824v-6.427c-.824,0-.494,0-.989.494l-.989,1.154c-.165.33-.494.494-.659.824-.494.824-.33.659-.659.659-.165.494-.494,1.154-.659,1.648,0,.165-.165.494-.165.659h-2.637c0-.33-.33-.659-.33-1.154h2.142c-.165-.165-.33-.165-.33-.33-.165,0,0-.165-.165-.165,0-.165,0-.165-.165-.165a.991.991,0,0,1-.659-.165,8.835,8.835,0,0,1-1.813-.824c-.824-.659-.989-.824-.494-.989-.165-.165-.165-.165.165-.494.33-.165.659.165.989.33a4.481,4.481,0,0,0,1.483,0c.165-.165.33-.165.494-.494v-.165c.165-.165.165-.165.165-.33.165-.165.33-.33.33-.494h-6.922a16.432,16.432,0,0,0,.33,2.637c0,.33.165.495.165.824-.659,0-.33.165-.165.659.494,2.142-.824,1.483-1.648,1.483-.33,0-.494.165-.824.165a2.971,2.971,0,0,1-1.648.165c-.165-.989.659-.659.989-.989.494-.165.824-.824.989-1.154h-.989c0-.659-.165-1.318-.165-1.978a2.091,2.091,0,0,1-.165-.989c0-.165,0-.824-.33-.824h-2.967c0,.824.165,4.45,0,5.109l-.33.494a1.642,1.642,0,1,1-2.472-2.142,1.668,1.668,0,0,1,1.154-.659c0-.659.165-1.319.165-2.143v-3.791h1.483v1.648h2.967c0-.824-.495-2.142-.495-2.8a40.393,40.393,0,0,1,.33-4.45v-.494a3.1,3.1,0,0,0-1.318.33,1.246,1.246,0,0,0,.165.659c-.33.165-.989.165-1.154.33a21.956,21.956,0,0,1-.824-3.131h-.33c0-.165-.165-.33-.165-.659h.659c-.165-.33-.165-.33-.165-.494a16.91,16.91,0,0,1-.659-2.307c-.165-.33-.165-.659-.33-.989-.33.165-.824.33-.824,0l-.165-.165c0-.33.165.165,0,0-.33,0-.165.33-.659.33,0-.33.165-.494.165-.659a.856.856,0,0,0-.659-.33,2.343,2.343,0,0,0-.33.989c-.33-.165-.494-.165-.824-.33l-2.142-.824.494,5.438H864.23a14.424,14.424,0,0,0,.33,2.637c.165,3.131.33,1.978-.165,4.944-.165.824-.33,1.483-.494,2.307l-.494,3.461c0,.329-.165.824-.165,1.154-.165,0-.989-.165-.989-.165a.856.856,0,0,0,.33.659c.989,1.318,1.813.165,1.813,1.648a3.383,3.383,0,0,1-2.472-.33c-.495-.165-1.813.165-2.143,0-.33-.33-.165-1.483,0-1.813,0-.165.165-.33.165-.494h-.494c0-.165.165-.659.165-.824l.824-4.285c0-.33.165-.494.165-.824a15.878,15.878,0,0,1,0-2.8,2,2,0,0,0,.165-1.648,13.727,13.727,0,0,1-.494-3.626h-1.318v-3.3c0-.33.165-.494.165-.824V1908.5c.165-1.318-.165-4.779.165-6.757a3.1,3.1,0,0,1,.824-1.813c0-.165.33-.33.33-.495a.991.991,0,0,0,.165-.659c-.165-.494-.659-.494-.989-.824-.165-.165-.33-.165-.494-.33a2.529,2.529,0,0,1,0-2.637A2.658,2.658,0,0,1,861.263,1894Zm39.883,38.4a.736.736,0,0,0,.824,0v4.285a4.041,4.041,0,0,1-2.472-.659c0-.165.659-1.483.659-1.813Zm-1.978,3.461a4.106,4.106,0,0,1-2.307-1.813,23.584,23.584,0,0,1,2.472-1.813c1.813,0,1.648-.33.659,1.813l-.659,1.318A.606.606,0,0,0,899.168,1935.86Zm-3.461-3.626h2.966l-2.142,1.648-.659-1.154C895.872,1932.564,895.707,1932.4,895.707,1932.234Zm4.45-.33h-.33C899.992,1931.575,899.992,1931.575,900.157,1931.9Zm3.131-.659a29.511,29.511,0,0,0,2.307,2.967c.165.165.165.329.33.494l.494.495a7.546,7.546,0,0,1-2.307,1.154l-1.154-4.615C902.959,1931.575,903.124,1931.41,903.288,1931.246Zm-6.922.659h0v-.165h.33c.165,0,.33-.165.494-.165l2.472-.824a.991.991,0,0,1,.165.659.575.575,0,0,1-.33.165c-.494.494-.33.33-1.154.33Zm7.251-1.483c.165.165.33.165.495.33l1.813.659c.494.165.824.33,1.318.494l1.154.494a5.466,5.466,0,0,1-1.813,2.637c0-.33-1.483-1.813-1.648-2.142-.165-.165-.33-.33-.33-.495l-1.318-1.648Zm-8.075,1.318v-1.318h-.33v-.33h4.614c0,.33-.165.33-.824.494l-2.307.824C896.367,1931.41,895.872,1931.74,895.543,1931.74Zm-9.723-1.483c.165-.165.33,0,.165,0Zm17.8-.165h2.8c.824,0,1.648-.165,2.637-.165,0,.494-.165.824-.165,1.154l-.33,1.154c-.33-.165-4.285-1.978-4.944-2.142Zm.165-.33v-.33c.165,0,2.142-.659,2.472-.659.494-.165.824-.329,1.318-.494.33,0,.989-.33,1.318-.33a13.135,13.135,0,0,1,.165,1.813h-5.274Zm-6.427,0h-2.142a6.762,6.762,0,0,1,.165-1.813h1.648a2.553,2.553,0,0,1,1.318.33c.33.165,2.142.824,2.307.989l-.494.494h-2.8Zm-2.966,0v.659h-3.955v-2.472h4.12A17.185,17.185,0,0,0,894.389,1929.762Zm6.592-1.813h.494c.165.33.165.33-.165.495-.165-.165-.165-.165-.165-.33Zm-2.472,0h1.648c.33,0,.33,0,.494.165s.33.33.33.495c-.165.165-.165.165-.165.33l-1.978-.824a.161.161,0,0,1-.165-.165Zm5.109,1.154v-.165l1.978-1.483a2.957,2.957,0,0,0,1.154-.824c.165,0,.989-.659,1.154-.659a5.155,5.155,0,0,1,.824,1.648c-.165,0-.494.165-.659.165-1.154.33-2.8.824-3.79,1.154C903.948,1929.1,903.783,1929.268,903.618,1929.1Zm-7.911-1.978c.165,0,.494.165.494.33h-.659C895.707,1927.29,895.707,1927.29,895.707,1927.125Zm.494-.989c.824,0,1.648.165,2.472.165.33,0,.33-.165.494,0l.33.33c.165.33.33.494.494.824h-2.307a3.456,3.456,0,0,1-1.813-.659A1.249,1.249,0,0,1,896.2,1926.137Zm5.274.165h.165l-.165.165Zm-1.978,0h1.648s.165.989.165,1.154c-.989,0-.659.165-1.648-.989Zm-4.779,1.154h-4.285a3.213,3.213,0,0,1,.165-1.318h4.615C895.048,1926.466,894.883,1927.125,894.719,1927.455Zm8.57,1.318c-.165-.329-.165,0-.165-.659,0,0,1.483-2.8,1.648-3.3l.494-1.154a4.545,4.545,0,0,1,2.307,1.978,4.368,4.368,0,0,0-.989.824C905.925,1926.8,903.783,1928.609,903.288,1928.773Zm-5.768-4.285c.33.165.165.165.33.33h-.495Zm.33-.165c.494-.33.494-.165,1.318-.165h1.318c0,.165.165.33.165.659h-2.307C898.179,1924.818,898.015,1924.324,897.85,1924.324Zm2.966-.165h.824v.659h-.659C900.981,1924.489,900.981,1924.324,900.816,1924.159Zm-10.383.494c0-.165.165-.33.33-.494H896.7a.354.354,0,0,1-.33.33c-.33.33-.165.33-.659.33-.659,0-1.154-.165-1.648-.165Zm12.36-1.813a5.477,5.477,0,0,1,2.142.659c0,.165-.33.659-.33.824l-1.483,2.966v-4.12h-.33Zm-16.81,1.813h-2.142v-4.45c.33.165.165.33.494.494a1.225,1.225,0,0,0,1.978-.494h1.648v1.648a.575.575,0,0,1-.165.33c-.165.165-.165.33-.33.494a2.274,2.274,0,0,0-.494.659C886.808,1923.5,886.149,1924.653,885.984,1924.653Zm6.922-7.087c0-.494,0-.33.659-.659l2.637-1.648v.659c0,.495.165.495-1.154.989A10.66,10.66,0,0,1,892.906,1917.567Zm-13.844-1.813c.824-.165.659-.33,1.648-.33a14.856,14.856,0,0,1,1.483,1.648l1.813,2.142h-1.483l-.165,5.439h-4.615c-.165-.165,0-1.648-.165-1.978v-1.154a2.271,2.271,0,0,1,0-1.813,18.253,18.253,0,0,0,.33-3.131h1.154Zm3.3-.824c.33,0,5.274-1.318,5.6-1.318v5.6c-2.637,0-1.318,0-2.142-.494a7.135,7.135,0,0,0-.824-.165l-1.978-2.637A3.45,3.45,0,0,0,882.358,1914.93Zm18.788-.989c.659.165.824,1.154.824,1.813v2.307h-.659a2.443,2.443,0,0,0,.165-1.154c0-.165-.165-.33-.165-.659v-.659A6.185,6.185,0,0,1,901.146,1913.941Zm-10.218,4.12h-.659v-2.637a1.629,1.629,0,0,1,1.483-1.648h.659v.165h1.813a20.946,20.946,0,0,1-2.307,2.8l-.33.494C891.258,1917.732,890.928,1917.732,890.928,1918.061Zm3.955-4.944h-2.472v.165a2.444,2.444,0,0,0-1.154.165,1.249,1.249,0,0,0-.659.33c-.989.989-.659,2.8-.659,4.285,0,.989,0,.989-.33,1.483a.355.355,0,0,1-.33.33v-6.757a58994.837,58994.837,0,0,0,1.648-.33l4.944-1.154c-.165.824-.33.659-.659,1.154A.354.354,0,0,1,894.883,1913.117Zm-4.12-1.483-.824-.494a.161.161,0,0,1-.165-.165,2.382,2.382,0,0,0,1.154-.33C890.928,1910.975,890.763,1911.3,890.763,1911.634Zm10.218-3.626c0-.494.989-1.318,1.318-1.154,0,.165.33.495.33.495A17.09,17.09,0,0,0,900.981,1908.008Zm-21.095.494c0-.165.33-.165.824-.329l5.109-1.648a18.058,18.058,0,0,1,4.285-.989c.824-.165,1.483-.33,2.307-.494l3.461-.494c.33-.165.165-.165.494,0h.494v.165h-.494a.606.606,0,0,1-.494.165l-3.3.659c-2.472.494-8.24,1.648-10.712,2.472-.33,0-.659.165-.989.165A2.344,2.344,0,0,1,879.886,1908.5Zm-2.142-6.592c0,.165.165.165.165.33C877.744,1902.075,877.744,1902.075,877.744,1901.91Z" transform="translate(-717.224 -1751.774)" fill="#9bc6d4" fill-rule="evenodd"/>
  <g id="Group_264" data-name="Group 264" transform="translate(91.128 80.424)">
    <g id="Group_263" data-name="Group 263" transform="translate(5.118)">
      <g id="Group_262" data-name="Group 262" transform="translate(10.547)">
        <path id="Path_971" data-name="Path 971" d="M655.581,1601.617a10.65,10.65,0,0,1-.494-8.405c2.966-8.24,14.173-2.966,15.162,1.978,1.154,4.944-2.307,15.492-5.438,15.492-1.318-.165-3.626-1.483-5.768-3.791l-1.648,11.7-9.394-2.8Z" transform="translate(-648 -1577.391)" fill="#ffc5cb" fill-rule="evenodd"/>
        <path id="Hair_18" d="M692.741,1581.4c-1.483.33-2.8,1.483-4.285,2.8a1.259,1.259,0,0,0-.824-.33,2.164,2.164,0,0,0-2.8,1.483,2.268,2.268,0,0,0,.165,1.813,23.569,23.569,0,0,1-2.472,1.813c-2.142-2.142-2.637-7.087.989-10.712,2.472-4.285,6.592-3.626,10.218-2.307,3.131,1.154,6.592-1.318,7.087,2.472C700.487,1581.561,698.18,1583.539,692.741,1581.4Z" transform="translate(-675.437 -1565.74)" fill="#2f7ea7" fill-rule="evenodd"/>
        <path id="Path_972" data-name="Path 972" d="M696.668,1529.877a29.063,29.063,0,0,0-11.7.989l-2.966-8.4,4.779,1.978,2.307-5.438,3.79,5.109,5.109-4.779Z" transform="translate(-676.397 -1519)" fill="#edce5c" fill-rule="evenodd"/>
      </g>
      <path id="Skin_19" d="M805.852,2020.767c3.3-1.978,8.9.494,8.9,3.461,0,8.57-7.911,49.441-8.24,52.078-.494,2.472-4.779,3.131-5.109,0-.33-5.274-1.154-23.073-.33-31.478a85.1,85.1,0,0,1,.989-9.559q-6.427,11.372-19.282,32.137L778,2065.264c3.791-12.2,6.757-20.765,9.064-25.71,4.12-8.735,7.911-15.986,9.559-18.623C799.095,2016.812,803.545,2018.3,805.852,2020.767Z" transform="translate(-746.028 -1936.058)" fill="#ffc5cb" fill-rule="evenodd"/>
      <path id="LegLower" d="M780,2055.936l16.151-38.235c3.955-6.262,14.832,1.154,13.514,4.779-2.966,8.24-18.293,34.774-19.117,37.246Z" transform="translate(-747.698 -1933.486)" fill="#5e5e5e" fill-rule="evenodd"/>
      <path id="shoe_20" d="M758.3,2287.451a18.229,18.229,0,0,0-1.978,2.142A29.312,29.312,0,0,0,755,2292.56c.824.494,7.416,4.285,19.941,11.536,1.483-1.483,1.813-2.472.824-3.3-1.154-.824-1.978-1.483-2.637-1.978l-6.922-9.559a.309.309,0,0,0-.494,0h0l-1.483.989a6.582,6.582,0,0,1-2.966-.659,7.264,7.264,0,0,1-1.813-1.978h0a1.015,1.015,0,0,0-1.154-.165Z" transform="translate(-726.818 -2160.717)" fill="#004747" fill-rule="evenodd"/>
      <path id="shoe_21" d="M910.659,2344.472a8.1,8.1,0,0,0-.659,2.8,12.474,12.474,0,0,0,.33,3.131H933.4c.494-1.978.165-2.966-1.154-3.131-1.154-.165-2.307-.33-3.131-.494L918.405,2342c-.165,0-.494,0-.494.165v.165l-.824,1.648a8.348,8.348,0,0,1-2.8.824,7.685,7.685,0,0,1-2.637-.824h0a.735.735,0,0,0-.989.494Z" transform="translate(-856.274 -2206.366)" fill="#004747" fill-rule="evenodd"/>
      <path id="Leg-and-Butt" d="M653.877,1996c0,10.877-5.109,36.092-5.109,38.564H637.726c1.483-22.578,2.142-34.115,1.648-34.279-.659-.33-29.006,2.8-37.575,2.8-12.2,0-17.3-7.746-17.8-22.084h24.391c4.944.659,30.654,5.768,40.377,7.581C652.723,1989.4,653.877,1993.031,653.877,1996Z" transform="translate(-584 -1904.86)" fill="#8d8d8d" fill-rule="evenodd"/>
      <path id="Skin_22" d="M755,1753.317l14.173-7.911a30.809,30.809,0,0,1,6.922-6.427c.824-.33,1.978-.494.824,1.483-1.154,2.142-2.307,4.285-1.648,4.944.494.659,1.978-.33,2.637.824.494.659-1.978,1.648-7.416,3.3l-10.218,9.394Zm22.249,6.427,6.263-3.3c.824-3.461,1.813-5.109,3.131-5.109.824-.33-.824,3.791.989,3.461s6.1-3.626,6.922-2.967c.989.989,0,3.955-1.154,5.439-2.143,2.8-3.955,3.626-8.405,4.944a26.383,26.383,0,0,0-7.416,3.791Z" transform="translate(-726.818 -1702.557)" fill="#ffc5cb" fill-rule="evenodd"/>
      <path id="Sleeve" d="M704.767,1787.6a34.734,34.734,0,0,0,18.623-5.6l2.8,6.262c-4.944,4.779-11.7,8.735-17.8,8.57A5.378,5.378,0,0,1,704.767,1787.6Z" transform="translate(-683.508 -1738.656)" fill="#00698a" fill-rule="evenodd"/>
    </g>
    <path id="Clothes" d="M585.916,1746.544c5.274,1.318,14.173-.165,26.7-4.614,2.966,6.427,4.45,10.877,4.285,13.679-10.712,5.6-19.941,8.075-27.357,8.24a26.5,26.5,0,0,1-2.142,12.525c-3.791,8.075-25.709.659-33.126,2.143-4.615-15.162,4.285-21.26,4.285-30.818,0-10.548,8.405-26.7,9.724-26.7h11.371C580.313,1729.075,583.444,1737.81,585.916,1746.544Z" transform="translate(-552.946 -1687.709)" fill="#004747" fill-rule="evenodd"/>
  </g>
  <g id="Group_266" data-name="Group 266" transform="translate(175.022 62.749)">
    <path id="Path_973" data-name="Path 973" d="M1271.371,1535.991a3.878,3.878,0,0,0-1.318-.33,10.163,10.163,0,0,0-3.791.33,9.209,9.209,0,0,0-5.274,3.791l-.989-.165a10.007,10.007,0,0,1,6.1-4.615,11.345,11.345,0,0,1,4.12-.33c.33,0,.659.165,1.154.165Z" transform="translate(-1227.369 -1514.36)" fill="#727376"/>
    <path id="Path_974" data-name="Path 974" d="M1251.9,1431a11.228,11.228,0,0,0,2.966-7.911c-.659-8.735-12.855-6.757-15.162-2.307-2.472,4.285-2.142,15.492.989,16.316,1.154.33,3.79-.494,6.427-1.978l-1.648,11.7h9.723Z" transform="translate(-1209.056 -1416.131)" fill="#ffc5cb" fill-rule="evenodd"/>
    <path id="Hair_23" d="M1251.581,1419.7c-.165,1.154-.165,1.978-.33,2.967l1.648.33v-2.143a2.4,2.4,0,0,1,2.8,2.307,3,3,0,0,1-.659,1.813,25.925,25.925,0,0,0,1.991,2.449,8.461,8.461,0,0,0,2.444-11.239c-.659-2.307-2.952-3.241-4.93-3.735a6.471,6.471,0,0,0-4.615-.494A16.368,16.368,0,0,0,1244,1413.6c0,2.637.495,3.461,4.779,3.3A7.6,7.6,0,0,1,1251.581,1419.7Z" transform="translate(-1214.005 -1411.75)" fill="#84716b" fill-rule="evenodd"/>
    <path id="Shoe_24" d="M1086.885,2353.57l-.329-8.57h-8.57a46.3,46.3,0,0,1-15.986,6.922v1.648h15.491l5.439-.824v.824Z" transform="translate(-1062 -2191.197)" fill="#d2d3d5" fill-rule="evenodd"/>
    <path id="Skin_25" d="M1455.251,1736l-7.251.989c7.746,16.975,12.031,25.874,12.525,26.863,1.318,2.142-.165,5.933-.824,7.911,2.967.989,1.978-3.626,5.768-2.472,3.3.989,6.1,3.3,9.559.659a1.354,1.354,0,0,0-.659-2.142c-3.131-1.648-8.075-4.615-8.735-5.768C1464.645,1760.556,1461.184,1751.821,1455.251,1736Z" transform="translate(-1384.385 -1682.562)" fill="#ffc5cb" fill-rule="evenodd"/>
    <path id="Coat-Back_26" d="M1159.335,1549.483l-4.45-1.483c-6.1,15.162-9.724,23.9-24.885,36.257l3.791,6.427c13.349-7.746,20.436-7.911,25.545-19.612C1161.148,1567.117,1159.5,1554.1,1159.335,1549.483Z" transform="translate(-1118.793 -1525.545)" fill="#c5cfd6" fill-rule="evenodd"/>
    <path id="Path_975" data-name="Path 975" d="M1238.307,1572.727a15.779,15.779,0,0,1-4.45,4.615l-.494-1.154a10.53,10.53,0,0,0,4.12-4.12c5.274-9.064-6.427-11.536-4.12,2.142l-.989.165C1229.737,1558.884,1244.405,1561.685,1238.307,1572.727Z" transform="translate(-1204.028 -1538.572)" fill="#727376"/>
    <g id="Group_265" data-name="Group 265" transform="translate(2.966 41.901)">
      <path id="Path_976" data-name="Path 976" d="M1101.095,1702.916,1080,1679.844,1095,1666l21.26,23.073Z" transform="translate(-1080 -1666)" fill="#009191" fill-rule="evenodd"/>
      <path id="Path_977" data-name="Path 977" d="M1103.6,1705.762l-20.6-22.413L1097.5,1670l20.6,22.413Z" transform="translate(-1082.506 -1669.341)" fill="#0ebfc1" fill-rule="evenodd"/>
      <path id="Path_978" data-name="Path 978" d="M1113.788,1711.972,1095,1691.536,1107.525,1680l18.788,20.436Z" transform="translate(-1092.528 -1677.693)" fill="#d9edf4" fill-rule="evenodd"/>
      <path id="Path_979" data-name="Path 979" d="M1108.307,1693.911l-2.307-2.637,5.768-5.274,2.307,2.472Z" transform="translate(-1101.715 -1682.704)" fill="#260000" fill-rule="evenodd"/>
      <path id="Path_980" data-name="Path 980" d="M1109.33,1693.6l-.33-.494,5.6-5.109.494.494Z" transform="translate(-1104.221 -1684.374)" fill="#797f7b" fill-rule="evenodd"/>
    </g>
    <path id="Leg_27" d="M1192.455,1804l-14.832,52.078-10.712,38.4H1159L1170.536,1804Z" transform="translate(-1143.014 -1739.356)" fill="#8a543d" fill-rule="evenodd"/>
    <path id="Leg_28" d="M1254.039,1804c.33,26.863,1.648,41.531,1.978,43.838.33,2.472,5.768,17.964,16.316,46.64h-8.24c-13.349-27.522-20.93-43.014-22.413-46.64-1.483-3.461-6.427-18.128-13.679-43.838Z" transform="translate(-1200.642 -1739.356)" fill="#a86e56" fill-rule="evenodd"/>
    <path id="Shirt_29" d="M1243.615,1592.167c-12.855,1.483-22.908,1.483-30.324,0-.989-.165-1.154-1.648-.659-2.637,6.592-16.151,11.042-30.324,11.042-41.531a13.1,13.1,0,0,0,6.427.165C1238.341,1559.866,1241.967,1573.05,1243.615,1592.167Z" transform="translate(-1187.582 -1525.545)" fill="#95b2da" fill-rule="evenodd"/>
    <path id="Coat-Front_30" d="M1259.338,1542.165h-3.3c-.824,4.779-3.3,67.734-11.042,88.335h41.7c-.989-18.952-8.075-41.531-15.327-60.483q9.641,8.652,16.81,29.665l7.746-2.142c-5.768-24.885-17.8-43.344-35.763-55.045a.575.575,0,0,1-.165-.33h-.33a.51.51,0,0,1-.33-.165Z" transform="translate(-1214.841 -1520.534)" fill="#dde3e9" fill-rule="evenodd"/>
    <path id="Path_981" data-name="Path 981" d="M1333.779,1546.053c.165-3.955-1.318-6.592-2.966-7.911a3.927,3.927,0,0,0-1.813-.989V1536a11.768,11.768,0,0,1,2.472,1.318,10.777,10.777,0,0,1,3.3,8.735Z" transform="translate(-1284.997 -1515.523)" fill="#727376"/>
    <path id="Path_982" data-name="Path 982" d="M1252.26,1591a2.472,2.472,0,1,1-2.472,2.472A2.534,2.534,0,0,1,1252.26,1591Zm-21.26,6.1,1.978-.33.165.989-1.978.495Zm1.483,1.648.824,1.813-1.318.495-.659-1.813Z" transform="translate(-1203.148 -1561.459)" fill="#4d4d4d" fill-rule="evenodd"/>
    <path id="Path_983" data-name="Path 983" d="M1108.8,1763.655c.495-1.318.824-4.12,2.143-3.791,2.142.494,3.131,3.131,3.791,5.109.494,1.483,1.154,3.955-.165,4.45C1112.591,1770.247,1108.306,1765.138,1108.8,1763.655Z" transform="translate(-1101.054 -1702.471)" fill="#ffc5cb" fill-rule="evenodd"/>
    <path id="Shoe_31" d="M1376.885,2353.57l-.33-8.57h-8.57a46.3,46.3,0,0,1-15.986,6.922v1.648h15.492l5.274-.824v.824Z" transform="translate(-1304.207 -2191.197)" fill="#d2d3d5" fill-rule="evenodd"/>
  </g>
  <g id="Group_267" data-name="Group 267" transform="translate(77.128 91.466)">
    <path id="Seat-Stuff" d="M479.207,2113.165l34.115-.165,1.648,46.146H468Z" transform="translate(-468 -2026.148)" fill="#c5cfd6" fill-rule="evenodd"/>
    <path id="Seat-Stuff_32" d="M479.207,2086h9.723l5.933,50.595H468Z" transform="translate(-468 -2003.598)" fill="rgba(0,0,0,0.1)" fill-rule="evenodd"/>
    <path id="Path_984" data-name="Path 984" d="M545.207,1593.581,539.438,1586,534,1593.581v83.226h11.207Z" transform="translate(-523.123 -1586)" fill="#b1bac0" fill-rule="evenodd"/>
  </g>
  <g id="Group_270" data-name="Group 270" transform="translate(0 0)">
    <path id="Path_985" data-name="Path 985" d="M493.393,1771.253c.659-1.978,4.12,0,6.1-.659,1.648-.494,2.472-2.8,4.12-2.637,1.154,0,.824,2.142,1.483,2.966.989,1.154,3.131,1.483,3.3,2.8.33,3.3-1.318,6.262-4.285,6.757-2.472.165-4.12-1.483-5.933-3.131C496.194,1775.7,492.569,1773.725,493.393,1771.253Z" transform="translate(-411.979 -1646.497)" fill="#ffc5cb" fill-rule="evenodd"/>
    <path id="Clothes-Back_33" d="M338,1634.989l3.3-.989c7.911,18.788,23.567,18.623,25.874,25.05,2.472,6.427,1.318,8.405-4.12,7.251C359.425,1665.642,340.637,1657.9,338,1634.989Z" transform="translate(-282.296 -1534.623)" fill="#c5cfd6" fill-rule="evenodd"/>
    <path id="Path_986" data-name="Path 986" d="M368.031,1529.167a11.1,11.1,0,0,1,2.637-7.746c5.768-6.1,13.679,2.637,12.855,7.416-.989,4.615-7.911,12.855-10.712,11.536-1.154-.494-2.637-2.637-3.626-5.438l-5.768,9.888L356,1538.891Z" transform="translate(-297.33 -1438.855)" fill="#ffc5cb" fill-rule="evenodd"/>
    <g id="Group_268" data-name="Group 268" transform="translate(0 126.075)">
      <path id="Leg_34" d="M42.039,1796l-12.69,50.925L16,1887.961l4.12,2.966,36.257-84.874Z" transform="translate(-13.363 -1796)" fill="#ffc5cb" fill-rule="evenodd"/>
      <path id="shoe_35" d="M.659,2343.8A14.048,14.048,0,0,0,0,2346.269a11.834,11.834,0,0,0,.33,3.131c.824,0,8.075.33,22.084.659.659-1.813.33-2.8-.989-3.131q-1.73-.248-2.966-.495L8.24,2341.654c-.165-.165-.33,0-.494.165h0l-.659,1.483a5.7,5.7,0,0,1-2.8.824,6.16,6.16,0,0,1-2.472-.824h0a.793.793,0,0,0-.989.33Z" transform="translate(0 -2251.671)" fill="#d2d3d5" fill-rule="evenodd"/>
    </g>
    <path id="Pant_36" d="M3,1899.818l10.877-.659,31.642-82.567L24.919,1810Z" transform="translate(-2.506 -1681.617)" fill="#8a543d" fill-rule="evenodd"/>
    <path id="Leg_37" d="M132,1846.5c12.855,11.372,28.346,28.676,28.841,29.665.33.824.165,15-.824,42.849l5.109-.33c5.439-29.005,1.648-44.991.989-47.3-1.154-3.3-12.2-25.215-21.589-39.388Z" transform="translate(-110.246 -1699.992)" fill="#ffc5cb" fill-rule="evenodd"/>
    <path id="shoe_38" d="M290.659,2345.307a6.73,6.73,0,0,0-.659,2.637,13.163,13.163,0,0,0,.33,3.131c.824,0,8.24,0,22.084.165q.989-2.719-.989-2.967-1.73-.247-2.966-.494L298.24,2343c-.33,0-.494,0-.659.165h0l-.659,1.648a7.427,7.427,0,0,1-2.8.824,6.5,6.5,0,0,1-2.307-.824h0a.851.851,0,0,0-1.154.494Z" transform="translate(-242.207 -2126.777)" fill="#d2d3d5" fill-rule="evenodd"/>
    <path id="Pant_39" d="M117.286,1895.3l12.2.165L127.5,1845.7c-2.472-5.768-4.944-20.765-22.084-38.564L93.554,1804c-28.346,24.391,12.031,38.4,20.106,45.816C114.155,1850.8,114.649,1870.911,117.286,1895.3Z" transform="translate(-69.822 -1676.606)" fill="#a86e56" fill-rule="evenodd"/>
    <path id="Clothes-Front_40" d="M163.235,1608.069c-16.48,19.777-24.721,30.654-33.95,36.587-7.416,4.944-18.128-.824-16.316-10.218a23.972,23.972,0,0,1,5.439-11.042c10.218-10.877,21.589-20.271,35.763-26.369l1.648-1.648a1.541,1.541,0,0,1,2.142-.165h0l8.075,7.581a1.765,1.765,0,0,1,.165,2.307h0Z" transform="translate(-94.182 -1501.935)" fill="#dde3e9" fill-rule="evenodd"/>
    <path id="Path_987" data-name="Path 987" d="M75.176,1639.271c-12.031,25.709-10.547,50.1,1.813,73.173l-56.033.659s-1.978-73.667,53.232-94.1C74.187,1619,75.67,1638.612,75.176,1639.271Z" transform="translate(-17.494 -1522.095)" fill="#dde3e9" fill-rule="evenodd"/>
    <path id="hair" d="M411.116,1494.832a1.5,1.5,0,0,0-.165-1.813.354.354,0,0,0-.33-.33v-.165l.165-.165v-.33a2.342,2.342,0,0,0,.33-.989,3.617,3.617,0,0,0-.824-1.978,3.449,3.449,0,0,0-.989-.659c-.165-.165-.33-.165-.659-.329h-.165c-.165,0-.165-.33-.165-.33a2.873,2.873,0,0,0-.989-1.978,5.428,5.428,0,0,0-2.142-1.154h-1.318a1.113,1.113,0,0,0-.659-.989.856.856,0,0,0-.659-.33.576.576,0,0,0-.33-.165.51.51,0,0,0-.165-.33,2.422,2.422,0,0,0-.824-.989,2.192,2.192,0,0,0-1.318-.494c-.33-.165-.494-.165-.659,0h-.494l-.33-.494a1.287,1.287,0,0,0-.659-.659,4.563,4.563,0,0,0-1.483-.165c-.33,0-.494.165-.824.165-.165,0-.165,0-.33.165h-.33a1.86,1.86,0,0,0-1.318-.165,1.78,1.78,0,0,0-1.154.494h-.165c-.165-.165-.165-.165-.33-.165-.165-.165-.33-.165-.494-.33a3.625,3.625,0,0,0-2.307.33,2.758,2.758,0,0,0-1.483,1.813c-.165,0-.165.165-.165.33v.165h-.33c-.165.165-.494.33-.659.494a1.486,1.486,0,0,0-.989.989c-.165.165-.165.33-.33.494v.659h0a.51.51,0,0,1-.33.165c-.165.165-.33.165-.494.33a1.249,1.249,0,0,0-.659.33,3.968,3.968,0,0,0-.989,1.318v.659a.575.575,0,0,0,.165.329v.165a.161.161,0,0,1-.165.165,3.966,3.966,0,0,0-.989,1.318,1.244,1.244,0,0,0-.165,1.318,2.456,2.456,0,0,0,1.978,1.978.991.991,0,0,0,.659.165,2.187,2.187,0,0,0,1.318,1.813,3.206,3.206,0,0,0,2.472,0,1.373,1.373,0,0,0,1.648,1.318c.165-.165.33-.165.494-.33.165,0,.165-.165.33-.165,0-.165.165-.165.33-.165.165-.165.494-.33.659-.494,0-.165.165-.165.165-.33l.33-.33c-.165,0-.33-.33-.494-.494v-.659a1.282,1.282,0,0,1,.33-1.318,2.073,2.073,0,0,1,2.472-1.483,7.922,7.922,0,0,1,1.813,1.483,3.038,3.038,0,0,1-.165,2.142v.165c0,.165.33.165.494.165h.659a5.928,5.928,0,0,0,1.483-.824,7.165,7.165,0,0,0,1.154-.659,2.8,2.8,0,0,1,1.154-.165,11.36,11.36,0,0,1,1.318.494,3.879,3.879,0,0,0,1.318.33h.33c.165,0,.165-.165.33,0,.165,0,.165.165.165.33a2.809,2.809,0,0,1,0,1.648,4.812,4.812,0,0,1-.33,1.483c-.165.495-.494.824-.494,1.318,0,.165.659.824.989.989s.824,0,.989,0,.33-.165.494-.33a.605.605,0,0,1,.165-.494l.165-.165c0-.33,0-.494-.165-.659a1.235,1.235,0,0,0,.824-.165,3.6,3.6,0,0,0,.824-.495.856.856,0,0,0,.33-.659c.165-.165,0-.494,0-.659a2.8,2.8,0,0,0,1.154-.165A2.871,2.871,0,0,0,411.116,1494.832Z" transform="translate(-318.496 -1406.003)" fill="#c2753a" fill-rule="evenodd"/>
    <path id="Path_988" data-name="Path 988" d="M466,1449.128,501.268,1313l2.966.659-35.268,136.128Z" transform="translate(-389.201 -1266.525)" fill="#8f8f8f" fill-rule="evenodd"/>
    <path id="Path_989" data-name="Path 989" d="M482.393,1800.253c.494-1.978,4.12,0,6.1-.659,1.648-.495,2.472-2.8,4.12-2.637,1.154,0,.824,2.142,1.483,2.966.989,1.154,2.966,1.483,3.131,2.8.494,3.3-1.154,6.263-4.285,6.592-2.307.33-3.955-1.318-5.768-2.966C485.194,1804.7,481.569,1802.725,482.393,1800.253Z" transform="translate(-402.792 -1670.717)" fill="#ffc5cb" fill-rule="evenodd"/>
    <path id="Path_990" data-name="Path 990" d="M319.406,1645.545c-4.779-1.318-9.229,1.978-11.042,8.405-1.318,3.791,1.648,13.679,4.45,20.6,2.637,6.757,5.933,9.559,10.383,8.9l18.952-2.472,1.318-9.888-16.316-2.307S327.811,1647.853,319.406,1645.545Z" transform="translate(-257.275 -1544.026)" fill="#dde3e9" fill-rule="evenodd"/>
    <g id="Group_269" data-name="Group 269" transform="translate(79.436)">
      <path id="Path_991" data-name="Path 991" d="M531.771,1102.69h-9.888l26.863-15.327-14.832,3.791,18.788-16.316-19.776,9.559,16.645-22.743L529.3,1074.838l12.36-31.478-24.226,26.7L524.684,1031l-16.975,31.642-2.142-25.545-2.307,32.3-9.723-22.413,6.427,32.961L482,1063.631l17.469,28.182-16.151-6.757,12.36,15.656-8.24-3.131C502.765,1112.743,519.246,1116.039,531.771,1102.69Z" transform="translate(-482 -1031)" fill="#5ae3b8" fill-rule="evenodd"/>
      <path id="Path_992" data-name="Path 992" d="M513.2,1169.187l-8.735-12.36S507.271,1165.891,513.2,1169.187Zm7.746-23.567L545.341,1112S517.818,1136.391,520.95,1145.62Zm-5.6,17.469L487,1132.271S513.369,1155.179,515.346,1163.089Zm-4.12-37.411,1.813,12.36C513.7,1138.2,514.193,1130.128,511.226,1125.679Zm20.436,18.128-10.877,12.36S524.246,1147.268,531.662,1143.807Zm-24.061-6.262,9.723,20.436S514.357,1143.972,507.6,1137.545Zm23.073,19.447-10.383,7.746S522.433,1158.8,530.673,1156.991Z" transform="translate(-486.176 -1098.651)" fill="#46c29b" fill-rule="evenodd"/>
    </g>
  </g>
</svg>
