<svg xmlns="http://www.w3.org/2000/svg" width="28.783" height="21.591" viewBox="0 0 28.783 21.591">
  <path id="Icon_ionic-logo-youtube" data-name="Icon ionic-logo-youtube" d="M28.6,9.268A4.37,4.37,0,0,0,24.435,4.7c-3.115-.146-6.291-.2-9.536-.2H13.887c-3.239,0-6.421.056-9.536.2A4.38,4.38,0,0,0,.2,9.279c-.141,2-.2,4-.2,6s.056,4,.191,6.01a4.385,4.385,0,0,0,4.155,4.582c3.272.152,6.629.219,10.042.214q5.128.017,10.042-.214a4.386,4.386,0,0,0,4.161-4.582c.135-2.007.2-4.009.191-6.016Q28.8,12.276,28.6,9.268ZM11.638,20.8V9.751l8.153,5.521Z" transform="translate(0 -4.5)" fill="#fafafa"/>
</svg>
