<svg xmlns="http://www.w3.org/2000/svg" width="108.482" height="108.482" viewBox="0 0 108.482 108.482">
  <g id="Allergy_And_Immunology" data-name="Allergy And Immunology" transform="translate(-718 -108)">
    <path id="Path_9458" data-name="Path 9458" d="M430.8,132.8a1.808,1.808,0,0,0,3.584.476A1.808,1.808,0,0,0,430.8,132.8Z" transform="translate(332.486 30.273)" fill="#00f3bb"/>
    <path id="Path_9459" data-name="Path 9459" d="M456.29,144.133a1.808,1.808,0,0,0,3.584.476A1.808,1.808,0,0,0,456.29,144.133Z" transform="translate(317.743 23.72)" fill="#00f3bb"/>
    <path id="Path_9460" data-name="Path 9460" d="M422.31,155.463a1.806,1.806,0,0,0,3.58.476A1.806,1.806,0,0,0,422.31,155.463Z" transform="translate(337.396 17.167)" fill="#00f3bb"/>
    <path id="Path_9461" data-name="Path 9461" d="M439.3,163.953a1.808,1.808,0,0,0,3.584.476A1.808,1.808,0,0,0,439.3,163.953Z" transform="translate(327.57 12.256)" fill="#00f3bb"/>
    <path id="Path_9462" data-name="Path 9462" d="M470.45,163.953a1.808,1.808,0,0,0,3.584.476A1.808,1.808,0,0,0,470.45,163.953Z" transform="translate(309.553 12.256)" fill="#00f3bb"/>
    <path id="Path_9463" data-name="Path 9463" d="M453.46,180.943a1.806,1.806,0,0,0,3.579.476A1.806,1.806,0,0,0,453.46,180.943Z" transform="translate(319.38 2.43)" fill="#00f3bb"/>
    <path id="Path_9457" data-name="Path 9457" d="M436.354,116.717v1.311H413.671c0-6.843-2.593-7.172-4.077-10.844a10.165,10.165,0,0,1-.7-3.841V75.765c0-2.77,3.563-2.956,3.588.114.013,1.577-.1,10.283.042,10.823a1.835,1.835,0,0,0,3.508-.1c.19-.974-.169-16.591.135-17.653a1.75,1.75,0,0,1,3.335-.093,11.851,11.851,0,0,1,.135,2.85l.008,14.795a1.807,1.807,0,0,0,3.58-.342c.063-3.078-.122-19.39.017-20.4a1.762,1.762,0,0,1,3.512-.1c.143.826.025,17.661.038,20.381a1.81,1.81,0,0,0,3.2,1.277c.645-.776.388-3.457.388-4.988V71.469c0-1.32-.169-2.492.5-3.2a1.7,1.7,0,0,1,2.462-.118c.788.742.62,1.644.62,3.082l0,25.314c-.025,2.981,3.124,2.483,3.537.9.152-.586,0-9.25.042-10.941.063-2.829,3.588-2.981,3.588.363v16.236a9.81,9.81,0,0,1-2.357,6.839,12.525,12.525,0,0,0-2.42,6.771ZM419.877,64.306c-1.754-.038-3.369-1.126-6.063,1.581-1.307,1.311-1.341,2.669-1.341,4.389-4.225-.987-7.163,1.716-7.163,4.895v29.37a12.538,12.538,0,0,0,2.218,6.5c1.353,1.948,2.391,3.09,2.555,6.278.059,1.1-.557,4.3,1.552,4.3h26.743a1.768,1.768,0,0,0,1.526-1.341c.135-.7-.017-2.154.025-2.96.236-4.528,2.517-5.5,3.6-8.1a12.4,12.4,0,0,0,1.176-4.676V85.918a5.479,5.479,0,0,0-5.013-5.135,6.175,6.175,0,0,0-2.15.24q0-5.489,0-10.983c0-2.344-.729-4.292-2.863-5.376s-3.2-.384-4.541-.354c-.122-1.467-2.374-3.82-4.895-3.82a5.061,5.061,0,0,0-3.613,1.164,5.129,5.129,0,0,0-1.762,2.656Z" transform="translate(347.229 71.192)" fill="#004747"/>
    <path id="Path_9464" data-name="Path 9464" d="M377.631,6.812a51.764,51.764,0,0,0-20.141,99.434,51.764,51.764,0,0,0,40.281-95.37,51.41,51.41,0,0,0-20.141-4.064h0Zm0-2.492A54.241,54.241,0,1,1,323.39,58.561,54.242,54.242,0,0,1,377.631,4.32Z" transform="translate(394.61 103.68)" fill="#004747"/>
  </g>
</svg>
