<svg xmlns="http://www.w3.org/2000/svg" width="108.48" height="108.48" viewBox="0 0 108.48 108.48">
  <g id="Alternative_" data-name="Alternative " transform="translate(-155 -1786)">
    <g id="Path_8619" data-name="Path 8619" transform="translate(155 1786)" fill="#fff">
      <path d="M 54.239990234375 107.4800033569336 C 47.05220413208008 107.4800033569336 40.07994842529297 106.0724868774414 33.51689147949219 103.2965469360352 C 27.17723274230957 100.615104675293 21.48343276977539 96.77616119384766 16.5936336517334 91.88637542724609 C 11.70384693145752 86.99657440185547 7.864904403686523 81.30277252197266 5.183461666107178 74.96310424804688 C 2.407518863677979 68.40006256103516 1.000004529953003 61.42780303955078 1.000004529953003 54.2400016784668 C 1.000004529953003 47.05220031738281 2.407518863677979 40.0799446105957 5.183461666107178 33.51690292358398 C 7.864904403686523 27.17723083496094 11.70384693145752 21.48343086242676 16.5936336517334 16.59362983703613 C 21.48343276977539 11.70384407043457 27.17723274230957 7.864901542663574 33.51689147949219 5.183458805084229 C 40.07994842529297 2.407516002655029 47.05220413208008 1.000001668930054 54.239990234375 1.000001668930054 C 61.42777633666992 1.000001668930054 68.40003204345703 2.407516002655029 74.96308898925781 5.183458805084229 C 81.30274963378906 7.864901542663574 86.99654388427734 11.70384407043457 91.88634490966797 16.59362983703613 C 96.77613067626953 21.48343086242676 100.6150741577148 27.17723083496094 103.296516418457 33.51690292358398 C 106.0724639892578 40.0799446105957 107.4799728393555 47.05220031738281 107.4799728393555 54.2400016784668 C 107.4799728393555 61.42780303955078 106.0724639892578 68.40006256103516 103.296516418457 74.96310424804688 C 100.6150741577148 81.30277252197266 96.77613067626953 86.99657440185547 91.88634490966797 91.88637542724609 C 86.99654388427734 96.77616119384766 81.30274963378906 100.615104675293 74.96308898925781 103.2965469360352 C 68.40003204345703 106.0724868774414 61.42777633666992 107.4800033569336 54.239990234375 107.4800033569336 Z" stroke="none"/>
      <path d="M 54.239990234375 2 C 47.18675994873047 2 40.34555816650391 3.380943298339844 33.90643310546875 6.104461669921875 C 27.68597412109375 8.735496520996094 22.09902191162109 12.50246429443359 17.30074310302734 17.30074310302734 C 12.50246429443359 22.09901428222656 8.735496520996094 27.68598937988281 6.104469299316406 33.90644836425781 C 3.380943298339844 40.34557342529297 2.000007629394531 47.18677139282227 2.000007629394531 54.2400016784668 C 2.000007629394531 61.29323196411133 3.380943298339844 68.13442993164062 6.104469299316406 74.57355499267578 C 8.735496520996094 80.79402160644531 12.50246429443359 86.38098907470703 17.30074310302734 91.17926025390625 C 22.09902191162109 95.9775390625 27.68597412109375 99.7445068359375 33.90643310546875 102.3755416870117 C 40.34555816650391 105.0990600585938 47.18675994873047 106.4800033569336 54.239990234375 106.4800033569336 C 61.29322052001953 106.4800033569336 68.13442230224609 105.0990600585938 74.57354736328125 102.3755416870117 C 80.79400634765625 99.7445068359375 86.38095855712891 95.9775390625 91.17923736572266 91.17926025390625 C 95.97751617431641 86.38098907470703 99.74448394775391 80.79402160644531 102.3755111694336 74.57355499267578 C 105.0990371704102 68.13442993164062 106.4799728393555 61.29323196411133 106.4799728393555 54.2400016784668 C 106.4799728393555 47.18677139282227 105.0990371704102 40.34557342529297 102.3755111694336 33.90644836425781 C 99.74448394775391 27.68598937988281 95.97751617431641 22.09901428222656 91.17923736572266 17.30074310302734 C 86.38095855712891 12.50246429443359 80.79400634765625 8.735496520996094 74.57354736328125 6.104461669921875 C 68.13442230224609 3.380943298339844 61.29322052001953 2 54.239990234375 2 M 54.239990234375 0 C 84.19591522216797 0 108.4799728393555 24.28408050537109 108.4799728393555 54.2400016784668 C 108.4799728393555 84.1959228515625 84.19591522216797 108.4800033569336 54.239990234375 108.4800033569336 C 24.28406524658203 108.4800033569336 7.62939453125e-06 84.1959228515625 7.62939453125e-06 54.2400016784668 C 7.62939453125e-06 24.28408050537109 24.28406524658203 0 54.239990234375 0 Z" stroke="none" fill="#004747"/>
    </g>
    <path id="Path_3187" data-name="Path 3187" d="M495.637,485.631h32.672V465.394l-16.336,2.316-16.336-2.316Z" transform="translate(-302.08 1380.516)" fill="#00f3bb"/>
    <path id="Path_3188" data-name="Path 3188" d="M530.735,468.684l-8.578-6.432v-5.956h2.384v-4.766h-5.673l.861-4.3a2.382,2.382,0,0,0-1.87-2.8,2.352,2.352,0,0,0-.466-.046h-9.531a2.382,2.382,0,0,0-2.382,2.382,2.357,2.357,0,0,0,.046.466l.859,4.3h-5.671v4.766H503.1v5.956l-8.577,6.432a2.383,2.383,0,0,0-.954,1.906v28.591a2.383,2.383,0,0,0,2.384,2.382H529.3a2.382,2.382,0,0,0,2.382-2.382V470.589A2.382,2.382,0,0,0,530.735,468.684Zm-19.968-19.537h3.718l-.476,2.382h-2.765Zm-3.859,16.2a2.38,2.38,0,0,0,.954-1.9v-7.148h9.531v7.148a2.378,2.378,0,0,0,.952,1.9l8.578,6.434v3.574a13.694,13.694,0,0,0-8.469,2.782,9.55,9.55,0,0,1-11.652,0,13.7,13.7,0,0,0-8.47-2.782v-3.574ZM498.331,496.8V480.12a9.014,9.014,0,0,1,5.826,1.983,14.279,14.279,0,0,0,16.94,0,9.013,9.013,0,0,1,5.826-1.983V496.8Z" transform="translate(-303.386 1367.267)" fill="#004747"/>
    <ellipse id="Ellipse_133" data-name="Ellipse 133" cx="2.383" cy="2.383" rx="2.383" ry="2.383" transform="translate(216.82 1853.876)" fill="#fff"/>
    <ellipse id="Ellipse_134" data-name="Ellipse 134" cx="1.941" cy="1.941" rx="1.941" ry="1.941" transform="translate(198.2 1851.935)" fill="#fff"/>
    <ellipse id="Ellipse_135" data-name="Ellipse 135" cx="3.273" cy="3.273" rx="3.273" ry="3.273" transform="translate(205.188 1855.369)" fill="#fff"/>
  </g>
</svg>
