<svg xmlns="http://www.w3.org/2000/svg" width="108.482" height="108.482" viewBox="0 0 108.482 108.482">
  <g id="Anesthesiology_And_Reanimation" data-name="Anesthesiology And Reanimation" transform="translate(-595 -1481)">
    <g id="Group_10258" data-name="Group 10258">
      <path id="Path_9725" data-name="Path 9725" d="M1067.922,54.241a54.241,54.241,0,1,0-54.241,54.241A54.242,54.242,0,0,0,1067.922,54.241Z" transform="translate(-364.44 1481)" fill="#004747"/>
      <path id="Path_9726" data-name="Path 9726" d="M1052.035,15.886A54.242,54.242,0,1,1,1013.681,0a54.07,54.07,0,0,1,38.354,15.886Z" transform="translate(-364.44 1481)" fill="#004747"/>
      <path id="Exclusion_13" data-name="Exclusion 13" d="M2216.579,60.6h0a32.41,32.41,0,0,1-8.615-1.284,49.012,49.012,0,0,1-11.582-5.207,40,40,0,0,0-3.592-2.18,20.848,20.848,0,0,0-8.616-1.543,75.937,75.937,0,0,0-11.266,1.138l-.2.03v.008L2172,23.918l8.213.4a38.953,38.953,0,0,0-.44-5.429c-.428-3.393-.871-6.9.027-10.314a3.7,3.7,0,0,1,1.569-2.353,4.538,4.538,0,0,1,2.442-.576,17.726,17.726,0,0,1,2.433.224l.11.015a16.1,16.1,0,0,0,2.116.209,2.534,2.534,0,0,0,1.431-.327,7.913,7.913,0,0,0,.795-.61,2.8,2.8,0,0,1,2.33-.753h.168q.523.008,1.048.02c.732.015,1.485.03,2.226.03.544,0,1.032-.008,1.49-.025A27.309,27.309,0,0,1,2201.231,0a45.376,45.376,0,0,1,10.629,6.012c.779.6,1.118.771,1.512.771a3.717,3.717,0,0,0,.827-.145,15.853,15.853,0,0,1,2.249-.4A22.528,22.528,0,0,1,2218.9,6.1a19.236,19.236,0,0,1,10.453,2.987,22.533,22.533,0,0,1,7.292,7.694,29.156,29.156,0,0,1,2.945,6.924,32.137,32.137,0,0,1,1.191,7.622,29.053,29.053,0,0,1-3.368,14.975c-2.62,4.791-5.535,8.273-8.913,10.643A20.056,20.056,0,0,1,2216.579,60.6Zm-30.742-14.941a21.587,21.587,0,0,1,12.619,4.078c1.041.667,2.15,1.292,3.108,1.825a34.877,34.877,0,0,0,7.311,3.082,26.45,26.45,0,0,0,7.306,1.091,18.033,18.033,0,0,0,7.966-1.728c4.244-2.065,6.521-5.581,9.056-9.963a24.162,24.162,0,0,0,2.863-11.392,24.635,24.635,0,0,0-.215-3.209c-1.056-9.238-6.694-18.559-16.908-18.559a17.853,17.853,0,0,0-3.2.3,16.863,16.863,0,0,1-3.064.612,3.753,3.753,0,0,1-2.53-1,31.943,31.943,0,0,0-7.56-4.883c-.331.411-.63.819-.889,1.214a5.12,5.12,0,0,1-1.324,1.59,4.065,4.065,0,0,1-2.117.594c-.144,0-.272-.006-.391-.017-.67,0-1.35-.027-2.008-.048-.555-.018-1.129-.037-1.694-.045l-.151,0a1.826,1.826,0,0,0-1.55.582c-.167.147-.374.33-.664.541a3.827,3.827,0,0,1-2.383.831c-.058,0-.113,0-.173,0a8.265,8.265,0,0,1-1.425-.271,10.669,10.669,0,0,0-1.1-.236,21.219,21.219,0,0,0-2.433-.269c-.013.057-.025.111-.035.159l0,.017c-.009.041-.017.079-.025.11-.113.565-.187,1.138-.249,1.632a23.51,23.51,0,0,0-.224,3.179c0,.436.016.912.051,1.5.062.834.185,1.676.3,2.49.05.346.1.7.148,1.051a20.04,20.04,0,0,1,.2,2.8V23.5l-.03,4.326-7.517.493.417,17.746c.162-.013.378-.035.607-.064l.5-.06c.617-.075,1.254-.152,1.882-.188,1.281-.085,2.4-.127,3.432-.127.565,0,1.2.014,1.885.042C2185.69,45.661,2185.765,45.661,2185.837,45.661Z" transform="translate(-1550.185 1509.189)" fill="#fff"/>
      <path id="Path_9727" data-name="Path 9727" d="M1016.113,74.607h-10.2V56.17h3.462V71.146h6.742V68.759h2.892c6.265-21.793,36.457-7.29,37.629-4.575-23.223,4.79-21.7,19.909-38.759,15.3-.021-.691-.021-1.353-.013-2h-1.746V74.607Z" transform="translate(-391.317 1448.512)" fill="#fff" fill-rule="evenodd"/>
      <path id="Path_9728" data-name="Path 9728" d="M1071.573,74.344c-9.427.54-14.972,5.089-19.732,8.989-3.731,3.061-7.016,5.755-11.4,6.172-3.318.316-6.936.767-10.275.763V87.684c3.259,0,6.792-.443,10.03-.75,3.592-.342,6.59-2.8,10-5.595,5.059-4.153,10.962-8.993,21.228-9.579l.143,2.589Z" transform="translate(-405.349 1439.495)" fill="#fff" fill-rule="evenodd"/>
    </g>
  </g>
</svg>
