<svg xmlns="http://www.w3.org/2000/svg" width="108.482" height="108.482" viewBox="0 0 108.482 108.482">
  <g id="Bone_Marrow_" data-name="Bone Marrow " transform="translate(-1304.231 -2537.45)">
    <path id="Path_9518" data-name="Path 9518" d="M3408.7,1075.752a51.571,51.571,0,1,0,20.141,4.064,51.393,51.393,0,0,0-20.141-4.064Zm0-2.492a54.241,54.241,0,1,1-54.241,54.241A54.242,54.242,0,0,1,3408.7,1073.26Z" transform="translate(-2050.229 1464.19)" fill="#004747"/>
    <path id="Path_9761" data-name="Path 9761" d="M3463.984,1169.373v17.573a.723.723,0,0,1-.721.721l-1.788,0a.837.837,0,0,1-1.121-.9V1169a.723.723,0,0,1,.721-.721c.616,0,2.909.51,2.909,1.088Zm-29.134-25.666a6.774,6.774,0,0,0,.8-1.8c-3.466-.4-1.547-3.373-.641-5.595a18.29,18.29,0,0,1,.9-1.88,7.556,7.556,0,0,0,.523-1.041c.219-.624,1.118-2.772,2.007-4.532a12.2,12.2,0,0,1,9.212-5.388,12.415,12.415,0,0,1,11.046,4.983,13.621,13.621,0,0,1-1.311,17.767c-.927,1.063-2.041,2.239-2.041,3.744,0,2.214-.569,2.226,1.535,3.373,2.6,1.417,5.9.852,8.622,2.264a10.3,10.3,0,0,1,6.05,9.482v15.022a.838.838,0,0,1-1.122.9c-1.712,0-2.509.557-2.509-1.72v-11.017c0-3.575.266-6.624-3.052-8.871-1.716-1.164-3.887-1.244-5.865-1.581a10.032,10.032,0,0,1-6.758-3.744,3.925,3.925,0,0,1-.62-2.829c0-4.878,1.632-5.363,4.246-8.812a10.23,10.23,0,0,0,1.522-8.643,8.945,8.945,0,0,0-17.206-.329,13.206,13.206,0,0,1-.776,2.1c-.27.519-1.024,1.906-1.413,2.821a1.886,1.886,0,0,1,.755.354c2.066,1.552-1.206,7.121,3.2,7.049,1.223-.021,2.462.346,2.462,1.817v5.283c0,1.766-2.639,3.314-4.052,4.018-2.943,1.366-6.978.835-9.444,2.66a7.488,7.488,0,0,0-2.787,4.17c0,2.151-.194,19.58-.194,19.58v9.482c0,1.012.207,1.632-1.088,1.632-1.265,0-2.542.506-2.542-1.176,0-3.79.013-11.371.013-11.371-.034-16.591-.093-16.945,0-17.535a10.91,10.91,0,0,1,6.535-8.845c.443-.186,1-.413,1.568-.586,1.831-.93,1.45-2.8,1.45-4.954,0-1.843-.1-4.791.991-6.25Zm1.7,2.768c-.333.392-.784-3.368-.9-3.148-.468.847-1.094,5.67-1.094,6.64,0,1.577-.314,2.487,1.094,3.373,1.623.957,2.15.763,3.79-.089.363-.19,1.2-.586,1.3-1.041a20.087,20.087,0,0,0-.051-2.6c0-.114.008-.219.017-.325-.346-.08-.7-.152-1.058-.261a6.06,6.06,0,0,1-3.095-2.547Z" transform="translate(-2079.971 1432.719)" fill="#004747" fill-rule="evenodd"/>
    <path id="Path_9762" data-name="Path 9762" d="M3433.063,1145.122c.67-1.223,2.166-1.653,2.6-2.825,1.48.184.7,1.891.869,4.536,0,.825-4.709,5.976,1.509,7.544a19.722,19.722,0,0,0-5.713.916c-1.29-1.353-1.1-2.977-1.1-5.127a8.521,8.521,0,0,1,1.843-5.034Z" transform="translate(-2079.971 1432.337)" fill="#00f3bb" fill-rule="evenodd"/>
    <path id="Path_9760" data-name="Path 9760" d="M3411.367,1186.765v-17.758a.723.723,0,0,1,.721-.721h2.184a.723.723,0,0,1,.721.721v17.758a.838.838,0,0,1-1.122.9c-.746,0-2.509.358-2.509-.9Zm24.546-52.331a7.556,7.556,0,0,0,.523-1.041c.219-.624-.232-1.29-.552-1.809a8.793,8.793,0,0,0-14.82-.864c-1.265,1.859-1.341,3.457-2.319,5.388-.223.392-.784,1.509-1.121,2.31,1.227.291,1.391,1.227,1.391,2.719,0,1.6-.375,4.06,1.645,4.583.354.093,1.138.013,1.581.059a1.667,1.667,0,0,1,1.69,1.733v5.371c0,1.623-2.272,3.234-3.626,3.849a25.485,25.485,0,0,1-5.8,1.442,8.129,8.129,0,0,0-3.887,1.383c-3.385,2.538-3.082,4.9-3.082,8.8,0,2.041.025,4.085.034,6.13,0,1.189.009,2.378,0,3.563,0,.628.021,1.37-.038,2-.03,1.374-1.657.953-2.6.953a.837.837,0,0,1-1.121-.9v-14.112a10.458,10.458,0,0,1,3.508-8.453c3.613-3.343,5.7-2.319,9.836-3.617,3.79-1.193,3.225-1.286,3.145-4.57a6.461,6.461,0,0,1-3.36-1.716c-1.48-1.665-1.564-3.664-1.564-5.721-1.024-.093-2.112-.443-2.218-1.623a6.6,6.6,0,0,1,.919-2.833c.919-1.986,1.737-4.022,2.534-6.063a12.356,12.356,0,0,1,10.456-7.922,11.976,11.976,0,0,1,8.791,2.589,14.671,14.671,0,0,1,2.134,2.209c.093.118.266.354.443.59C3436.579,1133.036,3435.576,1135.05,3435.913,1134.434Z" transform="translate(-2079.971 1432.719)" fill="#00f3bb" fill-rule="evenodd"/>
    <path id="Path_9851" data-name="Path 9851" d="M17.938,30.608H6.019c-.017-.3-.05-.6-.05-.907,0-3.192-.037-6.384.012-9.575a4.837,4.837,0,0,0-1.958-4.033A10.7,10.7,0,0,1,.249,5.3,6.888,6.888,0,0,1,8.332.1a9.59,9.59,0,0,1,2.577.773,2.151,2.151,0,0,0,2.1,0A7.875,7.875,0,0,1,18.524.26c3.786.86,5.911,4.189,5.332,8.3a11.275,11.275,0,0,1-4.467,7.968,3.81,3.81,0,0,0-1.454,3.3c.012,3.245,0,6.49,0,9.735v1.045" transform="translate(1339.277 2594.536)" fill="#004747" stroke="rgba(0,0,0,0)" stroke-miterlimit="10" stroke-width="1"/>
    <path id="Path_9833" data-name="Path 9833" d="M59.1,26.772l2.685,1.759c-1.11.192-2.042.363-2.978.511q-1.1.175-2.217.3a1.118,1.118,0,0,1-.626-.071c-.494-.273-.958-.6-1.546-.977,1.027-.548,1.765-1.433,3.038-1.32a6.945,6.945,0,0,0,1.644-.2" transform="translate(1293.733 2572.676)" fill="#00f3bb"/>
    <path id="Path_9834" data-name="Path 9834" d="M101.587,43.206c-.15.64.3,1.378-.479,1.788a2.973,2.973,0,0,1-3.262.134,10.706,10.706,0,0,1-1.154-1.036,8.051,8.051,0,0,1,4.9-.886" transform="translate(1257.817 2558.743)" fill="#00f3bb"/>
    <path id="Path_9835" data-name="Path 9835" d="M45.681,87.237l3.213-.284c0,1.03,0,1.993,0,2.956-.005.922-.839.889-1.25,1.171l-1.962-3.843" transform="translate(1301.159 2521.543)" fill="#00f3bb"/>
    <path id="Path_9836" data-name="Path 9836" d="M77.493,83.616c.131-.12.315-.414.572-.505a7.049,7.049,0,0,1,4.361-.084l-2.192,2.492-2.741-1.9" transform="translate(1274.129 2525.138)" fill="#00f3bb"/>
    <path id="Path_9837" data-name="Path 9837" d="M20.886,33.256a5.186,5.186,0,0,0,3.646,1.681,8,8,0,0,1,1.661.526c-.57.359-.936.624-1.334.827a1.047,1.047,0,0,1-.616.057c-.954-.169-1.9-.426-2.856-.527-.6-.063-.886-.228-.782-.852.085-.509.167-1.019.281-1.712" transform="translate(1322.483 2567.167)" fill="#00f3bb"/>
    <path id="Path_9838" data-name="Path 9838" d="M63.22,65.8c1.8-1.253,3.951-.574,5.884-1.131-.564.8-1.049,1.583-2.173,1.587a8.6,8.6,0,0,0-1.973.421A1.329,1.329,0,0,1,63.22,65.8" transform="translate(1286.256 2540.479)" fill="#00f3bb"/>
    <path id="Path_9839" data-name="Path 9839" d="M59.421,118.461l.587,3.213H57.742c-.442-1.87-.23-2.332,1.679-3.213" transform="translate(1291.077 2494.772)" fill="#00f3bb"/>
    <path id="Path_9840" data-name="Path 9840" d="M62.835,148.345a2.638,2.638,0,0,0-2.84.034,1.8,1.8,0,0,1-1.99-.39c-.2-.3-.275-.746.257-.887a4.2,4.2,0,0,1,.885-.078,3.8,3.8,0,0,0,1.4-.073c.833-.411,1.443.064,2.072.377.231.115.292.574.43.875l-.214.141" transform="translate(1290.815 2470.701)" fill="#00f3bb"/>
    <path id="Path_9858" data-name="Path 9858" d="M62.62,148.35c-.965-.577-3.111.588-3.111.588a4.14,4.14,0,0,1-1.5-.948c-.2-.3-.275-.746.257-.887a4.2,4.2,0,0,1,.885-.078,4.323,4.323,0,0,0,1.3-.466,19.846,19.846,0,0,1,2.172.77,1.716,1.716,0,0,1,.763.66c-.071.047.139,1.211-.249.861" transform="translate(1411.944 2768.804) rotate(180)" fill="#00f3bb"/>
    <path id="Path_9841" data-name="Path 9841" d="M33.159,21.489c-.631.555-1.21,1.089-1.821,1.584a.923.923,0,0,1-.6.145,2.885,2.885,0,0,1-1.972-1.207c.878-.978,2.818-1.205,4.391-.522" transform="translate(1315.529 2577.499)" fill="#00f3bb"/>
    <path id="Path_9842" data-name="Path 9842" d="M32.61,65.3l1.261,1.94c-.864.279-1.7.567-2.551.809a.71.71,0,0,1-.571-.14,10.907,10.907,0,0,1-.855-.948L32.61,65.3" transform="translate(1314.573 2539.944)" fill="#00f3bb"/>
    <path id="Path_9843" data-name="Path 9843" d="M74.564,97.415l2.643,1.894c.027,1.228-1.467,1.019-1.791,1.864-1.124-1-.823-2.329-1.037-3.521l.184-.237" transform="translate(1276.774 2512.654)" fill="#00f3bb"/>
    <path id="Path_9844" data-name="Path 9844" d="M99.414,23.186c-1.094.1-2.118.284-2.948-.667-.273-.312-.785-.409-1.175-.628a7.623,7.623,0,0,1-.669-.478c1.669-.7,4.388.021,4.793,1.773" transform="translate(1259.576 2577.453)" fill="#00f3bb"/>
    <path id="Path_9845" data-name="Path 9845" d="M55.213,52.808l-.571-.781a6.488,6.488,0,0,1,4.139-1.442c.5.007,1,.542,1.467.958-1.75.276-3.536.164-5.035,1.265" transform="translate(1293.545 2552.444)" fill="#00f3bb"/>
    <path id="Path_9846" data-name="Path 9846" d="M109.15,65.827c-.44,1.745-.868,1.962-2.739,1.391.5-.934.945-1.16,2.739-1.391" transform="translate(1249.559 2539.493)" fill="#00f3bb"/>
    <path id="Path_9847" data-name="Path 9847" d="M81.513,125.107v2.418l-.189.16-1.551-1.372,1.74-1.206" transform="translate(1272.192 2489.125)" fill="#00f3bb"/>
    <path id="Path_9848" data-name="Path 9848" d="M22.193,57.933l2.358.314.069.192-1.88,1.122-.547-1.629" transform="translate(1321.115 2546.2)" fill="#00f3bb"/>
    <path id="Path_9856" data-name="Path 9856" d="M3485.638,1240.03h-13.213v-2.85l-8.475,4.895,8.475,4.9v-2.854h13.213Z" transform="translate(4843.745 3855.616) rotate(180)" fill="#00f3bb" fill-rule="evenodd"/>
    <path id="Path_9857" data-name="Path 9857" d="M3502.14,1259.305h8.2v2.146l6.375-3.681-6.375-3.681v2.146h-8.2Z" transform="translate(4879.533 3862.736) rotate(180)" fill="#004747" fill-rule="evenodd"/>
  </g>
</svg>
