<svg xmlns="http://www.w3.org/2000/svg" width="108.48" height="108.48" viewBox="0 0 108.48 108.48">
  <g id="Cardiology" transform="translate(-155 -2243)">
    <g id="Path_8618" data-name="Path 8618" transform="translate(155 2243)" fill="#fff">
      <path d="M 54.239990234375 107.4800033569336 C 47.05220413208008 107.4800033569336 40.07994842529297 106.0724868774414 33.51689147949219 103.2965469360352 C 27.17723274230957 100.615104675293 21.48343276977539 96.77616119384766 16.5936336517334 91.88637542724609 C 11.70384693145752 86.99657440185547 7.864904403686523 81.30277252197266 5.183461666107178 74.96310424804688 C 2.407518863677979 68.40006256103516 1.000004529953003 61.42780303955078 1.000004529953003 54.2400016784668 C 1.000004529953003 47.05220031738281 2.407518863677979 40.0799446105957 5.183461666107178 33.51690292358398 C 7.864904403686523 27.17723083496094 11.70384693145752 21.48343086242676 16.5936336517334 16.59362983703613 C 21.48343276977539 11.70384407043457 27.17723274230957 7.864901542663574 33.51689147949219 5.183458805084229 C 40.07994842529297 2.407516002655029 47.05220413208008 1.000001668930054 54.239990234375 1.000001668930054 C 61.42777633666992 1.000001668930054 68.40003204345703 2.407516002655029 74.96308898925781 5.183458805084229 C 81.30274963378906 7.864901542663574 86.99654388427734 11.70384407043457 91.88634490966797 16.59362983703613 C 96.77613067626953 21.48343086242676 100.6150741577148 27.17723083496094 103.296516418457 33.51690292358398 C 106.0724639892578 40.0799446105957 107.4799728393555 47.05220031738281 107.4799728393555 54.2400016784668 C 107.4799728393555 61.42780303955078 106.0724639892578 68.40006256103516 103.296516418457 74.96310424804688 C 100.6150741577148 81.30277252197266 96.77613067626953 86.99657440185547 91.88634490966797 91.88637542724609 C 86.99654388427734 96.77616119384766 81.30274963378906 100.615104675293 74.96308898925781 103.2965469360352 C 68.40003204345703 106.0724868774414 61.42777633666992 107.4800033569336 54.239990234375 107.4800033569336 Z" stroke="none"/>
      <path d="M 54.239990234375 2 C 47.18675994873047 2 40.34555816650391 3.380943298339844 33.90643310546875 6.104461669921875 C 27.68597412109375 8.735496520996094 22.09902191162109 12.50246429443359 17.30074310302734 17.30074310302734 C 12.50246429443359 22.09901428222656 8.735496520996094 27.68598937988281 6.104469299316406 33.90644836425781 C 3.380943298339844 40.34557342529297 2.000007629394531 47.18677139282227 2.000007629394531 54.2400016784668 C 2.000007629394531 61.29323196411133 3.380943298339844 68.13442993164062 6.104469299316406 74.57355499267578 C 8.735496520996094 80.79402160644531 12.50246429443359 86.38098907470703 17.30074310302734 91.17926025390625 C 22.09902191162109 95.9775390625 27.68597412109375 99.7445068359375 33.90643310546875 102.3755416870117 C 40.34555816650391 105.0990600585938 47.18675994873047 106.4800033569336 54.239990234375 106.4800033569336 C 61.29322052001953 106.4800033569336 68.13442230224609 105.0990600585938 74.57354736328125 102.3755416870117 C 80.79400634765625 99.7445068359375 86.38095855712891 95.9775390625 91.17923736572266 91.17926025390625 C 95.97751617431641 86.38098907470703 99.74448394775391 80.79402160644531 102.3755111694336 74.57355499267578 C 105.0990371704102 68.13442993164062 106.4799728393555 61.29323196411133 106.4799728393555 54.2400016784668 C 106.4799728393555 47.18677139282227 105.0990371704102 40.34557342529297 102.3755111694336 33.90644836425781 C 99.74448394775391 27.68598937988281 95.97751617431641 22.09901428222656 91.17923736572266 17.30074310302734 C 86.38095855712891 12.50246429443359 80.79400634765625 8.735496520996094 74.57354736328125 6.104461669921875 C 68.13442230224609 3.380943298339844 61.29322052001953 2 54.239990234375 2 M 54.239990234375 0 C 84.19591522216797 0 108.4799728393555 24.28408050537109 108.4799728393555 54.2400016784668 C 108.4799728393555 84.1959228515625 84.19591522216797 108.4800033569336 54.239990234375 108.4800033569336 C 24.28406524658203 108.4800033569336 7.62939453125e-06 84.1959228515625 7.62939453125e-06 54.2400016784668 C 7.62939453125e-06 24.28408050537109 24.28406524658203 0 54.239990234375 0 Z" stroke="none" fill="#004747"/>
    </g>
    <path id="Path_86" data-name="Path 86" d="M15480.163,1312.932c3.789-1.375,13.869-5.807,25.355-17.3,12.455-12.455,17.129-33.578.229-41.347-14.533-6.68-22.824,4.21-25.584,7.391-2.764-3.182-11.051-14.071-25.588-7.391-16.9,7.769-12.227,28.892.229,41.347C15466.3,1307.125,15476.374,1311.557,15480.163,1312.932Z" transform="translate(-15270.92 1019.033)" fill="#004747" fill-rule="evenodd"/>
    <path id="Path_87" data-name="Path 87" d="M16386.672,2223.444h8.848l4.533-11.446,3.7.247,3.123,15.6,4.533-12.956,3.658-.019,1.527,4.21,4.539-11.929,3.705.186,4.586,19.636,3.113-3.658.58-.682h8.322c4.238-8.264,5.408-18.572-4.461-23.1-4.01-1.844-8.01-2.314-11.979-.173-2.848,1.535-4.68,3.7-6.746,6.08l-4.416,5.088-4.412-5.088c-2.076-2.384-3.893-4.544-6.74-6.08-3.977-2.142-7.973-1.671-11.99.173a12.181,12.181,0,0,0-6.668,6.6C16381.927,2211.484,16383.636,2217.947,16386.672,2223.444Z" transform="translate(-16204.598 79.109)" fill="#fefefe" fill-rule="evenodd"/>
    <path id="Path_88" data-name="Path 88" d="M17341.813,4822.8h-4.471l-5.105,6-2.578,3.028-.852-3.664-4.021-17.168-4.125,10.871-3.648-.025-1.449-3.991-5.078,14.511-3.725-.193-3.23-16.12-2.543,6.444-.437,1.114H17291a35.253,35.253,0,0,0,3.9,4.7c5.734,5.732,13.473,11.843,21.225,15.149,7.754-3.306,15.486-9.417,21.221-15.149.633-.631,1.246-1.294,1.824-1.975A33.54,33.54,0,0,0,17341.813,4822.8Z" transform="translate(-17106.879 -2517.776)" fill="#00f3bb" fill-rule="evenodd"/>
  </g>
</svg>
