<svg xmlns="http://www.w3.org/2000/svg" width="108.48" height="108.48" viewBox="0 0 108.48 108.48">
  <g id="Cardiovascular_Surgery_" data-name="Cardiovascular Surgery " transform="translate(-595 -1328)">
    <path id="Path_9784" data-name="Path 9784" d="M126.982,1219.977A54.235,54.235,0,1,1,88.63,1204.09,54.072,54.072,0,0,1,126.982,1219.977Z" transform="translate(560.61 123.91)" fill="#004747"/>
    <path id="Path_9776" data-name="Path 9776" d="M1815.67,1463.619c4.823,2.645,9.984,8.268,10.656,13.689l1.619-.144c-.517-5.973-4.571-10.905-10.285-14.794Z" transform="translate(-1154.417 -106.383)" fill="#fff" fill-rule="evenodd"/>
    <path id="Path_9777" data-name="Path 9777" d="M1511.877,1433.655c2.5-5.076,6.542-8.255,12.514-10.059l.575-3.056c-6.616,1.839-13.866,6.183-17.137,16.372A45.52,45.52,0,0,1,1511.877,1433.655Z" transform="translate(-879.935 -69.086)" fill="#fff" fill-rule="evenodd"/>
    <path id="Path_9778" data-name="Path 9778" d="M1705.178,1425.844c2.061-3.7,6.092-6.945,9.389-8.929,7.975-4.8,8.166-1.248,8.514-5.426-4.871.405-9.562,3.084-13.219,5.79a26.858,26.858,0,0,0-6.912,8.15c.734.1,1.478.244,2.228.416Z" transform="translate(-1053.911 -61.017)" fill="#fff" fill-rule="evenodd"/>
    <path id="Path_9779" data-name="Path 9779" d="M1523.219,1540.219c.053-.04.106-.077.159-.113,0,2.454.758,8.51.731,8.674-.272,1.621-2.515,4.534-2.429,6.8h2.25c.016-.172.04-.367.074-.589.232-1.548.351-1.9.472-3.368,1.439,1.655,1.469,3.62,2.146,5.027h1.954c-.2-2.726-3-6.523-3-12.158a49.123,49.123,0,0,1,.017-5.357V1537.7a9.819,9.819,0,0,0-2.372,2.519Zm6.775,3.349,1.959-.124c-.333-2.551-1.231-5.964.51-8.091v-.814c-.8.222-1.638.487-2.468.8v8.225Z" transform="translate(-892.282 -170.733)" fill="#fff"/>
    <path id="Path_9830" data-name="Path 9830" d="M1549.591,1536.872c-2.3,3.787-2.9,8.871-10.682,8.871v2.194c2.5-.208,4.376-1.131,6.583-1.646a17.709,17.709,0,0,0-1.3,4.186c-1.3,5.375-5.707,6.127-5.832,11.723h1.646a8.488,8.488,0,0,1,2.743-4.937c0,2.988-.154,6.394,0,9.33.141,2.731,1.387,3.212,1.447,5.867,4.534-1.057-1.164-.069.9-16.692.242-1.945.619-4.8,1.5-6.184,1.982,8.508,3.84,5.2,3.84,11.521,0,3.337-.548,4-.548,7.132,1.972-.165,2.024-.162,2.248-2.14.116-1.028-.054-3.762-.054-4.991a8.484,8.484,0,0,1,2.742,4.937c5.147-3.446-6.583-8.158-6.583-20.3,0-1.892.405-2.124.548-3.84,1.166,1.343,1.314,2.993,2.606,5.083.642,1.039,3.632,4.567,3.261,1.132-.143-1.331-2.078-2.17-2.9-4.828-.773-2.489-.332-3.064-.237-5.469a14,14,0,0,0-1.918-.95Z" transform="translate(-890.037 -170.419)" fill="#fff"/>
    <path id="Union_6" data-name="Union 6" d="M2203.669,82.333c-3.073.6-6.158-.694-8.961-4.744-.416-.6-.872-1.2-1.359-1.8a35.743,35.743,0,0,1-3.643-3.869l.018-.125c-2.189-2.222-4.546-4.4-6.608-6.453h0C2176.138,58.407,2172,54.2,2172,43.689c0-11.312,14.671-20.677,26.624-19.8l-1.653,2.944c-6.532.64-12.486,2.157-17.143,7.08a15.428,15.428,0,0,0-4.318,10.877c0,8.76,7.952,15.813,14.861,22.45l.164-1.159-7.14-7.587,4.762-4.784,20.609,20.323a76.089,76.089,0,0,0,4.43-6.259c5.95-9.2,10.4-27.024-.682-34.84-3.291-2.32-7.853-3.64-11.778-5.109l2.059-2.793a22.035,22.035,0,0,1,20.372,22.16c0,8.715-5.038,22.147-11.526,29.676l6.941,6.845a23.044,23.044,0,0,1-5.135.574A26.529,26.529,0,0,1,2203.669,82.333ZM2188.156,53.7l0,0,0,0Zm9.383-45.294h0l-4.073-5.9,2.288-.832,3.5,5.073,1.064-.569V0h2.411V5.9l.653.131,3.857-5.586,2.289.832-3.983,5.767c1.722,1.287,4.661,5.194,5.923,6.808l-3.147,1.307c-2.073-3.635-4.01-5.657-5.65-6.126-4.239-1.211-6.092,4.856-6.092,12.728l-3.2.574C2193.48,17.732,2194.607,12.165,2197.539,8.411Z" transform="translate(-1548.636 1337.397)" fill="#fff"/>
    <path id="Path_9782" data-name="Path 9782" d="M1645.42,1855.86l20.029,19.949c-7.271-.718-14.57-4.56-18.5-10.433l.92-4.344-3.724-3.888Z" transform="translate(-1002.632 -457.235)" fill="#004747"/>
    <path id="Path_9783" data-name="Path 9783" d="M1535.8,2048.509h3.069v-2.149H1535.8Zm-6.751,0h3.373v-2.149h-3.373Zm19.632,0h3.373v-2.149h-3.373Zm-6.442,0h3.373v-2.149h-3.373Z" transform="translate(-900.013 -627.093)" fill="#fff"/>
  </g>
</svg>
