<svg xmlns="http://www.w3.org/2000/svg" width="108.482" height="108.482" viewBox="0 0 108.482 108.482">
  <g id="Coronary_Intensive_Care_Unit" data-name="Coronary Intensive Care Unit" transform="translate(-1304 -106)">
    <path id="Subtraction_12" data-name="Subtraction 12" d="M2217.016,48.117h0c-3.01-1.092-10.99-4.611-20.078-13.694a32.661,32.661,0,0,1-5.177-6.755H2172V25.076h18.42a26.143,26.143,0,0,1-2.1-6.8,18.165,18.165,0,0,1,.1-6.577,13.544,13.544,0,0,1,2.682-5.739,15.335,15.335,0,0,1,5.655-4.279A17.022,17.022,0,0,1,2203.843,0a14.062,14.062,0,0,1,8.236,2.74,25.293,25.293,0,0,1,4.6,4.4l.111.13.052.061.177.207c.108-.125.231-.268.336-.391a25.218,25.218,0,0,1,4.594-4.4A14.063,14.063,0,0,1,2230.187,0a17.011,17.011,0,0,1,7.084,1.685,15.245,15.245,0,0,1,5.806,4.47,13.671,13.671,0,0,1,2.622,6.017,21.367,21.367,0,0,1-1.508,11.542,32.079,32.079,0,0,1-7.1,10.709c-9.1,9.1-17.068,12.607-20.074,13.694Zm-19.9-20.693a27.357,27.357,0,0,0,3.086,3.719c5.356,5.351,11.481,9.724,16.806,12,5.324-2.271,11.448-6.643,16.8-12,.5-.5.985-1.023,1.442-1.564a26.365,26.365,0,0,0,2.092-2.8h-3.526l-4.043,4.752-2.041,2.4-.674-2.9-3.183-13.593-3.268,8.6-2.887-.021-1.147-3.158-4.022,11.489L2209.6,34.2l-2.56-12.762-2.015,5.1-.345.881h-7.564Zm8.98-11.658h0l2.925.2,2.47,12.353,3.588-10.257,2.9-.017,1.211,3.335,3.6-9.444,2.934.148,3.63,15.549,2.467-2.9.46-.539h6.59c1.4-2.735,3.512-8.015,1.912-12.637a9.689,9.689,0,0,0-5.44-5.657,12.244,12.244,0,0,0-5.136-1.26,9.086,9.086,0,0,0-4.351,1.121,18.937,18.937,0,0,0-5.342,4.814l-3.5,4.027-3.49-4.027a18.984,18.984,0,0,0-5.338-4.814,8.987,8.987,0,0,0-4.357-1.123,12.3,12.3,0,0,0-5.138,1.258,9.7,9.7,0,0,0-5.283,5.224c-1.98,5.046.463,10.753,2.1,13.706h7.008l3.588-9.059Z" transform="translate(-856.87 122.352)" fill="#004747"/>
    <path id="Path_9471" data-name="Path 9471" d="M2407.231,2.492a51.764,51.764,0,0,0-20.145,99.434,51.765,51.765,0,0,0,40.286-95.37,51.41,51.41,0,0,0-20.141-4.064h0Zm0-2.492a54.241,54.241,0,1,1-54.241,54.241A54.242,54.242,0,0,1,2407.231,0Z" transform="translate(-1048.99 106)" fill="#004747"/>
    <path id="Path_9472" data-name="Path 9472" d="M2395.412,140.217c8.361,7.737,10.481,8.116,10.422,12.24-.126,9.419-2.783,7.092,17.295,7.2,2.766.017,5.747,2.66,4.018-12.138-1.8-15.359-7.884-9.512-21.73-22.459-1.9-1.779-4.313-3.609-7.716-1.948-.3-.519-4.764-13.112-9.3-9.676-5.924,4.486,2.816,22.9,7.007,26.781Zm65.932,0c-8.361,7.737-10.481,8.116-10.422,12.24.126,9.419,2.783,7.092-17.294,7.2-2.766.017-5.747,2.66-4.018-12.138,1.8-15.359,7.884-9.512,21.73-22.459,1.9-1.779,4.313-3.609,7.716-1.948.3-.519,4.764-13.112,9.3-9.676,5.924,4.486-2.816,22.9-7.007,26.781Z" transform="translate(-1068.316 40.733)" fill="#004747" fill-rule="evenodd"/>
    <path id="Path_9473" data-name="Path 9473" d="M2412,160.719h15.933v-5H2412Zm39.645,0h-15.933v-5h15.933Zm16.831-29.159c-2.741,6.151-5.14,11.434-10.924,15.549-9.769,6.944.843,6.113-21.84,6.113,0-14.259,6.257-10.346,16.692-19.289,1.08-.928,6.4-5.384,7.037-5.384,7.981,0-15.06,14.681-7.8,14.681,3.8,0,12.636-14.267,14.381-17.67,7.492-14.592,5.7-1.294,2.445,6Zm-73.306,0c2.74,6.151,5.139,11.434,10.924,15.549,9.769,6.944-.843,6.113,21.84,6.113,0-14.259-6.257-10.346-16.692-19.289-1.08-.928-6.4-5.384-7.037-5.384-7.981,0,15.06,14.681,7.8,14.681-3.8,0-12.636-14.267-14.381-17.67-7.492-14.592-5.7-1.294-2.445,6Z" transform="translate(-1071.762 37.168)" fill="#00f3bb" fill-rule="evenodd"/>
  </g>
</svg>
