<svg xmlns="http://www.w3.org/2000/svg" width="108.48" height="108.48" viewBox="0 0 108.48 108.48">
  <g id="Dentistry" transform="translate(-155 -261)">
    <g id="Ellipse_336" data-name="Ellipse 336" transform="translate(155 261)" fill="#fff" stroke="#004747" stroke-width="2">
      <circle cx="54.24" cy="54.24" r="54.24" stroke="none"/>
      <circle cx="54.24" cy="54.24" r="53.24" fill="none"/>
    </g>
    <path id="Path_94" data-name="Path 94" d="M49065.66,4051.169c-11.508,6.759-30.8-14.609-43.66,9.288l1.449,13.881,2.238,12.2,5.711,3.809,2.8-12.874,3.91-13.322,7.617,1.007,3.129,6.383,3.359,11.752.895,5.484,3.59-1.674a51.149,51.149,0,0,0,1.789-4.818c.117-.782,2.8-21.713,2.8-21.713l3.91-10.411S49065.766,4051.169,49065.66,4051.169Z" transform="translate(-48832.715 -3746.367)" fill="#00f3bb" fill-rule="evenodd"/>
    <path id="Path_95" data-name="Path 95" d="M47707.246,815.639a21.752,21.752,0,0,1,15.508-2.166c8.879,2.045,13.09,8.178,12.488,15.507s-4.437,14.427-6.012,17.673-.836,13.7-1.918,18.868-4.441,12.261-8.668,12.14c-4.2-.115-4.793-3.846-4.793-8.773s-1.09-14.664-3.969-16.951-6.012-.479-7.7,8.293.359,13.827-3.609,16.108-8.168-.115-10.211-6.249-1.57-13.705-1.8-18.268-4.766-10.659-6.5-16.708C47675.012,817.422,47690.727,807.539,47707.246,815.639Zm-12.109,54.536c.047-.795.059-1.65.066-2.093a61.836,61.836,0,0,1,.934-9.009c1.137-5.922,3.9-13.863,11.117-14.179a9.822,9.822,0,0,1,6.449,2.22c4.992,3.95,6.207,14.712,6.3,21.119a25.648,25.648,0,0,0,1.289-3.974c1.238-5.976-.211-14.858,2.4-20.276,2.371-4.926,4.961-9.956,5.414-15.507.43-5.181-2.945-7.905-7.734-9-3.312-.764-7.867-.419-10.859,1.377l-2.883,1.832-3.094-1.517c-10.594-5.193-22.375-1.141-18.539,12.255,1.738,6.073,6.383,11.57,6.711,18.073.281,5.351-.207,11.509,1.508,16.648A9.787,9.787,0,0,0,47695.137,870.174Z" transform="translate(-47497.965 -529.978)" fill="#004747" fill-rule="evenodd"/>
  </g>
</svg>
