<svg xmlns="http://www.w3.org/2000/svg" width="108.48" height="108.48" viewBox="0 0 108.48 108.48">
  <g id="Don_t_See_What" data-name="Don&apos;t See What" transform="translate(-155 -2548)">
    <g id="Ellipse_336" data-name="Ellipse 336" transform="translate(155 2548)" fill="#fff" stroke="#004747" stroke-width="2">
      <ellipse cx="54.24" cy="54.24" rx="54.24" ry="54.24" stroke="none"/>
      <ellipse cx="54.24" cy="54.24" rx="53.24" ry="53.24" fill="none"/>
    </g>
    <path id="Icon_awesome-search" data-name="Icon awesome-search" d="M48.486,42.5l-9.572-9.572a2.3,2.3,0,0,0-1.632-.672H35.716a19.961,19.961,0,1,0-3.456,3.456v1.565a2.3,2.3,0,0,0,.672,1.632L42.5,48.486a2.3,2.3,0,0,0,3.255,0l2.717-2.717a2.315,2.315,0,0,0,.01-3.264ZM19.97,32.26A12.289,12.289,0,1,1,32.26,19.97,12.282,12.282,0,0,1,19.97,32.26Z" transform="translate(184.663 2577.659)" fill="#004747"/>
    <path id="Path_8620" data-name="Path 8620" d="M8.433,0A8.433,8.433,0,1,1,0,8.433,8.433,8.433,0,0,1,8.433,0Z" transform="translate(196.2 2589.082)" fill="#00f3bb"/>
  </g>
</svg>
