<svg xmlns="http://www.w3.org/2000/svg" width="108.482" height="108.482" viewBox="0 0 108.482 108.482">
  <g id="Endocrinology_And_Metabolism_Diseases" data-name="Endocrinology And Metabolism Diseases" transform="translate(-718 -261)">
    <path id="Path_9571" data-name="Path 9571" d="M419.055,467.434c0-6.063,4.056-20.739,7.024-25.529,2.9-4.693,5.616-2.138,7.113,2.31,2.121,6.3,6.5,17.7,7.151,22.426,2.45,17.784-18.6,26.486-22.072,16.86-.915-2.538-.793-2.42-2.85-4.107-2.656-2.171-11.687-2.627-13.977,1.311-1.775,3.048-.43,6.409-5.093,6.409-7.581,0-19.563-7.294-17.565-19.774,1.48-9.255,4.958-13.509,7.117-21.709,5.439-20.638,17.893,19.344,12.72,30.129,2.5-.67,2.412-.835,3.571-3.242,1.244-2.593.607-2.273,2.138-4.562,3.4,1.412,6.961,1.143,10.6,0,.325,3.917,2.5,6.451,5.65,8.559a51.754,51.754,0,0,1-1.514-9.082Z" transform="translate(362.698 -141.395)" fill="#00f3bb" fill-rule="evenodd"/>
    <path id="Path_9566" data-name="Path 9566" d="M377.631,354.122a51.572,51.572,0,1,0,20.141,4.064,51.394,51.394,0,0,0-20.141-4.064Zm0-2.492a54.241,54.241,0,1,1-54.241,54.241A54.242,54.242,0,0,1,377.631,351.63Z" transform="translate(394.61 -90.63)" fill="#004747"/>
    <path id="Subtraction_6" data-name="Subtraction 6" d="M2189.349,72.658a7.369,7.369,0,0,1-7.361-7.361,5.837,5.837,0,0,1,2.177-4.813,9.4,9.4,0,0,1,10.345.03,5.82,5.82,0,0,1,2.2,4.783,7.19,7.19,0,0,1-7.365,7.361Zm0-10.92c-2.993,0-4.575,1.232-4.575,3.563a4.579,4.579,0,0,0,4.575,4.574,4.424,4.424,0,0,0,4.575-4.574,3.13,3.13,0,0,0-1.318-2.73A5.7,5.7,0,0,0,2189.349,61.738Zm.331-14.829a24.2,24.2,0,0,1-5.551-.85,2.735,2.735,0,0,1-2.083-2.083c-.666-2.862-1.288-5.973-1.9-9.512l-.087-.5a56.859,56.859,0,0,1-1.115-9.546,2.818,2.818,0,0,1,.185-1.021c-2.672-.378-5.333-5.239-6.2-7.534-2.041-5.372-.678-10.167,3.74-13.154a14.926,14.926,0,0,1,5.725-2.627A6.7,6.7,0,0,1,2183.418,0a5.585,5.585,0,0,1,5.291,3.775,23.716,23.716,0,0,1,.986,3.293c.052-.254.1-.512.147-.762l0-.019a14.319,14.319,0,0,1,.6-2.407,4.973,4.973,0,0,1,4.912-3.449,13.21,13.21,0,0,1,5.7,1.382,13.912,13.912,0,0,1,4.651,3.593c2.881,3.486,2.077,5.725.86,9.114l-.012.033c-.161.448-.327.912-.493,1.4-1.1,3.249-2.542,6.784-5.781,7.614l.013,0a2.82,2.82,0,0,1,.127.843,56.848,56.848,0,0,1-1.114,9.543v.007l-.086.5c-.617,3.557-1.239,6.669-1.9,9.512a2.735,2.735,0,0,1-2.083,2.083A24.25,24.25,0,0,1,2189.68,46.909Zm.074-24.387a18.2,18.2,0,0,0-8.016,1.9c0,4.169,1.972,14.381,3.028,18.922a15.018,15.018,0,0,0,9.841,0c1.027-4.42,3.027-15.354,3.027-19.626A34.679,34.679,0,0,0,2189.755,22.522Zm-.443-3.4a20.9,20.9,0,0,1,6.68,1.2,10.463,10.463,0,0,0,2.888.647c1.581,0,2.894-.987,4.555-5.9.21-.622.422-1.184.609-1.68.939-2.489,1.456-3.86-.474-6.2a11.284,11.284,0,0,0-8.2-3.964c-2.1,0-2.416,1.685-2.78,3.636-.1.517-.2,1.048-.331,1.579-.873,3.421-1.683,5.084-2.477,5.085-1.049,0-1.9-2.964-2.653-5.58-.344-1.2-.668-2.325-.991-3.123a2.811,2.811,0,0,0-2.692-2.034c-1.3,0-2.952.709-5.2,2.233-3.933,2.662-3.789,6.385-2.976,9.039,1.085,3.541,3.791,6.573,4.207,6.573a22.562,22.562,0,0,0,5.639-.838A17.71,17.71,0,0,1,2189.311,19.121Z" transform="translate(-1417.395 278.909)" fill="#004747"/>
  </g>
</svg>
