<svg xmlns="http://www.w3.org/2000/svg" width="108.482" height="108.482" viewBox="0 0 108.482 108.482">
  <g id="ENT_Otolaryngology_" data-name="ENT (Otolaryngology) " transform="translate(-595 -718)">
    <path id="Path_9651" data-name="Path 9651" d="M65.391,1392.9a54.241,54.241,0,1,1-54.241,54.241A54.242,54.242,0,0,1,65.391,1392.9Z" transform="translate(583.85 -674.9)" fill="#004747"/>
    <path id="Subtraction_4" data-name="Subtraction 4" d="M2196.248,78.792a3.036,3.036,0,0,1-3.046-2.94l-.375-10.789c-.17.013-.341.021-.508.03-.695.035-1.41.071-2.12.085-.151,0-.3,0-.452,0a24.863,24.863,0,0,1-6.488-.872c-3.311-.87-5.112-3.324-5.072-6.91a22.023,22.023,0,0,1,.266-2.788V54.6l.032-.23c.007-.052.015-.113.025-.181l0-.028a9.174,9.174,0,0,0,.106-1.04c-.083-.106-.168-.208-.262-.322A5.46,5.46,0,0,1,2177,48.515c.009-.526.019-1.019.034-1.712-.1,0-.19,0-.283,0a5.313,5.313,0,0,1-3.749-1.316,3,3,0,0,1-.784-3.385c1.289-3.235,3.906-9.258,6.944-13.244l0,0h0s0,0,.005,0c-.026-.128-.053-.255-.08-.381l0-.022v-.007a17.741,17.741,0,0,1-.311-1.787,22.941,22.941,0,0,1,.4-7.577,21.361,21.361,0,0,1,2.719-6.6,25.523,25.523,0,0,1,11.09-9.47A33.229,33.229,0,0,1,2206.864,0a30.718,30.718,0,0,1,14.712,3.613,36.885,36.885,0,0,1,8.153,5.89,23.913,23.913,0,0,1,5.114,7.186,22.671,22.671,0,0,1,1.958,8.557,33.035,33.035,0,0,1-1.315,10.005c0,.009,0,.018-.008.028l0,.007c0,.009-.005.019-.007.028a50.077,50.077,0,0,1-5.3,11.788c-.013.019-.024.038-.035.057s-.023.038-.036.057a35.083,35.083,0,0,0-1.864,3.062c-1.148,2.668-1.25,8-1.133,12a112.694,112.694,0,0,0,1.052,12.331,3.049,3.049,0,0,1-2.943,3.508l-28.893.675Zm-1.113-16.85c.209,0,.419,0,.626.006l.48,13.8,28.894-.674a112.981,112.981,0,0,1-1.1-13.262c-.088-4.2.092-9.842,1.45-12.87a38.358,38.358,0,0,1,2.083-3.436,46.84,46.84,0,0,0,4.975-11.072c3.515-12.644-.437-21.587-12.437-28.147a27.628,27.628,0,0,0-13.237-3.239c-8.072,0-15.687,3.12-20.37,8.345a18.721,18.721,0,0,0-4.7,14.933,15.123,15.123,0,0,0,.38,2.149c.227.937.268,1.106-.6,2.236-2.241,2.95-4.958,8.561-6.535,12.526a2.314,2.314,0,0,0,1.665.523c.3,0,.62-.025.927-.049s.628-.048.938-.048a2.835,2.835,0,0,1,1.49.337c.043,1.183.019,2.385-.005,3.548v.009q-.01.5-.019,1a2.771,2.771,0,0,0,.72,2.391,7.647,7.647,0,0,1,.583.759c.486.731.305,2.02.114,3.384-.355,2.53-.757,5.4,2.567,6.271a21.307,21.307,0,0,0,5.632.773c.831,0,1.626-.043,2.469-.089l.13-.007C2193.229,61.986,2194.112,61.942,2195.135,61.942Z" transform="translate(-1555 733)" fill="#fff"/>
    <path id="Path_9829" data-name="Path 9829" d="M392.874,1512.792c2.5,0,5.793-2.783,8.525-2.783,1.977,0,1.613,2.708,1.794,3.4-1.994-.873-1.478-1.885-6.183,1.264-2.125,1.421-2.4,1.851-2.4,4.385.59-.156,6.615-1.689,7.585-.6.839.94,6.231,7.541,8.01,11.1l2.492,4.815c.755,1.7,1.568,3.331,2.243,5.068,1.046,2.7-1.53,3.327-1.893,4.672.923,0,3.478.523,5.742.523a53.033,53.033,0,0,0,5.392-.523c-.076-.894-2.121-4.591-2.61-5.57-2.555-5.11-8.1-15.853-11.034-19.588-.35-.443-.573-.569-.906-1.008-1.876-2.466-2.332-6.788-2.332-10.022,0-1.691.363-2.53-.936-3.069-1.868-.776-7.553,1.15-11.086-3.476-.679.455-1.932-1.682-3.923,5.04-1,1.982-1.838,3.955-2.846,5.856a10.611,10.611,0,0,0,4.351.523Zm18.028,2.433c-1.556-2.9-2.176-9.841-.624-11.708s8.934-4.17,9.056,2.2-4.393,8.268-5.949,9.613-2.488-.105-2.488-.105Z" transform="translate(236.027 -738.854)" fill="#fff" fill-rule="evenodd"/>
  </g>
</svg>
