<svg xmlns="http://www.w3.org/2000/svg" width="108.482" height="108.482" viewBox="0 0 108.482 108.482">
  <g id="General_Surgery" data-name="General Surgery" transform="translate(-595 -1633)">
    <path id="Path_9722" data-name="Path 9722" d="M1013.681,351.63a54.241,54.241,0,1,1-54.241,54.241A54.242,54.242,0,0,1,1013.681,351.63Z" transform="translate(-364.44 1281.37)" fill="#004747"/>
    <path id="Exclusion_11" data-name="Exclusion 11" d="M2232.414,59.213h0a36.773,36.773,0,0,1-9.761-1.356,43.641,43.641,0,0,1-9.195-3.741,51.025,51.025,0,0,1-15.166-12.672l1.193-8.394-5.657-5.806c1.218-1.08,2.444-2.17,3.7-3.284l.292-.259q1.856-1.649,3.715-3.3l38.26,37.985A33.241,33.241,0,0,1,2232.414,59.213Zm-30.762-34.073h0l-3.036,2.513,3.794,3.866-.919,8.374c5.779,8.627,20.375,16.486,30.622,16.487.348,0,.693-.009,1.028-.027l-31.486-31.208,0,0Zm12.416,33.7h-4.848V55.759h4.848v3.085Zm-9.258,0h-4.848V55.759h4.848v3.085Zm-9.7,0h-4.41V55.759h4.41v3.085Zm-9.263,0H2181V55.759h4.848v3.085Zm3.516-30.356h0L2172,10.848l1.859-2.171,9,8.892,5.624-5.839-9.212-9.361L2181.3,0l18.209,18.348-10.139,10.14Zm1.286-14.87-5.805,6.113,4.612,4.688,6.181-5.97-4.988-4.828Z" transform="translate(-1553.17 1650.455)" fill="#fff"/>
  </g>
</svg>
