<svg xmlns="http://www.w3.org/2000/svg" width="108.48" height="108.48" viewBox="0 0 108.48 108.48">
  <g id="Hair_Transplant" data-name="Hair Transplant" transform="translate(-155 -718)">
    <g id="Ellipse_336" data-name="Ellipse 336" transform="translate(155 718)" fill="#fff" stroke="#004747" stroke-width="2">
      <circle cx="54.24" cy="54.24" r="54.24" stroke="none"/>
      <circle cx="54.24" cy="54.24" r="53.24" fill="none"/>
    </g>
    <path id="Path_137" data-name="Path 137" d="M174234.719,55.931c-1.859-9.437-3.609-25.146-2.906-32.957A87.8,87.8,0,0,1,174234.375,8s-5.375,9.112-4.781,26.856c.7,17.739-.062,17.819-1.656,21.725C174221.5,71.87,174238.828,77.635,174234.719,55.931Zm-18.531,19.2s-2.234-6.761-2.234-17.828,1.078-19.69,4.391-24.9c0,0-5.344,5.861-5.766,23.6-.234,17.739-.437,17.5-1.578,19.293Zm33.078,0s-2.328-6.761-2.328-17.828,1.172-19.69,4.453-24.9c0,0-5.422,5.861-5.734,23.6-.359,17.739-.531,17.5-1.578,19.293Z" transform="translate(-174022.094 722.254)" fill="#004747" fill-rule="evenodd"/>
    <path id="Path_138" data-name="Path 138" d="M171637,17432.334c7.406-2.141,25.3-2.307,25.3-2.307l3.469-.027-1.047,2.852c0,.025-2.859,7.607-.344,10.791a4.109,4.109,0,0,0,1.453,1.123,15.914,15.914,0,0,0,3.875.275l.25-.023.281.023a4.548,4.548,0,0,0,2.078-.275,3.294,3.294,0,0,0,1.469-1.123c2.734-3.184-.328-10.766-.328-10.791l-1.031-2.852,3.531.027c.063,0,17.953.166,25.313,2.307l-1.656,4.076c-4.828-1.41-15.234-1.871-20.531-2.031.844,3.258,1.375,8.48-1.172,11.725a9.148,9.148,0,0,1-3.516,2.58,10.608,10.608,0,0,1-4.437.652,20,20,0,0,1-6.141-.652,8.176,8.176,0,0,1-3.469-2.58c-2.562-3.244-1.984-8.467-1.234-11.725-5.344.16-15.734.621-20.484,2.031Z" transform="translate(-171460.031 -16634.99)" fill="#00f3bb" fill-rule="evenodd"/>
  </g>
</svg>
