<svg xmlns="http://www.w3.org/2000/svg" width="108.482" height="108.482" viewBox="0 0 108.482 108.482">
  <g id="Hematology" transform="translate(-1304 -1321)">
    <path id="Path_9492" data-name="Path 9492" d="M3391.481,349.482a51.572,51.572,0,1,0,20.14,4.064,51.431,51.431,0,0,0-20.14-4.064Zm0-2.492a54.241,54.241,0,1,1-54.241,54.241A54.242,54.242,0,0,1,3391.481,346.99Z" transform="translate(-2033.24 974.01)" fill="#004747"/>
    <path id="Path_9493" data-name="Path 9493" d="M3420.633,383.554a120.792,120.792,0,0,0,9,17.312c4.069,6.818,7.539,12.627,8.517,20.027.245,1.847.409,3.719.485,5.586.278,6.788-.616,13.513-3.09,18.77-2.581,5.477-6.834,9.381-13.2,10.22-.561.076-1.138.122-1.733.148a31.612,31.612,0,0,1-8.045-.649,23.146,23.146,0,0,1-13.66-8.428,25.6,25.6,0,0,1-5.118-14.736,32.027,32.027,0,0,1,.738-8.188c1.754-8.006,6.678-14.124,11.687-20.347,4.748-5.9,9.579-11.894,11.531-19.525a1.522,1.522,0,0,1,1.855-1.1,1.541,1.541,0,0,1,1.042.911Z" transform="translate(-2065.93 953.417)" fill="#004747" fill-rule="evenodd"/>
    <path id="Path_9494" data-name="Path 9494" d="M3431.195,410.471a140.393,140.393,0,0,1-7.593-13.981c-2.509,6.4-6.7,11.6-10.827,16.734C3408,419.16,3403.3,425,3401.7,432.3a29.247,29.247,0,0,0-.679,7.42,22.57,22.57,0,0,0,4.486,12.986,20.116,20.116,0,0,0,11.889,7.307,28.7,28.7,0,0,0,7.281.59c.5-.021.987-.063,1.459-.126,5.186-.687,8.681-3.929,10.832-8.5,2.251-4.785,3.065-11.008,2.8-17.345-.072-1.771-.228-3.55-.464-5.312-.894-6.767-4.216-12.328-8.112-18.855Z" transform="translate(-2070.116 945.38)" fill="#00f3bb" fill-rule="evenodd"/>
    <path id="Path_9495" data-name="Path 9495" d="M3457.465,480.435c.392-.194.649-.455,1.042-.649.78.519,7.994,8.188,8.968,8.774.455.261.649.194.843.388h1.1c.131-.131.063-.063.262-.131.131-.067.194-.067.325-.131a3.418,3.418,0,0,0,1.492-1.235c.324-.261.649-.586.911-.843.392-.519.392-.974.586-1.235v-1.1c-.131-.131-.063-.063-.131-.194-.131-.325,0-.261-.262-.649-.586-.974-8.251-8.188-8.774-8.968.131-.261.325-.455.455-.717a21.488,21.488,0,0,0,1.623-2.922c.131-.261.194-.519.325-.78.194-.586.388-1.1.586-1.623a23.334,23.334,0,0,0,.911-4.811l.063-2.142c0-.455-.063-.586-.063-1.041a27.9,27.9,0,0,0-.586-3.963c-3.107-12.041-16.064-18.981-28.135-15.2a21.694,21.694,0,0,0-14.229,25.858c1.7,5.03,3.112,8.221,7.277,11.632C3439.88,485.111,3448.928,485.461,3457.465,480.435Z" transform="translate(-2083.494 920.086)" fill="#004747" fill-rule="evenodd"/>
    <path id="Path_9496" data-name="Path 9496" d="M3429.28,461.829c.063-.325.131-.78.194-1.041a14.339,14.339,0,0,1,1.1-3.7c.131-.325.194-.519.324-.843a24.309,24.309,0,0,1,2.272-3.769,20.355,20.355,0,0,1,6.565-5.46,18.491,18.491,0,0,1,4.355-1.623,19.3,19.3,0,0,1,7.471-.388c.325.063.717.131,1.042.194l1.948.455a17.229,17.229,0,0,1,2.99,1.168,25.418,25.418,0,0,1,2.728,1.623c.843.586,1.1.911,1.691,1.366.131.131.194.131.325.261a22.22,22.22,0,0,1,2.8,3.251l.911,1.493c.131.261.325.519.456.78l.717,1.691a3.63,3.63,0,0,1,.325.911l.717,2.34a18.48,18.48,0,0,1,.325,2.665,18.753,18.753,0,0,1-1.366,8.706,19.477,19.477,0,0,1-5,7.214c-.131.194-.194.194-.325.325a19.047,19.047,0,0,1-3.25,2.273,1.462,1.462,0,0,1-.388.261l-2.926,1.3a28.257,28.257,0,0,1-2.922.717,20.612,20.612,0,0,1-6.042.194,19.513,19.513,0,0,1-8.707-3.445,18.16,18.16,0,0,1-4.874-4.806,18.467,18.467,0,0,1-2.534-4.743c-.194-.649-.392-1.235-.519-1.885a20.408,20.408,0,0,1-.586-5.262l.194-2.209Zm3.963,2.4a16.133,16.133,0,0,1,1.623-6.628,15.777,15.777,0,0,1,3.575-4.68,14.093,14.093,0,0,1,5.2-3.052,17.115,17.115,0,0,1,4.225-.911h1.042c1.235-.131,1.492-2.079-.325-2.079a18.18,18.18,0,0,0-14.812,8.382,17.837,17.837,0,0,0-2.4,6.822,17.59,17.59,0,0,0,2.665,12.083,15.867,15.867,0,0,0,3.575,3.963,16.587,16.587,0,0,0,3.9,2.534,17.953,17.953,0,0,0,14.748-.063c.261-.131.456-.261.717-.392a2.053,2.053,0,0,0,.388-.194,16.354,16.354,0,0,0,3.963-2.989c5.2-5.2,6.822-13.517,3.444-20.077a17.223,17.223,0,0,0-3.769-5.262,15.994,15.994,0,0,0-4.026-2.8,14.866,14.866,0,0,0-3.183-1.3,3.232,3.232,0,0,0-.911-.194,1.055,1.055,0,0,0-.388,1.948c6.683,6.818,8.517,28.881-2.6,30.736-.194,0-.261.063-.455.063a12.786,12.786,0,0,1-3.9-.392,13.6,13.6,0,0,1-4.026-1.492l-1.623-.974c-.194-.131-.392-.261-.586-.388l-1.042-.843c-.586-.519-1.691-1.948-2.209-2.534a15.668,15.668,0,0,1-2.8-9.292Z" transform="translate(-2086.365 917.447)" fill="#fefefe" fill-rule="evenodd"/>
    <path id="Path_9497" data-name="Path 9497" d="M3489.137,391.987a27.662,27.662,0,0,0,2.58,3.736,12.041,12.041,0,0,1,2.547,4.376c.11.422.2.847.274,1.277a9.591,9.591,0,0,1-.168,4.423,3.9,3.9,0,0,1-3.149,2.829,7.356,7.356,0,0,1-1.876.084,5.379,5.379,0,0,1-3.4-1.552,5.957,5.957,0,0,1-1.611-3.255,7.573,7.573,0,0,1-.067-1.91,11.709,11.709,0,0,1,2.108-5.038,12.273,12.273,0,0,0,2.1-4.844.355.355,0,0,1,.4-.308.34.34,0,0,1,.265.181Z" transform="translate(-2118.26 948.091)" fill="#00f3bb" fill-rule="evenodd"/>
    <path id="Path_9498" data-name="Path 9498" d="M3461.25,467.612a31.833,31.833,0,0,0,2.909,4.216,13.627,13.627,0,0,1,2.875,4.937c.123.472.228.957.308,1.438a10.813,10.813,0,0,1-.19,4.992,4.376,4.376,0,0,1-3.1,3.095c-.144.038-.291.072-.447.1a8.291,8.291,0,0,1-2.116.093,6.055,6.055,0,0,1-3.833-1.75,6.728,6.728,0,0,1-1.817-3.672,8.528,8.528,0,0,1-.076-2.159,13.183,13.183,0,0,1,2.378-5.683,13.848,13.848,0,0,0,2.365-5.464.4.4,0,0,1,.447-.346.4.4,0,0,1,.3.2Z" transform="translate(-2101.77 904.366)" fill="#00f3bb" fill-rule="evenodd"/>
  </g>
</svg>
