<svg xmlns="http://www.w3.org/2000/svg" width="108.482" height="108.482" viewBox="0 0 108.482 108.482">
  <g id="Internal_Medicine" data-name="Internal Medicine" transform="translate(-595 -1786)">
    <path id="Path_9718" data-name="Path 9718" d="M1013.681,724.02a54.241,54.241,0,1,1-54.241,54.241A54.242,54.242,0,0,1,1013.681,724.02Z" transform="translate(-364.44 1061.98)" fill="#004747"/>
    <path id="Exclusion_10" data-name="Exclusion 10" d="M2206.151,85.567h-24.859a5.611,5.611,0,0,1-3.687-1.249,5.168,5.168,0,0,1-1.7-2.9,5.286,5.286,0,0,1,.349-3.25A4.679,4.679,0,0,1,2178.7,75.8a8.825,8.825,0,0,1-2.844-5.411,8.6,8.6,0,0,1,1.406-6.019,8.729,8.729,0,0,1,2.694-2.61c-.2-.125-.382-.243-.544-.358a10.236,10.236,0,0,1-4.3-6.894,10.694,10.694,0,0,1,2.217-8.2,9.4,9.4,0,0,1,4.566-3.2,10.686,10.686,0,0,1,2.859-.561c.044-.041.086-.082.132-.128a13.055,13.055,0,0,1,5.472-2.684V35.5a5.341,5.341,0,0,1-2.754.936l-.178.019a18.921,18.921,0,0,0-3.03.491c-.777.212-1.543.5-2.283.78a22.333,22.333,0,0,1-2.687.885,8.2,8.2,0,0,1-1.892.235,4.945,4.945,0,0,1-4.778-3.034,11.08,11.08,0,0,1-.75-4.853c0-4.52,1.852-10.732,3.681-14.533a27.1,27.1,0,0,1,4.137-6.635,8.962,8.962,0,0,1,6.821-3.226,5.024,5.024,0,0,1,3.715,1.5V2.787A2.79,2.79,0,0,1,2193.14,0h4.878a2.79,2.79,0,0,1,2.786,2.787V8.095a5.853,5.853,0,0,1,4.183-1.53c2.422,0,4.695,1.222,6.754,3.632a26.8,26.8,0,0,1,4.051,6.921c1.677,3.962,3.369,9.635,3.369,13.378a15.373,15.373,0,0,1-.735,5.248,4.362,4.362,0,0,1-3.73,3.083,10.519,10.519,0,0,1,1.2,6.754,10.818,10.818,0,0,1-1.9,4.941,11.684,11.684,0,0,1-3.864,3.332v.013a9.093,9.093,0,0,1,1.388.8,8.362,8.362,0,0,1,.952.784c.156.148.317.314.506.523a8.836,8.836,0,0,1-1.728,13.281,7.387,7.387,0,0,1,3.037,3.3,10.835,10.835,0,0,1,.93,4.649,7.933,7.933,0,0,1-2.816,5.972A9.579,9.579,0,0,1,2206.151,85.567Zm-5.342-7.433-20.4.047a2.187,2.187,0,0,0-1.833,2.4,2.5,2.5,0,0,0,2.715,2.2h24.859a6.535,6.535,0,0,0,4.455-1.744,5.334,5.334,0,0,0,1.818-3.83c0-2.68-.819-4.476-2.5-5.49a11.508,11.508,0,0,0-5.775-1.1c-.751,0-1.526.022-2.275.044s-1.5.043-2.224.043l-13.711.009-.343,0c-1.659,0-2.3-.161-2.44-1.866a2.128,2.128,0,0,1,1.976-.96c.176,0,.369.005.592.011.264.007.564.015.915.017h13.475c.665,0,1.377.026,2.131.053.785.028,1.6.058,2.386.058a11.28,11.28,0,0,0,3.92-.5,6.03,6.03,0,0,0,2.344-9.688l-.143-.163a.593.593,0,0,0-.077-.081c-.019-.017-.05-.044-.121-.111s-.54-.455-.637-.523a6.326,6.326,0,0,0-1.712-.847,40.288,40.288,0,0,0-6.969-.346c-.511.085-1.028.159-1.528.232l-.146.021a37.531,37.531,0,0,1-5.157.386,21.076,21.076,0,0,1-5.119-.563c-.306,0-.672.011-1.059.02-.517.012-1.1.026-1.649.026a11.9,11.9,0,0,1-1.756-.092,2.7,2.7,0,0,1-2.171-1.726,3.272,3.272,0,0,1,.429-3.122,6.861,6.861,0,0,1,.447-5.4l0,0a5.876,5.876,0,0,0-.708.207,6.566,6.566,0,0,0-3.293,2.281,7.9,7.9,0,0,0-1.669,6.04,7.517,7.517,0,0,0,3.162,5.062c1.8,1.266,3.477,1.36,5.834,1.36l.856,0h.012c.321,0,.655,0,1,0h18.354l.132.2.037.055c.774,1.143.774,1.143,0,2.286l-.053.08-.115.171h-17.19c-.695,0-1.375-.021-2.032-.042-.632-.02-1.229-.038-1.816-.038-2.832,0-4.9.462-6.477,2.762a5.854,5.854,0,0,0-.822,4.786,5.943,5.943,0,0,0,3.085,3.844,9.636,9.636,0,0,0,4.487.818c.491,0,1-.012,1.53-.024.582-.013,1.181-.027,1.813-.027h17.426a2.838,2.838,0,0,0,.413.495c.217.212.282.276.282,1.133,0,.874-1.1,1.282-3.467,1.282-.741,0-1.5-.038-2.166-.072C2201.616,78.157,2201.161,78.133,2200.809,78.133Zm-7.665-58.077V39.9a10.649,10.649,0,0,0,2.34-.687c.485-.363.942-.716,1.346-1.027s.806-.622,1.192-.909V19.829c.6.141,1.209.3,1.794.448.633.163,1.282.331,1.925.479v6.737c0,5.959.195,5.979,2.58,6.234a18.649,18.649,0,0,1,4.25.879c.347.115.718.253,1.112.4a13.381,13.381,0,0,0,4.374,1.086,1.743,1.743,0,0,0,1.282-.518c1.062-1.067,1.049-3.49,1.042-4.792V30.76c0-.087,0-.169,0-.244,0-2.339-1.2-7.7-3.148-12.289a24.114,24.114,0,0,0-3.6-6.193c-1.5-1.764-3.066-2.659-4.641-2.659a3.03,3.03,0,0,0-2.273.781c-1.046,1.06-1.018,3.112-.988,5.284,0,.348.01.743.01,1.137a14.8,14.8,0,0,0-3.718-.928V2.808h-4.878V14.95c0,1.19-1.119,1.384-2.536,1.63-.385.067-.782.136-1.183.23,0-.213.013-.492.028-.815v-.011c.079-1.712.211-4.574-1.058-5.9a2.329,2.329,0,0,0-1.758-.7c-1.96,0-3.7.963-5.312,2.943a26.865,26.865,0,0,0-3.132,5.34c-1.414,2.936-3.4,9.009-3.4,13.325l-.008-.013v.17a8.373,8.373,0,0,0,.493,3.52,2.25,2.25,0,0,0,2.219,1.421,12.052,12.052,0,0,0,3.819-1.015c.776-.291,1.577-.592,2.339-.8a18.028,18.028,0,0,1,3.237-.551c2.593-.247,2.593-.247,2.547-8.386v-.008c-.007-1.257-.015-2.682-.015-4.339a20.4,20.4,0,0,0,3.717-.926Z" transform="translate(-1546.34 1796.317)" fill="#fff"/>
    <path id="Path_9721" data-name="Path 9721" d="M1074.268,839.649c-1.446,1.079-7.391,1.32-9.879,3.647-4.225,3.955-2.913,11.742,12.493,9.579,10.081-1.412,13.222-4.208,13.846-8.82.86-6.345-4.2-8.479-7.606-8.517-4.026-.042-5.123,1.32-8.854,4.107Z" transform="translate(-423.939 997.48)" fill="#004747"/>
  </g>
</svg>
