<svg xmlns="http://www.w3.org/2000/svg" width="108.48" height="108.48" viewBox="0 0 108.48 108.48">
  <g id="Ivf_ICSI_" data-name="Ivf  (ICSI)" transform="translate(-155 -1481)">
    <g id="Path_8619" data-name="Path 8619" transform="translate(155 1481)" fill="#fff">
      <path d="M 54.239990234375 107.4800033569336 C 47.05220413208008 107.4800033569336 40.07994842529297 106.0724868774414 33.51689147949219 103.2965469360352 C 27.17723274230957 100.615104675293 21.48343276977539 96.77616119384766 16.5936336517334 91.88637542724609 C 11.70384693145752 86.99657440185547 7.864904403686523 81.30277252197266 5.183461666107178 74.96310424804688 C 2.407518863677979 68.40006256103516 1.000004529953003 61.42780303955078 1.000004529953003 54.2400016784668 C 1.000004529953003 47.05220031738281 2.407518863677979 40.0799446105957 5.183461666107178 33.51690292358398 C 7.864904403686523 27.17723083496094 11.70384693145752 21.48343086242676 16.5936336517334 16.59362983703613 C 21.48343276977539 11.70384407043457 27.17723274230957 7.864901542663574 33.51689147949219 5.183458805084229 C 40.07994842529297 2.407516002655029 47.05220413208008 1.000001668930054 54.239990234375 1.000001668930054 C 61.42777633666992 1.000001668930054 68.40003204345703 2.407516002655029 74.96308898925781 5.183458805084229 C 81.30274963378906 7.864901542663574 86.99654388427734 11.70384407043457 91.88634490966797 16.59362983703613 C 96.77613067626953 21.48343086242676 100.6150741577148 27.17723083496094 103.296516418457 33.51690292358398 C 106.0724639892578 40.0799446105957 107.4799728393555 47.05220031738281 107.4799728393555 54.2400016784668 C 107.4799728393555 61.42780303955078 106.0724639892578 68.40006256103516 103.296516418457 74.96310424804688 C 100.6150741577148 81.30277252197266 96.77613067626953 86.99657440185547 91.88634490966797 91.88637542724609 C 86.99654388427734 96.77616119384766 81.30274963378906 100.615104675293 74.96308898925781 103.2965469360352 C 68.40003204345703 106.0724868774414 61.42777633666992 107.4800033569336 54.239990234375 107.4800033569336 Z" stroke="none"/>
      <path d="M 54.239990234375 2 C 47.18675994873047 2 40.34555816650391 3.380943298339844 33.90643310546875 6.104461669921875 C 27.68597412109375 8.735496520996094 22.09902191162109 12.50246429443359 17.30074310302734 17.30074310302734 C 12.50246429443359 22.09901428222656 8.735496520996094 27.68598937988281 6.104469299316406 33.90644836425781 C 3.380943298339844 40.34557342529297 2.000007629394531 47.18677139282227 2.000007629394531 54.2400016784668 C 2.000007629394531 61.29323196411133 3.380943298339844 68.13442993164062 6.104469299316406 74.57355499267578 C 8.735496520996094 80.79402160644531 12.50246429443359 86.38098907470703 17.30074310302734 91.17926025390625 C 22.09902191162109 95.9775390625 27.68597412109375 99.7445068359375 33.90643310546875 102.3755416870117 C 40.34555816650391 105.0990600585938 47.18675994873047 106.4800033569336 54.239990234375 106.4800033569336 C 61.29322052001953 106.4800033569336 68.13442230224609 105.0990600585938 74.57354736328125 102.3755416870117 C 80.79400634765625 99.7445068359375 86.38095855712891 95.9775390625 91.17923736572266 91.17926025390625 C 95.97751617431641 86.38098907470703 99.74448394775391 80.79402160644531 102.3755111694336 74.57355499267578 C 105.0990371704102 68.13442993164062 106.4799728393555 61.29323196411133 106.4799728393555 54.2400016784668 C 106.4799728393555 47.18677139282227 105.0990371704102 40.34557342529297 102.3755111694336 33.90644836425781 C 99.74448394775391 27.68598937988281 95.97751617431641 22.09901428222656 91.17923736572266 17.30074310302734 C 86.38095855712891 12.50246429443359 80.79400634765625 8.735496520996094 74.57354736328125 6.104461669921875 C 68.13442230224609 3.380943298339844 61.29322052001953 2 54.239990234375 2 M 54.239990234375 0 C 84.19591522216797 0 108.4799728393555 24.28408050537109 108.4799728393555 54.2400016784668 C 108.4799728393555 84.1959228515625 84.19591522216797 108.4800033569336 54.239990234375 108.4800033569336 C 24.28406524658203 108.4800033569336 7.62939453125e-06 84.1959228515625 7.62939453125e-06 54.2400016784668 C 7.62939453125e-06 24.28408050537109 24.28406524658203 0 54.239990234375 0 Z" stroke="none" fill="#004747"/>
    </g>
    <path id="Path_8708" data-name="Path 8708" d="M2306.378,14120.1c2.182,1.715,2.572,5.846-.312,8.574s-4.442,4.363-6.7,4.131-2.339,2.883-3.352,3.74-7.56.547-8.261,1.637-.78,8.338-3.274,8.885a8.816,8.816,0,0,1-4.209,0s2.572-.623,2.494-4.832.233-8.418,4.131-9.119,7.95-.078,8.573-1.793-1.325-5.533,0-7.326S2304.2,14118.389,2306.378,14120.1Z" transform="translate(-2092.365 -12581.705)" fill="#00f3bb"/>
    <ellipse id="Ellipse_428" data-name="Ellipse 428" cx="4.231" cy="4.231" rx="4.231" ry="4.231" transform="translate(213.003 1524.566)" fill="#00f3bb"/>
    <ellipse id="Ellipse_429" data-name="Ellipse 429" cx="2.115" cy="2.115" rx="2.115" ry="2.115" transform="translate(224.637 1531.969)" fill="#00f3bb"/>
    <ellipse id="Ellipse_430" data-name="Ellipse 430" cx="2.115" cy="2.115" rx="2.115" ry="2.115" transform="translate(204.542 1529.854)" fill="#00f3bb"/>
    <path id="Shape" d="M43.032,20.544a5.288,5.288,0,1,0,1.151,5.769,5.288,5.288,0,0,0-1.151-5.769Zm-1.5,5.986a3.258,3.258,0,0,1-4.484,0,3.173,3.173,0,1,1,4.484,0Z" transform="translate(178.33 1504.507)" fill="#004747"/>
    <path id="Shape-2" data-name="Shape" d="M50.415,26.931a3.173,3.173,0,1,0,.687,3.456,3.173,3.173,0,0,0-.687-3.456Zm-1.491,2.993a1.058,1.058,0,1,1,.232-1.157A1.058,1.058,0,0,1,48.924,29.924Z" transform="translate(178.964 1504.911)" fill="#004747"/>
    <path id="Shape-3" data-name="Shape" d="M31.415,24.931a3.173,3.173,0,1,0,.687,3.456,3.173,3.173,0,0,0-.687-3.456Zm-1.491,2.993a1.058,1.058,0,1,1,.232-1.157,1.058,1.058,0,0,1-.232,1.157Z" transform="translate(177.868 1504.796)" fill="#004747"/>
    <path id="Shape-4" data-name="Shape" d="M47.115,35.058A1.058,1.058,0,1,1,46.058,34,1.058,1.058,0,0,1,47.115,35.058Z" transform="translate(178.964 1505.372)" fill="#004747"/>
    <path id="Shape-5" data-name="Shape" d="M49.115,38.058A1.058,1.058,0,1,1,48.058,37,1.058,1.058,0,0,1,49.115,38.058Z" transform="translate(179.079 1505.545)" fill="#004747"/>
    <path id="Shape-6" data-name="Shape" d="M39.076,8.461a25.182,25.182,0,0,0-19.164,8.747L10.393,2.845,9.1.941A2.115,2.115,0,0,0,7.347,0H3.116A2.115,2.115,0,0,0,1,2.115C1,7.731.874,7.689,1.35,8.461,12.55,25.891,12.7,25.383,12.7,25.489a2.115,2.115,0,0,0-.592,2.93c1.4,2.115,1.311,2.062,1.787,2.359a25.13,25.13,0,0,0,3.448,16.15,7.52,7.52,0,0,0-4.463,5.394c-.444,2.041.4,5.288.338,6.124-.1,1.375-1.914,1.639-3.173,2.21a1.058,1.058,0,0,0,.1,1.957c2.031.825,3.437,1.248,5.574.328a6.515,6.515,0,0,0,3.723-5.383v-.1c.391-2.739.3-2.686.36-3.173.3-.645.666-.539,3.448-.624a25.383,25.383,0,1,0,15.833-45.2ZM3.116,7.255V2.115H7.347l.677,1.058L6.289,4.3a1.058,1.058,0,0,0,.55,1.935c.465,0,.6-.18,2.348-1.343l1.174,1.766L8.595,7.837a1.058,1.058,0,0,0,.592,1.935c.455,0,.518-.127,2.348-1.354L12.709,10.2,10.943,11.37a1.058,1.058,0,0,0,.635,1.935c.4,0,.381,0,2.348-1.354l1.132,1.8-1.766,1.174a1.058,1.058,0,0,0,.592,1.935c.4,0,.381,0,2.348-1.354L17.4,17.271l-1.766,1.185a1.058,1.058,0,0,0,.592,1.935c.444,0,.592-.18,2.348-1.354L19.753,20.8l-5.288,3.522Zm11.92,21.756-1.174-1.766.888-.592,7.943-5.288,1.174,1.766c-8.969,5.976-8.726,5.88-8.831,5.88Zm9.984-7.964a19.038,19.038,0,1,1,4.537,29.275,6.346,6.346,0,0,0,.751-1.692,5.5,5.5,0,0,0,5.077-1.491l.8-.8c2.782-2.782,5.976-8.461,2.7-11.634-3.035-3.046-8.123-.487-11.052,2.115l-1.639-2.454a2.115,2.115,0,0,0,.825-2.782l-2.961-6.018c1.058-.709,1.692-1.058,1.883-2a3.415,3.415,0,0,0-.92-2.517Zm6.473,21.259-2.464-3.7c1.957-1.809,6.261-4.527,8.377-2.411S36.77,42.8,34.7,44.876c-.92.92-1.618,1.83-3.289,1.809s-2.528-1.058-3.4-1.935a3.6,3.6,0,0,1-.487-4.558l2.2,3.3a1.063,1.063,0,1,0,1.766-1.185Zm-6.06,2.348c-.412,1.142-.233,1.269-.719,1.639a18.815,18.815,0,0,1-4.675-12.861l1.512,1.745a2.115,2.115,0,0,0,2.877.307L26.3,38.3A5.605,5.605,0,0,0,25.432,44.654Zm-.3-12.163-1.925,1.354-4.231-4.907,3.3-2.189ZM17.923,53.326a2.623,2.623,0,0,0-.275,1.163c-.2,2.052-.338,2.76-.349,2.866a4.379,4.379,0,0,1-2.485,3.659,3.585,3.585,0,0,1-1.121.328,3.427,3.427,0,0,0,1.608-2.6c.169-.952-.73-4.294-.36-5.976a5.5,5.5,0,0,1,3.67-4.114c1.639-.5,2.94-.137,4.707-.137a6.346,6.346,0,0,0,1.058,0h.106a3.226,3.226,0,0,0,2.538-1.9,6.547,6.547,0,0,0,1.343,1.132,4.865,4.865,0,0,1-4.6,3.733c-2.454.286-4.918-.243-5.838,1.851Z" transform="translate(176.427 1503.412)" fill="#004747"/>
  </g>
</svg>
