<svg xmlns="http://www.w3.org/2000/svg" width="108.48" height="108.48" viewBox="0 0 108.48 108.48">
  <g id="Knee_" data-name="Knee " transform="translate(-155 -2091)">
    <g id="Ellipse_336" data-name="Ellipse 336" transform="translate(155 2091)" fill="#fff" stroke="#004747" stroke-width="2">
      <ellipse cx="54.24" cy="54.24" rx="54.24" ry="54.24" stroke="none"/>
      <ellipse cx="54.24" cy="54.24" rx="53.24" ry="53.24" fill="none"/>
    </g>
    <path id="Path_119" data-name="Path 119" d="M27.56,1556.153c-.047.041-19.246,15.265-20.675,16.691a4.875,4.875,0,0,0-.9,2.016,17.443,17.443,0,0,0-.512,4.24c0,1.061.19,3.838.409,6.995.328,4.764.711,10.367.618,12.626-.15,3.616-.443,16.5-.443,16.535l-5.6-.1c.187-7.8-1.526-36.711-.034-42.357,1.516-5.737,16.853-14.663,21.789-18.794Zm36.888,20.659c-10.847,6.246-18.372,9.362-28.58,14.126-2.72,1.267-2.783,3.2-1.326,5.453a15.49,15.49,0,0,1,2.1,5.962,22.31,22.31,0,0,1-.044,6.889,52.776,52.776,0,0,1-1.264,6.289l-4.973-.265c0-.013.5-2.259,1.22-6.72a18.6,18.6,0,0,0,.028-5.747,11.7,11.7,0,0,0-1.526-4.486,9.013,9.013,0,0,1-1.448-4.673,11.216,11.216,0,0,1,.48-3.535c.384-1.279,1.547-2.352,3.741-3.372,10.214-4.77,15.583-6.72,26.272-12.857Z" transform="translate(182.292 558.476)" fill="#004747" fill-rule="evenodd"/>
    <path id="Path_120" data-name="Path 120" d="M3114.465,7272.976a39.935,39.935,0,0,0-1.628,6.512c-.147,2.07-2.364,2.07-2.958.293s-.889-5.179.146-6.36S3115.354,7270.312,3114.465,7272.976Z" transform="translate(-2917.543 -5141.32)" fill="#00f3bb" fill-rule="evenodd"/>
    <path id="Path_121" data-name="Path 121" d="M3062.067,11259s2.961,5.177,8.14,5.622,7.4.15,7.4,1.924-4.732,2.218-6.361,2.66a5.136,5.136,0,0,0-3.55,3.405c-.3,1.48.886,5.477-.3,5.624s-2.811-1.921-4.59-.591a1.935,1.935,0,0,1-3.254-1.479c0-1.332.593-7.105-.146-8.735S3059.552,11260.478,3062.067,11259Z" transform="translate(-2867.515 -9116.246)" fill="#00f3bb" fill-rule="evenodd"/>
    <path id="Path_122" data-name="Path 122" d="M6588.454,15335.719c-2.219.59-3.55.3-4.144,2.07s.3,6.66.3,6.66h4.439S6588.01,15335.422,6588.454,15335.719Z" transform="translate(-6381.471 -13180.24)" fill="#00f3bb" fill-rule="evenodd"/>
    <path id="Path_123" data-name="Path 123" d="M6558.588,18753l-4.439.74-.15,6.6h4.144Z" transform="translate(-6351.455 -16586.871)" fill="#00f3bb" fill-rule="evenodd"/>
    <path id="Path_124" data-name="Path 124" d="M3146.953,17816.52s1.776-3.842,1.776-6.508a3.468,3.468,0,0,0-1.925-3.4,5.208,5.208,0,0,0-3.846.141c-2.219.895-2.958,1.488-2.958,2.523s.739,7.389.739,7.389Z" transform="translate(-2948.108 -15643.141)" fill="#00f3bb" fill-rule="evenodd"/>
    <path id="Path_125" data-name="Path 125" d="M6622.368,3559.484s-10.192,2.487-12.27,4.758-.9,5.444-5.13,8.592-11.836.424-11.546-5.354,5.186-8.261,8.8-10.511l8-4.969Z" transform="translate(-6390.747 -1433.291)" fill="#00f3bb" fill-rule="evenodd"/>
    <path id="Path_126" data-name="Path 126" d="M5019.84,10175.869a1.1,1.1,0,0,1-.157-2.2l.1-.007.112-.008.112-.012.112-.008.112-.01.112-.01.109-.01.113-.012.108-.013.109-.015.112-.009.108-.018.109-.012.109-.015.109-.018.108-.012.107-.015.108-.02.105-.015.107-.02.109-.017.105-.02.105-.018.107-.02.105-.017.105-.021.1-.02.1-.02.106-.02.1-.022.1-.024.1-.019.1-.024.1-.022.1-.024.1-.021.1-.024.1-.021.1-.027h.007a1.1,1.1,0,0,1,.529,2.138h-.012l-.105.029-.112.024-.11.029-.108.021-.109.029-.112.022-.109.023-.112.024-.112.022-.112.021-.112.024-.116.021-.111.022-.115.021-.116.024-.115.018-.115.02-.114.019-.117.02-.118.02-.115.02-.119.018-.118.017-.119.018-.118.017-.117.015-.122.017-.119.018-.121.01-.122.012-.118.015-.122.013-.122.015-.124.007-.123.012-.121.013-.124.007-.122.013Zm8.76-2.188a1.1,1.1,0,0,1-.722-2.085h.007l.121-.046.122-.044.122-.044.118-.041.119-.049.118-.048.118-.047.12-.044.114-.051.115-.049.116-.051.115-.051.114-.054.113-.049.111-.051.113-.056.112-.057.109-.054.113-.053.107-.059.108-.056.107-.059.109-.059.105-.059.109-.058.106-.062.1-.061.106-.063.1-.058.1-.062.1-.065.1-.063.1-.062.032-.018a1.1,1.1,0,1,1,1.188,1.849l-.04.029-.115.07-.114.073-.115.067-.116.073-.115.068-.119.067-.118.068-.119.065-.118.068-.121.065-.123.066-.12.061-.122.068-.126.063-.12.063-.126.061-.127.059-.124.065-.129.057-.128.058-.129.057-.127.061-.132.054-.131.056-.13.054-.131.056-.135.054-.136.054-.134.051-.134.051-.135.049-.136.051-.138.049Zm-17.887.831a1.1,1.1,0,0,1,.812-2.05l.007,0,.118.047.121.049.118.043.123.044.119.044.12.044.122.039.119.041.119.039.121.034.118.039.121.038.122.034.118.034.119.034.121.031.119.034.121.027.119.031.122.026.118.032.119.026.12.024.119.026.118.022.123.026.118.02.118.024.119.022.117.019.123.018.119.017.118.022.034,0a1.1,1.1,0,1,1-.3,2.179l-.05,0-.136-.023-.132-.02-.133-.02-.133-.024-.136-.024-.134-.024-.134-.024-.134-.029-.135-.026-.133-.029-.136-.026-.134-.032-.134-.031-.134-.029-.138-.036-.135-.037-.134-.034-.134-.036-.138-.034-.134-.044-.134-.036-.139-.039-.134-.044-.135-.046-.136-.044-.134-.041-.138-.049-.134-.049-.138-.049-.135-.048-.134-.052-.139-.051-.134-.054Z" transform="translate(-4812.292 -8030.268)" fill="#004747" fill-rule="evenodd"/>
  </g>
</svg>
