<svg xmlns="http://www.w3.org/2000/svg" width="108.482" height="108.482" viewBox="0 0 108.482 108.482">
  <g id="Language_And_Speech_Therapy" data-name="Language And Speech Therapy" transform="translate(-595 -2091)">
    <path id="Path_9696" data-name="Path 9696" d="M1012.011,1758.93a54.241,54.241,0,1,1-54.241,54.241A54.242,54.242,0,0,1,1012.011,1758.93Z" transform="translate(-362.77 332.07)" fill="#004747"/>
    <path id="Exclusion_6" data-name="Exclusion 6" d="M2209.813,69.111l-28.771-.708.034-.2c.965-6.314,2.166-14.172-.4-19.885a40.1,40.1,0,0,0-2.18-3.592,49.021,49.021,0,0,1-5.208-11.582c-1.889-6.794-1.706-12.485.561-17.4,2.175-4.714,6.247-8.654,12.45-12.046a30.02,30.02,0,0,1,14.36-3.7c7.427,0,14.175,2.851,18.513,7.821a24.359,24.359,0,0,1,4.226,6.6,17.014,17.014,0,0,1,1.25,8.459,14.538,14.538,0,0,1-.685,2.971c-.429,1.356-.713,2.252.137,3.358a24.21,24.21,0,0,0,1.806,1.925c2.246,2.257,5.638,5.666,5.306,8.054A2.47,2.47,0,0,1,2229.827,41c-.446.25-.857.451-1.221.629-1.461.715-2.266,1.109-2.195,2.963.005.147.011.294.018.441.077,1.883.149,3.661-.894,3.754-.692.064-1.281.067-1.755.069-.814,0-1.353.007-1.65.307a1.623,1.623,0,0,0-.3,1.18c0,.341,1.063.577,2.186.827,1.177.262,2.395.533,2.4.943a20.391,20.391,0,0,1-.79,5.942c-.556,1.821-1.307,2.94-2.115,3.153a60.834,60.834,0,0,1-9.021.58c-.772.006-1.646.013-2.629.031l-2.053,7.289Zm-9.37-65.574c-9.781,0-19.57,5.534-23.276,13.159-3.473,7.123-1.523,18.106,4.743,26.709,4.226,5.859,3.518,12.464,2.769,19.457-.077.718-.173,1.612-.256,2.462l22.936.7,2.121-7.619c.4-.006.785-.009,1.164-.009.926,0,1.742.016,2.637.035l.114,0c.781.016,1.519.032,2.279.032,1.446,0,2.706-.059,4.085-.191.484-.046.9-.055,1.273-.063,1.728-.036,2.31-.048,2.825-3.96-.157-1.156-.956-1.352-2.406-1.709-.286-.07-.609-.15-.95-.243a1.284,1.284,0,0,1-.859-.9c-.349-1.07.151-2.6,1.336-4.093a2.206,2.206,0,0,1,1.6-.66c.718-.1,1.338-.179,1.322-.934a13.452,13.452,0,0,0-.058-1.68c-.136-1.743-.243-3.119,2.462-4.4.909-.357,1.436-.858,1.564-1.49.339-1.665-2.039-4-4.137-6.052l-.008-.008c-.435-.426-.846-.829-1.223-1.216-2.074-2.123-1.931-2.608-1.139-5.3l.06-.2a16.9,16.9,0,0,0-3.04-13.426,21.678,21.678,0,0,0-14.824-8.207A23.542,23.542,0,0,0,2200.444,3.537Z" transform="translate(-1557.073 2108.004)" fill="#fff"/>
    <path id="Path_9697" data-name="Path 9697" d="M1139.255,1895.077a11.029,11.029,0,0,1-1.345,13.846l-1.83-1.674a8.558,8.558,0,0,0,1.117-10.772l2.053-1.4Zm6.839-5.637c.025.038,8.989,12.589-2.458,25.112l-1.83-1.674c10.093-11.042,2.277-21.983,2.256-22.017l2.032-1.421Zm-3.4,3.344a14.677,14.677,0,0,1-1.8,18.425l-1.83-1.674a12.2,12.2,0,0,0,1.581-15.338Z" transform="translate(-465.902 256.585)" fill="#fff" fill-rule="evenodd"/>
    <path id="Path_9698" data-name="Path 9698" d="M1091.484,1827.84s6.893,9.891,4.494,15.887-9.739,3.449-10.789-.9S1091.484,1827.84,1091.484,1827.84Z" transform="translate(-436.408 292.214)" fill="#fff" fill-rule="evenodd"/>
  </g>
</svg>
