<svg xmlns="http://www.w3.org/2000/svg" width="108.48" height="108.48" viewBox="0 0 108.48 108.48">
  <g id="Laser_Eye_Surgery" data-name="Laser Eye Surgery" transform="translate(-155 -1938)">
    <g id="Ellipse_336" data-name="Ellipse 336" transform="translate(155 1938)" fill="#fff" stroke="#004747" stroke-width="2">
      <ellipse cx="54.24" cy="54.24" rx="54.24" ry="54.24" stroke="none"/>
      <ellipse cx="54.24" cy="54.24" rx="53.24" ry="53.24" fill="none"/>
    </g>
    <path id="Path_145" data-name="Path 145" d="M29353,42570.6c1.508,2.477,7.1,6.18,10.129,7.7a33.066,33.066,0,0,0,36.848-5.3c.418-.383.7-.687,1.109-1.07.66-.656.82-.664,1.16-1.328-1.691-3.062-10.566-8.594-15.238-9.609.844,2.055,1.605,2.781,1.668,5.82a11.061,11.061,0,1,1-22.121,0c.059-3,.867-3.672,1.66-5.82C29363.57,42561.977,29354.43,42567.727,29353,42570.6Z" transform="translate(-29168.602 -40580.957)" fill="#fefefe" fill-rule="evenodd"/>
    <path id="Path_146" data-name="Path 146" d="M37863.4,42045.656a3.666,3.666,0,1,0,2.328,6.953C37870.289,42051.141,37867.891,42044.02,37863.4,42045.656Z" transform="translate(-37651.824 -40066.871)" fill="#fefefe" fill-rule="evenodd"/>
    <path id="Path_147" data-name="Path 147" d="M27711.02,40786.891c4.5-1.645,6.9,5.477,2.32,6.953A3.665,3.665,0,1,1,27711.02,40786.891Zm-27.176,10.855c1.43-2.879,10.578-8.621,15.211-9.613-.785,2.16-1.594,2.824-1.652,5.82a11.055,11.055,0,1,0,22.109,0c-.051-3.035-.82-3.758-1.656-5.82,4.668,1.023,13.539,6.547,15.23,9.613-.332.672-.5.672-1.156,1.32-.406.4-.691.7-1.113,1.082a33.064,33.064,0,0,1-36.848,5.293C27690.945,40803.934,27685.355,40800.227,27683.844,40797.746Zm-4.852,0a33.262,33.262,0,0,0,5.371,5.73,39.493,39.493,0,0,0,6.477,4.5,36.454,36.454,0,0,0,35.234,0c4.578-2.539,6.156-4.156,9.41-7.367a14.3,14.3,0,0,0,2.434-2.867,31.61,31.61,0,0,0-5.375-5.73c-6.832-5.574-14.367-9.016-24.09-9.027C27696.883,40782.969,27685.164,40789.02,27678.992,40797.746Z" transform="translate(-27499.439 -38808.102)" fill="#004747" fill-rule="evenodd"/>
    <path id="Path_148" data-name="Path 148" d="M36544.684,48030.172a1.035,1.035,0,0,1,1.449,0,1.013,1.013,0,0,1-.012,1.445h-.008v.008h-.016v.016l-.012.008-.008.008-.016.008-.008.016-.02.008-.016.016-.016.023-.027.016,0,.023-.031.016-.023.031-.023.008-.027.031-.027.031-.023.023-.047.031-.012.023-.035.039-.043.023-.035.039-.039.031-.035.039-.043.031-.043.039-.035.039-.047.039-.043.039-.051.039-.043.047-.055.039-.047.039-.051.055-.051.039-.059.039-.055.063-.059.047-.059.039-.059.063-.059.047-.062.055-.062.047-.07.055-.062.047-.066.055-.07.07-.07.047-.07.063-.066.055-.078.07-.074.055-.078.063-.078.055-.07.063-.09.07-.078.063-.082.063-.082.055-.086.078-.082.063-.094.063-.09.07-.082.07-.086.063a1.023,1.023,0,0,1-1.234-1.633l.09-.062.082-.062.078-.055.09-.07.082-.062.078-.062.082-.062.066-.062.086-.062.078-.055.074-.062.078-.055.066-.07.066-.047.078-.07.066-.047.07-.047.066-.062.059-.055.07-.055.066-.047.059-.047.059-.062.055-.055.059-.047.059-.031.051-.055.059-.039.051-.039.051-.062.051-.031.051-.047.039-.047.055-.039.043-.031.051-.039.031-.039.035-.047.051-.031.031-.039.035-.023.035-.039.043-.023.035-.031.023-.023.035-.039.031-.016.02-.039.035-.016.016-.008.023-.031.027-.031.016-.016.023-.023.02-.008.016-.031h.02l0-.008.012-.016.02-.023h0v-.008l.02-.008h.012Zm-31.125,13.273a1.02,1.02,0,1,1,.18-2.031l.051.008.227.008.23.023.223.016.227.023h.23l.219.008.227.023.23.008.223.008h.219l.219.008.219.016h.891l.215-.016.125-.008a1.024,1.024,0,0,1,.055,2.047l-.137.008h-1.4l-.238-.008h-.23l-.234-.016-.238-.008-.238-.008-.246-.023-.234-.008-.238-.008-.238-.031-.242-.016-.238-.016Zm10.453-.531a1.026,1.026,0,0,1-.387-2.016h.047l.2-.047.184-.031.207-.047.2-.039.184-.039.2-.047.188-.039.2-.055.2-.047.2-.047.188-.039.2-.047.184-.062.2-.047.184-.047.191-.047.184-.062.188-.047.2-.062.148-.039a1.017,1.017,0,0,1,1.281.672,1.035,1.035,0,0,1-.687,1.273l-.168.055-.2.055-.2.063-.2.055-.2.047-.2.055-.2.055-.2.055-.2.063-.211.039-.2.055-.211.055-.207.039-.2.047-.211.039-.2.055-.215.055-.207.023-.2.047-.207.039Zm9.941-3.219a1.033,1.033,0,0,1-.867-1.875l.113-.047.16-.078.152-.078.16-.062.152-.07.152-.07.152-.086.156-.078.148-.07.152-.078.145-.078.145-.078.152-.062.152-.078.133-.078.156-.078.133-.078.145-.078.148-.07.137-.086.141-.078.133-.078.148-.078.137-.07.047-.039a1.025,1.025,0,1,1,1.027,1.773l-.07.039-.145.078-.141.086-.145.078-.148.086-.141.07-.156.086-.141.078-.156.086-.141.078-.148.078-.168.078-.141.078-.16.078-.16.078-.156.078-.148.078-.16.086-.164.078-.16.078-.164.07-.16.086-.172.078-.16.078Zm10.73-9.523h0Z" transform="translate(-36307.496 -46034.008)" fill="#00f3bb" fill-rule="evenodd"/>
  </g>
</svg>
