<svg xmlns="http://www.w3.org/2000/svg" width="108.48" height="108.48" viewBox="0 0 108.48 108.48">
  <g id="Lung_" data-name="Lung " transform="translate(-155 -566)">
    <g id="Ellipse_336" data-name="Ellipse 336" transform="translate(155 566)" fill="#fff" stroke="#004747" stroke-width="2">
      <circle cx="54.24" cy="54.24" r="54.24" stroke="none"/>
      <circle cx="54.24" cy="54.24" r="53.24" fill="none"/>
    </g>
    <path id="Path_135" data-name="Path 135" d="M139118.594,4012.675c.188-4.24.031-10.146,2.406-12.78,3.594-3.92,6.953,1.067,8.719,3.339a37.993,37.993,0,0,1,7.891,22.166c.156,4.1-.2,9.973-1.359,13.68-.719,2-1.531,3.753-4.062,3.446-3.187-.378-12.578-6.367-14.156-8.38-2.687-3.628-.312-8.719-.391-12.872l-3.156-.837a42.025,42.025,0,0,0-1.016,8.39c-.234,5.694,2.156,8.661,6.875,11.427,5.234,3.088,13.828,9.879,18.156,2.02,2-3.55,2.7-11.2,2.547-15.8a43.472,43.472,0,0,0-9.844-26.872,12.876,12.876,0,0,0-5.078-4.179,6.3,6.3,0,0,0-6.875,1.4c-3.984,4.034-3.859,8.885-3.984,14.5Zm-13.047,7.8-3.359.787c-.2,7.563,4.094,10.813-4.609,16.2-2.5,1.479-7.3,4.722-10,5.058-2.531.317-3.281-1.491-3.984-3.446-1.172-3.446-1.594-9.724-1.437-13.669a39.29,39.29,0,0,1,7.922-22.162c1.719-2.2,5.234-7.324,8.672-3.345,2.547,2.862,2.266,8.343,2.469,12.758l3.313-1.321c.2-5.031-.391-10.956-3.828-14.405-4.375-4.316-8.781-1.129-12.031,2.559l-3.828,5.375a42.094,42.094,0,0,0-6.125,21.606c-.156,4.688.625,12.4,2.609,15.932,4.188,7.568,12.938,1.031,18.281-2.217a17.427,17.427,0,0,0,5-4.262C139108.234,4030.518,139105.156,4024.08,139105.547,4020.477Z" transform="translate(-138899.313 -3396.343)" fill="#004747" fill-rule="evenodd"/>
    <path id="Path_136" data-name="Path 136" d="M142156.844,2243.2c-.344,1.264,3.047,5.027,3.828,7.335-.781.221-1.344.6-2.141.833-1.781.553-4.172-2.856-5.984-2.586-.219,1.143,1.656,2.217,3.109,3.572-1.672,1.267-5.594,1.417-5.687,2.9,1.031.7,6.25-1.372,7.906-1.713-.562,1.887-3.2,6.573-3.2,7.366.031.452,0,.239.094.492,1.078.807,4.266-6.734,5.719-8.292.531-.593,10.141-3.028,11.3-3.047a55.734,55.734,0,0,1,5.813,1.393c6.781,1.737,4.484-.176,9.563,8.36.516.808.734,1.632,1.7,1.706.594-1.156-2.266-5.462-3.109-7.949,1.641.313,6.875,2.151,7.844,1.847-.062-1.58-2.922-1.712-4.922-2.668-.344-.2.031.044-.344-.256l-.281-.224c.625-.566,1.063-.829,1.75-1.541.719-.667,1.609-.815,1.344-1.908-.906-.271-1.406.384-2.187.836-3.2,2.014-2.922,2.34-5.969.756.688-1.768,4.75-6.994,3.609-7.159l-.312-.056a.5.5,0,0,1-.094.015c-.437.107-.781.739-1.125,1.22l-4.109,5.15c-.594-.157-6.5-2.583-6.687-3.229v-23.336l-4.875-.018v23.355c-.312.674-.812.708-1.531,1.012a42.118,42.118,0,0,1-5.375,2.229,24.655,24.655,0,0,0-2.625-3.556C142158.344,2244.126,142157.969,2243,142156.844,2243.2Z" transform="translate(-141961.109 -1629.931)" fill="#00f3bb" fill-rule="evenodd"/>
  </g>
</svg>
