<svg xmlns="http://www.w3.org/2000/svg" width="108.33" height="108.33" viewBox="0 0 108.33 108.33">
  <g id="Neurosurgery_" data-name="Neurosurgery " transform="translate(-595 -2243)">
    <path id="Path_9677" data-name="Path 9677" d="M1034.665,2285.345a54.161,54.161,0,1,1-38.3-15.865A54,54,0,0,1,1034.665,2285.345Z" transform="translate(-347.2 -26.48)" fill="#004747"/>
    <path id="Exclusion_4" data-name="Exclusion 4" d="M2195.76,65.9a9.184,9.184,0,0,1-3.584-.725,16.389,16.389,0,0,1-3.676-2.167c-.364-.278-.743-.578-1.077-.842l-.15-.119a2.192,2.192,0,0,0-.581-.439c-2.179-.856-5.138-2.356-5.679-5.476a8.156,8.156,0,0,1-.118-1.328,8.332,8.332,0,0,1,.075-1.083,2.378,2.378,0,0,0,.029-.452,4.2,4.2,0,0,0-.016-.451c-.078-.048-.176-.1-.262-.144a1.963,1.963,0,0,1-.282-.164,13.36,13.36,0,0,1-1.412-.886,8.92,8.92,0,0,1-3.073-3.828c-1.139-2.693-.842-4.435-.465-6.642l0-.016c.093-.544.188-1.106.269-1.72a9.426,9.426,0,0,1-3.736-6.084c-.22-2.67,1.2-5.555,2.243-7.661a6.871,6.871,0,0,0,.755-2.879,11.1,11.1,0,0,0-.21-1.742c-.066-.552-.15-1.11-.232-1.65l0-.012q-.059-.391-.116-.783a11.442,11.442,0,0,1,.727-6.06,8.991,8.991,0,0,1,4.155-4.375,8.473,8.473,0,0,1,1.371-.556,2.884,2.884,0,0,0,.5-.168c.136-.052.378-.542.408-.628a7.708,7.708,0,0,1,6.881-4.234h.029c.2.009.418.017.616.017a11.5,11.5,0,0,0,1.264-.067,4.7,4.7,0,0,0,.861-.578A7.347,7.347,0,0,1,2196.3,0a7.534,7.534,0,0,1,2.905.59,16.167,16.167,0,0,1,2.47,1.581,3.013,3.013,0,0,0,.392.291l0-.009c.394-.225.774-.494,1.142-.754s.731-.517,1.114-.738A7.132,7.132,0,0,1,2207.877,0c.24,0,.511.015.784.042a6.332,6.332,0,0,1,3.917,1.66,3.639,3.639,0,0,0,2.336.839,2.961,2.961,0,0,0,.346-.016c.152-.009.3-.013.451-.013a7.7,7.7,0,0,1,6.64,3.812c.066.143.142.288.215.428s.162.31.232.466a.587.587,0,0,1,.109.164c.031.008.055.016.079.024a1.11,1.11,0,0,0,.137.039c.129.051.275.1.431.155l.005,0c.194.067.394.136.576.211a8.385,8.385,0,0,1,4.406,3.786,16.615,16.615,0,0,1,1.417,6.682c0,.242-.012.488-.023.726v.019l-.006.115c-.016.392-.016.8-.016,1.193a29.888,29.888,0,0,0,.481,5.312,41.609,41.609,0,0,1,1.429,5.73c.482,3.862-.67,6.61-3.424,8.17.061.352.131.707.2,1.051l0,.013a21.423,21.423,0,0,1,.364,2.277,9.805,9.805,0,0,1,.075,1.1,8.661,8.661,0,0,1-.813,3.676,9.735,9.735,0,0,1-2.3,3.372,11.3,11.3,0,0,1-2.155,1.451,2.167,2.167,0,0,0-.25.143c-.06.038-.122.077-.2.118-.155,4.92-.633,6.691-5.721,8.833a4.718,4.718,0,0,0-1.363.928c-.141.12-.28.241-.42.362l-.006,0c-.448.388-.911.79-1.4,1.151a9.274,9.274,0,0,1-5.489,1.822,8.734,8.734,0,0,1-.995-.055,8.97,8.97,0,0,1-4.064-1.3,19.67,19.67,0,0,1-1.687-1.193A9.166,9.166,0,0,1,2195.76,65.9Zm-16.266-25.348h0a7.519,7.519,0,0,0-.485,2.643,7.327,7.327,0,0,0,1.88,4.925,5.23,5.23,0,0,0,.574.485,6.579,6.579,0,0,0,1.1.631,5.677,5.677,0,0,1,1.217.731,2.965,2.965,0,0,1,.97,2.2v.147c.038.637.038,1.282.038,1.906a5.662,5.662,0,0,0,.173,1.277,3.261,3.261,0,0,0,1.024,1.409,2.5,2.5,0,0,0,.6.422,15.337,15.337,0,0,0,1.581.67,6.233,6.233,0,0,1,1.839,1.066,15.207,15.207,0,0,0,3.465,2.492,5.342,5.342,0,0,0,2.062.418,5.276,5.276,0,0,0,2.951-.9,5.748,5.748,0,0,0,1.552-1.155,4.872,4.872,0,0,0,.481-2.109c0-.073,0-.148-.008-.221v-.012c0-.073-.008-.148-.008-.223-.118-11.348-.078-22.885-.04-34.041v-.091c.019-5.563.039-11.314.039-16.971-.1-.341-1.029-1.039-1.283-1.206a7.26,7.26,0,0,0-1.682-.94,4.084,4.084,0,0,0-4.11,1.071,5.641,5.641,0,0,1-3.163,1.3c-.381.038-.761.047-1.129.055a9.777,9.777,0,0,0-1.459.1,3.19,3.19,0,0,0-2.089,1.3h0c.088.029.189.056.278.079l.024.006.305.092c.368.11.748.224,1.115.363a7.956,7.956,0,0,1,3.6,2.711,9.887,9.887,0,0,1,1.762,4.28,7.658,7.658,0,0,1,.135,1.429,7.034,7.034,0,0,1-.374,2.285l-.1.383-2.433.127-.177-.443a8.678,8.678,0,0,1-.354-1.885c-.021-.481-.021-.967-.021-1.438a5.106,5.106,0,0,0-1.156-2.972,5.581,5.581,0,0,0-.754-.776,5.767,5.767,0,0,0-3.537-1.219,6.229,6.229,0,0,0-1.176.118,5.512,5.512,0,0,0-4.052,3.339c-.7,1.559-.369,3.844-.1,5.68l0,.029c.06.414.116.8.158,1.168a11.833,11.833,0,0,1,.122,1.64,10.665,10.665,0,0,1-1,4.469c-.241.513-.516,1.014-.781,1.5l0,.008-.006.011c-.1.181-.2.363-.3.545a11.176,11.176,0,0,0-.746,1.77,3.758,3.758,0,0,0-.152,1.08,3.708,3.708,0,0,0,.333,1.564,4.969,4.969,0,0,0,1.143,1.787,7.212,7.212,0,0,0,4.14,1.939,11.587,11.587,0,0,0,1.64.113,12.26,12.26,0,0,0,3.221-.43l1.636,2.888a10.527,10.527,0,0,1-4.317.92l-.189,0-.186,0a17.627,17.627,0,0,1-2.442-.319c-.427-.077-.869-.156-1.314-.217h-.038ZM2203.708,6.08h0c-.194,4.415-.156,8.777-.1,13.229q.015,1.615.033,3.229c.031,2.9.064,5.889.064,8.85,0,2.9.009,5.826.018,8.655v.092c.017,5.642.035,11.477-.018,17.216,0,.379-.02.768-.06,1.189a2.73,2.73,0,0,0,.085.763,1.471,1.471,0,0,0,.24.43,6.676,6.676,0,0,0,4.878,2.146,6.4,6.4,0,0,0,1.5-.177,7.754,7.754,0,0,0,3.614-2.416,7.276,7.276,0,0,1,2.5-1.454,7.049,7.049,0,0,0,1.745-.886c1.224-.889,1.331-2.505,1.265-4.119a2.392,2.392,0,0,1-.017-.35,3.31,3.31,0,0,1,.755-2.1,6.98,6.98,0,0,1,1.88-1.437,7.054,7.054,0,0,0,1.822-1.383,4.366,4.366,0,0,0,1.037-2.534c.051-.528.076-1,.076-1.434a13.444,13.444,0,0,0-.4-3.271h-.544c-.642,0-1.127-.011-1.673-.038-.934-.042-2.879-.131-3.247-1.193a2.868,2.868,0,0,1-.029-.367,1.548,1.548,0,0,1,.51-1.151,1.793,1.793,0,0,1,1.025-.624c.1,0,.225-.009.333-.009a5.734,5.734,0,0,1,1.417.182,5.871,5.871,0,0,0,.661.038,5.978,5.978,0,0,0,2.02-.35,4.14,4.14,0,0,0,2.652-2.163c.793-1.918-.064-4.683-.82-7.123a25.408,25.408,0,0,1-.812-3.017c-.108-1.137-.16-2.149-.16-3.094,0-.329.011-.67.021-1V20.4q0-.128.008-.255l.006-.122c.1-2.031.208-4.333-.706-6.146-.11-.183-.237-.38-.4-.62a4.834,4.834,0,0,0-2.829-1.99,6.452,6.452,0,0,0-3.524.08,5.468,5.468,0,0,0,.543.624A3.9,3.9,0,0,1,2220.4,14.1v.021a1.949,1.949,0,0,1-.405,1.168l-.076.05-.021.042a1.666,1.666,0,0,1-1.2.506,1.734,1.734,0,0,1-.438-.054,2.142,2.142,0,0,1-1-.912c-.05-.07-.1-.14-.152-.21a6.253,6.253,0,0,0-3.145-2.615,7.37,7.37,0,0,0-.8-.239,2.442,2.442,0,0,1-1.713-1.055l-.021-.055-.038-.063a1.773,1.773,0,0,1-.156-.708,1.526,1.526,0,0,1,1.493-1.522h.105a3.412,3.412,0,0,1,1.281.248c.168.059.415.148.641.236a3.506,3.506,0,0,0,.443.127,1.19,1.19,0,0,0,.211.021,1.105,1.105,0,0,0,.438-.088,2.93,2.93,0,0,0,.482-.248c.108-.05.2-.1.3-.147a4.39,4.39,0,0,1,.442-.208,10.274,10.274,0,0,1,1.594-.434,3.3,3.3,0,0,0-2.272-1.337,11.611,11.611,0,0,0-1.368-.067c-.363,0-.737-.007-1.1-.039a5.431,5.431,0,0,1-2.981-1.113,5.689,5.689,0,0,0-3.22-1.515c-1,0-1.849.622-3.02,1.484l-.008.006c-.31.228-.631.464-.991.716Z" transform="translate(-1552.801 2261.045)" fill="#fefefe"/>
    <path id="Path_131" data-name="Path 131" d="M1093.418,2362.882l-.274.932a10.365,10.365,0,0,1-.632,1.72,8.765,8.765,0,0,1-4.444,3.972c-1.185.489-3.327.965-4.317-.249a1.968,1.968,0,0,1-.32-1.092,2.128,2.128,0,0,1,.122-.691l.038-.261.274-.118a4.725,4.725,0,0,1,1.438-.451c.388-.051.759-.059,1.13-.084a3.475,3.475,0,0,0,2.471-1.315c.915-1.008,1.948-3.609,1.492-4.971-.1-.236-.409-.594-.506-.814a6.308,6.308,0,0,1-.78-1.357,22.566,22.566,0,0,1-.784-2.15,4.172,4.172,0,0,0-.615-1.349,4.054,4.054,0,0,0-2.2-1.45,2.489,2.489,0,0,1-1.1-.573c-.038-.063-.038-.126-.1-.189-.076-.089-.177-.186-.232-.262l-.232-.215.021-.308a2,2,0,0,1,1.041-1.577,3.226,3.226,0,0,1,.949-.147,3.066,3.066,0,0,1,1.716.519,9,9,0,0,1,1.821,1.21,6.257,6.257,0,0,1,1.611,2.365c.544,1.155.818,2.407,1.4,3.529a5.616,5.616,0,0,0,2.846,2.681,5.24,5.24,0,0,0,.873.228c.409.084.856.152,1.265.228.915.165,2.665.426,2.977,1.455a2.214,2.214,0,0,1,.034.375,1.4,1.4,0,0,1-.422,1c-.995,1.079-2.977.641-4.166.3a17.4,17.4,0,0,1-2.4-.89h0Z" transform="translate(-428.885 -72.982)" fill="#fefefe" fill-rule="evenodd"/>
    <path id="Path_132" data-name="Path 132" d="M1082.959,2407.907a1.719,1.719,0,0,1-.219-.839,1.68,1.68,0,0,1,.316-.991c.586-.6,1.594-.375,2.277-.1a8.577,8.577,0,0,1,2.618,1.813,10.149,10.149,0,0,1,3.04,7.243c0,.228-.017.455-.03.687-.059.915-.468,2.062-1.556,2.091a1.712,1.712,0,0,1-1.636-1.341c-.021-.223-.1-.464-.135-.7-.021-.527,0-1.046-.021-1.573-.008,0-.008,0-.008-.009a4.3,4.3,0,0,0-.346-1.674,7.526,7.526,0,0,0-2.289-2.9c-.388-.325-.78-.615-1.185-.915a2.977,2.977,0,0,1-.818-.805h0Z" transform="translate(-428.486 -105.266)" fill="#fefefe" fill-rule="evenodd"/>
    <path id="Path_134" data-name="Path 134" d="M1027.725,2388.782c.856.691,2.454,1.821,3.638,1.307a1.542,1.542,0,0,0,.468-.354,1.589,1.589,0,0,0,.481-1.155v-.105c-.118-.729-.915-1.2-1.535-1.564a11.143,11.143,0,0,1-2.155-1.632c-1.594-1.619-3.229-6.476-1.535-8.036a2,2,0,0,1,.725-.4,16.6,16.6,0,0,0,2.424-1.269,8.777,8.777,0,0,1,1.838-.932,3.06,3.06,0,0,1,.873-.126,2.945,2.945,0,0,1,.949.152c.721.215,1.438.708,2.218.5a1.478,1.478,0,0,0,.974-.911,1.654,1.654,0,0,0,.181-.763v-.063c-.177-1.37-1.965-1.944-3.111-2.079-.261-.025-.531-.038-.8-.038a8.439,8.439,0,0,0-4.667,1.408c-1.868,1.218-3.984,2.116-6.206,1.307a12.057,12.057,0,0,1-1.927-1,3.8,3.8,0,0,0-1.914-.649,1.874,1.874,0,0,0-.721.165l-.1.063-.1.105a1.687,1.687,0,0,0-.468,1.164v.114c.135,1.51,2.412,2.424,3.66,2.833a14.018,14.018,0,0,0,2.711.675c-.333,4.587-.3,7.859,4.1,11.282Z" transform="translate(-390.614 -85.377)" fill="#fefefe" fill-rule="evenodd"/>
    <path id="Path_9678" data-name="Path 9678" d="M1040.53,2418.93l-4.76,4.781,7.13,7.577-.826,5.835c6.729,8.319,17.91,14.263,28.834,11.771l-30.382-29.96Z" transform="translate(-401.319 -112.919)" fill="#fff"/>
    <path id="Path_9679" data-name="Path 9679" d="M1053.038,2436.75l20,19.921c-7.26-.717-14.55-4.553-18.479-10.418l.919-4.339-3.719-3.883Z" transform="translate(-410.568 -123.226)" fill="#004747" fill-rule="evenodd"/>
    <path id="Path_9680" data-name="Path 9680" d="M1028.962,2487.8h3.065v-2.146h-3.065Zm-6.742,0h3.369v-2.146h-3.369Zm19.605,0h3.369v-2.146h-3.369Zm-6.434,0h3.369v-2.146h-3.369Z" transform="translate(-393.482 -151.509)" fill="#fefefe" fill-rule="evenodd"/>
  </g>
</svg>
