<svg xmlns="http://www.w3.org/2000/svg" width="108.482" height="108.482" viewBox="0 0 108.482 108.482">
  <g id="Nuclear_Medicine_And_Molecular_Imaging" data-name="Nuclear Medicine And Molecular Imaging" transform="translate(-718 -566)">
    <path id="Path_9505" data-name="Path 9505" d="M410.935,1186.231a5.413,5.413,0,0,1-3.811-1.467c-1.906-1.615-4.984-7.623-4.984-9.528a22.261,22.261,0,0,0,4.4-1.467,12.848,12.848,0,0,0,2.2-.734c.586-.3,1.467-.586,2.2-.881.586-.3.438-.3,1.029-.148a6.821,6.821,0,0,0,1.025.438,36.84,36.84,0,0,0,6.746,2.348c0,1.758-2.787,6.746-4.107,8.5-1.025,1.172-2.934,2.934-4.693,2.934Zm.3-23.754a7.133,7.133,0,0,0,4.983-12.172c-5.717-5.279-14.369.881-11.291,7.918a6.815,6.815,0,0,0,6.3,4.254Zm23.459,10.41c-.438-1.615-4.84-2.787-6.6.438-1.467,0-3.078-.586-4.4-.586a15,15,0,0,1,.438-2.2,36.189,36.189,0,0,0,1.172-6.746,9.356,9.356,0,0,0,1.906-1.467c.734-.438,1.32-1.029,2.053-1.467l3.664-3.373a55.719,55.719,0,0,1,3.668,4.545c1.467,2.492,3.521,6.746.881,9.238a5.855,5.855,0,0,1-2.787,1.615Zm-13.93-1.024c-.586,0-5.131-1.32-5.574-1.906a6.546,6.546,0,0,0,1.758-.881l4.983-2.93a44.483,44.483,0,0,1-1.172,5.717ZM400.082,1166c.586,0,1.172.586,1.758,1.025,1.32.586,4.693,2.639,5.717,2.934l-3.078,1.32a26.424,26.424,0,0,1-3.225,1.025,18.987,18.987,0,0,1-.586-3.078C400.521,1168.637,400.23,1166.436,400.082,1166Zm-12.758-5.131a16.894,16.894,0,0,1,1.615-2.348l.734-.734,6.3,5.131c1.172,1.025.881.734,1.025,2.787a50.12,50.12,0,0,0,1.172,6.451c.148,1.025.586.881-2.2,1.32-3.225.438-9.09.734-11-2.053-1.025-1.467-.881-1.906-.881-3.811,0-.881,1.172-.3,2.492-1.32a4.021,4.021,0,0,0,.881-4.84c-.148-.586-.148,0-.148-.586Zm24.049,7.623a66.531,66.531,0,0,1-6.451-3.225c-1.025-.734-1.906-1.172-2.934-1.906-2.934-1.906-2.344-.3-2.344-8.5,0-1.906.3-3.373.3-4.984s.438-1.32,2.492-2.787c1.172-.586,2.2-1.32,3.373-1.906,1.172-.734,2.2-1.32,3.373-1.906,2.787-1.32,1.172-1.32,7.037,1.467a10.27,10.27,0,0,1,1.615,1.025l4.984,3.078c0,.881.148,1.172.148,2.2v4.107c0,.881,0,6.451-.586,7.037l-2.934,1.906C418.558,1164.678,412.107,1168.489,411.373,1168.489Zm-14.811-8.8-3.668-2.934a7.283,7.283,0,0,1-1.025-1.172c.3-.438.734-.734,1.025-1.172l2.492-2.053a4.008,4.008,0,0,1,1.32-1.024c0,1.615-.148,2.639-.148,4.106v4.254Zm29.328-8.5a6.857,6.857,0,0,1,1.32.881,24.936,24.936,0,0,1,3.52,3.225c-.3.438-4.254,4.106-4.983,4.254.148-.881.438-7.623.148-8.356Zm-6.16-12.315a5.329,5.329,0,0,0,1.615-.438,6.245,6.245,0,0,0,.3,1.615l.881,4.84-7.623-4.254,4.84-1.758Zm-19.061,5.717a44.478,44.478,0,0,1,1.172-5.717l4.254,1.32a3.483,3.483,0,0,0,1.32.438c-.291.438-2.787,1.615-3.373,2.053Zm-16.86-2.053c0-6.012,9.385-5.426,13.635-4.693a4.317,4.317,0,0,0,1.467.3,15.229,15.229,0,0,1-.586,2.492,20.421,20.421,0,0,1-.586,2.492c-.586,3.959,0,3.521-1.467,4.693l-6.6,5.574-2.053-2.2C386,1148.985,383.808,1145.612,383.808,1142.535Zm40.471-4.84a12.8,12.8,0,0,0,2.492-.438c1.758-.148,2.787-.148,4.545-.148,3.521,0,7.184,1.467,7.184,4.84v.586c0,3.078-4.107,9.385-5.574,10.41-.734-.148-1.025-.881-1.615-1.467-.438-.3-.438-.3-.881-.586-5.131-4.693-4.4-2.2-4.84-5.717l-.881-4.983a17.8,17.8,0,0,1-.439-2.492Zm-20.09-5.426a34.722,34.722,0,0,1,1.758-3.225c2.2-3.078,4.545-5.717,8.5-3.668-.148,1.025-.438,1.025-.148,2.2.439,2.2,2.053,3.225,4.4,3.225.438,1.025,1.758,3.959,1.758,4.84a48.112,48.112,0,0,0-6.893,2.344c-2.2.881-2.053,1.172-3.225.734l-7.623-2.787,1.467-3.668Zm19.209,2.492a24.877,24.877,0,0,0-1.32-3.959c-1.467-2.934,0-1.172,0-3.811a4.006,4.006,0,0,0-1.758-3.521.758.758,0,0,1-.586-.3c-2.053-.734-2.639.3-3.373-.148a8.6,8.6,0,0,0-1.32-.734c-3.373-1.467-6.6-.438-9.238,2.053a25.034,25.034,0,0,0-5.426,9.385c-.148.438-.439,1.025-.586,1.467l-2.639-.438a31.077,31.077,0,0,0-8.213-.147,9.435,9.435,0,0,0-6.16,2.934,7.936,7.936,0,0,0-1.906,6.746c.586,3.225,3.078,7.332,5.279,9.676l1.32,1.615c-.3.586-.3.438-.734.881l-2.053,2.787c-1.615,0-2.344.147-3.225.881a3.824,3.824,0,0,0-1.32,2.639c0,2.787,1.025,2.787,1.172,3.373,0,0-2.053,7.918,5.865,9.971a15.391,15.391,0,0,0,5.865.586c1.172-.148,4.983-.3,6.012-.734.3.734.586,1.615.881,2.348,1.467,3.811,2.934,6.893,6.16,9.385a8.428,8.428,0,0,0,4.545,1.615c3.52,0,6.16-2.639,7.918-5.131a18.583,18.583,0,0,0,2.344-4.107c1.025-1.906,1.467-3.668,1.906-4.545a22.341,22.341,0,0,0,4.984.734,3.78,3.78,0,0,0,3.373,2.787h.881a3.741,3.741,0,0,0,3.373-3.225,8.713,8.713,0,0,0,5.717-4.4c1.615-3.52-.148-8.066-2.053-10.852l-2.344-3.521c-.438-.438-1.615-1.615-1.615-1.906,0,0,9.676-10.266,5.426-16.86-3.225-4.84-10.119-4.693-15.545-3.811a5.248,5.248,0,0,1-1.615.3Z" transform="translate(361.787 -535.229)" fill="#004747" fill-rule="evenodd"/>
    <g id="Group_10256" data-name="Group 10256">
      <path id="Path_9506" data-name="Path 9506" d="M462.87,1122.96a4.57,4.57,0,1,0,4.57,4.57A4.571,4.571,0,0,0,462.87,1122.96Z" transform="translate(316.58 -536.006)" fill="#00f3bb" fill-rule="evenodd"/>
      <path id="Path_9507" data-name="Path 9507" d="M496.31,1236.95a4.57,4.57,0,1,0,4.57,4.57A4.571,4.571,0,0,0,496.31,1236.95Z" transform="translate(297.239 -601.936)" fill="#00f3bb" fill-rule="evenodd"/>
      <path id="Path_9508" data-name="Path 9508" d="M382.32,1209.41a4.57,4.57,0,1,0,4.57,4.57A4.571,4.571,0,0,0,382.32,1209.41Z" transform="translate(363.169 -586.007)" fill="#00f3bb" fill-rule="evenodd"/>
      <path id="Path_9509" data-name="Path 9509" d="M442.374,1183.14a7.914,7.914,0,1,0,7.914,7.914A7.912,7.912,0,0,0,442.374,1183.14Z" transform="translate(330.369 -570.813)" fill="#00f3bb" fill-rule="evenodd"/>
    </g>
    <path id="Path_9510" data-name="Path 9510" d="M377.631,1075.752a51.572,51.572,0,1,0,20.141,4.064,51.394,51.394,0,0,0-20.141-4.064Zm0-2.492A54.241,54.241,0,1,1,323.39,1127.5,54.242,54.242,0,0,1,377.631,1073.26Z" transform="translate(394.61 -507.26)" fill="#004747"/>
  </g>
</svg>
