<svg xmlns="http://www.w3.org/2000/svg" width="108.482" height="108.482" viewBox="0 0 108.482 108.482">
  <g id="Nutritionist" transform="translate(-1304 -410)">
    <path id="Path_9511" data-name="Path 9511" d="M2410.031,1075.752a51.573,51.573,0,1,0,20.141,4.064,51.4,51.4,0,0,0-20.141-4.064Zm0-2.492a54.241,54.241,0,1,1-54.241,54.241A54.242,54.242,0,0,1,2410.031,1073.26Z" transform="translate(-1051.79 -663.26)" fill="#004747"/>
    <path id="Path_9512" data-name="Path 9512" d="M2442.959,1141.5c0-5.114-.342-7.5,1.931-10.684a10.425,10.425,0,0,1,8.3-4.2l-.114-3.411a13.075,13.075,0,0,0-7.956,2.728,11.944,11.944,0,0,0-2.728,2.614,13.142,13.142,0,0,0-1.931,3.411c-1.665-2.808-5.726-4.343-11.481-3.069-.573,2.437-1.556,5.831.683,8.753a11.068,11.068,0,0,0-9.545,5.114c-2.386,3.639-2.956,8.07-2.956,13.184h-4.545c-2.614,0-5.456,2.728-5.456,5.8v10.8a9.152,9.152,0,0,0,9.094,8.867h31.938c4.886,0,9.094-3.866,11.48-7.728.342-.569.683-1.138,1.024-1.7a21.722,21.722,0,0,0,1.817-3.639c3.069-7.614,4.545-18.526-.228-25.685a11.176,11.176,0,0,0-3.752-3.525,13.357,13.357,0,0,0-11.932-.228c-2.614,1.252-2.842,2.159-3.638,2.614Z" transform="translate(-1081.502 -692.145)" fill="#004747" fill-rule="evenodd"/>
    <path id="Path_9513" data-name="Path 9513" d="M2415.24,1211.29c0,3.419,4.418,2.614,8.07,2.614l-1.134-5.114c-2.192,0-6.931-.843-6.931,2.5Z" transform="translate(-1086.175 -741.593)" fill="#fff" fill-rule="evenodd"/>
    <path id="Path_9514" data-name="Path 9514" d="M2429.793,1231.656a33.986,33.986,0,0,1,3.411,0v6.818h3.411v-5.114h3.411c0,6.312-.982,5.114,3.525,5.114v-6.818a33.986,33.986,0,0,1,3.411,0v6.818h3.411v-10.115c-9.309,0-26.815.814-35.121-.569,0,6.822-.51,10.684,7.728,10.684v-5.114h3.411v5.114h3.411v-6.818Z" transform="translate(-1086.178 -752.638)" fill="#fff" fill-rule="evenodd"/>
    <path id="Path_9515" data-name="Path 9515" d="M2467.5,1202.344c11.017,0,20.495-36.824,3.524-36.824-12.817,0-9.659,14.095-9.659,23.412h6.139v13.412Zm-28.527-23.412c0,13.551,2.155,10,18.981,10,0-10.157,3.107-23.412-9.887-23.412C2441.209,1165.52,2438.97,1172.89,2438.97,1178.932Zm25.912,6.366h3.411v-5.114h-3.411Zm-13.639,0h3.411v-5.114h-3.411Z" transform="translate(-1099.9 -716.622)" fill="#00f3bb" fill-rule="evenodd"/>
    <path id="Path_9516" data-name="Path 9516" d="M2465.65,1143.5c0,5.034,2.7,7.5,7.614,7.5C2473.264,1144.1,2467.176,1142.914,2465.65,1143.5Z" transform="translate(-1115.331 -703.81)" fill="#85ecbc" fill-rule="evenodd"/>
  </g>
</svg>
