<svg xmlns="http://www.w3.org/2000/svg" width="108.33" height="108.33" viewBox="0 0 108.33 108.33">
  <g id="Oncology_Surgeries" data-name="Oncology Surgeries" transform="translate(-1304 -2081)">
    <path id="Path_9630" data-name="Path 9630" d="M3435.468,2295.205a51.677,51.677,0,1,0-15.136,36.537A51.511,51.511,0,0,0,3435.468,2295.205Zm-13.374-38.3a54.161,54.161,0,1,1-38.3-15.865A54,54,0,0,1,3422.094,2256.905Z" transform="translate(-2025.63 -160.04)" fill="#004747"/>
    <path id="Path_9631" data-name="Path 9631" d="M3402.269,2305.525c-2.226-1.471-5.152-9.883-7.416-6.455-.308.464,6.78,18.96-6.173,12.606-2.15-1.054-5.881-3.55-6.628-1.079-.582,1.918,17.628,13.534-2.31,14.677-4.6.265-2.816,2.694-2.357,3,.114.076,5.422.776,8.647,2.707H3445.2c.464-.666-.856-1.442-5.549-2.412-17.514-3.63,4.73-12.889.911-15.414-1.72-1.134-19.761,8.993-11.223-9.111,1.754-3.719-.282-5.207-2.964-2.15-13.471,15.36-11.346-5.591-12.923-6.632-4.111-2.715-2.074,16.274-11.181,10.258Z" transform="translate(-2052.832 -191.247)" fill="#fff"/>
    <path id="Path_9632" data-name="Path 9632" d="M3392.761,2291.1c9.179,14.508,6.813-13.391,14.647-8.217,3.794,2.5-1.21,22.683,11.978,7.644,4.3-4.9,9.031-1.741,6.189,4.284-9.832,20.849,20.625-.337,12.37,12.164-3.79,5.738-15.313,9.735-2.213,12.455,6.556,1.362,8.445,2.816,7.939,4.182h-72.539c-1.218-.325-2.656-.641-4.343-.949-3.537-.649-4.621-6.51,2.3-6.91,19.689-1.13-.477-10.195.97-14.963,2.947-9.735,20.373,13.892,14.849-8.694-1.956-8.006,3.027-8.6,7.846-.991Z" transform="translate(-2045.512 -183.864)" fill="#004747"/>
    <path id="Path_9633" data-name="Path 9633" d="M3394.586,2310.278c-1.6-1.054-3.141-4.216-4.494-6,7.184,27.667-18.994,3.736-11.451,11.637,10.7,11.211.666,13.314-13.741,18.762,5.321,1.037,15.7-.464,17.228,1.1,3.668,0,33.641.122,47.4-.185,3.967-.089,8.377-.363,8.42-.557.379-1.834-24.618,2.074-6.232-16.7-20.317,8.546-10.186-12.687-10.173-12.737-3.613,2.934-13.311,16.009-15.722-3.419a6.233,6.233,0,0,1-.021-1.269c-1.379,3.833-2.69,14.989-11.215,9.364Z" transform="translate(-2046.029 -194.668)" fill="#fff"/>
    <path id="Path_9634" data-name="Path 9634" d="M3427.237,2347.8c12.244,8.082,11.805-16.7.548-9.545A5.81,5.81,0,0,0,3427.237,2347.8Zm-8.044,1.758a2.007,2.007,0,1,0,2.783-.573,2,2,0,0,0-2.783.573Zm22.615-9.145a2.007,2.007,0,1,0,2.783-.569,2.005,2.005,0,0,0-2.783.569Zm-3.221,8.289a2.007,2.007,0,1,0,2.783-.573,2.006,2.006,0,0,0-2.783.573Z" transform="translate(-2077.239 -215.508)" fill="#00f3bb" fill-rule="evenodd"/>
    <path id="Path_9635" data-name="Path 9635" d="M3427.96,2390.49l-4.76,4.781,7.13,7.577-.827,5.835c6.729,8.319,17.91,14.263,28.834,11.771l-30.382-29.96Z" transform="translate(-2079.75 -246.479)" fill="#004747"/>
    <path id="Path_9636" data-name="Path 9636" d="M3440.477,2408.31l20,19.921c-7.26-.717-14.55-4.553-18.479-10.418l.919-4.339-3.719-3.883,1.277-1.282Z" transform="translate(-2089.003 -256.786)" fill="#00f3bb"/>
    <path id="Path_9637" data-name="Path 9637" d="M3416.392,2459.356h3.065v-2.146h-3.065Zm-6.742,0h3.369v-2.146h-3.369Zm19.6,0h3.369v-2.146h-3.369Zm-6.434,0h3.369v-2.146h-3.369Z" transform="translate(-2071.912 -285.069)" fill="#004747"/>
  </g>
</svg>
