<svg xmlns="http://www.w3.org/2000/svg" width="108.482" height="108.482" viewBox="0 0 108.482 108.482">
  <g id="Organ_Transplantation" data-name="Organ Transplantation" transform="translate(-1190 -1625)">
    <path id="Path_9453" data-name="Path 9453" d="M3110.371,1073.26a54.241,54.241,0,1,1-54.241,54.241A54.242,54.242,0,0,1,3110.371,1073.26Z" transform="translate(-1866.13 551.74)" fill="#004747"/>
    <path id="Path_9714" data-name="Path 9714" d="M3165.654,1169.373v17.573a.723.723,0,0,1-.721.721l-1.788,0a.837.837,0,0,1-1.121-.9V1169a.723.723,0,0,1,.721-.721,20.9,20.9,0,0,1,2.117,0c.712.08.792.514.792,1.092Zm-18.707,14.36h8.192v2.146l6.379-3.681-6.379-3.681v2.146h-8.192v3.073Zm5.586-9.495H3139.32v-2.854l-8.479,4.9,8.479,4.895v-2.85h13.213Zm-39.5,12.526v-17.758a.723.723,0,0,1,.721-.721h2.184a.723.723,0,0,1,.721.721v17.758a.838.838,0,0,1-1.122.9c-.746,0-2.509.358-2.509-.9Zm27.4-29.129Zm-5.7-12.514c.67-1.223,2.15-2.041,2.589-3.213-3.466-.4-1.547-3.373-.641-5.595a18.341,18.341,0,0,1,.9-1.88,7.529,7.529,0,0,0,.523-1.041c.219-.624-.232-1.29-.552-1.809a8.793,8.793,0,0,0-14.82-.864c-1.265,1.859-1.341,3.457-2.319,5.388-.223.392-.784,1.509-1.121,2.31,1.227.291,1.391,1.227,1.391,2.719,0,1.6-.375,4.06,1.645,4.583.354.093,1.138.013,1.581.059a1.667,1.667,0,0,1,1.69,1.733v5.371c0,1.623-2.272,3.234-3.626,3.849a25.491,25.491,0,0,1-5.8,1.442,8.13,8.13,0,0,0-3.887,1.383c-3.385,2.538-3.082,4.9-3.082,8.8,0,2.041.025,4.085.034,6.13,0,1.189.008,2.378,0,3.563,0,.628.021,1.37-.038,2-.03,1.374-1.657.953-2.6.953a.837.837,0,0,1-1.122-.9v-14.112a10.458,10.458,0,0,1,3.508-8.453c3.613-3.343,5.7-2.319,9.836-3.617,3.79-1.193,3.225-1.286,3.145-4.57a6.46,6.46,0,0,1-3.36-1.716c-1.48-1.665-1.564-3.664-1.564-5.721-1.024-.093-2.112-.443-2.218-1.623a6.6,6.6,0,0,1,.919-2.833c.919-1.986,1.737-4.022,2.534-6.063a12.356,12.356,0,0,1,10.456-7.922,11.976,11.976,0,0,1,8.791,2.589,14.681,14.681,0,0,1,2.133,2.209c.093.118.266.354.443.59a12.2,12.2,0,0,1,9.212-5.388,12.415,12.415,0,0,1,11.046,4.983,13.621,13.621,0,0,1-1.311,17.767c-.927,1.063-2.041,2.239-2.041,3.744,0,2.214-.569,2.226,1.535,3.373,2.6,1.417,5.9.852,8.622,2.264a10.3,10.3,0,0,1,6.05,9.482v15.022a.838.838,0,0,1-1.122.9c-1.712,0-2.508.557-2.508-1.72v-11.017c0-3.575.265-6.624-3.053-8.871-1.716-1.164-3.887-1.244-5.865-1.581a10.032,10.032,0,0,1-6.758-3.744,3.925,3.925,0,0,1-.62-2.829c0-4.878,1.632-5.363,4.246-8.812a10.229,10.229,0,0,0,1.522-8.643,8.945,8.945,0,0,0-17.206-.329,13.206,13.206,0,0,1-.776,2.1c-.27.519-1.024,1.906-1.413,2.821a1.885,1.885,0,0,1,.755.354c2.066,1.552-1.206,7.121,3.2,7.049,1.223-.021,2.462.346,2.462,1.817v5.283c0,1.766-2.639,3.314-4.052,4.018-2.943,1.366-6.978.835-9.444,2.66a7.488,7.488,0,0,0-2.787,4.17,8.88,8.88,0,0,1,1.459-.392,8.082,8.082,0,0,1,4.752.632,14.213,14.213,0,0,1,1.733,1.155l.009-.009a.2.2,0,0,1,.034-.029,8.6,8.6,0,0,1,8.5-1.231c3.9,1.522,5.451,5.274,5.451,9.242a.723.723,0,0,1-.721.721c-.729,0-1.455-.093-2.184-.093a.723.723,0,0,1-.721-.721c0-2.361-.805-4.878-3.187-5.8a5.19,5.19,0,0,0-5.422,1.223c-2.129,2.074-2.6.422-4.359-.734a4.744,4.744,0,0,0-6.227.729c-2.121,2.289-1.7,5.595-.384,8.171a14.522,14.522,0,0,0,5.215,5.279c.645.422,3.411,2.049,4.069,2.066a14.481,14.481,0,0,0,2.951-1.488,26.952,26.952,0,0,1,2.825-1.682.694.694,0,0,1,.578.131,4.489,4.489,0,0,1,1.526,1.99.7.7,0,0,1-.072.611c-.755,1.21-6.556,4.166-7.99,4.166-.759,0-4.225-1.771-5.026-2.294a29.83,29.83,0,0,1-2.517-1.695c-.139-.1-.3-.232-.48-.367v9.482c0,1.012.207,1.632-1.088,1.632-1.265,0-2.542.506-2.542-1.176q0-5.686.013-11.371c.009-4.149-.114-1.476-1.429-5.262-1.155-3.322-1.05-7.4,1.223-10.262.168-.19.232-.27.215-.5a5.852,5.852,0,0,1-.013-1.514,10.91,10.91,0,0,1,6.535-8.845c.443-.186,1-.413,1.568-.586-1.29-1.353-1.189-2.605-1.189-4.756a8.521,8.521,0,0,1,1.843-5.034Zm3.491,1.353a8.063,8.063,0,0,0-.793,1.155,6.79,6.79,0,0,0-.911,2.981c0,1.577-.3,1.594,1.113,2.479,1.623.957,1.838,1.012,3.478.16.363-.19,1.2-.586,1.3-1.041a20.087,20.087,0,0,0-.051-2.6c0-.114.009-.219.017-.325-.346-.08-.7-.152-1.059-.261a6.059,6.059,0,0,1-3.094-2.547Z" transform="translate(-1894.679 522.723)" fill="#fff" fill-rule="evenodd"/>
  </g>
</svg>
