<svg xmlns="http://www.w3.org/2000/svg" width="108.48" height="108.48" viewBox="0 0 108.48 108.48">
  <g id="Orthopedics" transform="translate(-155 -1023)">
    <g id="Path_8619" data-name="Path 8619" transform="translate(155 1023)" fill="#fff">
      <path d="M 54.239990234375 107.4799728393555 C 47.05220413208008 107.4799728393555 40.07994842529297 106.0724639892578 33.51689147949219 103.296516418457 C 27.17723274230957 100.6150741577148 21.48343276977539 96.77613067626953 16.5936336517334 91.88634490966797 C 11.70384693145752 86.99654388427734 7.864904403686523 81.30274963378906 5.183461666107178 74.96308898925781 C 2.407518863677979 68.40003204345703 1.000004529953003 61.42777633666992 1.000004529953003 54.239990234375 C 1.000004529953003 47.05220413208008 2.407518863677979 40.07994842529297 5.183461666107178 33.51689147949219 C 7.864904403686523 27.17723274230957 11.70384693145752 21.48343276977539 16.5936336517334 16.5936336517334 C 21.48343276977539 11.70384693145752 27.17723274230957 7.864904403686523 33.51689147949219 5.183461666107178 C 40.07994842529297 2.407518863677979 47.05220413208008 1.000004529953003 54.239990234375 1.000004529953003 C 61.42777633666992 1.000004529953003 68.40003204345703 2.407518863677979 74.96308898925781 5.183461666107178 C 81.30274963378906 7.864904403686523 86.99654388427734 11.70384693145752 91.88634490966797 16.5936336517334 C 96.77613067626953 21.48343276977539 100.6150741577148 27.17723274230957 103.296516418457 33.51689147949219 C 106.0724639892578 40.07994842529297 107.4799728393555 47.05220413208008 107.4799728393555 54.239990234375 C 107.4799728393555 61.42777633666992 106.0724639892578 68.40003204345703 103.296516418457 74.96308898925781 C 100.6150741577148 81.30274963378906 96.77613067626953 86.99654388427734 91.88634490966797 91.88634490966797 C 86.99654388427734 96.77613067626953 81.30274963378906 100.6150741577148 74.96308898925781 103.296516418457 C 68.40003204345703 106.0724639892578 61.42777633666992 107.4799728393555 54.239990234375 107.4799728393555 Z" stroke="none"/>
      <path d="M 54.239990234375 2.000007629394531 C 47.18675994873047 2.000007629394531 40.34555816650391 3.380943298339844 33.90643310546875 6.104469299316406 C 27.68597412109375 8.735496520996094 22.09902191162109 12.50246429443359 17.30074310302734 17.30074310302734 C 12.50246429443359 22.09902191162109 8.735496520996094 27.68597412109375 6.104469299316406 33.90643310546875 C 3.380943298339844 40.34555816650391 2.000007629394531 47.18675994873047 2.000007629394531 54.239990234375 C 2.000007629394531 61.29322052001953 3.380943298339844 68.13442230224609 6.104469299316406 74.57354736328125 C 8.735496520996094 80.79400634765625 12.50246429443359 86.38095855712891 17.30074310302734 91.17923736572266 C 22.09902191162109 95.97751617431641 27.68597412109375 99.74448394775391 33.90643310546875 102.3755111694336 C 40.34555816650391 105.0990371704102 47.18675994873047 106.4799728393555 54.239990234375 106.4799728393555 C 61.29322052001953 106.4799728393555 68.13442230224609 105.0990371704102 74.57354736328125 102.3755111694336 C 80.79400634765625 99.74448394775391 86.38095855712891 95.97751617431641 91.17923736572266 91.17923736572266 C 95.97751617431641 86.38095855712891 99.74448394775391 80.79400634765625 102.3755111694336 74.57354736328125 C 105.0990371704102 68.13442230224609 106.4799728393555 61.29322052001953 106.4799728393555 54.239990234375 C 106.4799728393555 47.18675994873047 105.0990371704102 40.34555816650391 102.3755111694336 33.90643310546875 C 99.74448394775391 27.68597412109375 95.97751617431641 22.09902191162109 91.17923736572266 17.30074310302734 C 86.38095855712891 12.50246429443359 80.79400634765625 8.735496520996094 74.57354736328125 6.104469299316406 C 68.13442230224609 3.380943298339844 61.29322052001953 2.000007629394531 54.239990234375 2.000007629394531 M 54.239990234375 7.62939453125e-06 C 84.19591522216797 7.62939453125e-06 108.4799728393555 24.28406524658203 108.4799728393555 54.239990234375 C 108.4799728393555 84.19591522216797 84.19591522216797 108.4799728393555 54.239990234375 108.4799728393555 C 24.28406524658203 108.4799728393555 7.62939453125e-06 84.19591522216797 7.62939453125e-06 54.239990234375 C 7.62939453125e-06 24.28406524658203 24.28406524658203 7.62939453125e-06 54.239990234375 7.62939453125e-06 Z" stroke="none" fill="#004747"/>
    </g>
    <path id="Path_117" data-name="Path 117" d="M82172,6068.583c3.641,0,17.336,1.638,20.6,2.8,3.289,1.176,3.836,3.142,6.227,5.417a4.441,4.441,0,0,0,7.219-1.6,6.534,6.534,0,0,0-.234-4.922c-2.156-4.541-6.891-4.4-12.273-4.98-4.4-.479-17.648-2.077-21.172-1.969Zm42.836,37.77c-.227-6.251-.773-12.687-1.187-18.948-.211-3.3-.211-5.889-2.094-7.847-1.734-1.778-5.117-1.7-7.594-.521a10.89,10.89,0,0,0-3.055,1.919c-2.664,3.192,1.852,4.494,3.094,5.242a7.938,7.938,0,0,1,2.648,2.335c2.156,2.855,2.078,13.38,2.078,17.819Zm-10.992-16.679a2.425,2.425,0,0,0-1.984-3.466c-1.922-.171-2.508,1.224-2.859,2.854a28.229,28.229,0,0,0-.273,10.441c.1.776.3,1.635.469,2.4.219.875.336,1.649,1.328,1.589,1.4-.091.773-2.161.93-4.875C82201.727,6094.855,82202.625,6092.769,82203.844,6089.673Zm3.43-19.7c.055.322.7,1.535.875,2.081.875,2.6-.234,4.41,1.461,4.5,1.023.06,1.3-.58,1.492-1.445.492-2.186-.055-6.066-2.3-6.275C82207.914,6068.75,82207.117,6069.076,82207.273,6069.972Z" transform="translate(-81990.125 -5002.454)" fill="#00f3bb" fill-rule="evenodd"/>
    <path id="Path_118" data-name="Path 118" d="M81754.969,1736.045c2.875.207,5.8.6,8.641,1,3.828.541,7.7,1.171,11.484,1.877,3.844.706,7.672,1.49,11.469,2.44,1.594.4,3.188.831,4.781,1.33a34.375,34.375,0,0,1,3.656,1.363c7.422,3.429,11.047,17.364,12.578,24.635a138.328,138.328,0,0,1,2.172,14.324,86.38,86.38,0,0,1,.5,10.634l-.031,1.411-6.2-.17.031-1.418c.281-8.336-3.484-40.015-11.656-43.781a25.583,25.583,0,0,0-3.266-1.2c-1.469-.457-2.969-.855-4.469-1.223-3.625-.892-7.359-1.631-11.016-2.3s-7.359-1.269-11.016-1.789c-2.672-.377-5.422-.749-8.125-.943l-1.5-.11,1.328-6.128Z" transform="translate(-81572.398 -688.291)" fill="#004747" fill-rule="evenodd"/>
  </g>
</svg>
