<svg xmlns="http://www.w3.org/2000/svg" width="108.482" height="108.482" viewBox="0 0 108.482 108.482">
  <g id="Pain_Clinic_Algology_" data-name="Pain Clinic (Algology)" transform="translate(-718 -1938)">
    <path id="Path_9526" data-name="Path 9526" d="M1269.738,1471l-3.128,4.073,7.3,5.249-3.533,7.387,8.512,8.1-5.232-8.078,5.182-8.428Z" transform="translate(-536.927 499.928)" fill="#00f3bb" fill-rule="evenodd"/>
    <path id="Path_9528" data-name="Path 9528" d="M1445.617,1472.23l4.781,5.439-9.786,8.074,5.667,10.064-11.224,12.185,6.607-11.856-8.083-11.375Z" transform="translate(-633.5 499.217)" fill="#00f3bb" fill-rule="evenodd"/>
    <path id="Path_9524" data-name="Path 9524" d="M1293.141,1395.392a51.571,51.571,0,1,0,20.141,4.064,51.4,51.4,0,0,0-20.141-4.064Zm0-2.492a54.241,54.241,0,1,1-54.241,54.241A54.242,54.242,0,0,1,1293.141,1392.9Z" transform="translate(-520.9 545.1)" fill="#004747"/>
    <path id="Exclusion_8" data-name="Exclusion 8" d="M2206.092,77.692a3.188,3.188,0,0,1-2.79-1.648c-.375-.678-.751-1.372-1.114-2.044l-.019-.034c-.635-1.174-1.292-2.388-1.97-3.563a17.423,17.423,0,0,0-2.134-3.137,2.846,2.846,0,0,0-2.227-1,8.562,8.562,0,0,0-1.69.225,3.792,3.792,0,0,1-.375.055c-.417.034-.831.051-1.23.051a9.707,9.707,0,0,1-5.187-1.3,7.068,7.068,0,0,1-3.119-4.413,3.265,3.265,0,0,1,.342-2.644,4.936,4.936,0,0,1,3.268-2c.889-.178,1.827-.276,2.734-.372l.635-.068a18.839,18.839,0,0,0,4.472-.854c-.137-.671-.4-1.5-.859-1.637a1.894,1.894,0,0,0-.537-.066,10.091,10.091,0,0,0-2.921.681c-.986.361-1.956.8-2.894,1.216-.776.348-1.578.707-2.385,1.023a9.46,9.46,0,0,1-2.913.733c-.074,0-.148.005-.222.005a3.979,3.979,0,0,1-3.915-2.72,3.09,3.09,0,0,1-.164-1.058,6.842,6.842,0,0,0-.515-2.154,12.455,12.455,0,0,1-4.3-1.644A4.57,4.57,0,0,1,2172,45.41a12.057,12.057,0,0,1,1.008-4.212q.177-.478.355-.953l.01-.028c.513-1.372,1.043-2.79,1.506-4.223.24-.736-.774-2.814-1.261-3.813l-.01-.021c-.054-.11-.1-.205-.136-.281a3.054,3.054,0,0,1-.287-.983,29.834,29.834,0,0,1,.946-12.269,26.012,26.012,0,0,1,5.448-9.861,25.434,25.434,0,0,1,8.788-6.429A27.622,27.622,0,0,1,2199.663,0a31.817,31.817,0,0,1,5.148.428,34.894,34.894,0,0,1,9.119,2.706,22.589,22.589,0,0,1,6.809,4.811,21.432,21.432,0,0,1,4.422,7.023,31.293,31.293,0,0,1,1.957,9.341.348.348,0,0,0,0,.037.265.265,0,0,1,0,.03,47.073,47.073,0,0,1-1.033,12.1c-.008.028-.014.054-.021.081s-.009.036-.013.053a32.47,32.47,0,0,0-.687,3.226c-.335,4.963,5.309,17.313,7.4,21.25a3.183,3.183,0,0,1-1.391,4.347l-23.867,11.919A3.16,3.16,0,0,1,2206.092,77.692ZM2195.878,63.1a5.781,5.781,0,0,1,4.7,2.2,38.827,38.827,0,0,1,4.148,6.72c.428.788.868,1.6,1.36,2.49l23.868-11.92a103.922,103.922,0,0,1-5.065-11.339c-1.374-3.671-2.957-8.7-2.693-11.782a36.365,36.365,0,0,1,.771-3.668,43.841,43.841,0,0,0,.966-11.287c-.809-12.219-7.05-18.874-19.642-20.946a28.312,28.312,0,0,0-4.587-.381,23.337,23.337,0,0,0-17.806,7.719c-4.51,5.1-6.481,12.059-5.552,19.595,1.269,2.656,2.186,4.576,1.564,6.472-.577,1.789-1.134,3.263-1.581,4.447-.936,2.476-1.45,3.838-.943,4.753s2.054,1.366,4.932,1.944a8.733,8.733,0,0,1,1.745,5.046.814.814,0,0,0,.883.546A13.2,13.2,0,0,0,2187,52.3c.307-.137.619-.277.936-.416a17.259,17.259,0,0,1,6.356-1.827c2.64,0,4.16,1.636,4.645,5a2.165,2.165,0,0,1-.421,1.7c-1.238,1.6-4.751,1.978-7.573,2.284-1.835.2-3.285.356-3.585.791a.3.3,0,0,0-.045.256c.58,2.238,2.259,3.325,5.133,3.325.336,0,.695-.015,1.065-.046A11.921,11.921,0,0,1,2195.878,63.1Z" transform="translate(-1428.91 1957.338)" fill="#004747"/>
    <path id="Path_9527" data-name="Path 9527" d="M1320.883,1511.48l.051,3.546c2.032-1.37,5.426-1.927,6.864.219a11.6,11.6,0,0,0-8.129,1.977l-.438-5.477,1.653-.261Z" transform="translate(-567.362 476.515)" fill="#00465c" fill-rule="evenodd"/>
  </g>
</svg>
