<svg xmlns="http://www.w3.org/2000/svg" width="108.33" height="108.33" viewBox="0 0 108.33 108.33">
  <g id="Pediatrics_Surgeries" data-name="Pediatrics Surgeries" transform="translate(-1304 -2233)">
    <path id="Path_9617" data-name="Path 9617" d="M3435.468,2682.525a51.677,51.677,0,1,0-15.136,36.537A51.511,51.511,0,0,0,3435.468,2682.525Zm-13.374-38.3a54.161,54.161,0,1,1-38.3-15.865A54,54,0,0,1,3422.094,2644.226Z" transform="translate(-2025.63 -395.36)" fill="#004747"/>
    <path id="Path_9618" data-name="Path 9618" d="M3427.96,2777.8l-4.76,4.781,7.13,7.577-.827,5.835c6.729,8.319,17.91,14.263,28.834,11.771l-30.382-29.96Z" transform="translate(-2079.75 -481.793)" fill="#004747"/>
    <path id="Path_9619" data-name="Path 9619" d="M3440.477,2795.63l20,19.921c-7.26-.717-14.55-4.554-18.479-10.418l.919-4.339-3.719-3.883,1.277-1.282Z" transform="translate(-2089.003 -492.106)" fill="#00f3bb"/>
    <path id="Path_9620" data-name="Path 9620" d="M3416.392,2846.676h3.065v-2.146h-3.065Zm-6.742,0h3.369v-2.146h-3.369Zm19.6,0h3.369v-2.146h-3.369Zm-6.434,0h3.369v-2.146h-3.369Z" transform="translate(-2071.912 -520.389)" fill="#004747"/>
    <path id="Path_9621" data-name="Path 9621" d="M3416.15,2742.484a27.264,27.264,0,0,0-27.266,27.266c0,.16,0,.316,0,.472h-3.314c0-.156,0-.316,0-.472a30.58,30.58,0,1,1,61.159,0c0,.16,0,.316,0,.472h-3.314c0-.156,0-.316,0-.472a27.264,27.264,0,0,0-27.266-27.266Z" transform="translate(-2057.985 -459.451)" fill="#00f3bb"/>
    <path id="Path_9622" data-name="Path 9622" d="M3411.965,2653.1c.072,2.631,1.307,4.018,1.45,4.646-3.2,0-5.519-1.737-5.519-4.646h-3.2c0,3.386,2.547,6.636,5.228,7.26v.291c-2.892.674-8.5,7.079-10.136,11.788-.329.944-.143.738-1.134,1.046-6.151,1.927-6.345,10.148-1.315,12.821,3.782,2.007.742-1.168,3.971,4.886,8.142,15.28,32.211,15.823,40.172-2.032,1.294-2.9.135-1.551,2.083-2.416a7.054,7.054,0,0,0,2.353-11.557c-2.719-2.618-3.28-.864-3.934-2.749a22.458,22.458,0,0,0-17-14.364c-2.939-.6-9.685.784-9.836-4.958l-3.2-.012Z" transform="translate(-2062.739 -409.669)" fill="#004747"/>
    <path id="Path_9623" data-name="Path 9623" d="M3432.733,2673.271c5.679,11.835-15.971,17.611-15.971,3.483,4.49,0,2.631-.325,3.479,1.893,1.851,4.848,10.022,4.8,10.022-2.475,0-8.23-20.267-5.57-24.1,10.89-6.737,0-6.813,7.695,0,7.695,4.785,20.533,33.1,20.571,37.895,0,6.738,0,6.813-7.695,0-7.695-1.67-7.159-8.133-13.53-11.325-13.791Z" transform="translate(-2066.954 -420.4)" fill="#fff" fill-rule="evenodd"/>
    <path id="Path_9624" data-name="Path 9624" d="M3430.838,2719.677c.287,1.067,1.969,2.5,2.875,3.078,5.784,3.668,11.759-.78,12.37-3.078a6.354,6.354,0,0,1-1.315-.717,6.869,6.869,0,0,0-1.446-.733,5.643,5.643,0,0,1-9.727,0C3432.82,2718.408,3431.492,2719.5,3430.838,2719.677Zm11.472-7.985h3.2a2.047,2.047,0,0,1,3.988-.649c.3.869-.211.649,3.272.649a5.171,5.171,0,0,0-8.968-3.6,5.417,5.417,0,0,0-1.484,3.6Zm-18.151-.434v.434c4.431,0,2.6.139,3.538-1.252a2.086,2.086,0,0,1,3.723,1.252h3.2a5.254,5.254,0,0,0-5.519-5.228,5.128,5.128,0,0,0-4.937,4.79Z" transform="translate(-2080.304 -440.527)" fill="#004747"/>
  </g>
</svg>
