<svg xmlns="http://www.w3.org/2000/svg" width="108.482" height="108.482" viewBox="0 0 108.482 108.482">
  <g id="Pediatrics" transform="translate(-1304 -1929)">
    <path id="Path_9456" data-name="Path 9456" d="M3413.581,1761.422a51.572,51.572,0,1,0,20.14,4.064,51.393,51.393,0,0,0-20.14-4.064Zm0-2.492a54.241,54.241,0,1,1-54.241,54.241A54.242,54.242,0,0,1,3413.581,1758.93Z" transform="translate(-2055.34 170.07)" fill="#004747"/>
    <path id="Path_9625" data-name="Path 9625" d="M3446.04,1897.094a27.264,27.264,0,0,0-27.266,27.266c0,.16,0,.316,0,.472h-3.314c0-.156,0-.316,0-.472a30.58,30.58,0,1,1,61.16,0c0,.16,0,.316,0,.472H3473.3c0-.156,0-.316,0-.472a27.264,27.264,0,0,0-27.266-27.266Z" transform="translate(-2087.799 92.075)" fill="#00f3bb"/>
    <path id="Path_9626" data-name="Path 9626" d="M3441.855,1807.72c.072,2.631,1.307,4.018,1.45,4.646-3.2,0-5.519-1.737-5.519-4.646h-3.2c0,3.386,2.547,6.636,5.228,7.26v.291c-2.892.675-8.5,7.079-10.136,11.788-.329.944-.143.738-1.134,1.046-6.151,1.927-6.345,10.148-1.315,12.821,3.782,2.007.742-1.168,3.971,4.887,8.142,15.279,32.211,15.823,40.172-2.032,1.294-2.905.135-1.552,2.083-2.416a7.054,7.054,0,0,0,2.353-11.557c-2.719-2.618-3.28-.864-3.934-2.749a22.458,22.458,0,0,0-17-14.364c-2.939-.6-9.684.784-9.836-4.958l-3.2-.013Z" transform="translate(-2092.553 141.851)" fill="#004747"/>
    <path id="Path_9627" data-name="Path 9627" d="M3462.624,1827.881c5.679,11.835-15.971,17.611-15.971,3.483,4.49,0,2.631-.325,3.479,1.893,1.851,4.849,10.022,4.8,10.022-2.475,0-8.23-20.267-5.57-24.1,10.89-6.737,0-6.813,7.694,0,7.694,4.785,20.533,33.1,20.571,37.895,0,6.738,0,6.813-7.694,0-7.694-1.67-7.159-8.133-13.53-11.325-13.791Z" transform="translate(-2096.768 131.126)" fill="#fff" fill-rule="evenodd"/>
    <path id="Path_9628" data-name="Path 9628" d="M3460.728,1874.287c.287,1.067,1.969,2.5,2.875,3.078,5.785,3.668,11.759-.78,12.37-3.078a6.385,6.385,0,0,1-1.316-.717,6.861,6.861,0,0,0-1.446-.734,5.643,5.643,0,0,1-9.727,0C3462.71,1873.018,3461.382,1874.115,3460.728,1874.287Zm11.472-7.985h3.2a2.047,2.047,0,0,1,3.989-.649c.3.869-.211.649,3.271.649a5.17,5.17,0,0,0-8.968-3.6,5.417,5.417,0,0,0-1.484,3.6Zm-18.15-.434v.434c4.431,0,2.6.139,3.537-1.252a2.086,2.086,0,0,1,3.723,1.252h3.2a5.254,5.254,0,0,0-5.519-5.228,5.127,5.127,0,0,0-4.937,4.79Z" transform="translate(-2110.119 110.999)" fill="#004747"/>
  </g>
</svg>
