<svg xmlns="http://www.w3.org/2000/svg" width="108.33" height="108.33" viewBox="0 0 108.33 108.33">
  <g id="Pulmonary_And_Thoracic_Surgery_Lung_Surgeries_" data-name="Pulmonary And Thoracic Surgery (Lung Surgeries)" transform="translate(-1304 -1018)">
    <path id="Path_9595" data-name="Path 9595" d="M2453.148,2632.465A51.677,51.677,0,1,0,2438.012,2669,51.511,51.511,0,0,0,2453.148,2632.465Zm-13.374-38.3a54.161,54.161,0,1,1-38.3-15.865A54,54,0,0,1,2439.775,2594.166Z" transform="translate(-1043.31 -1560.3)" fill="#004747"/>
    <path id="Path_135" data-name="Path 135" d="M2439.246,2667.862c.211-4.545.042-10.874,2.626-13.7,3.854-4.2,7.45,1.143,9.31,3.58a40.478,40.478,0,0,1,8.453,23.758c.051.793.08,1.619.08,2.42a49.7,49.7,0,0,1-1.556,12.24c-.721,2.146-1.606,4.022-4.317,3.693-3.428-.4-13.5-6.826-15.149-8.98-2.917-3.887-.337-9.343-.422-13.8l-3.385-.9a44.907,44.907,0,0,0-1.1,8.993c-.253,6.1,2.285,9.284,7.365,12.248,5.586,3.31,14.811,10.587,19.47,2.167,2.116-3.807,2.875-12,2.707-16.936a46.759,46.759,0,0,0-10.541-28.8,13.764,13.764,0,0,0-5.456-4.478,6.653,6.653,0,0,0-2.555-.5,6.744,6.744,0,0,0-4.8,2.007c-4.275,4.322-4.149,9.52-4.275,15.545l3.542,1.45Zm-13.964,8.361-3.6.843c-.09,3.454.7,6.068.929,8.687.256,2.8-.511,5.364-5.878,8.679-2.669,1.585-7.829,5.059-10.709,5.418-2.707.342-3.512-1.6-4.275-3.693a50.752,50.752,0,0,1-1.573-12.476c0-.725.017-1.455.051-2.175a42.557,42.557,0,0,1,8.466-23.754c1.864-2.361,5.629-7.855,9.31-3.584,2.707,3.069,2.412,8.938,2.626,13.677l3.554-1.417c.211-5.393-.422-11.742-4.106-15.44-4.655-4.625-9.394-1.21-12.864,2.745l-4.107,5.759a45.161,45.161,0,0,0-6.569,23.159c-.169,5.026.636,13.289,2.8,17.075,4.486,8.112,13.837,1.1,19.6-2.374a18.262,18.262,0,0,0,5.342-4.57c3.887-5.8.586-12.7,1.008-16.561Z" transform="translate(-1071.772 -1601.055)" fill="#004747" fill-rule="evenodd"/>
    <path id="Path_136" data-name="Path 136" d="M2427.926,2656.593c-.379,1.353,3.259,5.388,4.106,7.863-.847.236-1.48.645-2.285.894-1.948.594-4.486-3.061-6.434-2.77-.253,1.218,1.779,2.374,3.3,3.828-1.733,1.354-5.966,1.518-6.054,3.116,1.1.75,6.687-1.467,8.466-1.834-.59,2.024-3.428,7.041-3.428,7.9.042.485,0,.257.127.527,1.1.864,4.57-7.218,6.092-8.888.594-.637,10.877-3.25,12.1-3.268a55.729,55.729,0,0,1,6.227,1.488c7.277,1.864,4.823-.189,10.283,8.959.506.864.763,1.75,1.822,1.83.637-1.24-2.412-5.852-3.344-8.521,1.779.337,7.366,2.3,8.424,1.977-.084-1.691-3.133-1.834-5.291-2.859-.379-.215.042.046-.379-.27l-.3-.24c.679-.607,1.143-.89,1.906-1.649.763-.717,1.691-.873,1.4-2.045-.932-.291-1.48.4-2.327.9-3.428,2.159-3.133,2.509-6.392.814.763-1.9,5.081-7.5,3.9-7.673l-.337-.059a.915.915,0,0,1-.131.017c-.468.114-.848.793-1.227,1.307l-4.4,5.519c-.59-.168-6.94-2.77-7.151-3.461v-25.01l-5.207-.021v25.031c-.337.721-.89.759-1.652,1.084a49.955,49.955,0,0,1-5.751,2.386,26.257,26.257,0,0,0-2.833-3.812c-1.615-2.058-1.994-3.268-3.225-3.057Z" transform="translate(-1085.677 -1593.071)" fill="#00f3bb" fill-rule="evenodd"/>
    <path id="Path_9596" data-name="Path 9596" d="M2445.64,2727.75l-4.76,4.781,7.129,7.576-.826,5.835c6.729,8.318,17.91,14.263,28.834,11.771l-30.382-29.96Z" transform="translate(-1097.429 -1646.74)" fill="#004747"/>
    <path id="Path_9597" data-name="Path 9597" d="M2458.147,2745.58l20,19.921c-7.26-.717-14.55-4.554-18.479-10.418l.919-4.339-3.719-3.883,1.277-1.282Z" transform="translate(-1106.677 -1657.052)" fill="#00f3bb"/>
    <path id="Path_9598" data-name="Path 9598" d="M2434.072,2796.616h3.065v-2.146h-3.065Zm-6.742,0h3.369v-2.146h-3.369Zm19.6,0h3.369v-2.146h-3.369Zm-6.434,0h3.369v-2.146H2440.5Z" transform="translate(-1089.592 -1685.329)" fill="#004747"/>
  </g>
</svg>
