<svg xmlns="http://www.w3.org/2000/svg" width="108.482" height="108.482" viewBox="0 0 108.482 108.482">
  <g id="Radiology" transform="translate(-718 -2548)">
    <path id="Path_9561" data-name="Path 9561" d="M1398.637,3034.98a7.929,7.929,0,0,1-1.273-.274,1.928,1.928,0,0,0-1.821,3.095,1.433,1.433,0,0,0,.822.637c1.64.729,4.553.822,5.557-.818a1.918,1.918,0,0,0-.911-2.825c-1.273-.455-1.366.181-2.369.181Zm.093,11.662a14.447,14.447,0,0,0,3.461-.548c.274-.093.274-.093.548-.181l2.188-1c.181-.093.363-.181.548-.274l.818-.729a1.954,1.954,0,0,0,.274-3.006c-1.547-1.366-2.732,0-3.643.548a8.128,8.128,0,0,1-6.83.729c-2.1-.729-2.188-1.273-3.006-1.547a2.02,2.02,0,0,0-2.188,3.1c.729,1.185,4.01,2.277,5.194,2.551a12.373,12.373,0,0,0,2.644.363Z" transform="translate(-616.56 -442.825)" fill="#00f3bb" fill-rule="evenodd"/>
    <path id="Exclusion_2" data-name="Exclusion 2" d="M2173.5,67.961h0l-.362-.274c-1.2-.6-1.165-1.551-1.114-2.864.011-.277.022-.564.022-.872V25.6c0-.605,0-1.224-.006-1.722-.031-5.513-.055-9.868,2.919-14.493a20.754,20.754,0,0,1,8.745-7.653,1.592,1.592,0,0,1,.22-.086,1.512,1.512,0,0,0,.235-.094,1.469,1.469,0,0,1,.288-.1c.072-.02.151-.042.26-.078a21.648,21.648,0,0,1,4.92-1.278h.548l.093-.093h28.606l1.185.455a4.41,4.41,0,0,1,2.184,3.006,32.735,32.735,0,0,1,.093,6.649c-.041.12-.116.329-.2.55l-.015.042c-.091.25-.194.533-.244.682a4.32,4.32,0,0,1-1.184,1.366,1.134,1.134,0,0,0-.547.361,3.2,3.2,0,0,1-.562.254c-.229.08-.229.08-.349.565-.186.936-.421,1.927-.649,2.884-.218.919-.444,1.87-.625,2.766-.3,1.731-1.187,2.07-2.62,2.07-.312,0-.648-.015-1-.03-.413-.018-.839-.037-1.3-.037h-6.923c-.317,0-.637.013-.947.026s-.6.024-.883.024a3.149,3.149,0,0,1-1.994-.506.936.936,0,0,1-.287-.266l0,0c-.05-.06-.1-.122-.165-.185-.24-.556-1.174-4.869-1.526-6.493l-.014-.064c-.045-.206-.079-.364-.1-.459-.3,0-.769-.007-1.359-.015-.924-.013-2.069-.03-3.214-.03a22.944,22.944,0,0,0-4.353.226c-.284.113-.527.2-.741.278a8.763,8.763,0,0,0-1.447.633,7.711,7.711,0,0,0-2.643,3.006,9.424,9.424,0,0,0-.748,4.773c.009.367.018.746.018,1.147v24.5h40.083c.266,0,.524-.008.773-.016s.462-.014.683-.014a3.43,3.43,0,0,1,1.824.393,2.018,2.018,0,0,1,.668,1.964,1.823,1.823,0,0,1-1.216,1.5,21.184,21.184,0,0,1-4.346.227c-1.207,0-2.455-.018-3.366-.031-.576-.008-1.031-.015-1.307-.015v11.75h.089c.192,0,.38,0,.563-.005.2,0,.4-.005.587-.005,1.082,0,2.094.071,2.59.922a2.113,2.113,0,0,1,.235,1.646,2.263,2.263,0,0,1-1.146,1.36l-.182.093h-24.6l-.363-.182a1.89,1.89,0,0,1-1.039-1.223,1.986,1.986,0,0,1,.216-1.6c.506-.936,1.547-1.014,2.661-1.014.179,0,.361,0,.554,0s.406.005.614.005V52.184h-14.576V65.03c0,.159,0,.308.006.44v.014a2.218,2.218,0,0,1-.279,1.461,1.3,1.3,0,0,1-.587.654l0,0c-.072.049-.147.1-.227.16l-.367.182h-10.747l-.012.016ZM2191,4a14.7,14.7,0,0,0-2.823.381l-.021,0-.345.07c-.227.091-.458.16-.682.227s-.457.137-.685.228l-2,.818a15.882,15.882,0,0,0-6.1,5.919l-.73,1.184a16.832,16.832,0,0,0-1.547,5.92l0,0V63.938h5.65v-41.9c0-3.957.981-6.627,3.28-8.925a11.093,11.093,0,0,1,3.555-2.552,13.014,13.014,0,0,1,5.282-.91h18.4c.365,0,.853.011,1.418.024.711.016,1.515.035,2.271.035a12.059,12.059,0,0,0,2.417-.151,30.759,30.759,0,0,0,.1-4.085V5.462c0-.35-.009-.68-.009-.917,0-.343-.137-.548-.367-.548Zm13.209,48.182V63.93H2215.5V52.179Z" transform="translate(-1427.504 2569.081)" fill="#004747"/>
    <path id="Path_9563" data-name="Path 9563" d="M1398.292,3017.11c-.363,0-.363-.548-.363-.911l-.729-3.1h10.932a17.739,17.739,0,0,1-.455,2.1c-.093.636-.274,1.914-.637,1.914H1398.3Z" transform="translate(-620.406 -430.372)" fill="#fff" fill-rule="evenodd"/>
    <path id="Path_9565" data-name="Path 9565" d="M1311.991,2933.222a51.573,51.573,0,1,0,20.141,4.064,51.392,51.392,0,0,0-20.141-4.064Zm0-2.492a54.241,54.241,0,1,1-54.241,54.241A54.242,54.242,0,0,1,1311.991,2930.73Z" transform="translate(-539.75 -382.73)" fill="#004747"/>
  </g>
</svg>
