<svg xmlns="http://www.w3.org/2000/svg" width="108.482" height="108.482" viewBox="0 0 108.482 108.482">
  <g id="Radiation_Oncology" data-name="Radiation Oncology" transform="translate(-718 -1176)">
    <g id="Group_10261" data-name="Group 10261">
      <path id="Path_9600" data-name="Path 9600" d="M377.631,2933.222a51.573,51.573,0,1,0,20.141,4.064,51.392,51.392,0,0,0-20.141-4.064Zm0-2.492a54.241,54.241,0,1,1-54.241,54.241A54.242,54.242,0,0,1,377.631,2930.73Z" transform="translate(394.61 -1754.73)" fill="#004747"/>
      <path id="Subtraction_2" data-name="Subtraction 2" d="M2201.823,47.9c-1.241,0-3.351-3.038-4.892-5.257a8.577,8.577,0,0,0-1.623-2.061h-.021c-.8,0-1.77,1.51-2.8,3.108l-.093.144-.1.159c-1.162,1.8-2.291,3.41-3.337,3.411-.566,0-1.056-.463-1.5-1.415-.461-.991-.186-2.622.08-4.2s.517-3.069-.022-3.707a.989.989,0,0,0-.807-.325,8.462,8.462,0,0,0-3.7,1.575c-1.9,1.174-3.268,1.77-4.079,1.77a.84.84,0,0,1-.773-.358c-.636-1.024.88-4.092,1.988-6.333a9.891,9.891,0,0,0,1.135-2.727c-.106-.8-1.711-.862-3.346-.862-.26,0-.526,0-.794,0h-.013c-.277,0-.557,0-.835,0-1.756,0-3.671-.074-4.165-.954-.244-.436-.132-1.025.342-1.8.527-.863,2.017-1.518,3.458-2.151,1.773-.779,3.448-1.515,3.449-2.6s-1.8-2.424-5.495-4.061a2.07,2.07,0,0,1-1.206-2.3c.212-1,1.151-1.6,2.513-1.6a6.05,6.05,0,0,1,1.063.1,18.893,18.893,0,0,0,3.214.352c1.267,0,2.03-.259,2.332-.792.527-.929-.46-2.576-1.414-4.168s-1.953-3.26-1.408-4.19a1.884,1.884,0,0,1,1.636-1.12c1.048,0,2.214.908,3.521,2.006l.176.148c1.135.956,2.206,1.858,3.051,1.858a1,1,0,0,0,.743-.316c.68-.682,1-2.526.993-5.637a4.811,4.811,0,0,1,.829-3.259A1.077,1.077,0,0,1,2190.7,0c1.1,0,2.362,1.624,3.218,4.137h0l0,0c.732,2.148,1.478,3.193,2.28,3.193.985,0,1.93-1.531,2.93-3.152l.118-.191c.921-1.49,2.065-3.343,3.3-3.343a1.8,1.8,0,0,1,1.3.685c.624.668.418,2.3.2,4.019-.215,1.7-.438,3.46.215,4.2a1.148,1.148,0,0,0,.917.37c.984,0,2.53-.755,4.727-2.307a4.238,4.238,0,0,1,2.362-.889,1.7,1.7,0,0,1,1.62.928c.429.894.093,2.168-.9,3.406-1.863,2.322-2.533,3.943-2.049,4.958.644,1.348,3.21,1.356,5.474,1.363,1.758.006,3.276.011,3.524.643.165.422-.261,1.1-1.3,2.075a15.306,15.306,0,0,1-3.4,2.129c-1.566.8-2.918,1.495-2.9,2.38.013.761,1.028,1.591,3.2,2.612,3.007,1.416,4.437,2.557,4.25,3.389-.312,1.392-5.028,1.6-7.812,1.6-.331,0-.668,0-1-.009l-.265-.005-.184,0h-.012c-1.5,1.4-.264,3.051.935,4.643s2.448,3.254.933,4.67a1.832,1.832,0,0,1-1.3.528c-1.114,0-2.353-.89-3.63-1.881l-.26-.2c-1.107-.864-2.153-1.679-2.945-1.679a.939.939,0,0,0-.713.308c-.649.683-.886,2.582-.724,5.807.088,1.758-.074,2.868-.484,3.3A.644.644,0,0,1,2201.823,47.9Zm-13.742-13.679a1.837,1.837,0,0,1,1.46.65c.98,1.145,1.148,3.84.5,8.01a8.626,8.626,0,0,0,.705-1.312c.865-1.792,2.309-4.784,4.311-4.784,1.615,0,3.335,1.947,5.115,5.788-.21-3.442.2-5.736,1.218-6.818a2.314,2.314,0,0,1,1.754-.736,7.7,7.7,0,0,1,4.011,1.667c.613.423,1.154.848,1.549,1.159a3.47,3.47,0,0,0,.716.509.016.016,0,0,0,.016-.008c.03-.06-.22-.424-1.03-1.5-1.868-2.48-2.495-4.38-1.862-5.65.624-1.252,2.438-1.886,5.393-1.886.7,0,1.438.035,2.264.108.287.025.531.05.728.071.226.023.372.038.433.038.019,0,.029,0,.031,0a.112.112,0,0,0,0-.1c-.094-.206-.785-.4-1.66-.649-1.874-.531-4.706-1.332-4.958-3.1-.226-1.583,1.705-3.668,5.741-6.2a19.246,19.246,0,0,1-3.05.283c-2.12,0-3.46-.549-3.985-1.634-1.224-2.53,2.362-7.18,2.775-7.7l.009-.012c-.365.175-.825.45-1.358.769-1.454.868-3.445,2.057-5.02,2.057a2.174,2.174,0,0,1-1.7-.713c-.911-1.019-1.188-3.176-.824-6.413a3.4,3.4,0,0,1,.173-.76c-.208.316-.432.721-.692,1.189-1.03,1.857-2.44,4.4-4.465,4.4a4.166,4.166,0,0,1-2.883-1.6l0,0a8.628,8.628,0,0,1-1.3-2.8l0-.008c-.177-.521-.344-1.013-.522-1.423.069,3.738-.432,6.178-1.486,7.252a2.074,2.074,0,0,1-1.53.645c-1.028,0-2.285-.62-3.844-1.895-.541-.442-1.017-.88-1.4-1.231a3.538,3.538,0,0,0-.81-.663.024.024,0,0,0-.023.012c-.038.066.131.41.584,1.189,1.9,3.266,2.461,5.347,1.771,6.548-.534.928-1.822,1.342-4.176,1.342-1.008,0-2.149-.071-3.552-.177,3.865,1.765,5.794,3.541,5.734,5.276-.039,1.123-.905,2.218-2.576,3.254a19.7,19.7,0,0,1-3.414,1.608,2.91,2.91,0,0,0-.28.111h.166c.465,0,.987-.024,1.539-.049l.089,0c.632-.029,1.2-.053,1.777-.053,1.547,0,3.41.158,4.094,1.389s.094,3.332-1.817,6.4c-.556.892-.777,1.339-.716,1.448a.058.058,0,0,0,.056.028,4.585,4.585,0,0,0,1.222-.788c.355-.264.758-.564,1.2-.867A7.84,7.84,0,0,1,2188.081,34.217Z" transform="translate(-1423.734 1205.921)" fill="#004747"/>
      <path id="Path_9607" data-name="Path 9607" d="M446.467,2973.889a1.658,1.658,0,0,1-1.944,2.686,30.815,30.815,0,0,0-16.43-6.156,28.193,28.193,0,0,0-16.38,4.414,1.655,1.655,0,0,1-1.733-2.821,31.448,31.448,0,0,1,18.285-4.9,34.059,34.059,0,0,1,18.2,6.775Z" transform="translate(344.983 -1775.75)" fill="#004747"/>
      <path id="Path_9608" data-name="Path 9608" d="M440.757,2963.252a1.659,1.659,0,1,1-2.133,2.542,37.143,37.143,0,0,0-47.411-.207,1.657,1.657,0,0,1-2.1-2.559,40.465,40.465,0,0,1,51.648.224Z" transform="translate(356.949 -1768.09)" fill="#004747"/>
      <path id="Path_9609" data-name="Path 9609" d="M446.776,2982.983a1.653,1.653,0,1,1-1.514,2.938,19.129,19.129,0,0,0-8.335-2.032,16.5,16.5,0,0,0-7.952,1.687,1.654,1.654,0,0,1-1.581-2.905,19.9,19.9,0,0,1,9.6-2.087,22.47,22.47,0,0,1,9.786,2.4Z" transform="translate(334.955 -1783.562)" fill="#004747"/>
      <path id="Path_9610" data-name="Path 9610" d="M489.8,3091.141a1.657,1.657,0,0,1-1.366-3.019,30.86,30.86,0,0,0,13.551-11.156,28.207,28.207,0,0,0,4.368-16.388,1.655,1.655,0,0,1,3.31-.093,31.462,31.462,0,0,1-4.9,18.29,34.057,34.057,0,0,1-14.959,12.366Z" transform="translate(299.714 -1828.849)" fill="#004747"/>
      <path id="Path_9611" data-name="Path 9611" d="M488.654,3088.673a1.655,1.655,0,0,1-1.143-3.107A37.149,37.149,0,0,0,511.4,3044.6a1.653,1.653,0,1,1,3.263-.535,40.443,40.443,0,0,1-26.014,44.6Z" transform="translate(300.312 -1819.479)" fill="#004747"/>
      <path id="Path_9612" data-name="Path 9612" d="M498.4,3088.782a1.652,1.652,0,1,1-1.8-2.774,19.134,19.134,0,0,0,5.928-6.206,16.572,16.572,0,0,0,2.521-7.741,1.656,1.656,0,1,1,3.31.105,19.916,19.916,0,0,1-2.985,9.347,22.47,22.47,0,0,1-6.974,7.273Z" transform="translate(294.863 -1835.546)" fill="#004747"/>
      <path id="Path_9613" data-name="Path 9613" d="M363.236,3053.308a1.655,1.655,0,1,1,3.293.333,30.8,30.8,0,0,0,2.888,17.3,28.238,28.238,0,0,0,12.012,11.986,1.655,1.655,0,1,1-1.577,2.909,31.463,31.463,0,0,1-13.386-13.382A34.092,34.092,0,0,1,363.236,3053.308Z" transform="translate(371.688 -1824.766)" fill="#004747"/>
      <path id="Path_9614" data-name="Path 9614" d="M349.164,3044.146a1.658,1.658,0,1,1,3.268.569,37.151,37.151,0,0,0,23.53,41.167,1.656,1.656,0,0,1-1.168,3.1,40.449,40.449,0,0,1-25.63-44.83Z" transform="translate(380.051 -1819.533)" fill="#004747"/>
      <path id="Path_9615" data-name="Path 9615" d="M377.667,3071.4a1.657,1.657,0,0,1,3.31-.165,19.141,19.141,0,0,0,2.407,8.23,16.584,16.584,0,0,0,5.443,6.054,1.654,1.654,0,1,1-1.741,2.812,19.909,19.909,0,0,1-6.6-7.256,22.489,22.489,0,0,1-2.816-9.68Z" transform="translate(363.218 -1835.088)" fill="#004747"/>
      <path id="Path_9606" data-name="Path 9606" d="M435.039,3039.806c6.156,6.586,9.444-8.285,1.695-5.62A3.567,3.567,0,0,0,435.039,3039.806Zm11.093,6.855a1.608,1.608,0,1,0,2.272.076A1.607,1.607,0,0,0,446.132,3046.662Zm-14.183,3.086a1.608,1.608,0,1,0,2.272.076A1.607,1.607,0,0,0,431.949,3049.748Zm-1.965-10.043a1.232,1.232,0,1,0,1.741.059A1.232,1.232,0,0,0,429.984,3039.705Zm2.209,5.182a1.232,1.232,0,1,0,1.741.059A1.232,1.232,0,0,0,432.193,3044.887Zm12.606-7.4a1.232,1.232,0,1,0,1.741.059A1.232,1.232,0,0,0,444.8,3037.487Zm-3.112,4.486a1.232,1.232,0,1,0,1.741.059A1.232,1.232,0,0,0,441.688,3041.973Zm.08,10.3c4-3.736-4.6-7.442-4.6-1.851A2.753,2.753,0,0,0,441.768,3052.269Z" transform="translate(333.184 -1814.38)" fill="#00f3bb" fill-rule="evenodd"/>
      <path id="Path_9602" data-name="Path 9602" d="M437.648,3103.7l0,0c-.013.017-.017.025,0,.012Z" transform="translate(328.534 -1854.773)" fill="#004747"/>
      <path id="Path_9603" data-name="Path 9603" d="M441.038,3012.413l-.042-.063C440.907,3012.438,440.958,3012.43,441.038,3012.413Z" transform="translate(326.616 -1801.938)"/>
    </g>
  </g>
</svg>
