<svg xmlns="http://www.w3.org/2000/svg" width="108.482" height="108.482" viewBox="0 0 108.482 108.482">
  <g id="Rheumatology" transform="translate(-1304 -562)">
    <path id="Path_9529" data-name="Path 9529" d="M2410.031,1395.392a51.572,51.572,0,1,0,20.141,4.064,51.4,51.4,0,0,0-20.141-4.064Zm0-2.492a54.241,54.241,0,1,1-54.241,54.241A54.242,54.242,0,0,1,2410.031,1392.9Z" transform="translate(-1051.79 -830.9)" fill="#004747"/>
    <path id="Path_9530" data-name="Path 9530" d="M2432.555,1459.74a26.166,26.166,0,1,0,26.166,26.166A26.165,26.165,0,0,0,2432.555,1459.74Z" transform="translate(-1081.056 -869.559)" fill="#00f3bb" fill-rule="evenodd"/>
    <path id="Path_9531" data-name="Path 9531" d="M2430.579,1483.729l-.919,1.18a3.574,3.574,0,0,0-.392,1.379c0,3.192,2.517,6.151,4.4,8.508,4.891,6.139,4.233,8,4.233,15.444a1.9,1.9,0,0,1-.139.717.782.782,0,0,1-.738.5h-2.766a.79.79,0,0,1-.734-.485,4.873,4.873,0,0,1-.219-2.091c0-6.042.54-6.463-3.335-11.329l-1.939-2.551c-1.872-2.652-3.352-5.279-3.352-8.618,0-4.553,4.166-8.361,8.652-8.361a15.628,15.628,0,0,1,5.961,1.467c5.586,2.226,4.035,2.547,9.714.051,4.149-1.821,8.386-2.475,11.991.847a8.413,8.413,0,0,1,2.7,5.608,12.866,12.866,0,0,1-2.471,7.783c-2.108,3.284-5.945,6.514-6.16,10.587-.08,1.539.261,5.354-.147,6.552a.789.789,0,0,1-.755.54h-2.787a.784.784,0,0,1-.742-.506,2.466,2.466,0,0,1-.169-.906c0-3.571-.371-7.513,1.282-10.8a23.64,23.64,0,0,1,2.758-4.157c.982-1.231,1.956-2.445,2.821-3.765,1.539-2.348,2.88-5.3.489-7.589-1.6-1.535-3.411-1.223-5.346-.582-1.725.573-3.318,1.412-5.021,2.032-3.917,1.425-5.274.557-8.888-1-2.711-1.172-5.375-2.572-7.977-.451Zm19.883-35.745v-4.912a.8.8,0,0,1,.8-.788h3.027a.8.8,0,0,1,.8.75c.177,2.909-.615,5.928.8,8.732,1.278,2.538,3.681,5.017,5.308,7.454,1.2,1.792,2.5,4.515,2.5,6.708a7.625,7.625,0,0,1-.86,4.237,9.338,9.338,0,0,1-3.95,3.946c-2.905,1.421-5.717.97-8.618-.152-1.678-.649-4.549-2.192-6.282-2.192a7.3,7.3,0,0,0-2.23.7c-.789.325-1.577.658-2.357,1.008-3.647,1.627-7.53,2.365-11.034-.063a8.611,8.611,0,0,1-3.7-7.1,13.714,13.714,0,0,1,2.559-7.134c.308-.459.594-.923.923-1.366s.666-.89,1-1.332c.738-.978,1.737-2.517,3.116-2.5a2.338,2.338,0,0,1,2.087,1.353c.654,1.581-.472,2.606-1.366,3.727-1.99,2.492-5.532,7.037-2.568,10.064,2.3,2.353,5.49.86,8.015-.244,5.287-2.315,6.227-2.315,11.5,0a12.281,12.281,0,0,0,5.591,1.488c1.53,0,3.567-1.927,3.567-3.47a8.326,8.326,0,0,0-1.783-5.2c-3.2-4.764-6.847-7.4-6.847-13.711Zm30.588,50.231a2.24,2.24,0,0,1-2.349,2.348c-1.311,0-2.31-1.353-3.158-2.2l-5.675-5.675a2.635,2.635,0,0,1-1.084-2.041,2.316,2.316,0,0,1,1.969-2.323c1.155-.165,1.653.384,2.374,1.1l6.594,6.594c.658.658,1.324,1.134,1.324,2.188Zm-12.261-38.692a2.617,2.617,0,0,1,1.083-2.041l5.625-5.624c.734-.734,1.91-2.247,3.01-2.247a2.254,2.254,0,0,1,2.542,2.348c0,.957-.527,1.387-1.13,1.994l-6.931,6.936a2.3,2.3,0,0,1-4.2-1.362Zm5.354,14.816h10.667c3.09,0,3.145,4.6.1,4.6h-11.055C2471.21,1478.939,2470.86,1474.34,2474.145,1474.34Zm-40.049-32.06h3.006a.8.8,0,0,1,.8.8v4.908a2.306,2.306,0,1,1-4.6-.291v-4.617a.8.8,0,0,1,.8-.8Z" transform="translate(-1091.623 -859.46)" fill="#004747" fill-rule="evenodd"/>
  </g>
</svg>
