<svg xmlns="http://www.w3.org/2000/svg" width="108.48" height="108.48" viewBox="0 0 108.48 108.48">
  <g id="Rhinoplasty" transform="translate(-155 -1633)">
    <g id="Ellipse_336" data-name="Ellipse 336" transform="translate(155 1633)" fill="#fff" stroke="#004747" stroke-width="2">
      <ellipse cx="54.24" cy="54.24" rx="54.24" ry="54.24" stroke="none"/>
      <ellipse cx="54.24" cy="54.24" rx="53.24" ry="53.24" fill="none"/>
    </g>
    <path id="Path_115" data-name="Path 115" d="M59556.941,2054.723l-.328,4.979c-6.32-.343-16.18-2.542-21.641-5.558a10.173,10.173,0,0,1-5-5.285c-1.781-5,2.047-12.536,4.016-17.153l14.367-35.034c.32-.764.508-1.572.828-2.34l.539-1.332,4.977.908-.469,1.834c-2.539,9.928-10.891,26.8-15.047,36.942-1.508,3.691-5.367,10.075-4.336,13.866a5.312,5.312,0,0,0,2.781,3.148C59543.121,2052.723,59550.66,2053.8,59556.941,2054.723Zm11.594-4.742c2.992-3.372,4.383-9.16-.461-11.621a9.362,9.362,0,0,0-2.414-.885l-2.523-.823,4.242-3.34c3.281.764,6.18,2.229,7.789,5.215,2.547,4.728.852,9.831-2.055,13.939-3.547,5-8.781,5.953-12.4.4a15.7,15.7,0,0,0-9.484-7.078c2.242-.837,3.359-1.281,5.891-1.037a10.12,10.12,0,0,1,7.188,4.04c.586.709,1.1,1.473,1.672,2.185C59566.957,2052.173,59567.6,2051.044,59568.535,2049.981Z" transform="translate(-59340.613 -337.028)" fill="#004747" fill-rule="evenodd"/>
    <path id="Path_116" data-name="Path 116" d="M57964.422,2075.686a1.305,1.305,0,0,1,2.414.993l-1.984,4.82a1.3,1.3,0,1,1-2.406-.993Zm-14.477,41.943a1.3,1.3,0,1,1-2.4-1l1.984-4.816a1.305,1.305,0,0,1,2.414.993Zm4.977-12.045a1.305,1.305,0,1,1-2.414-.993l1.992-4.816a1.3,1.3,0,0,1,2.406.993Zm4.961-12.043a1.3,1.3,0,1,1-2.406-.993l1.984-4.816a1.3,1.3,0,1,1,2.406.993Z" transform="translate(-57764.387 -418.608)" fill="#00f3bb" fill-rule="evenodd"/>
  </g>
</svg>
