<svg xmlns="http://www.w3.org/2000/svg" width="108.482" height="108.482" viewBox="0 0 108.482 108.482">
  <g id="Sleep_Disorders_Unit" data-name="Sleep Disorders Unit" transform="translate(-1304 -1777)">
    <path id="Path_9532" data-name="Path 9532" d="M3402.671,1395.392a51.572,51.572,0,1,0,20.141,4.064,51.4,51.4,0,0,0-20.141-4.064Zm0-2.492a54.241,54.241,0,1,1-54.241,54.241A54.242,54.242,0,0,1,3402.671,1392.9Z" transform="translate(-2044.43 384.1)" fill="#004747"/>
    <path id="Path_9533" data-name="Path 9533" d="M3411.73,1544.17h21.945v-3.656H3411.73Zm25.6,0h29.5v-9.389a7.614,7.614,0,0,0-.852-3.537,6.981,6.981,0,0,0-1.83-2.681l-.244-.245a8.809,8.809,0,0,0-5.974-2.437h-20.6v18.29Z" transform="translate(-2081.042 307.187)" fill="#fff" fill-rule="evenodd"/>
    <path id="Path_9534" data-name="Path 9534" d="M3470.95,1454.841h2.437l-3.537,7.315h8.411V1458.5h-2.437l3.538-7.193-8.411-.122v3.655Zm14.752-3.656c.367-.122,5,0,5.73,0l-7.315,10.97h12.56V1458.5h-5.73l7.315-10.97h-12.556v3.655Z" transform="translate(-2114.657 352.503)" fill="#00f3bb"/>
    <path id="Path_9535" data-name="Path 9535" d="M3417.7,1463.515c0-4.878,7.315-4.878,7.315,0S3417.7,1468.393,3417.7,1463.515Zm14.63,22.067h20.6a8.818,8.818,0,0,1,5.974,2.437l.245.245a7.016,7.016,0,0,1,1.83,2.681,7.548,7.548,0,0,1,.852,3.537v9.389h-29.5Zm-25.6,14.63h21.945v3.656h-21.945Zm7.315-22.067c0-4.878,7.315-4.878,7.315,0v11.093h7.315v7.315h-9.145a5.461,5.461,0,0,1-5.485-5.485v-12.923Zm-3.656,12.923a9.552,9.552,0,0,0,1.83,5.485h-5.485v-16.46a36.346,36.346,0,0,0-3.655,0v34.868h3.655v-7.437h55.105v7.437h3.656V1494.6a12.771,12.771,0,0,0-1.1-5.123,15.256,15.256,0,0,0-2.559-3.655c-4.633-4.634-8.778-3.9-14.63-3.9h-18.53v3.656h-3.656V1477.9a7.553,7.553,0,0,0-2.192-5,7.286,7.286,0,0,0-10.241,0,6.89,6.89,0,0,0-1.463,2.192,6.326,6.326,0,0,0-.733,2.8v13.167Zm3.656-27.8a7.346,7.346,0,1,0,.729-2.926,7.324,7.324,0,0,0-.729,2.926Z" transform="translate(-2076.033 347.488)" fill="#004747" fill-rule="evenodd"/>
  </g>
</svg>
