<svg xmlns="http://www.w3.org/2000/svg" width="108.482" height="108.482" viewBox="0 0 108.482 108.482">
  <g id="Smoking_Cessation_Center" data-name="Smoking Cessation Center" transform="translate(-718 -871)">
    <g id="Group_10265" data-name="Group 10265">
      <path id="Path_9536" data-name="Path 9536" d="M508.98,1911.881h4.591v-9.3H508.98Z" transform="translate(287.268 -971.015)" fill="#00f3bb" fill-rule="evenodd"/>
      <path id="Path_9537" data-name="Path 9537" d="M490.65,1911.881h4.587v-9.3H490.65Z" transform="translate(297.87 -971.015)" fill="#00f3bb" fill-rule="evenodd"/>
      <g id="Group_10264" data-name="Group 10264">
        <g id="Group_10263" data-name="Group 10263">
          <path id="Path_9538" data-name="Path 9538" d="M440.224,1831.895a10.783,10.783,0,0,0,5.435,9.06c4.95,2.9,10.507-.6,14.133,3.019,2.053,2.053,1.691,5.675,1.691,8.576h4.591c0-4.469.6-8.213-2.778-11.594l-1.088-1.088c-.725-.485-2.294-1.206-3.019-1.568-3.984-1.21-8.091.122-10.389-.966a6.507,6.507,0,0,1-3.866-5.312c0-2.656.966-4.469,3.381-5.435a6.48,6.48,0,0,1,2.294-.485l-.122-4.591a10.583,10.583,0,0,0-7.248,3.019,9.4,9.4,0,0,0-2.053,3.141c-.24.6-.485,1.21-.725,1.813a17.854,17.854,0,0,0-.24,2.416Z" transform="translate(327.037 -924.125)" fill="#004747" fill-rule="evenodd"/>
          <path id="Path_9539" data-name="Path 9539" d="M479.392,1800.166v4.347a5.552,5.552,0,0,1,5.675,5.8,6.372,6.372,0,0,1-.485,2.293,3.579,3.579,0,0,1-.485.966l-.725.725a2.162,2.162,0,0,1-.843.6,5.081,5.081,0,0,1-.847.6c-2.9,1.088-2.294-1.328-2.294,5.072a12.113,12.113,0,0,1,11.594,8.335c1.088,3.259.843,7.488.843,11.114h4.591c0-6.4.6-11.114-3.019-16.548a15.424,15.424,0,0,0-2.778-3.381,18.673,18.673,0,0,0-3.866-2.416c.122-.24.725-.965,1.088-1.45a18.271,18.271,0,0,0,.965-1.568,10.358,10.358,0,0,0-1.568-11.114,8.814,8.814,0,0,0-3.744-2.9,13.026,13.026,0,0,0-2.053-.6,4.074,4.074,0,0,0-1.21-.122c-.485,0-.843-.24-.843.24Z" transform="translate(304.414 -911.602)" fill="#004747" fill-rule="evenodd"/>
          <path id="Path_9540" data-name="Path 9540" d="M373.19,1911.881h46.382v-9.3H373.19Z" transform="translate(365.806 -971.015)" fill="#004747" fill-rule="evenodd"/>
        </g>
        <path id="Path_9541" data-name="Path 9541" d="M377.631,1761.422a51.572,51.572,0,1,0,20.141,4.064,51.394,51.394,0,0,0-20.141-4.064Zm0-2.492a54.241,54.241,0,1,1-54.241,54.241A54.242,54.242,0,0,1,377.631,1758.93Z" transform="translate(394.61 -887.93)" fill="#004747"/>
      </g>
    </g>
  </g>
</svg>
