<svg xmlns="http://www.w3.org/2000/svg" width="108.48" height="108.48" viewBox="0 0 108.48 108.48">
  <g id="Tooth_Implants" data-name="Tooth Implants" transform="translate(-155 -871)">
    <g id="Path_8619" data-name="Path 8619" transform="translate(155 871)" fill="#fff">
      <path d="M 54.239990234375 107.4799728393555 C 47.05220413208008 107.4799728393555 40.07994842529297 106.0724639892578 33.51689147949219 103.296516418457 C 27.17723274230957 100.6150741577148 21.48343276977539 96.77613067626953 16.5936336517334 91.88634490966797 C 11.70384693145752 86.99654388427734 7.864904403686523 81.30274963378906 5.183461666107178 74.96308898925781 C 2.407518863677979 68.40003204345703 1.000004529953003 61.42777633666992 1.000004529953003 54.239990234375 C 1.000004529953003 47.05220413208008 2.407518863677979 40.07994842529297 5.183461666107178 33.51689147949219 C 7.864904403686523 27.17723274230957 11.70384693145752 21.48343276977539 16.5936336517334 16.5936336517334 C 21.48343276977539 11.70384693145752 27.17723274230957 7.864904403686523 33.51689147949219 5.183461666107178 C 40.07994842529297 2.407518863677979 47.05220413208008 1.000004529953003 54.239990234375 1.000004529953003 C 61.42777633666992 1.000004529953003 68.40003204345703 2.407518863677979 74.96308898925781 5.183461666107178 C 81.30274963378906 7.864904403686523 86.99654388427734 11.70384693145752 91.88634490966797 16.5936336517334 C 96.77613067626953 21.48343276977539 100.6150741577148 27.17723274230957 103.296516418457 33.51689147949219 C 106.0724639892578 40.07994842529297 107.4799728393555 47.05220413208008 107.4799728393555 54.239990234375 C 107.4799728393555 61.42777633666992 106.0724639892578 68.40003204345703 103.296516418457 74.96308898925781 C 100.6150741577148 81.30274963378906 96.77613067626953 86.99654388427734 91.88634490966797 91.88634490966797 C 86.99654388427734 96.77613067626953 81.30274963378906 100.6150741577148 74.96308898925781 103.296516418457 C 68.40003204345703 106.0724639892578 61.42777633666992 107.4799728393555 54.239990234375 107.4799728393555 Z" stroke="none"/>
      <path d="M 54.239990234375 2.000007629394531 C 47.18675994873047 2.000007629394531 40.34555816650391 3.380943298339844 33.90643310546875 6.104469299316406 C 27.68597412109375 8.735496520996094 22.09902191162109 12.50246429443359 17.30074310302734 17.30074310302734 C 12.50246429443359 22.09902191162109 8.735496520996094 27.68597412109375 6.104469299316406 33.90643310546875 C 3.380943298339844 40.34555816650391 2.000007629394531 47.18675994873047 2.000007629394531 54.239990234375 C 2.000007629394531 61.29322052001953 3.380943298339844 68.13442230224609 6.104469299316406 74.57354736328125 C 8.735496520996094 80.79400634765625 12.50246429443359 86.38095855712891 17.30074310302734 91.17923736572266 C 22.09902191162109 95.97751617431641 27.68597412109375 99.74448394775391 33.90643310546875 102.3755111694336 C 40.34555816650391 105.0990371704102 47.18675994873047 106.4799728393555 54.239990234375 106.4799728393555 C 61.29322052001953 106.4799728393555 68.13442230224609 105.0990371704102 74.57354736328125 102.3755111694336 C 80.79400634765625 99.74448394775391 86.38095855712891 95.97751617431641 91.17923736572266 91.17923736572266 C 95.97751617431641 86.38095855712891 99.74448394775391 80.79400634765625 102.3755111694336 74.57354736328125 C 105.0990371704102 68.13442230224609 106.4799728393555 61.29322052001953 106.4799728393555 54.239990234375 C 106.4799728393555 47.18675994873047 105.0990371704102 40.34555816650391 102.3755111694336 33.90643310546875 C 99.74448394775391 27.68597412109375 95.97751617431641 22.09902191162109 91.17923736572266 17.30074310302734 C 86.38095855712891 12.50246429443359 80.79400634765625 8.735496520996094 74.57354736328125 6.104469299316406 C 68.13442230224609 3.380943298339844 61.29322052001953 2.000007629394531 54.239990234375 2.000007629394531 M 54.239990234375 7.62939453125e-06 C 84.19591522216797 7.62939453125e-06 108.4799728393555 24.28406524658203 108.4799728393555 54.239990234375 C 108.4799728393555 84.19591522216797 84.19591522216797 108.4799728393555 54.239990234375 108.4799728393555 C 24.28406524658203 108.4799728393555 7.62939453125e-06 84.19591522216797 7.62939453125e-06 54.239990234375 C 7.62939453125e-06 24.28406524658203 24.28406524658203 7.62939453125e-06 54.239990234375 7.62939453125e-06 Z" stroke="none" fill="#004747"/>
    </g>
    <path id="Path_111" data-name="Path 111" d="M197636.313,2788.129a5.441,5.441,0,0,1-.641,2.558,6.584,6.584,0,0,1-1.547,1.771c-.828.668-1.687,1.295-2.5,1.948-.937.753-1.812,1.56-2.734,2.313a4.793,4.793,0,0,1-2.453,1.218,5.116,5.116,0,0,1-3.437-1.354c-.7-.542-1.406-1.13-2.109-1.718-.969-.827-1.937-1.667-2.922-2.5a8.532,8.532,0,0,1-1.344-1.554,4.5,4.5,0,0,1-.234-.391,3.868,3.868,0,0,1-.844-.278,2.23,2.23,0,0,1,0-4.306l.25-.155v-.281c-.125-.039-.2-.09-.359-.156-.984-.171-1.281-.749-1.437-1.7a2.174,2.174,0,0,1,.453-1.864,2.488,2.488,0,0,1,1.344-.791v-.368c-.281-.078-.594-.175-.906-.291l-.609-.236-.156-.653a2.715,2.715,0,0,1,.594-2.713,3.357,3.357,0,0,1,1.031-.494c0-.013.047-.022.047-.035v-1.153c-1.484-.5-3.078-1.328-3.437-3a4.133,4.133,0,0,1-.047-1.386,3.593,3.593,0,0,0,.047-.445c-.219-.042-.484-.074-.641-.123a4.975,4.975,0,0,1-1.984-.985c-1.984-1.661-3.078-5.03-3.7-7.449a26.393,26.393,0,0,1-.422-10.379c.8-4.974,3.156-9.981,8.125-11.871a11.548,11.548,0,0,1,8.078-.065c.906.316,1.766.714,2.688,1.124a6.311,6.311,0,0,0,1.453.562,3.577,3.577,0,0,0,1.25-.355c.875-.359,1.688-.762,2.531-1.1a11.691,11.691,0,0,1,7.891-.446c4.25,1.267,6.578,3.983,7.984,8.069a28.4,28.4,0,0,1,.8,13.4,22.561,22.561,0,0,1-2.031,5.786,7.915,7.915,0,0,1-1.656,2.652,4.977,4.977,0,0,1-2.953,1.162l-.062,1.654v.117a3.187,3.187,0,0,1-2.016,2.616l.359.24.078.578a2.868,2.868,0,0,1-.547,2.426,2.7,2.7,0,0,1-1.219.711v.271a2.41,2.41,0,0,1,1.094.462,2.276,2.276,0,0,1,.719,1.754,2.24,2.24,0,0,1-.625,1.744,3.037,3.037,0,0,1-1.187.649v.352c1,.281,1.906.817,2.047,1.9C197638.516,2786.8,197637.391,2787.628,197636.313,2788.129Z" transform="translate(-197416.656 -1840.265)" fill="#004747" fill-rule="evenodd"/>
    <path id="Path_139" data-name="Path 139" d="M198730.391,3838.35c-7.891,1.806-8.672,14.342-5.437,21.753,1.219,2.762,1.391,2.522,4.719,2.9a109.516,109.516,0,0,0,22.656-.164c2.891-.433,2.938-1.2,3.875-3.78a18.458,18.458,0,0,0,1.344-6.37c.25-6.418-1.625-14.54-8.766-14.52a14.7,14.7,0,0,0-6.2,1.784C198737.891,3842.058,198736.094,3837.048,198730.391,3838.35Z" transform="translate(-198530.938 -2936.308)" fill="#fefefe" fill-rule="evenodd"/>
    <path id="Path_140" data-name="Path 140" d="M202058.359,17902.754a36.042,36.042,0,0,0,3.828-2.979c1.922-1.5,2.938-2.062,2.969-3.8-.891-.01-12.141.855-13.141,1.7C202054.047,17898.809,202056.609,17901.75,202058.359,17902.754Z" transform="translate(-201849.047 -16948.738)" fill="#00f3bb" fill-rule="evenodd"/>
    <path id="Path_141" data-name="Path 141" d="M200881,12298.063a2.113,2.113,0,0,0,1.516-.3l.063-1.71c-10.641.413-9.828.494-20.547-.052l.219,1.911C200865.125,12298.261,200877.188,12298.063,200881,12298.063Z" transform="translate(-200662.859 -11366.854)" fill="#00f3bb" fill-rule="evenodd"/>
    <path id="Path_142" data-name="Path 142" d="M201992.391,16364.464l-.016-2.465-13.344,1.423-.016,2.523Z" transform="translate(-201776.281 -15419.722)" fill="#00f3bb" fill-rule="evenodd"/>
    <path id="Path_143" data-name="Path 143" d="M201992.391,14855.455l-.031-2.457-13.328,1.413-.016,2.528Z" transform="translate(-201776.281 -13915.594)" fill="#00f3bb" fill-rule="evenodd"/>
    <path id="Path_144" data-name="Path 144" d="M201991.359,13665.4v-1.392L201978,13664v2.9Z" transform="translate(-201775.266 -12730.438)" fill="#00f3bb" fill-rule="evenodd"/>
  </g>
</svg>
