<svg xmlns="http://www.w3.org/2000/svg" width="108.482" height="108.482" viewBox="0 0 108.482 108.482">
  <g id="Urology" transform="translate(-1304 -714)">
    <path id="Path_9545" data-name="Path 9545" d="M2401.371,1761.422a51.571,51.571,0,1,0,20.141,4.064,51.393,51.393,0,0,0-20.141-4.064Zm0-2.492a54.241,54.241,0,1,1-54.241,54.241A54.242,54.242,0,0,1,2401.371,1758.93Z" transform="translate(-1043.13 -1044.93)" fill="#004747"/>
    <path id="Path_9546" data-name="Path 9546" d="M2485.38,1830.442v32.823c0,.7,1.256.417,1.956.417.557,0,1.678.278,2.235.278v-13.69c0-1.678-.139-1.535.839-2.513a12.223,12.223,0,0,1,7.543-2.8,9.083,9.083,0,0,1,6.565,3.491c.417.7.7,1.678,1.678,1.678.839,0,1.117-.556,1.117-1.4,0-1.117-2.8-4.191-4.052-4.469v-.278a15.4,15.4,0,0,0,4.052-1.817c.561-.417,1.117-.839,1.678-1.256.557-.7,1.256-1.256,1.256-2.1,0-.978-.7-1.117-1.256-1.117-.7,0-.978.417-1.256.978a9.8,9.8,0,0,1-4.052,2.656,3.744,3.744,0,0,1,.278-.7,2.377,2.377,0,0,0,.139-.978c.417-1.4.7-5.865-1.117-5.865-2.652,0,.417,3.773-1.956,7.543-.839,1.256-.7.978-3.913,1.256-3.913.278-5.03,1.535-7.542,2.8v-15.364C2488.454,1830.025,2485.38,1829.746,2485.38,1830.442Z" transform="translate(-1123.092 -1086.018)" fill="#00f3bb" fill-rule="evenodd"/>
    <path id="Path_9547" data-name="Path 9547" d="M2430.122,1845.392c-2.656-1.4-3.213-2.374-7.4-2.8-2.935-.278-3.074.139-3.913-1.256-1.678-2.374-.978-4.747-.839-6.147s-2.656-2.934-2.656,1.817c0,3.074.278,2.513.7,4.33a14.331,14.331,0,0,1-3.491-2.1c-.417-.417-.839-1.256-1.256-1.535-1.257-.556-3.913,1.117.978,4.469a18.983,18.983,0,0,0,4.191,1.817v.278c-.978.278-4.886,3.773-3.913,5.308,1.117,1.817,2.656-1.117,2.656-1.117a8.556,8.556,0,0,1,9.5-3.074,11.54,11.54,0,0,1,4.469,2.374c.978.839.978.839.978,2.513v13.69a10.865,10.865,0,0,0,2.1-.278c.839,0,2.1.278,2.1-.417V1830.45c0-.7-1.257-.417-1.817-.417h-2.374V1845.4Z" transform="translate(-1079.15 -1086.022)" fill="#00f3bb" fill-rule="evenodd"/>
    <path id="Path_9548" data-name="Path 9548" d="M2454.436,1935.954v4.115a3.347,3.347,0,0,1-3.339,3.339H2444.8a3.347,3.347,0,0,1-3.339-3.339v-4.161a15.85,15.85,0,0,1-3.5-1.851c-6-3.769-11.139-8.744-11.139-16.392a14.743,14.743,0,0,1,1.669-6.324,3.014,3.014,0,0,1,.257-.43c3.546-5.038,10.772-6.1,16.5-6.1,7.277,0,17.51-.692,22,6.383,4.212,6.632.7,14.272-4.364,19.188a26.69,26.69,0,0,1-4.95,3.832c-.067.046-.126.08-.194.122a33.364,33.364,0,0,1-3.01,1.5l-.283.122Z" transform="translate(-1089.222 -1129.291)" fill="#004747" fill-rule="evenodd"/>
    <path id="Path_9549" data-name="Path 9549" d="M2436.67,1923.536c0,6.286,4.747,10.2,9.221,12.99a17.683,17.683,0,0,0,4.33,2.1c.278.278.417.139.417.557v5.726h6v-5.726c0-.417.139-.278.417-.417.7-.417,2.374-.978,4.33-2.1a23.887,23.887,0,0,0,4.191-3.213c3.63-3.491,6.986-9.36,3.773-14.385-3.352-5.308-12.573-4.608-18.3-4.608-4.33,0-10.477.7-13.129,4.469A11.155,11.155,0,0,0,2436.67,1923.536Z" transform="translate(-1094.918 -1134.867)" fill="#fff" fill-rule="evenodd"/>
    <path id="Path_9550" data-name="Path 9550" d="M2402.944,1821.275a4.291,4.291,0,0,0-3.74-1.417c-2.968,0-7.568,2.93-9.263,5.249-.249.375-.569.717-.831,1.109-3.263,4.7-3.63,15.385-.548,20.208,1.948,2.922,4.574,3.689,7.994,3.689,2.142,0,7.585-1.573,7.585-4.233s-1.5-4.208-2.07-6.51a.794.794,0,0,1,.552-.957c1.21-.346,2-1.037,3.39-.864a.777.777,0,0,1,.645.5l1.256,3.213a11.859,11.859,0,0,1,.894,5.038c0,8.9-22.08,14.647-26.292-2.323a32.49,32.49,0,0,1-.721-8.854,22.05,22.05,0,0,1,3.044-11.021c4.216-7.1,16.772-13.542,22.586-4.638a11.229,11.229,0,0,1,1.665,6.164,10.581,10.581,0,0,1-1.349,4.4c-.383.738-1.4,2.682-2.382,2.682-1.7,0-1.939-.675-2.315-2.294a.583.583,0,0,1-.017-.093,2.943,2.943,0,0,1,.358-2.4.546.546,0,0,1,.051-.084,3.916,3.916,0,0,0,.852-3.369,6.41,6.41,0,0,0-1.336-3.2Zm37.608,7.049c.607,1.1,0,4.385-1.543,4.385-1.657,0-1.437-.325-2.327-1.6a.29.29,0,0,1-.03-.046,10.592,10.592,0,0,1-1.931-6.278,10.141,10.141,0,0,1,1.822-5.485c3.681-5.569,10.157-4.844,15.3-1.91a19.719,19.719,0,0,1,10.178,17.733c0,5.051-.021,9.01-2.622,13.526-3.672,6.383-11.894,7.374-18.307,4.954-5.654-2.378-7.332-6.834-5.194-12.484l1.261-3.082a.787.787,0,0,1,.868-.485,11.7,11.7,0,0,1,2.218.514,7.383,7.383,0,0,0,.915.337.775.775,0,0,1,.519.413.759.759,0,0,1,.025.662l-1.244,3.036a9.73,9.73,0,0,0-.793,3.365c0,2.3,4.33,3.782,6.114,4.077,3.638.6,7.42-.363,9.453-3.66,2.69-4.364,2.462-11.607,1.164-16.414a14.271,14.271,0,0,0-6.476-8.179,10.982,10.982,0,0,0-6.164-1.847c-2.589,0-4.372,3.162-4.372,5.49a8.445,8.445,0,0,0,1.164,2.977Z" transform="translate(-1063.178 -1077.433)" fill="#004747" fill-rule="evenodd"/>
  </g>
</svg>
