<svg xmlns="http://www.w3.org/2000/svg" width="108.48" height="108.48" viewBox="0 0 108.48 108.48">
  <g id="Weight_Loss_" data-name="Weight Loss " transform="translate(-155 -413)">
    <g id="Ellipse_336" data-name="Ellipse 336" transform="translate(155 413)" fill="#fff" stroke="#004747" stroke-width="2">
      <circle cx="54.24" cy="54.24" r="54.24" stroke="none"/>
      <circle cx="54.24" cy="54.24" r="53.24" fill="none"/>
    </g>
    <path id="Path_96" data-name="Path 96" d="M62166.363,17.948c.93,13.792,9.125,14.926,4.789,24.074-4.477,9.439-13.289,9.054-19.562,11.878a7.255,7.255,0,0,0-4.594,6.017c1.172.619,3.844,3.609,4.914,4.166a6.266,6.266,0,0,1,1.914-3.157c3.922-2.8,8.492-.536,12.359.385,8.3,1.971,18.422,1.872,26.039-2.32a31.731,31.731,0,0,0,5.9-4.192,26.866,26.866,0,0,0,7.523-12.716c1.289-5.128.758-12.56-2.828-16.153-4.4-4.384-9.523-4.712-15.8-3.713-7.289,1.165-11.711,5.367-13.258-3.287a113.691,113.691,0,0,1-1.219-18.884L62166.035,0C62166.066,6.069,62166,11.863,62166.363,17.948Z" transform="translate(-61967.398 430.749)" fill="#004747" fill-rule="evenodd"/>
    <path id="Path_97" data-name="Path 97" d="M64634.992,5003.04a62.355,62.355,0,0,1,7.227,1.751c7.25,1.727,16.391,1.765,23.063-1.919a27.31,27.31,0,0,0,5.141-3.646,22.735,22.735,0,0,0,6.289-10.651c.8-3.3.844-9.641-1.75-12.22-3.477-3.471-7.648-3.289-12.219-2.555-4.039.641-8.7,3.151-12.664,1.556a6.729,6.729,0,0,1-2.422-1.618c.086.178.156.354.25.531,1.172,2.465,2.648,4.742,3.328,7.425a13.994,13.994,0,0,1-1.273,9.6,20.218,20.218,0,0,1-11.3,10.479C64637.469,5002.265,64636.242,5002.666,64634.992,5003.04Z" transform="translate(-64442.453 -4516.751)" fill="#fefefe" fill-rule="evenodd"/>
    <path id="Path_98" data-name="Path 98" d="M66208.664,2138.411c.625-2.029.148-4.987-2.547-3.6-1.3.666-2.586,2.752-4.5,2.289-1.664-.406-2.031-2.3-4.992-1.831-1.969.313-3.609,1.826-5.187,1.691-1.844-.167-2.859-2.216-5.023-1.613-1.891.521-1.984,2.351-2.8,4.124-1.984,4.354-4.617,5.284-6.375,7.464-6.414,7.94,10.969,7.036,17.141,4.9a23.442,23.442,0,0,0,4.68-2.236,24.091,24.091,0,0,0,3.891-3.022,42.984,42.984,0,0,0,3.289-3.651A14.856,14.856,0,0,0,66208.664,2138.411Zm-18.031-11.166c1.164-3.381-4.242-5.091-5.273-1.638A2.761,2.761,0,1,0,66190.633,2127.244Zm-9.219-8.472c.938-2.059-2.359-3.422-3.242-1.43A1.772,1.772,0,1,0,66181.414,2118.772Zm-3.469-13.043a1.485,1.485,0,0,0,1.234,2.7C66180.984,2107.727,66179.813,2104.637,66177.945,2105.729Z" transform="translate(-65975.289 -1663.798)" fill="#00f3bb" fill-rule="evenodd"/>
  </g>
</svg>
