<svg xmlns="http://www.w3.org/2000/svg" width="108.482" height="108.482" viewBox="0 0 108.482 108.482">
  <g id="Allergy_And_Immunology" data-name="Allergy And Immunology" transform="translate(-595 -108)">
    <path id="Path_9643" data-name="Path 9643" d="M54.241,4.32A54.241,54.241,0,1,1,0,58.561,54.242,54.242,0,0,1,54.241,4.32Z" transform="translate(595 103.68)" fill="#004747"/>
    <path id="Path_9644" data-name="Path 9644" d="M112.969,116.711v1.311H90.286c0-6.843-2.593-7.172-4.077-10.844a10.165,10.165,0,0,1-.7-3.841V75.759c0-2.77,3.563-2.956,3.588.114.013,1.577-.1,10.283.042,10.823a1.835,1.835,0,0,0,3.508-.1c.19-.974-.169-16.591.135-17.653a1.75,1.75,0,0,1,3.335-.093,11.851,11.851,0,0,1,.135,2.85L96.265,86.5a1.807,1.807,0,0,0,3.58-.342c.063-3.078-.122-19.39.017-20.4a1.762,1.762,0,0,1,3.512-.1c.143.826.025,17.661.038,20.381a1.81,1.81,0,0,0,3.2,1.277c.645-.776.388-3.457.388-4.988V71.463c0-1.32-.169-2.492.5-3.2a1.7,1.7,0,0,1,2.462-.118c.788.742.62,1.644.62,3.082l0,25.314c-.025,2.981,3.124,2.483,3.537.9.152-.586,0-9.25.042-10.941.063-2.829,3.588-2.981,3.588.363V103.1a9.81,9.81,0,0,1-2.357,6.839,12.525,12.525,0,0,0-2.42,6.771Zm-10.743-4.537a1.806,1.806,0,0,0,3.58.476A1.806,1.806,0,0,0,102.227,112.174Zm7.163-7.163a1.808,1.808,0,0,0,3.584.476A1.808,1.808,0,0,0,109.39,105.011Zm-13.133,0a1.808,1.808,0,0,0,3.584.476A1.808,1.808,0,0,0,96.257,105.011Zm-7.163-3.584a1.806,1.806,0,0,0,3.58.476A1.806,1.806,0,0,0,89.093,101.427ZM103.42,96.65a1.808,1.808,0,0,0,3.584.476A1.808,1.808,0,0,0,103.42,96.65ZM92.677,91.874a1.808,1.808,0,0,0,3.584.476A1.808,1.808,0,0,0,92.677,91.874ZM96.5,64.3c-1.754-.038-3.369-1.126-6.063,1.581-1.307,1.311-1.341,2.669-1.341,4.389-4.225-.987-7.163,1.716-7.163,4.895v29.37a12.538,12.538,0,0,0,2.218,6.5c1.353,1.948,2.391,3.09,2.555,6.278.059,1.1-.557,4.3,1.552,4.3H115a1.768,1.768,0,0,0,1.526-1.341c.135-.7-.017-2.154.025-2.96.236-4.528,2.517-5.5,3.6-8.1a12.4,12.4,0,0,0,1.176-4.676V85.908a5.479,5.479,0,0,0-5.013-5.135,6.175,6.175,0,0,0-2.15.24q0-5.489,0-10.983c0-2.344-.729-4.292-2.863-5.376s-3.2-.384-4.541-.354c-.122-1.467-2.374-3.82-4.895-3.82a5.061,5.061,0,0,0-3.613,1.164A5.129,5.129,0,0,0,96.488,64.3Z" transform="translate(547.613 71.198)" fill="#fff"/>
  </g>
</svg>
