<svg xmlns="http://www.w3.org/2000/svg" width="108.48" height="108.48" viewBox="0 0 108.48 108.48">
  <g id="Alternative_" data-name="Alternative " transform="translate(-38 -1786)">
    <path id="Path_8619" data-name="Path 8619" d="M54.24,0A54.24,54.24,0,1,1,0,54.24,54.24,54.24,0,0,1,54.24,0Z" transform="translate(38 1786)" fill="#004747"/>
    <path id="Path_3187" data-name="Path 3187" d="M495.637,485.631h32.672V465.394l-16.336,2.316-16.336-2.316Z" transform="translate(-419.08 1380.516)" fill="#004747"/>
    <path id="Path_3188" data-name="Path 3188" d="M530.735,468.684l-8.578-6.432v-5.956h2.384v-4.766h-5.673l.861-4.3a2.382,2.382,0,0,0-1.87-2.8,2.352,2.352,0,0,0-.466-.046h-9.531a2.382,2.382,0,0,0-2.382,2.382,2.357,2.357,0,0,0,.046.466l.859,4.3h-5.671v4.766H503.1v5.956l-8.577,6.432a2.383,2.383,0,0,0-.954,1.906v28.591a2.383,2.383,0,0,0,2.384,2.382H529.3a2.382,2.382,0,0,0,2.382-2.382V470.589A2.382,2.382,0,0,0,530.735,468.684Zm-19.968-19.537h3.718l-.476,2.382h-2.765Zm-3.859,16.2a2.38,2.38,0,0,0,.954-1.9v-7.148h9.531v7.148a2.378,2.378,0,0,0,.952,1.9l8.578,6.434v3.574a13.694,13.694,0,0,0-8.469,2.782,9.55,9.55,0,0,1-11.652,0,13.7,13.7,0,0,0-8.47-2.782v-3.574ZM498.331,496.8V480.12a9.014,9.014,0,0,1,5.826,1.983,14.279,14.279,0,0,0,16.94,0,9.013,9.013,0,0,1,5.826-1.983V496.8Z" transform="translate(-420.386 1367.267)" fill="#fff"/>
    <ellipse id="Ellipse_133" data-name="Ellipse 133" cx="2.383" cy="2.383" rx="2.383" ry="2.383" transform="translate(99.82 1853.876)" fill="#fff"/>
    <ellipse id="Ellipse_134" data-name="Ellipse 134" cx="1.941" cy="1.941" rx="1.941" ry="1.941" transform="translate(81.2 1851.935)" fill="#fff"/>
    <ellipse id="Ellipse_135" data-name="Ellipse 135" cx="3.273" cy="3.273" rx="3.273" ry="3.273" transform="translate(88.188 1855.368)" fill="#fff"/>
  </g>
</svg>
