<svg xmlns="http://www.w3.org/2000/svg" width="108.482" height="108.482" viewBox="0 0 108.482 108.482">
  <g id="Anesthesiology_And_Reanimation" data-name="Anesthesiology And Reanimation" transform="translate(-718 -1481)">
    <g id="Group_10257" data-name="Group 10257">
      <path id="Path_9466" data-name="Path 9466" d="M1348.13,54.241a51.75,51.75,0,1,0-15.157,36.592A51.591,51.591,0,0,0,1348.13,54.241Zm-13.395-38.354A54.242,54.242,0,1,1,1296.381,0,54.07,54.07,0,0,1,1334.735,15.886Z" transform="translate(-524.14 1481)" fill="#004747"/>
      <path id="Exclusion_12" data-name="Exclusion 12" d="M2216.579,60.6h0a32.41,32.41,0,0,1-8.615-1.284,49.016,49.016,0,0,1-11.582-5.207,39.972,39.972,0,0,0-3.592-2.18,20.848,20.848,0,0,0-8.616-1.543,75.937,75.937,0,0,0-11.266,1.138l-.2.03v.008L2172,23.918l8.213.4a38.95,38.95,0,0,0-.44-5.429c-.428-3.393-.871-6.9.027-10.314a3.7,3.7,0,0,1,1.569-2.353,4.538,4.538,0,0,1,2.442-.576,17.726,17.726,0,0,1,2.433.224l.11.015a16.1,16.1,0,0,0,2.116.209,2.534,2.534,0,0,0,1.431-.327,7.942,7.942,0,0,0,.795-.61,2.8,2.8,0,0,1,2.33-.753h.168q.523.008,1.048.02c.732.015,1.486.03,2.227.03.544,0,1.032-.008,1.49-.025A27.306,27.306,0,0,1,2201.231,0a45.372,45.372,0,0,1,10.629,6.012c.779.6,1.118.771,1.512.771a3.718,3.718,0,0,0,.827-.145,15.849,15.849,0,0,1,2.249-.4A22.528,22.528,0,0,1,2218.9,6.1a19.235,19.235,0,0,1,10.453,2.987,22.536,22.536,0,0,1,7.293,7.694,29.163,29.163,0,0,1,2.945,6.924,32.135,32.135,0,0,1,1.191,7.622,29.051,29.051,0,0,1-3.369,14.975c-2.619,4.791-5.534,8.273-8.912,10.643A20.056,20.056,0,0,1,2216.579,60.6Zm-30.742-14.941a21.587,21.587,0,0,1,12.619,4.078c1.041.667,2.15,1.292,3.108,1.825a34.877,34.877,0,0,0,7.311,3.082,26.45,26.45,0,0,0,7.306,1.091,18.033,18.033,0,0,0,7.966-1.728c4.244-2.065,6.521-5.581,9.056-9.963a24.162,24.162,0,0,0,2.863-11.392,24.635,24.635,0,0,0-.215-3.209c-1.056-9.238-6.694-18.559-16.908-18.559a17.852,17.852,0,0,0-3.2.3,16.9,16.9,0,0,1-3.065.612,3.756,3.756,0,0,1-2.53-1,31.942,31.942,0,0,0-7.56-4.883c-.331.411-.63.819-.889,1.214a5.12,5.12,0,0,1-1.324,1.59,4.065,4.065,0,0,1-2.117.594c-.144,0-.272-.006-.391-.017-.67,0-1.35-.027-2.008-.048-.555-.018-1.129-.037-1.694-.045l-.151,0a1.826,1.826,0,0,0-1.55.582c-.167.147-.374.33-.664.541a3.827,3.827,0,0,1-2.383.831c-.058,0-.113,0-.173,0a8.266,8.266,0,0,1-1.425-.271,10.672,10.672,0,0,0-1.1-.236,21.219,21.219,0,0,0-2.433-.269c-.013.057-.025.111-.035.159l0,.016c-.009.042-.017.079-.025.111-.113.565-.187,1.138-.249,1.632a23.661,23.661,0,0,0-.223,3.179c0,.444.016.933.05,1.5.062.834.185,1.676.3,2.49.05.346.1.7.148,1.051a20.041,20.041,0,0,1,.2,2.8V23.5l-.03,4.326-7.517.493.417,17.746c.162-.013.378-.035.606-.064l.5-.06c.617-.075,1.254-.152,1.883-.188,1.281-.085,2.4-.127,3.433-.127.565,0,1.2.014,1.884.042C2185.69,45.661,2185.765,45.661,2185.837,45.661Z" transform="translate(-1427.185 1509.189)" fill="#004747"/>
      <path id="Path_9467" data-name="Path 9467" d="M1301.478,74.607H1288.61V56.17h3.462V71.146h9.406Z" transform="translate(-551.018 1448.512)" fill="#004747" fill-rule="evenodd"/>
      <path id="Path_9468" data-name="Path 9468" d="M1353.332,65.246c-1.168-2.715-31.36-17.219-37.629,4.575h-2.892v8.715h1.745c-.008.649-.008,1.315.013,2,17.063,4.612,15.541-10.507,38.759-15.3Z" transform="translate(-565.014 1447.451)" fill="#00f3bb"/>
      <path id="Path_9469" data-name="Path 9469" d="M1354.273,74.344c-9.427.54-14.972,5.089-19.732,8.989-3.731,3.061-7.016,5.755-11.4,6.172-3.318.316-6.936.767-10.275.763V87.684c3.259,0,6.792-.443,10.03-.75,3.592-.342,6.59-2.8,10-5.595,5.059-4.153,10.962-8.993,21.228-9.579l.143,2.589Z" transform="translate(-565.049 1439.495)" fill="#004747"/>
    </g>
  </g>
</svg>
