<svg xmlns="http://www.w3.org/2000/svg" width="108.48" height="108.48" viewBox="0 0 108.48 108.48">
  <g id="Cardiology" transform="translate(-38 -2243)">
    <path id="Path_8618" data-name="Path 8618" d="M54.24,0A54.24,54.24,0,1,1,0,54.24,54.24,54.24,0,0,1,54.24,0Z" transform="translate(38 2243)" fill="#004747"/>
    <path id="Path_86" data-name="Path 86" d="M15480.163,1312.932c3.789-1.375,13.869-5.807,25.355-17.3,12.455-12.455,17.129-33.578.229-41.347-14.533-6.68-22.824,4.21-25.584,7.391-2.764-3.182-11.051-14.071-25.588-7.391-16.9,7.769-12.227,28.892.229,41.347C15466.3,1307.125,15476.374,1311.557,15480.163,1312.932Z" transform="translate(-15387.922 1019.033)" fill="#fff" fill-rule="evenodd"/>
    <path id="Path_87" data-name="Path 87" d="M16386.672,2223.444h8.848l4.533-11.446,3.7.247,3.123,15.6,4.533-12.956,3.658-.019,1.527,4.21,4.539-11.929,3.705.186,4.586,19.636,3.113-3.658.58-.682h8.322c4.238-8.264,5.408-18.572-4.461-23.1-4.01-1.844-8.01-2.314-11.979-.173-2.848,1.535-4.68,3.7-6.746,6.08l-4.416,5.088-4.412-5.088c-2.076-2.384-3.893-4.544-6.74-6.08-3.977-2.142-7.973-1.671-11.99.173a12.181,12.181,0,0,0-6.668,6.6C16381.927,2211.484,16383.636,2217.947,16386.672,2223.444Z" transform="translate(-16321.6 79.109)" fill="#004747" fill-rule="evenodd"/>
    <path id="Path_88" data-name="Path 88" d="M17341.813,4822.8h-4.471l-5.105,6-2.578,3.028-.852-3.664-4.021-17.168-4.125,10.871-3.648-.025-1.449-3.991-5.078,14.511-3.725-.193-3.23-16.12-2.543,6.444-.437,1.114H17291a35.253,35.253,0,0,0,3.9,4.7c5.734,5.732,13.473,11.843,21.225,15.149,7.754-3.306,15.486-9.417,21.221-15.149.633-.631,1.246-1.294,1.824-1.975A33.54,33.54,0,0,0,17341.813,4822.8Z" transform="translate(-17223.877 -2517.776)" fill="#004747" fill-rule="evenodd"/>
  </g>
</svg>
