<svg xmlns="http://www.w3.org/2000/svg" width="108.482" height="108.482" viewBox="0 0 108.482 108.482">
  <g id="Coronary_Intensive_Care_Unit" data-name="Coronary Intensive Care Unit" transform="translate(-1190 -106)">
    <path id="Path_9737" data-name="Path 9737" d="M2122.071,0a54.241,54.241,0,1,1-54.241,54.241A54.242,54.242,0,0,1,2122.071,0Z" transform="translate(-877.83 106)" fill="#004747"/>
    <path id="Path_86" data-name="Path 86" d="M2139.246,86.9c3-1.084,10.983-4.6,20.073-13.694,9.857-9.857,13.563-26.587.181-32.738-11.506-5.287-18.071,3.335-20.255,5.852-2.188-2.517-8.749-11.139-20.259-5.852-9.7,4.456-10.422,14.461-6.337,23.391h-18.42v2.593h19.757a32.834,32.834,0,0,0,5.177,6.754c9.1,9.094,17.08,12.606,20.077,13.694Z" transform="translate(-893.099 83.567)" fill="#fefefe" fill-rule="evenodd"/>
    <path id="Path_88" data-name="Path 88" d="M2187.938,71.932H2184.4l-4.043,4.752-2.041,2.4-.675-2.9-3.183-13.593-3.267,8.605-2.888-.021-1.147-3.158L2163.135,79.5l-2.951-.152-2.559-12.762-2.015,5.1-.346.881H2147.7a27.4,27.4,0,0,0,3.086,3.719c4.541,4.537,10.667,9.377,16.806,11.995,6.139-2.618,12.26-7.454,16.8-11.995.5-.5.987-1.025,1.442-1.564a26.411,26.411,0,0,0,2.1-2.8h0Zm-41.85-1.956h7l3.588-9.061,2.926.2,2.471,12.353,3.588-10.258,2.9-.017,1.21,3.335,3.6-9.444,2.934.148,3.63,15.549,2.466-2.9.46-.54h6.59c3.352-6.543,4.284-14.706-3.529-18.294-3.175-1.459-6.341-1.834-9.486-.139a19.043,19.043,0,0,0-5.342,4.815l-3.5,4.026-3.491-4.026a19.091,19.091,0,0,0-5.338-4.815c-3.149-1.695-6.307-1.324-9.495.135a9.652,9.652,0,0,0-5.283,5.224c-1.666,4.241-.312,9.356,2.1,13.707Z" transform="translate(-921.453 77.204)" fill="#004747" fill-rule="evenodd"/>
    <path id="Path_9738" data-name="Path 9738" d="M2110.252,140.217c8.361,7.737,10.481,8.116,10.422,12.24-.126,9.419-2.783,7.092,17.295,7.2,2.766.017,5.747,2.66,4.018-12.138-1.8-15.359-7.884-9.512-21.73-22.459-1.9-1.779-4.313-3.609-7.716-1.948-.3-.519-4.764-13.112-9.3-9.676-5.924,4.486,2.816,22.9,7.007,26.781Zm65.932,0c-8.361,7.737-10.481,8.116-10.422,12.24.126,9.419,2.783,7.092-17.295,7.2-2.766.017-5.747,2.66-4.018-12.138,1.8-15.359,7.884-9.512,21.73-22.459,1.9-1.779,4.313-3.609,7.716-1.948.3-.519,4.764-13.112,9.3-9.676,5.924,4.486-2.816,22.9-7.007,26.781Z" transform="translate(-897.156 40.733)" fill="#fefefe" fill-rule="evenodd"/>
    <path id="Path_9739" data-name="Path 9739" d="M2126.84,160.719h15.933v-5H2126.84Zm39.645,0h-15.933v-5h15.933Zm16.831-29.159c-2.74,6.151-5.139,11.434-10.924,15.549-9.769,6.944.843,6.113-21.84,6.113,0-14.259,6.257-10.346,16.692-19.289,1.079-.928,6.4-5.384,7.037-5.384,7.981,0-15.06,14.681-7.8,14.681,3.8,0,12.636-14.267,14.381-17.67,7.492-14.592,5.7-1.294,2.445,6Zm-73.306,0c2.74,6.151,5.139,11.434,10.924,15.549,9.769,6.944-.843,6.113,21.84,6.113,0-14.259-6.257-10.346-16.692-19.289-1.08-.928-6.4-5.384-7.037-5.384-7.981,0,15.06,14.681,7.8,14.681-3.8,0-12.636-14.267-14.381-17.67-7.492-14.592-5.7-1.294-2.445,6Z" transform="translate(-900.602 37.168)" fill="#004747" fill-rule="evenodd"/>
  </g>
</svg>
