<svg xmlns="http://www.w3.org/2000/svg" width="108.48" height="108.48" viewBox="0 0 108.48 108.48">
  <g id="Dentistry" transform="translate(-38 -261)">
    <circle id="Ellipse_336" data-name="Ellipse 336" cx="54.24" cy="54.24" r="54.24" transform="translate(38 261)" fill="#004747"/>
    <g id="Path_94" data-name="Path 94" transform="translate(-48949.711 -3746.367)" fill="none" stroke-linecap="round" stroke-linejoin="round" fill-rule="evenodd">
      <path d="M49065.66,4051.169c-11.508,6.759-30.8-14.609-43.66,9.288l1.449,13.881,2.238,12.2,5.711,3.809,2.8-12.874,4.816-12.315h6.711l3.129,6.383,3.359,11.752.895,5.484,3.59-1.674a51.149,51.149,0,0,0,1.789-4.818c.117-.782,2.8-21.713,2.8-21.713l3.91-10.411S49065.766,4051.169,49065.66,4051.169Z" stroke="none"/>
      <path d="M 49038.79296875 4050.795654296875 C 49035.8359375 4050.795654296875 49033.3046875 4051.481201171875 49031.05078125 4052.8916015625 C 49028.42578125 4054.533203125 49026.1328125 4057.146728515625 49024.0546875 4060.87060546875 L 49025.4296875 4074.05322265625 L 49027.5 4085.345458984375 L 49030.06640625 4087.056640625 L 49032.24609375 4077.049072265625 C 49032.265625 4076.94580078125 49032.296875 4076.844482421875 49032.3359375 4076.745849609375 L 49037.15234375 4064.430419921875 C 49037.453125 4063.66357421875 49038.19140625 4063.158935546875 49039.015625 4063.158935546875 L 49045.7265625 4063.158935546875 C 49046.48828125 4063.158935546875 49047.1875 4063.59326171875 49047.5234375 4064.278564453125 L 49050.65234375 4070.661376953125 C 49050.703125 4070.767578125 49050.74609375 4070.878173828125 49050.77734375 4070.991943359375 L 49054.13671875 4082.74365234375 C 49054.16015625 4082.818603515625 49054.17578125 4082.89453125 49054.1875 4082.971435546875 L 49054.65625 4085.84814453125 L 49055.1484375 4085.620361328125 C 49055.77734375 4084.068603515625 49056.4140625 4082.404541015625 49056.51171875 4081.97265625 C 49056.6328125 4081.14013671875 49058.56640625 4066.091064453125 49059.3046875 4060.31787109375 C 49059.32421875 4060.16455078125 49059.36328125 4060.013916015625 49059.41796875 4059.869140625 L 49061.43359375 4054.50244140625 C 49060.98046875 4054.540771484375 49060.515625 4054.559814453125 49060.0390625 4054.559814453125 C 49056.734375 4054.559814453125 49053.31640625 4053.665283203125 49049.69921875 4052.71826171875 C 49046.0859375 4051.77294921875 49042.34765625 4050.795654296875 49038.79296875 4050.795654296875 M 49038.79296875 4048.795654296875 C 49046.14453125 4048.795654296875 49053.7109375 4052.559814453125 49060.0390625 4052.559814453125 C 49061.65625 4052.559814453125 49063.19140625 4052.313232421875 49064.625 4051.695068359375 L 49061.2890625 4060.572265625 C 49061.2890625 4060.572265625 49058.60546875 4081.50341796875 49058.48828125 4082.285400390625 C 49058.37890625 4083.068359375 49056.69921875 4087.10302734375 49056.69921875 4087.10302734375 L 49053.109375 4088.77734375 L 49052.21484375 4083.29345703125 L 49048.85546875 4071.541748046875 L 49045.7265625 4065.158935546875 L 49039.015625 4065.158935546875 L 49034.19921875 4077.474365234375 L 49031.3984375 4090.34814453125 L 49025.6875 4086.53955078125 L 49023.44921875 4074.337890625 L 49022 4060.45703125 C 49026.921875 4051.310302734375 49032.78515625 4048.795654296875 49038.79296875 4048.795654296875 Z M 49065.19921875 4050.16162109375 C 49065.19921875 4050.16162109375 49065.765625 4051.169189453125 49065.66015625 4051.169189453125 C 49065.3203125 4051.368408203125 49064.9765625 4051.54296875 49064.625 4051.695068359375 L 49065.19921875 4050.16162109375 Z" stroke="none" fill="#fff"/>
    </g>
    <path id="Path_95" data-name="Path 95" d="M47707.246,815.639a21.752,21.752,0,0,1,15.508-2.166c8.879,2.045,13.09,8.178,12.488,15.507s-4.437,14.427-6.012,17.673-.836,13.7-1.918,18.868-4.441,12.261-8.668,12.14c-4.2-.115-4.793-3.846-4.793-8.773s-1.09-14.664-3.969-16.951-6.012-.479-7.7,8.293.359,13.827-3.609,16.108-8.168-.115-10.211-6.249-1.57-13.705-1.8-18.268-4.766-10.659-6.5-16.708C47675.012,817.422,47690.727,807.539,47707.246,815.639Zm-12.109,54.536c.047-.795.059-1.65.066-2.093a61.836,61.836,0,0,1,.934-9.009c1.137-5.922,3.9-13.863,11.117-14.179a9.822,9.822,0,0,1,6.449,2.22c4.992,3.95,6.207,14.712,6.3,21.119a25.648,25.648,0,0,0,1.289-3.974c1.238-5.976-.211-14.858,2.4-20.276,2.371-4.926,4.961-9.956,5.414-15.507.43-5.181-2.945-7.905-7.734-9-3.312-.764-7.867-.419-10.859,1.377l-2.883,1.832-3.094-1.517c-10.594-5.193-22.375-1.141-18.539,12.255,1.738,6.073,6.383,11.57,6.711,18.073.281,5.351-.207,11.509,1.508,16.648A9.787,9.787,0,0,0,47695.137,870.174Z" transform="translate(-47614.961 -529.978)" fill="#fff" fill-rule="evenodd"/>
  </g>
</svg>
