<svg xmlns="http://www.w3.org/2000/svg" width="108.482" height="108.482" viewBox="0 0 108.482 108.482">
  <g id="Dermatology" transform="translate(-1190 -1169)">
    <path id="Path_9749" data-name="Path 9749" d="M3110.371,0a54.241,54.241,0,1,1-54.241,54.241A54.242,54.242,0,0,1,3110.371,0Z" transform="translate(-1866.13 1169)" fill="#004747"/>
    <path id="Path_9750" data-name="Path 9750" d="M3104.633,67.727V82.155a1.053,1.053,0,0,1,.139.632,10.407,10.407,0,0,0,.915,2.956,6.952,6.952,0,0,0,.493,1.054,11.334,11.334,0,0,0,1.336,1.758L3115.54,98.9c1.619,2.534,1.48,4.364,1.48,7.673V112.7a3.63,3.63,0,0,0,.843,2.251,3.256,3.256,0,0,0,1.69.987c.139.072.072.072.211.139h23.792c.139-.139.072-.072.35-.139a3.169,3.169,0,0,0,2.041-1.758c.493-.987.35-2.606.35-3.942a8.1,8.1,0,0,1,1.408-.35c.561-.072.915-.211,1.476-.282a6.494,6.494,0,0,1,.633-.211l2.041-.7a33.159,33.159,0,0,0,3.521-1.83c.422-.211.7-.493,1.126-.7.843.561,8.656,8.867,9.714,9.5.493.282.7.211.915.422h1.2c.139-.139.072-.072.282-.139.139-.072.211-.072.35-.139a3.71,3.71,0,0,0,1.619-1.337,13.169,13.169,0,0,0,.987-.915c.422-.561.422-1.054.632-1.337v-1.2c-.139-.139-.072-.072-.139-.211-.139-.35,0-.282-.282-.7-.632-1.054-8.938-8.867-9.5-9.714.139-.282.35-.493.493-.776a23.73,23.73,0,0,0,1.758-3.166c.139-.282.211-.565.35-.843.211-.632.422-1.2.632-1.758a25.378,25.378,0,0,0,.987-5.207l.072-2.323c0-.493-.072-.632-.072-1.126a30.172,30.172,0,0,0-.632-4.292,23.372,23.372,0,0,0-3.027-6.758c-.35-.565-.632-.987-.987-1.48a26.482,26.482,0,0,0-2.251-2.606l-.633-.632-2.745-2.112a4.465,4.465,0,0,0-.7-.493c-.632-.35-1.547-.915-2.395-1.337-.282-.139-.561-.211-.843-.35-1.337-.565-1.48-.422-1.48-.987V61.745c0-3.1.282-5.561-2.251-7.53a5.529,5.529,0,0,0-5.7-.7c-.633.282-1.054.7-1.48.915a2.458,2.458,0,0,0-.282-.632,5.514,5.514,0,0,0-6.4-2.816,6.782,6.782,0,0,0-1.269.493c-.211.139-.35.211-.561.35a1.239,1.239,0,0,1-.493.35,5.992,5.992,0,0,0-3.588-3.449c-.493-.139-.493,0-.776-.211H3126.3a2.122,2.122,0,0,1-.7.211,5.118,5.118,0,0,0-2.605,1.691l-.776.915c-.282-.211-.493-.422-.776-.632a5.521,5.521,0,0,0-6.194-.211l-1.125.915a7.246,7.246,0,0,0-1.126,1.619,5.627,5.627,0,0,0-.421,1.547,43.456,43.456,0,0,0-.072,5.279,7.945,7.945,0,0,0-3.588,1.337c-3.942,2.395-4.014,6.194-4.292,6.548Z" transform="translate(-1894.176 1140.943)" fill="#fff" fill-rule="evenodd"/>
    <path id="Path_9751" data-name="Path 9751" d="M3125.759,59.492a1.054,1.054,0,0,0,1.054-.843c.283-.776-.139-1.691.35-2.745a3.416,3.416,0,0,1,4.436-1.758,8.4,8.4,0,0,1,.843.565c2.184,2.184.632,4.435,1.408,5.489a1.255,1.255,0,0,0,.915.422c1.48,0,.843-1.547,1.619-2.884a3.331,3.331,0,0,1,4.929-.843c2.323,2.041.776,4.364,1.547,5.489a1.1,1.1,0,0,0,1.691.139c.493-.493.282-1.476.843-2.534,1.619-2.888,6.265-1.619,6.265,1.83v4.929c0,.422-.843,0-1.2-.072-.565-.072-.915-.139-1.408-.211a22.136,22.136,0,0,0-3.027-.211c-.565,0-.915.072-1.408.072a8.129,8.129,0,0,0-1.336.139c-.493.072-.843.072-1.337.139-1.2.282-2.323.565-3.449.915a24.049,24.049,0,0,0-12.319,9.5,24.591,24.591,0,0,0-3.521,9.575l-.211,1.265a22.882,22.882,0,0,0,.632,7.673l1.48,4.364a16.517,16.517,0,0,0,1.054,1.9l.565.915c.211.282.35.565.561.843a16.4,16.4,0,0,0,1.619,2.112c.139.139.282.211.35.35a21.068,21.068,0,0,0,2.251,2.112,23.036,23.036,0,0,0,15.064,5.418c1.48,0,1.126-.561,1.126,2.112a1.136,1.136,0,0,1-1.054,1.269h-22.666a1.365,1.365,0,0,1-.915-.565,2.341,2.341,0,0,1-.139-1.265v-8.588a9.505,9.505,0,0,0-.421-2.462l-.493-1.691c-.422-.776-.843-1.476-1.337-2.251-.987-1.408-3.87-4.857-5.068-6.4-.422-.561-.843-.987-1.265-1.547l-.632-.843a6.046,6.046,0,0,0-.632-.776,10.169,10.169,0,0,1-2.534-6.054V71.676a6.324,6.324,0,0,1,.565-2.462c.776-1.969,3.166-3.87,5.068-3.942V80.9a1.151,1.151,0,0,0,2.251.282c.072-.565,0-12.952,0-13.8,0-1.337-.139-8.8.139-9.714a3.314,3.314,0,0,1,.633-1.337c.071-.072.139-.211.21-.282l.139-.139a3.34,3.34,0,0,1,5.633,2.462,1.112,1.112,0,0,0,1.126,1.126Z" transform="translate(-1897.282 1137.845)" fill="#004747"/>
    <path id="Path_9752" data-name="Path 9752" d="M3144.931,106.993c.072-.35.139-.843.211-1.126a15.5,15.5,0,0,1,1.2-4.014c.139-.35.211-.565.35-.915a26.209,26.209,0,0,1,2.462-4.081,22.091,22.091,0,0,1,7.108-5.911,20.118,20.118,0,0,1,4.718-1.758,20.856,20.856,0,0,1,8.1-.422c.35.072.776.139,1.125.211l2.112.493a18.288,18.288,0,0,1,3.238,1.269A27.274,27.274,0,0,1,3178.5,92.5c.915.632,1.2.987,1.83,1.48.139.139.211.139.35.282a24.217,24.217,0,0,1,3.027,3.52l.987,1.619c.139.282.35.565.493.843l.776,1.83a3.95,3.95,0,0,1,.35.987l.776,2.534a19.87,19.87,0,0,1,.35,2.884,20.31,20.31,0,0,1-1.48,9.432,21.1,21.1,0,0,1-5.418,7.813c-.139.211-.211.211-.35.35a20.762,20.762,0,0,1-3.521,2.462,1.538,1.538,0,0,1-.422.282l-3.166,1.408a31.072,31.072,0,0,1-3.167.776,22.587,22.587,0,0,1-6.548.211,21.132,21.132,0,0,1-9.431-3.731,19.5,19.5,0,0,1-5.279-5.207,20.018,20.018,0,0,1-2.745-5.14c-.211-.7-.422-1.337-.565-2.041a22.117,22.117,0,0,1-.633-5.7l.211-2.395Z" transform="translate(-1917.369 1117.795)" fill="#004747"/>
    <path id="Path_9753" data-name="Path 9753" d="M3152.288,112.716a17.47,17.47,0,0,1,1.758-7.18,17.053,17.053,0,0,1,3.871-5.068,15.315,15.315,0,0,1,5.633-3.31,18.405,18.405,0,0,1,4.574-.987h1.126c1.336-.139,1.619-2.251-.35-2.251A19.692,19.692,0,0,0,3152.853,103a19.325,19.325,0,0,0-2.606,7.391,19.075,19.075,0,0,0,2.884,13.091,17.152,17.152,0,0,0,3.87,4.292,18.151,18.151,0,0,0,4.225,2.745,19.446,19.446,0,0,0,15.979-.072c.282-.139.493-.282.776-.422a2.293,2.293,0,0,0,.422-.211,17.629,17.629,0,0,0,4.292-3.238c5.633-5.633,7.391-14.643,3.731-21.751a18.605,18.605,0,0,0-4.081-5.7,17.318,17.318,0,0,0-4.364-3.027,16.16,16.16,0,0,0-3.449-1.408,3.379,3.379,0,0,0-.987-.211,1.145,1.145,0,0,0-.422,2.112,8.094,8.094,0,0,0,1.408.422c.139.072.283.072.283.282V110.1a7.265,7.265,0,0,1-.7,3.166c-.072.211-.139.35-.211.565l-.987,2.041c-.139.422-.282.7-.422,1.054a6.976,6.976,0,0,1-.493,1.054c-.843,1.969-1.691,3.52-1.691,5.844v6.054c-.211,0-.282.072-.493.072a13.943,13.943,0,0,1-4.225-.422,14.648,14.648,0,0,1-4.364-1.619l-1.758-1.054c-.211-.139-.422-.282-.633-.422l-1.125-.915c-.632-.561-1.83-2.112-2.395-2.745a16.959,16.959,0,0,1-3.027-10.064Z" transform="translate(-1920.435 1114.678)" fill="#fff" fill-rule="evenodd"/>
    <path id="Path_9754" data-name="Path 9754" d="M3170.557,126.157c0,.7-.139,2.112,1.126,2.112,1.547,0,1.2-2.534.843-2.956A1.11,1.11,0,0,0,3170.557,126.157Zm-4.507-6.9c0,.843-.139,1.408.282,1.9a1.153,1.153,0,0,0,1.969-.915c0-.7.139-2.112-1.126-2.112A1.112,1.112,0,0,0,3166.05,119.259Zm0-5.633c0,.776-.211,2.251,1.126,2.251a1.555,1.555,0,0,0,.843-.35c.422-.493.633-3.027-.776-3.027a1.131,1.131,0,0,0-1.2,1.126Zm13.513-7.741c0,.7-.139,2.112,1.126,2.112,1.336,0,1.125-1.48,1.125-2.251A1.129,1.129,0,1,0,3179.563,105.885Zm0,5.633c0,.7-.139,2.112,1.126,2.112,1.336,0,1.125-1.48,1.125-2.251A1.129,1.129,0,1,0,3179.563,111.518Zm-13.513,13.374c0,.843-.211,2.251,1.2,2.251a1.187,1.187,0,0,0,1.054-1.265c0-.7.072-1.337-.282-1.758a1.143,1.143,0,0,0-1.969.776Zm9.01,4.646c0,.7-.072,1.265.282,1.691a1.106,1.106,0,0,0,1.691.072,2.983,2.983,0,0,0,0-2.673,1.149,1.149,0,0,0-1.969.915Zm4.507-12.387c0,.7-.072,1.269.282,1.691a1.026,1.026,0,0,0,1.619.072c.493-.493.35-1.054.35-1.9A1.129,1.129,0,1,0,3179.567,117.151Zm-4.507-10.136c0,.7-.139,2.112,1.126,2.112s1.125-1.408,1.125-2.112a1.134,1.134,0,1,0-2.251,0Zm0,16.894c0,.7-.139,2.112,1.126,2.112s1.125-1.408,1.125-2.112a1.134,1.134,0,1,0-2.251,0Zm-4.5-9.01c0,.7-.072,1.265.282,1.691a1.11,1.11,0,0,0,1.969-.843c0-.7.072-1.337-.282-1.758a1.148,1.148,0,0,0-1.969.915Zm4.5-2.251c0,.7-.072,1.265.282,1.691a1.11,1.11,0,0,0,1.969-.843c0-.7.139-2.112-1.125-2.112A1.152,1.152,0,0,0,3175.06,112.648Zm0,5.633c0,.7-.139,2.112,1.126,2.112,1.547,0,1.2-2.534.843-2.956A1.11,1.11,0,0,0,3175.06,118.281Zm-4.5-9.01c0,.7-.139,2.112,1.125,2.112,1.547,0,1.2-2.534.843-2.956A1.11,1.11,0,0,0,3170.557,109.271Zm0,11.261c0,.7-.139,2.112,1.125,2.112,1.547,0,1.2-2.534.843-2.956A1.111,1.111,0,0,0,3170.557,120.532Z" transform="translate(-1929.693 1108.485)" fill="#fff" fill-rule="evenodd"/>
    <path id="Path_9755" data-name="Path 9755" d="M3203.48,129.66a8.012,8.012,0,0,1,.7-3.1l2.041-4.575a13.347,13.347,0,0,0,1.758-6.687V104.11a13.027,13.027,0,0,1,2.745,1.691l1.2,1.054.35.35.7.776a23.993,23.993,0,0,1,2.323,3.592,17.568,17.568,0,0,1,1.269,11.118,16.807,16.807,0,0,1-2.18,5.279,10.585,10.585,0,0,1-.776,1.126,10.962,10.962,0,0,1-.843.987l-.915.987a3378889454548.2,3378889454548.2,0,0,0-.986.843,16.524,16.524,0,0,1-4.646,2.816c-.493.139-.915.35-1.408.493-.565.139-1.336.422-1.336.072V129.66Z" transform="translate(-1951.355 1108.784)" fill="#004747"/>
    <path id="Path_9756" data-name="Path 9756" d="M3235.129,181.451a20.568,20.568,0,0,1,2.534-2.462l.565.632a.233.233,0,0,1,.139.072l.072.072a7.943,7.943,0,0,1,.776.776c.561.493.987.987,1.547,1.48,3.31,3.31,3.521,3.027,1.969,4.575-1.408,1.337-1.336,1.2-3.027-.493l-3.87-3.87c-.211-.211-.633-.493-.7-.776Zm-3.1-3.1c.7-.493,2.323-2.323,2.534-2.462l.915.915c.072.072.139.072.211.139a.91.91,0,0,1,.282.422,21.183,21.183,0,0,1-2.534,2.462l-.211-.211-.843-.915a.824.824,0,0,1-.35-.35Z" transform="translate(-1967.868 1067.268)" fill="#004747" fill-rule="evenodd"/>
  </g>
</svg>
