<svg xmlns="http://www.w3.org/2000/svg" width="108.482" height="108.482" viewBox="0 0 108.482 108.482">
  <g id="Endocrinology_And_Metabolism_Diseases" data-name="Endocrinology And Metabolism Diseases" transform="translate(-595 -261)">
    <path id="Path_9574" data-name="Path 9574" d="M54.241,351.63A54.241,54.241,0,1,1,0,405.871,54.242,54.242,0,0,1,54.241,351.63Z" transform="translate(595 -90.63)" fill="#004747"/>
    <path id="Path_9575" data-name="Path 9575" d="M95.647,445.069a51.689,51.689,0,0,0,1.514,9.082,11.624,11.624,0,0,1-5.3-9.082h-10.6c-1.53,2.285-1.24,2.492-2.488,5.085-1.155,2.407-1.067,2.576-3.571,3.242,4.123-8.593-2.42-34.556-9.086-36.335-2.711,1.817-2.77,2.918-3.634,6.206-2.159,8.2-5.637,12.459-7.117,21.709-2,12.484,9.984,19.774,17.565,19.774,4.667,0,4.629-2.66,6.4-5.709,2.289-3.934,10.013-4.182,12.67-2.007,2.057,1.682.8,1.041,1.716,3.584,3.47,9.621,25.655,1.446,23.206-16.338-.654-4.731-5.03-16.127-7.151-22.426-1.5-4.448-4.208-7-7.113-2.31-2.964,4.79-7.024,19.466-7.024,25.529Zm-5.376,17.021c-.017-.072-.034-.139-.055-.211l-.008-.025-.021-.063-.025-.072-.025-.072h0l-.03-.072-.021-.055-.008-.017-.03-.067v0l-.03-.063-.008-.021-.021-.046-.034-.067v0l-.034-.063-.038-.063v0l-.038-.059-.038-.063-.03-.046-.008-.013-.034-.055,0-.008-.042-.059-.03-.038-.017-.021-.042-.059-.042-.055h0l-.046-.055-.034-.042-.013-.013-.046-.051,0,0-.008-.008-.067-.072-.008-.008-.013-.013-.051-.051-.025-.021,0,0-.072-.067-.013-.013-.008,0-.084-.072-.055-.042-.042-.034-.013-.008L88.9,460l-.03-.021-.025-.017-.055-.038-.055-.034h0l-.055-.034,0,0-.008,0-.093-.055-.008,0-.059-.03-.034-.017-.025-.013-.059-.03-.021-.008-.038-.017-.059-.025-.008,0-.051-.021-.051-.021-.008,0c-.059-.021-.118-.042-.177-.059l-.025-.008-.034-.008-.059-.017-.013,0-.017,0-.089-.017h0l-.089-.013-.013,0-.017,0-.059-.008-.03,0-.03,0-.059,0H84.475l-.105,0h-.008l-.093,0h-.034l-.067,0-.055,0H84.07l-.076,0h-.017l-.093,0h0l-.084.008-.08.008h-.008l-.046,0-.038,0-.063.008-.017,0-.08.013h0l-.072.013-.021,0-.055.008-.034.008-.034.008-.051.013-.017,0-.063.017h0l-.063.021-.013,0-.046.017h0l-.055.021h0l-.055.025-.051.025h0l-.051.03-.042.025-.008,0-.038.025-.008,0a1.025,1.025,0,0,0-.16.139h0a.615.615,0,0,0-.067.08l-.008.013a1.568,1.568,0,0,0-.232.476l0,.013a2.654,2.654,0,0,0-.08.358,3.277,3.277,0,0,0-.835,2.365,4.576,4.576,0,0,0,4.575,4.575,5.088,5.088,0,0,0,1.113-.122h0l.021,0,.084.021.084.021.169.038c.135-.118.342-.257.426-.329h0a4.355,4.355,0,0,0,2.673-4.208,4.04,4.04,0,0,0-.118-.991v0l-.017-.076-.017-.076ZM75.966,418.574c4.09,0,6.78-1.514,9.841-1.514,8.673,0,10.667,6.177,14.124-4.052,1.223-3.622,2.466-5.064.135-7.88a11.332,11.332,0,0,0-8.2-3.963c-2.644,0-2.45,2.618-3.112,5.215-.793,3.107-.379,3.668-2.943,5.384-2.273-3.4-1.653-5.232-3.179-9-1.4-3.449-4.785-1.9-7.893.2C66.661,408.426,75.212,418.574,75.966,418.574Zm5.3,22.708c4.747,1.1,5.093,1.1,9.841,0,.949-4.064,3.027-14.575,3.027-18.922-5.1-1.189-9.777-2.934-15.895,0C78.239,426.711,80.322,437.222,81.266,441.283Z" transform="translate(563.105 -119.03)" fill="#fff" fill-rule="evenodd"/>
  </g>
</svg>
