<svg xmlns="http://www.w3.org/2000/svg" width="108.48" height="108.479" viewBox="0 0 108.48 108.479">
  <g id="Gastroenterology_And_Hepatology" data-name="Gastroenterology And Hepatology" transform="translate(-1304 -2385)">
    <path id="Path_9815" data-name="Path 9815" d="M4545.074,1258.33a51.746,51.746,0,1,0-15.156,36.587A51.587,51.587,0,0,0,4545.074,1258.33Zm-13.392-38.352a54.235,54.235,0,1,1-38.352-15.887A54.071,54.071,0,0,1,4531.682,1219.978Z" transform="translate(-3135.09 1180.91)" fill="#004747"/>
    <path id="Path_9816" data-name="Path 9816" d="M45.7,34.395c.9-6.669-2.879-10.536-6.983-12.065V4.6h-.012a4.7,4.7,0,0,0-9.4,0H29.3V17.289a21.535,21.535,0,0,0-4.2-.09,63.909,63.909,0,0,1-7.837-.064c-4.164-.927-9.83-2.166-13.649.9C1.182,19.994,0,23.184,0,27.793c0,4.672.219,7.953,1.24,10.114a3.064,3.064,0,0,0-.6,1.034,11.533,11.533,0,0,0,3.487,12.6c.249.209.508.408.76.582a11.084,11.084,0,0,0,1.1.686,9.439,9.439,0,0,0-3.466,3.16,9.614,9.614,0,0,0,2.022,12.87,5.28,5.28,0,0,0-3.6,5.584,5.615,5.615,0,0,0,5.9,5.065H34.994c5.3,0,9.941-4.284,9.941-9.166,0-3.233-.91-5.759-2.706-7.508a8.447,8.447,0,0,0-2.113-1.495,9.693,9.693,0,0,0,2.427-14.8,4.867,4.867,0,0,0-.639-.67c-.15-.138-.787-.671-1.025-.838a9.832,9.832,0,0,0-2.2-1.158c4.223-2.078,6.433-5.1,7.021-9.456" transform="translate(1335.8 2399.729)" fill="#004747"/>
    <path id="Path_9818" data-name="Path 9818" d="M2.98,35.409a8.62,8.62,0,0,0,2.625,9.466c.187.155.381.3.579.441,2.471,1.739,4.71,1.533,8.733,1.533H35.712c1.133,1.686,1.133,1.473,0,3.158H16.237c-4.848,0-8.995-.912-11.7,3.038A6.751,6.751,0,0,0,6.4,62.41a6.556,6.556,0,0,0,.706.412c2.537,1.261,5.283.869,8.87.869H35.716c.625.932.793.416.793,1.845,0,2.082-5.751,1.313-7.9,1.313L5.5,66.9c-3.072.582-2.77,5.212,1,5.212H34.663c3.984,0,7.108-3.163,7.108-6.315,0-8.9-8-7.371-14.479-7.371l-15.535.009c-2.2.024-2.985-.091-3.153-2.112,1.175-1.352,1.562-1.065,3.945-1.056H27.817c3.043,0,7.146.483,9.559-.445a6.832,6.832,0,0,0,2.656-10.978,2.76,2.76,0,0,0-.387-.4c-.071-.067-.612-.516-.722-.593a7.223,7.223,0,0,0-1.94-.96,49.187,49.187,0,0,0-7.9-.392c-.636.105-1.27.2-1.9.287a31.942,31.942,0,0,1-11.642-.2,41.87,41.87,0,0,1-5.059-.052c-2.843-.463-3.339-3.769-1.973-5.494a7.78,7.78,0,0,1-.383-3.018c-3.712,5.425-4.823,1.441-5.154,2.388" transform="translate(1336.132 2404.234)" fill="#fff" fill-rule="evenodd"/>
    <path id="Path_9819" data-name="Path 9819" d="M29.468,18.455c-.254-1.5-5.355-.126-12.965-.76-6.788-1.509-14-2.908-14,7.829,0,5.1.254,8.513,1.541,9.738s5.155-5.67,6.711-6.935,7.338-2.567,8.822-2.857,3.136-2.546,4.447-3.181c3.937-1.908,5.648-2.633,5.447-3.833" transform="translate(1336.12 2402.002)" fill="#fff"/>
    <path id="Path_9817" data-name="Path 9817" d="M34.633,24.092V4.548h0a1.877,1.877,0,0,0-3.754,0h0v19.61a19.135,19.135,0,0,0-8.414,4.352C21.135,29.8,14.618,30.1,11.8,32.731c-4.787,4.482-3.3,13.3,14.155,10.853,11.422-1.6,14.981-4.768,15.688-9.993.846-6.238-3.359-8.88-7.009-9.5" transform="translate(1337.064 2400.127)" fill="#00f3bb"/>
    <rect id="Rectangle_3197" data-name="Rectangle 3197" width="45.839" height="79.487" transform="translate(1335.8 2399.729)" fill="none"/>
  </g>
</svg>
