<svg xmlns="http://www.w3.org/2000/svg" width="108.482" height="108.482" viewBox="0 0 108.482 108.482">
  <g id="General_Surgery" data-name="General Surgery" transform="translate(-718 -1633)">
    <path id="Path_9592" data-name="Path 9592" d="M1308.642,406.652l4.988,4.828-6.181,5.97-4.612-4.688,5.806-6.113Zm10.882,6.78q-3.858,3.421-7.707,6.843l5.658,5.806-1.193,8.394c9.685,11.974,25.778,20.528,41.5,16.945l-38.262-37.988Zm-22.27-18.037,9.217,9.364-5.624,5.839-9-8.892-1.859,2.171,17.366,17.64,10.14-10.14-18.21-18.349-2.032,2.374Z" transform="translate(-548.16 1257.425)" fill="#004747"/>
    <path id="Path_9593" data-name="Path 9593" d="M1331.995,452.664l31.486,31.208c-10.718.569-26-8.019-31.651-16.46l.919-8.373-3.795-3.866,3.036-2.513Z" transform="translate(-560.509 1222.936)" fill="#00f3bb"/>
    <path id="Path_9591" data-name="Path 9591" d="M1287.711,354.122a51.572,51.572,0,1,0,20.141,4.064,51.393,51.393,0,0,0-20.141-4.064Zm0-2.492a54.241,54.241,0,1,1-54.241,54.241A54.242,54.242,0,0,1,1287.711,351.63Z" transform="translate(-515.47 1281.37)" fill="#004747"/>
    <path id="Path_9826" data-name="Path 9826" d="M1321.041,486.364h4.41v-3.086h-4.41Zm-9.7,0h4.849v-3.086h-4.849Zm28.219,0h4.849v-3.086h-4.849Zm-9.259,0h4.849v-3.086H1330.3Z" transform="translate(-560.509 1222.936)" fill="#00465c"/>
    <path id="Path_9860" data-name="Path 9860" d="M1331.995,452.664l31.486,31.208c-10.718.569-26-8.019-31.651-16.46l.919-8.373-3.795-3.866,3.036-2.513Z" transform="translate(-560.509 1222.936)" fill="#00f3bb"/>
  </g>
</svg>
