<svg xmlns="http://www.w3.org/2000/svg" width="108.482" height="108.482" viewBox="0 0 108.482 108.482">
  <g id="Gynecology_And_Obstetrics" data-name="Gynecology And Obstetrics" transform="translate(-1190 -258)">
    <path id="Path_9729" data-name="Path 9729" d="M2122.071,351.63a54.241,54.241,0,1,1-54.241,54.241A54.242,54.242,0,0,1,2122.071,351.63Z" transform="translate(-877.83 -93.63)" fill="#004747"/>
    <path id="Path_9730" data-name="Path 9730" d="M2128.632,439.8a7.026,7.026,0,0,0-1.834-4.587c-2.2-2.568-2.2-.367-2.568-3.668-1.72-12.383-14.988-12.32-13.024-18.344,1.282-4.035,4.769-2.568,7.155-2.02,5.5,1.653,3.854.734,5.321,3.12,6.054,8.808,10.642,6.421,13.576,11.742,2.2,3.668,3.3,10.275,1.286,13.391-1.653,2.386-5.5,1.834-5.5,8.255,0,1.1,3.668,17.8,4.4,19.445,1.286,4.035,5.688,3.3,9.355,3.3,4.769,0,4.954-4.4,5.688-6.974q1.1-5.23,2.2-10.456c.919-4.035,2.2-6.788-.186-9.908-3.1-4.435-5.135-.7-5.135-9.908,0-10.966,8.7-10.237,13.576-16.144,5.35-6.484.894-3.8,8.622-6.054,6.6-2.2,7.34,4.035,4.954,6.236-2.787,2.319-11.923,6.35-11.923,15.962a13.732,13.732,0,0,0-3.12,2.568c-4.22,5.869,2.2,12.842,7.34,7.522,5.633-5.464-1.467-10.271-1.467-10.275,0-6.936,6.674-10.764,10.456-13.391a6.554,6.554,0,0,0-.548-11.008c-3.3-2.2-7.34.186-11.375,1.1-.919-3.668-2.02-4.22-5.135-6.421-18.159-13.4-38.46,3.9-38.894,6.054-1.834,0-5.557-2.547-8.989-1.282a6.481,6.481,0,0,0-1.653,11.557c6.173,4.971,8.285,3.592,10.456,13.576-11.649,7.766,6.969,18.56,6.969,6.6Z" transform="translate(-901.256 -120.59)" fill="#fff" fill-rule="evenodd"/>
    <path id="Path_9731" data-name="Path 9731" d="M2147.34,414.163c2.15,2.867,1.846,4.351,5.688,7.336,4.035,2.934,6.236,2.02,9.722,7.522,2.02,3.487,2.568,8.622,1.834,12.657a7.412,7.412,0,0,1-2.753,4.768c-1.653,1.286-3.487,1.1-3.487,5.135l4.22,18.53c.734,2.02,3.487,1.467,6.973,1.467a1.932,1.932,0,0,0,1.653-.919l3.866-17.451c.561-2.525.573-3.175.354-3.832a3.661,3.661,0,0,0-1.467-1.834c-2.2-1.653-4.769-2.568-4.769-8.074,0-3.487,0-5.869,1.467-8.989a14.32,14.32,0,0,1,5.688-6.6c2.934-1.467,4.587-1.467,7.522-5.135,2.568-3.3,2.386-2.934,1.653-5.5-.367-1.282-.367-1.282-1.834-2.386a5.726,5.726,0,0,1-1.1-.919,24.1,24.1,0,0,0-13.943-4.954c-6.055,0-7.707.367-13.4,3.3-2.02,1.1-6.788,4.22-7.888,5.869Z" transform="translate(-923.817 -124.487)" fill="#004747" fill-rule="evenodd"/>
    <path id="Path_9732" data-name="Path 9732" d="M2237.85,491.688c0,2.753,3.12,3.487,4.769.367,1.286-2.2-.734-6.054-3.12-3.668a3.7,3.7,0,0,0-1.1,1.286,6.561,6.561,0,0,0-.548,2.02Z" transform="translate(-976.167 -172.292)" fill="#fff" fill-rule="evenodd"/>
    <path id="Path_9733" data-name="Path 9733" d="M2137.764,489.95c0,4.4,5.135,5.5,5.135,1.834a5.111,5.111,0,0,0-2.02-4.035c-1.834-1.1-3.12,1.467-3.12,2.2Z" transform="translate(-918.276 -172.203)" fill="#fff" fill-rule="evenodd"/>
    <path id="Path_9734" data-name="Path 9734" d="M2161.27,421.452c2.02,2.2,2.567,3.12,5.5,4.22a21.351,21.351,0,0,1,5.688,4.035l2.753,3.854a17.693,17.693,0,0,1,2.567-3.854c4.587-4.4,4.587-2.934,7.889-5.135.919-.548,2.934-2.2,3.12-3.487a26.981,26.981,0,0,1-2.568-1.653,8.01,8.01,0,0,0-2.753-1.467,22.4,22.4,0,0,0-16.877,0c-1.653.734-4.4,2.2-5.321,3.487Z" transform="translate(-931.874 -131.043)" fill="#fff" fill-rule="evenodd"/>
    <path id="Path_9735" data-name="Path 9735" d="M2170.268,434.556c-1.446,0-1.868-6.409-8.255-9.722-.734-.367-1.653-.734-2.386-1.1a16.944,16.944,0,0,1-4.035-3.12,15.468,15.468,0,0,1-1.467-2.2c-.919-1.282-.367-2.02,1.1-3.12,1.484-1.286.506-.915,3.12-2.2,4.954-2.934,8.07-3.3,13.943-3.3,6.6,0,15.41,5.5,15.41,7.522,0,1.286-2.934,4.22-3.668,4.954-3.12,2.568-6.236,2.02-9.908,6.974-2.753,3.854-1.286,5.321-3.854,5.321Z" transform="translate(-927.481 -127.269)" fill="#fff" fill-rule="evenodd"/>
  </g>
</svg>
