<svg xmlns="http://www.w3.org/2000/svg" width="108.482" height="108.482" viewBox="0 0 108.482 108.482">
  <g id="Hematology" transform="translate(-1190 -1321)">
    <path id="Path_9740" data-name="Path 9740" d="M3112.077,455.934a52.824,52.824,0,1,1,20.625-4.166A52.632,52.632,0,0,1,3112.077,455.934Z" transform="translate(-1867.836 972.3)" fill="#fff"/>
    <path id="Path_9741" data-name="Path 9741" d="M3110.371,347a54.241,54.241,0,1,1-54.241,54.241A54.242,54.242,0,0,1,3110.371,347Z" transform="translate(-1866.13 974)" fill="#004747"/>
    <path id="Path_9742" data-name="Path 9742" d="M3139.523,383.554a120.792,120.792,0,0,0,9,17.312c4.069,6.818,7.538,12.627,8.517,20.027.245,1.847.409,3.719.485,5.586.278,6.788-.615,13.513-3.091,18.77-2.58,5.477-6.834,9.381-13.2,10.22-.561.076-1.138.122-1.733.148a31.61,31.61,0,0,1-8.044-.649,23.145,23.145,0,0,1-13.66-8.428,25.594,25.594,0,0,1-5.118-14.736,32.049,32.049,0,0,1,.738-8.188c1.754-8.006,6.678-14.124,11.687-20.347,4.747-5.9,9.579-11.894,11.531-19.525a1.522,1.522,0,0,1,1.855-1.1,1.541,1.541,0,0,1,1.041.911Z" transform="translate(-1898.82 953.413)" fill="#fff" fill-rule="evenodd"/>
    <path id="Path_9743" data-name="Path 9743" d="M3150.085,410.471a140.443,140.443,0,0,1-7.593-13.981c-2.509,6.4-6.7,11.6-10.827,16.734-4.777,5.936-9.478,11.771-11.076,19.074a29.246,29.246,0,0,0-.679,7.42A22.573,22.573,0,0,0,3124.4,452.7a20.117,20.117,0,0,0,11.89,7.307,28.7,28.7,0,0,0,7.281.59c.5-.021.987-.063,1.459-.126,5.186-.687,8.681-3.929,10.831-8.5,2.251-4.785,3.065-11.008,2.8-17.345-.072-1.771-.228-3.55-.464-5.312-.894-6.767-4.216-12.328-8.112-18.855Z" transform="translate(-1903.007 945.376)" fill="#004747" fill-rule="evenodd"/>
    <path id="Path_9744" data-name="Path 9744" d="M3176.366,480.435c.392-.194.649-.455,1.041-.649.78.519,7.994,8.188,8.968,8.774.455.261.649.194.843.388h1.1c.131-.131.063-.063.261-.131.131-.067.194-.067.324-.131a3.416,3.416,0,0,0,1.493-1.235c.325-.261.649-.586.911-.843.392-.519.392-.974.586-1.235v-1.1c-.131-.131-.063-.063-.131-.194-.131-.325,0-.261-.261-.649-.586-.974-8.251-8.188-8.774-8.968.131-.261.325-.455.456-.717a21.538,21.538,0,0,0,1.623-2.922c.131-.261.194-.519.325-.78.194-.586.388-1.1.586-1.623a23.334,23.334,0,0,0,.911-4.811l.063-2.142c0-.455-.063-.586-.063-1.041a27.934,27.934,0,0,0-.586-3.963c-3.107-12.041-16.063-18.981-28.134-15.2a21.694,21.694,0,0,0-14.229,25.858c1.7,5.03,3.111,8.221,7.277,11.632C3158.78,485.111,3167.828,485.461,3176.366,480.435Z" transform="translate(-1916.39 920.081)" fill="#fff" fill-rule="evenodd"/>
    <path id="Path_9745" data-name="Path 9745" d="M3148.17,461.829c.063-.325.131-.78.194-1.041a14.338,14.338,0,0,1,1.1-3.7c.131-.325.194-.519.325-.843a24.309,24.309,0,0,1,2.272-3.769,20.36,20.36,0,0,1,6.565-5.46,18.487,18.487,0,0,1,4.355-1.623,19.3,19.3,0,0,1,7.471-.388c.325.063.717.131,1.041.194l1.948.455a17.226,17.226,0,0,1,2.989,1.168,25.394,25.394,0,0,1,2.728,1.623c.843.586,1.1.911,1.691,1.366.131.131.194.131.325.261a22.252,22.252,0,0,1,2.8,3.251l.911,1.493c.131.261.324.519.455.78l.717,1.691a3.62,3.62,0,0,1,.325.911l.717,2.34a20.883,20.883,0,0,1-1.042,11.371,19.479,19.479,0,0,1-5,7.214c-.131.194-.194.194-.325.325a19.059,19.059,0,0,1-3.251,2.273,1.459,1.459,0,0,1-.388.261l-2.926,1.3a28.292,28.292,0,0,1-2.922.717,20.614,20.614,0,0,1-6.042.194,19.511,19.511,0,0,1-8.706-3.445,18.161,18.161,0,0,1-4.874-4.806,18.467,18.467,0,0,1-2.534-4.743,19.544,19.544,0,0,1-.519-1.885,20.419,20.419,0,0,1-.586-5.262l.194-2.209Zm3.963,2.4a16.13,16.13,0,0,1,1.624-6.628,15.765,15.765,0,0,1,3.575-4.68,14.092,14.092,0,0,1,5.2-3.052,17.118,17.118,0,0,1,4.225-.911h1.041c1.235-.131,1.493-2.079-.325-2.079a18.178,18.178,0,0,0-14.811,8.382,17.834,17.834,0,0,0-2.4,6.822,17.59,17.59,0,0,0,2.665,12.083,15.873,15.873,0,0,0,3.575,3.963,16.587,16.587,0,0,0,3.9,2.534,17.953,17.953,0,0,0,14.748-.063c.261-.131.455-.261.717-.392a2.057,2.057,0,0,0,.388-.194,16.351,16.351,0,0,0,3.963-2.989c5.2-5.2,6.822-13.517,3.445-20.077a17.228,17.228,0,0,0-3.769-5.262,15.991,15.991,0,0,0-4.027-2.8,14.859,14.859,0,0,0-3.183-1.3,3.232,3.232,0,0,0-.911-.194,1.055,1.055,0,0,0-.388,1.948c6.683,6.818,8.517,28.881-2.6,30.736-.194,0-.262.063-.456.063a12.785,12.785,0,0,1-3.9-.392,13.6,13.6,0,0,1-4.026-1.492l-1.623-.974c-.194-.131-.392-.261-.586-.388l-1.041-.843c-.586-.519-1.691-1.948-2.209-2.534a15.67,15.67,0,0,1-2.8-9.292Z" transform="translate(-1919.254 917.443)" fill="#004747" fill-rule="evenodd"/>
    <path id="Path_9746" data-name="Path 9746" d="M3208.037,391.987a27.684,27.684,0,0,0,2.581,3.736,12.044,12.044,0,0,1,2.546,4.376c.11.422.2.847.274,1.277a9.588,9.588,0,0,1-.168,4.423,3.9,3.9,0,0,1-3.149,2.829,7.355,7.355,0,0,1-1.876.084,5.379,5.379,0,0,1-3.4-1.552,5.957,5.957,0,0,1-1.611-3.255,7.573,7.573,0,0,1-.067-1.91,11.709,11.709,0,0,1,2.108-5.038,12.27,12.27,0,0,0,2.1-4.844.355.355,0,0,1,.4-.308.34.34,0,0,1,.265.181Z" transform="translate(-1951.155 948.087)" fill="#fff" fill-rule="evenodd"/>
    <path id="Path_9747" data-name="Path 9747" d="M3180.14,467.612a31.833,31.833,0,0,0,2.909,4.216,13.627,13.627,0,0,1,2.875,4.937c.122.472.228.957.308,1.438a10.813,10.813,0,0,1-.19,4.992,4.377,4.377,0,0,1-3.1,3.095c-.143.038-.291.072-.447.1a8.293,8.293,0,0,1-2.117.093,6.056,6.056,0,0,1-3.833-1.75,6.726,6.726,0,0,1-1.817-3.672,8.528,8.528,0,0,1-.076-2.159,13.192,13.192,0,0,1,2.378-5.683,13.84,13.84,0,0,0,2.365-5.464.4.4,0,0,1,.447-.346.4.4,0,0,1,.3.2Z" transform="translate(-1934.66 904.362)" fill="#fff" fill-rule="evenodd"/>
  </g>
</svg>
