<svg xmlns="http://www.w3.org/2000/svg" width="108.482" height="108.482" viewBox="0 0 108.482 108.482">
  <g id="Infectious_Diseases" data-name="Infectious Diseases" transform="translate(-595 -413)">
    <path id="Path_9645" data-name="Path 9645" d="M54.241,724.02A54.241,54.241,0,1,1,0,778.261,54.242,54.242,0,0,1,54.241,724.02Z" transform="translate(595 -311.02)" fill="#004747"/>
    <path id="Subtraction_10" data-name="Subtraction 10" d="M2197.647,68.124a1.469,1.469,0,0,1-1.064-.493c-.742-.773-1.105-2.323-1.023-4.365l-1.67-.055c-.579,3.1-2.127,4.506-3.319,4.506a1.478,1.478,0,0,1-1.189-.609c-.694-.887-.8-2.582-.282-4.651L2187.662,62c-1.267,2.682-2.555,4.042-3.828,4.042a3.076,3.076,0,0,1-2.3-1.517l.055-.11c-.568-1.491.5-2.929,1.445-4.2l.019-.026.213-.288c-.329-.241-.64-.492-.906-.708a6.549,6.549,0,0,1-3.943,1.939,1.613,1.613,0,0,1-1.664-1.053c-.323-.964.158-2.738,2.577-4.563l-.485-.746a7.694,7.694,0,0,1-3.524,1.1c-1.132,0-1.907-.491-2.074-1.315a2.737,2.737,0,0,1,.787-2.216,8.924,8.924,0,0,1,3.365-2.282l-.046-.662a9.164,9.164,0,0,1-4.049-.884,2.087,2.087,0,0,1-1.3-1.729c.016-1.116,1.494-2.318,4.7-2.318.409,0,.839.021,1.279.061l.033-.082c.08-.2.17-.416.249-.639-2.944-1.03-4.59-2.3-4.4-3.4.147-.865,1.4-1.423,3.191-1.423a11.486,11.486,0,0,1,3.7.676l.6-.7c-1.932-1.679-2.819-3.076-2.5-3.933.187-.5.778-.777,1.662-.777a8.335,8.335,0,0,1,4.94,2.032l1.037-.7c-2.5-1.778-3-3.584-2.683-4.591a1.653,1.653,0,0,1,1.714-1.108,6.381,6.381,0,0,1,3.772,1.777l.612-1.126c-2.612-1.318-3.835-3.529-3.508-4.905a1.523,1.523,0,0,1,1.642-1.142,6.249,6.249,0,0,1,2.9.959l.27-1.134c-3.2-1.094-4.427-2.8-4.226-4.006.146-.882,1.047-1.43,2.349-1.43a8.269,8.269,0,0,1,3.226.8l.3-.763a8.237,8.237,0,0,1-3.013-1.785,2.131,2.131,0,0,1-.734-1.788c.163-.9,1.184-1.461,2.665-1.461a9.125,9.125,0,0,1,3.24.7l.843-1.058c-2.815-1.5-3.558-3.079-3.315-4.054.2-.817,1.079-1.324,2.283-1.324a7.823,7.823,0,0,1,4.3,1.621l.7-.658a7.185,7.185,0,0,1-2-2.26,2.3,2.3,0,0,1-.247-1.782,1.683,1.683,0,0,1,1.718-1.026c1.4,0,3.083.962,4.611,2.639l1.067-.476c-.878-2.028-1.011-3.756-.365-4.738a1.573,1.573,0,0,1,1.351-.735c1.275,0,2.943,1.319,3.8,4.267l.543-.093c-.141-2.453.647-3.677,1.13-4.189a2.074,2.074,0,0,1,1.487-.71,1.842,1.842,0,0,1,1.364.643,5.49,5.49,0,0,1,.952,4.13l1.509.2a8.069,8.069,0,0,1,1.546-3.371,2.691,2.691,0,0,1,1.939-1.1,1.463,1.463,0,0,1,1.2.624c.665.886.716,2.531.139,4.513l-.025.009c-.021.084-.05.177-.072.251-.018.058-.035.115-.05.17l1.518.7c1.479-2.4,3.225-3.259,4.365-3.259a1.559,1.559,0,0,1,1.494.85c.523,1.07-.033,2.786-1.526,4.707l1.067.911a6.991,6.991,0,0,1,3.966-1.639,1.7,1.7,0,0,1,1.814,1.14,2.6,2.6,0,0,1-.427,2.016,7.416,7.416,0,0,1-2.437,2.29c.254.362.457.669.637.966a7.417,7.417,0,0,1,3.163-.864c1.323,0,2.242.608,2.4,1.586.2,1.246-.9,2.935-3.822,3.9l.287,1.008a10.714,10.714,0,0,1,1.522-.115c2.653,0,3.9,1.132,3.945,2.183.045,1.171-1.334,2.461-4.514,2.7l.173,1.362c.234-.015.461-.023.674-.023,2.9,0,4.243,1.3,4.261,2.5a1.884,1.884,0,0,1-.589,1.359,5.018,5.018,0,0,1-3.588,1.143c-.291,0-.6-.014-.906-.04-.124.743,1.048,1.424,2.289,2.146s2.553,1.486,2.554,2.353c0,.491-.412.97-1.259,1.463a4.344,4.344,0,0,1-2.146.462,10.049,10.049,0,0,1-2.5-.352l-.32.953c3.151,1.021,4.374,2.665,4.188,3.841-.144.91-1.119,1.475-2.547,1.475a9.466,9.466,0,0,1-3.383-.746l-.608,1.168c2.614,1.276,3.519,3,3.255,4.142a1.929,1.929,0,0,1-2.1,1.352,7.388,7.388,0,0,1-3.818-1.388l-.729.84a8.892,8.892,0,0,1,2.317,2.707,2.732,2.732,0,0,1,.3,2.084,1.6,1.6,0,0,1-1.637.987,7.339,7.339,0,0,1-4.4-2.2l-1.118,1.1c1.7,1.656,2.448,3.3,2,4.407a1.688,1.688,0,0,1-1.682.987c-1.44,0-3.069-1.069-4.356-2.86l-.915.713c1.347,1.76,1.841,3.44,1.321,4.493a1.6,1.6,0,0,1-1.5.875,3.5,3.5,0,0,1-1.987-.743,7.893,7.893,0,0,1-2.092-2.39l-1.3.616c.895,2.333,1.037,4.211.391,5.151a1.173,1.173,0,0,1-1,.54c-.928,0-2.464-1.038-3.74-3.963l-1.525.452c.46,2.043.353,3.618-.3,4.436a1.393,1.393,0,0,1-1.115.552,2.9,2.9,0,0,1-2.14-1.356,7.771,7.771,0,0,1-1.378-3.865v0a2.19,2.19,0,0,1-1.483,1.133C2200.329,66.331,2198.918,68.124,2197.647,68.124Zm-4.323-38.515h0a24.936,24.936,0,0,1-8.065,10.225c-2.32,1.892-4.153,3.386-4.717,6.715a9.481,9.481,0,0,0,1.891,8.063c2.74,3.244,8.266,5.105,15.161,5.105a34.822,34.822,0,0,0,8.291-.97,32.072,32.072,0,0,0,20.048-14.71,36.746,36.746,0,0,0,5.546-17.146c.249-6.345-1.788-11.454-5.892-14.775a18.923,18.923,0,0,0-11.911-4.03,17.638,17.638,0,0,0-7.315,1.475c-5.747,2.693-8.293,8.79-11.242,15.851l-.009.021c-.569,1.363-1.157,2.771-1.781,4.18v0Z" transform="translate(-1556.758 433.145)" fill="#fff"/>
    <path id="Path_9648" data-name="Path 9648" d="M104.748,817.763a8.132,8.132,0,0,1,4.874-7.332c9.642-4.14,16.329,9.988,6.421,14.837C111.342,827.57,104.748,824.032,104.748,817.763ZM87.542,846.8c-5.73,0-7.087-5.962-4-9a5.189,5.189,0,0,1,6.548-.519c4.461,2.964,1.754,9.52-2.547,9.52Zm20.921-7.808a2.867,2.867,0,1,1-1.75-2.572,2.87,2.87,0,0,1,1.75,2.572Z" transform="translate(547.613 -360.565)" fill="#fff"/>
  </g>
</svg>
