<svg xmlns="http://www.w3.org/2000/svg" width="108.482" height="108.482" viewBox="0 0 108.482 108.482">
  <g id="Language_And_Speech_Therapy" data-name="Language And Speech Therapy" transform="translate(-718 -2091)">
    <path id="Path_9543" data-name="Path 9543" d="M1418.565,1895.077a11.029,11.029,0,0,1-1.345,13.846l-1.83-1.674a8.557,8.557,0,0,0,1.117-10.772l2.053-1.4Zm6.839-5.637c.025.038,8.989,12.589-2.458,25.112l-1.83-1.674c10.093-11.042,2.277-21.983,2.256-22.017l2.032-1.421Zm-3.4,3.344a14.678,14.678,0,0,1-1.8,18.425l-1.83-1.674a12.2,12.2,0,0,0,1.581-15.338Z" transform="translate(-622.216 256.585)" fill="#00f3bb" fill-rule="evenodd"/>
    <path id="Path_9542" data-name="Path 9542" d="M1291.331,1761.422a51.572,51.572,0,1,0,20.141,4.064,51.395,51.395,0,0,0-20.141-4.064Zm0-2.492a54.241,54.241,0,1,1-54.241,54.241A54.242,54.242,0,0,1,1291.331,1758.93Z" transform="translate(-519.09 332.07)" fill="#004747"/>
    <path id="Exclusion_5" data-name="Exclusion 5" d="M2209.813,69.111l-28.766-.708.031-.2c.963-6.313,2.162-14.169-.406-19.879a39.934,39.934,0,0,0-2.18-3.592,49.021,49.021,0,0,1-5.208-11.582c-1.889-6.794-1.706-12.485.561-17.4,2.175-4.714,6.247-8.654,12.45-12.046a30.02,30.02,0,0,1,14.36-3.7c7.427,0,14.175,2.851,18.513,7.821a24.352,24.352,0,0,1,4.226,6.6,17.016,17.016,0,0,1,1.25,8.46,14.513,14.513,0,0,1-.685,2.973c-.429,1.356-.712,2.251.137,3.356a24.21,24.21,0,0,0,1.806,1.925c2.246,2.257,5.638,5.666,5.306,8.054A2.47,2.47,0,0,1,2229.827,41c-.446.25-.857.451-1.221.629-1.461.715-2.266,1.109-2.195,2.963.005.147.011.294.018.441.077,1.883.149,3.661-.894,3.754-.691.064-1.28.066-1.753.069-.815,0-1.354.007-1.651.307a1.623,1.623,0,0,0-.3,1.18c0,.341,1.063.577,2.186.827,1.177.262,2.394.533,2.4.943a20.391,20.391,0,0,1-.79,5.942c-.556,1.821-1.307,2.94-2.115,3.153a60.784,60.784,0,0,1-9.009.58h-.006c-.773.006-1.649.014-2.635.031l-2.053,7.289Zm-9.37-65.574c-9.782,0-19.571,5.534-23.277,13.159-3.472,7.123-1.521,18.107,4.744,26.709,4.226,5.859,3.518,12.464,2.769,19.457-.077.718-.173,1.612-.256,2.462l22.936.7,2.12-7.619c.412-.006.8-.009,1.188-.009.935,0,1.773.016,2.62.034l.13,0c.777.016,1.511.032,2.268.032,1.443,0,2.7-.059,4.073-.191.484-.046.9-.055,1.272-.062,1.728-.035,2.31-.047,2.826-3.96-.158-1.156-.957-1.352-2.406-1.709l-.008,0c-.283-.07-.6-.149-.942-.241a1.284,1.284,0,0,1-.859-.9c-.349-1.07.15-2.6,1.335-4.093a2.208,2.208,0,0,1,1.6-.66c.718-.1,1.338-.179,1.322-.934a13.456,13.456,0,0,0-.058-1.68c-.136-1.743-.244-3.118,2.461-4.4.91-.357,1.436-.858,1.565-1.491.339-1.665-2.039-4-4.136-6.051l-.008-.008c-.435-.426-.846-.829-1.223-1.216-2.074-2.123-1.931-2.608-1.139-5.3l.06-.2a16.9,16.9,0,0,0-3.04-13.426,21.678,21.678,0,0,0-14.824-8.207A23.542,23.542,0,0,0,2200.444,3.537Z" transform="translate(-1434.077 2108.004)" fill="#004747"/>
    <path id="Path_9544" data-name="Path 9544" d="M1370.794,1827.84s6.894,9.891,4.495,15.887-9.739,3.449-10.789-.9,6.295-14.988,6.295-14.988Z" transform="translate(-592.722 292.214)" fill="#00f3bb" fill-rule="evenodd"/>
  </g>
</svg>
