<svg xmlns="http://www.w3.org/2000/svg" width="108.48" height="108.48" viewBox="0 0 108.48 108.48">
  <g id="Medical_Check_" data-name="Medical Check " transform="translate(-38 -1328)">
    <circle id="Ellipse_336" data-name="Ellipse 336" cx="54.24" cy="54.24" r="54.24" transform="translate(38 1328)" fill="#004747"/>
    <path id="Path_89" data-name="Path 89" d="M3386.949,493H3379v20.28a14.97,14.97,0,0,0,14.925,14.93h.322v5.112a11.957,11.957,0,0,0,11.925,11.92h3.887a11.954,11.954,0,0,0,11.925-11.92V521.362a6.089,6.089,0,1,0-3.316-.075v12.034a8.641,8.641,0,0,1-8.608,8.6h-3.887a8.641,8.641,0,0,1-8.608-8.6V528.16a14.978,14.978,0,0,0,13.72-14.88V493h-7.948v4.542h3.793V513.28a10.813,10.813,0,0,1-10.77,10.774h-2.434a10.814,10.814,0,0,1-10.775-10.774V497.542h3.8Z" transform="translate(-3301.315 861.787)" fill="#fff" fill-rule="evenodd"/>
    <path id="Path_90" data-name="Path 90" d="M11038.491,4322a3.488,3.488,0,1,0,3.488,3.485A3.487,3.487,0,0,0,11038.491,4322Z" transform="translate(-10919.303 -2948.241)" fill="#004747" fill-rule="evenodd"/>
    <path id="Path_91" data-name="Path 91" d="M34.128,7568.039H30.464L27.2,7572.53,25.55,7574.8l-.55-2.743-2.568-12.842-2.643,8.128-2.335-.016-.927-2.985-3.248,10.854-2.38-.144-2.063-12.06L7.2,7567.811l-.283.832H0l2.028-2.453H5.167l2.9-8.564,2.365.188,2,11.667,2.9-9.689,2.345-.014.977,3.147L21.554,7554l2.365.14,2.935,14.691,1.993-2.742.372-.506h2.965Z" transform="translate(60.765 -6164.09)" fill="#fff" fill-rule="evenodd"/>
  </g>
</svg>
