<svg xmlns="http://www.w3.org/2000/svg" width="108.482" height="108.482" viewBox="0 0 108.482 108.482">
  <g id="Nephrology_" data-name="Nephrology " transform="translate(-1190 -1473)">
    <path id="Path_9715" data-name="Path 9715" d="M3110.371,724.02a54.241,54.241,0,1,1-54.241,54.241A54.242,54.242,0,0,1,3110.371,724.02Z" transform="translate(-1866.13 748.98)" fill="#004747"/>
    <path id="Path_9716" data-name="Path 9716" d="M3096.839,803.319a22.467,22.467,0,0,0,4.962,20.107c5.072,5.907,12.362,4.022,9.866-1.606s-4.334-10.144-1.429-13.374,6.48-5.232,5.751-10.519C3114.306,785.7,3099.773,790.152,3096.839,803.319Zm65.072-6.763c2.083,6.953,1.387,14.031-3.247,20.288s-12.185,4.406-10.1-1.387,3.592-10.431.464-13.441-7.648-3.128-7.3-8.458c.8-12.311,16.308-9.925,20.183,3Zm-19.441,5.759c0-.729-6.1-7.9-.611-15.128,3.677-4.844,10.755-5.439,15.794-1.653,12.088,9.086,9.575,33.017-3.2,38.089-5.371,2.133-12.695.3-10.224-7.429.982-3.074.637-3.01.637-5.624,6.9-1.611,2.968-6.775-6.586.472-1.45,1.1-3.373,3.145-3.938,3.521v-7.193c6.383,3.061,11.143-2.167-3.461-3.862-1.817,0-2.277,2.829.531,3.065v28.5c-.009,3.584,2.471,2.5,2.825,1.358.341-1.1-.118-16.3.168-17.143.426-1.252,5.949-6.8,7.661-7.256,0,3.36-3.554,9.318,1.674,13.243,14.107,10.591,35.669-18.028,18.416-39.459-11.042-13.715-31.217-.493-24.218,14.1a20.3,20.3,0,0,1-3.6-1.463l0-20.115c.009-3.048-2.934-2.53-2.934-.527,0,23.556-1.939,21.848,4.145,24.353,1.729.713,6.906,3.048,6.906.152Zm-48.608,6.657c0-20.908,19.989-26.406,25.057-13.871,3.293,8.141-4.937,14.137-.687,14.137.978,0,9.723-2.5,9.723-4.528v-26.9c0-1.294-2.93-3.942-2.93,2v24.1c-.557.131-2.614,1.235-3.6,1.463.1-.413.291-.8.451-1.277,5.818-17.569-20.043-28.05-28.914-5.873-9.094,22.738,12.745,43.034,23.9,31.225,3.385-3.584.43-9.419.43-11.953,1.741.4,6.767,5.414,7.593,7.058.316.632.131,8.9.127,10.793-.009,3.078,2.934,2.483,2.934.527,0-28.615,1.859-27.085-4.38-25.824-2.032.409-4.275.43-4.275,1.986,0,2.7,3.942.814,5.726.666v7.323c-.856-.573-2.293-2.53-5.806-4.849-1.729-1.143-9.111-4.756-9.111-1.543,0,1.952,2.133,1.311,4.393,2.4,0,6.893,2.968,9.621-.662,12.387-6.784,5.169-19.98-2.989-19.98-19.445Z" transform="translate(-1886.184 718.862)" fill="#fff" fill-rule="evenodd"/>
  </g>
</svg>
