<svg xmlns="http://www.w3.org/2000/svg" width="108.48" height="108.48" viewBox="0 0 108.48 108.48">
  <g id="Neurology_" data-name="Neurology " transform="translate(-38 -1176)">
    <ellipse id="Ellipse_336" data-name="Ellipse 336" cx="54.24" cy="54.24" rx="54.24" ry="54.24" transform="translate(38 1176)" fill="#004747"/>
    <path id="Path_127" data-name="Path 127" d="M119640.055,2775.558c-.2,4.4-.172,8.825-.125,13.23.031,4.026.125,8.049.125,12.075,0,8.653.063,17.309,0,25.962,0,.4-.031.791-.031,1.189a2.52,2.52,0,0,0,.078.763.834.834,0,0,0,.234.429,6.55,6.55,0,0,0,6.344,1.971,7.876,7.876,0,0,0,3.656-2.417,6.806,6.806,0,0,1,2.422-1.456,6.861,6.861,0,0,0,1.828-.888c1.266-.934,1.313-2.691,1.234-4.12a3.359,3.359,0,0,1,.734-2.442,7.611,7.611,0,0,1,1.906-1.437,7.7,7.7,0,0,0,1.8-1.385,4.677,4.677,0,0,0,1.047-2.533,14.1,14.1,0,0,0-.328-4.7c-.219,0-.406,0-.547,0-.578-.005-1.109-.008-1.656-.037-.953-.042-2.875-.136-3.266-1.191a1.588,1.588,0,0,1,.453-1.521,1.877,1.877,0,0,1,1-.624,5.8,5.8,0,0,1,1.813.17,5.822,5.822,0,0,0,2.641-.313,3.937,3.937,0,0,0,2.656-2.164c1.156-2.775-1.125-7.286-1.594-10.142a22.524,22.524,0,0,1-.125-4.354c.078-2.018.219-4.42-.734-6.271a2.347,2.347,0,0,0-.375-.625,5,5,0,0,0-2.844-1.989,6.451,6.451,0,0,0-3.531.081,4.28,4.28,0,0,0,.547.618,3.568,3.568,0,0,1,1.281,2.123,1.736,1.736,0,0,1-.406,1.188v.05l-.062.041a1.663,1.663,0,0,1-1.641.449,2.618,2.618,0,0,1-1.141-1.12,6.393,6.393,0,0,0-3.109-2.617c-1.016-.385-1.875-.28-2.516-1.293l-.031-.054-.047-.062a1.53,1.53,0,0,1,1.313-2.232,3.521,3.521,0,0,1,1.406.249c.2.074.438.158.688.236a1.647,1.647,0,0,0,.406.122,1.149,1.149,0,0,0,.641-.069,3.981,3.981,0,0,0,.469-.252,5.8,5.8,0,0,1,.734-.354,10.32,10.32,0,0,1,1.641-.435,3.442,3.442,0,0,0-2.3-1.334c-.812-.105-1.672-.034-2.516-.1a5.575,5.575,0,0,1-2.953-1.111C119643.773,2772.178,119643.039,2773.485,119640.055,2775.558Z" transform="translate(-119545.477 -1570.396)" fill="#766fb1" fill-rule="evenodd"/>
    <path id="Path_128" data-name="Path 128" d="M110731.578,2783.338c.094.033.219.061.313.089.469.143.953.277,1.422.457a7.9,7.9,0,0,1,3.594,2.71,9.748,9.748,0,0,1,1.75,4.28,6.982,6.982,0,0,1-.234,3.713l-.094.382-2.437.129-.172-.443a8.521,8.521,0,0,1-.344-1.885c-.031-.481-.031-.959-.031-1.437a5.429,5.429,0,0,0-1.906-3.75,5.742,5.742,0,0,0-4.7-1.1,5.534,5.534,0,0,0-4.062,3.337c-.859,1.909-.172,4.849.063,6.875a10.527,10.527,0,0,1-.875,6.109c-.344.707-.719,1.378-1.094,2.061a10.162,10.162,0,0,0-.734,1.773,3.772,3.772,0,0,0,.172,2.645,4.912,4.912,0,0,0,1.141,1.788,7.17,7.17,0,0,0,4.125,1.94,12.375,12.375,0,0,0,4.891-.317c-.156-.776-.328-1.552-.516-2.312a3.462,3.462,0,0,1-.234-.95,2.96,2.96,0,0,1,.141-.965c.094-.779.172-1.571.234-2.359a15.314,15.314,0,0,1-2.734-.674c-1.234-.41-3.531-1.328-3.672-2.834a1.705,1.705,0,0,1,.469-1.279l.078-.109.141-.055a1.725,1.725,0,0,1,.7-.168,4.013,4.013,0,0,1,1.938.652,13.71,13.71,0,0,0,1.891.987c2.2.809,4.344-.084,6.25-1.3a8.3,8.3,0,0,1,5.422-1.363c1.156.134,2.938.714,3.109,2.083a1.648,1.648,0,0,1-.125.822,1.575,1.575,0,0,1-1.016.91c-.781.21-1.453-.286-2.219-.5a2.936,2.936,0,0,0-1.8-.027,8.247,8.247,0,0,0-1.828.934,16.913,16.913,0,0,1-2.437,1.27,2.468,2.468,0,0,0-.75.4c-.672.615-.594,2.36-.578,3.17a6.838,6.838,0,0,0,2.141,4.87,11.274,11.274,0,0,0,2.172,1.629c.563.36,1.391.832,1.484,1.565a1.541,1.541,0,0,1-.422,1.257,3.409,3.409,0,0,1-.516.354c-1.187.508-2.781-.624-3.641-1.31-.5-.4-1-.82-1.469-1.254-.187-.178-.391-.373-.594-.556a10.574,10.574,0,0,1-4.687.912c-1.3-.053-2.484-.359-3.75-.534-.047,0-.047-.005-.047-.005a7.385,7.385,0,0,0,1.406,7.571,4.617,4.617,0,0,0,.563.484c.719.547,1.641.78,2.313,1.363a2.956,2.956,0,0,1,.984,2.344c.031.636.031,1.27.031,1.906a6.994,6.994,0,0,0,.172,1.279,3.206,3.206,0,0,0,1.016,1.406,2.515,2.515,0,0,0,.609.419,14.782,14.782,0,0,0,1.578.671,6.356,6.356,0,0,1,1.844,1.067,15.606,15.606,0,0,0,3.453,2.49,5.319,5.319,0,0,0,5.031-.488,5.758,5.758,0,0,0,1.531-1.155,4.773,4.773,0,0,0,.469-2.561c-.172-17.035,0-34.07,0-51.106-.094-.338-1.016-1.027-1.281-1.208a7.227,7.227,0,0,0-1.672-.943c-1.656-.534-2.812.055-4.109,1.071a5.7,5.7,0,0,1-3.172,1.3c-.891.087-1.766.015-2.594.158A3.209,3.209,0,0,0,110731.578,2783.338Z" transform="translate(-110655.117 -1576.325)" fill="#766fb1" fill-rule="evenodd"/>
    <path id="Path_129" data-name="Path 129" d="M109512.164,1528.762c.766-.447,1.469-1.046,2.25-1.49a7.1,7.1,0,0,1,4.344-.913,6.319,6.319,0,0,1,3.906,1.664,3.666,3.666,0,0,0,2.688.823c2.938,0,5.656,1.155,7.094,3.8.141.3.313.593.453.894a.723.723,0,0,1,.094.164c.078.022.125.041.219.062.281.112.672.233,1.016.366a8.432,8.432,0,0,1,4.406,3.784c1.2,2.272,1.344,5.01,1.391,7.543.078,2.021-.109,4.56.453,6.5a43.964,43.964,0,0,1,1.453,5.727c.422,3.449-.422,6.463-3.437,8.174.2,1.118.469,2.216.578,3.34a8.811,8.811,0,0,1-.75,4.775,9.788,9.788,0,0,1-2.312,3.374,10.828,10.828,0,0,1-2.156,1.45c-.172.083-.281.167-.453.261-.156,4.966-.672,6.714-5.719,8.834a4.96,4.96,0,0,0-1.359.928c-.609.515-1.187,1.046-1.828,1.518a9.186,9.186,0,0,1-6.484,1.766,8.991,8.991,0,0,1-4.062-1.3c-.594-.364-1.141-.779-1.687-1.193a9.207,9.207,0,0,1-10,1.875,16.239,16.239,0,0,1-3.656-2.17c-.406-.311-.828-.637-1.234-.96a2.4,2.4,0,0,0-.578-.437c-2.531-1-5.172-2.56-5.687-5.484a7.808,7.808,0,0,1-.031-2.412,8.734,8.734,0,0,0,0-.906c-.172-.109-.453-.227-.547-.307a14.676,14.676,0,0,1-1.422-.885,8.8,8.8,0,0,1-3.047-3.827c-1.422-3.356-.609-5.258-.2-8.378-1.844-1.6-3.5-3.557-3.734-6.084-.219-2.6,1.109-5.364,2.234-7.661a7.116,7.116,0,0,0,.75-2.881,10.86,10.86,0,0,0-.2-1.738c-.094-.816-.234-1.627-.344-2.446-.547-4.39.859-8.294,4.875-10.436a9.291,9.291,0,0,1,1.359-.556,3,3,0,0,0,.516-.167c.141-.05.359-.537.406-.63a7.682,7.682,0,0,1,6.906-4.231,12.006,12.006,0,0,0,1.875-.052,4.373,4.373,0,0,0,.844-.578,7.487,7.487,0,0,1,7.969-1.369,16.078,16.078,0,0,1,2.438,1.579A3.432,3.432,0,0,0,109512.164,1528.762Z" transform="translate(-109419.195 -327.226)" fill="#fff" fill-rule="evenodd"/>
    <path id="Path_130" data-name="Path 130" d="M110731.578,2777.408c.094.034.219.062.313.09.469.144.953.276,1.422.457a7.9,7.9,0,0,1,3.594,2.71,9.738,9.738,0,0,1,1.75,4.28,6.978,6.978,0,0,1-.234,3.712l-.094.382-2.437.131-.172-.444a8.512,8.512,0,0,1-.344-1.884c-.031-.481-.031-.959-.031-1.437a5.066,5.066,0,0,0-1.156-2.974,5,5,0,0,0-.75-.776,5.742,5.742,0,0,0-4.7-1.1,5.531,5.531,0,0,0-4.062,3.338c-.859,1.908-.172,4.848.063,6.875a10.522,10.522,0,0,1-.875,6.108c-.344.708-.719,1.379-1.094,2.062a10.139,10.139,0,0,0-.734,1.772,3.769,3.769,0,0,0,.172,2.645,4.906,4.906,0,0,0,1.141,1.788,7.167,7.167,0,0,0,4.125,1.939,12.348,12.348,0,0,0,4.891-.316l1.625,2.887a10.6,10.6,0,0,1-4.687.913c-1.3-.053-2.484-.361-3.75-.535-.047,0-.047-.005-.047-.005a7.384,7.384,0,0,0,1.406,7.57,4.733,4.733,0,0,0,.563.485c.719.546,1.641.779,2.313,1.362a2.957,2.957,0,0,1,.984,2.344c.031.637.031,1.269.031,1.905a6.988,6.988,0,0,0,.172,1.279,3.206,3.206,0,0,0,1.016,1.406,2.5,2.5,0,0,0,.609.419,14.824,14.824,0,0,0,1.578.67,6.338,6.338,0,0,1,1.844,1.068,15.6,15.6,0,0,0,3.453,2.489,5.318,5.318,0,0,0,5.031-.487,5.771,5.771,0,0,0,1.531-1.155,4.772,4.772,0,0,0,.469-2.561c-.172-17.035,0-34.071,0-51.106-.094-.338-1.016-1.027-1.281-1.208a7.21,7.21,0,0,0-1.672-.943c-1.656-.535-2.812.055-4.109,1.071a5.7,5.7,0,0,1-3.172,1.3c-.891.087-1.766.016-2.594.159A3.212,3.212,0,0,0,110731.578,2777.408Zm18.125-1.85c-.187,4.4-.156,8.825-.094,13.23.047,4.026.094,8.049.094,12.075,0,8.653.078,17.309,0,25.962,0,.4-.016.791-.047,1.189a3.153,3.153,0,0,0,.094.763,1.149,1.149,0,0,0,.234.429,6.594,6.594,0,0,0,6.375,1.971,7.864,7.864,0,0,0,3.625-2.417,7.058,7.058,0,0,1,2.484-1.456,6.853,6.853,0,0,0,1.75-.888c1.281-.934,1.328-2.691,1.266-4.12a3.291,3.291,0,0,1,.734-2.442,6.939,6.939,0,0,1,1.875-1.437,6.742,6.742,0,0,0,1.828-1.385,4.349,4.349,0,0,0,1.047-2.533,13.323,13.323,0,0,0-.328-4.7c-.172,0-.391,0-.547,0-.578-.005-1.078-.008-1.672-.037-.937-.042-2.875-.136-3.25-1.191a1.562,1.562,0,0,1,.469-1.521,1.9,1.9,0,0,1,1.031-.624,5.629,5.629,0,0,1,1.75.17,6.026,6.026,0,0,0,2.688-.313,4.123,4.123,0,0,0,2.641-2.164c1.156-2.775-1.141-7.286-1.625-10.142a28.926,28.926,0,0,1-.141-4.354c.094-2.018.234-4.42-.7-6.271a5.093,5.093,0,0,0-.391-.625,4.918,4.918,0,0,0-2.828-1.989,6.448,6.448,0,0,0-3.531.081,5.481,5.481,0,0,0,.547.618,3.888,3.888,0,0,1,1.328,2.123,1.905,1.905,0,0,1-.406,1.188l-.078.05-.031.041a1.674,1.674,0,0,1-1.625.449c-.547-.188-.828-.679-1.156-1.12a6.229,6.229,0,0,0-3.125-2.617c-1.016-.385-1.844-.28-2.516-1.293l-.016-.054-.047-.062a1.525,1.525,0,0,1,1.328-2.232,3.447,3.447,0,0,1,1.391.249c.2.074.438.158.641.236a2.988,2.988,0,0,0,.438.122,1.1,1.1,0,0,0,.641-.069,2.193,2.193,0,0,0,.484-.252c.281-.13.469-.251.75-.354a10.234,10.234,0,0,1,1.594-.435,3.272,3.272,0,0,0-2.281-1.334c-.812-.105-1.656-.034-2.469-.1a5.438,5.438,0,0,1-2.969-1.111C110753.438,2772.178,110752.672,2773.485,110749.7,2775.558Z" transform="translate(-110655.117 -1570.396)" fill="#004747" fill-rule="evenodd"/>
    <path id="Path_131" data-name="Path 131" d="M120881.781,6636.878l-.281.933a9.477,9.477,0,0,1-.641,1.721,8.579,8.579,0,0,1-4.437,3.972c-1.187.488-3.328.967-4.312-.25a2.046,2.046,0,0,1-.2-1.784l.047-.263.266-.116a4.643,4.643,0,0,1,1.438-.451c.391-.053.766-.06,1.141-.086a3.477,3.477,0,0,0,2.469-1.316c.906-1.007,1.938-3.608,1.5-4.971-.109-.237-.406-.6-.516-.812a6.769,6.769,0,0,1-.781-1.36c-.3-.707-.531-1.42-.766-2.148a4.239,4.239,0,0,0-.625-1.35,4.143,4.143,0,0,0-2.2-1.451,2.493,2.493,0,0,1-1.094-.572c-.031-.062-.031-.129-.094-.19-.078-.089-.172-.187-.234-.261l-.234-.214.031-.308a1.9,1.9,0,0,1,1.031-1.574,3.1,3.1,0,0,1,2.656.371,9.389,9.389,0,0,1,1.813,1.208,6.114,6.114,0,0,1,1.609,2.36c.547,1.154.828,2.406,1.406,3.53a5.548,5.548,0,0,0,2.844,2.684,4.881,4.881,0,0,0,.875.227c.406.086.859.152,1.266.227.906.163,2.656.427,2.969,1.454a1.374,1.374,0,0,1-.375,1.377c-.984,1.081-2.969.64-4.156.294A16.3,16.3,0,0,1,120881.781,6636.878Z" transform="translate(-120773.555 -5408.943)" fill="#fff" fill-rule="evenodd"/>
    <path id="Path_132" data-name="Path 132" d="M120774.406,14220.238a1.71,1.71,0,0,1,.094-1.826c.594-.6,1.594-.375,2.281-.1a8.415,8.415,0,0,1,2.609,1.811,10.223,10.223,0,0,1,3.016,7.932c-.062.914-.469,2.063-1.562,2.09a1.734,1.734,0,0,1-1.641-1.342c-.016-.223-.094-.461-.125-.7-.016-.525,0-1.045-.016-1.57a4.185,4.185,0,0,0-.359-1.684,7.694,7.694,0,0,0-2.3-2.895c-.391-.322-.781-.615-1.187-.916A3.1,3.1,0,0,1,120774.406,14220.238Z" transform="translate(-120676.242 -12979.556)" fill="#fff" fill-rule="evenodd"/>
    <path id="Path_133" data-name="Path 133" d="M115070,16281.1a10.471,10.471,0,0,1,2.781-6.848,8.463,8.463,0,0,1,2.25-1.848,2.383,2.383,0,0,1,2.281-.139,1.349,1.349,0,0,1,.469.486,1.511,1.511,0,0,1,.219,1.156c-.187.729-1,1.211-1.609,1.617a7.809,7.809,0,0,0-1.953,1.895,5,5,0,0,0-1.016,2.795c-.047.439-.047.881-.078,1.32a7.814,7.814,0,0,1-.234,1.8l-.078.338-.328.1a2.155,2.155,0,0,1-1.969-.182A3.265,3.265,0,0,1,115070,16281.1Z" transform="translate(-114989.758 -15027.174)" fill="#fff" fill-rule="evenodd"/>
    <path id="Path_134" data-name="Path 134" d="M111881.406,9560.008c.859.69,2.453,1.821,3.641,1.309a1.7,1.7,0,0,0,.469-.353,1.582,1.582,0,0,0,.484-1.258c-.109-.729-.906-1.2-1.531-1.563a10.874,10.874,0,0,1-2.156-1.632c-1.609-1.614-3.234-6.471-1.547-8.034a2.032,2.032,0,0,1,.719-.4,15.989,15.989,0,0,0,2.438-1.272,8.814,8.814,0,0,1,1.828-.932,3.069,3.069,0,0,1,1.828.024c.719.217,1.438.708,2.219.5a1.44,1.44,0,0,0,.969-.911,1.679,1.679,0,0,0,.172-.827c-.172-1.367-1.953-1.943-3.109-2.079a8.425,8.425,0,0,0-5.469,1.364c-1.859,1.216-3.984,2.11-6.2,1.306a12.5,12.5,0,0,1-1.922-.992,3.8,3.8,0,0,0-1.906-.649,1.845,1.845,0,0,0-.734.165l-.109.062-.094.1a1.762,1.762,0,0,0-.453,1.279c.141,1.51,2.422,2.424,3.656,2.835a14.269,14.269,0,0,0,2.719.674C111876.969,9553.313,111877.016,9556.584,111881.406,9560.008Z" transform="translate(-111800.617 -8318.565)" fill="#fff" fill-rule="evenodd"/>
  </g>
</svg>
