<svg xmlns="http://www.w3.org/2000/svg" width="108.33" height="108.33" viewBox="0 0 108.33 108.33">
  <g id="Neurosurgery_" data-name="Neurosurgery " transform="translate(-718 -2243)">
    <g id="Group_10255" data-name="Group 10255">
      <path id="Path_131" data-name="Path 131" d="M1406.728,2362.882l-.274.932a10.377,10.377,0,0,1-.633,1.72,8.765,8.765,0,0,1-4.444,3.972c-1.185.489-3.326.965-4.317-.249a1.969,1.969,0,0,1-.32-1.092,2.128,2.128,0,0,1,.122-.691l.038-.261.274-.118a4.724,4.724,0,0,1,1.438-.451c.388-.051.759-.059,1.13-.084a3.474,3.474,0,0,0,2.471-1.315c.915-1.008,1.948-3.609,1.492-4.971-.1-.236-.409-.594-.506-.814a6.308,6.308,0,0,1-.78-1.357,22.6,22.6,0,0,1-.784-2.15,4.169,4.169,0,0,0-.615-1.349,4.054,4.054,0,0,0-2.2-1.45,2.489,2.489,0,0,1-1.1-.573c-.038-.063-.038-.126-.1-.189-.076-.089-.177-.186-.232-.262l-.232-.215.021-.308a2,2,0,0,1,1.041-1.577,3.227,3.227,0,0,1,.949-.147,3.066,3.066,0,0,1,1.716.519,9.008,9.008,0,0,1,1.821,1.21,6.258,6.258,0,0,1,1.61,2.365c.544,1.155.818,2.407,1.4,3.529a5.616,5.616,0,0,0,2.846,2.681,5.236,5.236,0,0,0,.873.228c.409.084.856.152,1.265.228.915.165,2.665.426,2.977,1.455a2.214,2.214,0,0,1,.034.375,1.4,1.4,0,0,1-.422,1c-.995,1.079-2.977.641-4.166.3a17.4,17.4,0,0,1-2.4-.89h0Z" transform="translate(-619.195 -72.982)" fill="#00f3bb" fill-rule="evenodd"/>
      <path id="Path_132" data-name="Path 132" d="M1396.269,2407.907a1.719,1.719,0,0,1-.219-.839,1.679,1.679,0,0,1,.316-.991c.586-.6,1.594-.375,2.277-.1a8.576,8.576,0,0,1,2.618,1.813,10.149,10.149,0,0,1,3.04,7.243c0,.228-.017.455-.029.687-.059.915-.468,2.062-1.556,2.091a1.712,1.712,0,0,1-1.636-1.341c-.021-.223-.1-.464-.135-.7-.021-.527,0-1.046-.021-1.573-.008,0-.008,0-.008-.009a4.3,4.3,0,0,0-.346-1.674,7.523,7.523,0,0,0-2.289-2.9c-.388-.325-.78-.615-1.185-.915a2.979,2.979,0,0,1-.818-.805h0Z" transform="translate(-618.796 -105.266)" fill="#00f3bb" fill-rule="evenodd"/>
      <path id="Path_133" data-name="Path 133" d="M1354.051,2429.946a10.552,10.552,0,0,1,2.779-6.847,8.7,8.7,0,0,1,2.26-1.847,2.375,2.375,0,0,1,1.265-.363,2.332,2.332,0,0,1,1.008.228,1.445,1.445,0,0,1,.481.489,1.588,1.588,0,0,1,.24.831,1.208,1.208,0,0,1-.046.325c-.177.725-.995,1.21-1.594,1.619a7.628,7.628,0,0,0-1.944,1.9,5.1,5.1,0,0,0-1.024,2.8c-.038.443-.038.881-.076,1.32a8.126,8.126,0,0,1-.224,1.8l-.076.337-.333.1a2.134,2.134,0,0,1-1.969-.181,3.4,3.4,0,0,1-.75-2.5h.008Z" transform="translate(-594.492 -114.053)" fill="#00f3bb" fill-rule="evenodd"/>
      <path id="Path_134" data-name="Path 134" d="M1341.035,2388.782c.856.691,2.454,1.821,3.638,1.307a1.54,1.54,0,0,0,.468-.354,1.589,1.589,0,0,0,.481-1.155v-.105c-.118-.729-.915-1.2-1.535-1.564a11.151,11.151,0,0,1-2.155-1.632c-1.594-1.619-3.229-6.476-1.535-8.036a2,2,0,0,1,.725-.4,16.59,16.59,0,0,0,2.424-1.269,8.775,8.775,0,0,1,1.838-.932,3.058,3.058,0,0,1,.873-.126,2.945,2.945,0,0,1,.949.152c.721.215,1.438.708,2.218.5a1.477,1.477,0,0,0,.974-.911,1.654,1.654,0,0,0,.181-.763v-.063c-.177-1.37-1.965-1.944-3.112-2.079-.261-.025-.531-.038-.8-.038a8.44,8.44,0,0,0-4.667,1.408c-1.868,1.218-3.984,2.116-6.206,1.307a12.057,12.057,0,0,1-1.927-1,3.8,3.8,0,0,0-1.914-.649,1.873,1.873,0,0,0-.721.165l-.1.063-.1.105a1.686,1.686,0,0,0-.468,1.164v.114c.135,1.51,2.412,2.424,3.66,2.833a14.017,14.017,0,0,0,2.711.675c-.333,4.587-.3,7.859,4.1,11.282Z" transform="translate(-580.924 -85.377)" fill="#00f3bb" fill-rule="evenodd"/>
    </g>
    <path id="Exclusion_3" data-name="Exclusion 3" d="M2195.761,65.9a9.179,9.179,0,0,1-3.584-.725,16.373,16.373,0,0,1-3.677-2.167c-.364-.278-.743-.578-1.077-.842l-.15-.119a2.192,2.192,0,0,0-.581-.439c-2.179-.856-5.138-2.356-5.679-5.476a8.156,8.156,0,0,1-.118-1.328,8.332,8.332,0,0,1,.075-1.083,2.3,2.3,0,0,0,.03-.452,3.964,3.964,0,0,0-.017-.451c-.076-.047-.169-.1-.259-.143a1.974,1.974,0,0,1-.284-.165,13.336,13.336,0,0,1-1.413-.886,8.934,8.934,0,0,1-3.073-3.828c-1.139-2.693-.842-4.435-.465-6.642l0-.016c.093-.544.188-1.106.269-1.72a9.429,9.429,0,0,1-3.736-6.084c-.22-2.67,1.2-5.555,2.243-7.661a6.871,6.871,0,0,0,.755-2.879,11.1,11.1,0,0,0-.21-1.742c-.066-.552-.15-1.11-.232-1.65l0-.012q-.059-.391-.116-.783a11.442,11.442,0,0,1,.727-6.06,8.993,8.993,0,0,1,4.156-4.375,8.438,8.438,0,0,1,1.37-.556,2.884,2.884,0,0,0,.5-.168c.136-.052.378-.542.408-.628a7.708,7.708,0,0,1,6.881-4.234h.029c.2.009.418.017.616.017a11.376,11.376,0,0,0,1.265-.067,4.727,4.727,0,0,0,.86-.578A7.347,7.347,0,0,1,2196.3,0a7.534,7.534,0,0,1,2.905.59,16.132,16.132,0,0,1,2.47,1.581,2.961,2.961,0,0,0,.393.291l0-.009c.4-.226.774-.494,1.141-.754s.73-.516,1.115-.739a7.127,7.127,0,0,1,3.55-.957,7.829,7.829,0,0,1,.784.042,6.328,6.328,0,0,1,3.917,1.66,3.639,3.639,0,0,0,2.336.839,2.943,2.943,0,0,0,.346-.016c.152-.009.3-.013.451-.013a7.7,7.7,0,0,1,6.64,3.812c.066.143.142.288.215.428s.162.31.232.466a.6.6,0,0,1,.11.164c.032.009.057.017.082.026a1.068,1.068,0,0,0,.133.037c.129.051.275.1.431.155.2.068.4.137.581.212a8.377,8.377,0,0,1,4.406,3.786,16.62,16.62,0,0,1,1.417,6.682c0,.225-.011.454-.021.675v.008c0,.057-.005.114-.008.172v.006c-.017.391-.017.8-.017,1.193a29.979,29.979,0,0,0,.481,5.312,41.482,41.482,0,0,1,1.429,5.73c.482,3.862-.67,6.611-3.424,8.17.061.352.131.707.2,1.051l0,.013a21.423,21.423,0,0,1,.364,2.277,9.62,9.62,0,0,1,.075,1.1,8.661,8.661,0,0,1-.813,3.676,9.735,9.735,0,0,1-2.3,3.372,11.3,11.3,0,0,1-2.155,1.451,2.227,2.227,0,0,0-.249.143c-.053.034-.119.076-.2.118-.154,4.92-.632,6.691-5.721,8.833a4.717,4.717,0,0,0-1.362.928c-.142.121-.282.243-.423.365l-.008.007c-.446.387-.907.786-1.4,1.146a9.269,9.269,0,0,1-5.489,1.822,8.734,8.734,0,0,1-.995-.055,8.97,8.97,0,0,1-4.064-1.3,19.67,19.67,0,0,1-1.687-1.193A9.165,9.165,0,0,1,2195.761,65.9Zm-16.267-25.348h0a7.521,7.521,0,0,0-.485,2.644,7.325,7.325,0,0,0,1.88,4.924,5.081,5.081,0,0,0,.574.485,6.6,6.6,0,0,0,1.1.63,5.689,5.689,0,0,1,1.219.732,2.965,2.965,0,0,1,.97,2.2v.148c.038.636.038,1.281.038,1.905a5.647,5.647,0,0,0,.173,1.277,3.253,3.253,0,0,0,1.025,1.409,2.427,2.427,0,0,0,.6.422,15.552,15.552,0,0,0,1.581.671,6.193,6.193,0,0,1,1.839,1.066,15.23,15.23,0,0,0,3.465,2.491,5.342,5.342,0,0,0,2.062.418,5.275,5.275,0,0,0,2.951-.9,5.738,5.738,0,0,0,1.552-1.156,4.857,4.857,0,0,0,.481-2.108c0-.074,0-.149-.008-.222v-.012c0-.073-.008-.148-.008-.221-.118-11.349-.078-22.885-.04-34.042v-.091c.019-5.562.039-11.314.039-16.97-.1-.345-1.029-1.04-1.283-1.206a7.263,7.263,0,0,0-1.682-.941,4.084,4.084,0,0,0-4.11,1.071,5.641,5.641,0,0,1-3.163,1.3c-.379.037-.758.046-1.125.055a9.819,9.819,0,0,0-1.464.105,3.183,3.183,0,0,0-2.089,1.3h0l-.005,0-.005,0-.008.013h.013l0-.005h0l0,0c.085.029.184.054.272.077l.028.007.331.1.005,0c.358.107.728.219,1.084.354a7.956,7.956,0,0,1,3.6,2.711,9.9,9.9,0,0,1,1.763,4.28,7.755,7.755,0,0,1,.134,1.429,7.034,7.034,0,0,1-.374,2.285l-.1.383-2.433.127-.177-.443a8.64,8.64,0,0,1-.354-1.885c-.021-.481-.021-.967-.021-1.437a5.106,5.106,0,0,0-1.156-2.973,5.65,5.65,0,0,0-.754-.776,5.767,5.767,0,0,0-3.537-1.219,6.229,6.229,0,0,0-1.176.118,5.512,5.512,0,0,0-4.052,3.34c-.7,1.56-.369,3.845-.1,5.681l0,.027c.06.414.116.8.158,1.168a11.735,11.735,0,0,1,.122,1.641,10.657,10.657,0,0,1-1,4.469c-.241.513-.516,1.014-.781,1.5l0,.008-.006.011c-.1.181-.2.363-.3.545a11.2,11.2,0,0,0-.746,1.771,3.746,3.746,0,0,0-.152,1.079,3.7,3.7,0,0,0,.333,1.564,4.957,4.957,0,0,0,1.143,1.787,7.212,7.212,0,0,0,4.14,1.939,11.6,11.6,0,0,0,1.64.114,12.3,12.3,0,0,0,3.221-.43l1.636,2.888a10.541,10.541,0,0,1-4.317.919l-.189,0-.186,0a17.627,17.627,0,0,1-2.442-.319c-.427-.077-.869-.156-1.314-.217h-.038ZM2203.708,6.08h0c-.194,4.414-.156,8.777-.1,13.23q.015,1.614.033,3.228c.031,2.9.064,5.889.064,8.851,0,2.9.009,5.826.018,8.655v.092c.017,5.643.035,11.477-.018,17.216,0,.375-.02.775-.06,1.189a2.768,2.768,0,0,0,.085.763,1.471,1.471,0,0,0,.24.43,6.674,6.674,0,0,0,4.878,2.146,6.451,6.451,0,0,0,1.5-.177,7.763,7.763,0,0,0,3.614-2.417,7.276,7.276,0,0,1,2.5-1.454,7.049,7.049,0,0,0,1.745-.886c1.224-.889,1.331-2.505,1.265-4.119a2.392,2.392,0,0,1-.017-.35,3.31,3.31,0,0,1,.755-2.1,7,7,0,0,1,1.88-1.437,7.014,7.014,0,0,0,1.822-1.383,4.366,4.366,0,0,0,1.037-2.534c.051-.528.076-1,.076-1.434a13.4,13.4,0,0,0-.4-3.271h-.544c-.642,0-1.127-.011-1.673-.038-.934-.042-2.879-.131-3.247-1.193a2.868,2.868,0,0,1-.029-.367,1.548,1.548,0,0,1,.51-1.151,1.8,1.8,0,0,1,1.025-.624c.123-.005.241-.008.333-.008a5.73,5.73,0,0,1,1.417.181,5.871,5.871,0,0,0,.661.038,5.978,5.978,0,0,0,2.02-.35,4.14,4.14,0,0,0,2.652-2.163c.793-1.918-.064-4.684-.821-7.125a25.447,25.447,0,0,1-.811-3.015c-.108-1.138-.16-2.15-.16-3.1,0-.328.011-.669.021-1V20.4q0-.128.008-.255l.005-.11c.1-2.037.21-4.343-.706-6.159-.109-.183-.233-.374-.4-.62a4.834,4.834,0,0,0-2.829-1.99,6.452,6.452,0,0,0-3.524.08,5.361,5.361,0,0,0,.543.624A3.9,3.9,0,0,1,2220.4,14.1v.022a1.948,1.948,0,0,1-.405,1.167l-.076.051-.021.042a1.666,1.666,0,0,1-1.2.506,1.734,1.734,0,0,1-.438-.055,2.142,2.142,0,0,1-1-.912c-.05-.07-.1-.14-.152-.21a6.252,6.252,0,0,0-3.145-2.615,7.37,7.37,0,0,0-.8-.239,2.442,2.442,0,0,1-1.713-1.055l-.021-.055-.038-.063a1.766,1.766,0,0,1-.156-.708,1.526,1.526,0,0,1,1.493-1.522h.105a3.412,3.412,0,0,1,1.281.248c.206.073.444.159.641.237a3.524,3.524,0,0,0,.443.126,1.2,1.2,0,0,0,.211.022,1.1,1.1,0,0,0,.438-.089,2.833,2.833,0,0,0,.482-.248c.106-.049.2-.1.291-.145l.005,0a4.472,4.472,0,0,1,.441-.207,10.274,10.274,0,0,1,1.594-.434,3.3,3.3,0,0,0-2.272-1.337,11.611,11.611,0,0,0-1.368-.067c-.363,0-.737-.007-1.1-.039a5.425,5.425,0,0,1-2.981-1.113,5.689,5.689,0,0,0-3.22-1.515c-1,0-1.849.622-3.02,1.484l-.008.006c-.31.228-.631.464-.991.716Z" transform="translate(-1429.801 2261.045)" fill="#004747"/>
    <path id="Path_9639" data-name="Path 9639" d="M1361.348,2323.645a51.678,51.678,0,1,0-15.136,36.537A51.512,51.512,0,0,0,1361.348,2323.645Zm-13.374-38.3a54.161,54.161,0,1,1-38.3-15.865A54,54,0,0,1,1347.975,2285.345Z" transform="translate(-537.51 -26.48)" fill="#004747"/>
    <path id="Path_9640" data-name="Path 9640" d="M1353.83,2418.93l-4.76,4.781,7.13,7.577-.826,5.835c6.729,8.319,17.91,14.263,28.834,11.771l-30.382-29.96Z" transform="translate(-591.624 -112.919)" fill="#004747"/>
    <path id="Path_9642" data-name="Path 9642" d="M1342.272,2487.8h3.065v-2.146h-3.065Zm-6.742,0h3.369v-2.146h-3.369Zm19.605,0h3.369v-2.146h-3.369Zm-6.434,0h3.369v-2.146H1348.7Z" transform="translate(-583.792 -151.509)" fill="#004747"/>
    <path id="Path_9641" data-name="Path 9641" d="M1366.348,2436.75l20,19.921c-7.26-.717-14.55-4.553-18.479-10.418l.919-4.339-3.719-3.883Z" transform="translate(-600.878 -123.226)" fill="#00f3bb"/>
  </g>
</svg>
