<svg xmlns="http://www.w3.org/2000/svg" width="108.482" height="108.482" viewBox="0 0 108.482 108.482">
  <g id="Nuclear_Medicine_And_Molecular_Imaging" data-name="Nuclear Medicine And Molecular Imaging" transform="translate(-595 -566)">
    <path id="Path_9649" data-name="Path 9649" d="M65.391,1073.26A54.241,54.241,0,1,1,11.15,1127.5a54.242,54.242,0,0,1,54.241-54.241Z" transform="translate(583.85 -507.26)" fill="#004747"/>
    <path id="Path_9650" data-name="Path 9650" d="M97.313,1186.26a5.413,5.413,0,0,1-3.811-1.467c-1.906-1.615-4.983-7.623-4.983-9.528a22.261,22.261,0,0,0,4.4-1.467,12.847,12.847,0,0,0,2.2-.734c.586-.3,1.467-.586,2.2-.881.586-.3.438-.3,1.029-.148a6.821,6.821,0,0,0,1.025.438,36.841,36.841,0,0,0,6.746,2.348c0,1.758-2.787,6.746-4.107,8.5-1.025,1.172-2.934,2.934-4.693,2.934Zm.021-38.679a7.914,7.914,0,1,0,7.914,7.914A7.912,7.912,0,0,0,97.334,1147.581ZM70.08,1158.656a4.571,4.571,0,0,0-2.542,8.369c-.27,2.1-.3,7.479,6.016,9.12a15.388,15.388,0,0,0,5.865.586c1.172-.147,4.983-.3,6.012-.734.3.734.586,1.615.881,2.348,1.467,3.812,2.934,6.894,6.16,9.385a8.428,8.428,0,0,0,4.545,1.615c3.52,0,6.16-2.639,7.918-5.131a18.579,18.579,0,0,0,2.344-4.106c1.025-1.906,1.467-3.668,1.906-4.545a22.067,22.067,0,0,0,4.617.721,4.569,4.569,0,0,0,8.841-.683,8.536,8.536,0,0,0,4.87-4.14c1.615-3.521-.148-8.065-2.053-10.852l-2.344-3.521c-.438-.438-1.615-1.615-1.615-1.906,0,0,9.676-10.266,5.426-16.86-3.225-4.84-10.119-4.693-15.545-3.812a5.248,5.248,0,0,1-1.615.3,24.88,24.88,0,0,0-1.32-3.959,7.5,7.5,0,0,1-.628-1.5,4.57,4.57,0,0,0-5.751-6.683,4.9,4.9,0,0,0-.662-.32c-3.373-1.467-6.6-.438-9.238,2.053a25.035,25.035,0,0,0-5.426,9.385c-.148.438-.438,1.025-.586,1.467l-2.639-.438a31.077,31.077,0,0,0-8.213-.147,9.435,9.435,0,0,0-6.16,2.934,7.936,7.936,0,0,0-1.906,6.746c.586,3.225,3.078,7.332,5.279,9.676l1.32,1.615c-.3.586-.3.438-.734.881l-1.733,2.353a4.568,4.568,0,0,0-1.3-.19Zm.4,9.12a4.573,4.573,0,0,0,4.174-4.549,4.526,4.526,0,0,0-.826-2.618c.333-.569,1.252-1.7,1.493-2.062l.734-.734,6.3,5.131c1.172,1.025.881.734,1.025,2.787a50.109,50.109,0,0,0,1.172,6.451c.148,1.025.586.881-2.2,1.32-3.225.438-9.09.734-11-2.053-1-1.429-.885-1.885-.881-3.672Zm47.664,2.492a4.572,4.572,0,0,0-4.313,3.057c-1.286-.122-2.631-.552-3.761-.552a14.994,14.994,0,0,1,.438-2.2,36.192,36.192,0,0,0,1.172-6.746,9.359,9.359,0,0,0,1.906-1.467c.734-.438,1.32-1.029,2.053-1.467l3.664-3.373a55.713,55.713,0,0,1,3.668,4.545c1.467,2.492,3.52,6.746.881,9.238a4.847,4.847,0,0,1-1.762,1.235,4.571,4.571,0,0,0-3.951-2.273Zm-18.3-45.29a4.576,4.576,0,0,0,4.2,6.371,4.506,4.506,0,0,0,1.2-.16,21.042,21.042,0,0,1,1.606,4.486,48.069,48.069,0,0,0-6.893,2.344c-2.2.881-2.053,1.172-3.225.734l-7.623-2.787,1.467-3.668a34.732,34.732,0,0,1,1.758-3.225c2.007-2.812,4.14-5.258,7.513-4.094Zm7.294,46.909c-.586,0-5.131-1.32-5.574-1.906a6.546,6.546,0,0,0,1.758-.881l4.983-2.93a44.481,44.481,0,0,1-1.172,5.717Zm-20.676-5.865c.586,0,1.172.586,1.758,1.025,1.32.586,4.693,2.639,5.717,2.934l-3.078,1.32a26.424,26.424,0,0,1-3.225,1.025,18.984,18.984,0,0,1-.586-3.078C86.894,1168.661,86.6,1166.461,86.456,1166.022Zm11.291,2.492a66.532,66.532,0,0,1-6.451-3.225c-1.025-.734-1.906-1.172-2.934-1.906-2.934-1.906-2.344-.3-2.344-8.5,0-1.906.3-3.373.3-4.984s.438-1.32,2.492-2.787c1.172-.586,2.2-1.32,3.373-1.906,1.172-.734,2.2-1.32,3.373-1.906,2.787-1.32,1.172-1.32,7.037,1.467a10.27,10.27,0,0,1,1.615,1.025l4.983,3.078c0,.881.148,1.172.148,2.2v4.107c0,.881,0,6.451-.586,7.037l-2.934,1.906C104.931,1164.7,98.48,1168.514,97.747,1168.514Zm-14.811-8.8-3.668-2.934a7.276,7.276,0,0,1-1.025-1.172c.3-.438.734-.734,1.025-1.172l2.492-2.053a4.008,4.008,0,0,1,1.32-1.025c0,1.615-.148,2.639-.148,4.106v4.254Zm29.328-8.5a6.852,6.852,0,0,1,1.32.881,24.928,24.928,0,0,1,3.52,3.225c-.3.438-4.254,4.106-4.983,4.254.148-.881.438-7.623.148-8.356ZM106.1,1138.9a5.329,5.329,0,0,0,1.615-.438,6.246,6.246,0,0,0,.3,1.615l.881,4.84-7.623-4.254,4.84-1.758Zm-19.061,5.717a44.479,44.479,0,0,1,1.172-5.717l4.254,1.32a3.481,3.481,0,0,0,1.32.438c-.291.438-2.787,1.615-3.373,2.053l-3.373,1.906Zm-16.86-2.053c0-6.012,9.385-5.426,13.635-4.693a4.315,4.315,0,0,0,1.467.3,15.233,15.233,0,0,1-.586,2.492,20.439,20.439,0,0,1-.586,2.492c-.586,3.959,0,3.52-1.467,4.693l-6.6,5.574-2.053-2.2c-1.615-2.2-3.811-5.574-3.811-8.651Zm40.471-4.84a12.8,12.8,0,0,0,2.492-.438c1.758-.148,2.787-.148,4.545-.148,3.52,0,7.184,1.467,7.184,4.84v.586c0,3.078-4.107,9.385-5.574,10.41-.734-.148-1.025-.881-1.615-1.467-.438-.3-.438-.3-.881-.586-5.131-4.693-4.4-2.2-4.84-5.717l-.881-4.983a17.793,17.793,0,0,1-.438-2.492Z" transform="translate(552.409 -535.258)" fill="#fff"/>
  </g>
</svg>
