<svg xmlns="http://www.w3.org/2000/svg" width="108.482" height="108.482" viewBox="0 0 108.482 108.482">
  <g id="Nutritionist" transform="translate(-1190 -410)">
    <path id="Path_9707" data-name="Path 9707" d="M2122.071,1073.26a54.241,54.241,0,1,1-54.241,54.241A54.242,54.242,0,0,1,2122.071,1073.26Z" transform="translate(-877.83 -663.26)" fill="#004747"/>
    <path id="Path_9708" data-name="Path 9708" d="M2155.01,1141.5c0-5.114-.342-7.5,1.931-10.684a10.426,10.426,0,0,1,8.3-4.2l-.114-3.411a13.077,13.077,0,0,0-7.956,2.728,11.942,11.942,0,0,0-2.728,2.614,13.123,13.123,0,0,0-1.931,3.411c-1.666-2.808-5.726-4.343-11.481-3.069-.573,2.437-1.556,5.831.683,8.753a11.067,11.067,0,0,0-9.545,5.114c-2.386,3.639-2.956,8.07-2.956,13.184h-4.545c-2.614,0-5.456,2.728-5.456,5.8v10.8a9.152,9.152,0,0,0,9.094,8.867h31.937c4.887,0,9.094-3.866,11.481-7.728.342-.569.683-1.138,1.024-1.7a21.7,21.7,0,0,0,1.817-3.639c3.07-7.614,4.545-18.526-.228-25.685a11.172,11.172,0,0,0-3.752-3.525,13.356,13.356,0,0,0-11.932-.228c-2.614,1.252-2.842,2.159-3.639,2.614Z" transform="translate(-907.548 -692.145)" fill="#fff"/>
    <path id="Path_9709" data-name="Path 9709" d="M2127.29,1173.506c0,3.419,4.418,2.614,8.07,2.614l-1.134-5.114c-2.192,0-6.931-.843-6.931,2.5Zm14.55,9.318a34.023,34.023,0,0,1,3.411,0v6.818h3.411v-5.114h3.411c0,6.312-.982,5.114,3.525,5.114v-6.818a34.018,34.018,0,0,1,3.411,0v6.818h3.411v-10.115c-9.309,0-26.815.814-35.121-.569,0,6.822-.51,10.684,7.728,10.684v-5.114h3.411v5.114h3.411v-6.818Zm6.7-39.324c0,5.034,2.7,7.5,7.615,7.5C2156.158,1144.1,2150.07,1142.914,2148.544,1143.5Zm17.274,46.032c11.017,0,20.495-36.824,3.525-36.824-12.817,0-9.659,14.095-9.659,23.412h6.139v13.412Zm-28.527-23.412c0,13.551,2.155,10,18.981,10,0-10.157,3.107-23.412-9.887-23.412C2139.53,1152.708,2137.291,1160.078,2137.291,1166.12Zm25.912,6.366h3.411v-5.114H2163.2Zm-13.639,0h3.411v-5.114h-3.411Z" transform="translate(-912.221 -703.81)" fill="#004747" fill-rule="evenodd"/>
  </g>
</svg>
