<svg xmlns="http://www.w3.org/2000/svg" width="108.33" height="108.33" viewBox="0 0 108.33 108.33">
  <g id="Oncology_Surgeries" data-name="Oncology Surgeries" transform="translate(-1190 -2081)">
    <path id="Path_9693" data-name="Path 9693" d="M3164.646,2295.205a54.163,54.163,0,1,0-54.165,54.165A54.166,54.166,0,0,0,3164.646,2295.205Z" transform="translate(-1866.316 -160.04)" fill="#004747"/>
    <path id="Path_9694" data-name="Path 9694" d="M3148.775,2256.905a54.162,54.162,0,1,1-38.3-15.865A54,54,0,0,1,3148.775,2256.905Z" transform="translate(-1866.31 -160.04)" fill="#004747"/>
    <path id="Path_9695" data-name="Path 9695" d="M3122.184,2316.146c12.244,8.082,11.805-16.7.548-9.545A5.811,5.811,0,0,0,3122.184,2316.146Zm-1.788,11.713-4.76,4.777,7.129,7.576-.826,5.835c6.729,8.318,17.91,14.263,28.834,11.776l-30.381-29.96Zm-3.731,30.276h3.065v-2.146h-3.065Zm-6.738,0h3.369v-2.146h-3.369Zm19.605,0h3.369v-2.146h-3.369Zm-6.434,0h3.369v-2.146H3123.1Zm.557-22.763,20,19.921c-7.26-.717-14.55-4.554-18.479-10.418l.919-4.338-3.719-3.883Zm-4.225-44.295c9.179,14.508,6.813-13.391,14.647-8.218,3.794,2.5-1.21,22.683,11.978,7.64,4.3-4.9,9.031-1.741,6.189,4.283-9.832,20.849,20.625-.337,12.37,12.164-3.79,5.738-15.313,9.739-2.209,12.455,6.556,1.362,8.445,2.816,7.939,4.182H3161.9c-5.578-.544-18.8-.982-4.031-16.068-20.318,8.546-10.186-12.687-10.174-12.737-3.613,2.935-13.311,16.009-15.722-3.419a6.233,6.233,0,0,1-.021-1.269c-1.379,3.833-2.69,14.989-11.215,9.364-1.6-1.054-3.141-4.216-4.495-6,7.185,27.667-18.994,3.736-11.451,11.637,9.946,10.418,1.982,12.973-10.755,17.653l-.578-.105c-3.537-.649-4.621-6.514,2.3-6.91,19.689-1.13-.477-10.195.97-14.963,2.947-9.735,20.373,13.892,14.849-8.694-1.956-8.007,3.027-8.6,7.846-.991Zm-5.3,26.823a2.007,2.007,0,1,0,2.783-.574,2,2,0,0,0-2.783.574Zm22.615-9.145a2.007,2.007,0,1,0,2.783-.569,2.005,2.005,0,0,0-2.783.569Zm-3.221,8.289a2.007,2.007,0,1,0,2.783-.573,2.006,2.006,0,0,0-2.783.573Z" transform="translate(-1886.186 -183.853)" fill="#fff" fill-rule="evenodd"/>
  </g>
</svg>
