<svg xmlns="http://www.w3.org/2000/svg" width="108.482" height="108.482" viewBox="0 0 108.482 108.482">
  <g id="Oncology" transform="translate(-1190 -866)">
    <path id="Path_9683" data-name="Path 9683" d="M2122.071,2240.92a54.241,54.241,0,1,1-54.241,54.241A54.242,54.242,0,0,1,2122.071,2240.92Z" transform="translate(-877.83 -1374.92)" fill="#004747"/>
    <path id="Path_9684" data-name="Path 9684" d="M2163.244,2300.291c0-2.774,5.633-10.14,1.354-10.14-.578,0-12.577,16.755-14.487,1.868-.316-2.471-.287-7.142-2.863-6.375-1.994.594-1.648,23.062-14.069,6.408-2.867-3.845-3.955-.9-3.955-.324,0,.282,9.52,19.593-7.737,11.792-4.376-1.977-7-.038-2.627,3.078,17.021,12.122-6.531,11.67-6.531,14.419,0,3.908,24.732.173,5.144,15.507-2.159,1.687.493,2.968.717,2.968,3.5,0,8.626-5.409,12.547-1.51,4.149,4.128-4.646,14.124.072,14.124,1.32,0,12.716-19.622,15.052,1.619.164,1.492.282,2.66,1.847,2.66,4.026,0-.329-12.391,7.661-12.391,2.774,0,15.284,16.987,9.3,1.965-6.885-17.291,13.905-3.28,13.905-8.044,0-2.142-19.133-12,1.48-14.967,4.237-.607,4.36-3.23.169-3.8-21.06-2.893-1.648-13.062-1.648-15.026,0-5.123-15.322,7.526-15.322-3.828Z" transform="translate(-903.568 -1400.739)" fill="#fff"/>
    <path id="Path_9685" data-name="Path 9685" d="M2126.22,2409.533v-.013c-.034.008-.051.013-.021.013Z" transform="translate(-911.581 -1472.436)"/>
    <path id="Path_9686" data-name="Path 9686" d="M2235.922,2300.531l.021-.131C2235.733,2300.408,2235.8,2300.455,2235.922,2300.531Z" transform="translate(-974.985 -1409.322)"/>
    <path id="Path_9687" data-name="Path 9687" d="M2163.188,2294.533c-6.64,14.744,14.061-1.594,14.061,7.248,0,4.28-18.458,10.819.207,13.382,6.084.835,6.054,6.194-.156,7.087-21.49,3.091,10.97,16.038-3.141,16.038-6.476,0-15.6-6.986-10.937,4.726,7.5,18.829-10.8.308-10.84.308-6.32,0-1.307,12.391-7.661,12.391-7.518,0-.114-22.927-13.736-6.8-9.613,11.379-3.563-11.265-4.4-12.1-2.293-2.281-17.172,6.135-14.457-2.163,1.56-4.764,16.658-9.191,1.986-12.117-18.134-3.618,4.887-8.707,6.075-10.38,1.965-2.757-14.255-11-6.1-13.272,4.916-1.366,18.905,10.616,10.81-8.394-1.328-3.116,2.719-7.011,6.628-1.771,11.105,14.887,7.766-5.662,12.265-7,9.368-2.791-.746,24.3,15.486,6.122l0,0C2162.251,2284.507,2167.231,2285.557,2163.188,2294.533Z" transform="translate(-900.59 -1398.4)" fill="#fff"/>
    <path id="Path_9688" data-name="Path 9688" d="M2164.61,2302.988c0-1.99,1.859-5.144,2.639-7.344-19.9,22.1-14.133-14.347-16.671-3.272-3.6,15.718-8.82,10.777-16.291,2.652,9.292,22.552-12.046,12.121-12.514,12.062,4.549,4.381,16.532,11.392-1.653,16.27-12.6,3.377,26.642-2.61,1.412,17.147,2.93-.4,20.191-10.853,12.893,11.337,18.248-22.088,15.355,16.139,16.81,2.433,2.184-20.567,16.894-.894,17.122-.987,1.813-.721-16.312-18.652,10.532-13.445-19.07-12.745,5.177-16.118,5.228-16.135-4.617-1.455-21.532-2.382-6.042-15.612a5.963,5.963,0,0,1,1.092-.742c-4.119,1-14.558,6.257-14.558-4.368Z" transform="translate(-906.591 -1403.436)" fill="#004747"/>
    <path id="Path_9689" data-name="Path 9689" d="M2172,2337.954c0,15.267,21.271.675,8.6-5A6.043,6.043,0,0,0,2172,2337.954Zm5.8,21.313a2.724,2.724,0,1,0,2.724,2.724A2.722,2.722,0,0,0,2177.8,2359.267Zm-21.123-12.585a2.724,2.724,0,1,0,2.724,2.724A2.722,2.722,0,0,0,2156.674,2346.681Zm9.187-14.7a2.087,2.087,0,1,0,2.087,2.087A2.089,2.089,0,0,0,2165.861,2331.98Zm-3.255,8.972a2.087,2.087,0,1,0,2.087,2.087A2.086,2.086,0,0,0,2162.606,2340.952Zm24.159,5.426a2.087,2.087,0,1,0,2.087,2.087A2.089,2.089,0,0,0,2186.764,2346.378Zm-9.044,1.952a2.087,2.087,0,1,0,2.087,2.087A2.089,2.089,0,0,0,2177.721,2348.33Zm-11.805,12.834c9.271,0,2.9-14.533-3.559-7.614A4.663,4.663,0,0,0,2165.916,2361.164Z" transform="translate(-927.64 -1427.587)" fill="#fff"/>
  </g>
</svg>
