<svg xmlns="http://www.w3.org/2000/svg" width="108.48" height="108.48" viewBox="0 0 108.48 108.48">
  <g id="Orthopedics" transform="translate(-38 -1023)">
    <path id="Path_8619" data-name="Path 8619" d="M54.24,0A54.24,54.24,0,1,1,0,54.24,54.24,54.24,0,0,1,54.24,0Z" transform="translate(38 1023)" fill="#004747"/>
    <path id="Path_117" data-name="Path 117" d="M82172,6068.583c3.641,0,17.336,1.638,20.6,2.8,3.289,1.176,3.836,3.142,6.227,5.417a4.441,4.441,0,0,0,7.219-1.6,6.534,6.534,0,0,0-.234-4.922c-2.156-4.541-6.891-4.4-12.273-4.98-4.4-.479-17.648-2.077-21.172-1.969Zm42.836,37.77c-.227-6.251-.773-12.687-1.187-18.948-.211-3.3-.211-5.889-2.094-7.847-1.734-1.778-5.117-1.7-7.594-.521a10.89,10.89,0,0,0-3.055,1.919c-2.664,3.192,1.852,4.494,3.094,5.242a7.938,7.938,0,0,1,2.648,2.335c2.156,2.855,2.078,13.38,2.078,17.819Zm-10.992-16.679a2.425,2.425,0,0,0-1.984-3.466c-1.922-.171-2.508,1.224-2.859,2.854a28.229,28.229,0,0,0-.273,10.441c.1.776.3,1.635.469,2.4.219.875.336,1.649,1.328,1.589,1.4-.091.773-2.161.93-4.875C82201.727,6094.855,82202.625,6092.769,82203.844,6089.673Zm3.43-19.7c.055.322.7,1.535.875,2.081.875,2.6-.234,4.41,1.461,4.5,1.023.06,1.3-.58,1.492-1.445.492-2.186-.055-6.066-2.3-6.275C82207.914,6068.75,82207.117,6069.076,82207.273,6069.972Z" transform="translate(-82107.133 -5002.454)" fill="#fff" fill-rule="evenodd"/>
    <path id="Path_118" data-name="Path 118" d="M81754.969,1736.045c2.875.207,5.8.6,8.641,1,3.828.541,7.7,1.171,11.484,1.877,3.844.706,7.672,1.49,11.469,2.44,1.594.4,3.188.831,4.781,1.33a34.375,34.375,0,0,1,3.656,1.363c7.422,3.429,11.047,17.364,12.578,24.635a138.328,138.328,0,0,1,2.172,14.324,86.38,86.38,0,0,1,.5,10.634l-.031,1.411-6.2-.17.031-1.418c.281-8.336-3.484-40.015-11.656-43.781a25.583,25.583,0,0,0-3.266-1.2c-1.469-.457-2.969-.855-4.469-1.223-3.625-.892-7.359-1.631-11.016-2.3s-7.359-1.269-11.016-1.789c-2.672-.377-5.422-.749-8.125-.943l-1.5-.11,1.328-6.128Z" transform="translate(-81689.406 -688.291)" fill="#fff" fill-rule="evenodd"/>
  </g>
</svg>
