<svg xmlns="http://www.w3.org/2000/svg" width="108.482" height="108.482" viewBox="0 0 108.482 108.482">
  <g id="Pain_Clinic_Algology_" data-name="Pain Clinic (Algology)" transform="translate(-595 -1938)">
    <path id="Path_9699" data-name="Path 9699" d="M1012.011,1392.9a54.241,54.241,0,1,1-54.241,54.241A54.242,54.242,0,0,1,1012.011,1392.9Z" transform="translate(-362.77 545.1)" fill="#004747"/>
    <path id="Exclusion_7" data-name="Exclusion 7" d="M2219.494,77.692a3.188,3.188,0,0,1-2.791-1.648c-.388-.7-.781-1.428-1.128-2.069l-.01-.018c-.634-1.172-1.29-2.384-1.965-3.554a17.916,17.916,0,0,0-2.134-3.137,2.848,2.848,0,0,0-2.227-1,8.566,8.566,0,0,0-1.69.225c-.136.026-.248.043-.375.055-.417.034-.831.051-1.23.051a9.707,9.707,0,0,1-5.187-1.3,7.065,7.065,0,0,1-3.118-4.413,3.265,3.265,0,0,1,.342-2.644,4.936,4.936,0,0,1,3.268-2c.889-.178,1.827-.277,2.734-.372H2204l.622-.066a20.7,20.7,0,0,0,4.472-.854c-.137-.671-.4-1.5-.86-1.637a1.894,1.894,0,0,0-.536-.066,10.048,10.048,0,0,0-2.92.682c-.988.36-1.959.8-2.9,1.217-.774.347-1.574.706-2.38,1.021a9.459,9.459,0,0,1-2.915.734c-.074,0-.148.005-.222.005a3.978,3.978,0,0,1-3.914-2.719,3.091,3.091,0,0,1-.165-1.058,6.819,6.819,0,0,0-.514-2.155,12.456,12.456,0,0,1-4.3-1.644,4.569,4.569,0,0,1-2.059-3.917,12.069,12.069,0,0,1,1.007-4.212q.178-.48.358-.958c.516-1.38,1.05-2.808,1.514-4.245.24-.736-.774-2.814-1.261-3.813-.058-.12-.108-.222-.146-.3a3.047,3.047,0,0,1-.287-.983,29.839,29.839,0,0,1,.946-12.27,26.013,26.013,0,0,1,5.447-9.861,25.43,25.43,0,0,1,8.788-6.429A27.62,27.62,0,0,1,2213.064,0a31.818,31.818,0,0,1,5.149.428,34.894,34.894,0,0,1,9.12,2.705,22.587,22.587,0,0,1,6.81,4.811,21.424,21.424,0,0,1,4.422,7.023,31.292,31.292,0,0,1,1.957,9.341c0,.013,0,.025,0,.037s0,.021,0,.03a47.036,47.036,0,0,1-1.032,12.105c-.008.026-.014.051-.02.077s-.01.04-.015.058a32.289,32.289,0,0,0-.687,3.225c-.336,4.962,5.309,17.312,7.4,21.25a3.183,3.183,0,0,1-1.391,4.347l-23.868,11.919A3.16,3.16,0,0,1,2219.494,77.692ZM2209.281,63.1a5.781,5.781,0,0,1,4.7,2.2,38.8,38.8,0,0,1,4.148,6.72c.427.788.87,1.6,1.36,2.49l23.867-11.92a103.96,103.96,0,0,1-5.064-11.339c-1.374-3.671-2.957-8.7-2.693-11.782a36.381,36.381,0,0,1,.771-3.668,43.885,43.885,0,0,0,.966-11.287c-.809-12.219-7.05-18.874-19.643-20.946a28.3,28.3,0,0,0-4.587-.381,23.337,23.337,0,0,0-17.806,7.719c-4.51,5.1-6.481,12.059-5.552,19.594,1.27,2.656,2.187,4.575,1.565,6.472-.579,1.795-1.135,3.268-1.583,4.452-.934,2.472-1.448,3.833-.941,4.748s2.054,1.366,4.931,1.944a8.737,8.737,0,0,1,1.746,5.046.814.814,0,0,0,.883.546,13.2,13.2,0,0,0,4.056-1.41c.332-.148.63-.282.937-.416a17.259,17.259,0,0,1,6.356-1.827c2.64,0,4.16,1.636,4.645,5a2.165,2.165,0,0,1-.421,1.7c-1.238,1.6-4.75,1.978-7.573,2.284-1.835.2-3.285.356-3.585.791a.3.3,0,0,0-.045.256c.58,2.237,2.259,3.325,5.133,3.325.336,0,.694-.015,1.065-.046A11.926,11.926,0,0,1,2209.281,63.1Zm34.594-13.239h0l6.6-11.848L2242.4,26.64l12.035-12.528,4.78,5.441-9.786,8.069,5.667,10.065Zm-59.6-11.48-8.507-8.085,3.533-7.386-7.3-5.25,3.124-4.072,9.1,8.3-5.178,8.429,5.228,8.067Z" transform="translate(-1565.313 1957.337)" fill="#fff"/>
    <path id="Path_9701" data-name="Path 9701" d="M1039.763,1511.48l.051,3.546c2.032-1.37,5.426-1.927,6.864.219a11.6,11.6,0,0,0-8.129,1.977l-.438-5.477,1.653-.261Z" transform="translate(-409.237 476.515)" fill="#fff" fill-rule="evenodd"/>
  </g>
</svg>
