<svg xmlns="http://www.w3.org/2000/svg" width="108.33" height="108.33" viewBox="0 0 108.33 108.33">
  <g id="Pediatrics" transform="translate(-1190 -1929)">
    <path id="Path_9691" data-name="Path 9691" d="M3148.775,1774.975a54.161,54.161,0,1,1-38.3-15.865A54,54,0,0,1,3148.775,1774.975Z" transform="translate(-1866.31 169.89)" fill="#004747"/>
    <path id="Path_9692" data-name="Path 9692" d="M3128.52,1835v.434c4.431,0,2.6.143,3.538-1.252a2.086,2.086,0,0,1,3.723,1.252h3.2a5.253,5.253,0,0,0-5.515-5.228,5.127,5.127,0,0,0-4.937,4.79Zm18.151.434h3.2a2.047,2.047,0,0,1,3.988-.649c.3.869-.211.649,3.272.649a5.171,5.171,0,0,0-8.968-3.6,5.417,5.417,0,0,0-1.484,3.6Zm-11.472,7.985c.282,1.067,1.969,2.5,2.875,3.078,5.785,3.668,11.759-.78,12.37-3.078a6.19,6.19,0,0,1-1.315-.721,6.94,6.94,0,0,0-1.442-.734,5.643,5.643,0,0,1-9.727,0c-.776.181-2.1,1.277-2.758,1.45Zm15.246-26.279c5.679,11.835-15.971,17.611-15.971,3.483,4.49,0,2.635-.325,3.478,1.893,1.851,4.844,10.022,4.8,10.022-2.475,0-8.23-20.267-5.57-24.1,10.89-6.737,0-6.813,7.694,0,7.694,4.785,20.533,33.1,20.571,37.895,0,6.742,0,6.813-7.694,0-7.694-1.67-7.159-8.133-13.53-11.324-13.8Zm-22.5,34.577a27.3,27.3,0,0,0-12.383,22.852c0,.16,0,.316,0,.472h-3.314c0-.156,0-.316,0-.472A30.6,30.6,0,0,1,3125.6,1849.3a21.109,21.109,0,0,1-2.357-3.512c-3.225-6.054-.19-2.88-3.968-4.886-5.03-2.669-4.836-10.895,1.315-12.821.987-.308.805-.1,1.134-1.046,1.636-4.709,7.243-11.114,10.136-11.788v-.291c-2.677-.624-5.228-3.875-5.228-7.26h3.2c0,2.909,2.315,4.646,5.519,4.646-.147-.628-1.379-2.015-1.45-4.646l3.2.013c.152,5.742,6.9,4.359,9.836,4.958a22.459,22.459,0,0,1,17,14.364c.654,1.88,1.21.127,3.934,2.745a7.054,7.054,0,0,1-2.353,11.557c-1.948.869-.788-.489-2.083,2.416a23.743,23.743,0,0,1-3.4,5.51,31.23,31.23,0,0,1,4.444,3.676,30.48,30.48,0,0,1,8.955,21.625c0,.16,0,.316,0,.472H3170.1c0-.156,0-.316,0-.472a27.183,27.183,0,0,0-7.985-19.281,27.487,27.487,0,0,0-4.444-3.6,22.832,22.832,0,0,1-29.724.03Z" transform="translate(-1898.665 141.786)" fill="#fff" fill-rule="evenodd"/>
  </g>
</svg>
