<svg xmlns="http://www.w3.org/2000/svg" width="108.33" height="108.33" viewBox="0 0 108.33 108.33">
  <g id="Pediatrics_Surgeries" data-name="Pediatrics Surgeries" transform="translate(-1190 -2233)">
    <path id="Path_9454" data-name="Path 9454" d="M3148.775,2644.226a54.161,54.161,0,1,1-38.3-15.865A54,54,0,0,1,3148.775,2644.226Z" transform="translate(-1866.31 -395.36)" fill="#004747"/>
    <path id="Path_9690" data-name="Path 9690" d="M3129.144,2735.95h3.065V2733.8h-3.065Zm-1.2-38.839a27.3,27.3,0,0,0-12.383,22.852c0,.16,0,.316,0,.472h-3.314c0-.156,0-.316,0-.472A30.6,30.6,0,0,1,3125.6,2694.7a21.119,21.119,0,0,1-2.357-3.512c-3.225-6.055-.19-2.88-3.968-4.887-5.03-2.669-4.836-10.895,1.315-12.821.987-.308.805-.1,1.134-1.046,1.636-4.709,7.243-11.114,10.136-11.788v-.291c-2.677-.624-5.228-3.875-5.228-7.26h3.2c0,2.909,2.315,4.646,5.519,4.646-.147-.628-1.379-2.016-1.45-4.646l3.2.013c.152,5.743,6.9,4.36,9.836,4.958a22.458,22.458,0,0,1,17,14.364c.654,1.88,1.21.126,3.934,2.745a7.054,7.054,0,0,1-2.353,11.557c-1.948.869-.788-.489-2.083,2.416a23.736,23.736,0,0,1-3.4,5.51,31.224,31.224,0,0,1,4.444,3.677,30.48,30.48,0,0,1,8.955,21.625c0,.16,0,.316,0,.472H3170.1c0-.156,0-.316,0-.472a27.183,27.183,0,0,0-7.985-19.281,27.487,27.487,0,0,0-4.444-3.6,22.832,22.832,0,0,1-29.724.03Zm4.929,8.559-4.76,4.777,7.129,7.576-.826,5.835c6.729,8.318,17.91,14.263,28.834,11.776l-30.382-29.96Zm3.263,7.517,20,19.921c-7.26-.717-14.55-4.553-18.479-10.418l.919-4.338-3.719-3.883Zm14.305-50.653c5.679,11.835-15.971,17.611-15.971,3.483,4.49,0,2.635-.325,3.479,1.893,1.851,4.844,10.022,4.8,10.022-2.475,0-8.23-20.267-5.57-24.1,10.89-6.738,0-6.813,7.695,0,7.695,4.785,20.533,33.1,20.571,37.895,0,6.742,0,6.813-7.695,0-7.695-1.669-7.159-8.133-13.53-11.324-13.8Zm-15.246,26.279c.282,1.067,1.969,2.5,2.875,3.078,5.784,3.668,11.759-.78,12.37-3.078a6.186,6.186,0,0,1-1.316-.721,6.947,6.947,0,0,0-1.442-.734,5.643,5.643,0,0,1-9.727,0c-.776.181-2.1,1.278-2.757,1.451Zm11.472-7.985h3.2a2.047,2.047,0,0,1,3.989-.649c.3.868-.211.649,3.272.649a5.17,5.17,0,0,0-8.968-3.6,5.417,5.417,0,0,0-1.484,3.6Zm-18.151-.434v.434c4.431,0,2.6.144,3.537-1.252a2.086,2.086,0,0,1,3.723,1.252h3.2a5.253,5.253,0,0,0-5.515-5.228,5.127,5.127,0,0,0-4.937,4.79Zm-6.113,55.556h3.369V2733.8h-3.369Zm19.6,0h3.369V2733.8h-3.369Zm-6.434,0h3.369V2733.8h-3.369Z" transform="translate(-1898.665 -409.663)" fill="#fff" fill-rule="evenodd"/>
  </g>
</svg>
