<svg xmlns="http://www.w3.org/2000/svg" width="108.48" height="108.48" viewBox="0 0 108.48 108.48">
  <g id="Plastic_Surgeries" data-name="Plastic Surgeries" transform="translate(-38 -108)">
    <ellipse id="Ellipse_336" data-name="Ellipse 336" cx="54.24" cy="54.24" rx="54.24" ry="54.24" transform="translate(38 108)" fill="#004747"/>
    <path id="Path_112" data-name="Path 112" d="M29189.563,1232.643c-.965-6.324-2.221-14.308.369-20.083a40.455,40.455,0,0,1,2.182-3.591,49.247,49.247,0,0,0,5.2-11.583c3.814-13.72-.973-22.863-13.008-29.445-16.449-9-42.3.582-40.066,20.963.352,3.283,1.125,2.82-.229,4.588a45.483,45.483,0,0,0-6.014,10.629,27.4,27.4,0,0,0,4.426,3.268c.059,1.588,0,3.178-.023,4.765-.029,2.154.5,1.987,1.361,3.292,1.428,2.144-2.6,8.68,2.809,10.1,5.346,1.409,7.59.529,12.271.612l.5,7.188Z" transform="translate(-29076.059 -1036.71)" fill="#fafafa" fill-rule="evenodd"/>
    <path id="Path_113" data-name="Path 113" d="M30881.141,2592.846c-.02-.2-.043-.4-.066-.606-.1-.793-.205-1.587-.256-2.383a47.308,47.308,0,0,1-.086-5.315c.238-5.573,1.1-8.152,4.076-12.835.65-1.014,1.24-2.062,1.824-3.105a35.007,35.007,0,0,0,3.084-7.313c1.432-4.969,1.674-10.517-.641-15.271-2.137-4.4-5.861-6.683-9.953-9.057a24.113,24.113,0,0,0-14.6-2.648c-10.623,1.214-20.408,8.345-18.258,20.107a17.239,17.239,0,0,1,.611,3.066,3.744,3.744,0,0,1-1,2.531,31.988,31.988,0,0,0-4.877,7.558,13.778,13.778,0,0,0,1.213.891,5.011,5.011,0,0,1,1.59,1.323,4.075,4.075,0,0,1,.58,2.51c-.012,1.236-.078,2.47-.094,3.7-.027,1.389.328,1.282,1.117,2.371a3.824,3.824,0,0,1,.828,2.554c-.059.856-.389,1.681-.506,2.531a22.224,22.224,0,0,0-.271,2.432c.111.026.213.046.287.064.545.108,1.082.18,1.627.25a22.7,22.7,0,0,0,4.682.174c1.184-.09,2.361-.3,3.539-.452a19.6,19.6,0,0,1,2.977-.2l1.75.029.658,7.518Z" transform="translate(-30773.125 -2401.521)" fill="#004747" fill-rule="evenodd"/>
    <path id="Path_114" data-name="Path 114" d="M31343.213,10493.028c.949-.675.67-1.222.322-2.211-1.123-.356-5.541-1.241-5.654.941C31337.779,10493.962,31342.482,10493.542,31343.213,10493.028Zm-5.355,17.193c-6.508,1.91-3.17,4.084-1.561,3.608C31342.256,10512.071,31339.686,10509.691,31337.857,10510.222Zm-5.967-20.705c-1.525.64-1.027,2.225.5,2.749,6.422,2.218,4.633-1.462,3.072-2.032C31334.57,10489.909,31332.715,10489.166,31331.891,10489.517Zm16.348,11.191c-.789.37-1.455,2.042-1.906,2.991-.777,1.618.211,3.071,1.711,2.361.615-.294,1.451-2.175,1.84-3.063C31350.619,10501.319,31349.494,10500.1,31348.238,10500.708Zm.789-11.811c-6.748,1.663-3.574,4.078-1.982,3.686C31353.307,10491.047,31350.326,10488.575,31349.027,10488.9Zm.008,4.648c-1.041.737-1.492,7.044,1.4,5.5C31351.707,10498.359,31351.844,10491.564,31349.035,10493.546Zm-5.227,12.845a25.108,25.108,0,0,0-3.035,1.963,1.418,1.418,0,0,0,1.518,2.38,26.166,26.166,0,0,0,2.922-1.993A1.384,1.384,0,0,0,31343.809,10506.391Z" transform="translate(-31261.391 -10328.573)" fill="#fafafa" fill-rule="evenodd"/>
  </g>
</svg>
