<svg xmlns="http://www.w3.org/2000/svg" width="108.482" height="108.482" viewBox="0 0 108.482 108.482">
  <g id="Psychiatry" transform="translate(-595 -2395)">
    <path id="Path_9674" data-name="Path 9674" d="M996.261,2614.45a54.241,54.241,0,1,1-54.241,54.241A54.242,54.242,0,0,1,996.261,2614.45Z" transform="translate(-347.02 -219.45)" fill="#004747"/>
    <path id="Path_9675" data-name="Path 9675" d="M1060.078,2687.932a6.1,6.1,0,0,1,.7,3.516,3.177,3.177,0,0,1-.493,1.725c-.367.662-.7,1.273.708,4.094l.009.013a14.77,14.77,0,0,0,1.766,2.9,4.4,4.4,0,0,1,1.223,2.922,3.273,3.273,0,0,1-1.467,2.753,6.391,6.391,0,0,1-3.133,1.045,2.9,2.9,0,0,0,.379.628c.565.78,1.109,1.53-.03,3.293.409,1.628.586,2.407-1.682,3.748a2.461,2.461,0,0,0,.274.5c.308.447.569.826.569,2.766a3.792,3.792,0,0,1-.911,2.437,6.381,6.381,0,0,1-2.462,1.745,8.6,8.6,0,0,1-5.957-.042c-2.053-.557-3.63-.978-4.617,2.416a7.41,7.41,0,0,0-.185,1.577c-.072,1.556-.143,3.048-2.007,3.048h-27.051c-1.8,0-1.893-1.269-2.015-2.926a5.887,5.887,0,0,0-1.4-4.039,3.606,3.606,0,0,0-.662-.455,4.11,4.11,0,0,1-.835-.59c-.54-.54-.679-1.193.291-2.163l.139-.139h.194a4.273,4.273,0,0,1,2.939,1.21,5.642,5.642,0,0,1,1.24,1.729l.228-.927c.658-2.627,1.691-6.75.253-10.06a33.933,33.933,0,0,0-4.174-7.193,22.1,22.1,0,0,1-2.053-3.187,17.387,17.387,0,0,1-2.1-9.364c.228-3.466,1.5-7.534,4.191-12.927l.042-.063a24.9,24.9,0,0,1,9.267-7.812,32.993,32.993,0,0,0-6.535,1.185,19.191,19.191,0,0,0-7.526,4.169c-4.465,4-4.806,7.062-5.114,9.815a14.648,14.648,0,0,1-.653,3.39,5.846,5.846,0,0,1-.291.633,4.256,4.256,0,0,0-.485,1.219,4.119,4.119,0,0,0,.489,2.066c.493,1.007.869,1.783-.654,5.2a13.817,13.817,0,0,1-1.02,2.176,17.042,17.042,0,0,1-1.324,1.965l-.021.021c-.755.856-.852,1.265-.637,1.455a4.37,4.37,0,0,0,1.834.5,3.992,3.992,0,0,1,1.982.6,2.438,2.438,0,0,1,.729,1.682,4.933,4.933,0,0,1-.346,2.2l-.013.025a2.62,2.62,0,0,1-.468.691l0,0,.207.173a1.679,1.679,0,0,1,.847,1.332,1.393,1.393,0,0,1-.666,1.286l.341.186a2.469,2.469,0,0,1,1.223,1.155,3.012,3.012,0,0,1-.181,2.859,3.825,3.825,0,0,0-.447,1.615c0,1.61,2.175,1.8,3.689,1.8.358,0,.6-.009.81-.013a2.641,2.641,0,0,1,.995.067l.055.03a1.736,1.736,0,0,1,.721.865,1.23,1.23,0,0,1-.021.868,1.534,1.534,0,0,1-.54.666,2.793,2.793,0,0,1-1.627.472,14.042,14.042,0,0,1-2.648-.16,5.313,5.313,0,0,1-2.466-1.151c-2.892-2.34-1.9-4.659-1.248-6.164l.173-.417c-2.2-1.315-2.121-1.969-1.678-3.748-1.13-1.826-.611-2.5-.046-3.242a2.359,2.359,0,0,0,.4-.675,5.925,5.925,0,0,1-3.4-1.366,3.876,3.876,0,0,1-.89-1.126,3.006,3.006,0,0,1-.337-1.383,3.781,3.781,0,0,1,1.067-2.5,14.452,14.452,0,0,0,1.965-2.977,11.194,11.194,0,0,0,1.008-3.094l.008-.038a1.715,1.715,0,0,0-.245-1.164c-.451-.991-1.029-2.272.266-5.325a12.707,12.707,0,0,0,.628-3.124c.316-2.6.7-5.743,3.6-9.061a23.619,23.619,0,0,1,7.484-5.84,30.051,30.051,0,0,1,9.276-2.622h0a13.827,13.827,0,0,1,1.733-.072,13.24,13.24,0,0,0,1.6-.063,12.812,12.812,0,0,1,4,.072,20.685,20.685,0,0,0,2.37.194h1.463a70.636,70.636,0,0,1,13.74.94l.038.008a23.784,23.784,0,0,1,4.865,2c1.172.67,2.057,1.442,2.057,2.205,0,1.079-.519,1.433-1.2,1.433a4.567,4.567,0,0,1-2.032-.8l-.127-.076a27.672,27.672,0,0,0-6.231-2.247,35.477,35.477,0,0,0-4.275-.721l.788.413a29.316,29.316,0,0,1,7.661,6.7,20.291,20.291,0,0,1,4.069,9.428v0a26.967,26.967,0,0,1,.068,7.762,32.307,32.307,0,0,1-1.969,7.336l-.013.034a28.478,28.478,0,0,1-3.322,5.169c-2.34,3.078-4.216,5.557-2.673,11.793l.8,2.766a6.655,6.655,0,0,1,1.345-1.72,4.5,4.5,0,0,1,3.023-1.269,8.809,8.809,0,0,1,1.421.261,20.356,20.356,0,0,0,4.271.637c1.589,0,2.943-.472,2.943-2.167a1.1,1.1,0,0,0-.27-.826c-.059-.076-.118-.156-.186-.249l-.025-.042c-1.429-2.741.388-3.761,1.345-4.3.122-.067.207.24.207.063,0-.012-.059-.025-.126-.067a1.186,1.186,0,0,1-.679-1.134,1.551,1.551,0,0,1,.822-1.417,2.643,2.643,0,0,0,.266-.211l-.11-.135a2.678,2.678,0,0,1-.7-1.775c-.519-2.159.46-2.863,1.585-3.137a7.4,7.4,0,0,1,1.1-.156c.207-.017.392-.034.51-.055,1.1-.2,1.4-.489,1.341-.818a4.691,4.691,0,0,0-.915-1.514c-.2-.266-.4-.535-.6-.831-3.31-5.03-2.66-6.843-2.062-8.508a4.807,4.807,0,0,0,.375-1.661,2.4,2.4,0,0,0-.278-.754,9.209,9.209,0,0,1-.923-3.074c-.135-.755-.2-1.4-.266-2.011a10.68,10.68,0,0,0-2.07-5.814l-2.138-3.074-.084-.27a1.535,1.535,0,0,1,.207-.809,1.212,1.212,0,0,1,.662-.536,1.465,1.465,0,0,1,.81-.025,1.874,1.874,0,0,1,.869.5,14.76,14.76,0,0,1,4.608,9.659,14.21,14.21,0,0,0,.847,3.613l0,.017Zm-58.621,23.868Zm15.954,14.259h23.7l-.734-3.225c-1.185-5.19-1.775-7.753-1.45-10.03.32-2.239,1.5-4.077,3.824-7.707.59-.923,1.261-1.965,2.02-3.179a25,25,0,0,0,2.635-12.164A19.513,19.513,0,0,0,1043.6,2679a23.494,23.494,0,0,0-4.107-4.132,20.552,20.552,0,0,0-4.79-2.808l-.013,0c-1.067-.4-4.2-1.568-5.443-1.568a13.183,13.183,0,0,0-4.781,1.227,28.265,28.265,0,0,0-5.646,3.229,21.762,21.762,0,0,0-7.058,10.933,22.486,22.486,0,0,0,.649,13.163l1.982,3.963a25.371,25.371,0,0,0,2.357,3.478c2.677,3.5,4.688,6.122,1.433,17.362l-.017.055a19.527,19.527,0,0,0-.746,2.159Z" transform="translate(-377.356 -249.851)" fill="#fff" fill-rule="evenodd"/>
    <path id="Path_9676" data-name="Path 9676" d="M1055.762,2680.9c8.727,0,15.8,8.163,15.8,18.235,0,12.981-7.214,9.524-7.214,20.752,0,6.084-3.845,11.017-8.588,11.017s-8.588-4.933-8.588-11.017c0-11.228-7.214-7.771-7.214-20.752C1039.96,2689.067,1047.035,2680.9,1055.762,2680.9Z" transform="translate(-403.667 -257.884)" fill="#fff" fill-rule="evenodd"/>
  </g>
</svg>
