<svg xmlns="http://www.w3.org/2000/svg" width="108.482" height="108.482" viewBox="0 0 108.482 108.482">
  <g id="Psychology" transform="translate(-595 -1023)">
    <path id="Path_9657" data-name="Path 9657" d="M65.391,2614.45a54.241,54.241,0,1,1-54.241,54.241,54.242,54.242,0,0,1,54.241-54.241Z" transform="translate(583.85 -1591.45)" fill="#004747"/>
    <path id="Subtraction_7" data-name="Subtraction 7" d="M2233.078,61.135h-61.045V57.56h14.427v-6.08c0-.4-3.584-3.9-7.05-7.289-3.118-3.045-6.063-5.921-6.542-6.663a6.362,6.362,0,0,1-.055-6.319,6.091,6.091,0,0,1,2.163-2.293,6.6,6.6,0,0,1,3.495-.924,6.394,6.394,0,0,1,6.414-6.494,6.627,6.627,0,0,1,3.482,1.008c3.934,2.43,3.934,5.631,3.934,7.749h0a5.083,5.083,0,0,1,3.27,1.587,4.574,4.574,0,0,0,.543.437,7.3,7.3,0,0,0,1.406-1.235c.885-.937,1.648-1.746,4.556-1.746a5.227,5.227,0,0,1,4.219,2.632c.258.355.427.589.55.589h11.088a1.767,1.767,0,0,0,.318-.286c.855-.841,3.125-3.074,5.715-3.074a5.006,5.006,0,0,1,3.862,2.048c3.176,3.788.472,6.749-.683,8.013a4.947,4.947,0,0,0-.388.453,5.988,5.988,0,0,1,6.236,6.066c.115,3-1.58,6.186-5.043,6.452V57.56h5.126v3.574Zm-43.047-8.82V57.56h3.7V52.315Zm30.643,0V57.56h3.7V52.673a.315.315,0,0,0-.358-.358Zm-23.374,0V57.56H2217.1V52.673a.315.315,0,0,0-.358-.358ZM2193.371,21.2h0l0,0c0-1.321-.041-2.687-.08-4.008v-.011a51.466,51.466,0,0,1,.22-8.82c.453-2.971,1.5-5.05,3.2-6.357C2198.862.34,2201.4,0,2204.545,0c.794,0,1.6.021,2.448.043.879.023,1.786.047,2.711.047a8.685,8.685,0,0,1,6.087,2.616,8.784,8.784,0,0,1,2.615,6.208,9.453,9.453,0,0,1-1.172,4.883,7.331,7.331,0,0,1-2.993,2.758c-2.586,1.344-5.978,1.5-8.3,1.5-.827,0-1.628-.021-2.377-.044l-.181-.005c-.661-.02-1.286-.039-1.825-.039a4.746,4.746,0,0,0-1.985.247c-.856.488-5.6,2.862-6.2,2.981Z" transform="translate(-1553.296 1043.047)" fill="#fff"/>
    <path id="Path_9659" data-name="Path 9659" d="M108,2674.27h3.575v3.575H108Zm13.235,32.431c.835,0,.717,0,1.193-.477l2.386-2.382a2.406,2.406,0,0,0,1.193-2.028c0-1.429-1.906-2.863-3.816-1.071-.358.477-.835.835-1.193,1.311-.717.594-.835,1.071-1.429,1.071H107.29c-.476,2.146-1.788,2.863-2.264,3.575h16.215Zm-38.869-11.923a3.727,3.727,0,0,0,1.311,2.623c.953.953,1.429,1.429,2.863,1.429a2.8,2.8,0,0,0,1.788-.835,2.654,2.654,0,0,0,.476-3.221,8.745,8.745,0,0,0-2.622-2.5,2.781,2.781,0,0,0-3.816,2.5Zm17.29,11.923c.358,0,.953-.835,1.193-1.071l1.071-1.071c1.429-1.311,1.906-1.429,1.906-2.981a2.024,2.024,0,0,0-1.67-1.67h-.6c-.835,0-2.981,2.386-3.816,3.339-.358.358-.717.953-1.311,1.071-1.67-1.071-2.74-3.58-4.768-3.58a4.029,4.029,0,0,0-2.741,1.788c.118.24,3.934,4.174,4.292,4.174h6.438Zm-23.729-5.367a3.31,3.31,0,0,0,1.193,2.382l5.245,5.127c.358.477,6.556,6.915,7.033,6.915h37.916a2.734,2.734,0,0,0,.476-5.367,24.909,24.909,0,0,0-4.292-.118H92.263c-.953,0-.953-.236-1.433-.835l-10.013-9.9a2.75,2.75,0,0,0-4.887,1.788Zm24.922-27.063h3.575v3.575h-3.575Zm-3.575,8.226c.594,0,1.552-.717,2.028-.953.717-.24,7.867-.118,8.942-.118,2.386,0,3.575-.118,4.887-1.193a5.263,5.263,0,0,0,.358-7.99,4.924,4.924,0,0,0-3.816-1.552h-7.033a5.353,5.353,0,0,0-5.009,3.575c-.717,1.788-.358,5.721-.358,8.226Z" transform="translate(546.382 -1623.978)" fill="#004747" fill-rule="evenodd"/>
  </g>
</svg>
