<svg xmlns="http://www.w3.org/2000/svg" width="108.33" height="108.33" viewBox="0 0 108.33 108.33">
  <g id="Pulmonary_And_Thoracic_Surgery_Lung_Surgeries_" data-name="Pulmonary And Thoracic Surgery (Lung Surgeries)" transform="translate(-1190 -1018)">
    <path id="Path_9455" data-name="Path 9455" d="M2160.475,2594.166a54.161,54.161,0,1,1-38.3-15.865A54,54,0,0,1,2160.475,2594.166Z" transform="translate(-878.01 -1560.3)" fill="#004747"/>
    <path id="Path_9681" data-name="Path 9681" d="M2159.928,2659.872c.211-4.545.042-10.874,2.622-13.7,3.854-4.2,7.45,1.143,9.309,3.58a40.477,40.477,0,0,1,8.453,23.758c.051.793.084,1.619.084,2.42a49.7,49.7,0,0,1-1.556,12.239c-.721,2.146-1.606,4.022-4.317,3.693-3.428-.4-13.5-6.826-15.149-8.98-2.918-3.887-.337-9.343-.422-13.8l-3.386-.9a44.92,44.92,0,0,0-1.1,8.993c-.253,6.1,2.285,9.284,7.366,12.248,5.586,3.31,14.815,10.587,19.47,2.167,2.116-3.807,2.88-12,2.707-16.936a46.76,46.76,0,0,0-10.541-28.8,13.765,13.765,0,0,0-5.456-4.478,6.656,6.656,0,0,0-2.555-.506,6.743,6.743,0,0,0-4.8,2.007c-4.275,4.322-4.149,9.524-4.275,15.545l3.542,1.451Zm-25.225-3.284c-.379,1.353,3.259,5.388,4.106,7.863-.847.236-1.48.645-2.285.894-1.948.594-4.486-3.061-6.434-2.77-.253,1.218,1.779,2.374,3.3,3.828-1.733,1.354-5.966,1.518-6.054,3.116,1.1.75,6.687-1.471,8.462-1.834-.59,2.024-3.428,7.041-3.428,7.9.042.485,0,.257.126.527,1.1.864,4.571-7.218,6.093-8.888.594-.637,10.878-3.25,12.1-3.268a55.729,55.729,0,0,1,6.227,1.488c7.281,1.864,4.827-.189,10.283,8.959.51.864.763,1.75,1.821,1.83.637-1.24-2.412-5.852-3.343-8.521,1.779.337,7.365,2.3,8.424,1.977-.084-1.691-3.133-1.834-5.291-2.859-.379-.215.042.046-.379-.27l-.3-.24c.679-.607,1.143-.89,1.906-1.653.763-.717,1.691-.873,1.4-2.045-.932-.291-1.48.4-2.327.9-3.427,2.159-3.133,2.509-6.392.813.763-1.9,5.081-7.5,3.9-7.673l-.337-.059a.915.915,0,0,1-.131.017c-.464.114-.847.792-1.227,1.307l-4.4,5.519c-.59-.169-6.94-2.77-7.15-3.461v-25.01l-5.207-.021v25.032c-.337.721-.89.759-1.648,1.083a49.226,49.226,0,0,1-5.751,2.386,26.282,26.282,0,0,0-2.833-3.812c-1.615-2.062-1.994-3.268-3.226-3.057Zm5.957,17.489-4.76,4.777,4.828,5.131a20.987,20.987,0,0,1-3.318,2.458c-2.669,1.585-7.829,5.06-10.709,5.418-2.707.341-3.512-1.6-4.275-3.693a50.767,50.767,0,0,1-1.573-12.476c0-.725.017-1.455.051-2.176a42.556,42.556,0,0,1,8.466-23.754c1.864-2.361,5.629-7.854,9.309-3.583,2.707,3.069,2.412,8.938,2.623,13.677l3.554-1.417c.211-5.392-.422-11.742-4.107-15.439-4.655-4.625-9.394-1.21-12.863,2.74l-4.107,5.759a45.174,45.174,0,0,0-6.569,23.16c-.168,5.025.637,13.289,2.8,17.075,4.486,8.112,13.842,1.1,19.6-2.374a18.209,18.209,0,0,0,3.352-2.433l-.755,5.329c6.729,8.318,17.91,14.263,28.834,11.776l-24.315-23.981c.628-4.486-1.079-8.98-.767-11.822l-3.6.843a40.041,40.041,0,0,0,.8,7.462l-2.5-2.466Z" transform="translate(-906.454 -1593.065)" fill="#fff"/>
    <path id="Path_9682" data-name="Path 9682" d="M2154.777,2768.333h3.065v-2.146h-3.065Zm-6.737,0h3.369v-2.146h-3.369Zm19.605,0h3.369v-2.146h-3.369Zm-6.434,0h3.369v-2.146h-3.369Z" transform="translate(-924.298 -1657.046)" fill="#fff" fill-rule="evenodd"/>
    <path id="Path_9827" data-name="Path 9827" d="M2161.772,2745.57l20,19.921c-7.26-.717-14.55-4.553-18.479-10.418l.919-4.338-3.719-3.883Z" transform="translate(-924.298 -1657.046)" fill="#004747" fill-rule="evenodd"/>
  </g>
</svg>
