<svg xmlns="http://www.w3.org/2000/svg" width="108.482" height="108.482" viewBox="0 0 108.482 108.482">
  <g id="Radiation_Oncology" data-name="Radiation Oncology" transform="translate(-595 -1176)">
    <path id="Path_9663" data-name="Path 9663" d="M65.391,2930.73a54.241,54.241,0,1,1-54.241,54.241,54.242,54.242,0,0,1,54.241-54.241Z" transform="translate(583.85 -1754.73)" fill="#004747"/>
    <path id="Path_9664" data-name="Path 9664" d="M109.753,3015.035c-1.117-1.2-1.657-6.645-3.5-4.916-.249.232,1.328,12.294-5.494,6.645-1.134-.936-3-2.964-3.8-1.594-.62,1.063,8.584,10.612-3.487,8.437-2.787-.5-2.07,1.206-1.838,1.454.114.122,12,4.613,1.417,8.2-2.686.911-3.036,2.808.11,2.386,12.227-1.632,1.889,7.665,2.993,8.85,1.577,1.687,10.739-9.9,8.466,4.617-.249,1.6,1.408,1.079,1.505.991,1.505-1.408,1.539-5.81,4.8-5.708,3.453.109,3.689,7.964,5.726,6.063.569-.531-2.424-13.589,7.146-5.367.675.578,1.193,1.033,1.868.4,1.737-1.623-5.135-5.211-1.691-8.432,1.2-1.117,13.441,1.164,4.8-2.9-9.937-4.68,4.676-7.02,2.753-9.073-.864-.923-13.091,2.534-5.4-7.054,1.581-1.969.578-3.149-1.463-1.708-10.249,7.239-5.974-4.967-6.767-5.814-2.066-2.209-3.575,9.423-8.15,4.524Z" transform="translate(537.717 -1800.453)" fill="#fff"/>
    <path id="Path_9665" data-name="Path 9665" d="M125.4,3103.7l0,0c-.013.017-.017.025,0,.012Z" transform="translate(517.78 -1854.773)"/>
    <path id="Path_9666" data-name="Path 9666" d="M86.241,2978.158c3.4,9.984,5.991-7.02,9.925-2.808,1.906,2.041-3.976,13.374,6.059,6.282,3.272-2.31,5.641.253,3.082,3.445-8.862,11.042,12.366,2.757,5.645,9.04-3.086,2.884-10.545,3.617-3.107,7.121,11.957,5.633-5.009,4.958-5.026,4.971-3.01,2.816,4.895,6.489,1.868,9.313-3.584,3.348-10.262-10.869-9.571,2.88.489,9.7-6.716-3.782-7.479-3.807-2.108-.067-5.451,10.57-7.85,5.405-1.379-2.964,3.845-11.8-4.452-6.657-10.249,6.35-1.547-6.324-1.724-7.652-.291-2.188-11.691,1.1-8.812-3.609,1.733-2.842,13.732-3.36,1.412-8.812-2.02-.894-1.826-4.553,2.365-3.795,11.919,2.15,1.176-6.156,2.724-8.8,3.158-5.392,10.174,11.219,10.115-3.061-.021-5.064,3.044-4.705,4.828.535Zm19.335,52.229a1.657,1.657,0,1,1-1.366-3.019,30.86,30.86,0,0,0,13.551-11.156,28.208,28.208,0,0,0,4.368-16.388,1.653,1.653,0,0,1,3.305-.093,31.463,31.463,0,0,1-4.9,18.29A34.056,34.056,0,0,1,105.576,3030.388Zm-7.783-62.871a1.653,1.653,0,0,1-1.514,2.939,19.122,19.122,0,0,0-8.335-2.032,16.545,16.545,0,0,0-7.952,1.687,1.654,1.654,0,0,1-1.581-2.905,19.9,19.9,0,0,1,9.6-2.087,22.47,22.47,0,0,1,9.786,2.4Zm15.975-4.259a1.661,1.661,0,1,1-2.133,2.547,37.142,37.142,0,0,0-47.411-.207,1.657,1.657,0,0,1-2.1-2.56,40.465,40.465,0,0,1,51.648.224Zm-6.253,2.977a1.658,1.658,0,0,1-1.944,2.686,30.815,30.815,0,0,0-16.43-6.156,28.193,28.193,0,0,0-16.38,4.414,1.655,1.655,0,0,1-1.733-2.821,31.448,31.448,0,0,1,18.285-4.9,34.059,34.059,0,0,1,18.2,6.775Zm-50.564,38.177a1.657,1.657,0,1,1,3.31-.165,19.232,19.232,0,0,0,2.4,8.234,16.584,16.584,0,0,0,5.443,6.054,1.656,1.656,0,0,1-1.741,2.816,19.876,19.876,0,0,1-6.6-7.256,22.487,22.487,0,0,1-2.816-9.68Zm-5.966-7.775a1.655,1.655,0,0,1,3.293.333,30.8,30.8,0,0,0,2.888,17.3,28.237,28.237,0,0,0,12.012,11.987,1.655,1.655,0,0,1-1.577,2.909,31.461,31.461,0,0,1-13.386-13.382,34.091,34.091,0,0,1-3.23-19.15Zm58.343,24.694a1.653,1.653,0,0,1-1.8-2.774,19.134,19.134,0,0,0,5.928-6.206,16.572,16.572,0,0,0,2.521-7.741,1.656,1.656,0,1,1,3.31.105,19.877,19.877,0,0,1-2.989,9.347A22.422,22.422,0,0,1,109.329,3021.332Zm-4.3,15.962a1.653,1.653,0,1,1-1.143-3.1,37.149,37.149,0,0,0,23.885-40.964,1.656,1.656,0,1,1,3.268-.536,40.443,40.443,0,0,1-26.014,44.6Z" transform="translate(560.934 -1768.095)" fill="#fff" fill-rule="evenodd"/>
    <path id="Path_9667" data-name="Path 9667" d="M110.832,3018.023c-.8-.86-1.273-2.968-1.821-4.233.325,17.552-11.877-.489-8.508,5.308,4.785,8.23.54,8.2-5.957,7.711,13.1,5.983-.308,10.085-.535,10.25,3.727.055,11.725-1.75,5.848,7.682-4.073,6.535,10.439-11.864,7.522,6.826,1.1-1.358,4.334-12.817,10.131-.308-1.033-16.886,13.129.772,8.234-5.725-7.349-9.752,6.927-7.2,6.986-7.324.489-1.042-14.554-1.467-.877-10.043-13.361,2.188-4.267-9.039-4.25-9.065-2.576,1.235-10.245,7.652-8.9-4.3a3.334,3.334,0,0,1,.173-.759c-1.374,2.091-3.757,8.567-8.04,3.984Z" transform="translate(535.925 -1802.771)" fill="#004747"/>
    <path id="Path_9668" data-name="Path 9668" d="M122.8,3039.806c6.156,6.586,9.444-8.285,1.695-5.62A3.567,3.567,0,0,0,122.8,3039.806Zm11.093,6.855a1.608,1.608,0,1,0,2.273.076A1.607,1.607,0,0,0,133.892,3046.662Zm-14.183,3.086a1.608,1.608,0,1,0,2.273.076A1.607,1.607,0,0,0,119.709,3049.748Zm-1.965-10.043a1.232,1.232,0,1,0,1.741.059A1.232,1.232,0,0,0,117.744,3039.705Zm2.209,5.182a1.232,1.232,0,1,0,1.741.059A1.232,1.232,0,0,0,119.953,3044.887Zm12.606-7.4a1.232,1.232,0,1,0,1.741.059A1.232,1.232,0,0,0,132.56,3037.487Zm-3.112,4.486a1.232,1.232,0,1,0,1.741.059A1.232,1.232,0,0,0,129.448,3041.973Zm.08,10.3c4-3.736-4.6-7.442-4.6-1.851A2.753,2.753,0,0,0,129.528,3052.269Z" transform="translate(522.424 -1814.38)" fill="#fff"/>
    <path id="Path_9669" data-name="Path 9669" d="M36.914,3044.146a1.658,1.658,0,1,1,3.268.569,37.151,37.151,0,0,0,23.53,41.167,1.656,1.656,0,0,1-1.168,3.1,40.449,40.449,0,0,1-25.63-44.83Z" transform="translate(569.296 -1819.533)" fill="#fff"/>
  </g>
</svg>
