<svg xmlns="http://www.w3.org/2000/svg" width="108.482" height="108.482" viewBox="0 0 108.482 108.482">
  <g id="Sleep_Disorders_Unit" data-name="Sleep Disorders Unit" transform="translate(-1190 -1777)">
    <path id="Path_9710" data-name="Path 9710" d="M3110.371,1392.9a54.241,54.241,0,1,1-54.241,54.241A54.242,54.242,0,0,1,3110.371,1392.9Z" transform="translate(-1866.13 384.1)" fill="#004747"/>
    <path id="Path_9711" data-name="Path 9711" d="M3119.43,1544.17h21.945v-3.656H3119.43Zm25.6,0h29.5v-9.389a7.614,7.614,0,0,0-.852-3.537,6.981,6.981,0,0,0-1.83-2.681l-.244-.245a8.81,8.81,0,0,0-5.974-2.437h-20.6v18.29Z" transform="translate(-1902.741 307.187)" fill="#004747"/>
    <path id="Path_9712" data-name="Path 9712" d="M3178.65,1454.841h2.437l-3.537,7.315h8.411V1458.5h-2.437l3.537-7.193-8.411-.122v3.655Zm14.752-3.656c.367-.122,5,0,5.73,0l-7.315,10.97h12.56V1458.5h-5.73l7.315-10.97h-12.556v3.655Z" transform="translate(-1936.357 352.503)" fill="#fff" fill-rule="evenodd"/>
    <path id="Path_9713" data-name="Path 9713" d="M3125.386,1463.515c0-4.878,7.315-4.878,7.315,0S3125.386,1468.393,3125.386,1463.515Zm14.63,22.067h20.6a8.817,8.817,0,0,1,5.974,2.437l.245.245a7.019,7.019,0,0,1,1.83,2.681,7.551,7.551,0,0,1,.852,3.537v9.389h-29.5Zm-25.6,14.63h21.945v3.656h-21.945Zm7.315-22.067c0-4.878,7.315-4.878,7.315,0v11.093h7.315v7.315h-9.145a5.461,5.461,0,0,1-5.485-5.485Zm-3.656,12.923a9.552,9.552,0,0,0,1.83,5.485h-5.485v-16.46a36.346,36.346,0,0,0-3.655,0v34.868h3.655v-7.437h55.105v7.437h3.655V1494.6a12.776,12.776,0,0,0-1.1-5.123,15.263,15.263,0,0,0-2.559-3.655c-4.634-4.634-8.778-3.9-14.63-3.9h-18.53v3.656h-3.656V1477.9a7.553,7.553,0,0,0-2.192-5,7.286,7.286,0,0,0-10.241,0,6.881,6.881,0,0,0-1.463,2.192,6.323,6.323,0,0,0-.734,2.8v13.167Zm3.656-27.8a7.346,7.346,0,1,0,.729-2.926,7.324,7.324,0,0,0-.729,2.926Z" transform="translate(-1897.727 347.488)" fill="#fff" fill-rule="evenodd"/>
  </g>
</svg>
