<svg xmlns="http://www.w3.org/2000/svg" width="108.482" height="108.482" viewBox="0 0 108.482 108.482">
  <g id="Smoking_Cessation_Center" data-name="Smoking Cessation Center" transform="translate(-595 -871)">
    <path id="Path_9654" data-name="Path 9654" d="M65.391,1758.93a54.241,54.241,0,1,1-54.241,54.241,54.242,54.242,0,0,1,54.241-54.241Z" transform="translate(583.85 -887.93)" fill="#004747"/>
    <path id="Path_9655" data-name="Path 9655" d="M118.2,1852.474h4.591v-9.3H118.2Zm-57.251,0h46.378v-9.3H60.95Zm44.809-52.3v4.347a5.552,5.552,0,0,1,5.675,5.8,6.372,6.372,0,0,1-.485,2.294,3.576,3.576,0,0,1-.485.965l-.725.725a2.161,2.161,0,0,1-.843.6,5.08,5.08,0,0,1-.847.6c-2.9,1.088-2.294-1.328-2.294,5.072a12.112,12.112,0,0,1,11.594,8.335c1.088,3.259.843,7.488.843,11.114h4.591c0-6.4.6-11.114-3.019-16.548a15.423,15.423,0,0,0-2.778-3.381,18.671,18.671,0,0,0-3.866-2.416c.122-.24.725-.966,1.088-1.45a18.248,18.248,0,0,0,.965-1.568,10.358,10.358,0,0,0-1.568-11.114,8.812,8.812,0,0,0-3.744-2.9,13.015,13.015,0,0,0-2.053-.6,4.074,4.074,0,0,0-1.21-.122c-.485,0-.843-.24-.843.24Zm-16.548,19.2a10.784,10.784,0,0,0,5.435,9.061c4.95,2.9,10.507-.6,14.133,3.019,2.053,2.053,1.691,5.675,1.691,8.576h4.591c0-4.469.6-8.213-2.778-11.594l-1.088-1.088c-.725-.485-2.294-1.206-3.019-1.568-3.984-1.21-8.091.122-10.389-.965a6.507,6.507,0,0,1-3.866-5.312c0-2.656.965-4.469,3.381-5.435a6.48,6.48,0,0,1,2.294-.485L99.473,1809a10.583,10.583,0,0,0-7.248,3.019,9.4,9.4,0,0,0-2.053,3.141c-.24.6-.485,1.21-.725,1.813a17.855,17.855,0,0,0-.24,2.416Zm21.258,33.093h4.591v-9.3h-4.591Z" transform="translate(555.046 -911.608)" fill="#fff"/>
  </g>
</svg>
