<svg xmlns="http://www.w3.org/2000/svg" width="108.48" height="108.48" viewBox="0 0 108.48 108.48">
  <g id="Stem_Cells_Therapy_Center" data-name="Stem Cells Therapy Center" transform="translate(-38 -2396)">
    <path id="Path_8619" data-name="Path 8619" d="M54.24,0A54.24,54.24,0,1,1,0,54.24,54.24,54.24,0,0,1,54.24,0Z" transform="translate(38 2396)" fill="#004747"/>
    <path id="Path_99" data-name="Path 99" d="M54332.84,37041.918a11.376,11.376,0,0,1-6.891-9.684c-.406-4.855,1.648-8.395,5.523-10.914-.078-.562-.2-1.145-.3-1.668a19.7,19.7,0,0,1-.383-3.582,12.73,12.73,0,0,1,3.734-9,12.043,12.043,0,0,1,5.383-3.461c.656-.2,1.328-.336,1.992-.508a4.077,4.077,0,0,0,1.2-.426,1.579,1.579,0,0,0,.414-.359,14.065,14.065,0,0,1,18.414-3.234,14.258,14.258,0,0,1,1.391,1.035,9.777,9.777,0,0,0,.906.68,1.873,1.873,0,0,0,.422-.086c.391-.082.773-.187,1.148-.273a11.863,11.863,0,0,1,1.969-.363,12.144,12.144,0,0,1,7.32,1.906,11.958,11.958,0,0,1,5.055,6.836,10.1,10.1,0,0,1,.242,2,9.123,9.123,0,0,0,.133,1.27c.141.055.3.1.414.145.391.133.781.262,1.164.414a8.751,8.751,0,0,1,1.664.785,12.813,12.813,0,0,1,4.75,5.527,12.6,12.6,0,0,1,.391,8.984,14.337,14.337,0,0,1-.773,1.793c-.219.41-.437.809-.664,1.207-.031.059-.078.129-.117.191.063.164.141.328.211.5a14.645,14.645,0,0,1,.6,2.141,12.187,12.187,0,0,1-14.172,14.645c-.25-.027-.5-.059-.75-.086-2.672,4.762-8.969,6.891-14.133,5.344a12.117,12.117,0,0,1-2.8-1.34c-.156-.09-.391-.238-.648-.387a11.885,11.885,0,0,1-5.68,4.836,13.224,13.224,0,0,1-9.086.383,12.127,12.127,0,0,1-7.25-6.352,11.489,11.489,0,0,1-1.266-5.418A25.326,25.326,0,0,1,54332.84,37041.918Z" transform="translate(-54265.48 -34577.148)" fill="#fff" fill-rule="evenodd"/>
    <path id="Path_100" data-name="Path 100" d="M63679.188,41062.945c-3.328.48-6.062,1.777-7.586,3.563-1.172,1.371-3.375,5.348-2.25,7.867a26.831,26.831,0,0,0,7.086,9.594c1.523,1.191,1.828,1.539,4.383,1.25,11.023-1.25,12.8-14.25,6.539-19.34C63685.672,41064.5,63682.336,41062.5,63679.188,41062.945Z" transform="translate(-63578.047 -38629.75)" fill="#004747" fill-rule="evenodd"/>
    <path id="Path_101" data-name="Path 101" d="M56685.352,39613.477c-10.516,1.914-10.078,13.922-8.031,15.641a31.1,31.1,0,0,0,4.109,1.219,34.274,34.274,0,0,1,3.719,1.367c4.516,1.977,2.539,1.406,10.5-3.023,1.688-.945,1.594-.883,2.2-2.891.555-1.82.781-2.445.164-4.391A11.194,11.194,0,0,0,56685.352,39613.477Z" transform="translate(-56608.051 -37184.906)" fill="#004747" fill-rule="evenodd"/>
    <path id="Path_102" data-name="Path 102" d="M59670.023,44598.539a26.617,26.617,0,0,1-2.758-2.289,24.89,24.89,0,0,1-2.344-2.742c-1.555-2.117-2.977-5.352-3.914-6.508l-7.844,4.43c-1.641,1.07-.492,4.68-2.43,9.844-1.227,3.234-2.336,2.938.313,5.414a10.843,10.843,0,0,0,5.367,2.742c3.508.852,9.047-3.867,10.484-5.648C59667.672,44602.82,59670,44600.2,59670.023,44598.539Z" transform="translate(-59571.594 -42142.34)" fill="#004747" fill-rule="evenodd"/>
    <path id="Path_103" data-name="Path 103" d="M55199.621,45024.984c3.945-1.441,5.445,4.676,1.922,5.758A3.035,3.035,0,1,1,55199.621,45024.984Zm-2-6.559c-3.727,1.344-6.148,6.574-4.5,10.934a8.661,8.661,0,0,0,10.273,5.527c2.156-.469,2.758-1.762,3.68-4.414a29.126,29.126,0,0,0,1.359-6.91c.164-1.809.125-1.758-1.281-2.437-.977-.477-1.883-.836-2.922-1.254C55202.879,45019.34,55198.957,45017.945,55197.621,45018.426Z" transform="translate(-55129.34 -42572.258)" fill="#004747" fill-rule="evenodd"/>
    <path id="Path_104" data-name="Path 104" d="M62938.477,48395.883c3.438-.852,4.648,4.531,1.266,5.336A2.745,2.745,0,1,1,62938.477,48395.883Zm-9.469,3.531c1.07,4.438,9.469,8.477,14.984,3.258,3.469-3.312,4.5-8.273,1.57-12.484-1.352-1.945-1.875-2.187-4.594-2.187-.82,0-.836.758-1.266,1.578a21.1,21.1,0,0,1-3.906,4.9C62933.008,48397.078,62929.508,48398.883,62929.008,48399.414Z" transform="translate(-62840.453 -45930.91)" fill="#004747" fill-rule="evenodd"/>
    <path id="Path_105" data-name="Path 105" d="M68016.891,46241.977c2.727-1.289,4.633,3.086,1.906,4.273A2.34,2.34,0,1,1,68016.891,46241.977Zm-6.891-1.289c.383.68,1,1.328,1.508,2.141a11.02,11.02,0,0,1,1.219,2.727c.891,3.133.055,4.031-.016,6.758a9.677,9.677,0,0,0,11.781-6.383,9.483,9.483,0,0,0-6.2-11.93c-.984.641-2.211,3.086-3.336,4.016C68013.359,46239.352,68012.109,46239.68,68010,46240.688Z" transform="translate(-67904.82 -43783.953)" fill="#004747" fill-rule="evenodd"/>
    <path id="Path_106" data-name="Path 106" d="M57165.016,50377.164a3.041,3.041,0,0,1,1.383,5.922A3.058,3.058,0,1,1,57165.016,50377.164Zm-8.07-3.3c-1.719,2.3-.812,8.168,2.219,10.758,7.641,6.523,17.117-1.039,15.266-4.379-1.945-3.527-3.227-1.23-7.461-3.676a10.531,10.531,0,0,1-3.812-3.566,20.9,20.9,0,0,0-2.9.684C57159.016,50373.9,57158.086,50373.723,57156.945,50373.867Z" transform="translate(-57086.41 -47909.422)" fill="#004747" fill-rule="evenodd"/>
    <path id="Path_107" data-name="Path 107" d="M60453,37861.012c4.719,1.359,7.242,2.3,9.227,5.574,2.109-2.059,4.172-1.98,5.516.977l3.008-1.273c.281-3.785.3-4.414-1.477-6.27C60464.75,37855.328,60456.859,37856.09,60453,37861.012Z" transform="translate(-60372.539 -35434.234)" fill="#004747" fill-rule="evenodd"/>
    <path id="Path_108" data-name="Path 108" d="M70513.586,42429.105c1.563-.148,2.617.23,3.078,1.453.648,1.746-.539,2.559-1.094,3.2,1.016.543,2.289,1.941,3.016,2.242,2.656-2.543,2.453-9.332-1.945-12.848-.687-.566-2.953-1.875-4.148-1.621C70512.234,42424,70513.82,42425.781,70513.586,42429.105Z" transform="translate(-70399.109 -39983.926)" fill="#004747" fill-rule="evenodd"/>
    <path id="Path_109" data-name="Path 109" d="M66335.578,38798.512l1.031.059c-.8-4.7,6.922-3.867,3.8,1.109.7.738,2.25,1.348,3.555,2.734.578.617.336.6,1.133,1.031.383-3.945-1.039-7.18-3.141-8.742s-5.93-3.09-9.156-1.527c-.289.727,0,4.223,0,5.359Z" transform="translate(-66233 -36366.816)" fill="#004747" fill-rule="evenodd"/>
    <path id="Path_110" data-name="Path 110" d="M59327.234,42067.5a2.868,2.868,0,0,0-1.625,3.906,3,3,0,0,0,3.891,1.676C59333.273,42071.77,59331,42065.625,59327.234,42067.5Zm19.7-4.371c1.3-3.7-4.555-5.617-5.781-1.98C59339.789,42065.227,59345.609,42066.887,59346.938,42063.125Zm-27.453-13.531c-3.984.9-2.7,6.605,1.2,5.941C59324.32,42054.918,59323.578,42048.66,59319.484,42049.594Z" transform="translate(-59240.313 -39613.145)" fill="#fff" fill-rule="evenodd"/>
  </g>
</svg>
