<svg xmlns="http://www.w3.org/2000/svg" width="108.482" height="108.482" viewBox="0 0 108.482 108.482">
  <g id="Urology" transform="translate(-1190 -714)">
    <path id="Path_9702" data-name="Path 9702" d="M2122.071,1758.93a54.241,54.241,0,1,1-54.241,54.241A54.242,54.242,0,0,1,2122.071,1758.93Z" transform="translate(-877.83 -1044.93)" fill="#004747"/>
    <path id="Path_9703" data-name="Path 9703" d="M2146.173,1821.857v31.107c-2.192-.063-4.334-.013-6.274-.013-.282,0-.565,0-.852.009v-31.1c0-.7-1.257-.417-1.817-.417h-2.374V1836.8c-2.656-1.4-3.213-2.374-7.4-2.8-2.935-.278-3.074.139-3.913-1.256-1.678-2.374-.978-4.748-.839-6.147s-2.656-2.934-2.656,1.817c0,3.074.278,2.513.7,4.33a14.326,14.326,0,0,1-3.491-2.1c-.417-.417-.839-1.256-1.256-1.535-1.257-.557-3.913,1.117.978,4.469a18.978,18.978,0,0,0,4.191,1.817v.278c-.978.278-4.887,3.773-3.913,5.308,1.117,1.817,2.656-1.117,2.656-1.117a8.556,8.556,0,0,1,9.5-3.073,11.539,11.539,0,0,1,4.469,2.374c.978.839.978.839.978,2.513v11.573c-4.436.594-8.9,2.163-11.455,5.789a3.137,3.137,0,0,0-.257.43,14.755,14.755,0,0,0-1.67,6.324c0,7.648,5.139,12.623,11.139,16.392a15.858,15.858,0,0,0,3.5,1.851v4.161a3.347,3.347,0,0,0,3.339,3.339h6.295a3.347,3.347,0,0,0,3.339-3.339V1884.1c.1-.042.194-.08.282-.122a33.332,33.332,0,0,0,3.01-1.5c.072-.042.126-.076.194-.122a26.551,26.551,0,0,0,4.95-3.832c5.06-4.916,8.576-12.556,4.364-19.188-2.538-4-6.906-5.515-11.54-6.08V1841.69c0-1.678-.139-1.535.839-2.513a12.222,12.222,0,0,1,7.543-2.8,9.082,9.082,0,0,1,6.564,3.491c.417.7.7,1.678,1.678,1.678.839,0,1.117-.557,1.117-1.4,0-1.117-2.8-4.191-4.052-4.469v-.278a15.387,15.387,0,0,0,4.052-1.817c.561-.417,1.117-.839,1.678-1.256.557-.7,1.257-1.256,1.257-2.1,0-.978-.7-1.117-1.257-1.117-.7,0-.978.417-1.256.978a9.8,9.8,0,0,1-4.052,2.656,3.744,3.744,0,0,1,.278-.7,2.378,2.378,0,0,0,.139-.978c.417-1.4.7-5.865-1.117-5.865-2.652,0,.417,3.773-1.956,7.543-.839,1.256-.7.978-3.913,1.256-3.913.278-5.03,1.535-7.543,2.8v-15.364c-1.117,0-4.191-.278-4.191.417Zm-22.519-.582a4.291,4.291,0,0,0-3.74-1.417c-2.968,0-7.568,2.93-9.263,5.249-.249.375-.569.717-.831,1.109-3.263,4.7-3.63,15.385-.548,20.208,1.948,2.922,4.574,3.689,7.994,3.689,2.142,0,7.585-1.573,7.585-4.233s-1.5-4.208-2.07-6.51a.794.794,0,0,1,.552-.957c1.21-.346,2-1.037,3.39-.864a.778.778,0,0,1,.645.5l1.256,3.213a11.867,11.867,0,0,1,.894,5.038c0,8.9-22.08,14.647-26.292-2.323a32.49,32.49,0,0,1-.721-8.854,22.05,22.05,0,0,1,3.044-11.021c4.216-7.1,16.772-13.542,22.586-4.638a11.227,11.227,0,0,1,1.666,6.164,10.588,10.588,0,0,1-1.349,4.4c-.384.738-1.4,2.682-2.382,2.682-1.7,0-1.939-.675-2.315-2.294a.583.583,0,0,1-.017-.093,2.943,2.943,0,0,1,.358-2.4.566.566,0,0,1,.051-.084,3.916,3.916,0,0,0,.852-3.369,6.408,6.408,0,0,0-1.337-3.2Zm37.608,7.049c.607,1.1,0,4.385-1.543,4.385-1.657,0-1.438-.325-2.327-1.6a.272.272,0,0,1-.03-.046,10.591,10.591,0,0,1-1.931-6.278,10.141,10.141,0,0,1,1.822-5.485c3.681-5.569,10.157-4.844,15.3-1.91a19.719,19.719,0,0,1,10.178,17.733c0,5.051-.021,9.01-2.622,13.526-3.672,6.383-11.894,7.374-18.307,4.954-5.654-2.378-7.332-6.834-5.194-12.484l1.261-3.082a.787.787,0,0,1,.868-.485,11.7,11.7,0,0,1,2.218.514,7.412,7.412,0,0,0,.915.337.776.776,0,0,1,.519.413.76.76,0,0,1,.025.662l-1.244,3.036a9.73,9.73,0,0,0-.793,3.365c0,2.3,4.33,3.782,6.114,4.077,3.638.6,7.42-.363,9.453-3.66,2.69-4.364,2.462-11.607,1.164-16.414a14.272,14.272,0,0,0-6.476-8.179,10.982,10.982,0,0,0-6.164-1.847c-2.589,0-4.372,3.162-4.372,5.49a8.441,8.441,0,0,0,1.164,2.977Z" transform="translate(-897.884 -1077.433)" fill="#fff"/>
    <path id="Path_9704" data-name="Path 9704" d="M2157.38,1923.536c0,6.286,4.747,10.2,9.221,12.99a17.687,17.687,0,0,0,4.33,2.1c.278.278.417.139.417.557v5.726h6v-5.726c0-.417.139-.278.417-.417.7-.417,2.374-.978,4.33-2.1a23.878,23.878,0,0,0,4.191-3.213c3.63-3.491,6.986-9.36,3.773-14.385-3.352-5.308-12.573-4.608-18.3-4.608-4.33,0-10.477.7-13.129,4.469A11.155,11.155,0,0,0,2157.38,1923.536Z" transform="translate(-929.624 -1134.867)" fill="#004747"/>
  </g>
</svg>
